{
	"asset":{
		"generator":"Khronos glTF Blender I/O v4.1.63",
		"version":"2.0"
	},
	"extensionsUsed":[
		"KHR_materials_specular",
		"KHR_materials_ior"
	],
	"scene":0,
	"scenes":[
		{
			"name":"Scene",
			"nodes":[
				0,
				1
			]
		}
	],
	"nodes":[
		{
			"mesh":0,
			"name":"obj_claw01_collider"
		},
		{
			"mesh":1,
			"name":"obj_claw01"
		}
	],
	"materials":[
		{
			"doubleSided":true,
			"emissiveFactor":[
				1,
				1,
				1
			],
			"emissiveTexture":{
				"index":0
			},
			"extensions":{
				"KHR_materials_specular":{
					"specularFactor":0
				},
				"KHR_materials_ior":{
					"ior":1.4500000476837158
				}
			},
			"name":"obj_claw01",
			"pbrMetallicRoughness":{
				"baseColorTexture":{
					"index":1
				},
				"metallicFactor":0
			}
		}
	],
	"meshes":[
		{
			"name":"Mesh.281",
			"primitives":[
				{
					"attributes":{
						"POSITION":0,
						"NORMAL":1,
						"TEXCOORD_0":2
					},
					"indices":3
				}
			]
		},
		{
			"name":"Mesh.282",
			"primitives":[
				{
					"attributes":{
						"POSITION":4,
						"NORMAL":5,
						"TEXCOORD_0":6
					},
					"indices":7,
					"material":0
				}
			]
		}
	],
	"textures":[
		{
			"sampler":0,
			"source":0
		},
		{
			"sampler":0,
			"source":1
		}
	],
	"images":[
		{
			"mimeType":"image/png",
			"name":"obj_claw01_emission",
			"uri":"textures/obj_claw01_emission.png"
		},
		{
			"mimeType":"image/png",
			"name":"obj_claw01",
			"uri":"textures/obj_claw01.png"
		}
	],
	"accessors":[
		{
			"bufferView":0,
			"componentType":5126,
			"count":230,
			"max":[
				0.49181556701660156,
				2.8410403728485107,
				2.3034820556640625
			],
			"min":[
				-0.5007734298706055,
				-4.722576818494417e-08,
				-0.41934311389923096
			],
			"type":"VEC3"
		},
		{
			"bufferView":1,
			"componentType":5126,
			"count":230,
			"type":"VEC3"
		},
		{
			"bufferView":2,
			"componentType":5126,
			"count":230,
			"type":"VEC2"
		},
		{
			"bufferView":3,
			"componentType":5123,
			"count":450,
			"type":"SCALAR"
		},
		{
			"bufferView":4,
			"componentType":5126,
			"count":1216,
			"max":[
				0.5340799689292908,
				2.8410398960113525,
				2.2995522022247314
			],
			"min":[
				-0.5357123613357544,
				-3.930663794449174e-08,
				-0.53408282995224
			],
			"type":"VEC3"
		},
		{
			"bufferView":5,
			"componentType":5126,
			"count":1216,
			"type":"VEC3"
		},
		{
			"bufferView":6,
			"componentType":5126,
			"count":1216,
			"type":"VEC2"
		},
		{
			"bufferView":7,
			"componentType":5123,
			"count":3456,
			"type":"SCALAR"
		}
	],
	"bufferViews":[
		{
			"buffer":0,
			"byteLength":2760,
			"byteOffset":0,
			"target":34962
		},
		{
			"buffer":0,
			"byteLength":2760,
			"byteOffset":2760,
			"target":34962
		},
		{
			"buffer":0,
			"byteLength":1840,
			"byteOffset":5520,
			"target":34962
		},
		{
			"buffer":0,
			"byteLength":900,
			"byteOffset":7360,
			"target":34963
		},
		{
			"buffer":0,
			"byteLength":14592,
			"byteOffset":8260,
			"target":34962
		},
		{
			"buffer":0,
			"byteLength":14592,
			"byteOffset":22852,
			"target":34962
		},
		{
			"buffer":0,
			"byteLength":9728,
			"byteOffset":37444,
			"target":34962
		},
		{
			"buffer":0,
			"byteLength":6912,
			"byteOffset":47172,
			"target":34963
		}
	],
	"samplers":[
		{
			"magFilter":9729,
			"minFilter":9987
		}
	],
	"buffers":[
		{
			"byteLength":54084,
			"uri":"obj_claw01.bin"
		}
	]
}
