{
	"asset":{
		"generator":"Khronos glTF Blender I/O v4.1.63",
		"version":"2.0"
	},
	"extensionsUsed":[
		"KHR_materials_specular",
		"KHR_materials_ior"
	],
	"scene":0,
	"scenes":[
		{
			"name":"Scene",
			"nodes":[
				0,
				1
			]
		}
	],
	"nodes":[
		{
			"mesh":0,
			"name":"obj_bot"
		},
		{
			"mesh":1,
			"name":"obj_bot_collider"
		}
	],
	"materials":[
		{
			"doubleSided":true,
			"emissiveFactor":[
				0.10000000149011612,
				0.10000000149011612,
				0.10000000149011612
			],
			"emissiveTexture":{
				"index":0
			},
			"extensions":{
				"KHR_materials_specular":{
					"specularFactor":0
				},
				"KHR_materials_ior":{
					"ior":1.4500000476837158
				}
			},
			"name":"obj_bot",
			"pbrMetallicRoughness":{
				"baseColorTexture":{
					"index":1
				},
				"metallicFactor":0
			}
		},
		{
			"doubleSided":true,
			"emissiveFactor":[
				0.26229405403137207,
				0.5646868348121643,
				0.921515166759491
			],
			"extensions":{
				"KHR_materials_specular":{
					"specularFactor":0
				},
				"KHR_materials_ior":{
					"ior":1.4500000476837158
				}
			},
			"name":"obj_global_emission01",
			"pbrMetallicRoughness":{
				"baseColorFactor":[
					0.2617267668247223,
					0.566400408744812,
					0.9218639135360718,
					1
				],
				"metallicFactor":0
			}
		}
	],
	"meshes":[
		{
			"name":"Cube.006",
			"primitives":[
				{
					"attributes":{
						"POSITION":0,
						"NORMAL":1,
						"TEXCOORD_0":2
					},
					"indices":3,
					"material":0
				},
				{
					"attributes":{
						"POSITION":4,
						"NORMAL":5,
						"TEXCOORD_0":6
					},
					"indices":7,
					"material":1
				}
			]
		},
		{
			"name":"Cube.015",
			"primitives":[
				{
					"attributes":{
						"POSITION":8,
						"NORMAL":9,
						"TEXCOORD_0":10
					},
					"indices":11
				}
			]
		}
	],
	"textures":[
		{
			"sampler":0,
			"source":0
		},
		{
			"sampler":0,
			"source":0
		}
	],
	"images":[
		{
			"mimeType":"image/png",
			"name":"obj_bot",
			"uri":"textures/obj_bot.png"
		}
	],
	"accessors":[
		{
			"bufferView":0,
			"componentType":5126,
			"count":2545,
			"max":[
				0.9018175005912781,
				1.829160451889038,
				0.5952274799346924
			],
			"min":[
				-0.9020312428474426,
				-0.01576167345046997,
				-0.5953593254089355
			],
			"type":"VEC3"
		},
		{
			"bufferView":1,
			"componentType":5126,
			"count":2545,
			"type":"VEC3"
		},
		{
			"bufferView":2,
			"componentType":5126,
			"count":2545,
			"type":"VEC2"
		},
		{
			"bufferView":3,
			"componentType":5123,
			"count":10632,
			"type":"SCALAR"
		},
		{
			"bufferView":4,
			"componentType":5126,
			"count":302,
			"max":[
				0.6951010823249817,
				1.209887981414795,
				0.5952274799346924
			],
			"min":[
				-0.6953148245811462,
				-0.002135932445526123,
				-0.5953593254089355
			],
			"type":"VEC3"
		},
		{
			"bufferView":5,
			"componentType":5126,
			"count":302,
			"type":"VEC3"
		},
		{
			"bufferView":6,
			"componentType":5126,
			"count":302,
			"type":"VEC2"
		},
		{
			"bufferView":7,
			"componentType":5123,
			"count":1182,
			"type":"SCALAR"
		},
		{
			"bufferView":8,
			"componentType":5126,
			"count":24,
			"max":[
				0.9018175005912781,
				1.823167324066162,
				0.5952496528625488
			],
			"min":[
				-0.9020312428474426,
				-0.0018027424812316895,
				-0.595381498336792
			],
			"type":"VEC3"
		},
		{
			"bufferView":9,
			"componentType":5126,
			"count":24,
			"type":"VEC3"
		},
		{
			"bufferView":10,
			"componentType":5126,
			"count":24,
			"type":"VEC2"
		},
		{
			"bufferView":11,
			"componentType":5123,
			"count":36,
			"type":"SCALAR"
		}
	],
	"bufferViews":[
		{
			"buffer":0,
			"byteLength":30540,
			"byteOffset":0,
			"target":34962
		},
		{
			"buffer":0,
			"byteLength":30540,
			"byteOffset":30540,
			"target":34962
		},
		{
			"buffer":0,
			"byteLength":20360,
			"byteOffset":61080,
			"target":34962
		},
		{
			"buffer":0,
			"byteLength":21264,
			"byteOffset":81440,
			"target":34963
		},
		{
			"buffer":0,
			"byteLength":3624,
			"byteOffset":102704,
			"target":34962
		},
		{
			"buffer":0,
			"byteLength":3624,
			"byteOffset":106328,
			"target":34962
		},
		{
			"buffer":0,
			"byteLength":2416,
			"byteOffset":109952,
			"target":34962
		},
		{
			"buffer":0,
			"byteLength":2364,
			"byteOffset":112368,
			"target":34963
		},
		{
			"buffer":0,
			"byteLength":288,
			"byteOffset":114732,
			"target":34962
		},
		{
			"buffer":0,
			"byteLength":288,
			"byteOffset":115020,
			"target":34962
		},
		{
			"buffer":0,
			"byteLength":192,
			"byteOffset":115308,
			"target":34962
		},
		{
			"buffer":0,
			"byteLength":72,
			"byteOffset":115500,
			"target":34963
		}
	],
	"samplers":[
		{
			"magFilter":9729,
			"minFilter":9987
		}
	],
	"buffers":[
		{
			"byteLength":115572,
			"uri":"obj_bot.bin"
		}
	]
}
