{
	"asset":{
		"generator":"Khronos glTF Blender I/O v4.0.44",
		"version":"2.0"
	},
	"extensionsUsed":[
		"KHR_materials_specular",
		"KHR_materials_ior"
	],
	"scene":0,
	"scenes":[
		{
			"name":"Scene",
			"nodes":[
				1
			]
		}
	],
	"nodes":[
		{
			"mesh":0,
			"name":"obj_sofa_collider"
		},
		{
			"children":[
				0
			],
			"mesh":1,
			"name":"obj_sofa",
			"rotation":[
				0.7071068286895752,
				0,
				0,
				0.7071068286895752
			],
			"scale":[
				0.009999999776482582,
				0.009999999776482582,
				0.009999999776482582
			]
		}
	],
	"materials":[
		{
			"doubleSided":true,
			"emissiveFactor":[
				1,
				1,
				1
			],
			"emissiveTexture":{
				"index":0
			},
			"extensions":{
				"KHR_materials_specular":{
					"specularFactor":0
				},
				"KHR_materials_ior":{
					"ior":1.4500000476837158
				}
			},
			"name":"obj_sofa",
			"pbrMetallicRoughness":{
				"baseColorTexture":{
					"index":1
				},
				"metallicFactor":0
			}
		}
	],
	"meshes":[
		{
			"name":"Mesh.026",
			"primitives":[
				{
					"attributes":{
						"POSITION":0,
						"NORMAL":1,
						"TEXCOORD_0":2
					},
					"indices":3
				}
			]
		},
		{
			"name":"Mesh.027",
			"primitives":[
				{
					"attributes":{
						"POSITION":4,
						"NORMAL":5,
						"TEXCOORD_0":6
					},
					"indices":7,
					"material":0
				}
			]
		}
	],
	"textures":[
		{
			"sampler":0,
			"source":0
		},
		{
			"sampler":0,
			"source":1
		}
	],
	"images":[
		{
			"mimeType":"image/png",
			"name":"obj_sofa_emission",
			"uri":"textures/obj_sofa_emission.png"
		},
		{
			"mimeType":"image/png",
			"name":"obj_sofa",
			"uri":"textures/obj_sofa.png"
		}
	],
	"accessors":[
		{
			"bufferView":0,
			"componentType":5126,
			"count":379,
			"max":[
				17.419639587402344,
				112.56381225585938,
				1.9390051647232053e-15
			],
			"min":[
				-112.57626342773438,
				-112.56381225585938,
				-138.43675231933594
			],
			"type":"VEC3"
		},
		{
			"bufferView":1,
			"componentType":5126,
			"count":379,
			"type":"VEC3"
		},
		{
			"bufferView":2,
			"componentType":5126,
			"count":379,
			"type":"VEC2"
		},
		{
			"bufferView":3,
			"componentType":5123,
			"count":840,
			"type":"SCALAR"
		},
		{
			"bufferView":4,
			"componentType":5126,
			"count":835,
			"max":[
				17.419639587402344,
				112.56381225585938,
				2.1847715626108037e-15
			],
			"min":[
				-114.53010559082031,
				-112.56381225585938,
				-138.43675231933594
			],
			"type":"VEC3"
		},
		{
			"bufferView":5,
			"componentType":5126,
			"count":835,
			"type":"VEC3"
		},
		{
			"bufferView":6,
			"componentType":5126,
			"count":835,
			"type":"VEC2"
		},
		{
			"bufferView":7,
			"componentType":5123,
			"count":2250,
			"type":"SCALAR"
		}
	],
	"bufferViews":[
		{
			"buffer":0,
			"byteLength":4548,
			"byteOffset":0,
			"target":34962
		},
		{
			"buffer":0,
			"byteLength":4548,
			"byteOffset":4548,
			"target":34962
		},
		{
			"buffer":0,
			"byteLength":3032,
			"byteOffset":9096,
			"target":34962
		},
		{
			"buffer":0,
			"byteLength":1680,
			"byteOffset":12128,
			"target":34963
		},
		{
			"buffer":0,
			"byteLength":10020,
			"byteOffset":13808,
			"target":34962
		},
		{
			"buffer":0,
			"byteLength":10020,
			"byteOffset":23828,
			"target":34962
		},
		{
			"buffer":0,
			"byteLength":6680,
			"byteOffset":33848,
			"target":34962
		},
		{
			"buffer":0,
			"byteLength":4500,
			"byteOffset":40528,
			"target":34963
		}
	],
	"samplers":[
		{
			"magFilter":9729,
			"minFilter":9987
		}
	],
	"buffers":[
		{
			"byteLength":45028,
			"uri":"obj_sofa.bin"
		}
	]
}
