{
	"asset":{
		"generator":"Khronos glTF Blender I/O v4.0.44",
		"version":"2.0"
	},
	"extensionsUsed":[
		"KHR_materials_specular",
		"KHR_materials_ior"
	],
	"scene":0,
	"scenes":[
		{
			"name":"Scene",
			"nodes":[
				0,
				1
			]
		}
	],
	"nodes":[
		{
			"mesh":0,
			"name":"obj_lab05"
		},
		{
			"mesh":1,
			"name":"obj_lab05_collider"
		}
	],
	"materials":[
		{
			"doubleSided":true,
			"emissiveFactor":[
				0.10999999940395355,
				0.10999999940395355,
				0.10999999940395355
			],
			"emissiveTexture":{
				"index":0
			},
			"name":"obj_container",
			"pbrMetallicRoughness":{
				"baseColorTexture":{
					"index":1
				},
				"metallicFactor":0
			}
		},
		{
			"doubleSided":true,
			"emissiveFactor":[
				0.07999999821186066,
				0.07999999821186066,
				0.07999999821186066
			],
			"emissiveTexture":{
				"index":2
			},
			"extensions":{
				"KHR_materials_specular":{
					"specularFactor":0
				},
				"KHR_materials_ior":{
					"ior":1.4500000476837158
				}
			},
			"name":"obj_lab05_01",
			"pbrMetallicRoughness":{
				"baseColorTexture":{
					"index":3
				},
				"metallicFactor":0
			}
		},
		{
			"doubleSided":true,
			"emissiveFactor":[
				0.26229405403137207,
				0.5646868348121643,
				0.921515166759491
			],
			"extensions":{
				"KHR_materials_specular":{
					"specularFactor":0
				},
				"KHR_materials_ior":{
					"ior":1.4500000476837158
				}
			},
			"name":"obj_global_emission01",
			"pbrMetallicRoughness":{
				"baseColorFactor":[
					0.2617267668247223,
					0.566400408744812,
					0.9218639135360718,
					1
				],
				"metallicFactor":0
			}
		},
		{
			"doubleSided":true,
			"emissiveFactor":[
				0.07999999821186066,
				0.07999999821186066,
				0.07999999821186066
			],
			"emissiveTexture":{
				"index":4
			},
			"extensions":{
				"KHR_materials_specular":{
					"specularFactor":0
				},
				"KHR_materials_ior":{
					"ior":1.4500000476837158
				}
			},
			"name":"obj_lab05_02",
			"pbrMetallicRoughness":{
				"baseColorTexture":{
					"index":5
				},
				"metallicFactor":0
			}
		}
	],
	"meshes":[
		{
			"name":"Cylinder.002",
			"primitives":[
				{
					"attributes":{
						"POSITION":0,
						"NORMAL":1,
						"TEXCOORD_0":2
					},
					"indices":3,
					"material":0
				},
				{
					"attributes":{
						"POSITION":4,
						"NORMAL":5,
						"TEXCOORD_0":6
					},
					"indices":7,
					"material":1
				},
				{
					"attributes":{
						"POSITION":8,
						"NORMAL":9,
						"TEXCOORD_0":10
					},
					"indices":11,
					"material":2
				},
				{
					"attributes":{
						"POSITION":12,
						"NORMAL":13,
						"TEXCOORD_0":14
					},
					"indices":15,
					"material":3
				}
			]
		},
		{
			"name":"Cube.001",
			"primitives":[
				{
					"attributes":{
						"POSITION":16,
						"NORMAL":17,
						"TEXCOORD_0":18
					},
					"indices":19
				}
			]
		}
	],
	"textures":[
		{
			"sampler":0,
			"source":0
		},
		{
			"sampler":0,
			"source":0
		},
		{
			"sampler":0,
			"source":1
		},
		{
			"sampler":0,
			"source":1
		},
		{
			"sampler":0,
			"source":2
		},
		{
			"sampler":0,
			"source":2
		}
	],
	"images":[
		{
			"mimeType":"image/png",
			"name":"obj_container",
			"uri":"textures/obj_container.png"
		},
		{
			"mimeType":"image/png",
			"name":"obj_lab05_01",
			"uri":"textures/obj_lab05_01.png"
		},
		{
			"mimeType":"image/png",
			"name":"obj_lab05_02",
			"uri":"textures/obj_lab05_02.png"
		}
	],
	"accessors":[
		{
			"bufferView":0,
			"componentType":5126,
			"count":1560,
			"max":[
				1.0058897733688354,
				2.0719094276428223,
				0.41597795486450195
			],
			"min":[
				-1.0116299390792847,
				0.61602383852005,
				-0.19905388355255127
			],
			"type":"VEC3"
		},
		{
			"bufferView":1,
			"componentType":5126,
			"count":1560,
			"type":"VEC3"
		},
		{
			"bufferView":2,
			"componentType":5126,
			"count":1560,
			"type":"VEC2"
		},
		{
			"bufferView":3,
			"componentType":5123,
			"count":4608,
			"type":"SCALAR"
		},
		{
			"bufferView":4,
			"componentType":5126,
			"count":749,
			"max":[
				1.2819687128067017,
				2.4641060829162598,
				0.48558366298675537
			],
			"min":[
				-1.281968116760254,
				-1.1920928955078125e-07,
				-0.46807801723480225
			],
			"type":"VEC3"
		},
		{
			"bufferView":5,
			"componentType":5126,
			"count":749,
			"type":"VEC3"
		},
		{
			"bufferView":6,
			"componentType":5126,
			"count":749,
			"type":"VEC2"
		},
		{
			"bufferView":7,
			"componentType":5123,
			"count":1794,
			"type":"SCALAR"
		},
		{
			"bufferView":8,
			"componentType":5126,
			"count":12,
			"max":[
				1.0136312246322632,
				2.3364784717559814,
				0.48558372259140015
			],
			"min":[
				-1.013630747795105,
				1.4609699249267578,
				0.4040215015411377
			],
			"type":"VEC3"
		},
		{
			"bufferView":9,
			"componentType":5126,
			"count":12,
			"type":"VEC3"
		},
		{
			"bufferView":10,
			"componentType":5126,
			"count":12,
			"type":"VEC2"
		},
		{
			"bufferView":11,
			"componentType":5123,
			"count":24,
			"type":"SCALAR"
		},
		{
			"bufferView":12,
			"componentType":5126,
			"count":399,
			"max":[
				1.298115849494934,
				2.180874824523926,
				0.5008541941642761
			],
			"min":[
				-1.2981152534484863,
				0,
				-0.5132245421409607
			],
			"type":"VEC3"
		},
		{
			"bufferView":13,
			"componentType":5126,
			"count":399,
			"type":"VEC3"
		},
		{
			"bufferView":14,
			"componentType":5126,
			"count":399,
			"type":"VEC2"
		},
		{
			"bufferView":15,
			"componentType":5123,
			"count":948,
			"type":"SCALAR"
		},
		{
			"bufferView":16,
			"componentType":5126,
			"count":24,
			"max":[
				1.2831149101257324,
				2.464106321334839,
				0.5212693214416504
			],
			"min":[
				-1.2831149101257324,
				0,
				-0.46807706356048584
			],
			"type":"VEC3"
		},
		{
			"bufferView":17,
			"componentType":5126,
			"count":24,
			"type":"VEC3"
		},
		{
			"bufferView":18,
			"componentType":5126,
			"count":24,
			"type":"VEC2"
		},
		{
			"bufferView":19,
			"componentType":5123,
			"count":36,
			"type":"SCALAR"
		}
	],
	"bufferViews":[
		{
			"buffer":0,
			"byteLength":18720,
			"byteOffset":0,
			"target":34962
		},
		{
			"buffer":0,
			"byteLength":18720,
			"byteOffset":18720,
			"target":34962
		},
		{
			"buffer":0,
			"byteLength":12480,
			"byteOffset":37440,
			"target":34962
		},
		{
			"buffer":0,
			"byteLength":9216,
			"byteOffset":49920,
			"target":34963
		},
		{
			"buffer":0,
			"byteLength":8988,
			"byteOffset":59136,
			"target":34962
		},
		{
			"buffer":0,
			"byteLength":8988,
			"byteOffset":68124,
			"target":34962
		},
		{
			"buffer":0,
			"byteLength":5992,
			"byteOffset":77112,
			"target":34962
		},
		{
			"buffer":0,
			"byteLength":3588,
			"byteOffset":83104,
			"target":34963
		},
		{
			"buffer":0,
			"byteLength":144,
			"byteOffset":86692,
			"target":34962
		},
		{
			"buffer":0,
			"byteLength":144,
			"byteOffset":86836,
			"target":34962
		},
		{
			"buffer":0,
			"byteLength":96,
			"byteOffset":86980,
			"target":34962
		},
		{
			"buffer":0,
			"byteLength":48,
			"byteOffset":87076,
			"target":34963
		},
		{
			"buffer":0,
			"byteLength":4788,
			"byteOffset":87124,
			"target":34962
		},
		{
			"buffer":0,
			"byteLength":4788,
			"byteOffset":91912,
			"target":34962
		},
		{
			"buffer":0,
			"byteLength":3192,
			"byteOffset":96700,
			"target":34962
		},
		{
			"buffer":0,
			"byteLength":1896,
			"byteOffset":99892,
			"target":34963
		},
		{
			"buffer":0,
			"byteLength":288,
			"byteOffset":101788,
			"target":34962
		},
		{
			"buffer":0,
			"byteLength":288,
			"byteOffset":102076,
			"target":34962
		},
		{
			"buffer":0,
			"byteLength":192,
			"byteOffset":102364,
			"target":34962
		},
		{
			"buffer":0,
			"byteLength":72,
			"byteOffset":102556,
			"target":34963
		}
	],
	"samplers":[
		{
			"magFilter":9729,
			"minFilter":9987
		}
	],
	"buffers":[
		{
			"byteLength":102628,
			"uri":"obj_lab05.bin"
		}
	]
}
