{
	"asset":{
		"generator":"Khronos glTF Blender I/O v4.0.44",
		"version":"2.0"
	},
	"extensionsUsed":[
		"KHR_materials_specular",
		"KHR_materials_ior"
	],
	"scene":0,
	"scenes":[
		{
			"name":"Scene",
			"nodes":[
				6
			]
		}
	],
	"nodes":[
		{
			"mesh":0,
			"name":"obj_lamp01_collider",
			"rotation":[
				0.7071068286895752,
				0,
				0,
				0.7071068286895752
			]
		},
		{
			"mesh":1,
			"name":"obj_lamp01_liquid01",
			"rotation":[
				0.7071068286895752,
				0,
				0,
				0.7071068286895752
			],
			"translation":[
				0.05255039036273956,
				1.0785304307937622,
				-0.07897290587425232
			]
		},
		{
			"mesh":2,
			"name":"obj_lamp01_liquid02",
			"translation":[
				-0.04779469966888428,
				0.688363254070282,
				0.02170032262802124
			]
		},
		{
			"mesh":3,
			"name":"obj_lamp01_liquid03",
			"rotation":[
				0.7071068286895752,
				0,
				0,
				0.7071068286895752
			],
			"translation":[
				0.07380441576242447,
				1.5946147441864014,
				0.020443124696612358
			]
		},
		{
			"mesh":4,
			"name":"obj_lamp01_liquid04",
			"rotation":[
				0.7071068286895752,
				0,
				0,
				0.7071068286895752
			],
			"translation":[
				0.003696683794260025,
				1.8344255685806274,
				-0.011980333365499973
			]
		},
		{
			"mesh":5,
			"name":"obj_lamp01_mesh",
			"rotation":[
				0.7071068286895752,
				0,
				0,
				0.7071068286895752
			]
		},
		{
			"children":[
				0,
				1,
				2,
				3,
				4,
				5
			],
			"name":"obj_lamp01_root"
		}
	],
	"animations":[
		{
			"channels":[
				{
					"sampler":0,
					"target":{
						"node":1,
						"path":"translation"
					}
				},
				{
					"sampler":1,
					"target":{
						"node":1,
						"path":"rotation"
					}
				},
				{
					"sampler":2,
					"target":{
						"node":1,
						"path":"scale"
					}
				},
				{
					"sampler":3,
					"target":{
						"node":2,
						"path":"translation"
					}
				},
				{
					"sampler":4,
					"target":{
						"node":2,
						"path":"rotation"
					}
				},
				{
					"sampler":5,
					"target":{
						"node":2,
						"path":"scale"
					}
				},
				{
					"sampler":6,
					"target":{
						"node":3,
						"path":"translation"
					}
				},
				{
					"sampler":7,
					"target":{
						"node":3,
						"path":"rotation"
					}
				},
				{
					"sampler":8,
					"target":{
						"node":3,
						"path":"scale"
					}
				},
				{
					"sampler":9,
					"target":{
						"node":4,
						"path":"translation"
					}
				},
				{
					"sampler":10,
					"target":{
						"node":4,
						"path":"rotation"
					}
				},
				{
					"sampler":11,
					"target":{
						"node":4,
						"path":"scale"
					}
				}
			],
			"name":"Animation",
			"samplers":[
				{
					"input":30,
					"interpolation":"LINEAR",
					"output":31
				},
				{
					"input":32,
					"interpolation":"STEP",
					"output":33
				},
				{
					"input":30,
					"interpolation":"LINEAR",
					"output":34
				},
				{
					"input":32,
					"interpolation":"STEP",
					"output":35
				},
				{
					"input":32,
					"interpolation":"STEP",
					"output":36
				},
				{
					"input":30,
					"interpolation":"LINEAR",
					"output":37
				},
				{
					"input":30,
					"interpolation":"LINEAR",
					"output":38
				},
				{
					"input":32,
					"interpolation":"STEP",
					"output":39
				},
				{
					"input":30,
					"interpolation":"LINEAR",
					"output":40
				},
				{
					"input":30,
					"interpolation":"LINEAR",
					"output":41
				},
				{
					"input":32,
					"interpolation":"STEP",
					"output":42
				},
				{
					"input":30,
					"interpolation":"LINEAR",
					"output":43
				}
			]
		}
	],
	"materials":[
		{
			"doubleSided":true,
			"emissiveFactor":[
				0.26229405403137207,
				0.5646868348121643,
				0.921515166759491
			],
			"extensions":{
				"KHR_materials_specular":{
					"specularFactor":0
				},
				"KHR_materials_ior":{
					"ior":1.4500000476837158
				}
			},
			"name":"obj_global_emission01",
			"pbrMetallicRoughness":{
				"baseColorFactor":[
					0.2617267668247223,
					0.566400408744812,
					0.9218639135360718,
					1
				],
				"metallicFactor":0
			}
		},
		{
			"doubleSided":true,
			"emissiveFactor":[
				0.07999999821186066,
				0.07999999821186066,
				0.07999999821186066
			],
			"emissiveTexture":{
				"index":0
			},
			"extensions":{
				"KHR_materials_specular":{
					"specularFactor":0
				},
				"KHR_materials_ior":{
					"ior":1.4500000476837158
				}
			},
			"name":"obj_lamp01",
			"pbrMetallicRoughness":{
				"baseColorTexture":{
					"index":1
				},
				"metallicFactor":0
			}
		},
		{
			"alphaMode":"BLEND",
			"extensions":{
				"KHR_materials_specular":{
					"specularFactor":0
				},
				"KHR_materials_ior":{
					"ior":1.4500000476837158
				}
			},
			"name":"obj_global_glass01",
			"pbrMetallicRoughness":{
				"baseColorFactor":[
					1,
					1,
					1,
					0.75
				],
				"baseColorTexture":{
					"index":2
				},
				"metallicFactor":0
			}
		}
	],
	"meshes":[
		{
			"name":"Cylinder002.004",
			"primitives":[
				{
					"attributes":{
						"POSITION":0,
						"NORMAL":1,
						"TEXCOORD_0":2
					},
					"indices":3
				}
			]
		},
		{
			"name":"Box003.002",
			"primitives":[
				{
					"attributes":{
						"POSITION":4,
						"NORMAL":5,
						"TEXCOORD_0":6
					},
					"indices":7,
					"material":0
				}
			]
		},
		{
			"name":"Box002.002",
			"primitives":[
				{
					"attributes":{
						"POSITION":8,
						"NORMAL":9,
						"TEXCOORD_0":10
					},
					"indices":11,
					"material":0
				}
			]
		},
		{
			"name":"Box001.002",
			"primitives":[
				{
					"attributes":{
						"POSITION":12,
						"NORMAL":13,
						"TEXCOORD_0":14
					},
					"indices":7,
					"material":0
				}
			]
		},
		{
			"name":"Box004.002",
			"primitives":[
				{
					"attributes":{
						"POSITION":15,
						"NORMAL":16,
						"TEXCOORD_0":17
					},
					"indices":7,
					"material":0
				}
			]
		},
		{
			"name":"Cylinder002.002",
			"primitives":[
				{
					"attributes":{
						"POSITION":18,
						"NORMAL":19,
						"TEXCOORD_0":20
					},
					"indices":21,
					"material":1
				},
				{
					"attributes":{
						"POSITION":22,
						"NORMAL":23,
						"TEXCOORD_0":24
					},
					"indices":25,
					"material":0
				},
				{
					"attributes":{
						"POSITION":26,
						"NORMAL":27,
						"TEXCOORD_0":28
					},
					"indices":29,
					"material":2
				}
			]
		}
	],
	"textures":[
		{
			"sampler":0,
			"source":0
		},
		{
			"sampler":0,
			"source":0
		},
		{
			"sampler":0,
			"source":1
		}
	],
	"images":[
		{
			"mimeType":"image/png",
			"name":"obj_lamp01",
			"uri":"textures/obj_lamp01.png"
		},
		{
			"mimeType":"image/png",
			"name":"obj_global_glass01",
			"uri":"textures/obj_global_glass01.png"
		}
	],
	"accessors":[
		{
			"bufferView":0,
			"componentType":5126,
			"count":32,
			"max":[
				0.32535213232040405,
				0.3756835460662842,
				0.007807859219610691
			],
			"min":[
				-0.32535213232040405,
				-0.3756835460662842,
				-2.2401480674743652
			],
			"type":"VEC3"
		},
		{
			"bufferView":1,
			"componentType":5126,
			"count":32,
			"type":"VEC3"
		},
		{
			"bufferView":2,
			"componentType":5126,
			"count":32,
			"type":"VEC2"
		},
		{
			"bufferView":3,
			"componentType":5123,
			"count":108,
			"type":"SCALAR"
		},
		{
			"bufferView":4,
			"componentType":5126,
			"count":34,
			"max":[
				0.06253239512443542,
				0.05875243619084358,
				0.06541776657104492
			],
			"min":[
				-0.06253239512443542,
				-0.05875243991613388,
				-0.06541776657104492
			],
			"type":"VEC3"
		},
		{
			"bufferView":5,
			"componentType":5126,
			"count":34,
			"type":"VEC3"
		},
		{
			"bufferView":6,
			"componentType":5126,
			"count":34,
			"type":"VEC2"
		},
		{
			"bufferView":7,
			"componentType":5123,
			"count":144,
			"type":"SCALAR"
		},
		{
			"bufferView":8,
			"componentType":5126,
			"count":114,
			"max":[
				0.11522363126277924,
				0.8494147658348083,
				0.10566070675849915
			],
			"min":[
				-0.11522363126277924,
				0,
				-0.10566070675849915
			],
			"type":"VEC3"
		},
		{
			"bufferView":9,
			"componentType":5126,
			"count":114,
			"type":"VEC3"
		},
		{
			"bufferView":10,
			"componentType":5126,
			"count":114,
			"type":"VEC2"
		},
		{
			"bufferView":11,
			"componentType":5123,
			"count":528,
			"type":"SCALAR"
		},
		{
			"bufferView":12,
			"componentType":5126,
			"count":34,
			"max":[
				0.06548161059617996,
				0.06149075925350189,
				0.0802685022354126
			],
			"min":[
				-0.06548161059617996,
				-0.06149075925350189,
				-0.0802685022354126
			],
			"type":"VEC3"
		},
		{
			"bufferView":13,
			"componentType":5126,
			"count":34,
			"type":"VEC3"
		},
		{
			"bufferView":14,
			"componentType":5126,
			"count":34,
			"type":"VEC2"
		},
		{
			"bufferView":15,
			"componentType":5126,
			"count":34,
			"max":[
				0.06789359450340271,
				0.06376022100448608,
				0.10340273380279541
			],
			"min":[
				-0.06789359450340271,
				-0.06376022100448608,
				-0.10340273380279541
			],
			"type":"VEC3"
		},
		{
			"bufferView":16,
			"componentType":5126,
			"count":34,
			"type":"VEC3"
		},
		{
			"bufferView":17,
			"componentType":5126,
			"count":34,
			"type":"VEC2"
		},
		{
			"bufferView":18,
			"componentType":5126,
			"count":194,
			"max":[
				0.33609873056411743,
				0.33609873056411743,
				0.0010579823283478618
			],
			"min":[
				-0.33609873056411743,
				-0.33609873056411743,
				-2.235858917236328
			],
			"type":"VEC3"
		},
		{
			"bufferView":19,
			"componentType":5126,
			"count":194,
			"type":"VEC3"
		},
		{
			"bufferView":20,
			"componentType":5126,
			"count":194,
			"type":"VEC2"
		},
		{
			"bufferView":21,
			"componentType":5123,
			"count":576,
			"type":"SCALAR"
		},
		{
			"bufferView":22,
			"componentType":5126,
			"count":98,
			"max":[
				0.3110474944114685,
				0.3110474944114685,
				-0.05062603950500488
			],
			"min":[
				-0.3110474944114685,
				-0.3110474944114685,
				-2.0334973335266113
			],
			"type":"VEC3"
		},
		{
			"bufferView":23,
			"componentType":5126,
			"count":98,
			"type":"VEC3"
		},
		{
			"bufferView":24,
			"componentType":5126,
			"count":98,
			"type":"VEC2"
		},
		{
			"bufferView":25,
			"componentType":5123,
			"count":288,
			"type":"SCALAR"
		},
		{
			"bufferView":26,
			"componentType":5126,
			"count":55,
			"max":[
				0.22483891248703003,
				0.20915217697620392,
				-0.7068395614624023
			],
			"min":[
				-0.2149905264377594,
				-0.20915217697620392,
				-1.9058797359466553
			],
			"type":"VEC3"
		},
		{
			"bufferView":27,
			"componentType":5126,
			"count":55,
			"type":"VEC3"
		},
		{
			"bufferView":28,
			"componentType":5126,
			"count":55,
			"type":"VEC2"
		},
		{
			"bufferView":29,
			"componentType":5123,
			"count":240,
			"type":"SCALAR"
		},
		{
			"bufferView":30,
			"componentType":5126,
			"count":121,
			"max":[
				4
			],
			"min":[
				0
			],
			"type":"SCALAR"
		},
		{
			"bufferView":31,
			"componentType":5126,
			"count":121,
			"type":"VEC3"
		},
		{
			"bufferView":32,
			"componentType":5126,
			"count":2,
			"max":[
				4
			],
			"min":[
				0
			],
			"type":"SCALAR"
		},
		{
			"bufferView":33,
			"componentType":5126,
			"count":2,
			"type":"VEC4"
		},
		{
			"bufferView":34,
			"componentType":5126,
			"count":121,
			"type":"VEC3"
		},
		{
			"bufferView":35,
			"componentType":5126,
			"count":2,
			"type":"VEC3"
		},
		{
			"bufferView":36,
			"componentType":5126,
			"count":2,
			"type":"VEC4"
		},
		{
			"bufferView":37,
			"componentType":5126,
			"count":121,
			"type":"VEC3"
		},
		{
			"bufferView":38,
			"componentType":5126,
			"count":121,
			"type":"VEC3"
		},
		{
			"bufferView":39,
			"componentType":5126,
			"count":2,
			"type":"VEC4"
		},
		{
			"bufferView":40,
			"componentType":5126,
			"count":121,
			"type":"VEC3"
		},
		{
			"bufferView":41,
			"componentType":5126,
			"count":121,
			"type":"VEC3"
		},
		{
			"bufferView":42,
			"componentType":5126,
			"count":2,
			"type":"VEC4"
		},
		{
			"bufferView":43,
			"componentType":5126,
			"count":121,
			"type":"VEC3"
		}
	],
	"bufferViews":[
		{
			"buffer":0,
			"byteLength":384,
			"byteOffset":0,
			"target":34962
		},
		{
			"buffer":0,
			"byteLength":384,
			"byteOffset":384,
			"target":34962
		},
		{
			"buffer":0,
			"byteLength":256,
			"byteOffset":768,
			"target":34962
		},
		{
			"buffer":0,
			"byteLength":216,
			"byteOffset":1024,
			"target":34963
		},
		{
			"buffer":0,
			"byteLength":408,
			"byteOffset":1240,
			"target":34962
		},
		{
			"buffer":0,
			"byteLength":408,
			"byteOffset":1648,
			"target":34962
		},
		{
			"buffer":0,
			"byteLength":272,
			"byteOffset":2056,
			"target":34962
		},
		{
			"buffer":0,
			"byteLength":288,
			"byteOffset":2328,
			"target":34963
		},
		{
			"buffer":0,
			"byteLength":1368,
			"byteOffset":2616,
			"target":34962
		},
		{
			"buffer":0,
			"byteLength":1368,
			"byteOffset":3984,
			"target":34962
		},
		{
			"buffer":0,
			"byteLength":912,
			"byteOffset":5352,
			"target":34962
		},
		{
			"buffer":0,
			"byteLength":1056,
			"byteOffset":6264,
			"target":34963
		},
		{
			"buffer":0,
			"byteLength":408,
			"byteOffset":7320,
			"target":34962
		},
		{
			"buffer":0,
			"byteLength":408,
			"byteOffset":7728,
			"target":34962
		},
		{
			"buffer":0,
			"byteLength":272,
			"byteOffset":8136,
			"target":34962
		},
		{
			"buffer":0,
			"byteLength":408,
			"byteOffset":8408,
			"target":34962
		},
		{
			"buffer":0,
			"byteLength":408,
			"byteOffset":8816,
			"target":34962
		},
		{
			"buffer":0,
			"byteLength":272,
			"byteOffset":9224,
			"target":34962
		},
		{
			"buffer":0,
			"byteLength":2328,
			"byteOffset":9496,
			"target":34962
		},
		{
			"buffer":0,
			"byteLength":2328,
			"byteOffset":11824,
			"target":34962
		},
		{
			"buffer":0,
			"byteLength":1552,
			"byteOffset":14152,
			"target":34962
		},
		{
			"buffer":0,
			"byteLength":1152,
			"byteOffset":15704,
			"target":34963
		},
		{
			"buffer":0,
			"byteLength":1176,
			"byteOffset":16856,
			"target":34962
		},
		{
			"buffer":0,
			"byteLength":1176,
			"byteOffset":18032,
			"target":34962
		},
		{
			"buffer":0,
			"byteLength":784,
			"byteOffset":19208,
			"target":34962
		},
		{
			"buffer":0,
			"byteLength":576,
			"byteOffset":19992,
			"target":34963
		},
		{
			"buffer":0,
			"byteLength":660,
			"byteOffset":20568,
			"target":34962
		},
		{
			"buffer":0,
			"byteLength":660,
			"byteOffset":21228,
			"target":34962
		},
		{
			"buffer":0,
			"byteLength":440,
			"byteOffset":21888,
			"target":34962
		},
		{
			"buffer":0,
			"byteLength":480,
			"byteOffset":22328,
			"target":34963
		},
		{
			"buffer":0,
			"byteLength":484,
			"byteOffset":22808
		},
		{
			"buffer":0,
			"byteLength":1452,
			"byteOffset":23292
		},
		{
			"buffer":0,
			"byteLength":8,
			"byteOffset":24744
		},
		{
			"buffer":0,
			"byteLength":32,
			"byteOffset":24752
		},
		{
			"buffer":0,
			"byteLength":1452,
			"byteOffset":24784
		},
		{
			"buffer":0,
			"byteLength":24,
			"byteOffset":26236
		},
		{
			"buffer":0,
			"byteLength":32,
			"byteOffset":26260
		},
		{
			"buffer":0,
			"byteLength":1452,
			"byteOffset":26292
		},
		{
			"buffer":0,
			"byteLength":1452,
			"byteOffset":27744
		},
		{
			"buffer":0,
			"byteLength":32,
			"byteOffset":29196
		},
		{
			"buffer":0,
			"byteLength":1452,
			"byteOffset":29228
		},
		{
			"buffer":0,
			"byteLength":1452,
			"byteOffset":30680
		},
		{
			"buffer":0,
			"byteLength":32,
			"byteOffset":32132
		},
		{
			"buffer":0,
			"byteLength":1452,
			"byteOffset":32164
		}
	],
	"samplers":[
		{
			"magFilter":9729,
			"minFilter":9987
		}
	],
	"buffers":[
		{
			"byteLength":33616,
			"uri":"obj_lamp01.bin"
		}
	]
}
