{
	"asset":{
		"generator":"Khronos glTF Blender I/O v4.1.63",
		"version":"2.0"
	},
	"extensionsUsed":[
		"KHR_materials_specular",
		"KHR_materials_ior"
	],
	"scene":0,
	"scenes":[
		{
			"name":"Scene",
			"nodes":[
				0,
				1
			]
		}
	],
	"nodes":[
		{
			"mesh":0,
			"name":"obj_cooler"
		},
		{
			"mesh":1,
			"name":"obj_cooler_collider"
		}
	],
	"materials":[
		{
			"doubleSided":true,
			"emissiveFactor":[
				1,
				1,
				1
			],
			"emissiveTexture":{
				"index":0
			},
			"extensions":{
				"KHR_materials_specular":{
					"specularFactor":0
				},
				"KHR_materials_ior":{
					"ior":1.4500000476837158
				}
			},
			"name":"obj_floppy",
			"pbrMetallicRoughness":{
				"baseColorTexture":{
					"index":1
				},
				"metallicFactor":0
			}
		}
	],
	"meshes":[
		{
			"name":"Mesh.303",
			"primitives":[
				{
					"attributes":{
						"POSITION":0,
						"NORMAL":1,
						"TEXCOORD_0":2
					},
					"indices":3,
					"material":0
				}
			]
		},
		{
			"name":"Cube.005",
			"primitives":[
				{
					"attributes":{
						"POSITION":4,
						"NORMAL":5,
						"TEXCOORD_0":6
					},
					"indices":7
				}
			]
		}
	],
	"textures":[
		{
			"sampler":0,
			"source":0
		},
		{
			"sampler":0,
			"source":1
		}
	],
	"images":[
		{
			"mimeType":"image/png",
			"name":"obj_floppy_emission",
			"uri":"textures/obj_floppy_emission.png"
		},
		{
			"mimeType":"image/png",
			"name":"obj_floppy",
			"uri":"textures/obj_floppy.png"
		}
	],
	"accessors":[
		{
			"bufferView":0,
			"componentType":5126,
			"count":1078,
			"max":[
				0.10967084765434265,
				0.08677714318037033,
				0.11254338920116425
			],
			"min":[
				-0.11279308050870895,
				-9.047914417692482e-09,
				-0.11295252293348312
			],
			"type":"VEC3"
		},
		{
			"bufferView":1,
			"componentType":5126,
			"count":1078,
			"type":"VEC3"
		},
		{
			"bufferView":2,
			"componentType":5126,
			"count":1078,
			"type":"VEC2"
		},
		{
			"bufferView":3,
			"componentType":5123,
			"count":3108,
			"type":"SCALAR"
		},
		{
			"bufferView":4,
			"componentType":5126,
			"count":24,
			"max":[
				0.10967084765434265,
				0.08677714318037033,
				0.11254338920116425
			],
			"min":[
				-0.11279308795928955,
				-1.3300977208530185e-08,
				-0.11295252293348312
			],
			"type":"VEC3"
		},
		{
			"bufferView":5,
			"componentType":5126,
			"count":24,
			"type":"VEC3"
		},
		{
			"bufferView":6,
			"componentType":5126,
			"count":24,
			"type":"VEC2"
		},
		{
			"bufferView":7,
			"componentType":5123,
			"count":36,
			"type":"SCALAR"
		}
	],
	"bufferViews":[
		{
			"buffer":0,
			"byteLength":12936,
			"byteOffset":0,
			"target":34962
		},
		{
			"buffer":0,
			"byteLength":12936,
			"byteOffset":12936,
			"target":34962
		},
		{
			"buffer":0,
			"byteLength":8624,
			"byteOffset":25872,
			"target":34962
		},
		{
			"buffer":0,
			"byteLength":6216,
			"byteOffset":34496,
			"target":34963
		},
		{
			"buffer":0,
			"byteLength":288,
			"byteOffset":40712,
			"target":34962
		},
		{
			"buffer":0,
			"byteLength":288,
			"byteOffset":41000,
			"target":34962
		},
		{
			"buffer":0,
			"byteLength":192,
			"byteOffset":41288,
			"target":34962
		},
		{
			"buffer":0,
			"byteLength":72,
			"byteOffset":41480,
			"target":34963
		}
	],
	"samplers":[
		{
			"magFilter":9729,
			"minFilter":9987
		}
	],
	"buffers":[
		{
			"byteLength":41552,
			"uri":"obj_cooler.bin"
		}
	]
}
