{
	"asset":{
		"generator":"Khronos glTF Blender I/O v4.0.44",
		"version":"2.0"
	},
	"extensionsUsed":[
		"KHR_materials_specular",
		"KHR_materials_ior"
	],
	"scene":0,
	"scenes":[
		{
			"name":"Scene",
			"nodes":[
				0,
				1
			]
		}
	],
	"nodes":[
		{
			"mesh":0,
			"name":"obj_lab06"
		},
		{
			"mesh":1,
			"name":"obj_lab06_collider"
		}
	],
	"materials":[
		{
			"doubleSided":true,
			"emissiveFactor":[
				0.07999999821186066,
				0.07999999821186066,
				0.07999999821186066
			],
			"emissiveTexture":{
				"index":0
			},
			"extensions":{
				"KHR_materials_specular":{
					"specularFactor":0
				},
				"KHR_materials_ior":{
					"ior":1.4500000476837158
				}
			},
			"name":"obj_lab06_01",
			"pbrMetallicRoughness":{
				"baseColorTexture":{
					"index":1
				},
				"metallicFactor":0
			}
		},
		{
			"doubleSided":true,
			"emissiveFactor":[
				0.07999999821186066,
				0.07999999821186066,
				0.07999999821186066
			],
			"emissiveTexture":{
				"index":2
			},
			"extensions":{
				"KHR_materials_specular":{
					"specularFactor":0
				},
				"KHR_materials_ior":{
					"ior":1.4500000476837158
				}
			},
			"name":"obj_lab06_02",
			"pbrMetallicRoughness":{
				"baseColorTexture":{
					"index":3
				},
				"metallicFactor":0
			}
		},
		{
			"doubleSided":true,
			"emissiveFactor":[
				0.26229405403137207,
				0.5646868348121643,
				0.921515166759491
			],
			"extensions":{
				"KHR_materials_specular":{
					"specularFactor":0
				},
				"KHR_materials_ior":{
					"ior":1.4500000476837158
				}
			},
			"name":"obj_global_emission01",
			"pbrMetallicRoughness":{
				"baseColorFactor":[
					0.2617267668247223,
					0.566400408744812,
					0.9218639135360718,
					1
				],
				"metallicFactor":0
			}
		}
	],
	"meshes":[
		{
			"name":"Cylinder.016",
			"primitives":[
				{
					"attributes":{
						"POSITION":0,
						"NORMAL":1,
						"TEXCOORD_0":2
					},
					"indices":3,
					"material":0
				},
				{
					"attributes":{
						"POSITION":4,
						"NORMAL":5,
						"TEXCOORD_0":6
					},
					"indices":7,
					"material":1
				},
				{
					"attributes":{
						"POSITION":8,
						"NORMAL":9,
						"TEXCOORD_0":10
					},
					"indices":11,
					"material":2
				}
			]
		},
		{
			"name":"Cube.012",
			"primitives":[
				{
					"attributes":{
						"POSITION":12,
						"NORMAL":13,
						"TEXCOORD_0":14
					},
					"indices":15
				}
			]
		}
	],
	"textures":[
		{
			"sampler":0,
			"source":0
		},
		{
			"sampler":0,
			"source":0
		},
		{
			"sampler":0,
			"source":1
		},
		{
			"sampler":0,
			"source":1
		}
	],
	"images":[
		{
			"mimeType":"image/png",
			"name":"obj_lab06_01",
			"uri":"textures/obj_lab06_01.png"
		},
		{
			"mimeType":"image/png",
			"name":"obj_lab06_02",
			"uri":"textures/obj_lab06_02.png"
		}
	],
	"accessors":[
		{
			"bufferView":0,
			"componentType":5126,
			"count":1361,
			"max":[
				0.512863039970398,
				2.4360179901123047,
				1.092543125152588
			],
			"min":[
				-0.512863039970398,
				0.3765262961387634,
				-1.092543125152588
			],
			"type":"VEC3"
		},
		{
			"bufferView":1,
			"componentType":5126,
			"count":1361,
			"type":"VEC3"
		},
		{
			"bufferView":2,
			"componentType":5126,
			"count":1361,
			"type":"VEC2"
		},
		{
			"bufferView":3,
			"componentType":5123,
			"count":3624,
			"type":"SCALAR"
		},
		{
			"bufferView":4,
			"componentType":5126,
			"count":1513,
			"max":[
				0.6495314836502075,
				2.5506153106689453,
				0.8913623094558716
			],
			"min":[
				-0.6495314836502075,
				0,
				-0.8913623690605164
			],
			"type":"VEC3"
		},
		{
			"bufferView":5,
			"componentType":5126,
			"count":1513,
			"type":"VEC3"
		},
		{
			"bufferView":6,
			"componentType":5126,
			"count":1513,
			"type":"VEC2"
		},
		{
			"bufferView":7,
			"componentType":5123,
			"count":3858,
			"type":"SCALAR"
		},
		{
			"bufferView":8,
			"componentType":5126,
			"count":252,
			"max":[
				0.6495314836502075,
				2.5506153106689453,
				1.0667136907577515
			],
			"min":[
				-0.6495314836502075,
				0,
				-1.066713571548462
			],
			"type":"VEC3"
		},
		{
			"bufferView":9,
			"componentType":5126,
			"count":252,
			"type":"VEC3"
		},
		{
			"bufferView":10,
			"componentType":5126,
			"count":252,
			"type":"VEC2"
		},
		{
			"bufferView":11,
			"componentType":5123,
			"count":528,
			"type":"SCALAR"
		},
		{
			"bufferView":12,
			"componentType":5126,
			"count":71,
			"max":[
				0.6658222675323486,
				2.5506153106689453,
				1.1028687953948975
			],
			"min":[
				-0.6658222675323486,
				0,
				-1.1028687953948975
			],
			"type":"VEC3"
		},
		{
			"bufferView":13,
			"componentType":5126,
			"count":71,
			"type":"VEC3"
		},
		{
			"bufferView":14,
			"componentType":5126,
			"count":71,
			"type":"VEC2"
		},
		{
			"bufferView":15,
			"componentType":5123,
			"count":288,
			"type":"SCALAR"
		}
	],
	"bufferViews":[
		{
			"buffer":0,
			"byteLength":16332,
			"byteOffset":0,
			"target":34962
		},
		{
			"buffer":0,
			"byteLength":16332,
			"byteOffset":16332,
			"target":34962
		},
		{
			"buffer":0,
			"byteLength":10888,
			"byteOffset":32664,
			"target":34962
		},
		{
			"buffer":0,
			"byteLength":7248,
			"byteOffset":43552,
			"target":34963
		},
		{
			"buffer":0,
			"byteLength":18156,
			"byteOffset":50800,
			"target":34962
		},
		{
			"buffer":0,
			"byteLength":18156,
			"byteOffset":68956,
			"target":34962
		},
		{
			"buffer":0,
			"byteLength":12104,
			"byteOffset":87112,
			"target":34962
		},
		{
			"buffer":0,
			"byteLength":7716,
			"byteOffset":99216,
			"target":34963
		},
		{
			"buffer":0,
			"byteLength":3024,
			"byteOffset":106932,
			"target":34962
		},
		{
			"buffer":0,
			"byteLength":3024,
			"byteOffset":109956,
			"target":34962
		},
		{
			"buffer":0,
			"byteLength":2016,
			"byteOffset":112980,
			"target":34962
		},
		{
			"buffer":0,
			"byteLength":1056,
			"byteOffset":114996,
			"target":34963
		},
		{
			"buffer":0,
			"byteLength":852,
			"byteOffset":116052,
			"target":34962
		},
		{
			"buffer":0,
			"byteLength":852,
			"byteOffset":116904,
			"target":34962
		},
		{
			"buffer":0,
			"byteLength":568,
			"byteOffset":117756,
			"target":34962
		},
		{
			"buffer":0,
			"byteLength":576,
			"byteOffset":118324,
			"target":34963
		}
	],
	"samplers":[
		{
			"magFilter":9729,
			"minFilter":9987
		}
	],
	"buffers":[
		{
			"byteLength":118900,
			"uri":"obj_lab06.bin"
		}
	]
}
