{
	"asset":{
		"generator":"Khronos glTF Blender I/O v4.1.63",
		"version":"2.0"
	},
	"extensionsUsed":[
		"KHR_materials_specular",
		"KHR_materials_ior"
	],
	"scene":0,
	"scenes":[
		{
			"name":"Scene",
			"nodes":[
				0,
				1
			]
		}
	],
	"nodes":[
		{
			"mesh":0,
			"name":"obj_box"
		},
		{
			"mesh":1,
			"name":"obj_box_collider"
		}
	],
	"materials":[
		{
			"doubleSided":true,
			"emissiveFactor":[
				1,
				1,
				1
			],
			"emissiveTexture":{
				"index":0
			},
			"extensions":{
				"KHR_materials_specular":{
					"specularFactor":0
				},
				"KHR_materials_ior":{
					"ior":1.4500000476837158
				}
			},
			"name":"obj_scrystal",
			"pbrMetallicRoughness":{
				"baseColorTexture":{
					"index":1
				},
				"metallicFactor":0
			}
		},
		{
			"doubleSided":true,
			"emissiveFactor":[
				0.10000000149011612,
				0.10000000149011612,
				0.10000000149011612
			],
			"emissiveTexture":{
				"index":2
			},
			"extensions":{
				"KHR_materials_specular":{
					"specularFactor":0
				},
				"KHR_materials_ior":{
					"ior":1.4500000476837158
				}
			},
			"name":"obj_stack",
			"pbrMetallicRoughness":{
				"baseColorTexture":{
					"index":3
				},
				"metallicFactor":0
			}
		},
		{
			"doubleSided":true,
			"extensions":{
				"KHR_materials_specular":{
					"specularColorFactor":[
						2.0,
						2.0,
						2.0
					]
				},
				"KHR_materials_ior":{
					"ior":1.4500000476837158
				}
			},
			"name":"lambert1",
			"pbrMetallicRoughness":{
				"baseColorFactor":[
					0.5,
					0.5,
					0.5,
					1
				],
				"roughnessFactor":0.5527864098548889
			}
		}
	],
	"meshes":[
		{
			"name":"Mesh.298",
			"primitives":[
				{
					"attributes":{
						"POSITION":0,
						"NORMAL":1,
						"TEXCOORD_0":2
					},
					"indices":3,
					"material":0
				},
				{
					"attributes":{
						"POSITION":4,
						"NORMAL":5,
						"TEXCOORD_0":6
					},
					"indices":7,
					"material":1
				}
			]
		},
		{
			"name":"Mesh.297",
			"primitives":[
				{
					"attributes":{
						"POSITION":8,
						"NORMAL":9,
						"TEXCOORD_0":10
					},
					"indices":11,
					"material":2
				}
			]
		}
	],
	"textures":[
		{
			"sampler":0,
			"source":0
		},
		{
			"sampler":0,
			"source":1
		},
		{
			"sampler":0,
			"source":2
		},
		{
			"sampler":0,
			"source":2
		}
	],
	"images":[
		{
			"mimeType":"image/png",
			"name":"obj_scrystal_emission",
			"uri":"textures/obj_scrystal_emission.png"
		},
		{
			"mimeType":"image/png",
			"name":"obj_scrystal",
			"uri":"textures/obj_scrystal.png"
		},
		{
			"mimeType":"image/png",
			"name":"obj_stack",
			"uri":"textures/obj_stack.png"
		}
	],
	"accessors":[
		{
			"bufferView":0,
			"componentType":5126,
			"count":756,
			"max":[
				0.2831883430480957,
				0.3410026729106903,
				0.15056902170181274
			],
			"min":[
				-0.3075519800186157,
				0.016106784343719482,
				-0.13817444443702698
			],
			"type":"VEC3"
		},
		{
			"bufferView":1,
			"componentType":5126,
			"count":756,
			"type":"VEC3"
		},
		{
			"bufferView":2,
			"componentType":5126,
			"count":756,
			"type":"VEC2"
		},
		{
			"bufferView":3,
			"componentType":5123,
			"count":1296,
			"type":"SCALAR"
		},
		{
			"bufferView":4,
			"componentType":5126,
			"count":224,
			"max":[
				0.19995838403701782,
				0.20184430480003357,
				0.13264884054660797
			],
			"min":[
				-0.22507113218307495,
				1.7194079759974557e-07,
				-0.12904001772403717
			],
			"type":"VEC3"
		},
		{
			"bufferView":5,
			"componentType":5126,
			"count":224,
			"type":"VEC3"
		},
		{
			"bufferView":6,
			"componentType":5126,
			"count":224,
			"type":"VEC2"
		},
		{
			"bufferView":7,
			"componentType":5123,
			"count":372,
			"type":"SCALAR"
		},
		{
			"bufferView":8,
			"componentType":5126,
			"count":24,
			"max":[
				0.2832452952861786,
				0.29920175671577454,
				0.1459343284368515
			],
			"min":[
				-0.2832449972629547,
				-3.4986442187801003e-08,
				-0.14593346416950226
			],
			"type":"VEC3"
		},
		{
			"bufferView":9,
			"componentType":5126,
			"count":24,
			"type":"VEC3"
		},
		{
			"bufferView":10,
			"componentType":5126,
			"count":24,
			"type":"VEC2"
		},
		{
			"bufferView":11,
			"componentType":5123,
			"count":36,
			"type":"SCALAR"
		}
	],
	"bufferViews":[
		{
			"buffer":0,
			"byteLength":9072,
			"byteOffset":0,
			"target":34962
		},
		{
			"buffer":0,
			"byteLength":9072,
			"byteOffset":9072,
			"target":34962
		},
		{
			"buffer":0,
			"byteLength":6048,
			"byteOffset":18144,
			"target":34962
		},
		{
			"buffer":0,
			"byteLength":2592,
			"byteOffset":24192,
			"target":34963
		},
		{
			"buffer":0,
			"byteLength":2688,
			"byteOffset":26784,
			"target":34962
		},
		{
			"buffer":0,
			"byteLength":2688,
			"byteOffset":29472,
			"target":34962
		},
		{
			"buffer":0,
			"byteLength":1792,
			"byteOffset":32160,
			"target":34962
		},
		{
			"buffer":0,
			"byteLength":744,
			"byteOffset":33952,
			"target":34963
		},
		{
			"buffer":0,
			"byteLength":288,
			"byteOffset":34696,
			"target":34962
		},
		{
			"buffer":0,
			"byteLength":288,
			"byteOffset":34984,
			"target":34962
		},
		{
			"buffer":0,
			"byteLength":192,
			"byteOffset":35272,
			"target":34962
		},
		{
			"buffer":0,
			"byteLength":72,
			"byteOffset":35464,
			"target":34963
		}
	],
	"samplers":[
		{
			"magFilter":9729,
			"minFilter":9987
		}
	],
	"buffers":[
		{
			"byteLength":35536,
			"uri":"obj_box.bin"
		}
	]
}
