{
	"asset":{
		"generator":"Khronos glTF Blender I/O v4.1.63",
		"version":"2.0"
	},
	"extensionsUsed":[
		"KHR_materials_specular",
		"KHR_materials_ior"
	],
	"scene":0,
	"scenes":[
		{
			"name":"Scene",
			"nodes":[
				0,
				1
			]
		}
	],
	"nodes":[
		{
			"mesh":0,
			"name":"obj_claw02"
		},
		{
			"mesh":1,
			"name":"obj_claw02_collider"
		}
	],
	"materials":[
		{
			"doubleSided":true,
			"emissiveFactor":[
				1,
				1,
				1
			],
			"emissiveTexture":{
				"index":0
			},
			"extensions":{
				"KHR_materials_specular":{
					"specularFactor":0
				},
				"KHR_materials_ior":{
					"ior":1.4500000476837158
				}
			},
			"name":"obj_atom01",
			"pbrMetallicRoughness":{
				"baseColorTexture":{
					"index":1
				},
				"metallicFactor":0
			}
		}
	],
	"meshes":[
		{
			"name":"Mesh.284",
			"primitives":[
				{
					"attributes":{
						"POSITION":0,
						"NORMAL":1,
						"TEXCOORD_0":2
					},
					"indices":3,
					"material":0
				}
			]
		},
		{
			"name":"Mesh.283",
			"primitives":[
				{
					"attributes":{
						"POSITION":4,
						"NORMAL":5,
						"TEXCOORD_0":6
					},
					"indices":7
				}
			]
		}
	],
	"textures":[
		{
			"sampler":0,
			"source":0
		},
		{
			"sampler":0,
			"source":1
		}
	],
	"images":[
		{
			"mimeType":"image/png",
			"name":"obj_atom01_emission",
			"uri":"textures/obj_atom01_emission.png"
		},
		{
			"mimeType":"image/png",
			"name":"obj_atom01",
			"uri":"textures/obj_atom01.png"
		}
	],
	"accessors":[
		{
			"bufferView":0,
			"componentType":5126,
			"count":1082,
			"max":[
				0.5379171371459961,
				2.0775656700134277,
				2.4643003940582275
			],
			"min":[
				-0.5378892421722412,
				0,
				-0.5659937858581543
			],
			"type":"VEC3"
		},
		{
			"bufferView":1,
			"componentType":5126,
			"count":1082,
			"type":"VEC3"
		},
		{
			"bufferView":2,
			"componentType":5126,
			"count":1082,
			"type":"VEC2"
		},
		{
			"bufferView":3,
			"componentType":5123,
			"count":3054,
			"type":"SCALAR"
		},
		{
			"bufferView":4,
			"componentType":5126,
			"count":180,
			"max":[
				0.5379924774169922,
				2.0775654315948486,
				2.468559741973877
			],
			"min":[
				-0.5379642248153687,
				-4.662484798245714e-08,
				-0.5659939050674438
			],
			"type":"VEC3"
		},
		{
			"bufferView":5,
			"componentType":5126,
			"count":180,
			"type":"VEC3"
		},
		{
			"bufferView":6,
			"componentType":5126,
			"count":180,
			"type":"VEC2"
		},
		{
			"bufferView":7,
			"componentType":5123,
			"count":306,
			"type":"SCALAR"
		}
	],
	"bufferViews":[
		{
			"buffer":0,
			"byteLength":12984,
			"byteOffset":0,
			"target":34962
		},
		{
			"buffer":0,
			"byteLength":12984,
			"byteOffset":12984,
			"target":34962
		},
		{
			"buffer":0,
			"byteLength":8656,
			"byteOffset":25968,
			"target":34962
		},
		{
			"buffer":0,
			"byteLength":6108,
			"byteOffset":34624,
			"target":34963
		},
		{
			"buffer":0,
			"byteLength":2160,
			"byteOffset":40732,
			"target":34962
		},
		{
			"buffer":0,
			"byteLength":2160,
			"byteOffset":42892,
			"target":34962
		},
		{
			"buffer":0,
			"byteLength":1440,
			"byteOffset":45052,
			"target":34962
		},
		{
			"buffer":0,
			"byteLength":612,
			"byteOffset":46492,
			"target":34963
		}
	],
	"samplers":[
		{
			"magFilter":9729,
			"minFilter":9987
		}
	],
	"buffers":[
		{
			"byteLength":47104,
			"uri":"obj_claw02.bin"
		}
	]
}
