{
	"asset":{
		"generator":"Khronos glTF Blender I/O v4.1.63",
		"version":"2.0"
	},
	"extensionsUsed":[
		"KHR_materials_specular",
		"KHR_materials_ior"
	],
	"scene":0,
	"scenes":[
		{
			"name":"Scene",
			"nodes":[
				0,
				1
			]
		}
	],
	"nodes":[
		{
			"mesh":0,
			"name":"obj_room06"
		},
		{
			"mesh":1,
			"name":"obj_room06_collider"
		}
	],
	"materials":[
		{
			"doubleSided":true,
			"emissiveFactor":[
				1,
				1,
				1
			],
			"emissiveTexture":{
				"index":0
			},
			"extensions":{
				"KHR_materials_specular":{
					"specularFactor":0
				},
				"KHR_materials_ior":{
					"ior":1.4500000476837158
				}
			},
			"name":"obj_room01_01",
			"pbrMetallicRoughness":{
				"baseColorTexture":{
					"index":1
				},
				"metallicFactor":0
			}
		},
		{
			"alphaMode":"BLEND",
			"doubleSided":true,
			"emissiveFactor":[
				1,
				1,
				1
			],
			"emissiveTexture":{
				"index":2
			},
			"extensions":{
				"KHR_materials_specular":{
					"specularFactor":0
				},
				"KHR_materials_ior":{
					"ior":1.4500000476837158
				}
			},
			"name":"obj_global_glass02",
			"pbrMetallicRoughness":{
				"baseColorTexture":{
					"index":3
				},
				"metallicFactor":0
			}
		},
		{
			"doubleSided":true,
			"emissiveFactor":[
				1,
				1,
				1
			],
			"emissiveTexture":{
				"index":4
			},
			"extensions":{
				"KHR_materials_specular":{
					"specularFactor":0
				},
				"KHR_materials_ior":{
					"ior":1.4500000476837158
				}
			},
			"name":"obj_room01_03",
			"pbrMetallicRoughness":{
				"baseColorTexture":{
					"index":5
				},
				"metallicFactor":0
			}
		},
		{
			"doubleSided":true,
			"emissiveFactor":[
				1,
				1,
				1
			],
			"emissiveTexture":{
				"index":6
			},
			"extensions":{
				"KHR_materials_specular":{
					"specularFactor":0
				},
				"KHR_materials_ior":{
					"ior":1.4500000476837158
				}
			},
			"name":"obj_room01_02",
			"pbrMetallicRoughness":{
				"baseColorTexture":{
					"index":7
				},
				"metallicFactor":0
			}
		},
		{
			"doubleSided":true,
			"emissiveFactor":[
				0.10000000149011612,
				0.10000000149011612,
				0.10000000149011612
			],
			"emissiveTexture":{
				"index":8
			},
			"extensions":{
				"KHR_materials_specular":{
					"specularFactor":0
				},
				"KHR_materials_ior":{
					"ior":1.4500000476837158
				}
			},
			"name":"obj_room01_08",
			"pbrMetallicRoughness":{
				"baseColorTexture":{
					"index":9
				},
				"metallicFactor":0
			}
		},
		{
			"doubleSided":true,
			"emissiveFactor":[
				0.10000000149011612,
				0.10000000149011612,
				0.10000000149011612
			],
			"emissiveTexture":{
				"index":10
			},
			"extensions":{
				"KHR_materials_specular":{
					"specularFactor":0
				},
				"KHR_materials_ior":{
					"ior":1.4500000476837158
				}
			},
			"name":"obj_room01_09",
			"pbrMetallicRoughness":{
				"baseColorTexture":{
					"index":11
				},
				"metallicFactor":0
			}
		},
		{
			"doubleSided":true,
			"emissiveFactor":[
				0.10000000149011612,
				0.10000000149011612,
				0.10000000149011612
			],
			"emissiveTexture":{
				"index":12
			},
			"extensions":{
				"KHR_materials_specular":{
					"specularFactor":0
				},
				"KHR_materials_ior":{
					"ior":1.4500000476837158
				}
			},
			"name":"obj_room01_06",
			"pbrMetallicRoughness":{
				"baseColorTexture":{
					"index":13
				},
				"metallicFactor":0
			}
		},
		{
			"doubleSided":true,
			"emissiveFactor":[
				0.10000000149011612,
				0.10000000149011612,
				0.10000000149011612
			],
			"emissiveTexture":{
				"index":14
			},
			"extensions":{
				"KHR_materials_specular":{
					"specularFactor":0
				},
				"KHR_materials_ior":{
					"ior":1.4500000476837158
				}
			},
			"name":"obj_room01_07",
			"pbrMetallicRoughness":{
				"baseColorTexture":{
					"index":15
				},
				"metallicFactor":0
			}
		},
		{
			"doubleSided":true,
			"emissiveFactor":[
				1,
				1,
				1
			],
			"emissiveTexture":{
				"index":16
			},
			"extensions":{
				"KHR_materials_specular":{
					"specularFactor":0
				},
				"KHR_materials_ior":{
					"ior":1.4500000476837158
				}
			},
			"name":"obj_room01_04",
			"pbrMetallicRoughness":{
				"baseColorTexture":{
					"index":17
				},
				"metallicFactor":0
			}
		},
		{
			"doubleSided":true,
			"emissiveFactor":[
				1,
				1,
				1
			],
			"emissiveTexture":{
				"index":18
			},
			"extensions":{
				"KHR_materials_specular":{
					"specularFactor":0
				},
				"KHR_materials_ior":{
					"ior":1.4500000476837158
				}
			},
			"name":"obj_room01_05",
			"pbrMetallicRoughness":{
				"baseColorTexture":{
					"index":19
				},
				"metallicFactor":0
			}
		}
	],
	"meshes":[
		{
			"name":"Mesh.030",
			"primitives":[
				{
					"attributes":{
						"POSITION":0,
						"NORMAL":1,
						"TEXCOORD_0":2
					},
					"indices":3,
					"material":0
				},
				{
					"attributes":{
						"POSITION":4,
						"NORMAL":5,
						"TEXCOORD_0":6
					},
					"indices":7,
					"material":1
				},
				{
					"attributes":{
						"POSITION":8,
						"NORMAL":9,
						"TEXCOORD_0":10
					},
					"indices":11,
					"material":2
				},
				{
					"attributes":{
						"POSITION":12,
						"NORMAL":13,
						"TEXCOORD_0":14
					},
					"indices":15,
					"material":3
				},
				{
					"attributes":{
						"POSITION":16,
						"NORMAL":17,
						"TEXCOORD_0":18
					},
					"indices":19,
					"material":4
				},
				{
					"attributes":{
						"POSITION":20,
						"NORMAL":21,
						"TEXCOORD_0":22
					},
					"indices":23,
					"material":5
				},
				{
					"attributes":{
						"POSITION":24,
						"NORMAL":25,
						"TEXCOORD_0":26
					},
					"indices":27,
					"material":6
				},
				{
					"attributes":{
						"POSITION":28,
						"NORMAL":29,
						"TEXCOORD_0":30
					},
					"indices":31,
					"material":7
				},
				{
					"attributes":{
						"POSITION":32,
						"NORMAL":33,
						"TEXCOORD_0":34
					},
					"indices":35,
					"material":8
				},
				{
					"attributes":{
						"POSITION":36,
						"NORMAL":37,
						"TEXCOORD_0":38
					},
					"indices":39,
					"material":9
				}
			]
		},
		{
			"name":"Mesh.046",
			"primitives":[
				{
					"attributes":{
						"POSITION":40,
						"NORMAL":41,
						"TEXCOORD_0":42
					},
					"indices":43
				}
			]
		}
	],
	"textures":[
		{
			"sampler":0,
			"source":0
		},
		{
			"sampler":0,
			"source":1
		},
		{
			"sampler":0,
			"source":2
		},
		{
			"sampler":0,
			"source":2
		},
		{
			"sampler":0,
			"source":3
		},
		{
			"sampler":0,
			"source":4
		},
		{
			"sampler":0,
			"source":5
		},
		{
			"sampler":0,
			"source":6
		},
		{
			"sampler":0,
			"source":7
		},
		{
			"sampler":0,
			"source":7
		},
		{
			"sampler":0,
			"source":8
		},
		{
			"sampler":0,
			"source":8
		},
		{
			"sampler":0,
			"source":9
		},
		{
			"sampler":0,
			"source":9
		},
		{
			"sampler":0,
			"source":10
		},
		{
			"sampler":0,
			"source":10
		},
		{
			"sampler":0,
			"source":11
		},
		{
			"sampler":0,
			"source":12
		},
		{
			"sampler":0,
			"source":13
		},
		{
			"sampler":0,
			"source":14
		}
	],
	"images":[
		{
			"mimeType":"image/png",
			"name":"obj_room01_01_emission",
			"uri":"textures/obj_room01_01_emission.png"
		},
		{
			"mimeType":"image/png",
			"name":"obj_room01_01",
			"uri":"textures/obj_room01_01.png"
		},
		{
			"mimeType":"image/png",
			"name":"obj_global_glass02",
			"uri":"textures/obj_global_glass02.png"
		},
		{
			"mimeType":"image/png",
			"name":"obj_room01_03_emission",
			"uri":"textures/obj_room01_03_emission.png"
		},
		{
			"mimeType":"image/png",
			"name":"obj_room01_03",
			"uri":"textures/obj_room01_03.png"
		},
		{
			"mimeType":"image/png",
			"name":"obj_room01_02_emission",
			"uri":"textures/obj_room01_02_emission.png"
		},
		{
			"mimeType":"image/png",
			"name":"obj_room01_02",
			"uri":"textures/obj_room01_02.png"
		},
		{
			"mimeType":"image/png",
			"name":"obj_room01_08",
			"uri":"textures/obj_room01_08.png"
		},
		{
			"mimeType":"image/png",
			"name":"obj_room01_09",
			"uri":"textures/obj_room01_09.png"
		},
		{
			"mimeType":"image/png",
			"name":"obj_room01_06",
			"uri":"textures/obj_room01_06.png"
		},
		{
			"mimeType":"image/png",
			"name":"obj_room01_07",
			"uri":"textures/obj_room01_07.png"
		},
		{
			"mimeType":"image/png",
			"name":"obj_room01_04_emission",
			"uri":"textures/obj_room01_04_emission.png"
		},
		{
			"mimeType":"image/png",
			"name":"obj_room01_04",
			"uri":"textures/obj_room01_04.png"
		},
		{
			"mimeType":"image/png",
			"name":"obj_room01_05_emission",
			"uri":"textures/obj_room01_05_emission.png"
		},
		{
			"mimeType":"image/png",
			"name":"obj_room01_05",
			"uri":"textures/obj_room01_05.png"
		}
	],
	"accessors":[
		{
			"bufferView":0,
			"componentType":5126,
			"count":70,
			"max":[
				4.1393327713012695,
				0.42024606466293335,
				13.722201347351074
			],
			"min":[
				-4.139333248138428,
				-0.3561929166316986,
				11.077205657958984
			],
			"type":"VEC3"
		},
		{
			"bufferView":1,
			"componentType":5126,
			"count":70,
			"type":"VEC3"
		},
		{
			"bufferView":2,
			"componentType":5126,
			"count":70,
			"type":"VEC2"
		},
		{
			"bufferView":3,
			"componentType":5123,
			"count":144,
			"type":"SCALAR"
		},
		{
			"bufferView":4,
			"componentType":5126,
			"count":504,
			"max":[
				11.79864501953125,
				4.038772106170654,
				11.16580867767334
			],
			"min":[
				-11.79864501953125,
				0.3972868323326111,
				-11.787086486816406
			],
			"type":"VEC3"
		},
		{
			"bufferView":5,
			"componentType":5126,
			"count":504,
			"type":"VEC3"
		},
		{
			"bufferView":6,
			"componentType":5126,
			"count":504,
			"type":"VEC2"
		},
		{
			"bufferView":7,
			"componentType":5123,
			"count":2160,
			"type":"SCALAR"
		},
		{
			"bufferView":8,
			"componentType":5126,
			"count":580,
			"max":[
				9.140877723693848,
				-1.0560709142737323e-06,
				9.14087963104248
			],
			"min":[
				-9.140876770019531,
				-3.18388032913208,
				-9.14087963104248
			],
			"type":"VEC3"
		},
		{
			"bufferView":9,
			"componentType":5126,
			"count":580,
			"type":"VEC3"
		},
		{
			"bufferView":10,
			"componentType":5126,
			"count":580,
			"type":"VEC2"
		},
		{
			"bufferView":11,
			"componentType":5123,
			"count":2400,
			"type":"SCALAR"
		},
		{
			"bufferView":12,
			"componentType":5126,
			"count":1751,
			"max":[
				11.783151626586914,
				0.0005801019142381847,
				11.783149719238281
			],
			"min":[
				-11.783151626586914,
				-3.178948402404785,
				-11.769225120544434
			],
			"type":"VEC3"
		},
		{
			"bufferView":13,
			"componentType":5126,
			"count":1751,
			"type":"VEC3"
		},
		{
			"bufferView":14,
			"componentType":5126,
			"count":1751,
			"type":"VEC2"
		},
		{
			"bufferView":15,
			"componentType":5123,
			"count":8412,
			"type":"SCALAR"
		},
		{
			"bufferView":16,
			"componentType":5126,
			"count":550,
			"max":[
				11.827861785888672,
				4.409968376159668,
				8.364897727966309
			],
			"min":[
				-11.681343078613281,
				3.0905564926797524e-05,
				-11.844049453735352
			],
			"type":"VEC3"
		},
		{
			"bufferView":17,
			"componentType":5126,
			"count":550,
			"type":"VEC3"
		},
		{
			"bufferView":18,
			"componentType":5126,
			"count":550,
			"type":"VEC2"
		},
		{
			"bufferView":19,
			"componentType":5123,
			"count":1320,
			"type":"SCALAR"
		},
		{
			"bufferView":20,
			"componentType":5126,
			"count":610,
			"max":[
				11.681343078613281,
				4.409968376159668,
				8.360940933227539
			],
			"min":[
				-11.827861785888672,
				3.116853258688934e-05,
				-11.844049453735352
			],
			"type":"VEC3"
		},
		{
			"bufferView":21,
			"componentType":5126,
			"count":610,
			"type":"VEC3"
		},
		{
			"bufferView":22,
			"componentType":5126,
			"count":610,
			"type":"VEC2"
		},
		{
			"bufferView":23,
			"componentType":5123,
			"count":1500,
			"type":"SCALAR"
		},
		{
			"bufferView":24,
			"componentType":5126,
			"count":166,
			"max":[
				8.362918853759766,
				4.365009307861328,
				11.45496940612793
			],
			"min":[
				-8.362918853759766,
				3.083658157265745e-05,
				8.004983901977539
			],
			"type":"VEC3"
		},
		{
			"bufferView":25,
			"componentType":5126,
			"count":166,
			"type":"VEC3"
		},
		{
			"bufferView":26,
			"componentType":5126,
			"count":166,
			"type":"VEC2"
		},
		{
			"bufferView":27,
			"componentType":5123,
			"count":402,
			"type":"SCALAR"
		},
		{
			"bufferView":28,
			"componentType":5126,
			"count":224,
			"max":[
				8.209697723388672,
				4.409966945648193,
				11.32430648803711
			],
			"min":[
				-8.209717750549316,
				3.08541493723169e-05,
				7.802447319030762
			],
			"type":"VEC3"
		},
		{
			"bufferView":29,
			"componentType":5126,
			"count":224,
			"type":"VEC3"
		},
		{
			"bufferView":30,
			"componentType":5126,
			"count":224,
			"type":"VEC2"
		},
		{
			"bufferView":31,
			"componentType":5123,
			"count":534,
			"type":"SCALAR"
		},
		{
			"bufferView":32,
			"componentType":5126,
			"count":640,
			"max":[
				11.243764877319336,
				7.964200019836426,
				11.243767738342285
			],
			"min":[
				-11.243764877319336,
				4.409381866455078,
				-11.229840278625488
			],
			"type":"VEC3"
		},
		{
			"bufferView":33,
			"componentType":5126,
			"count":640,
			"type":"VEC3"
		},
		{
			"bufferView":34,
			"componentType":5126,
			"count":640,
			"type":"VEC2"
		},
		{
			"bufferView":35,
			"componentType":5123,
			"count":2880,
			"type":"SCALAR"
		},
		{
			"bufferView":36,
			"componentType":5126,
			"count":502,
			"max":[
				6.171253204345703,
				8.816120147705078,
				6.1712541580200195
			],
			"min":[
				-6.171253681182861,
				7.786484241485596,
				-6.171252727508545
			],
			"type":"VEC3"
		},
		{
			"bufferView":37,
			"componentType":5126,
			"count":502,
			"type":"VEC3"
		},
		{
			"bufferView":38,
			"componentType":5126,
			"count":502,
			"type":"VEC2"
		},
		{
			"bufferView":39,
			"componentType":5123,
			"count":1680,
			"type":"SCALAR"
		},
		{
			"bufferView":40,
			"componentType":5126,
			"count":5597,
			"max":[
				11.827861785888672,
				8.816120147705078,
				13.722201347351074
			],
			"min":[
				-11.827861785888672,
				-3.18388032913208,
				-11.844049453735352
			],
			"type":"VEC3"
		},
		{
			"bufferView":41,
			"componentType":5126,
			"count":5597,
			"type":"VEC3"
		},
		{
			"bufferView":42,
			"componentType":5126,
			"count":5597,
			"type":"VEC2"
		},
		{
			"bufferView":43,
			"componentType":5123,
			"count":21432,
			"type":"SCALAR"
		}
	],
	"bufferViews":[
		{
			"buffer":0,
			"byteLength":840,
			"byteOffset":0,
			"target":34962
		},
		{
			"buffer":0,
			"byteLength":840,
			"byteOffset":840,
			"target":34962
		},
		{
			"buffer":0,
			"byteLength":560,
			"byteOffset":1680,
			"target":34962
		},
		{
			"buffer":0,
			"byteLength":288,
			"byteOffset":2240,
			"target":34963
		},
		{
			"buffer":0,
			"byteLength":6048,
			"byteOffset":2528,
			"target":34962
		},
		{
			"buffer":0,
			"byteLength":6048,
			"byteOffset":8576,
			"target":34962
		},
		{
			"buffer":0,
			"byteLength":4032,
			"byteOffset":14624,
			"target":34962
		},
		{
			"buffer":0,
			"byteLength":4320,
			"byteOffset":18656,
			"target":34963
		},
		{
			"buffer":0,
			"byteLength":6960,
			"byteOffset":22976,
			"target":34962
		},
		{
			"buffer":0,
			"byteLength":6960,
			"byteOffset":29936,
			"target":34962
		},
		{
			"buffer":0,
			"byteLength":4640,
			"byteOffset":36896,
			"target":34962
		},
		{
			"buffer":0,
			"byteLength":4800,
			"byteOffset":41536,
			"target":34963
		},
		{
			"buffer":0,
			"byteLength":21012,
			"byteOffset":46336,
			"target":34962
		},
		{
			"buffer":0,
			"byteLength":21012,
			"byteOffset":67348,
			"target":34962
		},
		{
			"buffer":0,
			"byteLength":14008,
			"byteOffset":88360,
			"target":34962
		},
		{
			"buffer":0,
			"byteLength":16824,
			"byteOffset":102368,
			"target":34963
		},
		{
			"buffer":0,
			"byteLength":6600,
			"byteOffset":119192,
			"target":34962
		},
		{
			"buffer":0,
			"byteLength":6600,
			"byteOffset":125792,
			"target":34962
		},
		{
			"buffer":0,
			"byteLength":4400,
			"byteOffset":132392,
			"target":34962
		},
		{
			"buffer":0,
			"byteLength":2640,
			"byteOffset":136792,
			"target":34963
		},
		{
			"buffer":0,
			"byteLength":7320,
			"byteOffset":139432,
			"target":34962
		},
		{
			"buffer":0,
			"byteLength":7320,
			"byteOffset":146752,
			"target":34962
		},
		{
			"buffer":0,
			"byteLength":4880,
			"byteOffset":154072,
			"target":34962
		},
		{
			"buffer":0,
			"byteLength":3000,
			"byteOffset":158952,
			"target":34963
		},
		{
			"buffer":0,
			"byteLength":1992,
			"byteOffset":161952,
			"target":34962
		},
		{
			"buffer":0,
			"byteLength":1992,
			"byteOffset":163944,
			"target":34962
		},
		{
			"buffer":0,
			"byteLength":1328,
			"byteOffset":165936,
			"target":34962
		},
		{
			"buffer":0,
			"byteLength":804,
			"byteOffset":167264,
			"target":34963
		},
		{
			"buffer":0,
			"byteLength":2688,
			"byteOffset":168068,
			"target":34962
		},
		{
			"buffer":0,
			"byteLength":2688,
			"byteOffset":170756,
			"target":34962
		},
		{
			"buffer":0,
			"byteLength":1792,
			"byteOffset":173444,
			"target":34962
		},
		{
			"buffer":0,
			"byteLength":1068,
			"byteOffset":175236,
			"target":34963
		},
		{
			"buffer":0,
			"byteLength":7680,
			"byteOffset":176304,
			"target":34962
		},
		{
			"buffer":0,
			"byteLength":7680,
			"byteOffset":183984,
			"target":34962
		},
		{
			"buffer":0,
			"byteLength":5120,
			"byteOffset":191664,
			"target":34962
		},
		{
			"buffer":0,
			"byteLength":5760,
			"byteOffset":196784,
			"target":34963
		},
		{
			"buffer":0,
			"byteLength":6024,
			"byteOffset":202544,
			"target":34962
		},
		{
			"buffer":0,
			"byteLength":6024,
			"byteOffset":208568,
			"target":34962
		},
		{
			"buffer":0,
			"byteLength":4016,
			"byteOffset":214592,
			"target":34962
		},
		{
			"buffer":0,
			"byteLength":3360,
			"byteOffset":218608,
			"target":34963
		},
		{
			"buffer":0,
			"byteLength":67164,
			"byteOffset":221968,
			"target":34962
		},
		{
			"buffer":0,
			"byteLength":67164,
			"byteOffset":289132,
			"target":34962
		},
		{
			"buffer":0,
			"byteLength":44776,
			"byteOffset":356296,
			"target":34962
		},
		{
			"buffer":0,
			"byteLength":42864,
			"byteOffset":401072,
			"target":34963
		}
	],
	"samplers":[
		{
			"magFilter":9729,
			"minFilter":9987
		}
	],
	"buffers":[
		{
			"byteLength":443936,
			"uri":"obj_room06.bin"
		}
	]
}
