{
	"asset":{
		"generator":"Khronos glTF Blender I/O v4.1.63",
		"version":"2.0"
	},
	"extensionsUsed":[
		"KHR_materials_specular",
		"KHR_materials_ior"
	],
	"scene":0,
	"scenes":[
		{
			"name":"Scene",
			"nodes":[
				0,
				1
			]
		}
	],
	"nodes":[
		{
			"mesh":0,
			"name":"obj_projector_collider"
		},
		{
			"mesh":1,
			"name":"obj_projector"
		}
	],
	"materials":[
		{
			"doubleSided":true,
			"extensions":{
				"KHR_materials_specular":{
					"specularFactor":0
				},
				"KHR_materials_ior":{
					"ior":1.4500000476837158
				}
			},
			"name":"lambert1",
			"pbrMetallicRoughness":{
				"baseColorFactor":[
					0.5,
					0.5,
					0.5,
					1
				],
				"metallicFactor":0
			}
		},
		{
			"alphaMode":"BLEND",
			"doubleSided":true,
			"emissiveFactor":[
				0.1384306102991104,
				0.6795418858528137,
				0.8307697176933289
			],
			"name":"obj_gradient01",
			"pbrMetallicRoughness":{
				"baseColorFactor":[
					0.1384306102991104,
					0.6795418858528137,
					0.8307697176933289,
					1
				],
				"baseColorTexture":{
					"index":0
				},
				"metallicFactor":0
			}
		},
		{
			"doubleSided":true,
			"emissiveFactor":[
				1,
				1,
				1
			],
			"emissiveTexture":{
				"index":1
			},
			"extensions":{
				"KHR_materials_specular":{
					"specularFactor":0
				},
				"KHR_materials_ior":{
					"ior":1.4500000476837158
				}
			},
			"name":"obj_projector",
			"pbrMetallicRoughness":{
				"baseColorTexture":{
					"index":2
				},
				"metallicFactor":0
			}
		}
	],
	"meshes":[
		{
			"name":"Mesh.007",
			"primitives":[
				{
					"attributes":{
						"POSITION":0,
						"NORMAL":1,
						"TEXCOORD_0":2
					},
					"indices":3,
					"material":0
				}
			]
		},
		{
			"name":"Mesh.008",
			"primitives":[
				{
					"attributes":{
						"POSITION":4,
						"NORMAL":5,
						"TEXCOORD_0":6
					},
					"indices":7,
					"material":1
				},
				{
					"attributes":{
						"POSITION":8,
						"NORMAL":9,
						"TEXCOORD_0":10
					},
					"indices":11,
					"material":2
				}
			]
		}
	],
	"textures":[
		{
			"sampler":0,
			"source":0
		},
		{
			"sampler":0,
			"source":1
		},
		{
			"sampler":0,
			"source":2
		}
	],
	"images":[
		{
			"mimeType":"image/png",
			"name":"obj_gradient01",
			"uri":"textures/obj_gradient01.png"
		},
		{
			"mimeType":"image/png",
			"name":"obj_projector_emission",
			"uri":"textures/obj_projector_emission.png"
		},
		{
			"mimeType":"image/png",
			"name":"obj_projector",
			"uri":"textures/obj_projector.png"
		}
	],
	"accessors":[
		{
			"bufferView":0,
			"componentType":5126,
			"count":36,
			"max":[
				0.326343297958374,
				0.5351675152778625,
				0.4149608314037323
			],
			"min":[
				-0.326343297958374,
				0.00041509108268655837,
				-0.41211366653442383
			],
			"type":"VEC3"
		},
		{
			"bufferView":1,
			"componentType":5126,
			"count":36,
			"type":"VEC3"
		},
		{
			"bufferView":2,
			"componentType":5126,
			"count":36,
			"type":"VEC2"
		},
		{
			"bufferView":3,
			"componentType":5123,
			"count":180,
			"type":"SCALAR"
		},
		{
			"bufferView":4,
			"componentType":5126,
			"count":42,
			"max":[
				2.090418815612793,
				4.378094673156738,
				4.208832263946533
			],
			"min":[
				-2.089583396911621,
				0.18924812972545624,
				0.31667113304138184
			],
			"type":"VEC3"
		},
		{
			"bufferView":5,
			"componentType":5126,
			"count":42,
			"type":"VEC3"
		},
		{
			"bufferView":6,
			"componentType":5126,
			"count":42,
			"type":"VEC2"
		},
		{
			"bufferView":7,
			"componentType":5123,
			"count":120,
			"type":"SCALAR"
		},
		{
			"bufferView":8,
			"componentType":5126,
			"count":840,
			"max":[
				0.31846755743026733,
				0.536700963973999,
				0.41146954894065857
			],
			"min":[
				-0.31846755743026733,
				-4.8720835366111714e-06,
				-0.4086223840713501
			],
			"type":"VEC3"
		},
		{
			"bufferView":9,
			"componentType":5126,
			"count":840,
			"type":"VEC3"
		},
		{
			"bufferView":10,
			"componentType":5126,
			"count":840,
			"type":"VEC2"
		},
		{
			"bufferView":11,
			"componentType":5123,
			"count":3366,
			"type":"SCALAR"
		}
	],
	"bufferViews":[
		{
			"buffer":0,
			"byteLength":432,
			"byteOffset":0,
			"target":34962
		},
		{
			"buffer":0,
			"byteLength":432,
			"byteOffset":432,
			"target":34962
		},
		{
			"buffer":0,
			"byteLength":288,
			"byteOffset":864,
			"target":34962
		},
		{
			"buffer":0,
			"byteLength":360,
			"byteOffset":1152,
			"target":34963
		},
		{
			"buffer":0,
			"byteLength":504,
			"byteOffset":1512,
			"target":34962
		},
		{
			"buffer":0,
			"byteLength":504,
			"byteOffset":2016,
			"target":34962
		},
		{
			"buffer":0,
			"byteLength":336,
			"byteOffset":2520,
			"target":34962
		},
		{
			"buffer":0,
			"byteLength":240,
			"byteOffset":2856,
			"target":34963
		},
		{
			"buffer":0,
			"byteLength":10080,
			"byteOffset":3096,
			"target":34962
		},
		{
			"buffer":0,
			"byteLength":10080,
			"byteOffset":13176,
			"target":34962
		},
		{
			"buffer":0,
			"byteLength":6720,
			"byteOffset":23256,
			"target":34962
		},
		{
			"buffer":0,
			"byteLength":6732,
			"byteOffset":29976,
			"target":34963
		}
	],
	"samplers":[
		{
			"magFilter":9729,
			"minFilter":9987
		}
	],
	"buffers":[
		{
			"byteLength":36708,
			"uri":"obj_projector.bin"
		}
	]
}
