{
	"asset":{
		"generator":"Khronos glTF Blender I/O v4.1.63",
		"version":"2.0"
	},
	"scene":0,
	"scenes":[
		{
			"name":"Scene",
			"nodes":[
				0,
				1
			]
		}
	],
	"nodes":[
		{
			"mesh":0,
			"name":"obj_pill"
		},
		{
			"mesh":1,
			"name":"obj_pill_collider"
		}
	],
	"materials":[
		{
			"alphaCutoff":0.20000000298023224,
			"alphaMode":"MASK",
			"emissiveFactor":[
				0.26224830746650696,
				0.5647120475769043,
				0.9215821027755737
			],
			"name":"npc_assistant02",
			"pbrMetallicRoughness":{
				"baseColorTexture":{
					"index":0
				},
				"metallicFactor":0
			}
		},
		{
			"doubleSided":true,
			"emissiveFactor":[
				1,
				1,
				1
			],
			"emissiveTexture":{
				"index":1
			},
			"name":"npc_librarian02",
			"pbrMetallicRoughness":{
				"baseColorTexture":{
					"index":2
				},
				"metallicFactor":0
			}
		},
		{
			"alphaMode":"BLEND",
			"name":"npc_assistant01",
			"pbrMetallicRoughness":{
				"baseColorFactor":[
					0,
					0,
					0,
					0.925000011920929
				],
				"metallicFactor":0
			}
		}
	],
	"meshes":[
		{
			"name":"Plane.007",
			"primitives":[
				{
					"attributes":{
						"POSITION":0,
						"NORMAL":1,
						"TEXCOORD_0":2
					},
					"indices":3,
					"material":0
				},
				{
					"attributes":{
						"POSITION":4,
						"NORMAL":5,
						"TEXCOORD_0":6
					},
					"indices":7,
					"material":1
				},
				{
					"attributes":{
						"POSITION":8,
						"NORMAL":9,
						"TEXCOORD_0":10
					},
					"indices":11,
					"material":2
				}
			]
		},
		{
			"name":"Cube.029",
			"primitives":[
				{
					"attributes":{
						"POSITION":12,
						"NORMAL":13,
						"TEXCOORD_0":14
					},
					"indices":15
				}
			]
		}
	],
	"textures":[
		{
			"sampler":0,
			"source":0
		},
		{
			"sampler":0,
			"source":1
		},
		{
			"sampler":0,
			"source":2
		}
	],
	"images":[
		{
			"mimeType":"image/png",
			"name":"npc_assistant02",
			"uri":"textures/npc_assistant02.png"
		},
		{
			"mimeType":"image/png",
			"name":"npc_librarian02_emission",
			"uri":"textures/npc_librarian02_emission.png"
		},
		{
			"mimeType":"image/png",
			"name":"npc_librarian02",
			"uri":"textures/npc_librarian02.png"
		}
	],
	"accessors":[
		{
			"bufferView":0,
			"componentType":5126,
			"count":122,
			"max":[
				0.071139395236969,
				0.11525751650333405,
				0.0676511600613594
			],
			"min":[
				-0.0706036165356636,
				-0.12242325395345688,
				-0.06869705766439438
			],
			"type":"VEC3"
		},
		{
			"bufferView":1,
			"componentType":5126,
			"count":122,
			"type":"VEC3"
		},
		{
			"bufferView":2,
			"componentType":5126,
			"count":122,
			"type":"VEC2"
		},
		{
			"bufferView":3,
			"componentType":5123,
			"count":264,
			"type":"SCALAR"
		},
		{
			"bufferView":4,
			"componentType":5126,
			"count":814,
			"max":[
				0.07544676214456558,
				0.20112238824367523,
				0.07179459184408188
			],
			"min":[
				-0.07491098344326019,
				-0.1999376267194748,
				-0.07284048944711685
			],
			"type":"VEC3"
		},
		{
			"bufferView":5,
			"componentType":5126,
			"count":814,
			"type":"VEC3"
		},
		{
			"bufferView":6,
			"componentType":5126,
			"count":814,
			"type":"VEC2"
		},
		{
			"bufferView":7,
			"componentType":5123,
			"count":1332,
			"type":"SCALAR"
		},
		{
			"bufferView":8,
			"componentType":5126,
			"count":63,
			"max":[
				0.07544676214456558,
				0.11878074705600739,
				0.07179459184408188
			],
			"min":[
				-0.07491098344326019,
				-0.11759598553180695,
				-0.07284048944711685
			],
			"type":"VEC3"
		},
		{
			"bufferView":9,
			"componentType":5126,
			"count":63,
			"type":"VEC3"
		},
		{
			"bufferView":10,
			"componentType":5126,
			"count":63,
			"type":"VEC2"
		},
		{
			"bufferView":11,
			"componentType":5123,
			"count":180,
			"type":"SCALAR"
		},
		{
			"bufferView":12,
			"componentType":5126,
			"count":24,
			"max":[
				0.0687791109085083,
				0.2005300372838974,
				0.0687791109085083
			],
			"min":[
				-0.0687791109085083,
				-0.200530007481575,
				-0.0687791109085083
			],
			"type":"VEC3"
		},
		{
			"bufferView":13,
			"componentType":5126,
			"count":24,
			"type":"VEC3"
		},
		{
			"bufferView":14,
			"componentType":5126,
			"count":24,
			"type":"VEC2"
		},
		{
			"bufferView":15,
			"componentType":5123,
			"count":36,
			"type":"SCALAR"
		}
	],
	"bufferViews":[
		{
			"buffer":0,
			"byteLength":1464,
			"byteOffset":0,
			"target":34962
		},
		{
			"buffer":0,
			"byteLength":1464,
			"byteOffset":1464,
			"target":34962
		},
		{
			"buffer":0,
			"byteLength":976,
			"byteOffset":2928,
			"target":34962
		},
		{
			"buffer":0,
			"byteLength":528,
			"byteOffset":3904,
			"target":34963
		},
		{
			"buffer":0,
			"byteLength":9768,
			"byteOffset":4432,
			"target":34962
		},
		{
			"buffer":0,
			"byteLength":9768,
			"byteOffset":14200,
			"target":34962
		},
		{
			"buffer":0,
			"byteLength":6512,
			"byteOffset":23968,
			"target":34962
		},
		{
			"buffer":0,
			"byteLength":2664,
			"byteOffset":30480,
			"target":34963
		},
		{
			"buffer":0,
			"byteLength":756,
			"byteOffset":33144,
			"target":34962
		},
		{
			"buffer":0,
			"byteLength":756,
			"byteOffset":33900,
			"target":34962
		},
		{
			"buffer":0,
			"byteLength":504,
			"byteOffset":34656,
			"target":34962
		},
		{
			"buffer":0,
			"byteLength":360,
			"byteOffset":35160,
			"target":34963
		},
		{
			"buffer":0,
			"byteLength":288,
			"byteOffset":35520,
			"target":34962
		},
		{
			"buffer":0,
			"byteLength":288,
			"byteOffset":35808,
			"target":34962
		},
		{
			"buffer":0,
			"byteLength":192,
			"byteOffset":36096,
			"target":34962
		},
		{
			"buffer":0,
			"byteLength":72,
			"byteOffset":36288,
			"target":34963
		}
	],
	"samplers":[
		{
			"magFilter":9729,
			"minFilter":9987
		}
	],
	"buffers":[
		{
			"byteLength":36360,
			"uri":"obj_pill.bin"
		}
	]
}
