{
	"asset":{
		"generator":"Khronos glTF Blender I/O v4.1.63",
		"version":"2.0"
	},
	"extensionsUsed":[
		"KHR_materials_specular",
		"KHR_materials_ior"
	],
	"scene":0,
	"scenes":[
		{
			"name":"Scene",
			"nodes":[
				0,
				1
			]
		}
	],
	"nodes":[
		{
			"mesh":0,
			"name":"obj_board"
		},
		{
			"mesh":1,
			"name":"obj_board_collider"
		}
	],
	"materials":[
		{
			"doubleSided":true,
			"emissiveFactor":[
				0.10000000149011612,
				0.10000000149011612,
				0.10000000149011612
			],
			"emissiveTexture":{
				"index":0
			},
			"extensions":{
				"KHR_materials_specular":{
					"specularFactor":0
				},
				"KHR_materials_ior":{
					"ior":1.4500000476837158
				}
			},
			"name":"obj_board",
			"pbrMetallicRoughness":{
				"baseColorTexture":{
					"index":1
				},
				"metallicFactor":0
			}
		},
		{
			"doubleSided":true,
			"emissiveFactor":[
				0.10000000149011612,
				0.10000000149011612,
				0.10000000149011612
			],
			"emissiveTexture":{
				"index":2
			},
			"extensions":{
				"KHR_materials_specular":{
					"specularFactor":0
				},
				"KHR_materials_ior":{
					"ior":1.4500000476837158
				}
			},
			"name":"obj_stickers02",
			"pbrMetallicRoughness":{
				"baseColorTexture":{
					"index":3
				},
				"metallicFactor":0
			}
		},
		{
			"doubleSided":true,
			"emissiveFactor":[
				0.10000000149011612,
				0.10000000149011612,
				0.10000000149011612
			],
			"emissiveTexture":{
				"index":4
			},
			"extensions":{
				"KHR_materials_specular":{
					"specularFactor":0
				},
				"KHR_materials_ior":{
					"ior":1.4500000476837158
				}
			},
			"name":"obj_stickers01",
			"pbrMetallicRoughness":{
				"baseColorTexture":{
					"index":5
				},
				"metallicFactor":0
			}
		},
		{
			"doubleSided":true,
			"emissiveFactor":[
				0.26224830746650696,
				0.5647120475769043,
				0.9215821027755737
			],
			"extensions":{
				"KHR_materials_specular":{
					"specularFactor":0
				},
				"KHR_materials_ior":{
					"ior":1.4500000476837158
				}
			},
			"name":"obj_global_emission01",
			"pbrMetallicRoughness":{
				"baseColorFactor":[
					0.2617267668247223,
					0.566400408744812,
					0.9218639135360718,
					1
				],
				"metallicFactor":0
			}
		}
	],
	"meshes":[
		{
			"name":"Body41.002",
			"primitives":[
				{
					"attributes":{
						"POSITION":0,
						"NORMAL":1,
						"TEXCOORD_0":2
					},
					"indices":3,
					"material":0
				},
				{
					"attributes":{
						"POSITION":4,
						"NORMAL":5,
						"TEXCOORD_0":6
					},
					"indices":7,
					"material":1
				},
				{
					"attributes":{
						"POSITION":8,
						"NORMAL":9,
						"TEXCOORD_0":10
					},
					"indices":11,
					"material":2
				},
				{
					"attributes":{
						"POSITION":12,
						"NORMAL":13,
						"TEXCOORD_0":14
					},
					"indices":15,
					"material":3
				}
			]
		},
		{
			"name":"Cube.034",
			"primitives":[
				{
					"attributes":{
						"POSITION":16,
						"NORMAL":17,
						"TEXCOORD_0":18
					},
					"indices":19
				}
			]
		}
	],
	"textures":[
		{
			"sampler":0,
			"source":0
		},
		{
			"sampler":0,
			"source":0
		},
		{
			"sampler":0,
			"source":1
		},
		{
			"sampler":0,
			"source":1
		},
		{
			"sampler":0,
			"source":2
		},
		{
			"sampler":0,
			"source":2
		}
	],
	"images":[
		{
			"mimeType":"image/png",
			"name":"obj_board",
			"uri":"textures/obj_board.png"
		},
		{
			"mimeType":"image/png",
			"name":"obj_stickers02",
			"uri":"textures/obj_stickers02.png"
		},
		{
			"mimeType":"image/png",
			"name":"obj_stickers01",
			"uri":"textures/obj_stickers01.png"
		}
	],
	"accessors":[
		{
			"bufferView":0,
			"componentType":5126,
			"count":1022,
			"max":[
				1.3535579442977905,
				2.405628204345703,
				0.23041965067386627
			],
			"min":[
				-1.3864428997039795,
				0,
				-0.2368166595697403
			],
			"type":"VEC3"
		},
		{
			"bufferView":1,
			"componentType":5126,
			"count":1022,
			"type":"VEC3"
		},
		{
			"bufferView":2,
			"componentType":5126,
			"count":1022,
			"type":"VEC2"
		},
		{
			"bufferView":3,
			"componentType":5123,
			"count":2574,
			"type":"SCALAR"
		},
		{
			"bufferView":4,
			"componentType":5126,
			"count":74,
			"max":[
				0.7746890783309937,
				2.284492015838623,
				-0.02370162308216095
			],
			"min":[
				-1.1100332736968994,
				1.1863391399383545,
				-0.07388964295387268
			],
			"type":"VEC3"
		},
		{
			"bufferView":5,
			"componentType":5126,
			"count":74,
			"type":"VEC3"
		},
		{
			"bufferView":6,
			"componentType":5126,
			"count":74,
			"type":"VEC2"
		},
		{
			"bufferView":7,
			"componentType":5123,
			"count":144,
			"type":"SCALAR"
		},
		{
			"bufferView":8,
			"componentType":5126,
			"count":68,
			"max":[
				1.1505717039108276,
				2.3032960891723633,
				-0.023766785860061646
			],
			"min":[
				-0.8192918300628662,
				1.1749083995819092,
				-0.0743185430765152
			],
			"type":"VEC3"
		},
		{
			"bufferView":9,
			"componentType":5126,
			"count":68,
			"type":"VEC3"
		},
		{
			"bufferView":10,
			"componentType":5126,
			"count":68,
			"type":"VEC2"
		},
		{
			"bufferView":11,
			"componentType":5123,
			"count":132,
			"type":"SCALAR"
		},
		{
			"bufferView":12,
			"componentType":5126,
			"count":20,
			"max":[
				1.1772664785385132,
				2.3456034660339355,
				0.05705040693283081
			],
			"min":[
				-1.2102590799331665,
				0.7444555759429932,
				-0.06229268014431
			],
			"type":"VEC3"
		},
		{
			"bufferView":13,
			"componentType":5126,
			"count":20,
			"type":"VEC3"
		},
		{
			"bufferView":14,
			"componentType":5126,
			"count":20,
			"type":"VEC2"
		},
		{
			"bufferView":15,
			"componentType":5123,
			"count":36,
			"type":"SCALAR"
		},
		{
			"bufferView":16,
			"componentType":5126,
			"count":48,
			"max":[
				1.3835355043411255,
				2.424387216567993,
				0.24817894399166107
			],
			"min":[
				-1.3835355043411255,
				0,
				-0.24817894399166107
			],
			"type":"VEC3"
		},
		{
			"bufferView":17,
			"componentType":5126,
			"count":48,
			"type":"VEC3"
		},
		{
			"bufferView":18,
			"componentType":5126,
			"count":48,
			"type":"VEC2"
		},
		{
			"bufferView":19,
			"componentType":5123,
			"count":84,
			"type":"SCALAR"
		}
	],
	"bufferViews":[
		{
			"buffer":0,
			"byteLength":12264,
			"byteOffset":0,
			"target":34962
		},
		{
			"buffer":0,
			"byteLength":12264,
			"byteOffset":12264,
			"target":34962
		},
		{
			"buffer":0,
			"byteLength":8176,
			"byteOffset":24528,
			"target":34962
		},
		{
			"buffer":0,
			"byteLength":5148,
			"byteOffset":32704,
			"target":34963
		},
		{
			"buffer":0,
			"byteLength":888,
			"byteOffset":37852,
			"target":34962
		},
		{
			"buffer":0,
			"byteLength":888,
			"byteOffset":38740,
			"target":34962
		},
		{
			"buffer":0,
			"byteLength":592,
			"byteOffset":39628,
			"target":34962
		},
		{
			"buffer":0,
			"byteLength":288,
			"byteOffset":40220,
			"target":34963
		},
		{
			"buffer":0,
			"byteLength":816,
			"byteOffset":40508,
			"target":34962
		},
		{
			"buffer":0,
			"byteLength":816,
			"byteOffset":41324,
			"target":34962
		},
		{
			"buffer":0,
			"byteLength":544,
			"byteOffset":42140,
			"target":34962
		},
		{
			"buffer":0,
			"byteLength":264,
			"byteOffset":42684,
			"target":34963
		},
		{
			"buffer":0,
			"byteLength":240,
			"byteOffset":42948,
			"target":34962
		},
		{
			"buffer":0,
			"byteLength":240,
			"byteOffset":43188,
			"target":34962
		},
		{
			"buffer":0,
			"byteLength":160,
			"byteOffset":43428,
			"target":34962
		},
		{
			"buffer":0,
			"byteLength":72,
			"byteOffset":43588,
			"target":34963
		},
		{
			"buffer":0,
			"byteLength":576,
			"byteOffset":43660,
			"target":34962
		},
		{
			"buffer":0,
			"byteLength":576,
			"byteOffset":44236,
			"target":34962
		},
		{
			"buffer":0,
			"byteLength":384,
			"byteOffset":44812,
			"target":34962
		},
		{
			"buffer":0,
			"byteLength":168,
			"byteOffset":45196,
			"target":34963
		}
	],
	"samplers":[
		{
			"magFilter":9729,
			"minFilter":9987
		}
	],
	"buffers":[
		{
			"byteLength":45364,
			"uri":"obj_board.bin"
		}
	]
}
