{
	"asset":{
		"generator":"Khronos glTF Blender I/O v4.1.63",
		"version":"2.0"
	},
	"extensionsUsed":[
		"KHR_materials_specular",
		"KHR_materials_ior"
	],
	"scene":0,
	"scenes":[
		{
			"name":"Scene",
			"nodes":[
				0,
				1
			]
		}
	],
	"nodes":[
		{
			"mesh":0,
			"name":"obj_sign13"
		},
		{
			"mesh":1,
			"name":"obj_sign13_collider"
		}
	],
	"materials":[
		{
			"doubleSided":true,
			"emissiveFactor":[
				0.05000000074505806,
				0.05000000074505806,
				0.05000000074505806
			],
			"emissiveTexture":{
				"index":0
			},
			"extensions":{
				"KHR_materials_specular":{
					"specularFactor":0
				},
				"KHR_materials_ior":{
					"ior":1.4500000476837158
				}
			},
			"name":"obj_sign01",
			"pbrMetallicRoughness":{
				"baseColorTexture":{
					"index":1
				},
				"metallicFactor":0
			}
		},
		{
			"doubleSided":true,
			"emissiveFactor":[
				0.26229405403137207,
				0.5646868348121643,
				0.921515166759491
			],
			"extensions":{
				"KHR_materials_specular":{
					"specularFactor":0
				},
				"KHR_materials_ior":{
					"ior":1.4500000476837158
				}
			},
			"name":"obj_global_emission01",
			"pbrMetallicRoughness":{
				"baseColorFactor":[
					0.2617267668247223,
					0.566400408744812,
					0.9218639135360718,
					1
				],
				"metallicFactor":0
			}
		},
		{
			"doubleSided":true,
			"emissiveFactor":[
				1,
				1,
				1
			],
			"emissiveTexture":{
				"index":2
			},
			"name":"npc_librarian02",
			"pbrMetallicRoughness":{
				"baseColorTexture":{
					"index":3
				},
				"metallicFactor":0
			}
		},
		{
			"doubleSided":true,
			"emissiveFactor":[
				1,
				1,
				1
			],
			"emissiveTexture":{
				"index":4
			},
			"name":"npc_librarian01",
			"pbrMetallicRoughness":{
				"baseColorTexture":{
					"index":5
				},
				"metallicFactor":0
			}
		}
	],
	"meshes":[
		{
			"name":"Mesh.308",
			"primitives":[
				{
					"attributes":{
						"POSITION":0,
						"NORMAL":1,
						"TEXCOORD_0":2
					},
					"indices":3,
					"material":0
				},
				{
					"attributes":{
						"POSITION":4,
						"NORMAL":5,
						"TEXCOORD_0":6
					},
					"indices":7,
					"material":1
				},
				{
					"attributes":{
						"POSITION":8,
						"NORMAL":9,
						"TEXCOORD_0":10
					},
					"indices":11,
					"material":2
				},
				{
					"attributes":{
						"POSITION":12,
						"NORMAL":13,
						"TEXCOORD_0":14
					},
					"indices":15,
					"material":3
				}
			]
		},
		{
			"name":"Cube.010",
			"primitives":[
				{
					"attributes":{
						"POSITION":16,
						"NORMAL":17,
						"TEXCOORD_0":18
					},
					"indices":19
				}
			]
		}
	],
	"textures":[
		{
			"sampler":0,
			"source":0
		},
		{
			"sampler":0,
			"source":0
		},
		{
			"sampler":0,
			"source":1
		},
		{
			"sampler":0,
			"source":2
		},
		{
			"sampler":0,
			"source":3
		},
		{
			"sampler":0,
			"source":4
		}
	],
	"images":[
		{
			"mimeType":"image/png",
			"name":"obj_sign01",
			"uri":"textures/obj_sign01.png"
		},
		{
			"mimeType":"image/png",
			"name":"npc_librarian02_emission",
			"uri":"textures/npc_librarian02_emission.png"
		},
		{
			"mimeType":"image/png",
			"name":"npc_librarian02",
			"uri":"textures/npc_librarian02.png"
		},
		{
			"mimeType":"image/jpeg",
			"name":"npc_librarian01_emission",
			"uri":"textures/npc_librarian01_emission.jpg"
		},
		{
			"mimeType":"image/jpeg",
			"name":"npc_librarian01",
			"uri":"textures/npc_librarian01.jpg"
		}
	],
	"accessors":[
		{
			"bufferView":0,
			"componentType":5126,
			"count":578,
			"max":[
				2.1327409744262695,
				1.5554111003875732,
				0.21949096024036407
			],
			"min":[
				-2.1327409744262695,
				0.004326820373535156,
				-0.21949104964733124
			],
			"type":"VEC3"
		},
		{
			"bufferView":1,
			"componentType":5126,
			"count":578,
			"type":"VEC3"
		},
		{
			"bufferView":2,
			"componentType":5126,
			"count":578,
			"type":"VEC2"
		},
		{
			"bufferView":3,
			"componentType":5123,
			"count":1836,
			"type":"SCALAR"
		},
		{
			"bufferView":4,
			"componentType":5126,
			"count":515,
			"max":[
				2.1041665077209473,
				1.5291004180908203,
				0.21949096024036407
			],
			"min":[
				-2.1041665077209473,
				0.030637502670288086,
				-0.21949104964733124
			],
			"type":"VEC3"
		},
		{
			"bufferView":5,
			"componentType":5126,
			"count":515,
			"type":"VEC3"
		},
		{
			"bufferView":6,
			"componentType":5126,
			"count":515,
			"type":"VEC2"
		},
		{
			"bufferView":7,
			"componentType":5123,
			"count":1401,
			"type":"SCALAR"
		},
		{
			"bufferView":8,
			"componentType":5126,
			"count":166,
			"max":[
				1.490187644958496,
				2.0527894496917725,
				0.0732966810464859
			],
			"min":[
				0.7950314283370972,
				1.8526678085327148,
				-0.12266828864812851
			],
			"type":"VEC3"
		},
		{
			"bufferView":9,
			"componentType":5126,
			"count":166,
			"type":"VEC3"
		},
		{
			"bufferView":10,
			"componentType":5126,
			"count":166,
			"type":"VEC2"
		},
		{
			"bufferView":11,
			"componentType":5123,
			"count":864,
			"type":"SCALAR"
		},
		{
			"bufferView":12,
			"componentType":5126,
			"count":1420,
			"max":[
				1.6918392181396484,
				2.7860469818115234,
				0.3253183364868164
			],
			"min":[
				0.5929440855979919,
				1.559714674949646,
				-0.36613139510154724
			],
			"type":"VEC3"
		},
		{
			"bufferView":13,
			"componentType":5126,
			"count":1420,
			"type":"VEC3"
		},
		{
			"bufferView":14,
			"componentType":5126,
			"count":1420,
			"type":"VEC2"
		},
		{
			"bufferView":15,
			"componentType":5123,
			"count":5994,
			"type":"SCALAR"
		},
		{
			"bufferView":16,
			"componentType":5126,
			"count":56,
			"max":[
				2.1327409744262695,
				2.813852310180664,
				0.21949070692062378
			],
			"min":[
				-2.1327409744262695,
				0.001564323902130127,
				-0.21949100494384766
			],
			"type":"VEC3"
		},
		{
			"bufferView":17,
			"componentType":5126,
			"count":56,
			"type":"VEC3"
		},
		{
			"bufferView":18,
			"componentType":5126,
			"count":56,
			"type":"VEC2"
		},
		{
			"bufferView":19,
			"componentType":5123,
			"count":108,
			"type":"SCALAR"
		}
	],
	"bufferViews":[
		{
			"buffer":0,
			"byteLength":6936,
			"byteOffset":0,
			"target":34962
		},
		{
			"buffer":0,
			"byteLength":6936,
			"byteOffset":6936,
			"target":34962
		},
		{
			"buffer":0,
			"byteLength":4624,
			"byteOffset":13872,
			"target":34962
		},
		{
			"buffer":0,
			"byteLength":3672,
			"byteOffset":18496,
			"target":34963
		},
		{
			"buffer":0,
			"byteLength":6180,
			"byteOffset":22168,
			"target":34962
		},
		{
			"buffer":0,
			"byteLength":6180,
			"byteOffset":28348,
			"target":34962
		},
		{
			"buffer":0,
			"byteLength":4120,
			"byteOffset":34528,
			"target":34962
		},
		{
			"buffer":0,
			"byteLength":2802,
			"byteOffset":38648,
			"target":34963
		},
		{
			"buffer":0,
			"byteLength":1992,
			"byteOffset":41452,
			"target":34962
		},
		{
			"buffer":0,
			"byteLength":1992,
			"byteOffset":43444,
			"target":34962
		},
		{
			"buffer":0,
			"byteLength":1328,
			"byteOffset":45436,
			"target":34962
		},
		{
			"buffer":0,
			"byteLength":1728,
			"byteOffset":46764,
			"target":34963
		},
		{
			"buffer":0,
			"byteLength":17040,
			"byteOffset":48492,
			"target":34962
		},
		{
			"buffer":0,
			"byteLength":17040,
			"byteOffset":65532,
			"target":34962
		},
		{
			"buffer":0,
			"byteLength":11360,
			"byteOffset":82572,
			"target":34962
		},
		{
			"buffer":0,
			"byteLength":11988,
			"byteOffset":93932,
			"target":34963
		},
		{
			"buffer":0,
			"byteLength":672,
			"byteOffset":105920,
			"target":34962
		},
		{
			"buffer":0,
			"byteLength":672,
			"byteOffset":106592,
			"target":34962
		},
		{
			"buffer":0,
			"byteLength":448,
			"byteOffset":107264,
			"target":34962
		},
		{
			"buffer":0,
			"byteLength":216,
			"byteOffset":107712,
			"target":34963
		}
	],
	"samplers":[
		{
			"magFilter":9729,
			"minFilter":9987
		}
	],
	"buffers":[
		{
			"byteLength":107928,
			"uri":"obj_sign13.bin"
		}
	]
}
