{
	"asset":{
		"generator":"Khronos glTF Blender I/O v4.0.44",
		"version":"2.0"
	},
	"scene":0,
	"scenes":[
		{
			"name":"Scene",
			"nodes":[
				1
			]
		}
	],
	"nodes":[
		{
			"mesh":0,
			"name":"obj_plant02_collider"
		},
		{
			"children":[
				0
			],
			"mesh":1,
			"name":"obj_plant02"
		}
	],
	"materials":[
		{
			"doubleSided":true,
			"emissiveFactor":[
				1,
				1,
				1
			],
			"emissiveTexture":{
				"index":0
			},
			"name":"obj_plants",
			"pbrMetallicRoughness":{
				"baseColorTexture":{
					"index":1
				},
				"metallicFactor":0
			}
		}
	],
	"meshes":[
		{
			"name":"Cube.005",
			"primitives":[
				{
					"attributes":{
						"POSITION":0,
						"NORMAL":1,
						"TEXCOORD_0":2
					},
					"indices":3
				}
			]
		},
		{
			"name":"Plane.001",
			"primitives":[
				{
					"attributes":{
						"POSITION":4,
						"NORMAL":5,
						"TEXCOORD_0":6
					},
					"indices":7,
					"material":0
				}
			]
		}
	],
	"textures":[
		{
			"sampler":0,
			"source":0
		},
		{
			"sampler":0,
			"source":1
		}
	],
	"images":[
		{
			"mimeType":"image/png",
			"name":"obj_plants_emission",
			"uri":"textures/obj_plants_emission.png"
		},
		{
			"mimeType":"image/png",
			"name":"obj_plants",
			"uri":"textures/obj_plants.png"
		}
	],
	"accessors":[
		{
			"bufferView":0,
			"componentType":5126,
			"count":20,
			"max":[
				0.42372870445251465,
				0.6835690140724182,
				0.4208752512931824
			],
			"min":[
				-0.4202529788017273,
				0.005181983113288879,
				-0.42310643196105957
			],
			"type":"VEC3"
		},
		{
			"bufferView":1,
			"componentType":5126,
			"count":20,
			"type":"VEC3"
		},
		{
			"bufferView":2,
			"componentType":5126,
			"count":20,
			"type":"VEC2"
		},
		{
			"bufferView":3,
			"componentType":5123,
			"count":30,
			"type":"SCALAR"
		},
		{
			"bufferView":4,
			"componentType":5126,
			"count":824,
			"max":[
				0.5588000416755676,
				1.6367568969726562,
				0.5416385531425476
			],
			"min":[
				-0.5131292939186096,
				-1.043081283569336e-07,
				-0.5907413363456726
			],
			"type":"VEC3"
		},
		{
			"bufferView":5,
			"componentType":5126,
			"count":824,
			"type":"VEC3"
		},
		{
			"bufferView":6,
			"componentType":5126,
			"count":824,
			"type":"VEC2"
		},
		{
			"bufferView":7,
			"componentType":5123,
			"count":3252,
			"type":"SCALAR"
		}
	],
	"bufferViews":[
		{
			"buffer":0,
			"byteLength":240,
			"byteOffset":0,
			"target":34962
		},
		{
			"buffer":0,
			"byteLength":240,
			"byteOffset":240,
			"target":34962
		},
		{
			"buffer":0,
			"byteLength":160,
			"byteOffset":480,
			"target":34962
		},
		{
			"buffer":0,
			"byteLength":60,
			"byteOffset":640,
			"target":34963
		},
		{
			"buffer":0,
			"byteLength":9888,
			"byteOffset":700,
			"target":34962
		},
		{
			"buffer":0,
			"byteLength":9888,
			"byteOffset":10588,
			"target":34962
		},
		{
			"buffer":0,
			"byteLength":6592,
			"byteOffset":20476,
			"target":34962
		},
		{
			"buffer":0,
			"byteLength":6504,
			"byteOffset":27068,
			"target":34963
		}
	],
	"samplers":[
		{
			"magFilter":9729,
			"minFilter":9987
		}
	],
	"buffers":[
		{
			"byteLength":33572,
			"uri":"obj_plant02.bin"
		}
	]
}
