{
	"asset":{
		"generator":"Khronos glTF Blender I/O v4.0.44",
		"version":"2.0"
	},
	"extensionsUsed":[
		"KHR_materials_specular",
		"KHR_materials_ior"
	],
	"scene":0,
	"scenes":[
		{
			"name":"Scene",
			"nodes":[
				0,
				1
			]
		}
	],
	"nodes":[
		{
			"mesh":0,
			"name":"obj_vase"
		},
		{
			"mesh":1,
			"name":"obj_vase_collider"
		}
	],
	"materials":[
		{
			"doubleSided":true,
			"emissiveFactor":[
				1,
				1,
				1
			],
			"emissiveTexture":{
				"index":0
			},
			"extensions":{
				"KHR_materials_specular":{
					"specularFactor":0
				},
				"KHR_materials_ior":{
					"ior":1.4500000476837158
				}
			},
			"name":"obj_vase",
			"pbrMetallicRoughness":{
				"baseColorTexture":{
					"index":1
				},
				"metallicFactor":0
			}
		}
	],
	"meshes":[
		{
			"name":"Sphere",
			"primitives":[
				{
					"attributes":{
						"POSITION":0,
						"NORMAL":1,
						"TEXCOORD_0":2
					},
					"indices":3,
					"material":0
				}
			]
		},
		{
			"name":"Sphere.002",
			"primitives":[
				{
					"attributes":{
						"POSITION":4,
						"NORMAL":5,
						"TEXCOORD_0":6
					},
					"indices":7
				}
			]
		}
	],
	"textures":[
		{
			"sampler":0,
			"source":0
		},
		{
			"sampler":0,
			"source":1
		}
	],
	"images":[
		{
			"mimeType":"image/png",
			"name":"obj_vase_emission",
			"uri":"textures/obj_vase_emission.png"
		},
		{
			"mimeType":"image/png",
			"name":"obj_vase",
			"uri":"textures/obj_vase.png"
		}
	],
	"accessors":[
		{
			"bufferView":0,
			"componentType":5126,
			"count":1043,
			"max":[
				0.9101802706718445,
				1.3967366218566895,
				0.4664502441883087
			],
			"min":[
				-0.46645018458366394,
				0.0008960366249084473,
				-0.4664502441883087
			],
			"type":"VEC3"
		},
		{
			"bufferView":1,
			"componentType":5126,
			"count":1043,
			"type":"VEC3"
		},
		{
			"bufferView":2,
			"componentType":5126,
			"count":1043,
			"type":"VEC2"
		},
		{
			"bufferView":3,
			"componentType":5123,
			"count":3372,
			"type":"SCALAR"
		},
		{
			"bufferView":4,
			"componentType":5126,
			"count":111,
			"max":[
				0.9017695188522339,
				1.4129884243011475,
				0.44631022214889526
			],
			"min":[
				-0.4692782163619995,
				-0.031240791082382202,
				-0.4463101923465729
			],
			"type":"VEC3"
		},
		{
			"bufferView":5,
			"componentType":5126,
			"count":111,
			"type":"VEC3"
		},
		{
			"bufferView":6,
			"componentType":5126,
			"count":111,
			"type":"VEC2"
		},
		{
			"bufferView":7,
			"componentType":5123,
			"count":366,
			"type":"SCALAR"
		}
	],
	"bufferViews":[
		{
			"buffer":0,
			"byteLength":12516,
			"byteOffset":0,
			"target":34962
		},
		{
			"buffer":0,
			"byteLength":12516,
			"byteOffset":12516,
			"target":34962
		},
		{
			"buffer":0,
			"byteLength":8344,
			"byteOffset":25032,
			"target":34962
		},
		{
			"buffer":0,
			"byteLength":6744,
			"byteOffset":33376,
			"target":34963
		},
		{
			"buffer":0,
			"byteLength":1332,
			"byteOffset":40120,
			"target":34962
		},
		{
			"buffer":0,
			"byteLength":1332,
			"byteOffset":41452,
			"target":34962
		},
		{
			"buffer":0,
			"byteLength":888,
			"byteOffset":42784,
			"target":34962
		},
		{
			"buffer":0,
			"byteLength":732,
			"byteOffset":43672,
			"target":34963
		}
	],
	"samplers":[
		{
			"magFilter":9729,
			"minFilter":9987
		}
	],
	"buffers":[
		{
			"byteLength":44404,
			"uri":"obj_vase.bin"
		}
	]
}
