{
	"asset":{
		"generator":"Khronos glTF Blender I/O v4.1.63",
		"version":"2.0"
	},
	"extensionsUsed":[
		"KHR_materials_specular",
		"KHR_materials_ior"
	],
	"scene":0,
	"scenes":[
		{
			"name":"Scene",
			"nodes":[
				0,
				1
			]
		}
	],
	"nodes":[
		{
			"mesh":0,
			"name":"obj_seat01"
		},
		{
			"mesh":1,
			"name":"obj_seat01_collider"
		}
	],
	"materials":[
		{
			"doubleSided":true,
			"emissiveFactor":[
				1,
				1,
				1
			],
			"emissiveTexture":{
				"index":0
			},
			"extensions":{
				"KHR_materials_specular":{
					"specularFactor":0
				},
				"KHR_materials_ior":{
					"ior":1.4500000476837158
				}
			},
			"name":"obj_seat",
			"pbrMetallicRoughness":{
				"baseColorTexture":{
					"index":1
				},
				"metallicFactor":0
			}
		}
	],
	"meshes":[
		{
			"name":"Mesh.143",
			"primitives":[
				{
					"attributes":{
						"POSITION":0,
						"NORMAL":1,
						"TEXCOORD_0":2
					},
					"indices":3,
					"material":0
				}
			]
		},
		{
			"name":"Mesh.142",
			"primitives":[
				{
					"attributes":{
						"POSITION":4,
						"NORMAL":5,
						"TEXCOORD_0":6
					},
					"indices":7
				}
			]
		}
	],
	"textures":[
		{
			"sampler":0,
			"source":0
		},
		{
			"sampler":0,
			"source":1
		}
	],
	"images":[
		{
			"mimeType":"image/png",
			"name":"obj_seat01_emission",
			"uri":"textures/obj_seat01_emission.png"
		},
		{
			"mimeType":"image/png",
			"name":"obj_seat01",
			"uri":"textures/obj_seat01.png"
		}
	],
	"accessors":[
		{
			"bufferView":0,
			"componentType":5126,
			"count":390,
			"max":[
				0.45356589555740356,
				1.038226842880249,
				0.37966907024383545
			],
			"min":[
				-0.5093077421188354,
				-6.099600682318851e-07,
				-0.3796690106391907
			],
			"type":"VEC3"
		},
		{
			"bufferView":1,
			"componentType":5126,
			"count":390,
			"type":"VEC3"
		},
		{
			"bufferView":2,
			"componentType":5126,
			"count":390,
			"type":"VEC2"
		},
		{
			"bufferView":3,
			"componentType":5123,
			"count":1212,
			"type":"SCALAR"
		},
		{
			"bufferView":4,
			"componentType":5126,
			"count":186,
			"max":[
				0.45356592535972595,
				1.0382267236709595,
				0.37966907024383545
			],
			"min":[
				-0.5093078017234802,
				-6.481796503976511e-07,
				-0.37966907024383545
			],
			"type":"VEC3"
		},
		{
			"bufferView":5,
			"componentType":5126,
			"count":186,
			"type":"VEC3"
		},
		{
			"bufferView":6,
			"componentType":5126,
			"count":186,
			"type":"VEC2"
		},
		{
			"bufferView":7,
			"componentType":5123,
			"count":447,
			"type":"SCALAR"
		}
	],
	"bufferViews":[
		{
			"buffer":0,
			"byteLength":4680,
			"byteOffset":0,
			"target":34962
		},
		{
			"buffer":0,
			"byteLength":4680,
			"byteOffset":4680,
			"target":34962
		},
		{
			"buffer":0,
			"byteLength":3120,
			"byteOffset":9360,
			"target":34962
		},
		{
			"buffer":0,
			"byteLength":2424,
			"byteOffset":12480,
			"target":34963
		},
		{
			"buffer":0,
			"byteLength":2232,
			"byteOffset":14904,
			"target":34962
		},
		{
			"buffer":0,
			"byteLength":2232,
			"byteOffset":17136,
			"target":34962
		},
		{
			"buffer":0,
			"byteLength":1488,
			"byteOffset":19368,
			"target":34962
		},
		{
			"buffer":0,
			"byteLength":894,
			"byteOffset":20856,
			"target":34963
		}
	],
	"samplers":[
		{
			"magFilter":9729,
			"minFilter":9987
		}
	],
	"buffers":[
		{
			"byteLength":21752,
			"uri":"obj_seat01.bin"
		}
	]
}
