{
	"asset":{
		"generator":"Khronos glTF Blender I/O v4.1.63",
		"version":"2.0"
	},
	"extensionsUsed":[
		"KHR_materials_specular",
		"KHR_materials_ior"
	],
	"scene":0,
	"scenes":[
		{
			"name":"Scene",
			"nodes":[
				0,
				1
			]
		}
	],
	"nodes":[
		{
			"mesh":0,
			"name":"obj_shelf"
		},
		{
			"mesh":1,
			"name":"obj_shelf_collider"
		}
	],
	"materials":[
		{
			"doubleSided":true,
			"emissiveFactor":[
				1,
				1,
				1
			],
			"emissiveTexture":{
				"index":0
			},
			"extensions":{
				"KHR_materials_specular":{
					"specularFactor":0
				},
				"KHR_materials_ior":{
					"ior":1.4500000476837158
				}
			},
			"name":"obj_screen",
			"pbrMetallicRoughness":{
				"baseColorTexture":{
					"index":1
				},
				"metallicFactor":0
			}
		},
		{
			"doubleSided":true,
			"emissiveFactor":[
				0.26229405403137207,
				0.5646868348121643,
				0.921515166759491
			],
			"extensions":{
				"KHR_materials_specular":{
					"specularFactor":0
				},
				"KHR_materials_ior":{
					"ior":1.4500000476837158
				}
			},
			"name":"obj_global_emission01",
			"pbrMetallicRoughness":{
				"baseColorFactor":[
					0.2617267668247223,
					0.566400408744812,
					0.9218639135360718,
					1
				],
				"metallicFactor":0
			}
		}
	],
	"meshes":[
		{
			"name":"Mesh.178",
			"primitives":[
				{
					"attributes":{
						"POSITION":0,
						"NORMAL":1,
						"TEXCOORD_0":2
					},
					"indices":3,
					"material":0
				},
				{
					"attributes":{
						"POSITION":4,
						"NORMAL":5,
						"TEXCOORD_0":6
					},
					"indices":7,
					"material":1
				}
			]
		},
		{
			"name":"Cube.001",
			"primitives":[
				{
					"attributes":{
						"POSITION":8,
						"NORMAL":9,
						"TEXCOORD_0":10
					},
					"indices":11
				}
			]
		}
	],
	"textures":[
		{
			"sampler":0,
			"source":0
		},
		{
			"sampler":0,
			"source":1
		}
	],
	"images":[
		{
			"mimeType":"image/png",
			"name":"obj_screen_emission",
			"uri":"textures/obj_screen_emission.png"
		},
		{
			"mimeType":"image/png",
			"name":"obj_screen",
			"uri":"textures/obj_screen.png"
		}
	],
	"accessors":[
		{
			"bufferView":0,
			"componentType":5126,
			"count":1516,
			"max":[
				1.8292696475982666,
				3.791311025619507,
				0.4789391756057739
			],
			"min":[
				-1.8094539642333984,
				-0.037359245121479034,
				-0.4777306914329529
			],
			"type":"VEC3"
		},
		{
			"bufferView":1,
			"componentType":5126,
			"count":1516,
			"type":"VEC3"
		},
		{
			"bufferView":2,
			"componentType":5126,
			"count":1516,
			"type":"VEC2"
		},
		{
			"bufferView":3,
			"componentType":5123,
			"count":3348,
			"type":"SCALAR"
		},
		{
			"bufferView":4,
			"componentType":5126,
			"count":138,
			"max":[
				1.379145860671997,
				3.5569796562194824,
				0.11551320552825928
			],
			"min":[
				-1.3606665134429932,
				0.1774493008852005,
				-0.11430555582046509
			],
			"type":"VEC3"
		},
		{
			"bufferView":5,
			"componentType":5126,
			"count":138,
			"type":"VEC3"
		},
		{
			"bufferView":6,
			"componentType":5126,
			"count":138,
			"type":"VEC2"
		},
		{
			"bufferView":7,
			"componentType":5123,
			"count":222,
			"type":"SCALAR"
		},
		{
			"bufferView":8,
			"componentType":5126,
			"count":24,
			"max":[
				1.8290921449661255,
				3.7913107872009277,
				0.47891974449157715
			],
			"min":[
				-1.8094537258148193,
				-0.037358999252319336,
				-0.47705310583114624
			],
			"type":"VEC3"
		},
		{
			"bufferView":9,
			"componentType":5126,
			"count":24,
			"type":"VEC3"
		},
		{
			"bufferView":10,
			"componentType":5126,
			"count":24,
			"type":"VEC2"
		},
		{
			"bufferView":11,
			"componentType":5123,
			"count":36,
			"type":"SCALAR"
		}
	],
	"bufferViews":[
		{
			"buffer":0,
			"byteLength":18192,
			"byteOffset":0,
			"target":34962
		},
		{
			"buffer":0,
			"byteLength":18192,
			"byteOffset":18192,
			"target":34962
		},
		{
			"buffer":0,
			"byteLength":12128,
			"byteOffset":36384,
			"target":34962
		},
		{
			"buffer":0,
			"byteLength":6696,
			"byteOffset":48512,
			"target":34963
		},
		{
			"buffer":0,
			"byteLength":1656,
			"byteOffset":55208,
			"target":34962
		},
		{
			"buffer":0,
			"byteLength":1656,
			"byteOffset":56864,
			"target":34962
		},
		{
			"buffer":0,
			"byteLength":1104,
			"byteOffset":58520,
			"target":34962
		},
		{
			"buffer":0,
			"byteLength":444,
			"byteOffset":59624,
			"target":34963
		},
		{
			"buffer":0,
			"byteLength":288,
			"byteOffset":60068,
			"target":34962
		},
		{
			"buffer":0,
			"byteLength":288,
			"byteOffset":60356,
			"target":34962
		},
		{
			"buffer":0,
			"byteLength":192,
			"byteOffset":60644,
			"target":34962
		},
		{
			"buffer":0,
			"byteLength":72,
			"byteOffset":60836,
			"target":34963
		}
	],
	"samplers":[
		{
			"magFilter":9729,
			"minFilter":9987
		}
	],
	"buffers":[
		{
			"byteLength":60908,
			"uri":"obj_shelf.bin"
		}
	]
}
