{
	"asset":{
		"generator":"Khronos glTF Blender I/O v4.1.63",
		"version":"2.0"
	},
	"extensionsUsed":[
		"KHR_materials_specular",
		"KHR_materials_ior"
	],
	"scene":0,
	"scenes":[
		{
			"name":"Scene",
			"nodes":[
				0,
				1
			]
		}
	],
	"nodes":[
		{
			"mesh":0,
			"name":"obj_floor01"
		},
		{
			"mesh":1,
			"name":"obj_floor01_collider"
		}
	],
	"materials":[
		{
			"doubleSided":true,
			"emissiveFactor":[
				1,
				1,
				1
			],
			"emissiveTexture":{
				"index":0
			},
			"extensions":{
				"KHR_materials_specular":{
					"specularFactor":0
				},
				"KHR_materials_ior":{
					"ior":1.4500000476837158
				}
			},
			"name":"obj_floor01",
			"pbrMetallicRoughness":{
				"baseColorTexture":{
					"index":1
				},
				"metallicFactor":0
			}
		},
		{
			"doubleSided":true,
			"emissiveFactor":[
				1,
				1,
				1
			],
			"emissiveTexture":{
				"index":2
			},
			"extensions":{
				"KHR_materials_specular":{
					"specularFactor":0
				},
				"KHR_materials_ior":{
					"ior":1.4500000476837158
				}
			},
			"name":"obj_floor02",
			"pbrMetallicRoughness":{
				"baseColorTexture":{
					"index":3
				},
				"metallicFactor":0
			}
		}
	],
	"meshes":[
		{
			"name":"Mesh.001",
			"primitives":[
				{
					"attributes":{
						"POSITION":0,
						"NORMAL":1,
						"TEXCOORD_0":2
					},
					"indices":3,
					"material":0
				},
				{
					"attributes":{
						"POSITION":4,
						"NORMAL":5,
						"TEXCOORD_0":6
					},
					"indices":7,
					"material":1
				}
			]
		},
		{
			"name":"Mesh.110",
			"primitives":[
				{
					"attributes":{
						"POSITION":8,
						"NORMAL":9,
						"TEXCOORD_0":10
					},
					"indices":11
				}
			]
		}
	],
	"textures":[
		{
			"sampler":0,
			"source":0
		},
		{
			"sampler":0,
			"source":1
		},
		{
			"sampler":0,
			"source":2
		},
		{
			"sampler":0,
			"source":3
		}
	],
	"images":[
		{
			"mimeType":"image/png",
			"name":"obj_floor01_emission",
			"uri":"textures/obj_floor01_emission.png"
		},
		{
			"mimeType":"image/png",
			"name":"obj_floor01",
			"uri":"textures/obj_floor01.png"
		},
		{
			"mimeType":"image/png",
			"name":"obj_floor02_emission",
			"uri":"textures/obj_floor02_emission.png"
		},
		{
			"mimeType":"image/png",
			"name":"obj_floor02",
			"uri":"textures/obj_floor02.png"
		}
	],
	"accessors":[
		{
			"bufferView":0,
			"componentType":5126,
			"count":1006,
			"max":[
				0.29742786288261414,
				0.15002132952213287,
				10.832734107971191
			],
			"min":[
				-11.023364067077637,
				-8.130812148010591e-07,
				-11.585830688476562
			],
			"type":"VEC3"
		},
		{
			"bufferView":1,
			"componentType":5126,
			"count":1006,
			"type":"VEC3"
		},
		{
			"bufferView":2,
			"componentType":5126,
			"count":1006,
			"type":"VEC2"
		},
		{
			"bufferView":3,
			"componentType":5123,
			"count":2892,
			"type":"SCALAR"
		},
		{
			"bufferView":4,
			"componentType":5126,
			"count":665,
			"max":[
				11.641817092895508,
				0.15000081062316895,
				10.869308471679688
			],
			"min":[
				2.270555257797241,
				-5.115265366839594e-07,
				-6.73513650894165
			],
			"type":"VEC3"
		},
		{
			"bufferView":5,
			"componentType":5126,
			"count":665,
			"type":"VEC3"
		},
		{
			"bufferView":6,
			"componentType":5126,
			"count":665,
			"type":"VEC2"
		},
		{
			"bufferView":7,
			"componentType":5123,
			"count":1935,
			"type":"SCALAR"
		},
		{
			"bufferView":8,
			"componentType":5126,
			"count":1671,
			"max":[
				11.641817092895508,
				0.15002132952213287,
				10.869308471679688
			],
			"min":[
				-11.023364067077637,
				-8.130812148010591e-07,
				-11.585830688476562
			],
			"type":"VEC3"
		},
		{
			"bufferView":9,
			"componentType":5126,
			"count":1671,
			"type":"VEC3"
		},
		{
			"bufferView":10,
			"componentType":5126,
			"count":1671,
			"type":"VEC2"
		},
		{
			"bufferView":11,
			"componentType":5123,
			"count":4827,
			"type":"SCALAR"
		}
	],
	"bufferViews":[
		{
			"buffer":0,
			"byteLength":12072,
			"byteOffset":0,
			"target":34962
		},
		{
			"buffer":0,
			"byteLength":12072,
			"byteOffset":12072,
			"target":34962
		},
		{
			"buffer":0,
			"byteLength":8048,
			"byteOffset":24144,
			"target":34962
		},
		{
			"buffer":0,
			"byteLength":5784,
			"byteOffset":32192,
			"target":34963
		},
		{
			"buffer":0,
			"byteLength":7980,
			"byteOffset":37976,
			"target":34962
		},
		{
			"buffer":0,
			"byteLength":7980,
			"byteOffset":45956,
			"target":34962
		},
		{
			"buffer":0,
			"byteLength":5320,
			"byteOffset":53936,
			"target":34962
		},
		{
			"buffer":0,
			"byteLength":3870,
			"byteOffset":59256,
			"target":34963
		},
		{
			"buffer":0,
			"byteLength":20052,
			"byteOffset":63128,
			"target":34962
		},
		{
			"buffer":0,
			"byteLength":20052,
			"byteOffset":83180,
			"target":34962
		},
		{
			"buffer":0,
			"byteLength":13368,
			"byteOffset":103232,
			"target":34962
		},
		{
			"buffer":0,
			"byteLength":9654,
			"byteOffset":116600,
			"target":34963
		}
	],
	"samplers":[
		{
			"magFilter":9729,
			"minFilter":9987
		}
	],
	"buffers":[
		{
			"byteLength":126256,
			"uri":"obj_floor01.bin"
		}
	]
}
