{
	"asset":{
		"generator":"Khronos glTF Blender I/O v4.1.63",
		"version":"2.0"
	},
	"extensionsUsed":[
		"KHR_materials_specular",
		"KHR_materials_ior"
	],
	"scene":0,
	"scenes":[
		{
			"name":"Scene",
			"nodes":[
				15
			]
		}
	],
	"nodes":[
		{
			"name":"LegTop2L",
			"rotation":[
				0.5044729113578796,
				-0.043165355920791626,
				0.5721946954727173,
				0.6451643705368042
			],
			"scale":[
				0.9999998807907104,
				0.9999998211860657,
				0.9999999403953552
			],
			"translation":[
				-1.4901161193847656e-08,
				0.4511427581310272,
				2.2351741790771484e-08
			]
		},
		{
			"children":[
				0
			],
			"name":"LegTop1L",
			"rotation":[
				0.36105719208717346,
				-0.04543136805295944,
				0.4784809350967407,
				0.7991431355476379
			],
			"scale":[
				0.9999999403953552,
				0.9999999403953552,
				0.9999999403953552
			],
			"translation":[
				-0.17871250212192535,
				0.1748342514038086,
				0.09728629887104034
			]
		},
		{
			"name":"LegMid2L",
			"rotation":[
				0.7639737129211426,
				-0.009690294973552227,
				0.023730739951133728,
				0.6447380781173706
			],
			"scale":[
				1,
				0.9999998211860657,
				0.9999998211860657
			],
			"translation":[
				-9.313225746154785e-10,
				0.4180908799171448,
				-1.257285475730896e-08
			]
		},
		{
			"children":[
				2
			],
			"name":"LegMid1L",
			"rotation":[
				0.6109937429428101,
				0.031845711171627045,
				-0.014620156027376652,
				0.7908595204353333
			],
			"scale":[
				0.9999999403953552,
				1,
				1
			],
			"translation":[
				0.005098264664411545,
				0.18433675169944763,
				0.2570189833641052
			]
		},
		{
			"name":"LegBack2L",
			"rotation":[
				0.4269067943096161,
				0.016621870920062065,
				-0.6279899477958679,
				0.6504637598991394
			],
			"scale":[
				0.9999999403953552,
				0.9999999403953552,
				1
			],
			"translation":[
				7.450580596923828e-09,
				0.438157320022583,
				-7.450580596923828e-09
			]
		},
		{
			"children":[
				4
			],
			"name":"LegBack1L",
			"rotation":[
				0.2843354642391205,
				0.027829311788082123,
				-0.5359693169593811,
				0.7944279909133911
			],
			"scale":[
				1.0000001192092896,
				1,
				1
			],
			"translation":[
				0.21291996538639069,
				0.1851833462715149,
				0.13070334494113922
			]
		},
		{
			"name":"LegTop2R",
			"rotation":[
				0.6997318267822266,
				-0.4559940993785858,
				0.30376824736595154,
				0.45844265818595886
			],
			"scale":[
				0.9999999403953552,
				0.9999999403953552,
				0.9999999403953552
			],
			"translation":[
				-3.3527612686157227e-08,
				0.4511427879333496,
				3.3527612686157227e-08
			]
		},
		{
			"children":[
				6
			],
			"name":"LegTop1R",
			"rotation":[
				-0.07728497684001923,
				-0.3556027412414551,
				0.594418466091156,
				0.7171056270599365
			],
			"scale":[
				0.9999999403953552,
				0.9999998807907104,
				0.9999999403953552
			],
			"translation":[
				-0.17871250212192535,
				0.1748342514038086,
				-0.09728629887104034
			]
		},
		{
			"name":"LegMid2R",
			"rotation":[
				-0.7501170635223389,
				-0.18492914736270905,
				-0.14677688479423523,
				0.6177234649658203
			],
			"scale":[
				0.9999999403953552,
				0.9999999403953552,
				0.9999999403953552
			],
			"translation":[
				1.30385160446167e-08,
				0.41809090971946716,
				-3.166496753692627e-08
			]
		},
		{
			"children":[
				8
			],
			"name":"LegMid1R",
			"rotation":[
				-0.585819661617279,
				0.1764734983444214,
				-0.17419099807739258,
				0.7715762853622437
			],
			"translation":[
				0.005098264664411545,
				0.18433675169944763,
				-0.2570189833641052
			]
		},
		{
			"name":"LegBack2R",
			"rotation":[
				0.5852153301239014,
				0.3994939923286438,
				-0.4838840663433075,
				0.5135988593101501
			],
			"scale":[
				0.9999999403953552,
				1,
				1
			],
			"translation":[
				-2.2351741790771484e-08,
				0.4381573796272278,
				2.9802322387695312e-08
			]
		},
		{
			"children":[
				10
			],
			"name":"LegBack1R",
			"rotation":[
				-0.05610138177871704,
				0.28013163805007935,
				-0.6041211485862732,
				0.7439197301864624
			],
			"translation":[
				0.21291996538639069,
				0.1851833462715149,
				-0.13070334494113922
			]
		},
		{
			"mesh":1,
			"name":"npc_spider_collider",
			"rotation":[
				6.2770435347463995e-18,
				2.888546291046623e-09,
				-8.608538779755304e-17,
				1
			],
			"scale":[
				0.48362869024276733,
				0.48362869024276733,
				0.48362869024276733
			],
			"translation":[
				9.313225746154785e-10,
				1.1969591984239969e-15,
				-6.984919309616089e-09
			]
		},
		{
			"children":[
				1,
				3,
				5,
				7,
				9,
				11,
				12
			],
			"name":"Root"
		},
		{
			"mesh":0,
			"name":"npc_spider_mesh",
			"skin":0
		},
		{
			"children":[
				14,
				13
			],
			"name":"npc_spider"
		}
	],
	"animations":[
		{
			"channels":[
				{
					"sampler":0,
					"target":{
						"node":13,
						"path":"translation"
					}
				},
				{
					"sampler":1,
					"target":{
						"node":13,
						"path":"rotation"
					}
				},
				{
					"sampler":2,
					"target":{
						"node":13,
						"path":"scale"
					}
				},
				{
					"sampler":3,
					"target":{
						"node":1,
						"path":"translation"
					}
				},
				{
					"sampler":4,
					"target":{
						"node":1,
						"path":"rotation"
					}
				},
				{
					"sampler":5,
					"target":{
						"node":1,
						"path":"scale"
					}
				},
				{
					"sampler":6,
					"target":{
						"node":0,
						"path":"translation"
					}
				},
				{
					"sampler":7,
					"target":{
						"node":0,
						"path":"rotation"
					}
				},
				{
					"sampler":8,
					"target":{
						"node":0,
						"path":"scale"
					}
				},
				{
					"sampler":9,
					"target":{
						"node":3,
						"path":"translation"
					}
				},
				{
					"sampler":10,
					"target":{
						"node":3,
						"path":"rotation"
					}
				},
				{
					"sampler":11,
					"target":{
						"node":3,
						"path":"scale"
					}
				},
				{
					"sampler":12,
					"target":{
						"node":2,
						"path":"translation"
					}
				},
				{
					"sampler":13,
					"target":{
						"node":2,
						"path":"rotation"
					}
				},
				{
					"sampler":14,
					"target":{
						"node":2,
						"path":"scale"
					}
				},
				{
					"sampler":15,
					"target":{
						"node":5,
						"path":"translation"
					}
				},
				{
					"sampler":16,
					"target":{
						"node":5,
						"path":"rotation"
					}
				},
				{
					"sampler":17,
					"target":{
						"node":5,
						"path":"scale"
					}
				},
				{
					"sampler":18,
					"target":{
						"node":4,
						"path":"translation"
					}
				},
				{
					"sampler":19,
					"target":{
						"node":4,
						"path":"rotation"
					}
				},
				{
					"sampler":20,
					"target":{
						"node":4,
						"path":"scale"
					}
				},
				{
					"sampler":21,
					"target":{
						"node":7,
						"path":"translation"
					}
				},
				{
					"sampler":22,
					"target":{
						"node":7,
						"path":"rotation"
					}
				},
				{
					"sampler":23,
					"target":{
						"node":7,
						"path":"scale"
					}
				},
				{
					"sampler":24,
					"target":{
						"node":6,
						"path":"translation"
					}
				},
				{
					"sampler":25,
					"target":{
						"node":6,
						"path":"rotation"
					}
				},
				{
					"sampler":26,
					"target":{
						"node":6,
						"path":"scale"
					}
				},
				{
					"sampler":27,
					"target":{
						"node":9,
						"path":"translation"
					}
				},
				{
					"sampler":28,
					"target":{
						"node":9,
						"path":"rotation"
					}
				},
				{
					"sampler":29,
					"target":{
						"node":9,
						"path":"scale"
					}
				},
				{
					"sampler":30,
					"target":{
						"node":8,
						"path":"translation"
					}
				},
				{
					"sampler":31,
					"target":{
						"node":8,
						"path":"rotation"
					}
				},
				{
					"sampler":32,
					"target":{
						"node":8,
						"path":"scale"
					}
				},
				{
					"sampler":33,
					"target":{
						"node":11,
						"path":"translation"
					}
				},
				{
					"sampler":34,
					"target":{
						"node":11,
						"path":"rotation"
					}
				},
				{
					"sampler":35,
					"target":{
						"node":11,
						"path":"scale"
					}
				},
				{
					"sampler":36,
					"target":{
						"node":10,
						"path":"translation"
					}
				},
				{
					"sampler":37,
					"target":{
						"node":10,
						"path":"rotation"
					}
				},
				{
					"sampler":38,
					"target":{
						"node":10,
						"path":"scale"
					}
				}
			],
			"name":"walk",
			"samplers":[
				{
					"input":17,
					"interpolation":"LINEAR",
					"output":18
				},
				{
					"input":17,
					"interpolation":"LINEAR",
					"output":19
				},
				{
					"input":20,
					"interpolation":"STEP",
					"output":21
				},
				{
					"input":20,
					"interpolation":"STEP",
					"output":22
				},
				{
					"input":17,
					"interpolation":"LINEAR",
					"output":23
				},
				{
					"input":20,
					"interpolation":"STEP",
					"output":24
				},
				{
					"input":20,
					"interpolation":"STEP",
					"output":25
				},
				{
					"input":17,
					"interpolation":"LINEAR",
					"output":26
				},
				{
					"input":20,
					"interpolation":"STEP",
					"output":27
				},
				{
					"input":20,
					"interpolation":"STEP",
					"output":28
				},
				{
					"input":17,
					"interpolation":"LINEAR",
					"output":29
				},
				{
					"input":20,
					"interpolation":"STEP",
					"output":30
				},
				{
					"input":20,
					"interpolation":"STEP",
					"output":31
				},
				{
					"input":17,
					"interpolation":"LINEAR",
					"output":32
				},
				{
					"input":20,
					"interpolation":"STEP",
					"output":33
				},
				{
					"input":20,
					"interpolation":"STEP",
					"output":34
				},
				{
					"input":17,
					"interpolation":"LINEAR",
					"output":35
				},
				{
					"input":20,
					"interpolation":"STEP",
					"output":36
				},
				{
					"input":20,
					"interpolation":"STEP",
					"output":37
				},
				{
					"input":17,
					"interpolation":"LINEAR",
					"output":38
				},
				{
					"input":20,
					"interpolation":"STEP",
					"output":39
				},
				{
					"input":20,
					"interpolation":"STEP",
					"output":40
				},
				{
					"input":17,
					"interpolation":"LINEAR",
					"output":41
				},
				{
					"input":20,
					"interpolation":"STEP",
					"output":42
				},
				{
					"input":20,
					"interpolation":"STEP",
					"output":43
				},
				{
					"input":17,
					"interpolation":"LINEAR",
					"output":44
				},
				{
					"input":20,
					"interpolation":"STEP",
					"output":45
				},
				{
					"input":20,
					"interpolation":"STEP",
					"output":46
				},
				{
					"input":17,
					"interpolation":"LINEAR",
					"output":47
				},
				{
					"input":20,
					"interpolation":"STEP",
					"output":48
				},
				{
					"input":20,
					"interpolation":"STEP",
					"output":49
				},
				{
					"input":17,
					"interpolation":"LINEAR",
					"output":50
				},
				{
					"input":20,
					"interpolation":"STEP",
					"output":51
				},
				{
					"input":20,
					"interpolation":"STEP",
					"output":52
				},
				{
					"input":17,
					"interpolation":"LINEAR",
					"output":53
				},
				{
					"input":20,
					"interpolation":"STEP",
					"output":54
				},
				{
					"input":20,
					"interpolation":"STEP",
					"output":55
				},
				{
					"input":17,
					"interpolation":"LINEAR",
					"output":56
				},
				{
					"input":20,
					"interpolation":"STEP",
					"output":57
				}
			]
		}
	],
	"materials":[
		{
			"emissiveFactor":[
				0.10000000149011612,
				0.10000000149011612,
				0.10000000149011612
			],
			"emissiveTexture":{
				"index":0
			},
			"extensions":{
				"KHR_materials_specular":{
					"specularFactor":0.0020000000949949026
				},
				"KHR_materials_ior":{
					"ior":1.4500000476837158
				}
			},
			"name":"npc_spider",
			"pbrMetallicRoughness":{
				"baseColorTexture":{
					"index":1
				},
				"metallicFactor":0
			}
		},
		{
			"emissiveFactor":[
				0.26229405403137207,
				0.5646868348121643,
				0.921515166759491
			],
			"extensions":{
				"KHR_materials_specular":{
					"specularFactor":0
				},
				"KHR_materials_ior":{
					"ior":1.4500000476837158
				}
			},
			"name":"obj_global_emission01",
			"pbrMetallicRoughness":{
				"baseColorFactor":[
					0.2617267668247223,
					0.566400408744812,
					0.9218639135360718,
					1
				],
				"metallicFactor":0
			}
		}
	],
	"meshes":[
		{
			"name":"Sphere.008",
			"primitives":[
				{
					"attributes":{
						"POSITION":0,
						"NORMAL":1,
						"TEXCOORD_0":2,
						"JOINTS_0":3,
						"WEIGHTS_0":4
					},
					"indices":5,
					"material":0
				},
				{
					"attributes":{
						"POSITION":6,
						"NORMAL":7,
						"TEXCOORD_0":8,
						"JOINTS_0":9,
						"WEIGHTS_0":10
					},
					"indices":11,
					"material":1
				}
			]
		},
		{
			"name":"Cube",
			"primitives":[
				{
					"attributes":{
						"POSITION":13,
						"NORMAL":14,
						"TEXCOORD_0":15
					},
					"indices":16
				}
			]
		}
	],
	"textures":[
		{
			"sampler":0,
			"source":0
		},
		{
			"sampler":0,
			"source":0
		}
	],
	"images":[
		{
			"mimeType":"image/png",
			"name":"npc_spider",
			"uri":"textures/npc_spider.png"
		}
	],
	"skins":[
		{
			"inverseBindMatrices":12,
			"joints":[
				13,
				1,
				0,
				3,
				2,
				5,
				4,
				7,
				6,
				9,
				8,
				11,
				10
			],
			"name":"npc_spider"
		}
	],
	"accessors":[
		{
			"bufferView":0,
			"componentType":5126,
			"count":1698,
			"max":[
				0.6875640749931335,
				0.825271487236023,
				0.7221519947052002
			],
			"min":[
				-0.6419128775596619,
				0.0036957859992980957,
				-0.7218267917633057
			],
			"type":"VEC3"
		},
		{
			"bufferView":1,
			"componentType":5126,
			"count":1698,
			"type":"VEC3"
		},
		{
			"bufferView":2,
			"componentType":5126,
			"count":1698,
			"type":"VEC2"
		},
		{
			"bufferView":3,
			"componentType":5121,
			"count":1698,
			"type":"VEC4"
		},
		{
			"bufferView":4,
			"componentType":5126,
			"count":1698,
			"type":"VEC4"
		},
		{
			"bufferView":5,
			"componentType":5123,
			"count":5436,
			"type":"SCALAR"
		},
		{
			"bufferView":6,
			"componentType":5126,
			"count":43,
			"max":[
				0.4309236407279968,
				0.7292819023132324,
				0.40562087297439575
			],
			"min":[
				-0.38263243436813354,
				0.38511568307876587,
				-0.3966693580150604
			],
			"type":"VEC3"
		},
		{
			"bufferView":7,
			"componentType":5126,
			"count":43,
			"type":"VEC3"
		},
		{
			"bufferView":8,
			"componentType":5126,
			"count":43,
			"type":"VEC2"
		},
		{
			"bufferView":9,
			"componentType":5121,
			"count":43,
			"type":"VEC4"
		},
		{
			"bufferView":10,
			"componentType":5126,
			"count":43,
			"type":"VEC4"
		},
		{
			"bufferView":11,
			"componentType":5123,
			"count":120,
			"type":"SCALAR"
		},
		{
			"bufferView":12,
			"componentType":5126,
			"count":13,
			"type":"MAT4"
		},
		{
			"bufferView":13,
			"componentType":5126,
			"count":24,
			"max":[
				1,
				2,
				1
			],
			"min":[
				-1,
				-5.960464477539063e-08,
				-1
			],
			"type":"VEC3"
		},
		{
			"bufferView":14,
			"componentType":5126,
			"count":24,
			"type":"VEC3"
		},
		{
			"bufferView":15,
			"componentType":5126,
			"count":24,
			"type":"VEC2"
		},
		{
			"bufferView":16,
			"componentType":5123,
			"count":36,
			"type":"SCALAR"
		},
		{
			"bufferView":17,
			"componentType":5126,
			"count":321,
			"max":[
				10.666666666666666
			],
			"min":[
				0
			],
			"type":"SCALAR"
		},
		{
			"bufferView":18,
			"componentType":5126,
			"count":321,
			"type":"VEC3"
		},
		{
			"bufferView":19,
			"componentType":5126,
			"count":321,
			"type":"VEC4"
		},
		{
			"bufferView":20,
			"componentType":5126,
			"count":2,
			"max":[
				10.666666666666666
			],
			"min":[
				0
			],
			"type":"SCALAR"
		},
		{
			"bufferView":21,
			"componentType":5126,
			"count":2,
			"type":"VEC3"
		},
		{
			"bufferView":22,
			"componentType":5126,
			"count":2,
			"type":"VEC3"
		},
		{
			"bufferView":23,
			"componentType":5126,
			"count":321,
			"type":"VEC4"
		},
		{
			"bufferView":24,
			"componentType":5126,
			"count":2,
			"type":"VEC3"
		},
		{
			"bufferView":25,
			"componentType":5126,
			"count":2,
			"type":"VEC3"
		},
		{
			"bufferView":26,
			"componentType":5126,
			"count":321,
			"type":"VEC4"
		},
		{
			"bufferView":27,
			"componentType":5126,
			"count":2,
			"type":"VEC3"
		},
		{
			"bufferView":28,
			"componentType":5126,
			"count":2,
			"type":"VEC3"
		},
		{
			"bufferView":29,
			"componentType":5126,
			"count":321,
			"type":"VEC4"
		},
		{
			"bufferView":30,
			"componentType":5126,
			"count":2,
			"type":"VEC3"
		},
		{
			"bufferView":31,
			"componentType":5126,
			"count":2,
			"type":"VEC3"
		},
		{
			"bufferView":32,
			"componentType":5126,
			"count":321,
			"type":"VEC4"
		},
		{
			"bufferView":33,
			"componentType":5126,
			"count":2,
			"type":"VEC3"
		},
		{
			"bufferView":34,
			"componentType":5126,
			"count":2,
			"type":"VEC3"
		},
		{
			"bufferView":35,
			"componentType":5126,
			"count":321,
			"type":"VEC4"
		},
		{
			"bufferView":36,
			"componentType":5126,
			"count":2,
			"type":"VEC3"
		},
		{
			"bufferView":37,
			"componentType":5126,
			"count":2,
			"type":"VEC3"
		},
		{
			"bufferView":38,
			"componentType":5126,
			"count":321,
			"type":"VEC4"
		},
		{
			"bufferView":39,
			"componentType":5126,
			"count":2,
			"type":"VEC3"
		},
		{
			"bufferView":40,
			"componentType":5126,
			"count":2,
			"type":"VEC3"
		},
		{
			"bufferView":41,
			"componentType":5126,
			"count":321,
			"type":"VEC4"
		},
		{
			"bufferView":42,
			"componentType":5126,
			"count":2,
			"type":"VEC3"
		},
		{
			"bufferView":43,
			"componentType":5126,
			"count":2,
			"type":"VEC3"
		},
		{
			"bufferView":44,
			"componentType":5126,
			"count":321,
			"type":"VEC4"
		},
		{
			"bufferView":45,
			"componentType":5126,
			"count":2,
			"type":"VEC3"
		},
		{
			"bufferView":46,
			"componentType":5126,
			"count":2,
			"type":"VEC3"
		},
		{
			"bufferView":47,
			"componentType":5126,
			"count":321,
			"type":"VEC4"
		},
		{
			"bufferView":48,
			"componentType":5126,
			"count":2,
			"type":"VEC3"
		},
		{
			"bufferView":49,
			"componentType":5126,
			"count":2,
			"type":"VEC3"
		},
		{
			"bufferView":50,
			"componentType":5126,
			"count":321,
			"type":"VEC4"
		},
		{
			"bufferView":51,
			"componentType":5126,
			"count":2,
			"type":"VEC3"
		},
		{
			"bufferView":52,
			"componentType":5126,
			"count":2,
			"type":"VEC3"
		},
		{
			"bufferView":53,
			"componentType":5126,
			"count":321,
			"type":"VEC4"
		},
		{
			"bufferView":54,
			"componentType":5126,
			"count":2,
			"type":"VEC3"
		},
		{
			"bufferView":55,
			"componentType":5126,
			"count":2,
			"type":"VEC3"
		},
		{
			"bufferView":56,
			"componentType":5126,
			"count":321,
			"type":"VEC4"
		},
		{
			"bufferView":57,
			"componentType":5126,
			"count":2,
			"type":"VEC3"
		}
	],
	"bufferViews":[
		{
			"buffer":0,
			"byteLength":20376,
			"byteOffset":0,
			"target":34962
		},
		{
			"buffer":0,
			"byteLength":20376,
			"byteOffset":20376,
			"target":34962
		},
		{
			"buffer":0,
			"byteLength":13584,
			"byteOffset":40752,
			"target":34962
		},
		{
			"buffer":0,
			"byteLength":6792,
			"byteOffset":54336,
			"target":34962
		},
		{
			"buffer":0,
			"byteLength":27168,
			"byteOffset":61128,
			"target":34962
		},
		{
			"buffer":0,
			"byteLength":10872,
			"byteOffset":88296,
			"target":34963
		},
		{
			"buffer":0,
			"byteLength":516,
			"byteOffset":99168,
			"target":34962
		},
		{
			"buffer":0,
			"byteLength":516,
			"byteOffset":99684,
			"target":34962
		},
		{
			"buffer":0,
			"byteLength":344,
			"byteOffset":100200,
			"target":34962
		},
		{
			"buffer":0,
			"byteLength":172,
			"byteOffset":100544,
			"target":34962
		},
		{
			"buffer":0,
			"byteLength":688,
			"byteOffset":100716,
			"target":34962
		},
		{
			"buffer":0,
			"byteLength":240,
			"byteOffset":101404,
			"target":34963
		},
		{
			"buffer":0,
			"byteLength":832,
			"byteOffset":101644
		},
		{
			"buffer":0,
			"byteLength":288,
			"byteOffset":102476,
			"target":34962
		},
		{
			"buffer":0,
			"byteLength":288,
			"byteOffset":102764,
			"target":34962
		},
		{
			"buffer":0,
			"byteLength":192,
			"byteOffset":103052,
			"target":34962
		},
		{
			"buffer":0,
			"byteLength":72,
			"byteOffset":103244,
			"target":34963
		},
		{
			"buffer":0,
			"byteLength":1284,
			"byteOffset":103316
		},
		{
			"buffer":0,
			"byteLength":3852,
			"byteOffset":104600
		},
		{
			"buffer":0,
			"byteLength":5136,
			"byteOffset":108452
		},
		{
			"buffer":0,
			"byteLength":8,
			"byteOffset":113588
		},
		{
			"buffer":0,
			"byteLength":24,
			"byteOffset":113596
		},
		{
			"buffer":0,
			"byteLength":24,
			"byteOffset":113620
		},
		{
			"buffer":0,
			"byteLength":5136,
			"byteOffset":113644
		},
		{
			"buffer":0,
			"byteLength":24,
			"byteOffset":118780
		},
		{
			"buffer":0,
			"byteLength":24,
			"byteOffset":118804
		},
		{
			"buffer":0,
			"byteLength":5136,
			"byteOffset":118828
		},
		{
			"buffer":0,
			"byteLength":24,
			"byteOffset":123964
		},
		{
			"buffer":0,
			"byteLength":24,
			"byteOffset":123988
		},
		{
			"buffer":0,
			"byteLength":5136,
			"byteOffset":124012
		},
		{
			"buffer":0,
			"byteLength":24,
			"byteOffset":129148
		},
		{
			"buffer":0,
			"byteLength":24,
			"byteOffset":129172
		},
		{
			"buffer":0,
			"byteLength":5136,
			"byteOffset":129196
		},
		{
			"buffer":0,
			"byteLength":24,
			"byteOffset":134332
		},
		{
			"buffer":0,
			"byteLength":24,
			"byteOffset":134356
		},
		{
			"buffer":0,
			"byteLength":5136,
			"byteOffset":134380
		},
		{
			"buffer":0,
			"byteLength":24,
			"byteOffset":139516
		},
		{
			"buffer":0,
			"byteLength":24,
			"byteOffset":139540
		},
		{
			"buffer":0,
			"byteLength":5136,
			"byteOffset":139564
		},
		{
			"buffer":0,
			"byteLength":24,
			"byteOffset":144700
		},
		{
			"buffer":0,
			"byteLength":24,
			"byteOffset":144724
		},
		{
			"buffer":0,
			"byteLength":5136,
			"byteOffset":144748
		},
		{
			"buffer":0,
			"byteLength":24,
			"byteOffset":149884
		},
		{
			"buffer":0,
			"byteLength":24,
			"byteOffset":149908
		},
		{
			"buffer":0,
			"byteLength":5136,
			"byteOffset":149932
		},
		{
			"buffer":0,
			"byteLength":24,
			"byteOffset":155068
		},
		{
			"buffer":0,
			"byteLength":24,
			"byteOffset":155092
		},
		{
			"buffer":0,
			"byteLength":5136,
			"byteOffset":155116
		},
		{
			"buffer":0,
			"byteLength":24,
			"byteOffset":160252
		},
		{
			"buffer":0,
			"byteLength":24,
			"byteOffset":160276
		},
		{
			"buffer":0,
			"byteLength":5136,
			"byteOffset":160300
		},
		{
			"buffer":0,
			"byteLength":24,
			"byteOffset":165436
		},
		{
			"buffer":0,
			"byteLength":24,
			"byteOffset":165460
		},
		{
			"buffer":0,
			"byteLength":5136,
			"byteOffset":165484
		},
		{
			"buffer":0,
			"byteLength":24,
			"byteOffset":170620
		},
		{
			"buffer":0,
			"byteLength":24,
			"byteOffset":170644
		},
		{
			"buffer":0,
			"byteLength":5136,
			"byteOffset":170668
		},
		{
			"buffer":0,
			"byteLength":24,
			"byteOffset":175804
		}
	],
	"samplers":[
		{
			"magFilter":9729,
			"minFilter":9987
		}
	],
	"buffers":[
		{
			"byteLength":175828,
			"uri":"npc_spider.bin"
		}
	]
}
