{
	"asset":{
		"generator":"Khronos glTF Blender I/O v4.1.63",
		"version":"2.0"
	},
	"extensionsUsed":[
		"KHR_materials_specular",
		"KHR_materials_ior"
	],
	"scene":0,
	"scenes":[
		{
			"name":"Scene",
			"nodes":[
				3
			]
		}
	],
	"nodes":[
		{
			"mesh":1,
			"name":"npc_fish_collider",
			"rotation":[
				-0.7019232511520386,
				-8.534981787988727e-08,
				-8.274488294546245e-08,
				0.7122525572776794
			],
			"scale":[
				1,
				1,
				1.0000001192092896
			],
			"translation":[
				-7.719791028648615e-08,
				0.21058088541030884,
				0.1728845238685608
			]
		},
		{
			"children":[
				0
			],
			"name":"Bone",
			"rotation":[
				0.7019232511520386,
				8.490709291208987e-08,
				8.367574366729968e-08,
				0.7122525572776794
			],
			"scale":[
				1,
				0.9999999403953552,
				1
			],
			"translation":[
				-3.7700933556476476e-17,
				0.16978991031646729,
				-0.213083878159523
			]
		},
		{
			"mesh":0,
			"name":"npc_fish_mesh",
			"skin":0
		},
		{
			"children":[
				2,
				1
			],
			"name":"npc_fish"
		}
	],
	"animations":[
		{
			"channels":[
				{
					"sampler":0,
					"target":{
						"node":1,
						"path":"translation"
					}
				},
				{
					"sampler":1,
					"target":{
						"node":1,
						"path":"rotation"
					}
				},
				{
					"sampler":2,
					"target":{
						"node":1,
						"path":"scale"
					}
				}
			],
			"name":"idle1",
			"samplers":[
				{
					"input":17,
					"interpolation":"LINEAR",
					"output":18
				},
				{
					"input":17,
					"interpolation":"LINEAR",
					"output":19
				},
				{
					"input":20,
					"interpolation":"STEP",
					"output":21
				}
			]
		},
		{
			"channels":[
				{
					"sampler":0,
					"target":{
						"node":1,
						"path":"translation"
					}
				},
				{
					"sampler":1,
					"target":{
						"node":1,
						"path":"rotation"
					}
				},
				{
					"sampler":2,
					"target":{
						"node":1,
						"path":"scale"
					}
				}
			],
			"name":"stand",
			"samplers":[
				{
					"input":22,
					"interpolation":"LINEAR",
					"output":23
				},
				{
					"input":22,
					"interpolation":"LINEAR",
					"output":24
				},
				{
					"input":25,
					"interpolation":"STEP",
					"output":26
				}
			]
		},
		{
			"channels":[
				{
					"sampler":0,
					"target":{
						"node":1,
						"path":"translation"
					}
				},
				{
					"sampler":1,
					"target":{
						"node":1,
						"path":"rotation"
					}
				},
				{
					"sampler":2,
					"target":{
						"node":1,
						"path":"scale"
					}
				}
			],
			"name":"idle2",
			"samplers":[
				{
					"input":27,
					"interpolation":"LINEAR",
					"output":28
				},
				{
					"input":27,
					"interpolation":"LINEAR",
					"output":29
				},
				{
					"input":30,
					"interpolation":"LINEAR",
					"output":31
				}
			]
		}
	],
	"materials":[
		{
			"emissiveFactor":[
				0.10000000149011612,
				0.10000000149011612,
				0.10000000149011612
			],
			"emissiveTexture":{
				"index":0
			},
			"extensions":{
				"KHR_materials_specular":{
					"specularFactor":0.0020000000949949026
				},
				"KHR_materials_ior":{
					"ior":1.4500000476837158
				}
			},
			"name":"npc_fish",
			"pbrMetallicRoughness":{
				"baseColorTexture":{
					"index":1
				},
				"metallicFactor":0
			}
		},
		{
			"emissiveFactor":[
				0.7455297112464905,
				0.4507659673690796,
				0.8147876262664795
			],
			"extensions":{
				"KHR_materials_specular":{
					"specularFactor":0
				},
				"KHR_materials_ior":{
					"ior":1.4500000476837158
				}
			},
			"name":"obj_global_emission03",
			"pbrMetallicRoughness":{
				"baseColorFactor":[
					0.7454167008399963,
					0.450778603553772,
					0.8148468136787415,
					1
				],
				"metallicFactor":0
			}
		}
	],
	"meshes":[
		{
			"name":"p.003_high",
			"primitives":[
				{
					"attributes":{
						"POSITION":0,
						"NORMAL":1,
						"TEXCOORD_0":2,
						"JOINTS_0":3,
						"WEIGHTS_0":4
					},
					"indices":5,
					"material":0
				},
				{
					"attributes":{
						"POSITION":6,
						"NORMAL":7,
						"TEXCOORD_0":8,
						"JOINTS_0":9,
						"WEIGHTS_0":10
					},
					"indices":11,
					"material":1
				}
			]
		},
		{
			"name":"Cube",
			"primitives":[
				{
					"attributes":{
						"POSITION":13,
						"NORMAL":14,
						"TEXCOORD_0":15
					},
					"indices":16
				}
			]
		}
	],
	"textures":[
		{
			"sampler":0,
			"source":0
		},
		{
			"sampler":0,
			"source":0
		}
	],
	"images":[
		{
			"mimeType":"image/png",
			"name":"npc_fish",
			"uri":"textures/npc_fish.png"
		}
	],
	"skins":[
		{
			"inverseBindMatrices":12,
			"joints":[
				1
			],
			"name":"npc_fish"
		}
	],
	"accessors":[
		{
			"bufferView":0,
			"componentType":5126,
			"count":324,
			"max":[
				0.18269135057926178,
				0.43062639236450195,
				0.2634601593017578
			],
			"min":[
				-0.18269123136997223,
				0.0001341354800388217,
				-0.3388306498527527
			],
			"type":"VEC3"
		},
		{
			"bufferView":1,
			"componentType":5126,
			"count":324,
			"type":"VEC3"
		},
		{
			"bufferView":2,
			"componentType":5126,
			"count":324,
			"type":"VEC2"
		},
		{
			"bufferView":3,
			"componentType":5121,
			"count":324,
			"type":"VEC4"
		},
		{
			"bufferView":4,
			"componentType":5126,
			"count":324,
			"type":"VEC4"
		},
		{
			"bufferView":5,
			"componentType":5123,
			"count":1146,
			"type":"SCALAR"
		},
		{
			"bufferView":6,
			"componentType":5126,
			"count":138,
			"max":[
				0.030396705493330956,
				0.43062639236450195,
				0.26269084215164185
			],
			"min":[
				-0.032803356647491455,
				0.0805359035730362,
				-0.3388306498527527
			],
			"type":"VEC3"
		},
		{
			"bufferView":7,
			"componentType":5126,
			"count":138,
			"type":"VEC3"
		},
		{
			"bufferView":8,
			"componentType":5126,
			"count":138,
			"type":"VEC2"
		},
		{
			"bufferView":9,
			"componentType":5121,
			"count":138,
			"type":"VEC4"
		},
		{
			"bufferView":10,
			"componentType":5126,
			"count":138,
			"type":"VEC4"
		},
		{
			"bufferView":11,
			"componentType":5123,
			"count":369,
			"type":"SCALAR"
		},
		{
			"bufferView":12,
			"componentType":5126,
			"count":1,
			"type":"MAT4"
		},
		{
			"bufferView":13,
			"componentType":5126,
			"count":24,
			"max":[
				0.18649251759052277,
				0.4202134609222412,
				0.27422770857810974
			],
			"min":[
				-0.18649251759052277,
				0.014645755290985107,
				-0.3485371768474579
			],
			"type":"VEC3"
		},
		{
			"bufferView":14,
			"componentType":5126,
			"count":24,
			"type":"VEC3"
		},
		{
			"bufferView":15,
			"componentType":5126,
			"count":24,
			"type":"VEC2"
		},
		{
			"bufferView":16,
			"componentType":5123,
			"count":36,
			"type":"SCALAR"
		},
		{
			"bufferView":17,
			"componentType":5126,
			"count":361,
			"max":[
				12
			],
			"min":[
				0
			],
			"type":"SCALAR"
		},
		{
			"bufferView":18,
			"componentType":5126,
			"count":361,
			"type":"VEC3"
		},
		{
			"bufferView":19,
			"componentType":5126,
			"count":361,
			"type":"VEC4"
		},
		{
			"bufferView":20,
			"componentType":5126,
			"count":2,
			"max":[
				12
			],
			"min":[
				0
			],
			"type":"SCALAR"
		},
		{
			"bufferView":21,
			"componentType":5126,
			"count":2,
			"type":"VEC3"
		},
		{
			"bufferView":22,
			"componentType":5126,
			"count":181,
			"max":[
				6
			],
			"min":[
				0
			],
			"type":"SCALAR"
		},
		{
			"bufferView":23,
			"componentType":5126,
			"count":181,
			"type":"VEC3"
		},
		{
			"bufferView":24,
			"componentType":5126,
			"count":181,
			"type":"VEC4"
		},
		{
			"bufferView":25,
			"componentType":5126,
			"count":2,
			"max":[
				6
			],
			"min":[
				0
			],
			"type":"SCALAR"
		},
		{
			"bufferView":26,
			"componentType":5126,
			"count":2,
			"type":"VEC3"
		},
		{
			"bufferView":27,
			"componentType":5126,
			"count":61,
			"max":[
				2
			],
			"min":[
				0
			],
			"type":"SCALAR"
		},
		{
			"bufferView":28,
			"componentType":5126,
			"count":61,
			"type":"VEC3"
		},
		{
			"bufferView":29,
			"componentType":5126,
			"count":61,
			"type":"VEC4"
		},
		{
			"bufferView":30,
			"componentType":5126,
			"count":2,
			"max":[
				2
			],
			"min":[
				0
			],
			"type":"SCALAR"
		},
		{
			"bufferView":31,
			"componentType":5126,
			"count":2,
			"type":"VEC3"
		}
	],
	"bufferViews":[
		{
			"buffer":0,
			"byteLength":3888,
			"byteOffset":0,
			"target":34962
		},
		{
			"buffer":0,
			"byteLength":3888,
			"byteOffset":3888,
			"target":34962
		},
		{
			"buffer":0,
			"byteLength":2592,
			"byteOffset":7776,
			"target":34962
		},
		{
			"buffer":0,
			"byteLength":1296,
			"byteOffset":10368,
			"target":34962
		},
		{
			"buffer":0,
			"byteLength":5184,
			"byteOffset":11664,
			"target":34962
		},
		{
			"buffer":0,
			"byteLength":2292,
			"byteOffset":16848,
			"target":34963
		},
		{
			"buffer":0,
			"byteLength":1656,
			"byteOffset":19140,
			"target":34962
		},
		{
			"buffer":0,
			"byteLength":1656,
			"byteOffset":20796,
			"target":34962
		},
		{
			"buffer":0,
			"byteLength":1104,
			"byteOffset":22452,
			"target":34962
		},
		{
			"buffer":0,
			"byteLength":552,
			"byteOffset":23556,
			"target":34962
		},
		{
			"buffer":0,
			"byteLength":2208,
			"byteOffset":24108,
			"target":34962
		},
		{
			"buffer":0,
			"byteLength":738,
			"byteOffset":26316,
			"target":34963
		},
		{
			"buffer":0,
			"byteLength":64,
			"byteOffset":27056
		},
		{
			"buffer":0,
			"byteLength":288,
			"byteOffset":27120,
			"target":34962
		},
		{
			"buffer":0,
			"byteLength":288,
			"byteOffset":27408,
			"target":34962
		},
		{
			"buffer":0,
			"byteLength":192,
			"byteOffset":27696,
			"target":34962
		},
		{
			"buffer":0,
			"byteLength":72,
			"byteOffset":27888,
			"target":34963
		},
		{
			"buffer":0,
			"byteLength":1444,
			"byteOffset":27960
		},
		{
			"buffer":0,
			"byteLength":4332,
			"byteOffset":29404
		},
		{
			"buffer":0,
			"byteLength":5776,
			"byteOffset":33736
		},
		{
			"buffer":0,
			"byteLength":8,
			"byteOffset":39512
		},
		{
			"buffer":0,
			"byteLength":24,
			"byteOffset":39520
		},
		{
			"buffer":0,
			"byteLength":724,
			"byteOffset":39544
		},
		{
			"buffer":0,
			"byteLength":2172,
			"byteOffset":40268
		},
		{
			"buffer":0,
			"byteLength":2896,
			"byteOffset":42440
		},
		{
			"buffer":0,
			"byteLength":8,
			"byteOffset":45336
		},
		{
			"buffer":0,
			"byteLength":24,
			"byteOffset":45344
		},
		{
			"buffer":0,
			"byteLength":244,
			"byteOffset":45368
		},
		{
			"buffer":0,
			"byteLength":732,
			"byteOffset":45612
		},
		{
			"buffer":0,
			"byteLength":976,
			"byteOffset":46344
		},
		{
			"buffer":0,
			"byteLength":8,
			"byteOffset":47320
		},
		{
			"buffer":0,
			"byteLength":24,
			"byteOffset":47328
		}
	],
	"samplers":[
		{
			"magFilter":9729,
			"minFilter":9987
		}
	],
	"buffers":[
		{
			"byteLength":47352,
			"uri":"npc_fish.bin"
		}
	]
}
