{
	"asset":{
		"generator":"Khronos glTF Blender I/O v4.3.47",
		"version":"2.0"
	},
	"extensionsUsed":[
		"KHR_materials_specular"
	],
	"scene":0,
	"scenes":[
		{
			"name":"Scene",
			"nodes":[
				0,
				1
			]
		}
	],
	"nodes":[
		{
			"mesh":0,
			"name":"obj_curtains"
		},
		{
			"mesh":1,
			"name":"obj_curtains_collider"
		}
	],
	"materials":[
		{
			"doubleSided":true,
			"emissiveFactor":[
				0.10000000149011612,
				0.10000000149011612,
				0.10000000149011612
			],
			"emissiveTexture":{
				"index":0
			},
			"extensions":{
				"KHR_materials_specular":{
					"specularFactor":0
				}
			},
			"name":"obj_curtains",
			"pbrMetallicRoughness":{
				"baseColorTexture":{
					"index":1
				},
				"metallicFactor":0
			}
		}
	],
	"meshes":[
		{
			"name":"obj_curtains",
			"primitives":[
				{
					"attributes":{
						"POSITION":0,
						"NORMAL":1,
						"TEXCOORD_0":2
					},
					"indices":3,
					"material":0
				}
			]
		},
		{
			"name":"obj_curtains_collider",
			"primitives":[
				{
					"attributes":{
						"POSITION":4,
						"NORMAL":5
					},
					"indices":6
				}
			]
		}
	],
	"textures":[
		{
			"sampler":0,
			"source":0
		},
		{
			"sampler":0,
			"source":0
		}
	],
	"images":[
		{
			"mimeType":"image/png",
			"name":"obj_curtains",
			"uri":"textures/obj_curtains.png"
		}
	],
	"accessors":[
		{
			"bufferView":0,
			"componentType":5126,
			"count":16702,
			"max":[
				71.7215576171875,
				28.203495025634766,
				58.51278305053711
			],
			"min":[
				-64.52534484863281,
				16.673072814941406,
				-35.890098571777344
			],
			"type":"VEC3"
		},
		{
			"bufferView":1,
			"componentType":5126,
			"count":16702,
			"type":"VEC3"
		},
		{
			"bufferView":2,
			"componentType":5126,
			"count":16702,
			"type":"VEC2"
		},
		{
			"bufferView":3,
			"componentType":5123,
			"count":60228,
			"type":"SCALAR"
		},
		{
			"bufferView":4,
			"componentType":5126,
			"count":13368,
			"max":[
				71.7215576171875,
				28.203495025634766,
				58.51278305053711
			],
			"min":[
				-64.52534484863281,
				16.673072814941406,
				-35.890098571777344
			],
			"type":"VEC3"
		},
		{
			"bufferView":5,
			"componentType":5126,
			"count":13368,
			"type":"VEC3"
		},
		{
			"bufferView":6,
			"componentType":5123,
			"count":60228,
			"type":"SCALAR"
		}
	],
	"bufferViews":[
		{
			"buffer":0,
			"byteLength":200424,
			"byteOffset":0,
			"target":34962
		},
		{
			"buffer":0,
			"byteLength":200424,
			"byteOffset":200424,
			"target":34962
		},
		{
			"buffer":0,
			"byteLength":133616,
			"byteOffset":400848,
			"target":34962
		},
		{
			"buffer":0,
			"byteLength":120456,
			"byteOffset":534464,
			"target":34963
		},
		{
			"buffer":0,
			"byteLength":160416,
			"byteOffset":654920,
			"target":34962
		},
		{
			"buffer":0,
			"byteLength":160416,
			"byteOffset":815336,
			"target":34962
		},
		{
			"buffer":0,
			"byteLength":120456,
			"byteOffset":975752,
			"target":34963
		}
	],
	"samplers":[
		{
			"magFilter":9729,
			"minFilter":9987
		}
	],
	"buffers":[
		{
			"byteLength":1096208,
			"uri":"obj_curtains.bin"
		}
	]
}
