{
	"asset":{
		"generator":"Khronos glTF Blender I/O v4.1.63",
		"version":"2.0"
	},
	"extensionsUsed":[
		"KHR_materials_specular",
		"KHR_materials_ior"
	],
	"scene":0,
	"scenes":[
		{
			"name":"Scene",
			"nodes":[
				0,
				1
			]
		}
	],
	"nodes":[
		{
			"mesh":0,
			"name":"obj_earth"
		},
		{
			"mesh":1,
			"name":"obj_earth_collider"
		}
	],
	"materials":[
		{
			"emissiveFactor":[
				0.10000000149011612,
				0.10000000149011612,
				0.10000000149011612
			],
			"emissiveTexture":{
				"index":0
			},
			"extensions":{
				"KHR_materials_specular":{
					"specularFactor":0
				},
				"KHR_materials_ior":{
					"ior":1.4500000476837158
				}
			},
			"name":"obj_earth",
			"pbrMetallicRoughness":{
				"baseColorTexture":{
					"index":1
				},
				"metallicFactor":0
			}
		},
		{
			"emissiveFactor":[
				0.26229405403137207,
				0.5646868348121643,
				0.921515166759491
			],
			"extensions":{
				"KHR_materials_specular":{
					"specularFactor":0
				},
				"KHR_materials_ior":{
					"ior":1.4500000476837158
				}
			},
			"name":"obj_global_emission01",
			"pbrMetallicRoughness":{
				"baseColorFactor":[
					0.2617267668247223,
					0.566400408744812,
					0.9218639135360718,
					1
				],
				"metallicFactor":0
			}
		}
	],
	"meshes":[
		{
			"name":"Cylinder.043",
			"primitives":[
				{
					"attributes":{
						"POSITION":0,
						"NORMAL":1,
						"TEXCOORD_0":2,
						"TEXCOORD_1":3
					},
					"indices":4,
					"material":0
				},
				{
					"attributes":{
						"POSITION":5,
						"NORMAL":6,
						"TEXCOORD_0":7,
						"TEXCOORD_1":8
					},
					"indices":9,
					"material":1
				}
			]
		},
		{
			"name":"Cylinder.006",
			"primitives":[
				{
					"attributes":{
						"POSITION":10,
						"NORMAL":11,
						"TEXCOORD_0":12
					},
					"indices":13
				}
			]
		}
	],
	"textures":[
		{
			"sampler":0,
			"source":0
		},
		{
			"sampler":0,
			"source":0
		}
	],
	"images":[
		{
			"mimeType":"image/png",
			"name":"obj_plant",
			"uri":"textures/obj_plant.png"
		}
	],
	"accessors":[
		{
			"bufferView":0,
			"componentType":5126,
			"count":301,
			"max":[
				1.0503917932510376,
				0.3434745669364929,
				1.050391435623169
			],
			"min":[
				-1.0503917932510376,
				-0.0009058006689883769,
				-1.0501320362091064
			],
			"type":"VEC3"
		},
		{
			"bufferView":1,
			"componentType":5126,
			"count":301,
			"type":"VEC3"
		},
		{
			"bufferView":2,
			"componentType":5126,
			"count":301,
			"type":"VEC2"
		},
		{
			"bufferView":3,
			"componentType":5126,
			"count":301,
			"type":"VEC2"
		},
		{
			"bufferView":4,
			"componentType":5123,
			"count":1020,
			"type":"SCALAR"
		},
		{
			"bufferView":5,
			"componentType":5126,
			"count":42,
			"max":[
				0.841253936290741,
				0.26447418332099915,
				0.8412559628486633
			],
			"min":[
				-0.841253936290741,
				0.24641519784927368,
				-0.8410471081733704
			],
			"type":"VEC3"
		},
		{
			"bufferView":6,
			"componentType":5126,
			"count":42,
			"type":"VEC3"
		},
		{
			"bufferView":7,
			"componentType":5126,
			"count":42,
			"type":"VEC2"
		},
		{
			"bufferView":8,
			"componentType":5126,
			"count":42,
			"type":"VEC2"
		},
		{
			"bufferView":9,
			"componentType":5123,
			"count":114,
			"type":"SCALAR"
		},
		{
			"bufferView":10,
			"componentType":5126,
			"count":26,
			"max":[
				1.099374532699585,
				0.3442484140396118,
				1.099374532699585
			],
			"min":[
				-1.099374532699585,
				5.918722179032443e-10,
				-1.099374532699585
			],
			"type":"VEC3"
		},
		{
			"bufferView":11,
			"componentType":5126,
			"count":26,
			"type":"VEC3"
		},
		{
			"bufferView":12,
			"componentType":5126,
			"count":26,
			"type":"VEC2"
		},
		{
			"bufferView":13,
			"componentType":5123,
			"count":66,
			"type":"SCALAR"
		}
	],
	"bufferViews":[
		{
			"buffer":0,
			"byteLength":3612,
			"byteOffset":0,
			"target":34962
		},
		{
			"buffer":0,
			"byteLength":3612,
			"byteOffset":3612,
			"target":34962
		},
		{
			"buffer":0,
			"byteLength":2408,
			"byteOffset":7224,
			"target":34962
		},
		{
			"buffer":0,
			"byteLength":2408,
			"byteOffset":9632,
			"target":34962
		},
		{
			"buffer":0,
			"byteLength":2040,
			"byteOffset":12040,
			"target":34963
		},
		{
			"buffer":0,
			"byteLength":504,
			"byteOffset":14080,
			"target":34962
		},
		{
			"buffer":0,
			"byteLength":504,
			"byteOffset":14584,
			"target":34962
		},
		{
			"buffer":0,
			"byteLength":336,
			"byteOffset":15088,
			"target":34962
		},
		{
			"buffer":0,
			"byteLength":336,
			"byteOffset":15424,
			"target":34962
		},
		{
			"buffer":0,
			"byteLength":228,
			"byteOffset":15760,
			"target":34963
		},
		{
			"buffer":0,
			"byteLength":312,
			"byteOffset":15988,
			"target":34962
		},
		{
			"buffer":0,
			"byteLength":312,
			"byteOffset":16300,
			"target":34962
		},
		{
			"buffer":0,
			"byteLength":208,
			"byteOffset":16612,
			"target":34962
		},
		{
			"buffer":0,
			"byteLength":132,
			"byteOffset":16820,
			"target":34963
		}
	],
	"samplers":[
		{
			"magFilter":9729,
			"minFilter":9987
		}
	],
	"buffers":[
		{
			"byteLength":16952,
			"uri":"obj_earth.bin"
		}
	]
}
