{
	"asset":{
		"generator":"Khronos glTF Blender I/O v4.2.57",
		"version":"2.0"
	},
	"extensionsUsed":[
		"KHR_materials_clearcoat",
		"KHR_materials_specular",
		"KHR_materials_ior"
	],
	"scene":0,
	"scenes":[
		{
			"name":"Scene",
			"nodes":[
				0,
				1,
				12
			]
		}
	],
	"nodes":[
		{
			"mesh":0,
			"name":"obj_pine01"
		},
		{
			"mesh":1,
			"name":"obj_pine01_collider"
		},
		{
			"name":"fallens.001",
			"rotation":[
				0,
				1.1920928955078125e-07,
				0,
				1
			],
			"translation":[
				0,
				-0.042436838150024414,
				0
			]
		},
		{
			"name":"fallens.002",
			"rotation":[
				0,
				1.1920928955078125e-07,
				0,
				1
			],
			"translation":[
				0,
				-0.042436838150024414,
				0
			]
		},
		{
			"name":"fallens.003",
			"rotation":[
				0,
				1.1920928955078125e-07,
				0,
				1
			],
			"translation":[
				0,
				-0.042436838150024414,
				0
			]
		},
		{
			"name":"fallens.004",
			"rotation":[
				0,
				1.1920928955078125e-07,
				0,
				1
			],
			"translation":[
				0,
				-0.042436838150024414,
				0
			]
		},
		{
			"name":"fallens.005",
			"rotation":[
				0,
				1.1920928955078125e-07,
				0,
				1
			],
			"translation":[
				0,
				-0.042436838150024414,
				0
			]
		},
		{
			"name":"fallens.006",
			"rotation":[
				0,
				1.1920928955078125e-07,
				0,
				1
			],
			"translation":[
				0,
				-0.042436838150024414,
				0
			]
		},
		{
			"name":"fallens.007",
			"rotation":[
				0,
				1.1920928955078125e-07,
				0,
				1
			],
			"translation":[
				0,
				-0.042436838150024414,
				0
			]
		},
		{
			"name":"fallens.008",
			"rotation":[
				0,
				1.1920928955078125e-07,
				0,
				1
			],
			"translation":[
				0,
				-0.042436838150024414,
				0
			]
		},
		{
			"children":[
				2,
				3,
				4,
				5,
				6,
				7,
				8,
				9
			],
			"name":"fallens"
		},
		{
			"mesh":2,
			"name":"obj_pine01_particles",
			"skin":0
		},
		{
			"children":[
				11,
				10
			],
			"name":"Armature"
		}
	],
	"animations":[
		{
			"channels":[
				{
					"sampler":0,
					"target":{
						"node":10,
						"path":"translation"
					}
				},
				{
					"sampler":1,
					"target":{
						"node":10,
						"path":"rotation"
					}
				},
				{
					"sampler":2,
					"target":{
						"node":10,
						"path":"scale"
					}
				},
				{
					"sampler":3,
					"target":{
						"node":2,
						"path":"translation"
					}
				},
				{
					"sampler":4,
					"target":{
						"node":2,
						"path":"rotation"
					}
				},
				{
					"sampler":5,
					"target":{
						"node":2,
						"path":"scale"
					}
				},
				{
					"sampler":6,
					"target":{
						"node":3,
						"path":"translation"
					}
				},
				{
					"sampler":7,
					"target":{
						"node":3,
						"path":"rotation"
					}
				},
				{
					"sampler":8,
					"target":{
						"node":3,
						"path":"scale"
					}
				},
				{
					"sampler":9,
					"target":{
						"node":4,
						"path":"translation"
					}
				},
				{
					"sampler":10,
					"target":{
						"node":4,
						"path":"rotation"
					}
				},
				{
					"sampler":11,
					"target":{
						"node":4,
						"path":"scale"
					}
				},
				{
					"sampler":12,
					"target":{
						"node":5,
						"path":"translation"
					}
				},
				{
					"sampler":13,
					"target":{
						"node":5,
						"path":"rotation"
					}
				},
				{
					"sampler":14,
					"target":{
						"node":5,
						"path":"scale"
					}
				},
				{
					"sampler":15,
					"target":{
						"node":6,
						"path":"translation"
					}
				},
				{
					"sampler":16,
					"target":{
						"node":6,
						"path":"rotation"
					}
				},
				{
					"sampler":17,
					"target":{
						"node":6,
						"path":"scale"
					}
				},
				{
					"sampler":18,
					"target":{
						"node":7,
						"path":"translation"
					}
				},
				{
					"sampler":19,
					"target":{
						"node":7,
						"path":"rotation"
					}
				},
				{
					"sampler":20,
					"target":{
						"node":7,
						"path":"scale"
					}
				},
				{
					"sampler":21,
					"target":{
						"node":8,
						"path":"translation"
					}
				},
				{
					"sampler":22,
					"target":{
						"node":8,
						"path":"rotation"
					}
				},
				{
					"sampler":23,
					"target":{
						"node":8,
						"path":"scale"
					}
				},
				{
					"sampler":24,
					"target":{
						"node":9,
						"path":"translation"
					}
				},
				{
					"sampler":25,
					"target":{
						"node":9,
						"path":"rotation"
					}
				},
				{
					"sampler":26,
					"target":{
						"node":9,
						"path":"scale"
					}
				}
			],
			"name":"stand",
			"samplers":[
				{
					"input":16,
					"interpolation":"STEP",
					"output":17
				},
				{
					"input":16,
					"interpolation":"STEP",
					"output":18
				},
				{
					"input":16,
					"interpolation":"STEP",
					"output":19
				},
				{
					"input":20,
					"interpolation":"LINEAR",
					"output":21
				},
				{
					"input":20,
					"interpolation":"LINEAR",
					"output":22
				},
				{
					"input":20,
					"interpolation":"LINEAR",
					"output":23
				},
				{
					"input":20,
					"interpolation":"LINEAR",
					"output":24
				},
				{
					"input":20,
					"interpolation":"LINEAR",
					"output":25
				},
				{
					"input":20,
					"interpolation":"LINEAR",
					"output":26
				},
				{
					"input":20,
					"interpolation":"LINEAR",
					"output":27
				},
				{
					"input":20,
					"interpolation":"LINEAR",
					"output":28
				},
				{
					"input":20,
					"interpolation":"LINEAR",
					"output":29
				},
				{
					"input":20,
					"interpolation":"LINEAR",
					"output":30
				},
				{
					"input":20,
					"interpolation":"LINEAR",
					"output":31
				},
				{
					"input":20,
					"interpolation":"LINEAR",
					"output":32
				},
				{
					"input":20,
					"interpolation":"LINEAR",
					"output":33
				},
				{
					"input":20,
					"interpolation":"LINEAR",
					"output":34
				},
				{
					"input":20,
					"interpolation":"LINEAR",
					"output":35
				},
				{
					"input":20,
					"interpolation":"LINEAR",
					"output":36
				},
				{
					"input":20,
					"interpolation":"LINEAR",
					"output":37
				},
				{
					"input":20,
					"interpolation":"LINEAR",
					"output":38
				},
				{
					"input":20,
					"interpolation":"LINEAR",
					"output":39
				},
				{
					"input":20,
					"interpolation":"LINEAR",
					"output":40
				},
				{
					"input":20,
					"interpolation":"LINEAR",
					"output":41
				},
				{
					"input":20,
					"interpolation":"LINEAR",
					"output":42
				},
				{
					"input":20,
					"interpolation":"LINEAR",
					"output":43
				},
				{
					"input":20,
					"interpolation":"LINEAR",
					"output":44
				}
			]
		}
	],
	"materials":[
		{
			"emissiveFactor":[
				0.20000000298023224,
				0.20000000298023224,
				0.20000000298023224
			],
			"emissiveTexture":{
				"index":0
			},
			"extensions":{
				"KHR_materials_clearcoat":{
					"clearcoatRoughnessFactor":0
				},
				"KHR_materials_specular":{
					"specularFactor":0
				},
				"KHR_materials_ior":{
					"ior":1.4500000476837158
				}
			},
			"name":"obj_pine01",
			"pbrMetallicRoughness":{
				"baseColorTexture":{
					"index":1
				},
				"metallicFactor":0
			}
		},
		{
			"alphaMode":"BLEND",
			"doubleSided":true,
			"emissiveFactor":[
				1,
				1,
				1
			],
			"emissiveTexture":{
				"index":2
			},
			"extensions":{
				"KHR_materials_clearcoat":{
					"clearcoatRoughnessFactor":0
				},
				"KHR_materials_specular":{
					"specularFactor":0
				},
				"KHR_materials_ior":{
					"ior":1.4500000476837158
				}
			},
			"name":"obj_bush01_leaf",
			"pbrMetallicRoughness":{
				"baseColorTexture":{
					"index":3
				},
				"metallicFactor":0
			}
		}
	],
	"meshes":[
		{
			"name":"Mesh.106",
			"primitives":[
				{
					"attributes":{
						"POSITION":0,
						"NORMAL":1,
						"TEXCOORD_0":2,
						"TEXCOORD_1":3
					},
					"indices":4,
					"material":0
				}
			]
		},
		{
			"name":"Mesh.024",
			"primitives":[
				{
					"attributes":{
						"POSITION":5,
						"NORMAL":6,
						"TEXCOORD_0":7
					},
					"indices":8
				}
			]
		},
		{
			"name":"Plane.004",
			"primitives":[
				{
					"attributes":{
						"POSITION":9,
						"NORMAL":10,
						"TEXCOORD_0":11,
						"JOINTS_0":12,
						"WEIGHTS_0":13
					},
					"indices":14,
					"material":1
				}
			]
		}
	],
	"textures":[
		{
			"sampler":0,
			"source":0
		},
		{
			"sampler":0,
			"source":0
		},
		{
			"sampler":0,
			"source":1
		},
		{
			"sampler":0,
			"source":2
		}
	],
	"images":[
		{
			"mimeType":"image/png",
			"name":"obj_pine01",
			"uri":"textures/obj_pine01.png"
		},
		{
			"mimeType":"image/png",
			"name":"obj_bush01_emission",
			"uri":"textures/obj_bush01_emission.png"
		},
		{
			"mimeType":"image/png",
			"name":"obj_bush01",
			"uri":"textures/obj_bush01.png"
		}
	],
	"skins":[
		{
			"inverseBindMatrices":15,
			"joints":[
				10,
				2,
				3,
				4,
				5,
				6,
				7,
				8,
				9
			],
			"name":"Armature"
		}
	],
	"accessors":[
		{
			"bufferView":0,
			"componentType":5126,
			"count":307,
			"max":[
				2.0918331146240234,
				7.035451889038086,
				2.0936319828033447
			],
			"min":[
				-2.091790199279785,
				-2.9802322387695312e-08,
				-2.0935416221618652
			],
			"type":"VEC3"
		},
		{
			"bufferView":1,
			"componentType":5126,
			"count":307,
			"type":"VEC3"
		},
		{
			"bufferView":2,
			"componentType":5126,
			"count":307,
			"type":"VEC2"
		},
		{
			"bufferView":3,
			"componentType":5126,
			"count":307,
			"type":"VEC2"
		},
		{
			"bufferView":4,
			"componentType":5123,
			"count":1524,
			"type":"SCALAR"
		},
		{
			"bufferView":5,
			"componentType":5126,
			"count":49,
			"max":[
				1.952216625213623,
				7.134773254394531,
				1.9584543704986572
			],
			"min":[
				-1.8968253135681152,
				-2.9802322387695312e-08,
				-1.9433317184448242
			],
			"type":"VEC3"
		},
		{
			"bufferView":6,
			"componentType":5126,
			"count":49,
			"type":"VEC3"
		},
		{
			"bufferView":7,
			"componentType":5126,
			"count":49,
			"type":"VEC2"
		},
		{
			"bufferView":8,
			"componentType":5123,
			"count":174,
			"type":"SCALAR"
		},
		{
			"bufferView":9,
			"componentType":5126,
			"count":32,
			"max":[
				0.050000011920928955,
				0.042436785995960236,
				0.050000011920928955
			],
			"min":[
				-0.050000011920928955,
				-0.042436785995960236,
				-0.050000011920928955
			],
			"type":"VEC3"
		},
		{
			"bufferView":10,
			"componentType":5126,
			"count":32,
			"type":"VEC3"
		},
		{
			"bufferView":11,
			"componentType":5126,
			"count":32,
			"type":"VEC2"
		},
		{
			"bufferView":12,
			"componentType":5121,
			"count":32,
			"type":"VEC4"
		},
		{
			"bufferView":13,
			"componentType":5126,
			"count":32,
			"type":"VEC4"
		},
		{
			"bufferView":14,
			"componentType":5123,
			"count":48,
			"type":"SCALAR"
		},
		{
			"bufferView":15,
			"componentType":5126,
			"count":9,
			"type":"MAT4"
		},
		{
			"bufferView":16,
			"componentType":5126,
			"count":2,
			"max":[
				2.062880579630534
			],
			"min":[
				0.02954724629720052
			],
			"type":"SCALAR"
		},
		{
			"bufferView":17,
			"componentType":5126,
			"count":2,
			"type":"VEC3"
		},
		{
			"bufferView":18,
			"componentType":5126,
			"count":2,
			"type":"VEC4"
		},
		{
			"bufferView":19,
			"componentType":5126,
			"count":2,
			"type":"VEC3"
		},
		{
			"bufferView":20,
			"componentType":5126,
			"count":62,
			"max":[
				2.062880579630534
			],
			"min":[
				0.02954724629720052
			],
			"type":"SCALAR"
		},
		{
			"bufferView":21,
			"componentType":5126,
			"count":62,
			"type":"VEC3"
		},
		{
			"bufferView":22,
			"componentType":5126,
			"count":62,
			"type":"VEC4"
		},
		{
			"bufferView":23,
			"componentType":5126,
			"count":62,
			"type":"VEC3"
		},
		{
			"bufferView":24,
			"componentType":5126,
			"count":62,
			"type":"VEC3"
		},
		{
			"bufferView":25,
			"componentType":5126,
			"count":62,
			"type":"VEC4"
		},
		{
			"bufferView":26,
			"componentType":5126,
			"count":62,
			"type":"VEC3"
		},
		{
			"bufferView":27,
			"componentType":5126,
			"count":62,
			"type":"VEC3"
		},
		{
			"bufferView":28,
			"componentType":5126,
			"count":62,
			"type":"VEC4"
		},
		{
			"bufferView":29,
			"componentType":5126,
			"count":62,
			"type":"VEC3"
		},
		{
			"bufferView":30,
			"componentType":5126,
			"count":62,
			"type":"VEC3"
		},
		{
			"bufferView":31,
			"componentType":5126,
			"count":62,
			"type":"VEC4"
		},
		{
			"bufferView":32,
			"componentType":5126,
			"count":62,
			"type":"VEC3"
		},
		{
			"bufferView":33,
			"componentType":5126,
			"count":62,
			"type":"VEC3"
		},
		{
			"bufferView":34,
			"componentType":5126,
			"count":62,
			"type":"VEC4"
		},
		{
			"bufferView":35,
			"componentType":5126,
			"count":62,
			"type":"VEC3"
		},
		{
			"bufferView":36,
			"componentType":5126,
			"count":62,
			"type":"VEC3"
		},
		{
			"bufferView":37,
			"componentType":5126,
			"count":62,
			"type":"VEC4"
		},
		{
			"bufferView":38,
			"componentType":5126,
			"count":62,
			"type":"VEC3"
		},
		{
			"bufferView":39,
			"componentType":5126,
			"count":62,
			"type":"VEC3"
		},
		{
			"bufferView":40,
			"componentType":5126,
			"count":62,
			"type":"VEC4"
		},
		{
			"bufferView":41,
			"componentType":5126,
			"count":62,
			"type":"VEC3"
		},
		{
			"bufferView":42,
			"componentType":5126,
			"count":62,
			"type":"VEC3"
		},
		{
			"bufferView":43,
			"componentType":5126,
			"count":62,
			"type":"VEC4"
		},
		{
			"bufferView":44,
			"componentType":5126,
			"count":62,
			"type":"VEC3"
		}
	],
	"bufferViews":[
		{
			"buffer":0,
			"byteLength":3684,
			"byteOffset":0,
			"target":34962
		},
		{
			"buffer":0,
			"byteLength":3684,
			"byteOffset":3684,
			"target":34962
		},
		{
			"buffer":0,
			"byteLength":2456,
			"byteOffset":7368,
			"target":34962
		},
		{
			"buffer":0,
			"byteLength":2456,
			"byteOffset":9824,
			"target":34962
		},
		{
			"buffer":0,
			"byteLength":3048,
			"byteOffset":12280,
			"target":34963
		},
		{
			"buffer":0,
			"byteLength":588,
			"byteOffset":15328,
			"target":34962
		},
		{
			"buffer":0,
			"byteLength":588,
			"byteOffset":15916,
			"target":34962
		},
		{
			"buffer":0,
			"byteLength":392,
			"byteOffset":16504,
			"target":34962
		},
		{
			"buffer":0,
			"byteLength":348,
			"byteOffset":16896,
			"target":34963
		},
		{
			"buffer":0,
			"byteLength":384,
			"byteOffset":17244,
			"target":34962
		},
		{
			"buffer":0,
			"byteLength":384,
			"byteOffset":17628,
			"target":34962
		},
		{
			"buffer":0,
			"byteLength":256,
			"byteOffset":18012,
			"target":34962
		},
		{
			"buffer":0,
			"byteLength":128,
			"byteOffset":18268,
			"target":34962
		},
		{
			"buffer":0,
			"byteLength":512,
			"byteOffset":18396,
			"target":34962
		},
		{
			"buffer":0,
			"byteLength":96,
			"byteOffset":18908,
			"target":34963
		},
		{
			"buffer":0,
			"byteLength":576,
			"byteOffset":19004
		},
		{
			"buffer":0,
			"byteLength":8,
			"byteOffset":19580
		},
		{
			"buffer":0,
			"byteLength":24,
			"byteOffset":19588
		},
		{
			"buffer":0,
			"byteLength":32,
			"byteOffset":19612
		},
		{
			"buffer":0,
			"byteLength":24,
			"byteOffset":19644
		},
		{
			"buffer":0,
			"byteLength":248,
			"byteOffset":19668
		},
		{
			"buffer":0,
			"byteLength":744,
			"byteOffset":19916
		},
		{
			"buffer":0,
			"byteLength":992,
			"byteOffset":20660
		},
		{
			"buffer":0,
			"byteLength":744,
			"byteOffset":21652
		},
		{
			"buffer":0,
			"byteLength":744,
			"byteOffset":22396
		},
		{
			"buffer":0,
			"byteLength":992,
			"byteOffset":23140
		},
		{
			"buffer":0,
			"byteLength":744,
			"byteOffset":24132
		},
		{
			"buffer":0,
			"byteLength":744,
			"byteOffset":24876
		},
		{
			"buffer":0,
			"byteLength":992,
			"byteOffset":25620
		},
		{
			"buffer":0,
			"byteLength":744,
			"byteOffset":26612
		},
		{
			"buffer":0,
			"byteLength":744,
			"byteOffset":27356
		},
		{
			"buffer":0,
			"byteLength":992,
			"byteOffset":28100
		},
		{
			"buffer":0,
			"byteLength":744,
			"byteOffset":29092
		},
		{
			"buffer":0,
			"byteLength":744,
			"byteOffset":29836
		},
		{
			"buffer":0,
			"byteLength":992,
			"byteOffset":30580
		},
		{
			"buffer":0,
			"byteLength":744,
			"byteOffset":31572
		},
		{
			"buffer":0,
			"byteLength":744,
			"byteOffset":32316
		},
		{
			"buffer":0,
			"byteLength":992,
			"byteOffset":33060
		},
		{
			"buffer":0,
			"byteLength":744,
			"byteOffset":34052
		},
		{
			"buffer":0,
			"byteLength":744,
			"byteOffset":34796
		},
		{
			"buffer":0,
			"byteLength":992,
			"byteOffset":35540
		},
		{
			"buffer":0,
			"byteLength":744,
			"byteOffset":36532
		},
		{
			"buffer":0,
			"byteLength":744,
			"byteOffset":37276
		},
		{
			"buffer":0,
			"byteLength":992,
			"byteOffset":38020
		},
		{
			"buffer":0,
			"byteLength":744,
			"byteOffset":39012
		}
	],
	"samplers":[
		{
			"magFilter":9729,
			"minFilter":9987
		}
	],
	"buffers":[
		{
			"byteLength":39756,
			"uri":"obj_pine01.bin"
		}
	]
}
