{
	"asset":{
		"generator":"Khronos glTF Blender I/O v4.3.47",
		"version":"2.0"
	},
	"extensionsUsed":[
		"KHR_materials_clearcoat",
		"KHR_materials_specular"
	],
	"scene":0,
	"scenes":[
		{
			"name":"Scene",
			"nodes":[
				0,
				1
			]
		}
	],
	"nodes":[
		{
			"mesh":0,
			"name":"obj_banner_collider"
		},
		{
			"mesh":1,
			"name":"obj_banner"
		}
	],
	"materials":[
		{
			"emissiveFactor":[
				0.10000000149011612,
				0.10000000149011612,
				0.10000000149011612
			],
			"emissiveTexture":{
				"index":0
			},
			"extensions":{
				"KHR_materials_clearcoat":{
					"clearcoatRoughnessFactor":0
				},
				"KHR_materials_specular":{
					"specularFactor":0
				}
			},
			"name":"obj_banner",
			"pbrMetallicRoughness":{
				"baseColorTexture":{
					"index":1
				},
				"metallicFactor":0
			}
		},
		{
			"doubleSided":true,
			"emissiveFactor":[
				0.26229405403137207,
				0.5646868348121643,
				0.921515166759491
			],
			"extensions":{
				"KHR_materials_specular":{
					"specularFactor":0
				}
			},
			"name":"obj_global_emission01",
			"pbrMetallicRoughness":{
				"baseColorFactor":[
					0.2617267668247223,
					0.566400408744812,
					0.9218639135360718,
					1
				],
				"metallicFactor":0
			}
		},
		{
			"doubleSided":true,
			"emissiveFactor":[
				0.9215658903121948,
				0.7304738759994507,
				0.16513018310070038
			],
			"extensions":{
				"KHR_materials_specular":{
					"specularFactor":0
				}
			},
			"name":"obj_global_emission02",
			"pbrMetallicRoughness":{
				"baseColorFactor":[
					0.9203937649726868,
					0.7313708662986755,
					0.1655372530221939,
					1
				],
				"metallicFactor":0
			}
		}
	],
	"meshes":[
		{
			"name":"obj_banner_collider",
			"primitives":[
				{
					"attributes":{
						"POSITION":0,
						"NORMAL":1,
						"TEXCOORD_0":2
					},
					"indices":3
				}
			]
		},
		{
			"name":"obj_banner",
			"primitives":[
				{
					"attributes":{
						"POSITION":4,
						"NORMAL":5,
						"TEXCOORD_0":6
					},
					"indices":7,
					"material":0
				},
				{
					"attributes":{
						"POSITION":8,
						"NORMAL":9,
						"TEXCOORD_0":10
					},
					"indices":11,
					"material":1
				},
				{
					"attributes":{
						"POSITION":12,
						"NORMAL":13,
						"TEXCOORD_0":14
					},
					"indices":15,
					"material":2
				}
			]
		}
	],
	"textures":[
		{
			"sampler":0,
			"source":0
		},
		{
			"sampler":0,
			"source":0
		}
	],
	"images":[
		{
			"mimeType":"image/png",
			"name":"obj_banner",
			"uri":"textures/obj_banner.png"
		}
	],
	"accessors":[
		{
			"bufferView":0,
			"componentType":5126,
			"count":1204,
			"max":[
				52.03121566772461,
				3.2772815227508545,
				57.45271301269531
			],
			"min":[
				-52.00697326660156,
				0.17427414655685425,
				-61.889732360839844
			],
			"type":"VEC3"
		},
		{
			"bufferView":1,
			"componentType":5126,
			"count":1204,
			"type":"VEC3"
		},
		{
			"bufferView":2,
			"componentType":5126,
			"count":1204,
			"type":"VEC2"
		},
		{
			"bufferView":3,
			"componentType":5123,
			"count":3096,
			"type":"SCALAR"
		},
		{
			"bufferView":4,
			"componentType":5126,
			"count":26288,
			"max":[
				52.029537200927734,
				3.2763233184814453,
				57.389060974121094
			],
			"min":[
				-51.98390197753906,
				0.17450416088104248,
				-61.88954162597656
			],
			"type":"VEC3"
		},
		{
			"bufferView":5,
			"componentType":5126,
			"count":26288,
			"type":"VEC3"
		},
		{
			"bufferView":6,
			"componentType":5126,
			"count":26288,
			"type":"VEC2"
		},
		{
			"bufferView":7,
			"componentType":5123,
			"count":71208,
			"type":"SCALAR"
		},
		{
			"bufferView":8,
			"componentType":5126,
			"count":2160,
			"max":[
				51.766571044921875,
				3.0629680156707764,
				56.77005386352539
			],
			"min":[
				-51.71955108642578,
				0.3817480802536011,
				-61.625328063964844
			],
			"type":"VEC3"
		},
		{
			"bufferView":9,
			"componentType":5126,
			"count":2160,
			"type":"VEC3"
		},
		{
			"bufferView":10,
			"componentType":5126,
			"count":2160,
			"type":"VEC2"
		},
		{
			"bufferView":11,
			"componentType":5123,
			"count":5760,
			"type":"SCALAR"
		},
		{
			"bufferView":12,
			"componentType":5126,
			"count":1710,
			"max":[
				51.722930908203125,
				3.0583810806274414,
				48.059814453125
			],
			"min":[
				-51.58321762084961,
				0.37904202938079834,
				-61.0181999206543
			],
			"type":"VEC3"
		},
		{
			"bufferView":13,
			"componentType":5126,
			"count":1710,
			"type":"VEC3"
		},
		{
			"bufferView":14,
			"componentType":5126,
			"count":1710,
			"type":"VEC2"
		},
		{
			"bufferView":15,
			"componentType":5123,
			"count":4560,
			"type":"SCALAR"
		}
	],
	"bufferViews":[
		{
			"buffer":0,
			"byteLength":14448,
			"byteOffset":0,
			"target":34962
		},
		{
			"buffer":0,
			"byteLength":14448,
			"byteOffset":14448,
			"target":34962
		},
		{
			"buffer":0,
			"byteLength":9632,
			"byteOffset":28896,
			"target":34962
		},
		{
			"buffer":0,
			"byteLength":6192,
			"byteOffset":38528,
			"target":34963
		},
		{
			"buffer":0,
			"byteLength":315456,
			"byteOffset":44720,
			"target":34962
		},
		{
			"buffer":0,
			"byteLength":315456,
			"byteOffset":360176,
			"target":34962
		},
		{
			"buffer":0,
			"byteLength":210304,
			"byteOffset":675632,
			"target":34962
		},
		{
			"buffer":0,
			"byteLength":142416,
			"byteOffset":885936,
			"target":34963
		},
		{
			"buffer":0,
			"byteLength":25920,
			"byteOffset":1028352,
			"target":34962
		},
		{
			"buffer":0,
			"byteLength":25920,
			"byteOffset":1054272,
			"target":34962
		},
		{
			"buffer":0,
			"byteLength":17280,
			"byteOffset":1080192,
			"target":34962
		},
		{
			"buffer":0,
			"byteLength":11520,
			"byteOffset":1097472,
			"target":34963
		},
		{
			"buffer":0,
			"byteLength":20520,
			"byteOffset":1108992,
			"target":34962
		},
		{
			"buffer":0,
			"byteLength":20520,
			"byteOffset":1129512,
			"target":34962
		},
		{
			"buffer":0,
			"byteLength":13680,
			"byteOffset":1150032,
			"target":34962
		},
		{
			"buffer":0,
			"byteLength":9120,
			"byteOffset":1163712,
			"target":34963
		}
	],
	"samplers":[
		{
			"magFilter":9729,
			"minFilter":9987
		}
	],
	"buffers":[
		{
			"byteLength":1172832,
			"uri":"obj_banner.bin"
		}
	]
}
