{
	"asset":{
		"generator":"Khronos glTF Blender I/O v4.3.47",
		"version":"2.0"
	},
	"extensionsUsed":[
		"KHR_materials_clearcoat",
		"KHR_materials_specular"
	],
	"scene":0,
	"scenes":[
		{
			"name":"Scene",
			"nodes":[
				0,
				1
			]
		}
	],
	"nodes":[
		{
			"mesh":0,
			"name":"obj_bush_collider"
		},
		{
			"mesh":1,
			"name":"obj_bush"
		}
	],
	"materials":[
		{
			"emissiveFactor":[
				1,
				1,
				1
			],
			"emissiveTexture":{
				"index":0
			},
			"extensions":{
				"KHR_materials_clearcoat":{
					"clearcoatRoughnessFactor":0
				},
				"KHR_materials_specular":{
					"specularFactor":0
				}
			},
			"name":"obj_bush02",
			"pbrMetallicRoughness":{
				"baseColorTexture":{
					"index":1
				},
				"metallicFactor":0
			}
		},
		{
			"doubleSided":true,
			"emissiveFactor":[
				0.7455297112464905,
				0.4507659673690796,
				0.8147876262664795
			],
			"extensions":{
				"KHR_materials_specular":{
					"specularFactor":0
				}
			},
			"name":"obj_global_emission03",
			"pbrMetallicRoughness":{
				"baseColorFactor":[
					0.7454167008399963,
					0.450778603553772,
					0.8148468136787415,
					1
				],
				"metallicFactor":0
			}
		},
		{
			"alphaMode":"MASK",
			"doubleSided":true,
			"emissiveFactor":[
				1,
				1,
				1
			],
			"emissiveTexture":{
				"index":2
			},
			"extensions":{
				"KHR_materials_clearcoat":{
					"clearcoatRoughnessFactor":0
				},
				"KHR_materials_specular":{
					"specularFactor":0
				}
			},
			"name":"obj_bush02_leafs",
			"pbrMetallicRoughness":{
				"baseColorTexture":{
					"index":3
				},
				"metallicFactor":0
			}
		},
		{
			"emissiveFactor":[
				1,
				1,
				1
			],
			"emissiveTexture":{
				"index":4
			},
			"extensions":{
				"KHR_materials_clearcoat":{
					"clearcoatRoughnessFactor":0
				},
				"KHR_materials_specular":{
					"specularFactor":0
				}
			},
			"name":"obj_bush01",
			"pbrMetallicRoughness":{
				"baseColorTexture":{
					"index":5
				},
				"metallicFactor":0
			}
		},
		{
			"doubleSided":true,
			"emissiveFactor":[
				0.9215658903121948,
				0.7304738759994507,
				0.16513018310070038
			],
			"extensions":{
				"KHR_materials_specular":{
					"specularFactor":0
				}
			},
			"name":"obj_global_emission02",
			"pbrMetallicRoughness":{
				"baseColorFactor":[
					0.9203937649726868,
					0.7313708662986755,
					0.1655372530221939,
					1
				],
				"metallicFactor":0
			}
		},
		{
			"alphaMode":"MASK",
			"doubleSided":true,
			"emissiveFactor":[
				1,
				1,
				1
			],
			"emissiveTexture":{
				"index":6
			},
			"extensions":{
				"KHR_materials_clearcoat":{
					"clearcoatRoughnessFactor":0
				},
				"KHR_materials_specular":{
					"specularFactor":0
				}
			},
			"name":"obj_bush01_leaf",
			"pbrMetallicRoughness":{
				"baseColorTexture":{
					"index":7
				},
				"metallicFactor":0
			}
		}
	],
	"meshes":[
		{
			"name":"obj_bush_collider",
			"primitives":[
				{
					"attributes":{
						"POSITION":0,
						"NORMAL":1,
						"TEXCOORD_0":2
					},
					"indices":3
				}
			]
		},
		{
			"name":"obj_bush",
			"primitives":[
				{
					"attributes":{
						"POSITION":4,
						"NORMAL":5,
						"TEXCOORD_0":6
					},
					"indices":7,
					"material":0
				},
				{
					"attributes":{
						"POSITION":8,
						"NORMAL":9,
						"TEXCOORD_0":10
					},
					"indices":11,
					"material":1
				},
				{
					"attributes":{
						"POSITION":12,
						"NORMAL":13,
						"TEXCOORD_0":14
					},
					"indices":15,
					"material":2
				},
				{
					"attributes":{
						"POSITION":16,
						"NORMAL":17,
						"TEXCOORD_0":18
					},
					"indices":19,
					"material":3
				},
				{
					"attributes":{
						"POSITION":20,
						"NORMAL":21,
						"TEXCOORD_0":22
					},
					"indices":23,
					"material":4
				},
				{
					"attributes":{
						"POSITION":24,
						"NORMAL":25,
						"TEXCOORD_0":26
					},
					"indices":27,
					"material":5
				}
			]
		}
	],
	"textures":[
		{
			"sampler":0,
			"source":0
		},
		{
			"sampler":0,
			"source":1
		},
		{
			"sampler":0,
			"source":0
		},
		{
			"sampler":0,
			"source":1
		},
		{
			"sampler":0,
			"source":2
		},
		{
			"sampler":0,
			"source":3
		},
		{
			"sampler":0,
			"source":2
		},
		{
			"sampler":0,
			"source":3
		}
	],
	"images":[
		{
			"mimeType":"image/png",
			"name":"obj_bush02_emission",
			"uri":"textures/obj_bush02_emission.png"
		},
		{
			"mimeType":"image/png",
			"name":"obj_bush02",
			"uri":"textures/obj_bush02.png"
		},
		{
			"mimeType":"image/png",
			"name":"obj_bush01_emission",
			"uri":"textures/obj_bush01_emission.png"
		},
		{
			"mimeType":"image/png",
			"name":"obj_bush01",
			"uri":"textures/obj_bush01.png"
		}
	],
	"accessors":[
		{
			"bufferView":0,
			"componentType":5126,
			"count":624,
			"max":[
				46.71808624267578,
				1.2826305627822876,
				46.278587341308594
			],
			"min":[
				-6.25462532043457,
				0.30000001192092896,
				-56.82238006591797
			],
			"type":"VEC3"
		},
		{
			"bufferView":1,
			"componentType":5126,
			"count":624,
			"type":"VEC3"
		},
		{
			"bufferView":2,
			"componentType":5126,
			"count":624,
			"type":"VEC2"
		},
		{
			"bufferView":3,
			"componentType":5123,
			"count":2016,
			"type":"SCALAR"
		},
		{
			"bufferView":4,
			"componentType":5126,
			"count":5280,
			"max":[
				46.64104461669922,
				1.2375394105911255,
				46.14163589477539
			],
			"min":[
				6.5758280754089355,
				0.30000001192092896,
				0.7533168792724609
			],
			"type":"VEC3"
		},
		{
			"bufferView":5,
			"componentType":5126,
			"count":5280,
			"type":"VEC3"
		},
		{
			"bufferView":6,
			"componentType":5126,
			"count":5280,
			"type":"VEC2"
		},
		{
			"bufferView":7,
			"componentType":5123,
			"count":23904,
			"type":"SCALAR"
		},
		{
			"bufferView":8,
			"componentType":5126,
			"count":1248,
			"max":[
				46.575965881347656,
				0.44183915853500366,
				46.0814323425293
			],
			"min":[
				6.655793190002441,
				0.3798219561576843,
				0.8141918182373047
			],
			"type":"VEC3"
		},
		{
			"bufferView":9,
			"componentType":5126,
			"count":1248,
			"type":"VEC3"
		},
		{
			"bufferView":10,
			"componentType":5126,
			"count":1248,
			"type":"VEC2"
		},
		{
			"bufferView":11,
			"componentType":5123,
			"count":3456,
			"type":"SCALAR"
		},
		{
			"bufferView":12,
			"componentType":5126,
			"count":3840,
			"max":[
				46.66692352294922,
				1.3286166191101074,
				46.18610382080078
			],
			"min":[
				6.511040687561035,
				0.514585018157959,
				0.7003917694091797
			],
			"type":"VEC3"
		},
		{
			"bufferView":13,
			"componentType":5126,
			"count":3840,
			"type":"VEC3"
		},
		{
			"bufferView":14,
			"componentType":5126,
			"count":3840,
			"type":"VEC2"
		},
		{
			"bufferView":15,
			"componentType":5123,
			"count":5760,
			"type":"SCALAR"
		},
		{
			"bufferView":16,
			"componentType":5126,
			"count":2640,
			"max":[
				36.68992233276367,
				1.2375394105911255,
				-9.466352462768555
			],
			"min":[
				-6.197409629821777,
				0.30000001192092896,
				-56.67021179199219
			],
			"type":"VEC3"
		},
		{
			"bufferView":17,
			"componentType":5126,
			"count":2640,
			"type":"VEC3"
		},
		{
			"bufferView":18,
			"componentType":5126,
			"count":2640,
			"type":"VEC2"
		},
		{
			"bufferView":19,
			"componentType":5123,
			"count":11952,
			"type":"SCALAR"
		},
		{
			"bufferView":20,
			"componentType":5126,
			"count":624,
			"max":[
				36.64182662963867,
				0.44183915853500366,
				-9.526860237121582
			],
			"min":[
				-6.117444038391113,
				0.3798219561576843,
				-56.599143981933594
			],
			"type":"VEC3"
		},
		{
			"bufferView":21,
			"componentType":5126,
			"count":624,
			"type":"VEC3"
		},
		{
			"bufferView":22,
			"componentType":5126,
			"count":624,
			"type":"VEC2"
		},
		{
			"bufferView":23,
			"componentType":5123,
			"count":1728,
			"type":"SCALAR"
		},
		{
			"bufferView":24,
			"componentType":5126,
			"count":1920,
			"max":[
				36.757537841796875,
				1.3286166191101074,
				-9.412138938903809
			],
			"min":[
				-6.2621965408325195,
				0.514585018157959,
				-56.68153381347656
			],
			"type":"VEC3"
		},
		{
			"bufferView":25,
			"componentType":5126,
			"count":1920,
			"type":"VEC3"
		},
		{
			"bufferView":26,
			"componentType":5126,
			"count":1920,
			"type":"VEC2"
		},
		{
			"bufferView":27,
			"componentType":5123,
			"count":2880,
			"type":"SCALAR"
		}
	],
	"bufferViews":[
		{
			"buffer":0,
			"byteLength":7488,
			"byteOffset":0,
			"target":34962
		},
		{
			"buffer":0,
			"byteLength":7488,
			"byteOffset":7488,
			"target":34962
		},
		{
			"buffer":0,
			"byteLength":4992,
			"byteOffset":14976,
			"target":34962
		},
		{
			"buffer":0,
			"byteLength":4032,
			"byteOffset":19968,
			"target":34963
		},
		{
			"buffer":0,
			"byteLength":63360,
			"byteOffset":24000,
			"target":34962
		},
		{
			"buffer":0,
			"byteLength":63360,
			"byteOffset":87360,
			"target":34962
		},
		{
			"buffer":0,
			"byteLength":42240,
			"byteOffset":150720,
			"target":34962
		},
		{
			"buffer":0,
			"byteLength":47808,
			"byteOffset":192960,
			"target":34963
		},
		{
			"buffer":0,
			"byteLength":14976,
			"byteOffset":240768,
			"target":34962
		},
		{
			"buffer":0,
			"byteLength":14976,
			"byteOffset":255744,
			"target":34962
		},
		{
			"buffer":0,
			"byteLength":9984,
			"byteOffset":270720,
			"target":34962
		},
		{
			"buffer":0,
			"byteLength":6912,
			"byteOffset":280704,
			"target":34963
		},
		{
			"buffer":0,
			"byteLength":46080,
			"byteOffset":287616,
			"target":34962
		},
		{
			"buffer":0,
			"byteLength":46080,
			"byteOffset":333696,
			"target":34962
		},
		{
			"buffer":0,
			"byteLength":30720,
			"byteOffset":379776,
			"target":34962
		},
		{
			"buffer":0,
			"byteLength":11520,
			"byteOffset":410496,
			"target":34963
		},
		{
			"buffer":0,
			"byteLength":31680,
			"byteOffset":422016,
			"target":34962
		},
		{
			"buffer":0,
			"byteLength":31680,
			"byteOffset":453696,
			"target":34962
		},
		{
			"buffer":0,
			"byteLength":21120,
			"byteOffset":485376,
			"target":34962
		},
		{
			"buffer":0,
			"byteLength":23904,
			"byteOffset":506496,
			"target":34963
		},
		{
			"buffer":0,
			"byteLength":7488,
			"byteOffset":530400,
			"target":34962
		},
		{
			"buffer":0,
			"byteLength":7488,
			"byteOffset":537888,
			"target":34962
		},
		{
			"buffer":0,
			"byteLength":4992,
			"byteOffset":545376,
			"target":34962
		},
		{
			"buffer":0,
			"byteLength":3456,
			"byteOffset":550368,
			"target":34963
		},
		{
			"buffer":0,
			"byteLength":23040,
			"byteOffset":553824,
			"target":34962
		},
		{
			"buffer":0,
			"byteLength":23040,
			"byteOffset":576864,
			"target":34962
		},
		{
			"buffer":0,
			"byteLength":15360,
			"byteOffset":599904,
			"target":34962
		},
		{
			"buffer":0,
			"byteLength":5760,
			"byteOffset":615264,
			"target":34963
		}
	],
	"samplers":[
		{
			"magFilter":9729,
			"minFilter":9987
		}
	],
	"buffers":[
		{
			"byteLength":621024,
			"uri":"obj_bush.bin"
		}
	]
}
