{
	"asset":{
		"generator":"Khronos glTF Blender I/O v4.1.63",
		"version":"2.0"
	},
	"extensionsUsed":[
		"KHR_materials_specular",
		"KHR_materials_ior"
	],
	"scene":0,
	"scenes":[
		{
			"name":"Scene",
			"nodes":[
				0,
				1
			]
		}
	],
	"nodes":[
		{
			"mesh":0,
			"name":"obj_borders03"
		},
		{
			"mesh":1,
			"name":"obj_borders03_collider"
		}
	],
	"materials":[
		{
			"emissiveFactor":[
				0.08500204809013079,
				0.09007176891076218,
				0.10000240951780093
			],
			"emissiveTexture":{
				"index":0
			},
			"extensions":{
				"KHR_materials_specular":{
					"specularFactor":0
				},
				"KHR_materials_ior":{
					"ior":1.4500000476837158
				}
			},
			"name":"obj_borders",
			"pbrMetallicRoughness":{
				"baseColorFactor":[
					0.8500204682350159,
					0.9007176756858826,
					1,
					1
				],
				"baseColorTexture":{
					"index":1
				},
				"metallicFactor":0
			}
		},
		{
			"emissiveFactor":[
				0.26229405403137207,
				0.5646868348121643,
				0.921515166759491
			],
			"extensions":{
				"KHR_materials_specular":{
					"specularFactor":0
				},
				"KHR_materials_ior":{
					"ior":1.4500000476837158
				}
			},
			"name":"obj_global_emission01",
			"pbrMetallicRoughness":{
				"baseColorFactor":[
					0.2617267668247223,
					0.566400408744812,
					0.9218639135360718,
					1
				],
				"metallicFactor":0
			}
		}
	],
	"meshes":[
		{
			"name":"Plane.071",
			"primitives":[
				{
					"attributes":{
						"POSITION":0,
						"NORMAL":1,
						"TEXCOORD_0":2
					},
					"indices":3,
					"material":0
				},
				{
					"attributes":{
						"POSITION":4,
						"NORMAL":5,
						"TEXCOORD_0":6
					},
					"indices":7,
					"material":1
				}
			]
		},
		{
			"name":"Plane.006",
			"primitives":[
				{
					"attributes":{
						"POSITION":8,
						"NORMAL":9,
						"TEXCOORD_0":10
					},
					"indices":11
				}
			]
		}
	],
	"textures":[
		{
			"sampler":0,
			"source":0
		},
		{
			"sampler":0,
			"source":0
		}
	],
	"images":[
		{
			"mimeType":"image/png",
			"name":"obj_borders",
			"uri":"textures/obj_borders.png"
		}
	],
	"accessors":[
		{
			"bufferView":0,
			"componentType":5126,
			"count":8447,
			"max":[
				1.7966006994247437,
				0.17771568894386292,
				60.652828216552734
			],
			"min":[
				-52.28743362426758,
				0.04445561766624451,
				0.958203911781311
			],
			"type":"VEC3"
		},
		{
			"bufferView":1,
			"componentType":5126,
			"count":8447,
			"type":"VEC3"
		},
		{
			"bufferView":2,
			"componentType":5126,
			"count":8447,
			"type":"VEC2"
		},
		{
			"bufferView":3,
			"componentType":5123,
			"count":15912,
			"type":"SCALAR"
		},
		{
			"bufferView":4,
			"componentType":5126,
			"count":2526,
			"max":[
				1.713208556175232,
				0.12953788042068481,
				60.56969451904297
			],
			"min":[
				-52.20424270629883,
				0.10453695803880692,
				1.0407530069351196
			],
			"type":"VEC3"
		},
		{
			"bufferView":5,
			"componentType":5126,
			"count":2526,
			"type":"VEC3"
		},
		{
			"bufferView":6,
			"componentType":5126,
			"count":2526,
			"type":"VEC2"
		},
		{
			"bufferView":7,
			"componentType":5123,
			"count":3978,
			"type":"SCALAR"
		},
		{
			"bufferView":8,
			"componentType":5126,
			"count":786,
			"max":[
				1.8309383392333984,
				0.17771568894386292,
				60.652828216552734
			],
			"min":[
				-52.28743362426758,
				0.04445561766624451,
				1.0875225067138672
			],
			"type":"VEC3"
		},
		{
			"bufferView":9,
			"componentType":5126,
			"count":786,
			"type":"VEC3"
		},
		{
			"bufferView":10,
			"componentType":5126,
			"count":786,
			"type":"VEC2"
		},
		{
			"bufferView":11,
			"componentType":5123,
			"count":1668,
			"type":"SCALAR"
		}
	],
	"bufferViews":[
		{
			"buffer":0,
			"byteLength":101364,
			"byteOffset":0,
			"target":34962
		},
		{
			"buffer":0,
			"byteLength":101364,
			"byteOffset":101364,
			"target":34962
		},
		{
			"buffer":0,
			"byteLength":67576,
			"byteOffset":202728,
			"target":34962
		},
		{
			"buffer":0,
			"byteLength":31824,
			"byteOffset":270304,
			"target":34963
		},
		{
			"buffer":0,
			"byteLength":30312,
			"byteOffset":302128,
			"target":34962
		},
		{
			"buffer":0,
			"byteLength":30312,
			"byteOffset":332440,
			"target":34962
		},
		{
			"buffer":0,
			"byteLength":20208,
			"byteOffset":362752,
			"target":34962
		},
		{
			"buffer":0,
			"byteLength":7956,
			"byteOffset":382960,
			"target":34963
		},
		{
			"buffer":0,
			"byteLength":9432,
			"byteOffset":390916,
			"target":34962
		},
		{
			"buffer":0,
			"byteLength":9432,
			"byteOffset":400348,
			"target":34962
		},
		{
			"buffer":0,
			"byteLength":6288,
			"byteOffset":409780,
			"target":34962
		},
		{
			"buffer":0,
			"byteLength":3336,
			"byteOffset":416068,
			"target":34963
		}
	],
	"samplers":[
		{
			"magFilter":9729,
			"minFilter":9987
		}
	],
	"buffers":[
		{
			"byteLength":419404,
			"uri":"obj_borders03.bin"
		}
	]
}
