{
	"asset":{
		"generator":"Khronos glTF Blender I/O v4.2.57",
		"version":"2.0"
	},
	"extensionsUsed":[
		"KHR_materials_clearcoat",
		"KHR_materials_specular",
		"KHR_materials_ior"
	],
	"scene":0,
	"scenes":[
		{
			"name":"Scene",
			"nodes":[
				0,
				1
			]
		}
	],
	"nodes":[
		{
			"mesh":0,
			"name":"obj_plant04"
		},
		{
			"mesh":1,
			"name":"obj_plant04_collider"
		}
	],
	"materials":[
		{
			"doubleSided":true,
			"emissiveFactor":[
				0.10000000149011612,
				0.10000000149011612,
				0.10000000149011612
			],
			"emissiveTexture":{
				"index":0
			},
			"extensions":{
				"KHR_materials_clearcoat":{
					"clearcoatRoughnessFactor":0
				},
				"KHR_materials_specular":{
					"specularFactor":0
				},
				"KHR_materials_ior":{
					"ior":1.4500000476837158
				}
			},
			"name":"obj_plant",
			"pbrMetallicRoughness":{
				"baseColorTexture":{
					"index":1
				},
				"metallicFactor":0
			}
		},
		{
			"alphaMode":"BLEND",
			"extensions":{
				"KHR_materials_clearcoat":{
					"clearcoatRoughnessFactor":0
				},
				"KHR_materials_specular":{
					"specularFactor":0
				},
				"KHR_materials_ior":{
					"ior":1.4500000476837158
				}
			},
			"name":"obj_global_glass01",
			"pbrMetallicRoughness":{
				"baseColorFactor":[
					1,
					1,
					1,
					0.75
				],
				"baseColorTexture":{
					"index":2
				},
				"metallicFactor":0
			}
		},
		{
			"emissiveFactor":[
				0.26229405403137207,
				0.5646868348121643,
				0.921515166759491
			],
			"extensions":{
				"KHR_materials_clearcoat":{
					"clearcoatRoughnessFactor":0
				},
				"KHR_materials_specular":{
					"specularFactor":0
				},
				"KHR_materials_ior":{
					"ior":1.4500000476837158
				}
			},
			"name":"obj_global_emission01",
			"pbrMetallicRoughness":{
				"baseColorFactor":[
					0.2617267668247223,
					0.566400408744812,
					0.9218639135360718,
					1
				],
				"metallicFactor":0
			}
		}
	],
	"meshes":[
		{
			"name":"Cylinder.011",
			"primitives":[
				{
					"attributes":{
						"POSITION":0,
						"NORMAL":1,
						"TEXCOORD_0":2,
						"TEXCOORD_1":3
					},
					"indices":4,
					"material":0
				},
				{
					"attributes":{
						"POSITION":5,
						"NORMAL":6,
						"TEXCOORD_0":7,
						"TEXCOORD_1":8
					},
					"indices":9,
					"material":1
				},
				{
					"attributes":{
						"POSITION":10,
						"NORMAL":11,
						"TEXCOORD_0":12,
						"TEXCOORD_1":13
					},
					"indices":14,
					"material":2
				}
			]
		},
		{
			"name":"Cylinder.012",
			"primitives":[
				{
					"attributes":{
						"POSITION":15,
						"NORMAL":16,
						"TEXCOORD_0":17,
						"TEXCOORD_1":18
					},
					"indices":19
				}
			]
		}
	],
	"textures":[
		{
			"sampler":0,
			"source":0
		},
		{
			"sampler":0,
			"source":0
		},
		{
			"sampler":0,
			"source":1
		}
	],
	"images":[
		{
			"mimeType":"image/png",
			"name":"obj_plant",
			"uri":"textures/obj_plant.png"
		},
		{
			"mimeType":"image/png",
			"name":"obj_global_glass01",
			"uri":"textures/obj_global_glass01.png"
		}
	],
	"accessors":[
		{
			"bufferView":0,
			"componentType":5126,
			"count":982,
			"max":[
				0.41997843980789185,
				1.61220383644104,
				0.7956339120864868
			],
			"min":[
				-0.4087720215320587,
				0.00796962808817625,
				-0.5664807558059692
			],
			"type":"VEC3"
		},
		{
			"bufferView":1,
			"componentType":5126,
			"count":982,
			"type":"VEC3"
		},
		{
			"bufferView":2,
			"componentType":5126,
			"count":982,
			"type":"VEC2"
		},
		{
			"bufferView":3,
			"componentType":5126,
			"count":982,
			"type":"VEC2"
		},
		{
			"bufferView":4,
			"componentType":5123,
			"count":3210,
			"type":"SCALAR"
		},
		{
			"bufferView":5,
			"componentType":5126,
			"count":90,
			"max":[
				0.3748167157173157,
				1.229648470878601,
				0.3748166859149933
			],
			"min":[
				-0.3748167157173157,
				0.2620546817779541,
				-0.37481689453125
			],
			"type":"VEC3"
		},
		{
			"bufferView":6,
			"componentType":5126,
			"count":90,
			"type":"VEC3"
		},
		{
			"bufferView":7,
			"componentType":5126,
			"count":90,
			"type":"VEC2"
		},
		{
			"bufferView":8,
			"componentType":5126,
			"count":90,
			"type":"VEC2"
		},
		{
			"bufferView":9,
			"componentType":5123,
			"count":288,
			"type":"SCALAR"
		},
		{
			"bufferView":10,
			"componentType":5126,
			"count":72,
			"max":[
				0.3996119499206543,
				1.2349178791046143,
				0.3996118903160095
			],
			"min":[
				-0.3996119499206543,
				0.25347644090652466,
				-0.3996119797229767
			],
			"type":"VEC3"
		},
		{
			"bufferView":11,
			"componentType":5126,
			"count":72,
			"type":"VEC3"
		},
		{
			"bufferView":12,
			"componentType":5126,
			"count":72,
			"type":"VEC2"
		},
		{
			"bufferView":13,
			"componentType":5126,
			"count":72,
			"type":"VEC2"
		},
		{
			"bufferView":14,
			"componentType":5123,
			"count":204,
			"type":"SCALAR"
		},
		{
			"bufferView":15,
			"componentType":5126,
			"count":36,
			"max":[
				0.4049631953239441,
				1.2994223833084106,
				0.467611163854599
			],
			"min":[
				-0.4049631953239441,
				0.00976494513452053,
				-0.467611163854599
			],
			"type":"VEC3"
		},
		{
			"bufferView":16,
			"componentType":5126,
			"count":36,
			"type":"VEC3"
		},
		{
			"bufferView":17,
			"componentType":5126,
			"count":36,
			"type":"VEC2"
		},
		{
			"bufferView":18,
			"componentType":5126,
			"count":36,
			"type":"VEC2"
		},
		{
			"bufferView":19,
			"componentType":5123,
			"count":60,
			"type":"SCALAR"
		}
	],
	"bufferViews":[
		{
			"buffer":0,
			"byteLength":11784,
			"byteOffset":0,
			"target":34962
		},
		{
			"buffer":0,
			"byteLength":11784,
			"byteOffset":11784,
			"target":34962
		},
		{
			"buffer":0,
			"byteLength":7856,
			"byteOffset":23568,
			"target":34962
		},
		{
			"buffer":0,
			"byteLength":7856,
			"byteOffset":31424,
			"target":34962
		},
		{
			"buffer":0,
			"byteLength":6420,
			"byteOffset":39280,
			"target":34963
		},
		{
			"buffer":0,
			"byteLength":1080,
			"byteOffset":45700,
			"target":34962
		},
		{
			"buffer":0,
			"byteLength":1080,
			"byteOffset":46780,
			"target":34962
		},
		{
			"buffer":0,
			"byteLength":720,
			"byteOffset":47860,
			"target":34962
		},
		{
			"buffer":0,
			"byteLength":720,
			"byteOffset":48580,
			"target":34962
		},
		{
			"buffer":0,
			"byteLength":576,
			"byteOffset":49300,
			"target":34963
		},
		{
			"buffer":0,
			"byteLength":864,
			"byteOffset":49876,
			"target":34962
		},
		{
			"buffer":0,
			"byteLength":864,
			"byteOffset":50740,
			"target":34962
		},
		{
			"buffer":0,
			"byteLength":576,
			"byteOffset":51604,
			"target":34962
		},
		{
			"buffer":0,
			"byteLength":576,
			"byteOffset":52180,
			"target":34962
		},
		{
			"buffer":0,
			"byteLength":408,
			"byteOffset":52756,
			"target":34963
		},
		{
			"buffer":0,
			"byteLength":432,
			"byteOffset":53164,
			"target":34962
		},
		{
			"buffer":0,
			"byteLength":432,
			"byteOffset":53596,
			"target":34962
		},
		{
			"buffer":0,
			"byteLength":288,
			"byteOffset":54028,
			"target":34962
		},
		{
			"buffer":0,
			"byteLength":288,
			"byteOffset":54316,
			"target":34962
		},
		{
			"buffer":0,
			"byteLength":120,
			"byteOffset":54604,
			"target":34963
		}
	],
	"samplers":[
		{
			"magFilter":9729,
			"minFilter":9987
		}
	],
	"buffers":[
		{
			"byteLength":54724,
			"uri":"obj_plant04.bin"
		}
	]
}
