{
	"asset":{
		"generator":"Khronos glTF Blender I/O v4.1.63",
		"version":"2.0"
	},
	"extensionsUsed":[
		"KHR_materials_specular",
		"KHR_materials_ior"
	],
	"scene":0,
	"scenes":[
		{
			"name":"Scene",
			"nodes":[
				1
			]
		}
	],
	"nodes":[
		{
			"mesh":0,
			"name":"obj_coin_collider",
			"rotation":[
				1,
				0,
				0,
				1.6292068494294654e-07
			]
		},
		{
			"children":[
				0
			],
			"mesh":1,
			"name":"obj_coin"
		}
	],
	"animations":[
		{
			"channels":[
				{
					"sampler":0,
					"target":{
						"node":1,
						"path":"translation"
					}
				},
				{
					"sampler":1,
					"target":{
						"node":1,
						"path":"rotation"
					}
				},
				{
					"sampler":2,
					"target":{
						"node":1,
						"path":"scale"
					}
				}
			],
			"name":"obj_coin_stand",
			"samplers":[
				{
					"input":8,
					"interpolation":"STEP",
					"output":9
				},
				{
					"input":10,
					"interpolation":"LINEAR",
					"output":11
				},
				{
					"input":8,
					"interpolation":"STEP",
					"output":12
				}
			]
		}
	],
	"materials":[
		{
			"emissiveFactor":[
				1,
				1,
				1
			],
			"emissiveTexture":{
				"index":0
			},
			"extensions":{
				"KHR_materials_specular":{
					"specularFactor":0
				},
				"KHR_materials_ior":{
					"ior":1.4500000476837158
				}
			},
			"name":"obj_wrench",
			"pbrMetallicRoughness":{
				"baseColorTexture":{
					"index":1
				},
				"metallicFactor":0
			}
		}
	],
	"meshes":[
		{
			"name":"Cube.004",
			"primitives":[
				{
					"attributes":{
						"POSITION":0,
						"NORMAL":1,
						"TEXCOORD_0":2
					},
					"indices":3
				}
			]
		},
		{
			"name":"Mesh",
			"primitives":[
				{
					"attributes":{
						"POSITION":4,
						"NORMAL":5,
						"TEXCOORD_0":6
					},
					"indices":7,
					"material":0
				}
			]
		}
	],
	"textures":[
		{
			"sampler":0,
			"source":0
		},
		{
			"sampler":0,
			"source":1
		}
	],
	"images":[
		{
			"mimeType":"image/png",
			"name":"obj_wrench_emission",
			"uri":"textures/obj_wrench_emission.png"
		},
		{
			"mimeType":"image/png",
			"name":"obj_wrench",
			"uri":"textures/obj_wrench.png"
		}
	],
	"accessors":[
		{
			"bufferView":0,
			"componentType":5126,
			"count":24,
			"max":[
				0.19641947746276855,
				0.20626747608184814,
				0.02939218282699585
			],
			"min":[
				-0.1968832015991211,
				-0.1870352029800415,
				-0.02939218282699585
			],
			"type":"VEC3"
		},
		{
			"bufferView":1,
			"componentType":5126,
			"count":24,
			"type":"VEC3"
		},
		{
			"bufferView":2,
			"componentType":5126,
			"count":24,
			"type":"VEC2"
		},
		{
			"bufferView":3,
			"componentType":5123,
			"count":36,
			"type":"SCALAR"
		},
		{
			"bufferView":4,
			"componentType":5126,
			"count":772,
			"max":[
				0.19641946256160736,
				0.1870351880788803,
				0.02939216047525406
			],
			"min":[
				-0.1968832165002823,
				-0.20626749098300934,
				-0.029392167925834656
			],
			"type":"VEC3"
		},
		{
			"bufferView":5,
			"componentType":5126,
			"count":772,
			"type":"VEC3"
		},
		{
			"bufferView":6,
			"componentType":5126,
			"count":772,
			"type":"VEC2"
		},
		{
			"bufferView":7,
			"componentType":5123,
			"count":1938,
			"type":"SCALAR"
		},
		{
			"bufferView":8,
			"componentType":5126,
			"count":2,
			"max":[
				3
			],
			"min":[
				0
			],
			"type":"SCALAR"
		},
		{
			"bufferView":9,
			"componentType":5126,
			"count":2,
			"type":"VEC3"
		},
		{
			"bufferView":10,
			"componentType":5126,
			"count":91,
			"max":[
				3
			],
			"min":[
				0
			],
			"type":"SCALAR"
		},
		{
			"bufferView":11,
			"componentType":5126,
			"count":91,
			"type":"VEC4"
		},
		{
			"bufferView":12,
			"componentType":5126,
			"count":2,
			"type":"VEC3"
		}
	],
	"bufferViews":[
		{
			"buffer":0,
			"byteLength":288,
			"byteOffset":0,
			"target":34962
		},
		{
			"buffer":0,
			"byteLength":288,
			"byteOffset":288,
			"target":34962
		},
		{
			"buffer":0,
			"byteLength":192,
			"byteOffset":576,
			"target":34962
		},
		{
			"buffer":0,
			"byteLength":72,
			"byteOffset":768,
			"target":34963
		},
		{
			"buffer":0,
			"byteLength":9264,
			"byteOffset":840,
			"target":34962
		},
		{
			"buffer":0,
			"byteLength":9264,
			"byteOffset":10104,
			"target":34962
		},
		{
			"buffer":0,
			"byteLength":6176,
			"byteOffset":19368,
			"target":34962
		},
		{
			"buffer":0,
			"byteLength":3876,
			"byteOffset":25544,
			"target":34963
		},
		{
			"buffer":0,
			"byteLength":8,
			"byteOffset":29420
		},
		{
			"buffer":0,
			"byteLength":24,
			"byteOffset":29428
		},
		{
			"buffer":0,
			"byteLength":364,
			"byteOffset":29452
		},
		{
			"buffer":0,
			"byteLength":1456,
			"byteOffset":29816
		},
		{
			"buffer":0,
			"byteLength":24,
			"byteOffset":31272
		}
	],
	"samplers":[
		{
			"magFilter":9729,
			"minFilter":9987
		}
	],
	"buffers":[
		{
			"byteLength":31296,
			"uri":"obj_coin.bin"
		}
	]
}
