{
	"asset":{
		"generator":"Khronos glTF Blender I/O v4.2.57",
		"version":"2.0"
	},
	"extensionsUsed":[
		"KHR_materials_clearcoat",
		"KHR_materials_specular",
		"KHR_materials_ior"
	],
	"scene":0,
	"scenes":[
		{
			"name":"Scene",
			"nodes":[
				0,
				2,
				3
			]
		}
	],
	"nodes":[
		{
			"mesh":0,
			"name":"obj_tower01"
		},
		{
			"mesh":1,
			"name":"obj_tower01_platform_collider"
		},
		{
			"children":[
				1
			],
			"mesh":2,
			"name":"obj_tower01_platform",
			"translation":[
				0,
				0.10000000149011612,
				0
			]
		},
		{
			"mesh":3,
			"name":"obj_tower01_collider"
		}
	],
	"animations":[
		{
			"channels":[
				{
					"sampler":0,
					"target":{
						"node":2,
						"path":"translation"
					}
				},
				{
					"sampler":1,
					"target":{
						"node":2,
						"path":"rotation"
					}
				},
				{
					"sampler":2,
					"target":{
						"node":2,
						"path":"scale"
					}
				}
			],
			"name":"tower01_elevator",
			"samplers":[
				{
					"input":24,
					"interpolation":"LINEAR",
					"output":25
				},
				{
					"input":26,
					"interpolation":"STEP",
					"output":27
				},
				{
					"input":26,
					"interpolation":"STEP",
					"output":28
				}
			]
		}
	],
	"materials":[
		{
			"doubleSided":true,
			"emissiveFactor":[
				0.10000000149011612,
				0.10000000149011612,
				0.10000000149011612
			],
			"emissiveTexture":{
				"index":0
			},
			"extensions":{
				"KHR_materials_clearcoat":{
					"clearcoatRoughnessFactor":0
				},
				"KHR_materials_specular":{
					"specularFactor":0
				},
				"KHR_materials_ior":{
					"ior":1.4500000476837158
				}
			},
			"name":"obj_tower",
			"pbrMetallicRoughness":{
				"baseColorTexture":{
					"index":1
				},
				"metallicFactor":0
			}
		},
		{
			"doubleSided":true,
			"emissiveFactor":[
				0.26229405403137207,
				0.5646868348121643,
				0.921515166759491
			],
			"extensions":{
				"KHR_materials_specular":{
					"specularFactor":0
				},
				"KHR_materials_ior":{
					"ior":1.4500000476837158
				}
			},
			"name":"obj_global_emission01",
			"pbrMetallicRoughness":{
				"baseColorFactor":[
					0.2617267668247223,
					0.566400408744812,
					0.9218639135360718,
					1
				],
				"metallicFactor":0
			}
		},
		{
			"alphaMode":"BLEND",
			"doubleSided":true,
			"emissiveFactor":[
				1,
				1,
				1
			],
			"emissiveTexture":{
				"index":2
			},
			"extensions":{
				"KHR_materials_clearcoat":{
					"clearcoatRoughnessFactor":0
				},
				"KHR_materials_specular":{
					"specularFactor":0
				},
				"KHR_materials_ior":{
					"ior":1.4500000476837158
				}
			},
			"name":"obj_global_glass02",
			"pbrMetallicRoughness":{
				"baseColorTexture":{
					"index":3
				},
				"metallicFactor":0
			}
		}
	],
	"meshes":[
		{
			"name":"doors_low",
			"primitives":[
				{
					"attributes":{
						"POSITION":0,
						"NORMAL":1,
						"TEXCOORD_0":2
					},
					"indices":3,
					"material":0
				},
				{
					"attributes":{
						"POSITION":4,
						"NORMAL":5,
						"TEXCOORD_0":6
					},
					"indices":7,
					"material":1
				},
				{
					"attributes":{
						"POSITION":8,
						"NORMAL":9,
						"TEXCOORD_0":10
					},
					"indices":11,
					"material":2
				}
			]
		},
		{
			"name":"doors_low.001",
			"primitives":[
				{
					"attributes":{
						"POSITION":12,
						"NORMAL":13,
						"TEXCOORD_0":14
					},
					"indices":15
				}
			]
		},
		{
			"name":"doors_low.002",
			"primitives":[
				{
					"attributes":{
						"POSITION":16,
						"NORMAL":17,
						"TEXCOORD_0":18
					},
					"indices":19,
					"material":0
				}
			]
		},
		{
			"name":"Cylinder.005",
			"primitives":[
				{
					"attributes":{
						"POSITION":20,
						"NORMAL":21,
						"TEXCOORD_0":22
					},
					"indices":23
				}
			]
		}
	],
	"textures":[
		{
			"sampler":0,
			"source":0
		},
		{
			"sampler":0,
			"source":0
		},
		{
			"sampler":0,
			"source":1
		},
		{
			"sampler":0,
			"source":1
		}
	],
	"images":[
		{
			"mimeType":"image/png",
			"name":"obj_tower",
			"uri":"textures/obj_tower.png"
		},
		{
			"mimeType":"image/png",
			"name":"obj_global_glass02",
			"uri":"textures/obj_global_glass02.png"
		}
	],
	"accessors":[
		{
			"bufferView":0,
			"componentType":5126,
			"count":3651,
			"max":[
				3.902432680130005,
				11.847855567932129,
				3.874141216278076
			],
			"min":[
				-3.8895721435546875,
				0,
				-3.942268133163452
			],
			"type":"VEC3"
		},
		{
			"bufferView":1,
			"componentType":5126,
			"count":3651,
			"type":"VEC3"
		},
		{
			"bufferView":2,
			"componentType":5126,
			"count":3651,
			"type":"VEC2"
		},
		{
			"bufferView":3,
			"componentType":5123,
			"count":12792,
			"type":"SCALAR"
		},
		{
			"bufferView":4,
			"componentType":5126,
			"count":640,
			"max":[
				3.898776054382324,
				9.426239967346191,
				3.8532521724700928
			],
			"min":[
				-3.8208556175231934,
				0,
				-3.8935647010803223
			],
			"type":"VEC3"
		},
		{
			"bufferView":5,
			"componentType":5126,
			"count":640,
			"type":"VEC3"
		},
		{
			"bufferView":6,
			"componentType":5126,
			"count":640,
			"type":"VEC2"
		},
		{
			"bufferView":7,
			"componentType":5123,
			"count":1446,
			"type":"SCALAR"
		},
		{
			"bufferView":8,
			"componentType":5126,
			"count":210,
			"max":[
				3.859891653060913,
				9.138140678405762,
				3.8192989826202393
			],
			"min":[
				-3.8432276248931885,
				8.053738594055176,
				-3.8773016929626465
			],
			"type":"VEC3"
		},
		{
			"bufferView":9,
			"componentType":5126,
			"count":210,
			"type":"VEC3"
		},
		{
			"bufferView":10,
			"componentType":5126,
			"count":210,
			"type":"VEC2"
		},
		{
			"bufferView":11,
			"componentType":5123,
			"count":540,
			"type":"SCALAR"
		},
		{
			"bufferView":12,
			"componentType":5126,
			"count":44,
			"max":[
				0.927939236164093,
				0.06693732738494873,
				0.927939236164093
			],
			"min":[
				-0.9279392957687378,
				-0.013188406825065613,
				-0.927939236164093
			],
			"type":"VEC3"
		},
		{
			"bufferView":13,
			"componentType":5126,
			"count":44,
			"type":"VEC3"
		},
		{
			"bufferView":14,
			"componentType":5126,
			"count":44,
			"type":"VEC2"
		},
		{
			"bufferView":15,
			"componentType":5123,
			"count":144,
			"type":"SCALAR"
		},
		{
			"bufferView":16,
			"componentType":5126,
			"count":68,
			"max":[
				0.927939236164093,
				0.06693732738494873,
				0.927939236164093
			],
			"min":[
				-0.9279392957687378,
				-0.013188406825065613,
				-0.927939236164093
			],
			"type":"VEC3"
		},
		{
			"bufferView":17,
			"componentType":5126,
			"count":68,
			"type":"VEC3"
		},
		{
			"bufferView":18,
			"componentType":5126,
			"count":68,
			"type":"VEC2"
		},
		{
			"bufferView":19,
			"componentType":5123,
			"count":192,
			"type":"SCALAR"
		},
		{
			"bufferView":20,
			"componentType":5126,
			"count":501,
			"max":[
				4.078096389770508,
				12.15945053100586,
				4.078096389770508
			],
			"min":[
				-4.078096389770508,
				-7.450580596923828e-09,
				-4.078096389770508
			],
			"type":"VEC3"
		},
		{
			"bufferView":21,
			"componentType":5126,
			"count":501,
			"type":"VEC3"
		},
		{
			"bufferView":22,
			"componentType":5126,
			"count":501,
			"type":"VEC2"
		},
		{
			"bufferView":23,
			"componentType":5123,
			"count":1860,
			"type":"SCALAR"
		},
		{
			"bufferView":24,
			"componentType":5126,
			"count":241,
			"max":[
				8
			],
			"min":[
				0
			],
			"type":"SCALAR"
		},
		{
			"bufferView":25,
			"componentType":5126,
			"count":241,
			"type":"VEC3"
		},
		{
			"bufferView":26,
			"componentType":5126,
			"count":2,
			"max":[
				8
			],
			"min":[
				0
			],
			"type":"SCALAR"
		},
		{
			"bufferView":27,
			"componentType":5126,
			"count":2,
			"type":"VEC4"
		},
		{
			"bufferView":28,
			"componentType":5126,
			"count":2,
			"type":"VEC3"
		}
	],
	"bufferViews":[
		{
			"buffer":0,
			"byteLength":43812,
			"byteOffset":0,
			"target":34962
		},
		{
			"buffer":0,
			"byteLength":43812,
			"byteOffset":43812,
			"target":34962
		},
		{
			"buffer":0,
			"byteLength":29208,
			"byteOffset":87624,
			"target":34962
		},
		{
			"buffer":0,
			"byteLength":25584,
			"byteOffset":116832,
			"target":34963
		},
		{
			"buffer":0,
			"byteLength":7680,
			"byteOffset":142416,
			"target":34962
		},
		{
			"buffer":0,
			"byteLength":7680,
			"byteOffset":150096,
			"target":34962
		},
		{
			"buffer":0,
			"byteLength":5120,
			"byteOffset":157776,
			"target":34962
		},
		{
			"buffer":0,
			"byteLength":2892,
			"byteOffset":162896,
			"target":34963
		},
		{
			"buffer":0,
			"byteLength":2520,
			"byteOffset":165788,
			"target":34962
		},
		{
			"buffer":0,
			"byteLength":2520,
			"byteOffset":168308,
			"target":34962
		},
		{
			"buffer":0,
			"byteLength":1680,
			"byteOffset":170828,
			"target":34962
		},
		{
			"buffer":0,
			"byteLength":1080,
			"byteOffset":172508,
			"target":34963
		},
		{
			"buffer":0,
			"byteLength":528,
			"byteOffset":173588,
			"target":34962
		},
		{
			"buffer":0,
			"byteLength":528,
			"byteOffset":174116,
			"target":34962
		},
		{
			"buffer":0,
			"byteLength":352,
			"byteOffset":174644,
			"target":34962
		},
		{
			"buffer":0,
			"byteLength":288,
			"byteOffset":174996,
			"target":34963
		},
		{
			"buffer":0,
			"byteLength":816,
			"byteOffset":175284,
			"target":34962
		},
		{
			"buffer":0,
			"byteLength":816,
			"byteOffset":176100,
			"target":34962
		},
		{
			"buffer":0,
			"byteLength":544,
			"byteOffset":176916,
			"target":34962
		},
		{
			"buffer":0,
			"byteLength":384,
			"byteOffset":177460,
			"target":34963
		},
		{
			"buffer":0,
			"byteLength":6012,
			"byteOffset":177844,
			"target":34962
		},
		{
			"buffer":0,
			"byteLength":6012,
			"byteOffset":183856,
			"target":34962
		},
		{
			"buffer":0,
			"byteLength":4008,
			"byteOffset":189868,
			"target":34962
		},
		{
			"buffer":0,
			"byteLength":3720,
			"byteOffset":193876,
			"target":34963
		},
		{
			"buffer":0,
			"byteLength":964,
			"byteOffset":197596
		},
		{
			"buffer":0,
			"byteLength":2892,
			"byteOffset":198560
		},
		{
			"buffer":0,
			"byteLength":8,
			"byteOffset":201452
		},
		{
			"buffer":0,
			"byteLength":32,
			"byteOffset":201460
		},
		{
			"buffer":0,
			"byteLength":24,
			"byteOffset":201492
		}
	],
	"samplers":[
		{
			"magFilter":9729,
			"minFilter":9987
		}
	],
	"buffers":[
		{
			"byteLength":201516,
			"uri":"obj_tower01.bin"
		}
	]
}
