{
	"asset":{
		"generator":"Khronos glTF Blender I/O v4.1.63",
		"version":"2.0"
	},
	"extensionsUsed":[
		"KHR_materials_specular",
		"KHR_materials_ior"
	],
	"scene":0,
	"scenes":[
		{
			"name":"Scene",
			"nodes":[
				0,
				1
			]
		}
	],
	"nodes":[
		{
			"mesh":0,
			"name":"obj_lab07"
		},
		{
			"mesh":1,
			"name":"obj_lab07_collider"
		}
	],
	"materials":[
		{
			"emissiveFactor":[
				1,
				1,
				1
			],
			"emissiveTexture":{
				"index":0
			},
			"extensions":{
				"KHR_materials_specular":{
					"specularFactor":0
				},
				"KHR_materials_ior":{
					"ior":1.4500000476837158
				}
			},
			"name":"obj_lab07_01",
			"pbrMetallicRoughness":{
				"baseColorTexture":{
					"index":1
				},
				"metallicFactor":0
			}
		},
		{
			"alphaMode":"BLEND",
			"emissiveFactor":[
				0.30000001192092896,
				0.30000001192092896,
				0.30000001192092896
			],
			"emissiveTexture":{
				"index":2
			},
			"extensions":{
				"KHR_materials_specular":{
					"specularFactor":0
				},
				"KHR_materials_ior":{
					"ior":1.4500000476837158
				}
			},
			"name":"obj_lab07_02",
			"pbrMetallicRoughness":{
				"baseColorFactor":[
					1,
					1,
					1,
					0.30000001192092896
				],
				"baseColorTexture":{
					"index":3
				},
				"metallicFactor":0
			}
		},
		{
			"emissiveFactor":[
				0.800000011920929,
				0.800000011920929,
				0.800000011920929
			],
			"emissiveTexture":{
				"index":4
			},
			"extensions":{
				"KHR_materials_specular":{
					"specularFactor":0
				},
				"KHR_materials_ior":{
					"ior":1.4500000476837158
				}
			},
			"name":"obj_crystal01",
			"pbrMetallicRoughness":{
				"baseColorTexture":{
					"index":5
				},
				"metallicFactor":0
			}
		}
	],
	"meshes":[
		{
			"name":"Mesh.015",
			"primitives":[
				{
					"attributes":{
						"POSITION":0,
						"NORMAL":1,
						"TEXCOORD_0":2
					},
					"indices":3,
					"material":0
				},
				{
					"attributes":{
						"POSITION":4,
						"NORMAL":5,
						"TEXCOORD_0":6
					},
					"indices":7,
					"material":1
				},
				{
					"attributes":{
						"POSITION":8,
						"NORMAL":9,
						"TEXCOORD_0":10
					},
					"indices":11,
					"material":2
				}
			]
		},
		{
			"name":"Mesh.005",
			"primitives":[
				{
					"attributes":{
						"POSITION":12,
						"NORMAL":13,
						"TEXCOORD_0":14
					},
					"indices":15
				}
			]
		}
	],
	"textures":[
		{
			"sampler":0,
			"source":0
		},
		{
			"sampler":0,
			"source":1
		},
		{
			"sampler":0,
			"source":2
		},
		{
			"sampler":0,
			"source":2
		},
		{
			"sampler":0,
			"source":3
		},
		{
			"sampler":0,
			"source":4
		}
	],
	"images":[
		{
			"mimeType":"image/png",
			"name":"obj_lab07_01_emission",
			"uri":"textures/obj_lab07_01_emission.png"
		},
		{
			"mimeType":"image/png",
			"name":"obj_lab07_01",
			"uri":"textures/obj_lab07_01.png"
		},
		{
			"mimeType":"image/png",
			"name":"obj_lab07_02",
			"uri":"textures/obj_lab07_02.png"
		},
		{
			"mimeType":"image/png",
			"name":"obj_crystal01_emission",
			"uri":"textures/obj_crystal01_emission.png"
		},
		{
			"mimeType":"image/png",
			"name":"obj_crystal01",
			"uri":"textures/obj_crystal01.png"
		}
	],
	"accessors":[
		{
			"bufferView":0,
			"componentType":5126,
			"count":2007,
			"max":[
				0.5685075521469116,
				2.4382715225219727,
				0.5417869687080383
			],
			"min":[
				-0.5417869687080383,
				-3.798488978645764e-05,
				-0.5417870879173279
			],
			"type":"VEC3"
		},
		{
			"bufferView":1,
			"componentType":5126,
			"count":2007,
			"type":"VEC3"
		},
		{
			"bufferView":2,
			"componentType":5126,
			"count":2007,
			"type":"VEC2"
		},
		{
			"bufferView":3,
			"componentType":5123,
			"count":5466,
			"type":"SCALAR"
		},
		{
			"bufferView":4,
			"componentType":5126,
			"count":50,
			"max":[
				0.5064427256584167,
				1.8880789279937744,
				0.5064426064491272
			],
			"min":[
				-0.506442666053772,
				0.9241167902946472,
				-0.5064426064491272
			],
			"type":"VEC3"
		},
		{
			"bufferView":5,
			"componentType":5126,
			"count":50,
			"type":"VEC3"
		},
		{
			"bufferView":6,
			"componentType":5126,
			"count":50,
			"type":"VEC2"
		},
		{
			"bufferView":7,
			"componentType":5123,
			"count":144,
			"type":"SCALAR"
		},
		{
			"bufferView":8,
			"componentType":5126,
			"count":2520,
			"max":[
				0.46488866209983826,
				1.6709051132202148,
				0.46961575746536255
			],
			"min":[
				-0.4716593027114868,
				0.9231328368186951,
				-0.46961575746536255
			],
			"type":"VEC3"
		},
		{
			"bufferView":9,
			"componentType":5126,
			"count":2520,
			"type":"VEC3"
		},
		{
			"bufferView":10,
			"componentType":5126,
			"count":2520,
			"type":"VEC2"
		},
		{
			"bufferView":11,
			"componentType":5123,
			"count":4320,
			"type":"SCALAR"
		},
		{
			"bufferView":12,
			"componentType":5126,
			"count":36,
			"max":[
				0.57468181848526,
				2.4382712841033936,
				0.57468181848526
			],
			"min":[
				-0.57468181848526,
				-4.470348358154297e-08,
				-0.5746819972991943
			],
			"type":"VEC3"
		},
		{
			"bufferView":13,
			"componentType":5126,
			"count":36,
			"type":"VEC3"
		},
		{
			"bufferView":14,
			"componentType":5126,
			"count":36,
			"type":"VEC2"
		},
		{
			"bufferView":15,
			"componentType":5123,
			"count":96,
			"type":"SCALAR"
		}
	],
	"bufferViews":[
		{
			"buffer":0,
			"byteLength":24084,
			"byteOffset":0,
			"target":34962
		},
		{
			"buffer":0,
			"byteLength":24084,
			"byteOffset":24084,
			"target":34962
		},
		{
			"buffer":0,
			"byteLength":16056,
			"byteOffset":48168,
			"target":34962
		},
		{
			"buffer":0,
			"byteLength":10932,
			"byteOffset":64224,
			"target":34963
		},
		{
			"buffer":0,
			"byteLength":600,
			"byteOffset":75156,
			"target":34962
		},
		{
			"buffer":0,
			"byteLength":600,
			"byteOffset":75756,
			"target":34962
		},
		{
			"buffer":0,
			"byteLength":400,
			"byteOffset":76356,
			"target":34962
		},
		{
			"buffer":0,
			"byteLength":288,
			"byteOffset":76756,
			"target":34963
		},
		{
			"buffer":0,
			"byteLength":30240,
			"byteOffset":77044,
			"target":34962
		},
		{
			"buffer":0,
			"byteLength":30240,
			"byteOffset":107284,
			"target":34962
		},
		{
			"buffer":0,
			"byteLength":20160,
			"byteOffset":137524,
			"target":34962
		},
		{
			"buffer":0,
			"byteLength":8640,
			"byteOffset":157684,
			"target":34963
		},
		{
			"buffer":0,
			"byteLength":432,
			"byteOffset":166324,
			"target":34962
		},
		{
			"buffer":0,
			"byteLength":432,
			"byteOffset":166756,
			"target":34962
		},
		{
			"buffer":0,
			"byteLength":288,
			"byteOffset":167188,
			"target":34962
		},
		{
			"buffer":0,
			"byteLength":192,
			"byteOffset":167476,
			"target":34963
		}
	],
	"samplers":[
		{
			"magFilter":9729,
			"minFilter":9987
		}
	],
	"buffers":[
		{
			"byteLength":167668,
			"uri":"obj_lab07.bin"
		}
	]
}
