{
	"asset":{
		"generator":"Khronos glTF Blender I/O v4.2.57",
		"version":"2.0"
	},
	"extensionsUsed":[
		"KHR_materials_specular",
		"KHR_materials_ior"
	],
	"scene":0,
	"scenes":[
		{
			"name":"Scene",
			"nodes":[
				8
			]
		}
	],
	"nodes":[
		{
			"name":"Bone.005",
			"rotation":[
				0,
				0,
				-7.105427357601002e-15,
				1
			],
			"translation":[
				-1.1368679706403456e-13,
				-1.1723955140041653e-13,
				0
			]
		},
		{
			"children":[
				0
			],
			"name":"Bone.004",
			"rotation":[
				0,
				0,
				-7.105427357601002e-15,
				1
			],
			"translation":[
				-1.1368679706403456e-13,
				-1.1723955140041653e-13,
				0
			]
		},
		{
			"children":[
				1
			],
			"name":"Bone.003",
			"rotation":[
				0,
				0,
				-7.105427357601002e-15,
				1
			],
			"translation":[
				-1.1368679706403456e-13,
				-1.1723955140041653e-13,
				0
			]
		},
		{
			"children":[
				2
			],
			"name":"Bone.002",
			"rotation":[
				0,
				0,
				-7.105427357601002e-15,
				1
			],
			"translation":[
				-1.1368679706403456e-13,
				-1.1723955140041653e-13,
				0
			]
		},
		{
			"mesh":1,
			"name":"obj_stars_collider",
			"rotation":[
				4.1941664363776e-08,
				4.820880583622511e-09,
				0.258819043636322,
				0.9659258127212524
			],
			"scale":[
				0.9999998807907104,
				0.9999998807907104,
				0.9999999403953552
			],
			"translation":[
				3.2403485774993896,
				-5.6124467849731445,
				-5.424022674560547e-06
			]
		},
		{
			"children":[
				3,
				4
			],
			"name":"Bone.001",
			"rotation":[
				0,
				0,
				-7.105427357601002e-15,
				1
			],
			"translation":[
				-5.684341886080802e-14,
				-6.483913898468018,
				0
			]
		},
		{
			"children":[
				5
			],
			"name":"stars",
			"rotation":[
				0,
				0,
				-7.105427357601002e-15,
				1
			]
		},
		{
			"mesh":0,
			"name":"obj_stars_rings",
			"skin":0
		},
		{
			"children":[
				7,
				6
			],
			"name":"Armature",
			"rotation":[
				0,
				0,
				-0.7071068286895752,
				0.7071067094802856
			]
		}
	],
	"animations":[
		{
			"channels":[
				{
					"sampler":0,
					"target":{
						"node":6,
						"path":"translation"
					}
				},
				{
					"sampler":1,
					"target":{
						"node":6,
						"path":"rotation"
					}
				},
				{
					"sampler":2,
					"target":{
						"node":6,
						"path":"scale"
					}
				},
				{
					"sampler":3,
					"target":{
						"node":5,
						"path":"translation"
					}
				},
				{
					"sampler":4,
					"target":{
						"node":5,
						"path":"rotation"
					}
				},
				{
					"sampler":5,
					"target":{
						"node":5,
						"path":"scale"
					}
				},
				{
					"sampler":6,
					"target":{
						"node":3,
						"path":"translation"
					}
				},
				{
					"sampler":7,
					"target":{
						"node":3,
						"path":"rotation"
					}
				},
				{
					"sampler":8,
					"target":{
						"node":3,
						"path":"scale"
					}
				},
				{
					"sampler":9,
					"target":{
						"node":2,
						"path":"translation"
					}
				},
				{
					"sampler":10,
					"target":{
						"node":2,
						"path":"rotation"
					}
				},
				{
					"sampler":11,
					"target":{
						"node":2,
						"path":"scale"
					}
				},
				{
					"sampler":12,
					"target":{
						"node":1,
						"path":"translation"
					}
				},
				{
					"sampler":13,
					"target":{
						"node":1,
						"path":"rotation"
					}
				},
				{
					"sampler":14,
					"target":{
						"node":1,
						"path":"scale"
					}
				},
				{
					"sampler":15,
					"target":{
						"node":0,
						"path":"translation"
					}
				},
				{
					"sampler":16,
					"target":{
						"node":0,
						"path":"rotation"
					}
				},
				{
					"sampler":17,
					"target":{
						"node":0,
						"path":"scale"
					}
				}
			],
			"name":"stand",
			"samplers":[
				{
					"input":29,
					"interpolation":"STEP",
					"output":30
				},
				{
					"input":31,
					"interpolation":"LINEAR",
					"output":32
				},
				{
					"input":29,
					"interpolation":"STEP",
					"output":33
				},
				{
					"input":29,
					"interpolation":"STEP",
					"output":34
				},
				{
					"input":31,
					"interpolation":"LINEAR",
					"output":35
				},
				{
					"input":29,
					"interpolation":"STEP",
					"output":36
				},
				{
					"input":29,
					"interpolation":"LINEAR",
					"output":37
				},
				{
					"input":31,
					"interpolation":"LINEAR",
					"output":38
				},
				{
					"input":29,
					"interpolation":"STEP",
					"output":39
				},
				{
					"input":29,
					"interpolation":"LINEAR",
					"output":40
				},
				{
					"input":31,
					"interpolation":"LINEAR",
					"output":41
				},
				{
					"input":29,
					"interpolation":"STEP",
					"output":42
				},
				{
					"input":29,
					"interpolation":"LINEAR",
					"output":43
				},
				{
					"input":31,
					"interpolation":"LINEAR",
					"output":44
				},
				{
					"input":29,
					"interpolation":"LINEAR",
					"output":45
				},
				{
					"input":29,
					"interpolation":"LINEAR",
					"output":46
				},
				{
					"input":29,
					"interpolation":"LINEAR",
					"output":47
				},
				{
					"input":29,
					"interpolation":"STEP",
					"output":48
				}
			]
		}
	],
	"materials":[
		{
			"doubleSided":true,
			"emissiveFactor":[
				0.10000000149011612,
				0.10000000149011612,
				0.10000000149011612
			],
			"emissiveTexture":{
				"index":0
			},
			"extensions":{
				"KHR_materials_specular":{
					"specularFactor":0
				},
				"KHR_materials_ior":{
					"ior":1.4500000476837158
				}
			},
			"name":"obj_stars02",
			"pbrMetallicRoughness":{
				"baseColorTexture":{
					"index":1
				},
				"metallicFactor":0
			}
		},
		{
			"doubleSided":true,
			"emissiveFactor":[
				1,
				1,
				1
			],
			"emissiveTexture":{
				"index":2
			},
			"extensions":{
				"KHR_materials_specular":{
					"specularFactor":0
				},
				"KHR_materials_ior":{
					"ior":1.4500000476837158
				}
			},
			"name":"obj_stars01",
			"pbrMetallicRoughness":{
				"baseColorTexture":{
					"index":3
				},
				"metallicFactor":0
			}
		},
		{
			"doubleSided":true,
			"emissiveFactor":[
				0.10000000149011612,
				0.10000000149011612,
				0.10000000149011612
			],
			"emissiveTexture":{
				"index":4
			},
			"extensions":{
				"KHR_materials_specular":{
					"specularFactor":0
				},
				"KHR_materials_ior":{
					"ior":1.4500000476837158
				}
			},
			"name":"obj_stars03",
			"pbrMetallicRoughness":{
				"baseColorTexture":{
					"index":5
				},
				"metallicFactor":0
			}
		},
		{
			"emissiveFactor":[
				0.26229405403137207,
				0.5646868348121643,
				0.921515166759491
			],
			"extensions":{
				"KHR_materials_specular":{
					"specularFactor":0
				},
				"KHR_materials_ior":{
					"ior":1.4500000476837158
				}
			},
			"name":"obj_global_emission01",
			"pbrMetallicRoughness":{
				"baseColorFactor":[
					0.2617267668247223,
					0.566400408744812,
					0.9218639135360718,
					1
				],
				"metallicFactor":0
			}
		}
	],
	"meshes":[
		{
			"name":"Mesh.057",
			"primitives":[
				{
					"attributes":{
						"POSITION":0,
						"NORMAL":1,
						"TEXCOORD_0":2,
						"JOINTS_0":3,
						"WEIGHTS_0":4
					},
					"indices":5,
					"material":0
				},
				{
					"attributes":{
						"POSITION":6,
						"NORMAL":7,
						"TEXCOORD_0":8,
						"JOINTS_0":9,
						"WEIGHTS_0":10
					},
					"indices":11,
					"material":1
				},
				{
					"attributes":{
						"POSITION":12,
						"NORMAL":13,
						"TEXCOORD_0":14,
						"JOINTS_0":15,
						"WEIGHTS_0":16
					},
					"indices":17,
					"material":2
				},
				{
					"attributes":{
						"POSITION":18,
						"NORMAL":19,
						"TEXCOORD_0":20,
						"JOINTS_0":21,
						"WEIGHTS_0":22
					},
					"indices":23,
					"material":3
				}
			]
		},
		{
			"name":"Mesh.059",
			"primitives":[
				{
					"attributes":{
						"POSITION":25,
						"NORMAL":26,
						"TEXCOORD_0":27
					},
					"indices":28
				}
			]
		}
	],
	"textures":[
		{
			"sampler":0,
			"source":0
		},
		{
			"sampler":0,
			"source":0
		},
		{
			"sampler":0,
			"source":1
		},
		{
			"sampler":0,
			"source":2
		},
		{
			"sampler":0,
			"source":3
		},
		{
			"sampler":0,
			"source":3
		}
	],
	"images":[
		{
			"mimeType":"image/png",
			"name":"obj_stars02",
			"uri":"textures/obj_stars02.png"
		},
		{
			"mimeType":"image/png",
			"name":"obj_stars01_emission",
			"uri":"textures/obj_stars01_emission.png"
		},
		{
			"mimeType":"image/png",
			"name":"obj_stars01",
			"uri":"textures/obj_stars01.png"
		},
		{
			"mimeType":"image/png",
			"name":"obj_stars03",
			"uri":"textures/obj_stars03.png"
		}
	],
	"skins":[
		{
			"inverseBindMatrices":24,
			"joints":[
				6,
				5,
				3,
				2,
				1,
				0
			],
			"name":"Armature"
		}
	],
	"accessors":[
		{
			"bufferView":0,
			"componentType":5126,
			"count":650,
			"max":[
				-3.2737209796905518,
				3.227877378463745,
				0.1414089947938919
			],
			"min":[
				-9.694110870361328,
				-3.2278757095336914,
				-0.1977718323469162
			],
			"type":"VEC3"
		},
		{
			"bufferView":1,
			"componentType":5126,
			"count":650,
			"type":"VEC3"
		},
		{
			"bufferView":2,
			"componentType":5126,
			"count":650,
			"type":"VEC2"
		},
		{
			"bufferView":3,
			"componentType":5121,
			"count":650,
			"type":"VEC4"
		},
		{
			"bufferView":4,
			"componentType":5126,
			"count":650,
			"type":"VEC4"
		},
		{
			"bufferView":5,
			"componentType":5123,
			"count":1788,
			"type":"SCALAR"
		},
		{
			"bufferView":6,
			"componentType":5126,
			"count":688,
			"max":[
				-3.4527266025543213,
				3.0047004222869873,
				0.19588693976402283
			],
			"min":[
				-9.536162376403809,
				-3.0049633979797363,
				-0.19588762521743774
			],
			"type":"VEC3"
		},
		{
			"bufferView":7,
			"componentType":5126,
			"count":688,
			"type":"VEC3"
		},
		{
			"bufferView":8,
			"componentType":5126,
			"count":688,
			"type":"VEC2"
		},
		{
			"bufferView":9,
			"componentType":5121,
			"count":688,
			"type":"VEC4"
		},
		{
			"bufferView":10,
			"componentType":5126,
			"count":688,
			"type":"VEC4"
		},
		{
			"bufferView":11,
			"componentType":5123,
			"count":1416,
			"type":"SCALAR"
		},
		{
			"bufferView":12,
			"componentType":5126,
			"count":272,
			"max":[
				-3.6882123947143555,
				2.780391216278076,
				0.1140836700797081
			],
			"min":[
				-9.279619216918945,
				-2.780388355255127,
				-0.11408374458551407
			],
			"type":"VEC3"
		},
		{
			"bufferView":13,
			"componentType":5126,
			"count":272,
			"type":"VEC3"
		},
		{
			"bufferView":14,
			"componentType":5126,
			"count":272,
			"type":"VEC2"
		},
		{
			"bufferView":15,
			"componentType":5121,
			"count":272,
			"type":"VEC4"
		},
		{
			"bufferView":16,
			"componentType":5126,
			"count":272,
			"type":"VEC4"
		},
		{
			"bufferView":17,
			"componentType":5123,
			"count":720,
			"type":"SCALAR"
		},
		{
			"bufferView":18,
			"componentType":5126,
			"count":1000,
			"max":[
				-3.1996161937713623,
				2.328153371810913,
				0.9509334564208984
			],
			"min":[
				-9.768214225769043,
				-2.3281517028808594,
				-0.9509337544441223
			],
			"type":"VEC3"
		},
		{
			"bufferView":19,
			"componentType":5126,
			"count":1000,
			"type":"VEC3"
		},
		{
			"bufferView":20,
			"componentType":5126,
			"count":1000,
			"type":"VEC2"
		},
		{
			"bufferView":21,
			"componentType":5121,
			"count":1000,
			"type":"VEC4"
		},
		{
			"bufferView":22,
			"componentType":5126,
			"count":1000,
			"type":"VEC4"
		},
		{
			"bufferView":23,
			"componentType":5123,
			"count":3624,
			"type":"SCALAR"
		},
		{
			"bufferView":24,
			"componentType":5126,
			"count":6,
			"type":"MAT4"
		},
		{
			"bufferView":25,
			"componentType":5126,
			"count":69,
			"max":[
				3.4436967372894287,
				10.006750106811523,
				3.4437012672424316
			],
			"min":[
				-3.4436967372894287,
				2.7902672290802,
				-3.443692207336426
			],
			"type":"VEC3"
		},
		{
			"bufferView":26,
			"componentType":5126,
			"count":69,
			"type":"VEC3"
		},
		{
			"bufferView":27,
			"componentType":5126,
			"count":69,
			"type":"VEC2"
		},
		{
			"bufferView":28,
			"componentType":5123,
			"count":312,
			"type":"SCALAR"
		},
		{
			"bufferView":29,
			"componentType":5126,
			"count":2,
			"max":[
				7.541666666666667
			],
			"min":[
				0
			],
			"type":"SCALAR"
		},
		{
			"bufferView":30,
			"componentType":5126,
			"count":2,
			"type":"VEC3"
		},
		{
			"bufferView":31,
			"componentType":5126,
			"count":182,
			"max":[
				7.541666666666667
			],
			"min":[
				0
			],
			"type":"SCALAR"
		},
		{
			"bufferView":32,
			"componentType":5126,
			"count":182,
			"type":"VEC4"
		},
		{
			"bufferView":33,
			"componentType":5126,
			"count":2,
			"type":"VEC3"
		},
		{
			"bufferView":34,
			"componentType":5126,
			"count":2,
			"type":"VEC3"
		},
		{
			"bufferView":35,
			"componentType":5126,
			"count":182,
			"type":"VEC4"
		},
		{
			"bufferView":36,
			"componentType":5126,
			"count":2,
			"type":"VEC3"
		},
		{
			"bufferView":37,
			"componentType":5126,
			"count":2,
			"type":"VEC3"
		},
		{
			"bufferView":38,
			"componentType":5126,
			"count":182,
			"type":"VEC4"
		},
		{
			"bufferView":39,
			"componentType":5126,
			"count":2,
			"type":"VEC3"
		},
		{
			"bufferView":40,
			"componentType":5126,
			"count":2,
			"type":"VEC3"
		},
		{
			"bufferView":41,
			"componentType":5126,
			"count":182,
			"type":"VEC4"
		},
		{
			"bufferView":42,
			"componentType":5126,
			"count":2,
			"type":"VEC3"
		},
		{
			"bufferView":43,
			"componentType":5126,
			"count":2,
			"type":"VEC3"
		},
		{
			"bufferView":44,
			"componentType":5126,
			"count":182,
			"type":"VEC4"
		},
		{
			"bufferView":45,
			"componentType":5126,
			"count":2,
			"type":"VEC3"
		},
		{
			"bufferView":46,
			"componentType":5126,
			"count":2,
			"type":"VEC3"
		},
		{
			"bufferView":47,
			"componentType":5126,
			"count":2,
			"type":"VEC4"
		},
		{
			"bufferView":48,
			"componentType":5126,
			"count":2,
			"type":"VEC3"
		}
	],
	"bufferViews":[
		{
			"buffer":0,
			"byteLength":7800,
			"byteOffset":0,
			"target":34962
		},
		{
			"buffer":0,
			"byteLength":7800,
			"byteOffset":7800,
			"target":34962
		},
		{
			"buffer":0,
			"byteLength":5200,
			"byteOffset":15600,
			"target":34962
		},
		{
			"buffer":0,
			"byteLength":2600,
			"byteOffset":20800,
			"target":34962
		},
		{
			"buffer":0,
			"byteLength":10400,
			"byteOffset":23400,
			"target":34962
		},
		{
			"buffer":0,
			"byteLength":3576,
			"byteOffset":33800,
			"target":34963
		},
		{
			"buffer":0,
			"byteLength":8256,
			"byteOffset":37376,
			"target":34962
		},
		{
			"buffer":0,
			"byteLength":8256,
			"byteOffset":45632,
			"target":34962
		},
		{
			"buffer":0,
			"byteLength":5504,
			"byteOffset":53888,
			"target":34962
		},
		{
			"buffer":0,
			"byteLength":2752,
			"byteOffset":59392,
			"target":34962
		},
		{
			"buffer":0,
			"byteLength":11008,
			"byteOffset":62144,
			"target":34962
		},
		{
			"buffer":0,
			"byteLength":2832,
			"byteOffset":73152,
			"target":34963
		},
		{
			"buffer":0,
			"byteLength":3264,
			"byteOffset":75984,
			"target":34962
		},
		{
			"buffer":0,
			"byteLength":3264,
			"byteOffset":79248,
			"target":34962
		},
		{
			"buffer":0,
			"byteLength":2176,
			"byteOffset":82512,
			"target":34962
		},
		{
			"buffer":0,
			"byteLength":1088,
			"byteOffset":84688,
			"target":34962
		},
		{
			"buffer":0,
			"byteLength":4352,
			"byteOffset":85776,
			"target":34962
		},
		{
			"buffer":0,
			"byteLength":1440,
			"byteOffset":90128,
			"target":34963
		},
		{
			"buffer":0,
			"byteLength":12000,
			"byteOffset":91568,
			"target":34962
		},
		{
			"buffer":0,
			"byteLength":12000,
			"byteOffset":103568,
			"target":34962
		},
		{
			"buffer":0,
			"byteLength":8000,
			"byteOffset":115568,
			"target":34962
		},
		{
			"buffer":0,
			"byteLength":4000,
			"byteOffset":123568,
			"target":34962
		},
		{
			"buffer":0,
			"byteLength":16000,
			"byteOffset":127568,
			"target":34962
		},
		{
			"buffer":0,
			"byteLength":7248,
			"byteOffset":143568,
			"target":34963
		},
		{
			"buffer":0,
			"byteLength":384,
			"byteOffset":150816
		},
		{
			"buffer":0,
			"byteLength":828,
			"byteOffset":151200,
			"target":34962
		},
		{
			"buffer":0,
			"byteLength":828,
			"byteOffset":152028,
			"target":34962
		},
		{
			"buffer":0,
			"byteLength":552,
			"byteOffset":152856,
			"target":34962
		},
		{
			"buffer":0,
			"byteLength":624,
			"byteOffset":153408,
			"target":34963
		},
		{
			"buffer":0,
			"byteLength":8,
			"byteOffset":154032
		},
		{
			"buffer":0,
			"byteLength":24,
			"byteOffset":154040
		},
		{
			"buffer":0,
			"byteLength":728,
			"byteOffset":154064
		},
		{
			"buffer":0,
			"byteLength":2912,
			"byteOffset":154792
		},
		{
			"buffer":0,
			"byteLength":24,
			"byteOffset":157704
		},
		{
			"buffer":0,
			"byteLength":24,
			"byteOffset":157728
		},
		{
			"buffer":0,
			"byteLength":2912,
			"byteOffset":157752
		},
		{
			"buffer":0,
			"byteLength":24,
			"byteOffset":160664
		},
		{
			"buffer":0,
			"byteLength":24,
			"byteOffset":160688
		},
		{
			"buffer":0,
			"byteLength":2912,
			"byteOffset":160712
		},
		{
			"buffer":0,
			"byteLength":24,
			"byteOffset":163624
		},
		{
			"buffer":0,
			"byteLength":24,
			"byteOffset":163648
		},
		{
			"buffer":0,
			"byteLength":2912,
			"byteOffset":163672
		},
		{
			"buffer":0,
			"byteLength":24,
			"byteOffset":166584
		},
		{
			"buffer":0,
			"byteLength":24,
			"byteOffset":166608
		},
		{
			"buffer":0,
			"byteLength":2912,
			"byteOffset":166632
		},
		{
			"buffer":0,
			"byteLength":24,
			"byteOffset":169544
		},
		{
			"buffer":0,
			"byteLength":24,
			"byteOffset":169568
		},
		{
			"buffer":0,
			"byteLength":32,
			"byteOffset":169592
		},
		{
			"buffer":0,
			"byteLength":24,
			"byteOffset":169624
		}
	],
	"samplers":[
		{
			"magFilter":9729,
			"minFilter":9987
		}
	],
	"buffers":[
		{
			"byteLength":169648,
			"uri":"obj_stars.bin"
		}
	]
}
