{
	"asset":{
		"generator":"Khronos glTF Blender I/O v4.1.63",
		"version":"2.0"
	},
	"extensionsUsed":[
		"KHR_materials_specular",
		"KHR_materials_ior"
	],
	"scene":0,
	"scenes":[
		{
			"name":"Scene",
			"nodes":[
				2
			]
		}
	],
	"nodes":[
		{
			"mesh":0,
			"name":"obj_lamp03_collider",
			"rotation":[
				0.70710688829422,
				0,
				0,
				0.7071066498756409
			]
		},
		{
			"mesh":1,
			"name":"obj_lamp03_mesh",
			"rotation":[
				0.70710688829422,
				0,
				0,
				0.7071066498756409
			]
		},
		{
			"children":[
				0,
				1
			],
			"name":"obj_lamp03_root"
		}
	],
	"materials":[
		{
			"emissiveFactor":[
				0.07999999821186066,
				0.07999999821186066,
				0.07999999821186066
			],
			"emissiveTexture":{
				"index":0
			},
			"extensions":{
				"KHR_materials_specular":{
					"specularFactor":0
				},
				"KHR_materials_ior":{
					"ior":1.4500000476837158
				}
			},
			"name":"obj_lamp01",
			"pbrMetallicRoughness":{
				"baseColorTexture":{
					"index":1
				},
				"metallicFactor":0
			}
		},
		{
			"alphaMode":"BLEND",
			"extensions":{
				"KHR_materials_specular":{
					"specularFactor":0
				},
				"KHR_materials_ior":{
					"ior":1.4500000476837158
				}
			},
			"name":"obj_global_glass01",
			"pbrMetallicRoughness":{
				"baseColorFactor":[
					1,
					1,
					1,
					0.75
				],
				"baseColorTexture":{
					"index":2
				},
				"metallicFactor":0
			}
		}
	],
	"meshes":[
		{
			"name":"Cylinder002.001",
			"primitives":[
				{
					"attributes":{
						"POSITION":0,
						"NORMAL":1,
						"TEXCOORD_0":2
					},
					"indices":3
				}
			]
		},
		{
			"name":"Cylinder002.003",
			"primitives":[
				{
					"attributes":{
						"POSITION":4,
						"NORMAL":5,
						"TEXCOORD_0":6
					},
					"indices":7,
					"material":0
				},
				{
					"attributes":{
						"POSITION":8,
						"NORMAL":9,
						"TEXCOORD_0":10
					},
					"indices":11,
					"material":1
				}
			]
		}
	],
	"textures":[
		{
			"sampler":0,
			"source":0
		},
		{
			"sampler":0,
			"source":0
		},
		{
			"sampler":0,
			"source":1
		}
	],
	"images":[
		{
			"mimeType":"image/png",
			"name":"obj_lamp01",
			"uri":"textures/obj_lamp01.png"
		},
		{
			"mimeType":"image/png",
			"name":"obj_global_glass01",
			"uri":"textures/obj_global_glass01.png"
		}
	],
	"accessors":[
		{
			"bufferView":0,
			"componentType":5126,
			"count":32,
			"max":[
				0.32535213232040405,
				0.3756835460662842,
				0.007807859219610691
			],
			"min":[
				-0.32535213232040405,
				-0.3756835460662842,
				-2.2401480674743652
			],
			"type":"VEC3"
		},
		{
			"bufferView":1,
			"componentType":5126,
			"count":32,
			"type":"VEC3"
		},
		{
			"bufferView":2,
			"componentType":5126,
			"count":32,
			"type":"VEC2"
		},
		{
			"bufferView":3,
			"componentType":5123,
			"count":108,
			"type":"SCALAR"
		},
		{
			"bufferView":4,
			"componentType":5126,
			"count":460,
			"max":[
				0.33609873056411743,
				0.33609873056411743,
				0.0010579823283478618
			],
			"min":[
				-0.33609873056411743,
				-0.33609873056411743,
				-2.235858917236328
			],
			"type":"VEC3"
		},
		{
			"bufferView":5,
			"componentType":5126,
			"count":460,
			"type":"VEC3"
		},
		{
			"bufferView":6,
			"componentType":5126,
			"count":460,
			"type":"VEC2"
		},
		{
			"bufferView":7,
			"componentType":5123,
			"count":1824,
			"type":"SCALAR"
		},
		{
			"bufferView":8,
			"componentType":5126,
			"count":55,
			"max":[
				0.22483891248703003,
				0.20915217697620392,
				-0.7068395614624023
			],
			"min":[
				-0.2149905264377594,
				-0.20915217697620392,
				-1.9058797359466553
			],
			"type":"VEC3"
		},
		{
			"bufferView":9,
			"componentType":5126,
			"count":55,
			"type":"VEC3"
		},
		{
			"bufferView":10,
			"componentType":5126,
			"count":55,
			"type":"VEC2"
		},
		{
			"bufferView":11,
			"componentType":5123,
			"count":240,
			"type":"SCALAR"
		}
	],
	"bufferViews":[
		{
			"buffer":0,
			"byteLength":384,
			"byteOffset":0,
			"target":34962
		},
		{
			"buffer":0,
			"byteLength":384,
			"byteOffset":384,
			"target":34962
		},
		{
			"buffer":0,
			"byteLength":256,
			"byteOffset":768,
			"target":34962
		},
		{
			"buffer":0,
			"byteLength":216,
			"byteOffset":1024,
			"target":34963
		},
		{
			"buffer":0,
			"byteLength":5520,
			"byteOffset":1240,
			"target":34962
		},
		{
			"buffer":0,
			"byteLength":5520,
			"byteOffset":6760,
			"target":34962
		},
		{
			"buffer":0,
			"byteLength":3680,
			"byteOffset":12280,
			"target":34962
		},
		{
			"buffer":0,
			"byteLength":3648,
			"byteOffset":15960,
			"target":34963
		},
		{
			"buffer":0,
			"byteLength":660,
			"byteOffset":19608,
			"target":34962
		},
		{
			"buffer":0,
			"byteLength":660,
			"byteOffset":20268,
			"target":34962
		},
		{
			"buffer":0,
			"byteLength":440,
			"byteOffset":20928,
			"target":34962
		},
		{
			"buffer":0,
			"byteLength":480,
			"byteOffset":21368,
			"target":34963
		}
	],
	"samplers":[
		{
			"magFilter":9729,
			"minFilter":9987
		}
	],
	"buffers":[
		{
			"byteLength":21848,
			"uri":"obj_lamp03.bin"
		}
	]
}
