{
	"asset":{
		"generator":"Khronos glTF Blender I/O v4.1.63",
		"version":"2.0"
	},
	"extensionsUsed":[
		"KHR_materials_specular",
		"KHR_materials_ior"
	],
	"scene":0,
	"scenes":[
		{
			"name":"Scene",
			"nodes":[
				0,
				1
			]
		}
	],
	"nodes":[
		{
			"mesh":0,
			"name":"obj_stargazer"
		},
		{
			"mesh":1,
			"name":"obj_stargazer_collider"
		}
	],
	"materials":[
		{
			"emissiveFactor":[
				1,
				1,
				1
			],
			"emissiveTexture":{
				"index":0
			},
			"extensions":{
				"KHR_materials_specular":{
					"specularFactor":0
				},
				"KHR_materials_ior":{
					"ior":1.4500000476837158
				}
			},
			"name":"obj_stargazer",
			"pbrMetallicRoughness":{
				"baseColorTexture":{
					"index":1
				},
				"metallicFactor":0
			}
		}
	],
	"meshes":[
		{
			"name":"Mesh.021",
			"primitives":[
				{
					"attributes":{
						"POSITION":0,
						"NORMAL":1,
						"TEXCOORD_0":2
					},
					"indices":3,
					"material":0
				}
			]
		},
		{
			"name":"Mesh.020",
			"primitives":[
				{
					"attributes":{
						"POSITION":4,
						"NORMAL":5,
						"TEXCOORD_0":6
					},
					"indices":7
				}
			]
		}
	],
	"textures":[
		{
			"sampler":0,
			"source":0
		},
		{
			"sampler":0,
			"source":1
		}
	],
	"images":[
		{
			"mimeType":"image/png",
			"name":"obj_stargazer_emission",
			"uri":"textures/obj_stargazer_emission.png"
		},
		{
			"mimeType":"image/png",
			"name":"obj_stargazer",
			"uri":"textures/obj_stargazer.png"
		}
	],
	"accessors":[
		{
			"bufferView":0,
			"componentType":5126,
			"count":3274,
			"max":[
				0.8173333406448364,
				2.211993932723999,
				2.117924451828003
			],
			"min":[
				-0.6622876524925232,
				-1.973944918631787e-08,
				-0.6168963313102722
			],
			"type":"VEC3"
		},
		{
			"bufferView":1,
			"componentType":5126,
			"count":3274,
			"type":"VEC3"
		},
		{
			"bufferView":2,
			"componentType":5126,
			"count":3274,
			"type":"VEC2"
		},
		{
			"bufferView":3,
			"componentType":5123,
			"count":10476,
			"type":"SCALAR"
		},
		{
			"bufferView":4,
			"componentType":5126,
			"count":327,
			"max":[
				0.7740648984909058,
				2.265256404876709,
				2.12005877494812
			],
			"min":[
				-0.7197673916816711,
				-1.7890871006898124e-08,
				-0.7197673320770264
			],
			"type":"VEC3"
		},
		{
			"bufferView":5,
			"componentType":5126,
			"count":327,
			"type":"VEC3"
		},
		{
			"bufferView":6,
			"componentType":5126,
			"count":327,
			"type":"VEC2"
		},
		{
			"bufferView":7,
			"componentType":5123,
			"count":612,
			"type":"SCALAR"
		}
	],
	"bufferViews":[
		{
			"buffer":0,
			"byteLength":39288,
			"byteOffset":0,
			"target":34962
		},
		{
			"buffer":0,
			"byteLength":39288,
			"byteOffset":39288,
			"target":34962
		},
		{
			"buffer":0,
			"byteLength":26192,
			"byteOffset":78576,
			"target":34962
		},
		{
			"buffer":0,
			"byteLength":20952,
			"byteOffset":104768,
			"target":34963
		},
		{
			"buffer":0,
			"byteLength":3924,
			"byteOffset":125720,
			"target":34962
		},
		{
			"buffer":0,
			"byteLength":3924,
			"byteOffset":129644,
			"target":34962
		},
		{
			"buffer":0,
			"byteLength":2616,
			"byteOffset":133568,
			"target":34962
		},
		{
			"buffer":0,
			"byteLength":1224,
			"byteOffset":136184,
			"target":34963
		}
	],
	"samplers":[
		{
			"magFilter":9729,
			"minFilter":9987
		}
	],
	"buffers":[
		{
			"byteLength":137408,
			"uri":"obj_stargazer.bin"
		}
	]
}
