{
	"asset":{
		"generator":"Khronos glTF Blender I/O v4.2.57",
		"version":"2.0"
	},
	"extensionsUsed":[
		"KHR_materials_clearcoat",
		"KHR_materials_specular",
		"KHR_materials_ior"
	],
	"scene":0,
	"scenes":[
		{
			"name":"Scene",
			"nodes":[
				0,
				1,
				12
			]
		}
	],
	"nodes":[
		{
			"mesh":0,
			"name":"obj_pine03"
		},
		{
			"mesh":1,
			"name":"obj_pine03_collider"
		},
		{
			"name":"fallens.001",
			"rotation":[
				0,
				1.1920928955078125e-07,
				0,
				1
			],
			"translation":[
				0,
				-0.042436838150024414,
				0
			]
		},
		{
			"name":"fallens.002",
			"rotation":[
				0,
				1.1920928955078125e-07,
				0,
				1
			],
			"translation":[
				0,
				-0.042436838150024414,
				0
			]
		},
		{
			"name":"fallens.003",
			"rotation":[
				0,
				1.1920928955078125e-07,
				0,
				1
			],
			"translation":[
				0,
				-0.042436838150024414,
				0
			]
		},
		{
			"name":"fallens.004",
			"rotation":[
				0,
				1.1920928955078125e-07,
				0,
				1
			],
			"translation":[
				0,
				-0.042436838150024414,
				0
			]
		},
		{
			"name":"fallens.005",
			"rotation":[
				0,
				1.1920928955078125e-07,
				0,
				1
			],
			"translation":[
				0,
				-0.042436838150024414,
				0
			]
		},
		{
			"name":"fallens.006",
			"rotation":[
				0,
				1.1920928955078125e-07,
				0,
				1
			],
			"translation":[
				0,
				-0.042436838150024414,
				0
			]
		},
		{
			"name":"fallens.007",
			"rotation":[
				0,
				1.1920928955078125e-07,
				0,
				1
			],
			"translation":[
				0,
				-0.042436838150024414,
				0
			]
		},
		{
			"name":"fallens.008",
			"rotation":[
				0,
				1.1920928955078125e-07,
				0,
				1
			],
			"translation":[
				0,
				-0.042436838150024414,
				0
			]
		},
		{
			"children":[
				2,
				3,
				4,
				5,
				6,
				7,
				8,
				9
			],
			"name":"fallens"
		},
		{
			"mesh":2,
			"name":"obj_pine03_particles",
			"skin":0
		},
		{
			"children":[
				11,
				10
			],
			"name":"Armature"
		}
	],
	"animations":[
		{
			"channels":[
				{
					"sampler":0,
					"target":{
						"node":10,
						"path":"translation"
					}
				},
				{
					"sampler":1,
					"target":{
						"node":10,
						"path":"rotation"
					}
				},
				{
					"sampler":2,
					"target":{
						"node":10,
						"path":"scale"
					}
				},
				{
					"sampler":3,
					"target":{
						"node":2,
						"path":"translation"
					}
				},
				{
					"sampler":4,
					"target":{
						"node":2,
						"path":"rotation"
					}
				},
				{
					"sampler":5,
					"target":{
						"node":2,
						"path":"scale"
					}
				},
				{
					"sampler":6,
					"target":{
						"node":3,
						"path":"translation"
					}
				},
				{
					"sampler":7,
					"target":{
						"node":3,
						"path":"rotation"
					}
				},
				{
					"sampler":8,
					"target":{
						"node":3,
						"path":"scale"
					}
				},
				{
					"sampler":9,
					"target":{
						"node":4,
						"path":"translation"
					}
				},
				{
					"sampler":10,
					"target":{
						"node":4,
						"path":"rotation"
					}
				},
				{
					"sampler":11,
					"target":{
						"node":4,
						"path":"scale"
					}
				},
				{
					"sampler":12,
					"target":{
						"node":5,
						"path":"translation"
					}
				},
				{
					"sampler":13,
					"target":{
						"node":5,
						"path":"rotation"
					}
				},
				{
					"sampler":14,
					"target":{
						"node":5,
						"path":"scale"
					}
				},
				{
					"sampler":15,
					"target":{
						"node":6,
						"path":"translation"
					}
				},
				{
					"sampler":16,
					"target":{
						"node":6,
						"path":"rotation"
					}
				},
				{
					"sampler":17,
					"target":{
						"node":6,
						"path":"scale"
					}
				},
				{
					"sampler":18,
					"target":{
						"node":7,
						"path":"translation"
					}
				},
				{
					"sampler":19,
					"target":{
						"node":7,
						"path":"rotation"
					}
				},
				{
					"sampler":20,
					"target":{
						"node":7,
						"path":"scale"
					}
				},
				{
					"sampler":21,
					"target":{
						"node":8,
						"path":"translation"
					}
				},
				{
					"sampler":22,
					"target":{
						"node":8,
						"path":"rotation"
					}
				},
				{
					"sampler":23,
					"target":{
						"node":8,
						"path":"scale"
					}
				},
				{
					"sampler":24,
					"target":{
						"node":9,
						"path":"translation"
					}
				},
				{
					"sampler":25,
					"target":{
						"node":9,
						"path":"rotation"
					}
				},
				{
					"sampler":26,
					"target":{
						"node":9,
						"path":"scale"
					}
				}
			],
			"name":"stand",
			"samplers":[
				{
					"input":15,
					"interpolation":"STEP",
					"output":16
				},
				{
					"input":15,
					"interpolation":"STEP",
					"output":17
				},
				{
					"input":15,
					"interpolation":"STEP",
					"output":18
				},
				{
					"input":19,
					"interpolation":"LINEAR",
					"output":20
				},
				{
					"input":19,
					"interpolation":"LINEAR",
					"output":21
				},
				{
					"input":19,
					"interpolation":"LINEAR",
					"output":22
				},
				{
					"input":19,
					"interpolation":"LINEAR",
					"output":23
				},
				{
					"input":19,
					"interpolation":"LINEAR",
					"output":24
				},
				{
					"input":19,
					"interpolation":"LINEAR",
					"output":25
				},
				{
					"input":19,
					"interpolation":"LINEAR",
					"output":26
				},
				{
					"input":19,
					"interpolation":"LINEAR",
					"output":27
				},
				{
					"input":19,
					"interpolation":"LINEAR",
					"output":28
				},
				{
					"input":19,
					"interpolation":"LINEAR",
					"output":29
				},
				{
					"input":19,
					"interpolation":"LINEAR",
					"output":30
				},
				{
					"input":19,
					"interpolation":"LINEAR",
					"output":31
				},
				{
					"input":19,
					"interpolation":"LINEAR",
					"output":32
				},
				{
					"input":19,
					"interpolation":"LINEAR",
					"output":33
				},
				{
					"input":19,
					"interpolation":"LINEAR",
					"output":34
				},
				{
					"input":19,
					"interpolation":"LINEAR",
					"output":35
				},
				{
					"input":19,
					"interpolation":"LINEAR",
					"output":36
				},
				{
					"input":19,
					"interpolation":"LINEAR",
					"output":37
				},
				{
					"input":19,
					"interpolation":"LINEAR",
					"output":38
				},
				{
					"input":19,
					"interpolation":"LINEAR",
					"output":39
				},
				{
					"input":19,
					"interpolation":"LINEAR",
					"output":40
				},
				{
					"input":19,
					"interpolation":"LINEAR",
					"output":41
				},
				{
					"input":19,
					"interpolation":"LINEAR",
					"output":42
				},
				{
					"input":19,
					"interpolation":"LINEAR",
					"output":43
				}
			]
		}
	],
	"materials":[
		{
			"emissiveFactor":[
				0.20000000298023224,
				0.20000000298023224,
				0.20000000298023224
			],
			"emissiveTexture":{
				"index":0
			},
			"extensions":{
				"KHR_materials_clearcoat":{
					"clearcoatRoughnessFactor":0
				},
				"KHR_materials_specular":{
					"specularFactor":0
				},
				"KHR_materials_ior":{
					"ior":1.4500000476837158
				}
			},
			"name":"obj_pine02",
			"pbrMetallicRoughness":{
				"baseColorTexture":{
					"index":1
				},
				"metallicFactor":0
			}
		},
		{
			"alphaMode":"BLEND",
			"doubleSided":true,
			"emissiveFactor":[
				1,
				1,
				1
			],
			"emissiveTexture":{
				"index":2
			},
			"extensions":{
				"KHR_materials_clearcoat":{
					"clearcoatRoughnessFactor":0
				},
				"KHR_materials_specular":{
					"specularFactor":0
				},
				"KHR_materials_ior":{
					"ior":1.4500000476837158
				}
			},
			"name":"obj_bush01_leaf",
			"pbrMetallicRoughness":{
				"baseColorTexture":{
					"index":3
				},
				"metallicFactor":0
			}
		}
	],
	"meshes":[
		{
			"name":"Mesh.004",
			"primitives":[
				{
					"attributes":{
						"POSITION":0,
						"NORMAL":1,
						"TEXCOORD_0":2
					},
					"indices":3,
					"material":0
				}
			]
		},
		{
			"name":"Mesh.001",
			"primitives":[
				{
					"attributes":{
						"POSITION":4,
						"NORMAL":5,
						"TEXCOORD_0":6
					},
					"indices":7
				}
			]
		},
		{
			"name":"Plane.004",
			"primitives":[
				{
					"attributes":{
						"POSITION":8,
						"NORMAL":9,
						"TEXCOORD_0":10,
						"JOINTS_0":11,
						"WEIGHTS_0":12
					},
					"indices":13,
					"material":1
				}
			]
		}
	],
	"textures":[
		{
			"sampler":0,
			"source":0
		},
		{
			"sampler":0,
			"source":0
		},
		{
			"sampler":0,
			"source":1
		},
		{
			"sampler":0,
			"source":2
		}
	],
	"images":[
		{
			"mimeType":"image/png",
			"name":"obj_pine02",
			"uri":"textures/obj_pine02.png"
		},
		{
			"mimeType":"image/png",
			"name":"obj_bush01_emission",
			"uri":"textures/obj_bush01_emission.png"
		},
		{
			"mimeType":"image/png",
			"name":"obj_bush01",
			"uri":"textures/obj_bush01.png"
		}
	],
	"skins":[
		{
			"inverseBindMatrices":14,
			"joints":[
				10,
				2,
				3,
				4,
				5,
				6,
				7,
				8,
				9
			],
			"name":"Armature"
		}
	],
	"accessors":[
		{
			"bufferView":0,
			"componentType":5126,
			"count":307,
			"max":[
				2.0918331146240234,
				7.035451889038086,
				2.0936319828033447
			],
			"min":[
				-2.091790199279785,
				-2.9802322387695312e-08,
				-2.0935416221618652
			],
			"type":"VEC3"
		},
		{
			"bufferView":1,
			"componentType":5126,
			"count":307,
			"type":"VEC3"
		},
		{
			"bufferView":2,
			"componentType":5126,
			"count":307,
			"type":"VEC2"
		},
		{
			"bufferView":3,
			"componentType":5123,
			"count":1524,
			"type":"SCALAR"
		},
		{
			"bufferView":4,
			"componentType":5126,
			"count":49,
			"max":[
				1.952216625213623,
				7.134773254394531,
				1.9584543704986572
			],
			"min":[
				-1.8968253135681152,
				-2.9802322387695312e-08,
				-1.9433317184448242
			],
			"type":"VEC3"
		},
		{
			"bufferView":5,
			"componentType":5126,
			"count":49,
			"type":"VEC3"
		},
		{
			"bufferView":6,
			"componentType":5126,
			"count":49,
			"type":"VEC2"
		},
		{
			"bufferView":7,
			"componentType":5123,
			"count":174,
			"type":"SCALAR"
		},
		{
			"bufferView":8,
			"componentType":5126,
			"count":16,
			"max":[
				0.050000011920928955,
				0,
				0.050000011920928955
			],
			"min":[
				-0.050000011920928955,
				0,
				-0.050000011920928955
			],
			"type":"VEC3"
		},
		{
			"bufferView":9,
			"componentType":5126,
			"count":16,
			"type":"VEC3"
		},
		{
			"bufferView":10,
			"componentType":5126,
			"count":16,
			"type":"VEC2"
		},
		{
			"bufferView":11,
			"componentType":5121,
			"count":16,
			"type":"VEC4"
		},
		{
			"bufferView":12,
			"componentType":5126,
			"count":16,
			"type":"VEC4"
		},
		{
			"bufferView":13,
			"componentType":5123,
			"count":24,
			"type":"SCALAR"
		},
		{
			"bufferView":14,
			"componentType":5126,
			"count":9,
			"type":"MAT4"
		},
		{
			"bufferView":15,
			"componentType":5126,
			"count":2,
			"max":[
				2.062880579630534
			],
			"min":[
				0.02954724629720052
			],
			"type":"SCALAR"
		},
		{
			"bufferView":16,
			"componentType":5126,
			"count":2,
			"type":"VEC3"
		},
		{
			"bufferView":17,
			"componentType":5126,
			"count":2,
			"type":"VEC4"
		},
		{
			"bufferView":18,
			"componentType":5126,
			"count":2,
			"type":"VEC3"
		},
		{
			"bufferView":19,
			"componentType":5126,
			"count":62,
			"max":[
				2.062880579630534
			],
			"min":[
				0.02954724629720052
			],
			"type":"SCALAR"
		},
		{
			"bufferView":20,
			"componentType":5126,
			"count":62,
			"type":"VEC3"
		},
		{
			"bufferView":21,
			"componentType":5126,
			"count":62,
			"type":"VEC4"
		},
		{
			"bufferView":22,
			"componentType":5126,
			"count":62,
			"type":"VEC3"
		},
		{
			"bufferView":23,
			"componentType":5126,
			"count":62,
			"type":"VEC3"
		},
		{
			"bufferView":24,
			"componentType":5126,
			"count":62,
			"type":"VEC4"
		},
		{
			"bufferView":25,
			"componentType":5126,
			"count":62,
			"type":"VEC3"
		},
		{
			"bufferView":26,
			"componentType":5126,
			"count":62,
			"type":"VEC3"
		},
		{
			"bufferView":27,
			"componentType":5126,
			"count":62,
			"type":"VEC4"
		},
		{
			"bufferView":28,
			"componentType":5126,
			"count":62,
			"type":"VEC3"
		},
		{
			"bufferView":29,
			"componentType":5126,
			"count":62,
			"type":"VEC3"
		},
		{
			"bufferView":30,
			"componentType":5126,
			"count":62,
			"type":"VEC4"
		},
		{
			"bufferView":31,
			"componentType":5126,
			"count":62,
			"type":"VEC3"
		},
		{
			"bufferView":32,
			"componentType":5126,
			"count":62,
			"type":"VEC3"
		},
		{
			"bufferView":33,
			"componentType":5126,
			"count":62,
			"type":"VEC4"
		},
		{
			"bufferView":34,
			"componentType":5126,
			"count":62,
			"type":"VEC3"
		},
		{
			"bufferView":35,
			"componentType":5126,
			"count":62,
			"type":"VEC3"
		},
		{
			"bufferView":36,
			"componentType":5126,
			"count":62,
			"type":"VEC4"
		},
		{
			"bufferView":37,
			"componentType":5126,
			"count":62,
			"type":"VEC3"
		},
		{
			"bufferView":38,
			"componentType":5126,
			"count":62,
			"type":"VEC3"
		},
		{
			"bufferView":39,
			"componentType":5126,
			"count":62,
			"type":"VEC4"
		},
		{
			"bufferView":40,
			"componentType":5126,
			"count":62,
			"type":"VEC3"
		},
		{
			"bufferView":41,
			"componentType":5126,
			"count":62,
			"type":"VEC3"
		},
		{
			"bufferView":42,
			"componentType":5126,
			"count":62,
			"type":"VEC4"
		},
		{
			"bufferView":43,
			"componentType":5126,
			"count":62,
			"type":"VEC3"
		}
	],
	"bufferViews":[
		{
			"buffer":0,
			"byteLength":3684,
			"byteOffset":0,
			"target":34962
		},
		{
			"buffer":0,
			"byteLength":3684,
			"byteOffset":3684,
			"target":34962
		},
		{
			"buffer":0,
			"byteLength":2456,
			"byteOffset":7368,
			"target":34962
		},
		{
			"buffer":0,
			"byteLength":3048,
			"byteOffset":9824,
			"target":34963
		},
		{
			"buffer":0,
			"byteLength":588,
			"byteOffset":12872,
			"target":34962
		},
		{
			"buffer":0,
			"byteLength":588,
			"byteOffset":13460,
			"target":34962
		},
		{
			"buffer":0,
			"byteLength":392,
			"byteOffset":14048,
			"target":34962
		},
		{
			"buffer":0,
			"byteLength":348,
			"byteOffset":14440,
			"target":34963
		},
		{
			"buffer":0,
			"byteLength":192,
			"byteOffset":14788,
			"target":34962
		},
		{
			"buffer":0,
			"byteLength":192,
			"byteOffset":14980,
			"target":34962
		},
		{
			"buffer":0,
			"byteLength":128,
			"byteOffset":15172,
			"target":34962
		},
		{
			"buffer":0,
			"byteLength":64,
			"byteOffset":15300,
			"target":34962
		},
		{
			"buffer":0,
			"byteLength":256,
			"byteOffset":15364,
			"target":34962
		},
		{
			"buffer":0,
			"byteLength":48,
			"byteOffset":15620,
			"target":34963
		},
		{
			"buffer":0,
			"byteLength":576,
			"byteOffset":15668
		},
		{
			"buffer":0,
			"byteLength":8,
			"byteOffset":16244
		},
		{
			"buffer":0,
			"byteLength":24,
			"byteOffset":16252
		},
		{
			"buffer":0,
			"byteLength":32,
			"byteOffset":16276
		},
		{
			"buffer":0,
			"byteLength":24,
			"byteOffset":16308
		},
		{
			"buffer":0,
			"byteLength":248,
			"byteOffset":16332
		},
		{
			"buffer":0,
			"byteLength":744,
			"byteOffset":16580
		},
		{
			"buffer":0,
			"byteLength":992,
			"byteOffset":17324
		},
		{
			"buffer":0,
			"byteLength":744,
			"byteOffset":18316
		},
		{
			"buffer":0,
			"byteLength":744,
			"byteOffset":19060
		},
		{
			"buffer":0,
			"byteLength":992,
			"byteOffset":19804
		},
		{
			"buffer":0,
			"byteLength":744,
			"byteOffset":20796
		},
		{
			"buffer":0,
			"byteLength":744,
			"byteOffset":21540
		},
		{
			"buffer":0,
			"byteLength":992,
			"byteOffset":22284
		},
		{
			"buffer":0,
			"byteLength":744,
			"byteOffset":23276
		},
		{
			"buffer":0,
			"byteLength":744,
			"byteOffset":24020
		},
		{
			"buffer":0,
			"byteLength":992,
			"byteOffset":24764
		},
		{
			"buffer":0,
			"byteLength":744,
			"byteOffset":25756
		},
		{
			"buffer":0,
			"byteLength":744,
			"byteOffset":26500
		},
		{
			"buffer":0,
			"byteLength":992,
			"byteOffset":27244
		},
		{
			"buffer":0,
			"byteLength":744,
			"byteOffset":28236
		},
		{
			"buffer":0,
			"byteLength":744,
			"byteOffset":28980
		},
		{
			"buffer":0,
			"byteLength":992,
			"byteOffset":29724
		},
		{
			"buffer":0,
			"byteLength":744,
			"byteOffset":30716
		},
		{
			"buffer":0,
			"byteLength":744,
			"byteOffset":31460
		},
		{
			"buffer":0,
			"byteLength":992,
			"byteOffset":32204
		},
		{
			"buffer":0,
			"byteLength":744,
			"byteOffset":33196
		},
		{
			"buffer":0,
			"byteLength":744,
			"byteOffset":33940
		},
		{
			"buffer":0,
			"byteLength":992,
			"byteOffset":34684
		},
		{
			"buffer":0,
			"byteLength":744,
			"byteOffset":35676
		}
	],
	"samplers":[
		{
			"magFilter":9729,
			"minFilter":9987
		}
	],
	"buffers":[
		{
			"byteLength":36420,
			"uri":"obj_pine03.bin"
		}
	]
}
