{
	"asset":{
		"generator":"Khronos glTF Blender I/O v4.1.63",
		"version":"2.0"
	},
	"extensionsUsed":[
		"KHR_materials_specular",
		"KHR_materials_ior"
	],
	"scene":0,
	"scenes":[
		{
			"name":"Scene",
			"nodes":[
				3
			]
		}
	],
	"nodes":[
		{
			"mesh":1,
			"name":"obj_lantern_collider"
		},
		{
			"children":[
				0
			],
			"name":"Bone"
		},
		{
			"mesh":0,
			"name":"obj_lantern_mesh",
			"skin":0
		},
		{
			"children":[
				2,
				1
			],
			"name":"obj_lantern"
		}
	],
	"animations":[
		{
			"channels":[
				{
					"sampler":0,
					"target":{
						"node":1,
						"path":"translation"
					}
				},
				{
					"sampler":1,
					"target":{
						"node":1,
						"path":"rotation"
					}
				},
				{
					"sampler":2,
					"target":{
						"node":1,
						"path":"scale"
					}
				}
			],
			"name":"idle1",
			"samplers":[
				{
					"input":11,
					"interpolation":"LINEAR",
					"output":12
				},
				{
					"input":13,
					"interpolation":"STEP",
					"output":14
				},
				{
					"input":13,
					"interpolation":"STEP",
					"output":15
				}
			]
		},
		{
			"channels":[
				{
					"sampler":0,
					"target":{
						"node":1,
						"path":"translation"
					}
				},
				{
					"sampler":1,
					"target":{
						"node":1,
						"path":"rotation"
					}
				},
				{
					"sampler":2,
					"target":{
						"node":1,
						"path":"scale"
					}
				}
			],
			"name":"stand",
			"samplers":[
				{
					"input":16,
					"interpolation":"LINEAR",
					"output":17
				},
				{
					"input":16,
					"interpolation":"LINEAR",
					"output":18
				},
				{
					"input":19,
					"interpolation":"STEP",
					"output":20
				}
			]
		}
	],
	"materials":[
		{
			"doubleSided":true,
			"emissiveFactor":[
				1,
				1,
				1
			],
			"emissiveTexture":{
				"index":0
			},
			"extensions":{
				"KHR_materials_specular":{
					"specularFactor":0
				},
				"KHR_materials_ior":{
					"ior":1.4500000476837158
				}
			},
			"name":"obj_lantern",
			"pbrMetallicRoughness":{
				"baseColorTexture":{
					"index":1
				},
				"metallicFactor":0
			}
		}
	],
	"meshes":[
		{
			"name":"Mesh.094",
			"primitives":[
				{
					"attributes":{
						"POSITION":0,
						"NORMAL":1,
						"TEXCOORD_0":2,
						"JOINTS_0":3,
						"WEIGHTS_0":4
					},
					"indices":5,
					"material":0
				}
			]
		},
		{
			"name":"Mesh.093",
			"primitives":[
				{
					"attributes":{
						"POSITION":7,
						"NORMAL":8,
						"TEXCOORD_0":9
					},
					"indices":10
				}
			]
		}
	],
	"textures":[
		{
			"sampler":0,
			"source":0
		},
		{
			"sampler":0,
			"source":1
		}
	],
	"images":[
		{
			"mimeType":"image/png",
			"name":"obj_lantern_emission",
			"uri":"textures/obj_lantern_emission.png"
		},
		{
			"mimeType":"image/png",
			"name":"obj_lantern",
			"uri":"textures/obj_lantern.png"
		}
	],
	"skins":[
		{
			"inverseBindMatrices":6,
			"joints":[
				1
			],
			"name":"obj_lantern"
		}
	],
	"accessors":[
		{
			"bufferView":0,
			"componentType":5126,
			"count":1049,
			"max":[
				0.3453543782234192,
				0.2776198387145996,
				0.3318938612937927
			],
			"min":[
				-0.3458905816078186,
				-0.334468811750412,
				-0.3310558497905731
			],
			"type":"VEC3"
		},
		{
			"bufferView":1,
			"componentType":5126,
			"count":1049,
			"type":"VEC3"
		},
		{
			"bufferView":2,
			"componentType":5126,
			"count":1049,
			"type":"VEC2"
		},
		{
			"bufferView":3,
			"componentType":5121,
			"count":1049,
			"type":"VEC4"
		},
		{
			"bufferView":4,
			"componentType":5126,
			"count":1049,
			"type":"VEC4"
		},
		{
			"bufferView":5,
			"componentType":5123,
			"count":3624,
			"type":"SCALAR"
		},
		{
			"bufferView":6,
			"componentType":5126,
			"count":1,
			"type":"MAT4"
		},
		{
			"bufferView":7,
			"componentType":5126,
			"count":134,
			"max":[
				0.35394829511642456,
				0.2776198983192444,
				0.3547356128692627
			],
			"min":[
				-0.35448434948921204,
				-0.3373916745185852,
				-0.3536970019340515
			],
			"type":"VEC3"
		},
		{
			"bufferView":8,
			"componentType":5126,
			"count":134,
			"type":"VEC3"
		},
		{
			"bufferView":9,
			"componentType":5126,
			"count":134,
			"type":"VEC2"
		},
		{
			"bufferView":10,
			"componentType":5123,
			"count":324,
			"type":"SCALAR"
		},
		{
			"bufferView":11,
			"componentType":5126,
			"count":61,
			"max":[
				2
			],
			"min":[
				0
			],
			"type":"SCALAR"
		},
		{
			"bufferView":12,
			"componentType":5126,
			"count":61,
			"type":"VEC3"
		},
		{
			"bufferView":13,
			"componentType":5126,
			"count":2,
			"max":[
				2
			],
			"min":[
				0
			],
			"type":"SCALAR"
		},
		{
			"bufferView":14,
			"componentType":5126,
			"count":2,
			"type":"VEC4"
		},
		{
			"bufferView":15,
			"componentType":5126,
			"count":2,
			"type":"VEC3"
		},
		{
			"bufferView":16,
			"componentType":5126,
			"count":361,
			"max":[
				12
			],
			"min":[
				0
			],
			"type":"SCALAR"
		},
		{
			"bufferView":17,
			"componentType":5126,
			"count":361,
			"type":"VEC3"
		},
		{
			"bufferView":18,
			"componentType":5126,
			"count":361,
			"type":"VEC4"
		},
		{
			"bufferView":19,
			"componentType":5126,
			"count":2,
			"max":[
				12
			],
			"min":[
				0
			],
			"type":"SCALAR"
		},
		{
			"bufferView":20,
			"componentType":5126,
			"count":2,
			"type":"VEC3"
		}
	],
	"bufferViews":[
		{
			"buffer":0,
			"byteLength":12588,
			"byteOffset":0,
			"target":34962
		},
		{
			"buffer":0,
			"byteLength":12588,
			"byteOffset":12588,
			"target":34962
		},
		{
			"buffer":0,
			"byteLength":8392,
			"byteOffset":25176,
			"target":34962
		},
		{
			"buffer":0,
			"byteLength":4196,
			"byteOffset":33568,
			"target":34962
		},
		{
			"buffer":0,
			"byteLength":16784,
			"byteOffset":37764,
			"target":34962
		},
		{
			"buffer":0,
			"byteLength":7248,
			"byteOffset":54548,
			"target":34963
		},
		{
			"buffer":0,
			"byteLength":64,
			"byteOffset":61796
		},
		{
			"buffer":0,
			"byteLength":1608,
			"byteOffset":61860,
			"target":34962
		},
		{
			"buffer":0,
			"byteLength":1608,
			"byteOffset":63468,
			"target":34962
		},
		{
			"buffer":0,
			"byteLength":1072,
			"byteOffset":65076,
			"target":34962
		},
		{
			"buffer":0,
			"byteLength":648,
			"byteOffset":66148,
			"target":34963
		},
		{
			"buffer":0,
			"byteLength":244,
			"byteOffset":66796
		},
		{
			"buffer":0,
			"byteLength":732,
			"byteOffset":67040
		},
		{
			"buffer":0,
			"byteLength":8,
			"byteOffset":67772
		},
		{
			"buffer":0,
			"byteLength":32,
			"byteOffset":67780
		},
		{
			"buffer":0,
			"byteLength":24,
			"byteOffset":67812
		},
		{
			"buffer":0,
			"byteLength":1444,
			"byteOffset":67836
		},
		{
			"buffer":0,
			"byteLength":4332,
			"byteOffset":69280
		},
		{
			"buffer":0,
			"byteLength":5776,
			"byteOffset":73612
		},
		{
			"buffer":0,
			"byteLength":8,
			"byteOffset":79388
		},
		{
			"buffer":0,
			"byteLength":24,
			"byteOffset":79396
		}
	],
	"samplers":[
		{
			"magFilter":9729,
			"minFilter":9987
		}
	],
	"buffers":[
		{
			"byteLength":79420,
			"uri":"obj_lantern.bin"
		}
	]
}
