{
	"asset":{
		"generator":"Khronos glTF Blender I/O v4.3.47",
		"version":"2.0"
	},
	"extensionsUsed":[
		"KHR_materials_specular"
	],
	"scene":0,
	"scenes":[
		{
			"name":"Scene",
			"nodes":[
				0,
				1
			]
		}
	],
	"nodes":[
		{
			"mesh":0,
			"name":"obj_pc"
		},
		{
			"mesh":1,
			"name":"obj_pc_collider"
		}
	],
	"materials":[
		{
			"emissiveFactor":[
				1,
				1,
				1
			],
			"emissiveTexture":{
				"index":0
			},
			"extensions":{
				"KHR_materials_specular":{
					"specularFactor":0
				}
			},
			"name":"obj_pc",
			"pbrMetallicRoughness":{
				"baseColorTexture":{
					"index":1
				},
				"metallicFactor":0
			}
		}
	],
	"meshes":[
		{
			"name":"obj_pc",
			"primitives":[
				{
					"attributes":{
						"POSITION":0,
						"NORMAL":1,
						"TEXCOORD_0":2
					},
					"indices":3,
					"material":0
				}
			]
		},
		{
			"name":"obj_pc_collider",
			"primitives":[
				{
					"attributes":{
						"POSITION":4,
						"NORMAL":5,
						"TEXCOORD_0":6
					},
					"indices":7
				}
			]
		}
	],
	"textures":[
		{
			"sampler":0,
			"source":0
		},
		{
			"sampler":0,
			"source":1
		}
	],
	"images":[
		{
			"mimeType":"image/png",
			"name":"obj_pc_emission",
			"uri":"textures/obj_pc_emission.png"
		},
		{
			"mimeType":"image/png",
			"name":"obj_pc",
			"uri":"textures/obj_pc.png"
		}
	],
	"accessors":[
		{
			"bufferView":0,
			"componentType":5126,
			"count":12366,
			"max":[
				63.28031921386719,
				20.703697204589844,
				57.22020721435547
			],
			"min":[
				-53.702152252197266,
				16.585466384887695,
				-70.00375366210938
			],
			"type":"VEC3"
		},
		{
			"bufferView":1,
			"componentType":5126,
			"count":12366,
			"type":"VEC3"
		},
		{
			"bufferView":2,
			"componentType":5126,
			"count":12366,
			"type":"VEC2"
		},
		{
			"bufferView":3,
			"componentType":5123,
			"count":56268,
			"type":"SCALAR"
		},
		{
			"bufferView":4,
			"componentType":5126,
			"count":324,
			"max":[
				63.2906379699707,
				20.716928482055664,
				57.226600646972656
			],
			"min":[
				-53.80550003051758,
				16.585847854614258,
				-70.04624938964844
			],
			"type":"VEC3"
		},
		{
			"bufferView":5,
			"componentType":5126,
			"count":324,
			"type":"VEC3"
		},
		{
			"bufferView":6,
			"componentType":5126,
			"count":324,
			"type":"VEC2"
		},
		{
			"bufferView":7,
			"componentType":5123,
			"count":1728,
			"type":"SCALAR"
		}
	],
	"bufferViews":[
		{
			"buffer":0,
			"byteLength":148392,
			"byteOffset":0,
			"target":34962
		},
		{
			"buffer":0,
			"byteLength":148392,
			"byteOffset":148392,
			"target":34962
		},
		{
			"buffer":0,
			"byteLength":98928,
			"byteOffset":296784,
			"target":34962
		},
		{
			"buffer":0,
			"byteLength":112536,
			"byteOffset":395712,
			"target":34963
		},
		{
			"buffer":0,
			"byteLength":3888,
			"byteOffset":508248,
			"target":34962
		},
		{
			"buffer":0,
			"byteLength":3888,
			"byteOffset":512136,
			"target":34962
		},
		{
			"buffer":0,
			"byteLength":2592,
			"byteOffset":516024,
			"target":34962
		},
		{
			"buffer":0,
			"byteLength":3456,
			"byteOffset":518616,
			"target":34963
		}
	],
	"samplers":[
		{
			"magFilter":9729,
			"minFilter":9987
		}
	],
	"buffers":[
		{
			"byteLength":522072,
			"uri":"obj_pc.bin"
		}
	]
}
