{
	"asset":{
		"generator":"Khronos glTF Blender I/O v4.2.57",
		"version":"2.0"
	},
	"extensionsUsed":[
		"KHR_materials_specular",
		"KHR_materials_ior"
	],
	"scene":0,
	"scenes":[
		{
			"name":"Scene",
			"nodes":[
				1
			]
		}
	],
	"nodes":[
		{
			"mesh":0,
			"name":"obj_vacuum_collider"
		},
		{
			"children":[
				0
			],
			"mesh":1,
			"name":"obj_vacuum"
		}
	],
	"animations":[
		{
			"channels":[
				{
					"sampler":0,
					"target":{
						"node":1,
						"path":"translation"
					}
				},
				{
					"sampler":1,
					"target":{
						"node":1,
						"path":"rotation"
					}
				},
				{
					"sampler":2,
					"target":{
						"node":1,
						"path":"scale"
					}
				}
			],
			"name":"stand",
			"samplers":[
				{
					"input":8,
					"interpolation":"LINEAR",
					"output":9
				},
				{
					"input":10,
					"interpolation":"STEP",
					"output":11
				},
				{
					"input":10,
					"interpolation":"STEP",
					"output":12
				}
			]
		}
	],
	"materials":[
		{
			"doubleSided":true,
			"emissiveFactor":[
				1,
				1,
				1
			],
			"emissiveTexture":{
				"index":0
			},
			"extensions":{
				"KHR_materials_specular":{
					"specularFactor":0
				},
				"KHR_materials_ior":{
					"ior":1.4500000476837158
				}
			},
			"name":"obj_vacuum",
			"pbrMetallicRoughness":{
				"baseColorTexture":{
					"index":1
				},
				"metallicFactor":0
			}
		}
	],
	"meshes":[
		{
			"name":"Mesh.001",
			"primitives":[
				{
					"attributes":{
						"POSITION":0,
						"NORMAL":1,
						"TEXCOORD_0":2
					},
					"indices":3
				}
			]
		},
		{
			"name":"Mesh",
			"primitives":[
				{
					"attributes":{
						"POSITION":4,
						"NORMAL":5,
						"TEXCOORD_0":6
					},
					"indices":7,
					"material":0
				}
			]
		}
	],
	"textures":[
		{
			"sampler":0,
			"source":0
		},
		{
			"sampler":0,
			"source":1
		}
	],
	"images":[
		{
			"mimeType":"image/png",
			"name":"obj_vacuum_emission",
			"uri":"textures/obj_vacuum_emission.png"
		},
		{
			"mimeType":"image/png",
			"name":"obj_vacuum",
			"uri":"textures/obj_vacuum.png"
		}
	],
	"accessors":[
		{
			"bufferView":0,
			"componentType":5126,
			"count":578,
			"max":[
				0.20179332792758942,
				1.1512129306793213,
				0.45421674847602844
			],
			"min":[
				-0.202788844704628,
				0.004141511395573616,
				-0.3851996660232544
			],
			"type":"VEC3"
		},
		{
			"bufferView":1,
			"componentType":5126,
			"count":578,
			"type":"VEC3"
		},
		{
			"bufferView":2,
			"componentType":5126,
			"count":578,
			"type":"VEC2"
		},
		{
			"bufferView":3,
			"componentType":5123,
			"count":900,
			"type":"SCALAR"
		},
		{
			"bufferView":4,
			"componentType":5126,
			"count":1162,
			"max":[
				0.20179332792758942,
				1.1512126922607422,
				0.45421677827835083
			],
			"min":[
				-0.202788844704628,
				0.004141420125961304,
				-0.3851996660232544
			],
			"type":"VEC3"
		},
		{
			"bufferView":5,
			"componentType":5126,
			"count":1162,
			"type":"VEC3"
		},
		{
			"bufferView":6,
			"componentType":5126,
			"count":1162,
			"type":"VEC2"
		},
		{
			"bufferView":7,
			"componentType":5123,
			"count":3756,
			"type":"SCALAR"
		},
		{
			"bufferView":8,
			"componentType":5126,
			"count":5,
			"max":[
				0.16666666666666666
			],
			"min":[
				0
			],
			"type":"SCALAR"
		},
		{
			"bufferView":9,
			"componentType":5126,
			"count":5,
			"type":"VEC3"
		},
		{
			"bufferView":10,
			"componentType":5126,
			"count":2,
			"max":[
				0.16666666666666666
			],
			"min":[
				0
			],
			"type":"SCALAR"
		},
		{
			"bufferView":11,
			"componentType":5126,
			"count":2,
			"type":"VEC4"
		},
		{
			"bufferView":12,
			"componentType":5126,
			"count":2,
			"type":"VEC3"
		}
	],
	"bufferViews":[
		{
			"buffer":0,
			"byteLength":6936,
			"byteOffset":0,
			"target":34962
		},
		{
			"buffer":0,
			"byteLength":6936,
			"byteOffset":6936,
			"target":34962
		},
		{
			"buffer":0,
			"byteLength":4624,
			"byteOffset":13872,
			"target":34962
		},
		{
			"buffer":0,
			"byteLength":1800,
			"byteOffset":18496,
			"target":34963
		},
		{
			"buffer":0,
			"byteLength":13944,
			"byteOffset":20296,
			"target":34962
		},
		{
			"buffer":0,
			"byteLength":13944,
			"byteOffset":34240,
			"target":34962
		},
		{
			"buffer":0,
			"byteLength":9296,
			"byteOffset":48184,
			"target":34962
		},
		{
			"buffer":0,
			"byteLength":7512,
			"byteOffset":57480,
			"target":34963
		},
		{
			"buffer":0,
			"byteLength":20,
			"byteOffset":64992
		},
		{
			"buffer":0,
			"byteLength":60,
			"byteOffset":65012
		},
		{
			"buffer":0,
			"byteLength":8,
			"byteOffset":65072
		},
		{
			"buffer":0,
			"byteLength":32,
			"byteOffset":65080
		},
		{
			"buffer":0,
			"byteLength":24,
			"byteOffset":65112
		}
	],
	"samplers":[
		{
			"magFilter":9729,
			"minFilter":9987
		}
	],
	"buffers":[
		{
			"byteLength":65136,
			"uri":"obj_vacuum.bin"
		}
	]
}
