{
	"asset":{
		"generator":"Khronos glTF Blender I/O v4.2.57",
		"version":"2.0"
	},
	"extensionsUsed":[
		"KHR_materials_specular",
		"KHR_materials_ior"
	],
	"scene":0,
	"scenes":[
		{
			"name":"Scene",
			"nodes":[
				0
			]
		}
	],
	"nodes":[
		{
			"mesh":0,
			"name":"obj_mark02",
			"rotation":[
				0.7071068286895752,
				0,
				0,
				0.7071068286895752
			]
		}
	],
	"animations":[
		{
			"channels":[
				{
					"sampler":0,
					"target":{
						"node":0,
						"path":"translation"
					}
				},
				{
					"sampler":1,
					"target":{
						"node":0,
						"path":"rotation"
					}
				},
				{
					"sampler":2,
					"target":{
						"node":0,
						"path":"scale"
					}
				}
			],
			"name":"obj_mark02Action",
			"samplers":[
				{
					"input":4,
					"interpolation":"LINEAR",
					"output":5
				},
				{
					"input":4,
					"interpolation":"LINEAR",
					"output":6
				},
				{
					"input":7,
					"interpolation":"STEP",
					"output":8
				}
			]
		}
	],
	"materials":[
		{
			"doubleSided":true,
			"emissiveFactor":[
				0.26229405403137207,
				0.5646868348121643,
				0.921515166759491
			],
			"extensions":{
				"KHR_materials_specular":{
					"specularFactor":0
				},
				"KHR_materials_ior":{
					"ior":1.4500000476837158
				}
			},
			"name":"obj_global_emission01.001",
			"pbrMetallicRoughness":{
				"baseColorFactor":[
					0.2617267668247223,
					0.566400408744812,
					0.9218639135360718,
					1
				],
				"metallicFactor":0
			}
		}
	],
	"meshes":[
		{
			"name":"obj_mark02",
			"primitives":[
				{
					"attributes":{
						"POSITION":0,
						"NORMAL":1,
						"TEXCOORD_0":2
					},
					"indices":3,
					"material":0
				}
			]
		}
	],
	"accessors":[
		{
			"bufferView":0,
			"componentType":5126,
			"count":55,
			"max":[
				0.06471019238233566,
				0.024217620491981506,
				0
			],
			"min":[
				-0.06471019983291626,
				-0.024217620491981506,
				-0.6121390461921692
			],
			"type":"VEC3"
		},
		{
			"bufferView":1,
			"componentType":5126,
			"count":55,
			"type":"VEC3"
		},
		{
			"bufferView":2,
			"componentType":5126,
			"count":55,
			"type":"VEC2"
		},
		{
			"bufferView":3,
			"componentType":5123,
			"count":156,
			"type":"SCALAR"
		},
		{
			"bufferView":4,
			"componentType":5126,
			"count":61,
			"max":[
				2
			],
			"min":[
				0
			],
			"type":"SCALAR"
		},
		{
			"bufferView":5,
			"componentType":5126,
			"count":61,
			"type":"VEC3"
		},
		{
			"bufferView":6,
			"componentType":5126,
			"count":61,
			"type":"VEC4"
		},
		{
			"bufferView":7,
			"componentType":5126,
			"count":2,
			"max":[
				2
			],
			"min":[
				0
			],
			"type":"SCALAR"
		},
		{
			"bufferView":8,
			"componentType":5126,
			"count":2,
			"type":"VEC3"
		}
	],
	"bufferViews":[
		{
			"buffer":0,
			"byteLength":660,
			"byteOffset":0,
			"target":34962
		},
		{
			"buffer":0,
			"byteLength":660,
			"byteOffset":660,
			"target":34962
		},
		{
			"buffer":0,
			"byteLength":440,
			"byteOffset":1320,
			"target":34962
		},
		{
			"buffer":0,
			"byteLength":312,
			"byteOffset":1760,
			"target":34963
		},
		{
			"buffer":0,
			"byteLength":244,
			"byteOffset":2072
		},
		{
			"buffer":0,
			"byteLength":732,
			"byteOffset":2316
		},
		{
			"buffer":0,
			"byteLength":976,
			"byteOffset":3048
		},
		{
			"buffer":0,
			"byteLength":8,
			"byteOffset":4024
		},
		{
			"buffer":0,
			"byteLength":24,
			"byteOffset":4032
		}
	],
	"buffers":[
		{
			"byteLength":4056,
			"uri":"obj_mark02.bin"
		}
	]
}
