{
	"asset":{
		"generator":"Khronos glTF Blender I/O v4.1.63",
		"version":"2.0"
	},
	"extensionsUsed":[
		"KHR_materials_specular",
		"KHR_materials_ior"
	],
	"scene":0,
	"scenes":[
		{
			"name":"Scene",
			"nodes":[
				0,
				1
			]
		}
	],
	"nodes":[
		{
			"mesh":0,
			"name":"obj_decoration01"
		},
		{
			"mesh":1,
			"name":"obj_decoration01_collider"
		}
	],
	"materials":[
		{
			"emissiveFactor":[
				0.20000000298023224,
				0.20000000298023224,
				0.20000000298023224
			],
			"emissiveTexture":{
				"index":0
			},
			"extensions":{
				"KHR_materials_specular":{
					"specularFactor":0
				},
				"KHR_materials_ior":{
					"ior":1.4500000476837158
				}
			},
			"name":"obj_decoration01",
			"pbrMetallicRoughness":{
				"baseColorTexture":{
					"index":1
				},
				"metallicFactor":0
			}
		},
		{
			"emissiveFactor":[
				0.9215658903121948,
				0.7304738759994507,
				0.16513018310070038
			],
			"extensions":{
				"KHR_materials_specular":{
					"specularFactor":0
				},
				"KHR_materials_ior":{
					"ior":1.4500000476837158
				}
			},
			"name":"obj_global_emission02",
			"pbrMetallicRoughness":{
				"baseColorFactor":[
					0.9203937649726868,
					0.7313708662986755,
					0.1655372530221939,
					1
				],
				"metallicFactor":0
			}
		}
	],
	"meshes":[
		{
			"name":"Mesh.021",
			"primitives":[
				{
					"attributes":{
						"POSITION":0,
						"NORMAL":1,
						"TEXCOORD_0":2
					},
					"indices":3,
					"material":0
				},
				{
					"attributes":{
						"POSITION":4,
						"NORMAL":5,
						"TEXCOORD_0":6
					},
					"indices":7,
					"material":1
				}
			]
		},
		{
			"name":"Mesh.025",
			"primitives":[
				{
					"attributes":{
						"POSITION":8,
						"NORMAL":9,
						"TEXCOORD_0":10
					},
					"indices":11
				}
			]
		}
	],
	"textures":[
		{
			"sampler":0,
			"source":0
		},
		{
			"sampler":0,
			"source":0
		}
	],
	"images":[
		{
			"mimeType":"image/jpeg",
			"name":"obj_decoration01",
			"uri":"textures/obj_decoration01.jpg"
		}
	],
	"accessors":[
		{
			"bufferView":0,
			"componentType":5126,
			"count":413,
			"max":[
				3.0665018558502197,
				3.072535991668701,
				2.4270520210266113
			],
			"min":[
				-2.616319179534912,
				-0.0072972774505615234,
				-0.41381537914276123
			],
			"type":"VEC3"
		},
		{
			"bufferView":1,
			"componentType":5126,
			"count":413,
			"type":"VEC3"
		},
		{
			"bufferView":2,
			"componentType":5126,
			"count":413,
			"type":"VEC2"
		},
		{
			"bufferView":3,
			"componentType":5123,
			"count":1137,
			"type":"SCALAR"
		},
		{
			"bufferView":4,
			"componentType":5126,
			"count":75,
			"max":[
				3.0665018558502197,
				2.960287094116211,
				2.4270520210266113
			],
			"min":[
				-1.26180899143219,
				-2.384185791015625e-07,
				-0.26241356134414673
			],
			"type":"VEC3"
		},
		{
			"bufferView":5,
			"componentType":5126,
			"count":75,
			"type":"VEC3"
		},
		{
			"bufferView":6,
			"componentType":5126,
			"count":75,
			"type":"VEC2"
		},
		{
			"bufferView":7,
			"componentType":5123,
			"count":195,
			"type":"SCALAR"
		},
		{
			"bufferView":8,
			"componentType":5126,
			"count":208,
			"max":[
				3.0361177921295166,
				3.072535991668701,
				2.3806517124176025
			],
			"min":[
				-2.59826397895813,
				-0.0072972774505615234,
				-0.41381537914276123
			],
			"type":"VEC3"
		},
		{
			"bufferView":9,
			"componentType":5126,
			"count":208,
			"type":"VEC3"
		},
		{
			"bufferView":10,
			"componentType":5126,
			"count":208,
			"type":"VEC2"
		},
		{
			"bufferView":11,
			"componentType":5123,
			"count":564,
			"type":"SCALAR"
		}
	],
	"bufferViews":[
		{
			"buffer":0,
			"byteLength":4956,
			"byteOffset":0,
			"target":34962
		},
		{
			"buffer":0,
			"byteLength":4956,
			"byteOffset":4956,
			"target":34962
		},
		{
			"buffer":0,
			"byteLength":3304,
			"byteOffset":9912,
			"target":34962
		},
		{
			"buffer":0,
			"byteLength":2274,
			"byteOffset":13216,
			"target":34963
		},
		{
			"buffer":0,
			"byteLength":900,
			"byteOffset":15492,
			"target":34962
		},
		{
			"buffer":0,
			"byteLength":900,
			"byteOffset":16392,
			"target":34962
		},
		{
			"buffer":0,
			"byteLength":600,
			"byteOffset":17292,
			"target":34962
		},
		{
			"buffer":0,
			"byteLength":390,
			"byteOffset":17892,
			"target":34963
		},
		{
			"buffer":0,
			"byteLength":2496,
			"byteOffset":18284,
			"target":34962
		},
		{
			"buffer":0,
			"byteLength":2496,
			"byteOffset":20780,
			"target":34962
		},
		{
			"buffer":0,
			"byteLength":1664,
			"byteOffset":23276,
			"target":34962
		},
		{
			"buffer":0,
			"byteLength":1128,
			"byteOffset":24940,
			"target":34963
		}
	],
	"samplers":[
		{
			"magFilter":9729,
			"minFilter":9987
		}
	],
	"buffers":[
		{
			"byteLength":26068,
			"uri":"obj_decoration01.bin"
		}
	]
}
