{
	"asset":{
		"generator":"Khronos glTF Blender I/O v4.3.47",
		"version":"2.0"
	},
	"extensionsUsed":[
		"KHR_materials_clearcoat",
		"KHR_materials_specular"
	],
	"scene":0,
	"scenes":[
		{
			"name":"Scene",
			"nodes":[
				0,
				1
			]
		}
	],
	"nodes":[
		{
			"mesh":0,
			"name":"obj_projector"
		},
		{
			"mesh":1,
			"name":"obj_projector_collider"
		}
	],
	"materials":[
		{
			"alphaMode":"BLEND",
			"doubleSided":true,
			"emissiveFactor":[
				0.1384306102991104,
				0.6795418858528137,
				0.8307697176933289
			],
			"extensions":{
				"KHR_materials_specular":{
					"specularFactor":0
				}
			},
			"name":"obj_gradient01",
			"pbrMetallicRoughness":{
				"baseColorFactor":[
					0.1384306102991104,
					0.6795418858528137,
					0.8307697176933289,
					1
				],
				"baseColorTexture":{
					"index":0
				},
				"metallicFactor":0
			}
		},
		{
			"doubleSided":true,
			"emissiveFactor":[
				1,
				1,
				1
			],
			"emissiveTexture":{
				"index":1
			},
			"extensions":{
				"KHR_materials_clearcoat":{
					"clearcoatRoughnessFactor":0
				},
				"KHR_materials_specular":{
					"specularFactor":0
				}
			},
			"name":"obj_projector",
			"pbrMetallicRoughness":{
				"baseColorTexture":{
					"index":2
				},
				"metallicFactor":0
			}
		}
	],
	"meshes":[
		{
			"name":"obj_projector",
			"primitives":[
				{
					"attributes":{
						"POSITION":0,
						"NORMAL":1,
						"TEXCOORD_0":2
					},
					"indices":3,
					"material":0
				},
				{
					"attributes":{
						"POSITION":4,
						"NORMAL":5,
						"TEXCOORD_0":6
					},
					"indices":7,
					"material":1
				}
			]
		},
		{
			"name":"obj_projector_collider",
			"primitives":[
				{
					"attributes":{
						"POSITION":8,
						"NORMAL":9,
						"TEXCOORD_0":10
					},
					"indices":11
				}
			]
		}
	],
	"textures":[
		{
			"sampler":0,
			"source":0
		},
		{
			"sampler":0,
			"source":1
		},
		{
			"sampler":0,
			"source":2
		}
	],
	"images":[
		{
			"mimeType":"image/png",
			"name":"obj_gradient01",
			"uri":"textures/obj_gradient01.png"
		},
		{
			"mimeType":"image/png",
			"name":"obj_projector_emission",
			"uri":"textures/obj_projector_emission.png"
		},
		{
			"mimeType":"image/png",
			"name":"obj_projector",
			"uri":"textures/obj_projector.png"
		}
	],
	"accessors":[
		{
			"bufferView":0,
			"componentType":5126,
			"count":462,
			"max":[
				67.16019439697266,
				25.25080108642578,
				55.334503173828125
			],
			"min":[
				-60.21155548095703,
				17.439186096191406,
				-31.17313003540039
			],
			"type":"VEC3"
		},
		{
			"bufferView":1,
			"componentType":5126,
			"count":462,
			"type":"VEC3"
		},
		{
			"bufferView":2,
			"componentType":5126,
			"count":462,
			"type":"VEC2"
		},
		{
			"bufferView":3,
			"componentType":5123,
			"count":1320,
			"type":"SCALAR"
		},
		{
			"bufferView":4,
			"componentType":5126,
			"count":9240,
			"max":[
				63.82527160644531,
				21.409408569335938,
				55.41267395019531
			],
			"min":[
				-59.53630065917969,
				17.317424774169922,
				-27.027359008789062
			],
			"type":"VEC3"
		},
		{
			"bufferView":5,
			"componentType":5126,
			"count":9240,
			"type":"VEC3"
		},
		{
			"bufferView":6,
			"componentType":5126,
			"count":9240,
			"type":"VEC2"
		},
		{
			"bufferView":7,
			"componentType":5123,
			"count":37026,
			"type":"SCALAR"
		},
		{
			"bufferView":8,
			"componentType":5126,
			"count":396,
			"max":[
				63.83728790283203,
				21.407875061035156,
				55.43025207519531
			],
			"min":[
				-59.562068939208984,
				17.31769561767578,
				-27.03938865661621
			],
			"type":"VEC3"
		},
		{
			"bufferView":9,
			"componentType":5126,
			"count":396,
			"type":"VEC3"
		},
		{
			"bufferView":10,
			"componentType":5126,
			"count":396,
			"type":"VEC2"
		},
		{
			"bufferView":11,
			"componentType":5123,
			"count":1980,
			"type":"SCALAR"
		}
	],
	"bufferViews":[
		{
			"buffer":0,
			"byteLength":5544,
			"byteOffset":0,
			"target":34962
		},
		{
			"buffer":0,
			"byteLength":5544,
			"byteOffset":5544,
			"target":34962
		},
		{
			"buffer":0,
			"byteLength":3696,
			"byteOffset":11088,
			"target":34962
		},
		{
			"buffer":0,
			"byteLength":2640,
			"byteOffset":14784,
			"target":34963
		},
		{
			"buffer":0,
			"byteLength":110880,
			"byteOffset":17424,
			"target":34962
		},
		{
			"buffer":0,
			"byteLength":110880,
			"byteOffset":128304,
			"target":34962
		},
		{
			"buffer":0,
			"byteLength":73920,
			"byteOffset":239184,
			"target":34962
		},
		{
			"buffer":0,
			"byteLength":74052,
			"byteOffset":313104,
			"target":34963
		},
		{
			"buffer":0,
			"byteLength":4752,
			"byteOffset":387156,
			"target":34962
		},
		{
			"buffer":0,
			"byteLength":4752,
			"byteOffset":391908,
			"target":34962
		},
		{
			"buffer":0,
			"byteLength":3168,
			"byteOffset":396660,
			"target":34962
		},
		{
			"buffer":0,
			"byteLength":3960,
			"byteOffset":399828,
			"target":34963
		}
	],
	"samplers":[
		{
			"magFilter":9729,
			"minFilter":9987
		}
	],
	"buffers":[
		{
			"byteLength":403788,
			"uri":"obj_projector.bin"
		}
	]
}
