{
	"asset":{
		"generator":"Khronos glTF Blender I/O v4.3.47",
		"version":"2.0"
	},
	"extensionsUsed":[
		"KHR_materials_specular"
	],
	"scene":0,
	"scenes":[
		{
			"name":"Scene",
			"nodes":[
				0,
				1
			]
		}
	],
	"nodes":[
		{
			"mesh":0,
			"name":"obj_table"
		},
		{
			"mesh":1,
			"name":"obj_table_collider"
		}
	],
	"materials":[
		{
			"emissiveFactor":[
				1,
				1,
				1
			],
			"emissiveTexture":{
				"index":0
			},
			"extensions":{
				"KHR_materials_specular":{
					"specularFactor":0
				}
			},
			"name":"obj_table",
			"pbrMetallicRoughness":{
				"baseColorTexture":{
					"index":1
				},
				"metallicFactor":0
			}
		}
	],
	"meshes":[
		{
			"name":"obj_table",
			"primitives":[
				{
					"attributes":{
						"POSITION":0,
						"NORMAL":1,
						"TEXCOORD_0":2
					},
					"indices":3,
					"material":0
				}
			]
		},
		{
			"name":"obj_table_collider",
			"primitives":[
				{
					"attributes":{
						"POSITION":4,
						"NORMAL":5,
						"TEXCOORD_0":6
					},
					"indices":7
				}
			]
		}
	],
	"textures":[
		{
			"sampler":0,
			"source":0
		},
		{
			"sampler":0,
			"source":1
		}
	],
	"images":[
		{
			"mimeType":"image/png",
			"name":"obj_table_emission",
			"uri":"textures/obj_table_emission.png"
		},
		{
			"mimeType":"image/png",
			"name":"obj_table",
			"uri":"textures/obj_table.png"
		}
	],
	"accessors":[
		{
			"bufferView":0,
			"componentType":5126,
			"count":3556,
			"max":[
				47.020450592041016,
				18.278911590576172,
				29.55265998840332
			],
			"min":[
				-54.303123474121094,
				16.36490821838379,
				-1.8246369361877441
			],
			"type":"VEC3"
		},
		{
			"bufferView":1,
			"componentType":5126,
			"count":3556,
			"type":"VEC3"
		},
		{
			"bufferView":2,
			"componentType":5126,
			"count":3556,
			"type":"VEC2"
		},
		{
			"bufferView":3,
			"componentType":5123,
			"count":9744,
			"type":"SCALAR"
		},
		{
			"bufferView":4,
			"componentType":5126,
			"count":65,
			"max":[
				47.01972961425781,
				18.351953506469727,
				29.597490310668945
			],
			"min":[
				-54.29757308959961,
				16.36501121520996,
				-1.7750667333602905
			],
			"type":"VEC3"
		},
		{
			"bufferView":5,
			"componentType":5126,
			"count":65,
			"type":"VEC3"
		},
		{
			"bufferView":6,
			"componentType":5126,
			"count":65,
			"type":"VEC2"
		},
		{
			"bufferView":7,
			"componentType":5123,
			"count":180,
			"type":"SCALAR"
		}
	],
	"bufferViews":[
		{
			"buffer":0,
			"byteLength":42672,
			"byteOffset":0,
			"target":34962
		},
		{
			"buffer":0,
			"byteLength":42672,
			"byteOffset":42672,
			"target":34962
		},
		{
			"buffer":0,
			"byteLength":28448,
			"byteOffset":85344,
			"target":34962
		},
		{
			"buffer":0,
			"byteLength":19488,
			"byteOffset":113792,
			"target":34963
		},
		{
			"buffer":0,
			"byteLength":780,
			"byteOffset":133280,
			"target":34962
		},
		{
			"buffer":0,
			"byteLength":780,
			"byteOffset":134060,
			"target":34962
		},
		{
			"buffer":0,
			"byteLength":520,
			"byteOffset":134840,
			"target":34962
		},
		{
			"buffer":0,
			"byteLength":360,
			"byteOffset":135360,
			"target":34963
		}
	],
	"samplers":[
		{
			"magFilter":9729,
			"minFilter":9987
		}
	],
	"buffers":[
		{
			"byteLength":135720,
			"uri":"obj_table.bin"
		}
	]
}
