{
	"asset":{
		"generator":"Khronos glTF Blender I/O v4.1.63",
		"version":"2.0"
	},
	"extensionsUsed":[
		"KHR_materials_specular",
		"KHR_materials_ior"
	],
	"scene":0,
	"scenes":[
		{
			"name":"Scene",
			"nodes":[
				0,
				1
			]
		}
	],
	"nodes":[
		{
			"mesh":0,
			"name":"obj_lab09"
		},
		{
			"mesh":1,
			"name":"obj_lab09_collider"
		}
	],
	"materials":[
		{
			"emissiveFactor":[
				0.800000011920929,
				0.800000011920929,
				0.800000011920929
			],
			"emissiveTexture":{
				"index":0
			},
			"extensions":{
				"KHR_materials_specular":{
					"specularFactor":0
				},
				"KHR_materials_ior":{
					"ior":1.4500000476837158
				}
			},
			"name":"obj_crystal01",
			"pbrMetallicRoughness":{
				"baseColorTexture":{
					"index":1
				},
				"metallicFactor":0
			}
		},
		{
			"emissiveFactor":[
				1,
				1,
				1
			],
			"emissiveTexture":{
				"index":2
			},
			"extensions":{
				"KHR_materials_specular":{
					"specularFactor":0
				},
				"KHR_materials_ior":{
					"ior":1.4500000476837158
				}
			},
			"name":"obj_lav09_02",
			"pbrMetallicRoughness":{
				"baseColorTexture":{
					"index":3
				},
				"metallicFactor":0
			}
		},
		{
			"alphaMode":"BLEND",
			"emissiveFactor":[
				0.5,
				0.5,
				0.5
			],
			"emissiveTexture":{
				"index":4
			},
			"name":"obj_lav09_03",
			"pbrMetallicRoughness":{
				"baseColorFactor":[
					1,
					1,
					1,
					0.5
				],
				"baseColorTexture":{
					"index":5
				},
				"metallicFactor":0,
				"roughnessFactor":0.5527864098548889
			}
		},
		{
			"emissiveFactor":[
				1,
				1,
				1
			],
			"emissiveTexture":{
				"index":6
			},
			"extensions":{
				"KHR_materials_specular":{
					"specularFactor":0
				},
				"KHR_materials_ior":{
					"ior":1.4500000476837158
				}
			},
			"name":"obj_lav09_01",
			"pbrMetallicRoughness":{
				"baseColorTexture":{
					"index":7
				},
				"metallicFactor":0
			}
		},
		{
			"emissiveFactor":[
				1,
				1,
				1
			],
			"emissiveTexture":{
				"index":8
			},
			"extensions":{
				"KHR_materials_specular":{
					"specularFactor":0
				},
				"KHR_materials_ior":{
					"ior":1.4500000476837158
				}
			},
			"name":"obj_lab02_02",
			"pbrMetallicRoughness":{
				"baseColorTexture":{
					"index":9
				},
				"metallicFactor":0
			}
		}
	],
	"meshes":[
		{
			"name":"Mesh.034",
			"primitives":[
				{
					"attributes":{
						"POSITION":0,
						"NORMAL":1,
						"TEXCOORD_0":2
					},
					"indices":3,
					"material":0
				},
				{
					"attributes":{
						"POSITION":4,
						"NORMAL":5,
						"TEXCOORD_0":6
					},
					"indices":7,
					"material":1
				},
				{
					"attributes":{
						"POSITION":8,
						"NORMAL":9,
						"TEXCOORD_0":10
					},
					"indices":11,
					"material":2
				},
				{
					"attributes":{
						"POSITION":12,
						"NORMAL":13,
						"TEXCOORD_0":14
					},
					"indices":15,
					"material":3
				},
				{
					"attributes":{
						"POSITION":16,
						"NORMAL":17,
						"TEXCOORD_0":18
					},
					"indices":19,
					"material":4
				}
			]
		},
		{
			"name":"Mesh.033",
			"primitives":[
				{
					"attributes":{
						"POSITION":20,
						"NORMAL":21,
						"TEXCOORD_0":22
					},
					"indices":23
				}
			]
		}
	],
	"textures":[
		{
			"sampler":0,
			"source":0
		},
		{
			"sampler":0,
			"source":1
		},
		{
			"sampler":0,
			"source":2
		},
		{
			"sampler":0,
			"source":3
		},
		{
			"sampler":0,
			"source":4
		},
		{
			"sampler":0,
			"source":4
		},
		{
			"sampler":0,
			"source":5
		},
		{
			"sampler":0,
			"source":6
		},
		{
			"sampler":0,
			"source":7
		},
		{
			"sampler":0,
			"source":8
		}
	],
	"images":[
		{
			"mimeType":"image/png",
			"name":"obj_crystal01_emission",
			"uri":"textures/obj_crystal01_emission.png"
		},
		{
			"mimeType":"image/png",
			"name":"obj_crystal01",
			"uri":"textures/obj_crystal01.png"
		},
		{
			"mimeType":"image/png",
			"name":"obj_lab09_02_emission",
			"uri":"textures/obj_lab09_02_emission.png"
		},
		{
			"mimeType":"image/png",
			"name":"obj_lab09_02",
			"uri":"textures/obj_lab09_02.png"
		},
		{
			"mimeType":"image/png",
			"name":"obj_lab09_03",
			"uri":"textures/obj_lab09_03.png"
		},
		{
			"mimeType":"image/png",
			"name":"obj_lab09_01_emission",
			"uri":"textures/obj_lab09_01_emission.png"
		},
		{
			"mimeType":"image/png",
			"name":"obj_lab09_01",
			"uri":"textures/obj_lab09_01.png"
		},
		{
			"mimeType":"image/png",
			"name":"obj_lab02_02_emission",
			"uri":"textures/obj_lab02_02_emission.png"
		},
		{
			"mimeType":"image/png",
			"name":"obj_lab02_02",
			"uri":"textures/obj_lab02_02.png"
		}
	],
	"accessors":[
		{
			"bufferView":0,
			"componentType":5126,
			"count":84,
			"max":[
				1.5649436712265015,
				3.1607272624969482,
				0.08760111778974533
			],
			"min":[
				1.4165635108947754,
				2.56184983253479,
				-0.04123946279287338
			],
			"type":"VEC3"
		},
		{
			"bufferView":1,
			"componentType":5126,
			"count":84,
			"type":"VEC3"
		},
		{
			"bufferView":2,
			"componentType":5126,
			"count":84,
			"type":"VEC2"
		},
		{
			"bufferView":3,
			"componentType":5123,
			"count":144,
			"type":"SCALAR"
		},
		{
			"bufferView":4,
			"componentType":5126,
			"count":2327,
			"max":[
				2.57083797454834,
				4.100505828857422,
				0.7653104662895203
			],
			"min":[
				0.36646342277526855,
				0.8682862520217896,
				-0.36057963967323303
			],
			"type":"VEC3"
		},
		{
			"bufferView":5,
			"componentType":5126,
			"count":2327,
			"type":"VEC3"
		},
		{
			"bufferView":6,
			"componentType":5126,
			"count":2327,
			"type":"VEC2"
		},
		{
			"bufferView":7,
			"componentType":5123,
			"count":7476,
			"type":"SCALAR"
		},
		{
			"bufferView":8,
			"componentType":5126,
			"count":372,
			"max":[
				1.1712360382080078,
				3.8129615783691406,
				0.44421178102493286
			],
			"min":[
				0.33326995372772217,
				3.0454013347625732,
				-0.3937746584415436
			],
			"type":"VEC3"
		},
		{
			"bufferView":9,
			"componentType":5126,
			"count":372,
			"type":"VEC3"
		},
		{
			"bufferView":10,
			"componentType":5126,
			"count":372,
			"type":"VEC2"
		},
		{
			"bufferView":11,
			"componentType":5123,
			"count":1668,
			"type":"SCALAR"
		},
		{
			"bufferView":12,
			"componentType":5126,
			"count":1755,
			"max":[
				0.9221974611282349,
				4.024759292602539,
				1.3235758543014526
			],
			"min":[
				-2.5636398792266846,
				0,
				-1.3235766887664795
			],
			"type":"VEC3"
		},
		{
			"bufferView":13,
			"componentType":5126,
			"count":1755,
			"type":"VEC3"
		},
		{
			"bufferView":14,
			"componentType":5126,
			"count":1755,
			"type":"VEC2"
		},
		{
			"bufferView":15,
			"componentType":5123,
			"count":6516,
			"type":"SCALAR"
		},
		{
			"bufferView":16,
			"componentType":5126,
			"count":222,
			"max":[
				2.7439417839050293,
				0.968286395072937,
				1.2521977424621582
			],
			"min":[
				0.583941638469696,
				0,
				-1.1437395811080933
			],
			"type":"VEC3"
		},
		{
			"bufferView":17,
			"componentType":5126,
			"count":222,
			"type":"VEC3"
		},
		{
			"bufferView":18,
			"componentType":5126,
			"count":222,
			"type":"VEC2"
		},
		{
			"bufferView":19,
			"componentType":5123,
			"count":372,
			"type":"SCALAR"
		},
		{
			"bufferView":20,
			"componentType":5126,
			"count":2228,
			"max":[
				2.7439417839050293,
				4.100505828857422,
				1.3235760927200317
			],
			"min":[
				-2.5636396408081055,
				0,
				-1.32357656955719
			],
			"type":"VEC3"
		},
		{
			"bufferView":21,
			"componentType":5126,
			"count":2228,
			"type":"VEC3"
		},
		{
			"bufferView":22,
			"componentType":5126,
			"count":2228,
			"type":"VEC2"
		},
		{
			"bufferView":23,
			"componentType":5123,
			"count":5298,
			"type":"SCALAR"
		}
	],
	"bufferViews":[
		{
			"buffer":0,
			"byteLength":1008,
			"byteOffset":0,
			"target":34962
		},
		{
			"buffer":0,
			"byteLength":1008,
			"byteOffset":1008,
			"target":34962
		},
		{
			"buffer":0,
			"byteLength":672,
			"byteOffset":2016,
			"target":34962
		},
		{
			"buffer":0,
			"byteLength":288,
			"byteOffset":2688,
			"target":34963
		},
		{
			"buffer":0,
			"byteLength":27924,
			"byteOffset":2976,
			"target":34962
		},
		{
			"buffer":0,
			"byteLength":27924,
			"byteOffset":30900,
			"target":34962
		},
		{
			"buffer":0,
			"byteLength":18616,
			"byteOffset":58824,
			"target":34962
		},
		{
			"buffer":0,
			"byteLength":14952,
			"byteOffset":77440,
			"target":34963
		},
		{
			"buffer":0,
			"byteLength":4464,
			"byteOffset":92392,
			"target":34962
		},
		{
			"buffer":0,
			"byteLength":4464,
			"byteOffset":96856,
			"target":34962
		},
		{
			"buffer":0,
			"byteLength":2976,
			"byteOffset":101320,
			"target":34962
		},
		{
			"buffer":0,
			"byteLength":3336,
			"byteOffset":104296,
			"target":34963
		},
		{
			"buffer":0,
			"byteLength":21060,
			"byteOffset":107632,
			"target":34962
		},
		{
			"buffer":0,
			"byteLength":21060,
			"byteOffset":128692,
			"target":34962
		},
		{
			"buffer":0,
			"byteLength":14040,
			"byteOffset":149752,
			"target":34962
		},
		{
			"buffer":0,
			"byteLength":13032,
			"byteOffset":163792,
			"target":34963
		},
		{
			"buffer":0,
			"byteLength":2664,
			"byteOffset":176824,
			"target":34962
		},
		{
			"buffer":0,
			"byteLength":2664,
			"byteOffset":179488,
			"target":34962
		},
		{
			"buffer":0,
			"byteLength":1776,
			"byteOffset":182152,
			"target":34962
		},
		{
			"buffer":0,
			"byteLength":744,
			"byteOffset":183928,
			"target":34963
		},
		{
			"buffer":0,
			"byteLength":26736,
			"byteOffset":184672,
			"target":34962
		},
		{
			"buffer":0,
			"byteLength":26736,
			"byteOffset":211408,
			"target":34962
		},
		{
			"buffer":0,
			"byteLength":17824,
			"byteOffset":238144,
			"target":34962
		},
		{
			"buffer":0,
			"byteLength":10596,
			"byteOffset":255968,
			"target":34963
		}
	],
	"samplers":[
		{
			"magFilter":9729,
			"minFilter":9987
		}
	],
	"buffers":[
		{
			"byteLength":266564,
			"uri":"obj_lab09.bin"
		}
	]
}
