{
	"asset":{
		"generator":"Khronos glTF Blender I/O v4.1.63",
		"version":"2.0"
	},
	"extensionsUsed":[
		"KHR_materials_specular",
		"KHR_materials_ior",
		"KHR_materials_emissive_strength"
	],
	"scene":0,
	"scenes":[
		{
			"name":"Scene",
			"nodes":[
				0,
				1
			]
		}
	],
	"nodes":[
		{
			"mesh":0,
			"name":"obj_workbench"
		},
		{
			"mesh":1,
			"name":"obj_workbench_collider"
		}
	],
	"materials":[
		{
			"emissiveFactor":[
				0.07999999821186066,
				0.07999999821186066,
				0.07999999821186066
			],
			"emissiveTexture":{
				"index":0
			},
			"extensions":{
				"KHR_materials_specular":{
					"specularFactor":0
				},
				"KHR_materials_ior":{
					"ior":1.4500000476837158
				}
			},
			"name":"obj_workbench01",
			"pbrMetallicRoughness":{
				"baseColorTexture":{
					"index":1
				},
				"metallicFactor":0
			}
		},
		{
			"emissiveFactor":[
				0.26229405403137207,
				0.5646868348121643,
				0.921515166759491
			],
			"extensions":{
				"KHR_materials_specular":{
					"specularFactor":0
				},
				"KHR_materials_ior":{
					"ior":1.4500000476837158
				}
			},
			"name":"obj_global_emission01",
			"pbrMetallicRoughness":{
				"baseColorFactor":[
					0.2617267668247223,
					0.566400408744812,
					0.9218639135360718,
					1
				],
				"metallicFactor":0
			}
		},
		{
			"alphaMode":"BLEND",
			"doubleSided":true,
			"emissiveFactor":[
				1,
				1,
				1
			],
			"emissiveTexture":{
				"index":2
			},
			"extensions":{
				"KHR_materials_emissive_strength":{
					"emissiveStrength":1.5
				},
				"KHR_materials_specular":{
					"specularFactor":0
				},
				"KHR_materials_ior":{
					"ior":1.4500000476837158
				}
			},
			"name":"obj_workbench02",
			"pbrMetallicRoughness":{
				"baseColorFactor":[
					1,
					1,
					1,
					0.699999988079071
				],
				"baseColorTexture":{
					"index":3
				},
				"metallicFactor":0
			}
		},
		{
			"alphaMode":"BLEND",
			"emissiveFactor":[
				1,
				1,
				1
			],
			"emissiveTexture":{
				"index":4
			},
			"extensions":{
				"KHR_materials_emissive_strength":{
					"emissiveStrength":2
				},
				"KHR_materials_specular":{
					"specularFactor":0
				},
				"KHR_materials_ior":{
					"ior":1.4500000476837158
				}
			},
			"name":"obj_workbench03",
			"pbrMetallicRoughness":{
				"baseColorFactor":[
					1,
					1,
					1,
					0.22363635897636414
				],
				"baseColorTexture":{
					"index":5
				},
				"metallicFactor":0
			}
		},
		{
			"alphaMode":"BLEND",
			"emissiveFactor":[
				1,
				1,
				1
			],
			"emissiveTexture":{
				"index":6
			},
			"extensions":{
				"KHR_materials_emissive_strength":{
					"emissiveStrength":2
				},
				"KHR_materials_specular":{
					"specularFactor":0
				},
				"KHR_materials_ior":{
					"ior":1.4500000476837158
				}
			},
			"name":"obj_globe02",
			"pbrMetallicRoughness":{
				"baseColorFactor":[
					1,
					1,
					1,
					0.699999988079071
				],
				"baseColorTexture":{
					"index":7
				},
				"metallicFactor":0
			}
		},
		{
			"alphaMode":"BLEND",
			"emissiveFactor":[
				1,
				1,
				1
			],
			"emissiveTexture":{
				"index":8
			},
			"extensions":{
				"KHR_materials_emissive_strength":{
					"emissiveStrength":2
				},
				"KHR_materials_specular":{
					"specularFactor":0
				},
				"KHR_materials_ior":{
					"ior":1.4500000476837158
				}
			},
			"name":"obj_globe03",
			"pbrMetallicRoughness":{
				"baseColorFactor":[
					1,
					1,
					1,
					0.20000000298023224
				],
				"baseColorTexture":{
					"index":9
				},
				"metallicFactor":0
			}
		}
	],
	"meshes":[
		{
			"name":"Cube.007",
			"primitives":[
				{
					"attributes":{
						"POSITION":0,
						"NORMAL":1,
						"TEXCOORD_0":2
					},
					"indices":3,
					"material":0
				},
				{
					"attributes":{
						"POSITION":4,
						"NORMAL":5,
						"TEXCOORD_0":6
					},
					"indices":7,
					"material":1
				},
				{
					"attributes":{
						"POSITION":8,
						"NORMAL":9,
						"TEXCOORD_0":10
					},
					"indices":11,
					"material":2
				},
				{
					"attributes":{
						"POSITION":12,
						"NORMAL":13,
						"TEXCOORD_0":14
					},
					"indices":15,
					"material":3
				},
				{
					"attributes":{
						"POSITION":16,
						"NORMAL":17,
						"TEXCOORD_0":18
					},
					"indices":19,
					"material":4
				},
				{
					"attributes":{
						"POSITION":20,
						"NORMAL":21,
						"TEXCOORD_0":22
					},
					"indices":23,
					"material":5
				}
			]
		},
		{
			"name":"Cube.009",
			"primitives":[
				{
					"attributes":{
						"POSITION":24,
						"NORMAL":25,
						"TEXCOORD_0":26
					},
					"indices":27
				}
			]
		}
	],
	"textures":[
		{
			"sampler":0,
			"source":0
		},
		{
			"sampler":0,
			"source":0
		},
		{
			"sampler":0,
			"source":1
		},
		{
			"sampler":0,
			"source":1
		},
		{
			"sampler":0,
			"source":1
		},
		{
			"sampler":0,
			"source":1
		},
		{
			"sampler":0,
			"source":2
		},
		{
			"sampler":0,
			"source":2
		},
		{
			"sampler":0,
			"source":3
		},
		{
			"sampler":0,
			"source":3
		}
	],
	"images":[
		{
			"mimeType":"image/png",
			"name":"obj_workbench01",
			"uri":"textures/obj_workbench01.png"
		},
		{
			"mimeType":"image/png",
			"name":"obj_workbench02",
			"uri":"textures/obj_workbench02.png"
		},
		{
			"mimeType":"image/png",
			"name":"obj_globe02",
			"uri":"textures/obj_globe02.png"
		},
		{
			"mimeType":"image/png",
			"name":"obj_globe03",
			"uri":"textures/obj_globe03.png"
		}
	],
	"accessors":[
		{
			"bufferView":0,
			"componentType":5126,
			"count":1429,
			"max":[
				1.4301735162734985,
				1.3273557424545288,
				0.6791707277297974
			],
			"min":[
				-1.4301735162734985,
				0.0010054083541035652,
				-0.8388521671295166
			],
			"type":"VEC3"
		},
		{
			"bufferView":1,
			"componentType":5126,
			"count":1429,
			"type":"VEC3"
		},
		{
			"bufferView":2,
			"componentType":5126,
			"count":1429,
			"type":"VEC2"
		},
		{
			"bufferView":3,
			"componentType":5123,
			"count":3864,
			"type":"SCALAR"
		},
		{
			"bufferView":4,
			"componentType":5126,
			"count":173,
			"max":[
				1.4051604270935059,
				1.327354073524475,
				0.48892778158187866
			],
			"min":[
				-1.4051604270935059,
				0.7045472264289856,
				-0.7267643213272095
			],
			"type":"VEC3"
		},
		{
			"bufferView":5,
			"componentType":5126,
			"count":173,
			"type":"VEC3"
		},
		{
			"bufferView":6,
			"componentType":5126,
			"count":173,
			"type":"VEC2"
		},
		{
			"bufferView":7,
			"componentType":5123,
			"count":396,
			"type":"SCALAR"
		},
		{
			"bufferView":8,
			"componentType":5126,
			"count":16,
			"max":[
				1.4426592588424683,
				1.7219029664993286,
				0.5713126063346863
			],
			"min":[
				-1.4426594972610474,
				0.9532098770141602,
				-0.663719892501831
			],
			"type":"VEC3"
		},
		{
			"bufferView":9,
			"componentType":5126,
			"count":16,
			"type":"VEC3"
		},
		{
			"bufferView":10,
			"componentType":5126,
			"count":16,
			"type":"VEC2"
		},
		{
			"bufferView":11,
			"componentType":5123,
			"count":24,
			"type":"SCALAR"
		},
		{
			"bufferView":12,
			"componentType":5126,
			"count":34,
			"max":[
				0.23426668345928192,
				1.4996304512023926,
				-0.4106407165527344
			],
			"min":[
				-0.2385934442281723,
				1.0963501930236816,
				-0.8835008144378662
			],
			"type":"VEC3"
		},
		{
			"bufferView":13,
			"componentType":5126,
			"count":34,
			"type":"VEC3"
		},
		{
			"bufferView":14,
			"componentType":5126,
			"count":34,
			"type":"VEC2"
		},
		{
			"bufferView":15,
			"componentType":5123,
			"count":96,
			"type":"SCALAR"
		},
		{
			"bufferView":16,
			"componentType":5126,
			"count":167,
			"max":[
				0.2426845282316208,
				1.8788052797317505,
				-0.3977440893650055
			],
			"min":[
				-0.24701139330863953,
				1.3779579401016235,
				-0.8874400854110718
			],
			"type":"VEC3"
		},
		{
			"bufferView":17,
			"componentType":5126,
			"count":167,
			"type":"VEC3"
		},
		{
			"bufferView":18,
			"componentType":5126,
			"count":167,
			"type":"VEC2"
		},
		{
			"bufferView":19,
			"componentType":5123,
			"count":792,
			"type":"SCALAR"
		},
		{
			"bufferView":20,
			"componentType":5126,
			"count":167,
			"max":[
				0.24802695214748383,
				1.8842694759368896,
				-0.39240163564682007
			],
			"min":[
				-0.25235384702682495,
				1.3724937438964844,
				-0.8927825689315796
			],
			"type":"VEC3"
		},
		{
			"bufferView":21,
			"componentType":5126,
			"count":167,
			"type":"VEC3"
		},
		{
			"bufferView":22,
			"componentType":5126,
			"count":167,
			"type":"VEC2"
		},
		{
			"bufferView":23,
			"componentType":5123,
			"count":792,
			"type":"SCALAR"
		},
		{
			"bufferView":24,
			"componentType":5126,
			"count":41,
			"max":[
				1.4485375881195068,
				1.1316272020339966,
				0.6894059181213379
			],
			"min":[
				-1.4485375881195068,
				-0.01119146030396223,
				-0.8413494825363159
			],
			"type":"VEC3"
		},
		{
			"bufferView":25,
			"componentType":5126,
			"count":41,
			"type":"VEC3"
		},
		{
			"bufferView":26,
			"componentType":5126,
			"count":41,
			"type":"VEC2"
		},
		{
			"bufferView":27,
			"componentType":5123,
			"count":198,
			"type":"SCALAR"
		}
	],
	"bufferViews":[
		{
			"buffer":0,
			"byteLength":17148,
			"byteOffset":0,
			"target":34962
		},
		{
			"buffer":0,
			"byteLength":17148,
			"byteOffset":17148,
			"target":34962
		},
		{
			"buffer":0,
			"byteLength":11432,
			"byteOffset":34296,
			"target":34962
		},
		{
			"buffer":0,
			"byteLength":7728,
			"byteOffset":45728,
			"target":34963
		},
		{
			"buffer":0,
			"byteLength":2076,
			"byteOffset":53456,
			"target":34962
		},
		{
			"buffer":0,
			"byteLength":2076,
			"byteOffset":55532,
			"target":34962
		},
		{
			"buffer":0,
			"byteLength":1384,
			"byteOffset":57608,
			"target":34962
		},
		{
			"buffer":0,
			"byteLength":792,
			"byteOffset":58992,
			"target":34963
		},
		{
			"buffer":0,
			"byteLength":192,
			"byteOffset":59784,
			"target":34962
		},
		{
			"buffer":0,
			"byteLength":192,
			"byteOffset":59976,
			"target":34962
		},
		{
			"buffer":0,
			"byteLength":128,
			"byteOffset":60168,
			"target":34962
		},
		{
			"buffer":0,
			"byteLength":48,
			"byteOffset":60296,
			"target":34963
		},
		{
			"buffer":0,
			"byteLength":408,
			"byteOffset":60344,
			"target":34962
		},
		{
			"buffer":0,
			"byteLength":408,
			"byteOffset":60752,
			"target":34962
		},
		{
			"buffer":0,
			"byteLength":272,
			"byteOffset":61160,
			"target":34962
		},
		{
			"buffer":0,
			"byteLength":192,
			"byteOffset":61432,
			"target":34963
		},
		{
			"buffer":0,
			"byteLength":2004,
			"byteOffset":61624,
			"target":34962
		},
		{
			"buffer":0,
			"byteLength":2004,
			"byteOffset":63628,
			"target":34962
		},
		{
			"buffer":0,
			"byteLength":1336,
			"byteOffset":65632,
			"target":34962
		},
		{
			"buffer":0,
			"byteLength":1584,
			"byteOffset":66968,
			"target":34963
		},
		{
			"buffer":0,
			"byteLength":2004,
			"byteOffset":68552,
			"target":34962
		},
		{
			"buffer":0,
			"byteLength":2004,
			"byteOffset":70556,
			"target":34962
		},
		{
			"buffer":0,
			"byteLength":1336,
			"byteOffset":72560,
			"target":34962
		},
		{
			"buffer":0,
			"byteLength":1584,
			"byteOffset":73896,
			"target":34963
		},
		{
			"buffer":0,
			"byteLength":492,
			"byteOffset":75480,
			"target":34962
		},
		{
			"buffer":0,
			"byteLength":492,
			"byteOffset":75972,
			"target":34962
		},
		{
			"buffer":0,
			"byteLength":328,
			"byteOffset":76464,
			"target":34962
		},
		{
			"buffer":0,
			"byteLength":396,
			"byteOffset":76792,
			"target":34963
		}
	],
	"samplers":[
		{
			"magFilter":9729,
			"minFilter":9987
		}
	],
	"buffers":[
		{
			"byteLength":77188,
			"uri":"obj_workbench.bin"
		}
	]
}
