{
	"asset":{
		"generator":"Khronos glTF Blender I/O v4.1.63",
		"version":"2.0"
	},
	"extensionsUsed":[
		"KHR_materials_specular",
		"KHR_materials_ior"
	],
	"scene":0,
	"scenes":[
		{
			"name":"Scene",
			"nodes":[
				0,
				1
			]
		}
	],
	"nodes":[
		{
			"mesh":0,
			"name":"obj_chandelier"
		},
		{
			"mesh":1,
			"name":"obj_chandelier_collider"
		}
	],
	"materials":[
		{
			"alphaMode":"BLEND",
			"emissiveFactor":[
				0.1384306102991104,
				0.6795418858528137,
				0.8307697176933289
			],
			"name":"obj_gradient01",
			"pbrMetallicRoughness":{
				"baseColorFactor":[
					0.1384306102991104,
					0.6795418858528137,
					0.8307697176933289,
					1
				],
				"baseColorTexture":{
					"index":0
				},
				"metallicFactor":0
			}
		},
		{
			"emissiveFactor":[
				1,
				1,
				1
			],
			"emissiveTexture":{
				"index":1
			},
			"extensions":{
				"KHR_materials_specular":{
					"specularFactor":0
				},
				"KHR_materials_ior":{
					"ior":1.4500000476837158
				}
			},
			"name":"obj_screen",
			"pbrMetallicRoughness":{
				"baseColorTexture":{
					"index":2
				},
				"metallicFactor":0
			}
		},
		{
			"alphaCutoff":0.20000000298023224,
			"alphaMode":"MASK",
			"doubleSided":true,
			"emissiveFactor":[
				0.26224830746650696,
				0.5647120475769043,
				0.9215821027755737
			],
			"name":"npc_assistant02",
			"pbrMetallicRoughness":{
				"baseColorTexture":{
					"index":3
				},
				"metallicFactor":0
			}
		}
	],
	"meshes":[
		{
			"name":"Cubo.002",
			"primitives":[
				{
					"attributes":{
						"POSITION":0,
						"NORMAL":1,
						"TEXCOORD_0":2
					},
					"indices":3,
					"material":0
				},
				{
					"attributes":{
						"POSITION":4,
						"NORMAL":5,
						"TEXCOORD_0":6
					},
					"indices":7,
					"material":1
				},
				{
					"attributes":{
						"POSITION":8,
						"NORMAL":9,
						"TEXCOORD_0":10
					},
					"indices":11,
					"material":2
				}
			]
		},
		{
			"name":"Cubo.001",
			"primitives":[
				{
					"attributes":{
						"POSITION":12,
						"NORMAL":13,
						"TEXCOORD_0":14
					},
					"indices":15
				}
			]
		}
	],
	"textures":[
		{
			"sampler":0,
			"source":0
		},
		{
			"sampler":0,
			"source":1
		},
		{
			"sampler":0,
			"source":2
		},
		{
			"sampler":0,
			"source":3
		}
	],
	"images":[
		{
			"mimeType":"image/png",
			"name":"obj_gradient01",
			"uri":"textures/obj_gradient01.png"
		},
		{
			"mimeType":"image/png",
			"name":"obj_screen_emission",
			"uri":"textures/obj_screen_emission.png"
		},
		{
			"mimeType":"image/png",
			"name":"obj_screen",
			"uri":"textures/obj_screen.png"
		},
		{
			"mimeType":"image/png",
			"name":"npc_assistant02",
			"uri":"textures/npc_assistant02.png"
		}
	],
	"accessors":[
		{
			"bufferView":0,
			"componentType":5126,
			"count":1296,
			"max":[
				3.2997946739196777,
				-0.4171743392944336,
				3.2997946739196777
			],
			"min":[
				-3.2997946739196777,
				-1.7351999282836914,
				-3.2997946739196777
			],
			"type":"VEC3"
		},
		{
			"bufferView":1,
			"componentType":5126,
			"count":1296,
			"type":"VEC3"
		},
		{
			"bufferView":2,
			"componentType":5126,
			"count":1296,
			"type":"VEC2"
		},
		{
			"bufferView":3,
			"componentType":5123,
			"count":2376,
			"type":"SCALAR"
		},
		{
			"bufferView":4,
			"componentType":5126,
			"count":343,
			"max":[
				2.184588670730591,
				2.86102294921875e-06,
				2.184588670730591
			],
			"min":[
				-2.184588670730591,
				-0.48149585723876953,
				-2.184588670730591
			],
			"type":"VEC3"
		},
		{
			"bufferView":5,
			"componentType":5126,
			"count":343,
			"type":"VEC3"
		},
		{
			"bufferView":6,
			"componentType":5126,
			"count":343,
			"type":"VEC2"
		},
		{
			"bufferView":7,
			"componentType":5123,
			"count":954,
			"type":"SCALAR"
		},
		{
			"bufferView":8,
			"componentType":5126,
			"count":97,
			"max":[
				2.2005887031555176,
				-0.48294830322265625,
				2.2005887031555176
			],
			"min":[
				-2.2005887031555176,
				-2.5826687812805176,
				-2.2005887031555176
			],
			"type":"VEC3"
		},
		{
			"bufferView":9,
			"componentType":5126,
			"count":97,
			"type":"VEC3"
		},
		{
			"bufferView":10,
			"componentType":5126,
			"count":97,
			"type":"VEC2"
		},
		{
			"bufferView":11,
			"componentType":5123,
			"count":192,
			"type":"SCALAR"
		},
		{
			"bufferView":12,
			"componentType":5126,
			"count":65,
			"max":[
				2.184588670730591,
				2.86102294921875e-06,
				2.184588670730591
			],
			"min":[
				-2.184588670730591,
				-0.48294830322265625,
				-2.184588670730591
			],
			"type":"VEC3"
		},
		{
			"bufferView":13,
			"componentType":5126,
			"count":65,
			"type":"VEC3"
		},
		{
			"bufferView":14,
			"componentType":5126,
			"count":65,
			"type":"VEC2"
		},
		{
			"bufferView":15,
			"componentType":5123,
			"count":144,
			"type":"SCALAR"
		}
	],
	"bufferViews":[
		{
			"buffer":0,
			"byteLength":15552,
			"byteOffset":0,
			"target":34962
		},
		{
			"buffer":0,
			"byteLength":15552,
			"byteOffset":15552,
			"target":34962
		},
		{
			"buffer":0,
			"byteLength":10368,
			"byteOffset":31104,
			"target":34962
		},
		{
			"buffer":0,
			"byteLength":4752,
			"byteOffset":41472,
			"target":34963
		},
		{
			"buffer":0,
			"byteLength":4116,
			"byteOffset":46224,
			"target":34962
		},
		{
			"buffer":0,
			"byteLength":4116,
			"byteOffset":50340,
			"target":34962
		},
		{
			"buffer":0,
			"byteLength":2744,
			"byteOffset":54456,
			"target":34962
		},
		{
			"buffer":0,
			"byteLength":1908,
			"byteOffset":57200,
			"target":34963
		},
		{
			"buffer":0,
			"byteLength":1164,
			"byteOffset":59108,
			"target":34962
		},
		{
			"buffer":0,
			"byteLength":1164,
			"byteOffset":60272,
			"target":34962
		},
		{
			"buffer":0,
			"byteLength":776,
			"byteOffset":61436,
			"target":34962
		},
		{
			"buffer":0,
			"byteLength":384,
			"byteOffset":62212,
			"target":34963
		},
		{
			"buffer":0,
			"byteLength":780,
			"byteOffset":62596,
			"target":34962
		},
		{
			"buffer":0,
			"byteLength":780,
			"byteOffset":63376,
			"target":34962
		},
		{
			"buffer":0,
			"byteLength":520,
			"byteOffset":64156,
			"target":34962
		},
		{
			"buffer":0,
			"byteLength":288,
			"byteOffset":64676,
			"target":34963
		}
	],
	"samplers":[
		{
			"magFilter":9729,
			"minFilter":9987
		}
	],
	"buffers":[
		{
			"byteLength":64964,
			"uri":"obj_chandelier.bin"
		}
	]
}
