{
	"asset":{
		"generator":"Khronos glTF Blender I/O v4.1.63",
		"version":"2.0"
	},
	"extensionsUsed":[
		"KHR_materials_specular",
		"KHR_materials_ior"
	],
	"scene":0,
	"scenes":[
		{
			"name":"Scene",
			"nodes":[
				0,
				1
			]
		}
	],
	"nodes":[
		{
			"mesh":0,
			"name":"obj_toro_collider"
		},
		{
			"mesh":1,
			"name":"obj_toro"
		}
	],
	"materials":[
		{
			"emissiveFactor":[
				0.10000000149011612,
				0.10000000149011612,
				0.10000000149011612
			],
			"emissiveTexture":{
				"index":0
			},
			"extensions":{
				"KHR_materials_specular":{
					"specularFactor":0
				}
			},
			"name":"obj_toro",
			"pbrMetallicRoughness":{
				"baseColorTexture":{
					"index":1
				},
				"metallicFactor":0
			}
		},
		{
			"emissiveFactor":[
				0.26229405403137207,
				0.5646868348121643,
				0.921515166759491
			],
			"extensions":{
				"KHR_materials_specular":{
					"specularFactor":0
				},
				"KHR_materials_ior":{
					"ior":1.4500000476837158
				}
			},
			"name":"obj_global_emission01",
			"pbrMetallicRoughness":{
				"baseColorFactor":[
					0.2617267668247223,
					0.566400408744812,
					0.9218639135360718,
					1
				],
				"metallicFactor":0
			}
		}
	],
	"meshes":[
		{
			"name":"Cylinder.003",
			"primitives":[
				{
					"attributes":{
						"POSITION":0,
						"NORMAL":1,
						"TEXCOORD_0":2,
						"COLOR_0":3
					},
					"indices":4
				}
			]
		},
		{
			"name":"Cylinder.002",
			"primitives":[
				{
					"attributes":{
						"POSITION":5,
						"NORMAL":6,
						"TEXCOORD_0":7
					},
					"indices":8,
					"material":0
				},
				{
					"attributes":{
						"POSITION":9,
						"NORMAL":10,
						"TEXCOORD_0":11
					},
					"indices":12,
					"material":1
				}
			]
		}
	],
	"textures":[
		{
			"sampler":0,
			"source":0
		},
		{
			"sampler":0,
			"source":0
		}
	],
	"images":[
		{
			"mimeType":"image/png",
			"name":"obj_toro",
			"uri":"textures/obj_toro.png"
		}
	],
	"accessors":[
		{
			"bufferView":0,
			"componentType":5126,
			"count":31,
			"max":[
				0.27932190895080566,
				1.4945266246795654,
				0.24192140996456146
			],
			"min":[
				-0.27931931614875793,
				0,
				-0.24192140996456146
			],
			"type":"VEC3"
		},
		{
			"bufferView":1,
			"componentType":5126,
			"count":31,
			"type":"VEC3"
		},
		{
			"bufferView":2,
			"componentType":5126,
			"count":31,
			"type":"VEC2"
		},
		{
			"bufferView":3,
			"componentType":5126,
			"count":31,
			"type":"VEC3"
		},
		{
			"bufferView":4,
			"componentType":5123,
			"count":126,
			"type":"SCALAR"
		},
		{
			"bufferView":5,
			"componentType":5126,
			"count":1298,
			"max":[
				0.27932000160217285,
				1.464332103729248,
				0.25709351897239685
			],
			"min":[
				-0.27932122349739075,
				0,
				-0.25709351897239685
			],
			"type":"VEC3"
		},
		{
			"bufferView":6,
			"componentType":5126,
			"count":1298,
			"type":"VEC3"
		},
		{
			"bufferView":7,
			"componentType":5126,
			"count":1298,
			"type":"VEC2"
		},
		{
			"bufferView":8,
			"componentType":5123,
			"count":3846,
			"type":"SCALAR"
		},
		{
			"bufferView":9,
			"componentType":5126,
			"count":102,
			"max":[
				0.2583158314228058,
				1.0218539237976074,
				0.22373121976852417
			],
			"min":[
				-0.2583170533180237,
				0.016323037445545197,
				-0.22373121976852417
			],
			"type":"VEC3"
		},
		{
			"bufferView":10,
			"componentType":5126,
			"count":102,
			"type":"VEC3"
		},
		{
			"bufferView":11,
			"componentType":5126,
			"count":102,
			"type":"VEC2"
		},
		{
			"bufferView":12,
			"componentType":5123,
			"count":240,
			"type":"SCALAR"
		}
	],
	"bufferViews":[
		{
			"buffer":0,
			"byteLength":372,
			"byteOffset":0,
			"target":34962
		},
		{
			"buffer":0,
			"byteLength":372,
			"byteOffset":372,
			"target":34962
		},
		{
			"buffer":0,
			"byteLength":248,
			"byteOffset":744,
			"target":34962
		},
		{
			"buffer":0,
			"byteLength":372,
			"byteOffset":992,
			"target":34962
		},
		{
			"buffer":0,
			"byteLength":252,
			"byteOffset":1364,
			"target":34963
		},
		{
			"buffer":0,
			"byteLength":15576,
			"byteOffset":1616,
			"target":34962
		},
		{
			"buffer":0,
			"byteLength":15576,
			"byteOffset":17192,
			"target":34962
		},
		{
			"buffer":0,
			"byteLength":10384,
			"byteOffset":32768,
			"target":34962
		},
		{
			"buffer":0,
			"byteLength":7692,
			"byteOffset":43152,
			"target":34963
		},
		{
			"buffer":0,
			"byteLength":1224,
			"byteOffset":50844,
			"target":34962
		},
		{
			"buffer":0,
			"byteLength":1224,
			"byteOffset":52068,
			"target":34962
		},
		{
			"buffer":0,
			"byteLength":816,
			"byteOffset":53292,
			"target":34962
		},
		{
			"buffer":0,
			"byteLength":480,
			"byteOffset":54108,
			"target":34963
		}
	],
	"samplers":[
		{
			"magFilter":9729,
			"minFilter":9987
		}
	],
	"buffers":[
		{
			"byteLength":54588,
			"uri":"obj_toro.bin"
		}
	]
}
