{
	"asset":{
		"generator":"Khronos glTF Blender I/O v4.1.63",
		"version":"2.0"
	},
	"extensionsUsed":[
		"KHR_materials_specular",
		"KHR_materials_ior"
	],
	"scene":0,
	"scenes":[
		{
			"name":"Scene",
			"nodes":[
				5,
				6,
				7
			]
		}
	],
	"nodes":[
		{
			"mesh":0,
			"name":"obj_sign02_array",
			"rotation":[
				0,
				0.9054686427116394,
				0,
				0.42441314458847046
			],
			"scale":[
				0.20696675777435303,
				0.07443636655807495,
				0.034918468445539474
			],
			"translation":[
				19.78992462158203,
				-6.87262487411499,
				-0.5314806699752808
			]
		},
		{
			"name":"obj_sign02_curve",
			"rotation":[
				0,
				0.9054686427116394,
				0,
				0.42441317439079285
			],
			"translation":[
				19.87674331665039,
				-6.87262487411499,
				-0.42717838287353516
			]
		},
		{
			"mesh":1,
			"name":"obj_sign02_mesh",
			"scale":[
				1.8324964046478271,
				3.2845404148101807,
				3.284540891647339
			]
		},
		{
			"mesh":2,
			"name":"obj_sign02_text01",
			"rotation":[
				0.4999999403953552,
				0.5000000596046448,
				-0.5,
				0.5000000596046448
			],
			"scale":[
				0.47708916664123535,
				0.2661754786968231,
				0.4770891070365906
			],
			"translation":[
				0.109710693359375,
				0,
				-0.005748985800892115
			]
		},
		{
			"mesh":3,
			"name":"obj_sign02_text02",
			"rotation":[
				0.5000001788139343,
				-0.5,
				0.49999985098838806,
				0.5000001788139343
			],
			"scale":[
				0.47708919644355774,
				0.2661754786968231,
				0.4770891070365906
			],
			"translation":[
				-0.10713386535644531,
				0,
				-0.013859988190233707
			]
		},
		{
			"children":[
				0,
				1,
				2,
				3,
				4
			],
			"name":"obj_sign02_root",
			"rotation":[
				0,
				-0.7071068286895752,
				0,
				0.7071068286895752
			],
			"translation":[
				0,
				2.25,
				0
			]
		},
		{
			"mesh":4,
			"name":"obj_sign02"
		},
		{
			"mesh":5,
			"name":"obj_sign02_collider"
		}
	],
	"materials":[
		{
			"doubleSided":true,
			"emissiveFactor":[
				0.9215658903121948,
				0.7304738759994507,
				0.16513018310070038
			],
			"extensions":{
				"KHR_materials_specular":{
					"specularFactor":0
				},
				"KHR_materials_ior":{
					"ior":1.4500000476837158
				}
			},
			"name":"obj_global_emission02",
			"pbrMetallicRoughness":{
				"baseColorFactor":[
					0.9203937649726868,
					0.7313708662986755,
					0.1655372530221939,
					1
				],
				"metallicFactor":0
			}
		},
		{
			"emissiveFactor":[
				0.05000000074505806,
				0.05000000074505806,
				0.05000000074505806
			],
			"emissiveTexture":{
				"index":0
			},
			"extensions":{
				"KHR_materials_specular":{
					"specularFactor":0
				},
				"KHR_materials_ior":{
					"ior":1.4500000476837158
				}
			},
			"name":"obj_sign01",
			"pbrMetallicRoughness":{
				"baseColorTexture":{
					"index":1
				},
				"metallicFactor":0
			}
		}
	],
	"meshes":[
		{
			"name":"Plane.008",
			"primitives":[
				{
					"attributes":{
						"POSITION":0,
						"NORMAL":1,
						"TEXCOORD_0":2
					},
					"indices":3,
					"material":0
				}
			]
		},
		{
			"name":"Mesh.003",
			"primitives":[
				{
					"attributes":{
						"POSITION":4,
						"NORMAL":5,
						"TEXCOORD_0":6
					},
					"indices":7,
					"material":1
				},
				{
					"attributes":{
						"POSITION":8,
						"NORMAL":9,
						"TEXCOORD_0":10
					},
					"indices":11,
					"material":0
				}
			]
		},
		{
			"name":"Text.013",
			"primitives":[
				{
					"attributes":{
						"POSITION":12,
						"NORMAL":13,
						"TEXCOORD_0":14
					},
					"indices":15,
					"material":0
				}
			]
		},
		{
			"name":"Text.014",
			"primitives":[
				{
					"attributes":{
						"POSITION":16,
						"NORMAL":17,
						"TEXCOORD_0":18
					},
					"indices":19,
					"material":0
				}
			]
		},
		{
			"name":"Plane.009",
			"primitives":[
				{
					"attributes":{
						"POSITION":20,
						"NORMAL":21,
						"TEXCOORD_0":22
					},
					"indices":23,
					"material":0
				},
				{
					"attributes":{
						"POSITION":24,
						"NORMAL":25,
						"TEXCOORD_0":26
					},
					"indices":27,
					"material":1
				}
			]
		},
		{
			"name":"Cube.024",
			"primitives":[
				{
					"attributes":{
						"POSITION":28,
						"NORMAL":29,
						"TEXCOORD_0":30
					},
					"indices":31
				}
			]
		}
	],
	"textures":[
		{
			"sampler":0,
			"source":0
		},
		{
			"sampler":0,
			"source":0
		}
	],
	"images":[
		{
			"mimeType":"image/png",
			"name":"obj_sign01",
			"uri":"textures/obj_sign01.png"
		}
	],
	"accessors":[
		{
			"bufferView":0,
			"componentType":5126,
			"count":280,
			"max":[
				75.47750091552734,
				95.2086181640625,
				-363.5672607421875
			],
			"min":[
				43.391807556152344,
				60.51295852661133,
				-521.3478393554688
			],
			"type":"VEC3"
		},
		{
			"bufferView":1,
			"componentType":5126,
			"count":280,
			"type":"VEC3"
		},
		{
			"bufferView":2,
			"componentType":5126,
			"count":280,
			"type":"VEC2"
		},
		{
			"bufferView":3,
			"componentType":5123,
			"count":672,
			"type":"SCALAR"
		},
		{
			"bufferView":4,
			"componentType":5126,
			"count":578,
			"max":[
				0.11977695673704147,
				0.23607562482357025,
				0.6493269801139832
			],
			"min":[
				-0.11977695673704147,
				-0.2361621856689453,
				-0.6493269801139832
			],
			"type":"VEC3"
		},
		{
			"bufferView":5,
			"componentType":5126,
			"count":578,
			"type":"VEC3"
		},
		{
			"bufferView":6,
			"componentType":5126,
			"count":578,
			"type":"VEC2"
		},
		{
			"bufferView":7,
			"componentType":5123,
			"count":1836,
			"type":"SCALAR"
		},
		{
			"bufferView":8,
			"componentType":5126,
			"count":320,
			"max":[
				0.11977695673704147,
				0.22806522250175476,
				0.6406272649765015
			],
			"min":[
				-0.11977695673704147,
				-0.22815173864364624,
				-0.6406272649765015
			],
			"type":"VEC3"
		},
		{
			"bufferView":9,
			"componentType":5126,
			"count":320,
			"type":"VEC3"
		},
		{
			"bufferView":10,
			"componentType":5126,
			"count":320,
			"type":"VEC2"
		},
		{
			"bufferView":11,
			"componentType":5123,
			"count":864,
			"type":"SCALAR"
		},
		{
			"bufferView":12,
			"componentType":5126,
			"count":190,
			"max":[
				2.6414999961853027,
				0,
				0.3500000238418579
			],
			"min":[
				-2.5985002517700195,
				0,
				-0.3500000238418579
			],
			"type":"VEC3"
		},
		{
			"bufferView":13,
			"componentType":5126,
			"count":190,
			"type":"VEC3"
		},
		{
			"bufferView":14,
			"componentType":5126,
			"count":190,
			"type":"VEC2"
		},
		{
			"bufferView":15,
			"componentType":5123,
			"count":546,
			"type":"SCALAR"
		},
		{
			"bufferView":16,
			"componentType":5126,
			"count":126,
			"max":[
				3.312000274658203,
				0,
				0.3500000238418579
			],
			"min":[
				-3.3350000381469727,
				0,
				-0.3500000238418579
			],
			"type":"VEC3"
		},
		{
			"bufferView":17,
			"componentType":5126,
			"count":126,
			"type":"VEC3"
		},
		{
			"bufferView":18,
			"componentType":5126,
			"count":126,
			"type":"VEC2"
		},
		{
			"bufferView":19,
			"componentType":5123,
			"count":342,
			"type":"SCALAR"
		},
		{
			"bufferView":20,
			"componentType":5126,
			"count":831,
			"max":[
				4.416089057922363,
				2.9990882873535156,
				0.21949386596679688
			],
			"min":[
				-4.212494373321533,
				-2.0706593990325928,
				-0.21949005126953125
			],
			"type":"VEC3"
		},
		{
			"bufferView":21,
			"componentType":5126,
			"count":831,
			"type":"VEC3"
		},
		{
			"bufferView":22,
			"componentType":5126,
			"count":831,
			"type":"VEC2"
		},
		{
			"bufferView":23,
			"componentType":5123,
			"count":2196,
			"type":"SCALAR"
		},
		{
			"bufferView":24,
			"componentType":5126,
			"count":578,
			"max":[
				2.1327409744262695,
				3.0253987312316895,
				0.21949386596679688
			],
			"min":[
				-2.132741928100586,
				1.4743151664733887,
				-0.21949005126953125
			],
			"type":"VEC3"
		},
		{
			"bufferView":25,
			"componentType":5126,
			"count":578,
			"type":"VEC3"
		},
		{
			"bufferView":26,
			"componentType":5126,
			"count":578,
			"type":"VEC2"
		},
		{
			"bufferView":27,
			"componentType":5123,
			"count":1836,
			"type":"SCALAR"
		},
		{
			"bufferView":28,
			"componentType":5126,
			"count":24,
			"max":[
				2.1327409744262695,
				3.031147003173828,
				0.21949070692062378
			],
			"min":[
				-2.1327409744262695,
				1.4742755889892578,
				-0.21949100494384766
			],
			"type":"VEC3"
		},
		{
			"bufferView":29,
			"componentType":5126,
			"count":24,
			"type":"VEC3"
		},
		{
			"bufferView":30,
			"componentType":5126,
			"count":24,
			"type":"VEC2"
		},
		{
			"bufferView":31,
			"componentType":5123,
			"count":36,
			"type":"SCALAR"
		}
	],
	"bufferViews":[
		{
			"buffer":0,
			"byteLength":3360,
			"byteOffset":0,
			"target":34962
		},
		{
			"buffer":0,
			"byteLength":3360,
			"byteOffset":3360,
			"target":34962
		},
		{
			"buffer":0,
			"byteLength":2240,
			"byteOffset":6720,
			"target":34962
		},
		{
			"buffer":0,
			"byteLength":1344,
			"byteOffset":8960,
			"target":34963
		},
		{
			"buffer":0,
			"byteLength":6936,
			"byteOffset":10304,
			"target":34962
		},
		{
			"buffer":0,
			"byteLength":6936,
			"byteOffset":17240,
			"target":34962
		},
		{
			"buffer":0,
			"byteLength":4624,
			"byteOffset":24176,
			"target":34962
		},
		{
			"buffer":0,
			"byteLength":3672,
			"byteOffset":28800,
			"target":34963
		},
		{
			"buffer":0,
			"byteLength":3840,
			"byteOffset":32472,
			"target":34962
		},
		{
			"buffer":0,
			"byteLength":3840,
			"byteOffset":36312,
			"target":34962
		},
		{
			"buffer":0,
			"byteLength":2560,
			"byteOffset":40152,
			"target":34962
		},
		{
			"buffer":0,
			"byteLength":1728,
			"byteOffset":42712,
			"target":34963
		},
		{
			"buffer":0,
			"byteLength":2280,
			"byteOffset":44440,
			"target":34962
		},
		{
			"buffer":0,
			"byteLength":2280,
			"byteOffset":46720,
			"target":34962
		},
		{
			"buffer":0,
			"byteLength":1520,
			"byteOffset":49000,
			"target":34962
		},
		{
			"buffer":0,
			"byteLength":1092,
			"byteOffset":50520,
			"target":34963
		},
		{
			"buffer":0,
			"byteLength":1512,
			"byteOffset":51612,
			"target":34962
		},
		{
			"buffer":0,
			"byteLength":1512,
			"byteOffset":53124,
			"target":34962
		},
		{
			"buffer":0,
			"byteLength":1008,
			"byteOffset":54636,
			"target":34962
		},
		{
			"buffer":0,
			"byteLength":684,
			"byteOffset":55644,
			"target":34963
		},
		{
			"buffer":0,
			"byteLength":9972,
			"byteOffset":56328,
			"target":34962
		},
		{
			"buffer":0,
			"byteLength":9972,
			"byteOffset":66300,
			"target":34962
		},
		{
			"buffer":0,
			"byteLength":6648,
			"byteOffset":76272,
			"target":34962
		},
		{
			"buffer":0,
			"byteLength":4392,
			"byteOffset":82920,
			"target":34963
		},
		{
			"buffer":0,
			"byteLength":6936,
			"byteOffset":87312,
			"target":34962
		},
		{
			"buffer":0,
			"byteLength":6936,
			"byteOffset":94248,
			"target":34962
		},
		{
			"buffer":0,
			"byteLength":4624,
			"byteOffset":101184,
			"target":34962
		},
		{
			"buffer":0,
			"byteLength":3672,
			"byteOffset":105808,
			"target":34963
		},
		{
			"buffer":0,
			"byteLength":288,
			"byteOffset":109480,
			"target":34962
		},
		{
			"buffer":0,
			"byteLength":288,
			"byteOffset":109768,
			"target":34962
		},
		{
			"buffer":0,
			"byteLength":192,
			"byteOffset":110056,
			"target":34962
		},
		{
			"buffer":0,
			"byteLength":72,
			"byteOffset":110248,
			"target":34963
		}
	],
	"samplers":[
		{
			"magFilter":9729,
			"minFilter":9987
		}
	],
	"buffers":[
		{
			"byteLength":110320,
			"uri":"obj_sign02.bin"
		}
	]
}
