{
	"asset":{
		"generator":"Khronos glTF Blender I/O v4.1.63",
		"version":"2.0"
	},
	"extensionsUsed":[
		"KHR_materials_specular",
		"KHR_materials_ior"
	],
	"scene":0,
	"scenes":[
		{
			"name":"Scene",
			"nodes":[
				11
			]
		}
	],
	"nodes":[
		{
			"name":"claw.003",
			"rotation":[
				-0.2218439131975174,
				-0.00012143913772888482,
				-0.0003423247835598886,
				0.9750821590423584
			],
			"scale":[
				0.9999998807907104,
				1.0000001192092896,
				0.9999999403953552
			],
			"translation":[
				-0.003114682622253895,
				1.2098078727722168,
				-0.07391083240509033
			]
		},
		{
			"name":"claw.004",
			"rotation":[
				0.1695738285779953,
				0.10855299979448318,
				-0.1945703774690628,
				0.9600017666816711
			],
			"translation":[
				0.05735486000776291,
				1.2046716213226318,
				0.031772270798683167
			]
		},
		{
			"name":"claw.005",
			"rotation":[
				0.13242998719215393,
				0.051009222865104675,
				0.22064821422100067,
				0.9649739861488342
			],
			"scale":[
				1.0000001192092896,
				0.9999998807907104,
				1
			],
			"translation":[
				-0.06408555060625076,
				1.2047866582870483,
				0.03099726140499115
			]
		},
		{
			"mesh":1,
			"name":"obj_claw01_03_collider",
			"rotation":[
				-0.8463545441627502,
				-6.349324621623964e-08,
				-1.008933523394262e-07,
				0.5326199531555176
			],
			"scale":[
				1,
				1.000000238418579,
				1.0000001192092896
			],
			"translation":[
				-6.713987005246835e-11,
				-0.0005864799022674561,
				0.00028198957443237305
			]
		},
		{
			"children":[
				0,
				1,
				2,
				3
			],
			"name":"claw.002",
			"rotation":[
				0.6796694993972778,
				9.686772969852691e-15,
				1.6204582209411456e-07,
				0.7335185408592224
			],
			"scale":[
				1,
				0.9999998807907104,
				0.9999999403953552
			],
			"translation":[
				-4.238649091003327e-14,
				1.5342751741409302,
				1.7881393432617188e-07
			]
		},
		{
			"mesh":2,
			"name":"obj_claw01_02_collider",
			"rotation":[
				-0.2588112950325012,
				-1.1514757147779164e-07,
				-3.085271060854211e-08,
				0.9659279584884644
			],
			"scale":[
				1,
				1.0000001192092896,
				1.0000001192092896
			],
			"translation":[
				1.4701509454262407e-10,
				-0.00035599619150161743,
				-0.0006166249513626099
			]
		},
		{
			"children":[
				4,
				5
			],
			"name":"claw.001",
			"rotation":[
				0.2411072850227356,
				1.156924298584272e-07,
				2.8742224600364352e-08,
				0.9704985022544861
			],
			"scale":[
				1,
				0.9999999403953552,
				0.9999999403953552
			],
			"translation":[
				2.4607246794913285e-16,
				1.2334935665130615,
				-1.4901161193847656e-08
			]
		},
		{
			"children":[
				6
			],
			"name":"claw",
			"rotation":[
				0.01828371174633503,
				0,
				0,
				0.9998328685760498
			]
		},
		{
			"children":[
				7
			],
			"name":"root"
		},
		{
			"mesh":0,
			"name":"obj_claw01",
			"skin":0
		},
		{
			"mesh":3,
			"name":"obj_claw01_01_collider"
		},
		{
			"children":[
				9,
				10,
				8
			],
			"name":"Armature"
		}
	],
	"animations":[
		{
			"channels":[
				{
					"sampler":0,
					"target":{
						"node":8,
						"path":"translation"
					}
				},
				{
					"sampler":1,
					"target":{
						"node":8,
						"path":"rotation"
					}
				},
				{
					"sampler":2,
					"target":{
						"node":8,
						"path":"scale"
					}
				},
				{
					"sampler":3,
					"target":{
						"node":7,
						"path":"translation"
					}
				},
				{
					"sampler":4,
					"target":{
						"node":7,
						"path":"rotation"
					}
				},
				{
					"sampler":5,
					"target":{
						"node":7,
						"path":"scale"
					}
				},
				{
					"sampler":6,
					"target":{
						"node":6,
						"path":"translation"
					}
				},
				{
					"sampler":7,
					"target":{
						"node":6,
						"path":"rotation"
					}
				},
				{
					"sampler":8,
					"target":{
						"node":6,
						"path":"scale"
					}
				},
				{
					"sampler":9,
					"target":{
						"node":4,
						"path":"translation"
					}
				},
				{
					"sampler":10,
					"target":{
						"node":4,
						"path":"rotation"
					}
				},
				{
					"sampler":11,
					"target":{
						"node":4,
						"path":"scale"
					}
				},
				{
					"sampler":12,
					"target":{
						"node":0,
						"path":"translation"
					}
				},
				{
					"sampler":13,
					"target":{
						"node":0,
						"path":"rotation"
					}
				},
				{
					"sampler":14,
					"target":{
						"node":0,
						"path":"scale"
					}
				},
				{
					"sampler":15,
					"target":{
						"node":1,
						"path":"translation"
					}
				},
				{
					"sampler":16,
					"target":{
						"node":1,
						"path":"rotation"
					}
				},
				{
					"sampler":17,
					"target":{
						"node":1,
						"path":"scale"
					}
				},
				{
					"sampler":18,
					"target":{
						"node":2,
						"path":"translation"
					}
				},
				{
					"sampler":19,
					"target":{
						"node":2,
						"path":"rotation"
					}
				},
				{
					"sampler":20,
					"target":{
						"node":2,
						"path":"scale"
					}
				}
			],
			"name":"obj_claw01_stand",
			"samplers":[
				{
					"input":19,
					"interpolation":"STEP",
					"output":20
				},
				{
					"input":19,
					"interpolation":"STEP",
					"output":21
				},
				{
					"input":19,
					"interpolation":"STEP",
					"output":22
				},
				{
					"input":19,
					"interpolation":"STEP",
					"output":23
				},
				{
					"input":19,
					"interpolation":"STEP",
					"output":24
				},
				{
					"input":19,
					"interpolation":"STEP",
					"output":25
				},
				{
					"input":19,
					"interpolation":"STEP",
					"output":26
				},
				{
					"input":27,
					"interpolation":"LINEAR",
					"output":28
				},
				{
					"input":19,
					"interpolation":"STEP",
					"output":29
				},
				{
					"input":19,
					"interpolation":"STEP",
					"output":30
				},
				{
					"input":27,
					"interpolation":"LINEAR",
					"output":31
				},
				{
					"input":19,
					"interpolation":"STEP",
					"output":32
				},
				{
					"input":19,
					"interpolation":"STEP",
					"output":33
				},
				{
					"input":27,
					"interpolation":"LINEAR",
					"output":34
				},
				{
					"input":19,
					"interpolation":"STEP",
					"output":35
				},
				{
					"input":19,
					"interpolation":"STEP",
					"output":36
				},
				{
					"input":27,
					"interpolation":"LINEAR",
					"output":37
				},
				{
					"input":19,
					"interpolation":"STEP",
					"output":38
				},
				{
					"input":19,
					"interpolation":"STEP",
					"output":39
				},
				{
					"input":27,
					"interpolation":"LINEAR",
					"output":40
				},
				{
					"input":19,
					"interpolation":"STEP",
					"output":41
				}
			]
		}
	],
	"materials":[
		{
			"emissiveFactor":[
				1,
				1,
				1
			],
			"emissiveTexture":{
				"index":0
			},
			"extensions":{
				"KHR_materials_specular":{
					"specularFactor":0
				},
				"KHR_materials_ior":{
					"ior":1.4500000476837158
				}
			},
			"name":"obj_claw01",
			"pbrMetallicRoughness":{
				"baseColorTexture":{
					"index":1
				},
				"metallicFactor":0
			}
		}
	],
	"meshes":[
		{
			"name":"Mesh.282",
			"primitives":[
				{
					"attributes":{
						"POSITION":0,
						"NORMAL":1,
						"TEXCOORD_0":2,
						"JOINTS_0":3,
						"WEIGHTS_0":4
					},
					"indices":5,
					"material":0
				}
			]
		},
		{
			"name":"Mesh.002",
			"primitives":[
				{
					"attributes":{
						"POSITION":7,
						"NORMAL":8,
						"TEXCOORD_0":9
					},
					"indices":10
				}
			]
		},
		{
			"name":"Mesh.001",
			"primitives":[
				{
					"attributes":{
						"POSITION":11,
						"NORMAL":12,
						"TEXCOORD_0":13
					},
					"indices":14
				}
			]
		},
		{
			"name":"Mesh.281",
			"primitives":[
				{
					"attributes":{
						"POSITION":15,
						"NORMAL":16,
						"TEXCOORD_0":17
					},
					"indices":18
				}
			]
		}
	],
	"textures":[
		{
			"sampler":0,
			"source":0
		},
		{
			"sampler":0,
			"source":1
		}
	],
	"images":[
		{
			"mimeType":"image/png",
			"name":"obj_claw01_emission",
			"uri":"textures/obj_claw01_emission.png"
		},
		{
			"mimeType":"image/png",
			"name":"obj_claw01",
			"uri":"textures/obj_claw01.png"
		}
	],
	"skins":[
		{
			"inverseBindMatrices":6,
			"joints":[
				8,
				7,
				6,
				4,
				0,
				1,
				2
			],
			"name":"Armature"
		}
	],
	"accessors":[
		{
			"bufferView":0,
			"componentType":5126,
			"count":1216,
			"max":[
				0.5340799689292908,
				2.8410398960113525,
				2.2995522022247314
			],
			"min":[
				-0.5357123613357544,
				-3.930663794449174e-08,
				-0.53408282995224
			],
			"type":"VEC3"
		},
		{
			"bufferView":1,
			"componentType":5126,
			"count":1216,
			"type":"VEC3"
		},
		{
			"bufferView":2,
			"componentType":5126,
			"count":1216,
			"type":"VEC2"
		},
		{
			"bufferView":3,
			"componentType":5121,
			"count":1216,
			"type":"VEC4"
		},
		{
			"bufferView":4,
			"componentType":5126,
			"count":1216,
			"type":"VEC4"
		},
		{
			"bufferView":5,
			"componentType":5123,
			"count":3456,
			"type":"SCALAR"
		},
		{
			"bufferView":6,
			"componentType":5126,
			"count":7,
			"type":"MAT4"
		},
		{
			"bufferView":7,
			"componentType":5126,
			"count":96,
			"max":[
				0.44716644287109375,
				0.27963781356811523,
				1.4919182062149048
			],
			"min":[
				-0.4550189971923828,
				-0.8978995084762573,
				-0.2421729564666748
			],
			"type":"VEC3"
		},
		{
			"bufferView":8,
			"componentType":5126,
			"count":96,
			"type":"VEC3"
		},
		{
			"bufferView":9,
			"componentType":5126,
			"count":96,
			"type":"VEC2"
		},
		{
			"bufferView":10,
			"componentType":5123,
			"count":162,
			"type":"SCALAR"
		},
		{
			"bufferView":11,
			"componentType":5126,
			"count":64,
			"max":[
				0.49181556701660156,
				1.353843331336975,
				0.9125914573669434
			],
			"min":[
				-0.5007734298706055,
				-0.30765849351882935,
				-0.26643896102905273
			],
			"type":"VEC3"
		},
		{
			"bufferView":12,
			"componentType":5126,
			"count":64,
			"type":"VEC3"
		},
		{
			"bufferView":13,
			"componentType":5126,
			"count":64,
			"type":"VEC2"
		},
		{
			"bufferView":14,
			"componentType":5123,
			"count":108,
			"type":"SCALAR"
		},
		{
			"bufferView":15,
			"componentType":5126,
			"count":70,
			"max":[
				0.3632040023803711,
				1.2127939462661743,
				0.42036235332489014
			],
			"min":[
				-0.3648338317871094,
				-4.722576818494417e-08,
				-0.41934311389923096
			],
			"type":"VEC3"
		},
		{
			"bufferView":16,
			"componentType":5126,
			"count":70,
			"type":"VEC3"
		},
		{
			"bufferView":17,
			"componentType":5126,
			"count":70,
			"type":"VEC2"
		},
		{
			"bufferView":18,
			"componentType":5123,
			"count":180,
			"type":"SCALAR"
		},
		{
			"bufferView":19,
			"componentType":5126,
			"count":2,
			"max":[
				3
			],
			"min":[
				0
			],
			"type":"SCALAR"
		},
		{
			"bufferView":20,
			"componentType":5126,
			"count":2,
			"type":"VEC3"
		},
		{
			"bufferView":21,
			"componentType":5126,
			"count":2,
			"type":"VEC4"
		},
		{
			"bufferView":22,
			"componentType":5126,
			"count":2,
			"type":"VEC3"
		},
		{
			"bufferView":23,
			"componentType":5126,
			"count":2,
			"type":"VEC3"
		},
		{
			"bufferView":24,
			"componentType":5126,
			"count":2,
			"type":"VEC4"
		},
		{
			"bufferView":25,
			"componentType":5126,
			"count":2,
			"type":"VEC3"
		},
		{
			"bufferView":26,
			"componentType":5126,
			"count":2,
			"type":"VEC3"
		},
		{
			"bufferView":27,
			"componentType":5126,
			"count":91,
			"max":[
				3
			],
			"min":[
				0
			],
			"type":"SCALAR"
		},
		{
			"bufferView":28,
			"componentType":5126,
			"count":91,
			"type":"VEC4"
		},
		{
			"bufferView":29,
			"componentType":5126,
			"count":2,
			"type":"VEC3"
		},
		{
			"bufferView":30,
			"componentType":5126,
			"count":2,
			"type":"VEC3"
		},
		{
			"bufferView":31,
			"componentType":5126,
			"count":91,
			"type":"VEC4"
		},
		{
			"bufferView":32,
			"componentType":5126,
			"count":2,
			"type":"VEC3"
		},
		{
			"bufferView":33,
			"componentType":5126,
			"count":2,
			"type":"VEC3"
		},
		{
			"bufferView":34,
			"componentType":5126,
			"count":91,
			"type":"VEC4"
		},
		{
			"bufferView":35,
			"componentType":5126,
			"count":2,
			"type":"VEC3"
		},
		{
			"bufferView":36,
			"componentType":5126,
			"count":2,
			"type":"VEC3"
		},
		{
			"bufferView":37,
			"componentType":5126,
			"count":91,
			"type":"VEC4"
		},
		{
			"bufferView":38,
			"componentType":5126,
			"count":2,
			"type":"VEC3"
		},
		{
			"bufferView":39,
			"componentType":5126,
			"count":2,
			"type":"VEC3"
		},
		{
			"bufferView":40,
			"componentType":5126,
			"count":91,
			"type":"VEC4"
		},
		{
			"bufferView":41,
			"componentType":5126,
			"count":2,
			"type":"VEC3"
		}
	],
	"bufferViews":[
		{
			"buffer":0,
			"byteLength":14592,
			"byteOffset":0,
			"target":34962
		},
		{
			"buffer":0,
			"byteLength":14592,
			"byteOffset":14592,
			"target":34962
		},
		{
			"buffer":0,
			"byteLength":9728,
			"byteOffset":29184,
			"target":34962
		},
		{
			"buffer":0,
			"byteLength":4864,
			"byteOffset":38912,
			"target":34962
		},
		{
			"buffer":0,
			"byteLength":19456,
			"byteOffset":43776,
			"target":34962
		},
		{
			"buffer":0,
			"byteLength":6912,
			"byteOffset":63232,
			"target":34963
		},
		{
			"buffer":0,
			"byteLength":448,
			"byteOffset":70144
		},
		{
			"buffer":0,
			"byteLength":1152,
			"byteOffset":70592,
			"target":34962
		},
		{
			"buffer":0,
			"byteLength":1152,
			"byteOffset":71744,
			"target":34962
		},
		{
			"buffer":0,
			"byteLength":768,
			"byteOffset":72896,
			"target":34962
		},
		{
			"buffer":0,
			"byteLength":324,
			"byteOffset":73664,
			"target":34963
		},
		{
			"buffer":0,
			"byteLength":768,
			"byteOffset":73988,
			"target":34962
		},
		{
			"buffer":0,
			"byteLength":768,
			"byteOffset":74756,
			"target":34962
		},
		{
			"buffer":0,
			"byteLength":512,
			"byteOffset":75524,
			"target":34962
		},
		{
			"buffer":0,
			"byteLength":216,
			"byteOffset":76036,
			"target":34963
		},
		{
			"buffer":0,
			"byteLength":840,
			"byteOffset":76252,
			"target":34962
		},
		{
			"buffer":0,
			"byteLength":840,
			"byteOffset":77092,
			"target":34962
		},
		{
			"buffer":0,
			"byteLength":560,
			"byteOffset":77932,
			"target":34962
		},
		{
			"buffer":0,
			"byteLength":360,
			"byteOffset":78492,
			"target":34963
		},
		{
			"buffer":0,
			"byteLength":8,
			"byteOffset":78852
		},
		{
			"buffer":0,
			"byteLength":24,
			"byteOffset":78860
		},
		{
			"buffer":0,
			"byteLength":32,
			"byteOffset":78884
		},
		{
			"buffer":0,
			"byteLength":24,
			"byteOffset":78916
		},
		{
			"buffer":0,
			"byteLength":24,
			"byteOffset":78940
		},
		{
			"buffer":0,
			"byteLength":32,
			"byteOffset":78964
		},
		{
			"buffer":0,
			"byteLength":24,
			"byteOffset":78996
		},
		{
			"buffer":0,
			"byteLength":24,
			"byteOffset":79020
		},
		{
			"buffer":0,
			"byteLength":364,
			"byteOffset":79044
		},
		{
			"buffer":0,
			"byteLength":1456,
			"byteOffset":79408
		},
		{
			"buffer":0,
			"byteLength":24,
			"byteOffset":80864
		},
		{
			"buffer":0,
			"byteLength":24,
			"byteOffset":80888
		},
		{
			"buffer":0,
			"byteLength":1456,
			"byteOffset":80912
		},
		{
			"buffer":0,
			"byteLength":24,
			"byteOffset":82368
		},
		{
			"buffer":0,
			"byteLength":24,
			"byteOffset":82392
		},
		{
			"buffer":0,
			"byteLength":1456,
			"byteOffset":82416
		},
		{
			"buffer":0,
			"byteLength":24,
			"byteOffset":83872
		},
		{
			"buffer":0,
			"byteLength":24,
			"byteOffset":83896
		},
		{
			"buffer":0,
			"byteLength":1456,
			"byteOffset":83920
		},
		{
			"buffer":0,
			"byteLength":24,
			"byteOffset":85376
		},
		{
			"buffer":0,
			"byteLength":24,
			"byteOffset":85400
		},
		{
			"buffer":0,
			"byteLength":1456,
			"byteOffset":85424
		},
		{
			"buffer":0,
			"byteLength":24,
			"byteOffset":86880
		}
	],
	"samplers":[
		{
			"magFilter":9729,
			"minFilter":9987
		}
	],
	"buffers":[
		{
			"byteLength":86904,
			"uri":"obj_claw01.bin"
		}
	]
}
