{
	"asset":{
		"generator":"Khronos glTF Blender I/O v4.1.63",
		"version":"2.0"
	},
	"extensionsUsed":[
		"KHR_materials_specular",
		"KHR_materials_ior"
	],
	"scene":0,
	"scenes":[
		{
			"name":"Scene",
			"nodes":[
				0,
				1
			]
		}
	],
	"nodes":[
		{
			"mesh":0,
			"name":"obj_transmitter01"
		},
		{
			"mesh":1,
			"name":"obj_transmitter01_collider",
			"rotation":[
				0,
				-0.19364243745803833,
				0,
				0.981072187423706
			]
		}
	],
	"materials":[
		{
			"emissiveFactor":[
				0.10000000149011612,
				0.10000000149011612,
				0.10000000149011612
			],
			"emissiveTexture":{
				"index":0
			},
			"extensions":{
				"KHR_materials_specular":{
					"specularFactor":0
				},
				"KHR_materials_ior":{
					"ior":1.4500000476837158
				}
			},
			"name":"obj_transmitter",
			"pbrMetallicRoughness":{
				"baseColorTexture":{
					"index":1
				},
				"metallicFactor":0
			}
		},
		{
			"emissiveFactor":[
				0.26229405403137207,
				0.5646868348121643,
				0.921515166759491
			],
			"extensions":{
				"KHR_materials_specular":{
					"specularFactor":0
				},
				"KHR_materials_ior":{
					"ior":1.4500000476837158
				}
			},
			"name":"obj_global_emission01",
			"pbrMetallicRoughness":{
				"baseColorFactor":[
					0.2617267668247223,
					0.566400408744812,
					0.9218639135360718,
					1
				],
				"metallicFactor":0
			}
		}
	],
	"meshes":[
		{
			"name":"colonn1_low.003",
			"primitives":[
				{
					"attributes":{
						"POSITION":0,
						"NORMAL":1,
						"TEXCOORD_0":2
					},
					"indices":3,
					"material":0
				},
				{
					"attributes":{
						"POSITION":4,
						"NORMAL":5,
						"TEXCOORD_0":6
					},
					"indices":7,
					"material":1
				}
			]
		},
		{
			"name":"colonn1_low.001",
			"primitives":[
				{
					"attributes":{
						"POSITION":8,
						"NORMAL":9,
						"TEXCOORD_0":10
					},
					"indices":11
				}
			]
		}
	],
	"textures":[
		{
			"sampler":0,
			"source":0
		},
		{
			"sampler":0,
			"source":0
		}
	],
	"images":[
		{
			"mimeType":"image/png",
			"name":"obj_transmitter",
			"uri":"textures/obj_transmitter.png"
		}
	],
	"accessors":[
		{
			"bufferView":0,
			"componentType":5126,
			"count":1200,
			"max":[
				0.6899337768554688,
				1.9258381128311157,
				0.6899337768554688
			],
			"min":[
				-0.6899337768554688,
				0.010110374540090561,
				-0.6899337768554688
			],
			"type":"VEC3"
		},
		{
			"bufferView":1,
			"componentType":5126,
			"count":1200,
			"type":"VEC3"
		},
		{
			"bufferView":2,
			"componentType":5126,
			"count":1200,
			"type":"VEC2"
		},
		{
			"bufferView":3,
			"componentType":5123,
			"count":3726,
			"type":"SCALAR"
		},
		{
			"bufferView":4,
			"componentType":5126,
			"count":86,
			"max":[
				0.5637660026550293,
				1.585195779800415,
				0.5704193711280823
			],
			"min":[
				-0.5663624405860901,
				1.0074635744094849,
				-0.55921870470047
			],
			"type":"VEC3"
		},
		{
			"bufferView":5,
			"componentType":5126,
			"count":86,
			"type":"VEC3"
		},
		{
			"bufferView":6,
			"componentType":5126,
			"count":86,
			"type":"VEC2"
		},
		{
			"bufferView":7,
			"componentType":5123,
			"count":204,
			"type":"SCALAR"
		},
		{
			"bufferView":8,
			"componentType":5126,
			"count":60,
			"max":[
				0.6925116777420044,
				1.959226369857788,
				0.6990911960601807
			],
			"min":[
				-0.69510817527771,
				0.01260890532284975,
				-0.6878929138183594
			],
			"type":"VEC3"
		},
		{
			"bufferView":9,
			"componentType":5126,
			"count":60,
			"type":"VEC3"
		},
		{
			"bufferView":10,
			"componentType":5126,
			"count":60,
			"type":"VEC2"
		},
		{
			"bufferView":11,
			"componentType":5123,
			"count":312,
			"type":"SCALAR"
		}
	],
	"bufferViews":[
		{
			"buffer":0,
			"byteLength":14400,
			"byteOffset":0,
			"target":34962
		},
		{
			"buffer":0,
			"byteLength":14400,
			"byteOffset":14400,
			"target":34962
		},
		{
			"buffer":0,
			"byteLength":9600,
			"byteOffset":28800,
			"target":34962
		},
		{
			"buffer":0,
			"byteLength":7452,
			"byteOffset":38400,
			"target":34963
		},
		{
			"buffer":0,
			"byteLength":1032,
			"byteOffset":45852,
			"target":34962
		},
		{
			"buffer":0,
			"byteLength":1032,
			"byteOffset":46884,
			"target":34962
		},
		{
			"buffer":0,
			"byteLength":688,
			"byteOffset":47916,
			"target":34962
		},
		{
			"buffer":0,
			"byteLength":408,
			"byteOffset":48604,
			"target":34963
		},
		{
			"buffer":0,
			"byteLength":720,
			"byteOffset":49012,
			"target":34962
		},
		{
			"buffer":0,
			"byteLength":720,
			"byteOffset":49732,
			"target":34962
		},
		{
			"buffer":0,
			"byteLength":480,
			"byteOffset":50452,
			"target":34962
		},
		{
			"buffer":0,
			"byteLength":624,
			"byteOffset":50932,
			"target":34963
		}
	],
	"samplers":[
		{
			"magFilter":9729,
			"minFilter":9987
		}
	],
	"buffers":[
		{
			"byteLength":51556,
			"uri":"obj_transmitter01.bin"
		}
	]
}
