{
	"asset":{
		"generator":"Khronos glTF Blender I/O v4.1.63",
		"version":"2.0"
	},
	"extensionsUsed":[
		"KHR_materials_specular",
		"KHR_materials_ior"
	],
	"scene":0,
	"scenes":[
		{
			"name":"Scene",
			"nodes":[
				0,
				1
			]
		}
	],
	"nodes":[
		{
			"mesh":0,
			"name":"obj_ground03"
		},
		{
			"mesh":1,
			"name":"obj_ground03_collider"
		}
	],
	"materials":[
		{
			"emissiveFactor":[
				0.20000000298023224,
				0.20000000298023224,
				0.20000000298023224
			],
			"emissiveTexture":{
				"index":0
			},
			"extensions":{
				"KHR_materials_specular":{
					"specularFactor":0
				},
				"KHR_materials_ior":{
					"ior":1.4500000476837158
				}
			},
			"name":"obj_ground03",
			"pbrMetallicRoughness":{
				"baseColorTexture":{
					"index":1
				},
				"metallicFactor":0
			}
		}
	],
	"meshes":[
		{
			"name":"Plane.004",
			"primitives":[
				{
					"attributes":{
						"POSITION":0,
						"NORMAL":1,
						"TEXCOORD_0":2
					},
					"indices":3,
					"material":0
				}
			]
		},
		{
			"name":"Plane.005",
			"primitives":[
				{
					"attributes":{
						"POSITION":4,
						"NORMAL":5,
						"TEXCOORD_0":6
					},
					"indices":7
				}
			]
		}
	],
	"textures":[
		{
			"sampler":0,
			"source":0
		},
		{
			"sampler":0,
			"source":0
		}
	],
	"images":[
		{
			"mimeType":"image/png",
			"name":"obj_ground03",
			"uri":"textures/obj_ground03.png"
		}
	],
	"accessors":[
		{
			"bufferView":0,
			"componentType":5126,
			"count":1326,
			"max":[
				0.7198952436447144,
				0.3001687526702881,
				59.578895568847656
			],
			"min":[
				-51.21780776977539,
				0.17730924487113953,
				2.0364696979522705
			],
			"type":"VEC3"
		},
		{
			"bufferView":1,
			"componentType":5126,
			"count":1326,
			"type":"VEC3"
		},
		{
			"bufferView":2,
			"componentType":5126,
			"count":1326,
			"type":"VEC2"
		},
		{
			"bufferView":3,
			"componentType":5123,
			"count":5949,
			"type":"SCALAR"
		},
		{
			"bufferView":4,
			"componentType":5126,
			"count":334,
			"max":[
				0.8252361416816711,
				0.3001687526702881,
				59.61622619628906
			],
			"min":[
				-51.31430435180664,
				0.17730936408042908,
				1.9943138360977173
			],
			"type":"VEC3"
		},
		{
			"bufferView":5,
			"componentType":5126,
			"count":334,
			"type":"VEC3"
		},
		{
			"bufferView":6,
			"componentType":5126,
			"count":334,
			"type":"VEC2"
		},
		{
			"bufferView":7,
			"componentType":5123,
			"count":1491,
			"type":"SCALAR"
		}
	],
	"bufferViews":[
		{
			"buffer":0,
			"byteLength":15912,
			"byteOffset":0,
			"target":34962
		},
		{
			"buffer":0,
			"byteLength":15912,
			"byteOffset":15912,
			"target":34962
		},
		{
			"buffer":0,
			"byteLength":10608,
			"byteOffset":31824,
			"target":34962
		},
		{
			"buffer":0,
			"byteLength":11898,
			"byteOffset":42432,
			"target":34963
		},
		{
			"buffer":0,
			"byteLength":4008,
			"byteOffset":54332,
			"target":34962
		},
		{
			"buffer":0,
			"byteLength":4008,
			"byteOffset":58340,
			"target":34962
		},
		{
			"buffer":0,
			"byteLength":2672,
			"byteOffset":62348,
			"target":34962
		},
		{
			"buffer":0,
			"byteLength":2982,
			"byteOffset":65020,
			"target":34963
		}
	],
	"samplers":[
		{
			"magFilter":9729,
			"minFilter":9987
		}
	],
	"buffers":[
		{
			"byteLength":68004,
			"uri":"obj_ground03.bin"
		}
	]
}
