{
	"asset":{
		"generator":"Khronos glTF Blender I/O v4.3.47",
		"version":"2.0"
	},
	"extensionsUsed":[
		"KHR_materials_clearcoat",
		"KHR_materials_specular"
	],
	"scene":0,
	"scenes":[
		{
			"name":"Scene",
			"nodes":[
				0,
				1
			]
		}
	],
	"nodes":[
		{
			"mesh":0,
			"name":"obj_arc"
		},
		{
			"mesh":1,
			"name":"obj_arc_collider"
		}
	],
	"materials":[
		{
			"emissiveFactor":[
				1,
				1,
				1
			],
			"emissiveTexture":{
				"index":0
			},
			"extensions":{
				"KHR_materials_clearcoat":{
					"clearcoatRoughnessFactor":0
				},
				"KHR_materials_specular":{
					"specularFactor":0
				}
			},
			"name":"obj_arc",
			"pbrMetallicRoughness":{
				"baseColorTexture":{
					"index":1
				},
				"metallicFactor":0
			}
		}
	],
	"meshes":[
		{
			"name":"obj_arc",
			"primitives":[
				{
					"attributes":{
						"POSITION":0,
						"NORMAL":1,
						"TEXCOORD_0":2
					},
					"indices":3,
					"material":0
				}
			]
		},
		{
			"name":"obj_arc_collider",
			"primitives":[
				{
					"attributes":{
						"POSITION":4,
						"NORMAL":5
					},
					"indices":6
				}
			]
		}
	],
	"textures":[
		{
			"sampler":0,
			"source":0
		},
		{
			"sampler":0,
			"source":1
		}
	],
	"images":[
		{
			"mimeType":"image/png",
			"name":"obj_arc_emission",
			"uri":"textures/obj_arc_emission.png"
		},
		{
			"mimeType":"image/png",
			"name":"obj_arc",
			"uri":"textures/obj_arc.png"
		}
	],
	"accessors":[
		{
			"bufferView":0,
			"componentType":5126,
			"count":3568,
			"max":[
				47.90021514892578,
				4.31549072265625,
				18.916908264160156
			],
			"min":[
				-20.745319366455078,
				0.2968858778476715,
				-57.80693817138672
			],
			"type":"VEC3"
		},
		{
			"bufferView":1,
			"componentType":5126,
			"count":3568,
			"type":"VEC3"
		},
		{
			"bufferView":2,
			"componentType":5126,
			"count":3568,
			"type":"VEC2"
		},
		{
			"bufferView":3,
			"componentType":5123,
			"count":6624,
			"type":"SCALAR"
		},
		{
			"bufferView":4,
			"componentType":5126,
			"count":640,
			"max":[
				47.900211334228516,
				4.31549072265625,
				18.916908264160156
			],
			"min":[
				-20.745319366455078,
				0.2968858778476715,
				-57.80693817138672
			],
			"type":"VEC3"
		},
		{
			"bufferView":5,
			"componentType":5126,
			"count":640,
			"type":"VEC3"
		},
		{
			"bufferView":6,
			"componentType":5123,
			"count":2880,
			"type":"SCALAR"
		}
	],
	"bufferViews":[
		{
			"buffer":0,
			"byteLength":42816,
			"byteOffset":0,
			"target":34962
		},
		{
			"buffer":0,
			"byteLength":42816,
			"byteOffset":42816,
			"target":34962
		},
		{
			"buffer":0,
			"byteLength":28544,
			"byteOffset":85632,
			"target":34962
		},
		{
			"buffer":0,
			"byteLength":13248,
			"byteOffset":114176,
			"target":34963
		},
		{
			"buffer":0,
			"byteLength":7680,
			"byteOffset":127424,
			"target":34962
		},
		{
			"buffer":0,
			"byteLength":7680,
			"byteOffset":135104,
			"target":34962
		},
		{
			"buffer":0,
			"byteLength":5760,
			"byteOffset":142784,
			"target":34963
		}
	],
	"samplers":[
		{
			"magFilter":9729,
			"minFilter":9987
		}
	],
	"buffers":[
		{
			"byteLength":148544,
			"uri":"obj_arc.bin"
		}
	]
}
