{
	"asset":{
		"generator":"Khronos glTF Blender I/O v4.3.47",
		"version":"2.0"
	},
	"extensionsUsed":[
		"KHR_materials_specular"
	],
	"scene":0,
	"scenes":[
		{
			"name":"Scene",
			"nodes":[
				0,
				1
			]
		}
	],
	"nodes":[
		{
			"mesh":0,
			"name":"obj_vtable"
		},
		{
			"mesh":1,
			"name":"obj_vtable_collider"
		}
	],
	"materials":[
		{
			"emissiveFactor":[
				1,
				1,
				1
			],
			"emissiveTexture":{
				"index":0
			},
			"extensions":{
				"KHR_materials_specular":{
					"specularFactor":0
				}
			},
			"name":"obj_vtable",
			"pbrMetallicRoughness":{
				"baseColorTexture":{
					"index":1
				},
				"metallicFactor":0
			}
		}
	],
	"meshes":[
		{
			"name":"obj_vtable",
			"primitives":[
				{
					"attributes":{
						"POSITION":0,
						"NORMAL":1,
						"TEXCOORD_0":2
					},
					"indices":3,
					"material":0
				}
			]
		},
		{
			"name":"obj_vtable_collider",
			"primitives":[
				{
					"attributes":{
						"POSITION":4,
						"NORMAL":5,
						"TEXCOORD_0":6
					},
					"indices":7
				}
			]
		}
	],
	"textures":[
		{
			"sampler":0,
			"source":0
		},
		{
			"sampler":0,
			"source":1
		}
	],
	"images":[
		{
			"mimeType":"image/png",
			"name":"obj_vtable_emission",
			"uri":"textures/obj_vtable_emission.png"
		},
		{
			"mimeType":"image/png",
			"name":"obj_vtable",
			"uri":"textures/obj_vtable.png"
		}
	],
	"accessors":[
		{
			"bufferView":0,
			"componentType":5126,
			"count":2935,
			"max":[
				57.508941650390625,
				19.758604049682617,
				-41.96018981933594
			],
			"min":[
				-58.765220642089844,
				17.26247787475586,
				-70.72938537597656
			],
			"type":"VEC3"
		},
		{
			"bufferView":1,
			"componentType":5126,
			"count":2935,
			"type":"VEC3"
		},
		{
			"bufferView":2,
			"componentType":5126,
			"count":2935,
			"type":"VEC2"
		},
		{
			"bufferView":3,
			"componentType":5123,
			"count":6510,
			"type":"SCALAR"
		},
		{
			"bufferView":4,
			"componentType":5126,
			"count":384,
			"max":[
				57.508941650390625,
				19.758604049682617,
				-41.96018981933594
			],
			"min":[
				-58.765220642089844,
				17.250015258789062,
				-70.72938537597656
			],
			"type":"VEC3"
		},
		{
			"bufferView":5,
			"componentType":5126,
			"count":384,
			"type":"VEC3"
		},
		{
			"bufferView":6,
			"componentType":5126,
			"count":384,
			"type":"VEC2"
		},
		{
			"bufferView":7,
			"componentType":5123,
			"count":792,
			"type":"SCALAR"
		}
	],
	"bufferViews":[
		{
			"buffer":0,
			"byteLength":35220,
			"byteOffset":0,
			"target":34962
		},
		{
			"buffer":0,
			"byteLength":35220,
			"byteOffset":35220,
			"target":34962
		},
		{
			"buffer":0,
			"byteLength":23480,
			"byteOffset":70440,
			"target":34962
		},
		{
			"buffer":0,
			"byteLength":13020,
			"byteOffset":93920,
			"target":34963
		},
		{
			"buffer":0,
			"byteLength":4608,
			"byteOffset":106940,
			"target":34962
		},
		{
			"buffer":0,
			"byteLength":4608,
			"byteOffset":111548,
			"target":34962
		},
		{
			"buffer":0,
			"byteLength":3072,
			"byteOffset":116156,
			"target":34962
		},
		{
			"buffer":0,
			"byteLength":1584,
			"byteOffset":119228,
			"target":34963
		}
	],
	"samplers":[
		{
			"magFilter":9729,
			"minFilter":9987
		}
	],
	"buffers":[
		{
			"byteLength":120812,
			"uri":"obj_vtable.bin"
		}
	]
}
