{
	"asset":{
		"generator":"Khronos glTF Blender I/O v4.1.63",
		"version":"2.0"
	},
	"extensionsUsed":[
		"KHR_materials_specular",
		"KHR_materials_ior"
	],
	"scene":0,
	"scenes":[
		{
			"name":"Scene",
			"nodes":[
				0,
				1
			]
		}
	],
	"nodes":[
		{
			"mesh":0,
			"name":"obj_sign04"
		},
		{
			"mesh":1,
			"name":"obj_sign04_collider",
			"translation":[
				0,
				2.031147003173828,
				0
			]
		}
	],
	"materials":[
		{
			"doubleSided":true,
			"emissiveFactor":[
				0.7455297112464905,
				0.4507659673690796,
				0.8147876262664795
			],
			"extensions":{
				"KHR_materials_specular":{
					"specularFactor":0
				},
				"KHR_materials_ior":{
					"ior":1.4500000476837158
				}
			},
			"name":"obj_global_emission03",
			"pbrMetallicRoughness":{
				"baseColorFactor":[
					0.7454167008399963,
					0.450778603553772,
					0.8148468136787415,
					1
				],
				"metallicFactor":0
			}
		},
		{
			"emissiveFactor":[
				0.05000000074505806,
				0.05000000074505806,
				0.05000000074505806
			],
			"emissiveTexture":{
				"index":0
			},
			"extensions":{
				"KHR_materials_specular":{
					"specularFactor":0
				},
				"KHR_materials_ior":{
					"ior":1.4500000476837158
				}
			},
			"name":"obj_sign01",
			"pbrMetallicRoughness":{
				"baseColorTexture":{
					"index":1
				},
				"metallicFactor":0
			}
		}
	],
	"meshes":[
		{
			"name":"Plane.053",
			"primitives":[
				{
					"attributes":{
						"POSITION":0,
						"NORMAL":1,
						"TEXCOORD_0":2
					},
					"indices":3,
					"material":0
				},
				{
					"attributes":{
						"POSITION":4,
						"NORMAL":5,
						"TEXCOORD_0":6
					},
					"indices":7,
					"material":1
				}
			]
		},
		{
			"name":"Cube.024",
			"primitives":[
				{
					"attributes":{
						"POSITION":8,
						"NORMAL":9,
						"TEXCOORD_0":10
					},
					"indices":11
				}
			]
		}
	],
	"textures":[
		{
			"sampler":0,
			"source":0
		},
		{
			"sampler":0,
			"source":0
		}
	],
	"images":[
		{
			"mimeType":"image/png",
			"name":"obj_sign01",
			"uri":"textures/obj_sign01.png"
		}
	],
	"accessors":[
		{
			"bufferView":0,
			"componentType":5126,
			"count":808,
			"max":[
				4.416089057922363,
				2.9990882873535156,
				0.21949386596679688
			],
			"min":[
				-4.212494373321533,
				-2.645085334777832,
				-0.21949005126953125
			],
			"type":"VEC3"
		},
		{
			"bufferView":1,
			"componentType":5126,
			"count":808,
			"type":"VEC3"
		},
		{
			"bufferView":2,
			"componentType":5126,
			"count":808,
			"type":"VEC2"
		},
		{
			"bufferView":3,
			"componentType":5123,
			"count":2127,
			"type":"SCALAR"
		},
		{
			"bufferView":4,
			"componentType":5126,
			"count":578,
			"max":[
				2.1327409744262695,
				3.0253987312316895,
				0.21949386596679688
			],
			"min":[
				-2.132741928100586,
				1.4743151664733887,
				-0.21949005126953125
			],
			"type":"VEC3"
		},
		{
			"bufferView":5,
			"componentType":5126,
			"count":578,
			"type":"VEC3"
		},
		{
			"bufferView":6,
			"componentType":5126,
			"count":578,
			"type":"VEC2"
		},
		{
			"bufferView":7,
			"componentType":5123,
			"count":1836,
			"type":"SCALAR"
		},
		{
			"bufferView":8,
			"componentType":5126,
			"count":24,
			"max":[
				2.1327409744262695,
				1,
				0.21949070692062378
			],
			"min":[
				-2.1327409744262695,
				-0.5568714141845703,
				-0.21949100494384766
			],
			"type":"VEC3"
		},
		{
			"bufferView":9,
			"componentType":5126,
			"count":24,
			"type":"VEC3"
		},
		{
			"bufferView":10,
			"componentType":5126,
			"count":24,
			"type":"VEC2"
		},
		{
			"bufferView":11,
			"componentType":5123,
			"count":36,
			"type":"SCALAR"
		}
	],
	"bufferViews":[
		{
			"buffer":0,
			"byteLength":9696,
			"byteOffset":0,
			"target":34962
		},
		{
			"buffer":0,
			"byteLength":9696,
			"byteOffset":9696,
			"target":34962
		},
		{
			"buffer":0,
			"byteLength":6464,
			"byteOffset":19392,
			"target":34962
		},
		{
			"buffer":0,
			"byteLength":4254,
			"byteOffset":25856,
			"target":34963
		},
		{
			"buffer":0,
			"byteLength":6936,
			"byteOffset":30112,
			"target":34962
		},
		{
			"buffer":0,
			"byteLength":6936,
			"byteOffset":37048,
			"target":34962
		},
		{
			"buffer":0,
			"byteLength":4624,
			"byteOffset":43984,
			"target":34962
		},
		{
			"buffer":0,
			"byteLength":3672,
			"byteOffset":48608,
			"target":34963
		},
		{
			"buffer":0,
			"byteLength":288,
			"byteOffset":52280,
			"target":34962
		},
		{
			"buffer":0,
			"byteLength":288,
			"byteOffset":52568,
			"target":34962
		},
		{
			"buffer":0,
			"byteLength":192,
			"byteOffset":52856,
			"target":34962
		},
		{
			"buffer":0,
			"byteLength":72,
			"byteOffset":53048,
			"target":34963
		}
	],
	"samplers":[
		{
			"magFilter":9729,
			"minFilter":9987
		}
	],
	"buffers":[
		{
			"byteLength":53120,
			"uri":"obj_sign04.bin"
		}
	]
}
