{
	"asset":{
		"generator":"Khronos glTF Blender I/O v4.1.63",
		"version":"2.0"
	},
	"extensionsUsed":[
		"KHR_materials_specular",
		"KHR_materials_ior"
	],
	"scene":0,
	"scenes":[
		{
			"name":"Scene",
			"nodes":[
				0,
				1
			]
		}
	],
	"nodes":[
		{
			"mesh":0,
			"name":"obj_borders04"
		},
		{
			"mesh":1,
			"name":"obj_borders04_collider"
		}
	],
	"materials":[
		{
			"emissiveFactor":[
				0.08500204809013079,
				0.09007176891076218,
				0.10000240951780093
			],
			"emissiveTexture":{
				"index":0
			},
			"extensions":{
				"KHR_materials_specular":{
					"specularFactor":0
				},
				"KHR_materials_ior":{
					"ior":1.4500000476837158
				}
			},
			"name":"obj_borders",
			"pbrMetallicRoughness":{
				"baseColorFactor":[
					0.8500204682350159,
					0.9007176756858826,
					1,
					1
				],
				"baseColorTexture":{
					"index":1
				},
				"metallicFactor":0
			}
		},
		{
			"emissiveFactor":[
				0.7455297112464905,
				0.4507659673690796,
				0.8147876262664795
			],
			"extensions":{
				"KHR_materials_specular":{
					"specularFactor":0
				},
				"KHR_materials_ior":{
					"ior":1.4500000476837158
				}
			},
			"name":"obj_global_emission03",
			"pbrMetallicRoughness":{
				"baseColorFactor":[
					0.7454167008399963,
					0.450778603553772,
					0.8148468136787415,
					1
				],
				"metallicFactor":0
			}
		}
	],
	"meshes":[
		{
			"name":"Plane.031",
			"primitives":[
				{
					"attributes":{
						"POSITION":0,
						"NORMAL":1,
						"TEXCOORD_0":2
					},
					"indices":3,
					"material":0
				},
				{
					"attributes":{
						"POSITION":4,
						"NORMAL":5,
						"TEXCOORD_0":6
					},
					"indices":7,
					"material":1
				}
			]
		},
		{
			"name":"Plane.013",
			"primitives":[
				{
					"attributes":{
						"POSITION":8,
						"NORMAL":9,
						"TEXCOORD_0":10
					},
					"indices":11
				}
			]
		}
	],
	"textures":[
		{
			"sampler":0,
			"source":0
		},
		{
			"sampler":0,
			"source":0
		}
	],
	"images":[
		{
			"mimeType":"image/png",
			"name":"obj_borders",
			"uri":"textures/obj_borders.png"
		}
	],
	"accessors":[
		{
			"bufferView":0,
			"componentType":5126,
			"count":7666,
			"max":[
				52.28743362426758,
				0.17773115634918213,
				51.030948638916016
			],
			"min":[
				2.850033760070801,
				0.04445561766624451,
				-3.1150286197662354
			],
			"type":"VEC3"
		},
		{
			"bufferView":1,
			"componentType":5126,
			"count":7666,
			"type":"VEC3"
		},
		{
			"bufferView":2,
			"componentType":5126,
			"count":7666,
			"type":"VEC2"
		},
		{
			"bufferView":3,
			"componentType":5123,
			"count":14400,
			"type":"SCALAR"
		},
		{
			"bufferView":4,
			"componentType":5126,
			"count":2293,
			"max":[
				52.214263916015625,
				0.13953828811645508,
				50.95982360839844
			],
			"min":[
				2.923801898956299,
				0.10453692078590393,
				-3.0424673557281494
			],
			"type":"VEC3"
		},
		{
			"bufferView":5,
			"componentType":5126,
			"count":2293,
			"type":"VEC3"
		},
		{
			"bufferView":6,
			"componentType":5126,
			"count":2293,
			"type":"VEC2"
		},
		{
			"bufferView":7,
			"componentType":5123,
			"count":3600,
			"type":"SCALAR"
		},
		{
			"bufferView":8,
			"componentType":5126,
			"count":1194,
			"max":[
				52.28743362426758,
				0.17773115634918213,
				50.932918548583984
			],
			"min":[
				2.8520305156707764,
				0.04445567727088928,
				-3.1150286197662354
			],
			"type":"VEC3"
		},
		{
			"bufferView":9,
			"componentType":5126,
			"count":1194,
			"type":"VEC3"
		},
		{
			"bufferView":10,
			"componentType":5126,
			"count":1194,
			"type":"VEC2"
		},
		{
			"bufferView":11,
			"componentType":5123,
			"count":1998,
			"type":"SCALAR"
		}
	],
	"bufferViews":[
		{
			"buffer":0,
			"byteLength":91992,
			"byteOffset":0,
			"target":34962
		},
		{
			"buffer":0,
			"byteLength":91992,
			"byteOffset":91992,
			"target":34962
		},
		{
			"buffer":0,
			"byteLength":61328,
			"byteOffset":183984,
			"target":34962
		},
		{
			"buffer":0,
			"byteLength":28800,
			"byteOffset":245312,
			"target":34963
		},
		{
			"buffer":0,
			"byteLength":27516,
			"byteOffset":274112,
			"target":34962
		},
		{
			"buffer":0,
			"byteLength":27516,
			"byteOffset":301628,
			"target":34962
		},
		{
			"buffer":0,
			"byteLength":18344,
			"byteOffset":329144,
			"target":34962
		},
		{
			"buffer":0,
			"byteLength":7200,
			"byteOffset":347488,
			"target":34963
		},
		{
			"buffer":0,
			"byteLength":14328,
			"byteOffset":354688,
			"target":34962
		},
		{
			"buffer":0,
			"byteLength":14328,
			"byteOffset":369016,
			"target":34962
		},
		{
			"buffer":0,
			"byteLength":9552,
			"byteOffset":383344,
			"target":34962
		},
		{
			"buffer":0,
			"byteLength":3996,
			"byteOffset":392896,
			"target":34963
		}
	],
	"samplers":[
		{
			"magFilter":9729,
			"minFilter":9987
		}
	],
	"buffers":[
		{
			"byteLength":396892,
			"uri":"obj_borders04.bin"
		}
	]
}
