{
	"asset":{
		"generator":"Khronos glTF Blender I/O v4.3.47",
		"version":"2.0"
	},
	"extensionsUsed":[
		"KHR_materials_clearcoat",
		"KHR_materials_specular"
	],
	"scene":0,
	"scenes":[
		{
			"name":"Scene",
			"nodes":[
				0,
				1
			]
		}
	],
	"nodes":[
		{
			"mesh":0,
			"name":"obj_bin"
		},
		{
			"mesh":1,
			"name":"obj_bin_collider"
		}
	],
	"materials":[
		{
			"emissiveFactor":[
				0.10000000149011612,
				0.10000000149011612,
				0.10000000149011612
			],
			"emissiveTexture":{
				"index":0
			},
			"extensions":{
				"KHR_materials_clearcoat":{
					"clearcoatRoughnessFactor":0
				},
				"KHR_materials_specular":{
					"specularFactor":0
				}
			},
			"name":"obj_bin",
			"pbrMetallicRoughness":{
				"baseColorTexture":{
					"index":1
				},
				"metallicFactor":0
			}
		},
		{
			"doubleSided":true,
			"emissiveFactor":[
				0.26229405403137207,
				0.5646868348121643,
				0.921515166759491
			],
			"extensions":{
				"KHR_materials_specular":{
					"specularFactor":0
				}
			},
			"name":"obj_global_emission01",
			"pbrMetallicRoughness":{
				"baseColorFactor":[
					0.2617267668247223,
					0.566400408744812,
					0.9218639135360718,
					1
				],
				"metallicFactor":0
			}
		},
		{
			"doubleSided":true,
			"emissiveFactor":[
				0.9215658903121948,
				0.7304738759994507,
				0.16513018310070038
			],
			"extensions":{
				"KHR_materials_specular":{
					"specularFactor":0
				}
			},
			"name":"obj_global_emission02",
			"pbrMetallicRoughness":{
				"baseColorFactor":[
					0.9203937649726868,
					0.7313708662986755,
					0.1655372530221939,
					1
				],
				"metallicFactor":0
			}
		}
	],
	"meshes":[
		{
			"name":"obj_bin",
			"primitives":[
				{
					"attributes":{
						"POSITION":0,
						"NORMAL":1,
						"TEXCOORD_0":2
					},
					"indices":3,
					"material":0
				},
				{
					"attributes":{
						"POSITION":4,
						"NORMAL":5,
						"TEXCOORD_0":6
					},
					"indices":7,
					"material":1
				},
				{
					"attributes":{
						"POSITION":8,
						"NORMAL":9,
						"TEXCOORD_0":10
					},
					"indices":11,
					"material":2
				}
			]
		},
		{
			"name":"obj_bin_collider",
			"primitives":[
				{
					"attributes":{
						"POSITION":12,
						"NORMAL":13,
						"TEXCOORD_0":14
					},
					"indices":15
				}
			]
		}
	],
	"textures":[
		{
			"sampler":0,
			"source":0
		},
		{
			"sampler":0,
			"source":0
		}
	],
	"images":[
		{
			"mimeType":"image/png",
			"name":"obj_bin",
			"uri":"textures/obj_bin.png"
		}
	],
	"accessors":[
		{
			"bufferView":0,
			"componentType":5126,
			"count":16758,
			"max":[
				65.08328247070312,
				20.71144676208496,
				48.4181022644043
			],
			"min":[
				-58.85722351074219,
				0.2999999225139618,
				-67.72132873535156
			],
			"type":"VEC3"
		},
		{
			"bufferView":1,
			"componentType":5126,
			"count":16758,
			"type":"VEC3"
		},
		{
			"bufferView":2,
			"componentType":5126,
			"count":16758,
			"type":"VEC2"
		},
		{
			"bufferView":3,
			"componentType":5123,
			"count":60270,
			"type":"SCALAR"
		},
		{
			"bufferView":4,
			"componentType":5126,
			"count":3772,
			"max":[
				65.06397247314453,
				20.690452575683594,
				48.33802795410156
			],
			"min":[
				-58.77193832397461,
				0.6068673133850098,
				-67.63735961914062
			],
			"type":"VEC3"
		},
		{
			"bufferView":5,
			"componentType":5126,
			"count":3772,
			"type":"VEC3"
		},
		{
			"bufferView":6,
			"componentType":5126,
			"count":3772,
			"type":"VEC2"
		},
		{
			"bufferView":7,
			"componentType":5123,
			"count":11040,
			"type":"SCALAR"
		},
		{
			"bufferView":8,
			"componentType":5126,
			"count":246,
			"max":[
				-15.154998779296875,
				0.9904522895812988,
				-13.979686737060547
			],
			"min":[
				-38.38810729980469,
				0.6068673133850098,
				-43.583885192871094
			],
			"type":"VEC3"
		},
		{
			"bufferView":9,
			"componentType":5126,
			"count":246,
			"type":"VEC3"
		},
		{
			"bufferView":10,
			"componentType":5126,
			"count":246,
			"type":"VEC2"
		},
		{
			"bufferView":11,
			"componentType":5123,
			"count":720,
			"type":"SCALAR"
		},
		{
			"bufferView":12,
			"componentType":5126,
			"count":1274,
			"max":[
				65.1335220336914,
				20.712295532226562,
				48.48332214355469
			],
			"min":[
				-58.91908645629883,
				0.2999999523162842,
				-67.7463607788086
			],
			"type":"VEC3"
		},
		{
			"bufferView":13,
			"componentType":5126,
			"count":1274,
			"type":"VEC3"
		},
		{
			"bufferView":14,
			"componentType":5126,
			"count":1274,
			"type":"VEC2"
		},
		{
			"bufferView":15,
			"componentType":5123,
			"count":2940,
			"type":"SCALAR"
		}
	],
	"bufferViews":[
		{
			"buffer":0,
			"byteLength":201096,
			"byteOffset":0,
			"target":34962
		},
		{
			"buffer":0,
			"byteLength":201096,
			"byteOffset":201096,
			"target":34962
		},
		{
			"buffer":0,
			"byteLength":134064,
			"byteOffset":402192,
			"target":34962
		},
		{
			"buffer":0,
			"byteLength":120540,
			"byteOffset":536256,
			"target":34963
		},
		{
			"buffer":0,
			"byteLength":45264,
			"byteOffset":656796,
			"target":34962
		},
		{
			"buffer":0,
			"byteLength":45264,
			"byteOffset":702060,
			"target":34962
		},
		{
			"buffer":0,
			"byteLength":30176,
			"byteOffset":747324,
			"target":34962
		},
		{
			"buffer":0,
			"byteLength":22080,
			"byteOffset":777500,
			"target":34963
		},
		{
			"buffer":0,
			"byteLength":2952,
			"byteOffset":799580,
			"target":34962
		},
		{
			"buffer":0,
			"byteLength":2952,
			"byteOffset":802532,
			"target":34962
		},
		{
			"buffer":0,
			"byteLength":1968,
			"byteOffset":805484,
			"target":34962
		},
		{
			"buffer":0,
			"byteLength":1440,
			"byteOffset":807452,
			"target":34963
		},
		{
			"buffer":0,
			"byteLength":15288,
			"byteOffset":808892,
			"target":34962
		},
		{
			"buffer":0,
			"byteLength":15288,
			"byteOffset":824180,
			"target":34962
		},
		{
			"buffer":0,
			"byteLength":10192,
			"byteOffset":839468,
			"target":34962
		},
		{
			"buffer":0,
			"byteLength":5880,
			"byteOffset":849660,
			"target":34963
		}
	],
	"samplers":[
		{
			"magFilter":9729,
			"minFilter":9987
		}
	],
	"buffers":[
		{
			"byteLength":855540,
			"uri":"obj_bin.bin"
		}
	]
}
