{
	"asset":{
		"generator":"Khronos glTF Blender I/O v4.1.63",
		"version":"2.0"
	},
	"scene":0,
	"scenes":[
		{
			"name":"Scene",
			"nodes":[
				0,
				1
			]
		}
	],
	"nodes":[
		{
			"mesh":0,
			"name":"obj_microscope"
		},
		{
			"mesh":1,
			"name":"obj_microscope_collider"
		}
	],
	"materials":[
		{
			"emissiveFactor":[
				1,
				1,
				1
			],
			"emissiveTexture":{
				"index":0
			},
			"name":"obj_microscope",
			"pbrMetallicRoughness":{
				"baseColorTexture":{
					"index":1
				},
				"metallicFactor":0
			}
		}
	],
	"meshes":[
		{
			"name":"Cylinder.003",
			"primitives":[
				{
					"attributes":{
						"POSITION":0,
						"NORMAL":1,
						"TEXCOORD_0":2
					},
					"indices":3,
					"material":0
				}
			]
		},
		{
			"name":"Cube.003",
			"primitives":[
				{
					"attributes":{
						"POSITION":4,
						"NORMAL":5,
						"TEXCOORD_0":6
					},
					"indices":7
				}
			]
		}
	],
	"textures":[
		{
			"sampler":0,
			"source":0
		},
		{
			"sampler":0,
			"source":1
		}
	],
	"images":[
		{
			"mimeType":"image/png",
			"name":"obj_miscroscope_emission",
			"uri":"textures/obj_miscroscope_emission.png"
		},
		{
			"mimeType":"image/png",
			"name":"obj_miscroscope",
			"uri":"textures/obj_miscroscope.png"
		}
	],
	"accessors":[
		{
			"bufferView":0,
			"componentType":5126,
			"count":1801,
			"max":[
				0.22625884413719177,
				0.8942239284515381,
				0.3309049904346466
			],
			"min":[
				-0.22233198583126068,
				0.0048433952033519745,
				-0.3275567889213562
			],
			"type":"VEC3"
		},
		{
			"bufferView":1,
			"componentType":5126,
			"count":1801,
			"type":"VEC3"
		},
		{
			"bufferView":2,
			"componentType":5126,
			"count":1801,
			"type":"VEC2"
		},
		{
			"bufferView":3,
			"componentType":5123,
			"count":3960,
			"type":"SCALAR"
		},
		{
			"bufferView":4,
			"componentType":5126,
			"count":24,
			"max":[
				0.2178996503353119,
				0.8079809546470642,
				0.2898837625980377
			],
			"min":[
				-0.21365369856357574,
				0.005094241816550493,
				-0.27569422125816345
			],
			"type":"VEC3"
		},
		{
			"bufferView":5,
			"componentType":5126,
			"count":24,
			"type":"VEC3"
		},
		{
			"bufferView":6,
			"componentType":5126,
			"count":24,
			"type":"VEC2"
		},
		{
			"bufferView":7,
			"componentType":5123,
			"count":36,
			"type":"SCALAR"
		}
	],
	"bufferViews":[
		{
			"buffer":0,
			"byteLength":21612,
			"byteOffset":0,
			"target":34962
		},
		{
			"buffer":0,
			"byteLength":21612,
			"byteOffset":21612,
			"target":34962
		},
		{
			"buffer":0,
			"byteLength":14408,
			"byteOffset":43224,
			"target":34962
		},
		{
			"buffer":0,
			"byteLength":7920,
			"byteOffset":57632,
			"target":34963
		},
		{
			"buffer":0,
			"byteLength":288,
			"byteOffset":65552,
			"target":34962
		},
		{
			"buffer":0,
			"byteLength":288,
			"byteOffset":65840,
			"target":34962
		},
		{
			"buffer":0,
			"byteLength":192,
			"byteOffset":66128,
			"target":34962
		},
		{
			"buffer":0,
			"byteLength":72,
			"byteOffset":66320,
			"target":34963
		}
	],
	"samplers":[
		{
			"magFilter":9729,
			"minFilter":9987
		}
	],
	"buffers":[
		{
			"byteLength":66392,
			"uri":"obj_microscope.bin"
		}
	]
}
