{
	"asset":{
		"generator":"Khronos glTF Blender I/O v4.1.63",
		"version":"2.0"
	},
	"extensionsUsed":[
		"KHR_materials_specular",
		"KHR_materials_ior"
	],
	"scene":0,
	"scenes":[
		{
			"name":"Scene",
			"nodes":[
				0,
				1
			]
		}
	],
	"nodes":[
		{
			"mesh":0,
			"name":"obj_satellite"
		},
		{
			"mesh":1,
			"name":"obj_satellite_collider"
		}
	],
	"materials":[
		{
			"emissiveFactor":[
				1,
				1,
				1
			],
			"emissiveTexture":{
				"index":0
			},
			"extensions":{
				"KHR_materials_specular":{
					"specularFactor":0
				},
				"KHR_materials_ior":{
					"ior":1.4500000476837158
				}
			},
			"name":"obj_satellite01",
			"pbrMetallicRoughness":{
				"baseColorTexture":{
					"index":1
				},
				"metallicFactor":0
			}
		},
		{
			"emissiveFactor":[
				1,
				1,
				1
			],
			"emissiveTexture":{
				"index":2
			},
			"extensions":{
				"KHR_materials_specular":{
					"specularFactor":0
				},
				"KHR_materials_ior":{
					"ior":1.4500000476837158
				}
			},
			"name":"obj_satellite02",
			"pbrMetallicRoughness":{
				"baseColorTexture":{
					"index":3
				},
				"metallicFactor":0
			}
		}
	],
	"meshes":[
		{
			"name":"Radar2_low.001",
			"primitives":[
				{
					"attributes":{
						"POSITION":0,
						"NORMAL":1,
						"TEXCOORD_0":2
					},
					"indices":3,
					"material":0
				},
				{
					"attributes":{
						"POSITION":4,
						"NORMAL":5,
						"TEXCOORD_0":6
					},
					"indices":7,
					"material":1
				}
			]
		},
		{
			"name":"Mesh.008",
			"primitives":[
				{
					"attributes":{
						"POSITION":8,
						"NORMAL":9,
						"TEXCOORD_0":10
					},
					"indices":11
				}
			]
		}
	],
	"textures":[
		{
			"sampler":0,
			"source":0
		},
		{
			"sampler":0,
			"source":1
		},
		{
			"sampler":0,
			"source":2
		},
		{
			"sampler":0,
			"source":3
		}
	],
	"images":[
		{
			"mimeType":"image/png",
			"name":"obj_satellite01_emission",
			"uri":"textures/obj_satellite01_emission.png"
		},
		{
			"mimeType":"image/png",
			"name":"obj_satellite01",
			"uri":"textures/obj_satellite01.png"
		},
		{
			"mimeType":"image/png",
			"name":"obj_satellite02_emission",
			"uri":"textures/obj_satellite02_emission.png"
		},
		{
			"mimeType":"image/png",
			"name":"obj_satellite02",
			"uri":"textures/obj_satellite02.png"
		}
	],
	"accessors":[
		{
			"bufferView":0,
			"componentType":5126,
			"count":1581,
			"max":[
				2.290597677230835,
				3.3398377895355225,
				2.42026424407959
			],
			"min":[
				-2.2741100788116455,
				-1.0058283805847168e-07,
				-1.4483832120895386
			],
			"type":"VEC3"
		},
		{
			"bufferView":1,
			"componentType":5126,
			"count":1581,
			"type":"VEC3"
		},
		{
			"bufferView":2,
			"componentType":5126,
			"count":1581,
			"type":"VEC2"
		},
		{
			"bufferView":3,
			"componentType":5123,
			"count":3864,
			"type":"SCALAR"
		},
		{
			"bufferView":4,
			"componentType":5126,
			"count":570,
			"max":[
				2.1578307151794434,
				3.2951443195343018,
				2.538360357284546
			],
			"min":[
				-2.141258478164673,
				1.2824985980987549,
				-1.4458544254302979
			],
			"type":"VEC3"
		},
		{
			"bufferView":5,
			"componentType":5126,
			"count":570,
			"type":"VEC3"
		},
		{
			"bufferView":6,
			"componentType":5126,
			"count":570,
			"type":"VEC2"
		},
		{
			"bufferView":7,
			"componentType":5123,
			"count":2088,
			"type":"SCALAR"
		},
		{
			"bufferView":8,
			"componentType":5126,
			"count":1097,
			"max":[
				2.318223714828491,
				3.3383140563964844,
				2.538361072540283
			],
			"min":[
				-2.301651954650879,
				-9.545838963731512e-08,
				-1.5704973936080933
			],
			"type":"VEC3"
		},
		{
			"bufferView":9,
			"componentType":5126,
			"count":1097,
			"type":"VEC3"
		},
		{
			"bufferView":10,
			"componentType":5126,
			"count":1097,
			"type":"VEC2"
		},
		{
			"bufferView":11,
			"componentType":5123,
			"count":1998,
			"type":"SCALAR"
		}
	],
	"bufferViews":[
		{
			"buffer":0,
			"byteLength":18972,
			"byteOffset":0,
			"target":34962
		},
		{
			"buffer":0,
			"byteLength":18972,
			"byteOffset":18972,
			"target":34962
		},
		{
			"buffer":0,
			"byteLength":12648,
			"byteOffset":37944,
			"target":34962
		},
		{
			"buffer":0,
			"byteLength":7728,
			"byteOffset":50592,
			"target":34963
		},
		{
			"buffer":0,
			"byteLength":6840,
			"byteOffset":58320,
			"target":34962
		},
		{
			"buffer":0,
			"byteLength":6840,
			"byteOffset":65160,
			"target":34962
		},
		{
			"buffer":0,
			"byteLength":4560,
			"byteOffset":72000,
			"target":34962
		},
		{
			"buffer":0,
			"byteLength":4176,
			"byteOffset":76560,
			"target":34963
		},
		{
			"buffer":0,
			"byteLength":13164,
			"byteOffset":80736,
			"target":34962
		},
		{
			"buffer":0,
			"byteLength":13164,
			"byteOffset":93900,
			"target":34962
		},
		{
			"buffer":0,
			"byteLength":8776,
			"byteOffset":107064,
			"target":34962
		},
		{
			"buffer":0,
			"byteLength":3996,
			"byteOffset":115840,
			"target":34963
		}
	],
	"samplers":[
		{
			"magFilter":9729,
			"minFilter":9987
		}
	],
	"buffers":[
		{
			"byteLength":119836,
			"uri":"obj_satellite.bin"
		}
	]
}
