{
	"asset":{
		"generator":"Khronos glTF Blender I/O v4.1.63",
		"version":"2.0"
	},
	"extensionsUsed":[
		"KHR_materials_specular",
		"KHR_materials_ior"
	],
	"scene":0,
	"scenes":[
		{
			"name":"Scene",
			"nodes":[
				0,
				1
			]
		}
	],
	"nodes":[
		{
			"mesh":0,
			"name":"obj_planting"
		},
		{
			"mesh":1,
			"name":"obj_planting_collider"
		}
	],
	"materials":[
		{
			"emissiveFactor":[
				0.10000000149011612,
				0.10000000149011612,
				0.10000000149011612
			],
			"emissiveTexture":{
				"index":0
			},
			"extensions":{
				"KHR_materials_specular":{
					"specularFactor":0
				},
				"KHR_materials_ior":{
					"ior":1.4500000476837158
				}
			},
			"name":"obj_shuttle",
			"pbrMetallicRoughness":{
				"baseColorTexture":{
					"index":1
				},
				"metallicFactor":0
			}
		},
		{
			"emissiveFactor":[
				0.26229405403137207,
				0.5646868348121643,
				0.921515166759491
			],
			"extensions":{
				"KHR_materials_specular":{
					"specularFactor":0
				},
				"KHR_materials_ior":{
					"ior":1.4500000476837158
				}
			},
			"name":"obj_global_emission01",
			"pbrMetallicRoughness":{
				"baseColorFactor":[
					0.2617267668247223,
					0.566400408744812,
					0.9218639135360718,
					1
				],
				"metallicFactor":0
			}
		}
	],
	"meshes":[
		{
			"name":"Mesh.002",
			"primitives":[
				{
					"attributes":{
						"POSITION":0,
						"NORMAL":1,
						"TEXCOORD_0":2
					},
					"indices":3,
					"material":0
				},
				{
					"attributes":{
						"POSITION":4,
						"NORMAL":5,
						"TEXCOORD_0":6
					},
					"indices":7,
					"material":1
				}
			]
		},
		{
			"name":"Cube",
			"primitives":[
				{
					"attributes":{
						"POSITION":8,
						"NORMAL":9,
						"TEXCOORD_0":10
					},
					"indices":11
				}
			]
		}
	],
	"textures":[
		{
			"sampler":0,
			"source":0
		},
		{
			"sampler":0,
			"source":0
		}
	],
	"images":[
		{
			"mimeType":"image/png",
			"name":"obj_shuttle",
			"uri":"textures/obj_shuttle.png"
		}
	],
	"accessors":[
		{
			"bufferView":0,
			"componentType":5126,
			"count":1598,
			"max":[
				1.985904335975647,
				0.13844847679138184,
				2.8221054077148438
			],
			"min":[
				-1.985904335975647,
				-0.009895994327962399,
				-2.8608815670013428
			],
			"type":"VEC3"
		},
		{
			"bufferView":1,
			"componentType":5126,
			"count":1598,
			"type":"VEC3"
		},
		{
			"bufferView":2,
			"componentType":5126,
			"count":1598,
			"type":"VEC2"
		},
		{
			"bufferView":3,
			"componentType":5123,
			"count":5508,
			"type":"SCALAR"
		},
		{
			"bufferView":4,
			"componentType":5126,
			"count":262,
			"max":[
				1.447348952293396,
				0.0914560854434967,
				2.3175764083862305
			],
			"min":[
				-1.447348952293396,
				0.06754625588655472,
				-2.3563525676727295
			],
			"type":"VEC3"
		},
		{
			"bufferView":5,
			"componentType":5126,
			"count":262,
			"type":"VEC3"
		},
		{
			"bufferView":6,
			"componentType":5126,
			"count":262,
			"type":"VEC2"
		},
		{
			"bufferView":7,
			"componentType":5123,
			"count":804,
			"type":"SCALAR"
		},
		{
			"bufferView":8,
			"componentType":5126,
			"count":120,
			"max":[
				1.977739930152893,
				0.13844847679138184,
				2.8221054077148438
			],
			"min":[
				-1.977739930152893,
				0,
				-2.8608815670013428
			],
			"type":"VEC3"
		},
		{
			"bufferView":9,
			"componentType":5126,
			"count":120,
			"type":"VEC3"
		},
		{
			"bufferView":10,
			"componentType":5126,
			"count":120,
			"type":"VEC2"
		},
		{
			"bufferView":11,
			"componentType":5123,
			"count":228,
			"type":"SCALAR"
		}
	],
	"bufferViews":[
		{
			"buffer":0,
			"byteLength":19176,
			"byteOffset":0,
			"target":34962
		},
		{
			"buffer":0,
			"byteLength":19176,
			"byteOffset":19176,
			"target":34962
		},
		{
			"buffer":0,
			"byteLength":12784,
			"byteOffset":38352,
			"target":34962
		},
		{
			"buffer":0,
			"byteLength":11016,
			"byteOffset":51136,
			"target":34963
		},
		{
			"buffer":0,
			"byteLength":3144,
			"byteOffset":62152,
			"target":34962
		},
		{
			"buffer":0,
			"byteLength":3144,
			"byteOffset":65296,
			"target":34962
		},
		{
			"buffer":0,
			"byteLength":2096,
			"byteOffset":68440,
			"target":34962
		},
		{
			"buffer":0,
			"byteLength":1608,
			"byteOffset":70536,
			"target":34963
		},
		{
			"buffer":0,
			"byteLength":1440,
			"byteOffset":72144,
			"target":34962
		},
		{
			"buffer":0,
			"byteLength":1440,
			"byteOffset":73584,
			"target":34962
		},
		{
			"buffer":0,
			"byteLength":960,
			"byteOffset":75024,
			"target":34962
		},
		{
			"buffer":0,
			"byteLength":456,
			"byteOffset":75984,
			"target":34963
		}
	],
	"samplers":[
		{
			"magFilter":9729,
			"minFilter":9987
		}
	],
	"buffers":[
		{
			"byteLength":76440,
			"uri":"obj_planting.bin"
		}
	]
}
