{
	"asset":{
		"generator":"Khronos glTF Blender I/O v4.3.47",
		"version":"2.0"
	},
	"extensionsUsed":[
		"KHR_materials_emissive_strength",
		"KHR_materials_specular"
	],
	"scene":0,
	"scenes":[
		{
			"name":"Scene",
			"nodes":[
				0,
				1
			]
		}
	],
	"nodes":[
		{
			"mesh":0,
			"name":"obj_globe"
		},
		{
			"mesh":1,
			"name":"obj_globe_collider"
		}
	],
	"materials":[
		{
			"alphaMode":"BLEND",
			"emissiveFactor":[
				1,
				1,
				1
			],
			"emissiveTexture":{
				"index":0
			},
			"extensions":{
				"KHR_materials_emissive_strength":{
					"emissiveStrength":2
				},
				"KHR_materials_specular":{
					"specularFactor":0
				}
			},
			"name":"obj_globe02",
			"pbrMetallicRoughness":{
				"baseColorFactor":[
					1,
					1,
					1,
					0.699999988079071
				],
				"baseColorTexture":{
					"index":1
				},
				"metallicFactor":0
			}
		},
		{
			"alphaMode":"BLEND",
			"emissiveFactor":[
				1,
				1,
				1
			],
			"emissiveTexture":{
				"index":2
			},
			"extensions":{
				"KHR_materials_emissive_strength":{
					"emissiveStrength":2
				},
				"KHR_materials_specular":{
					"specularFactor":0
				}
			},
			"name":"obj_globe03",
			"pbrMetallicRoughness":{
				"baseColorFactor":[
					1,
					1,
					1,
					0.20000000298023224
				],
				"baseColorTexture":{
					"index":3
				},
				"metallicFactor":0
			}
		},
		{
			"emissiveFactor":[
				0.07999999821186066,
				0.07999999821186066,
				0.07999999821186066
			],
			"emissiveTexture":{
				"index":4
			},
			"extensions":{
				"KHR_materials_specular":{
					"specularFactor":0
				}
			},
			"name":"obj_globe01",
			"pbrMetallicRoughness":{
				"baseColorTexture":{
					"index":5
				},
				"metallicFactor":0
			}
		},
		{
			"doubleSided":true,
			"emissiveFactor":[
				0.26229405403137207,
				0.5646868348121643,
				0.921515166759491
			],
			"extensions":{
				"KHR_materials_specular":{
					"specularFactor":0
				}
			},
			"name":"obj_global_emission01",
			"pbrMetallicRoughness":{
				"baseColorFactor":[
					0.2617267668247223,
					0.566400408744812,
					0.9218639135360718,
					1
				],
				"metallicFactor":0
			}
		},
		{
			"emissiveFactor":[
				0.05000000074505806,
				0.05000000074505806,
				0.05000000074505806
			],
			"emissiveTexture":{
				"index":6
			},
			"extensions":{
				"KHR_materials_specular":{
					"specularFactor":0
				}
			},
			"name":"obj_globe04",
			"pbrMetallicRoughness":{
				"baseColorTexture":{
					"index":7
				},
				"metallicFactor":0
			}
		},
		{
			"emissiveFactor":[
				0.07999999821186066,
				0.07999999821186066,
				0.07999999821186066
			],
			"emissiveTexture":{
				"index":8
			},
			"extensions":{
				"KHR_materials_specular":{
					"specularFactor":0
				}
			},
			"name":"obj_workbench01",
			"pbrMetallicRoughness":{
				"baseColorTexture":{
					"index":9
				},
				"metallicFactor":0
			}
		},
		{
			"alphaMode":"BLEND",
			"doubleSided":true,
			"emissiveFactor":[
				1,
				1,
				1
			],
			"emissiveTexture":{
				"index":10
			},
			"extensions":{
				"KHR_materials_emissive_strength":{
					"emissiveStrength":1.5
				},
				"KHR_materials_specular":{
					"specularFactor":0
				}
			},
			"name":"obj_workbench02",
			"pbrMetallicRoughness":{
				"baseColorFactor":[
					1,
					1,
					1,
					0.699999988079071
				],
				"baseColorTexture":{
					"index":11
				},
				"metallicFactor":0
			}
		},
		{
			"alphaMode":"BLEND",
			"emissiveFactor":[
				1,
				1,
				1
			],
			"emissiveTexture":{
				"index":12
			},
			"extensions":{
				"KHR_materials_emissive_strength":{
					"emissiveStrength":2
				},
				"KHR_materials_specular":{
					"specularFactor":0
				}
			},
			"name":"obj_workbench03",
			"pbrMetallicRoughness":{
				"baseColorFactor":[
					1,
					1,
					1,
					0.22363635897636414
				],
				"baseColorTexture":{
					"index":13
				},
				"metallicFactor":0
			}
		}
	],
	"meshes":[
		{
			"name":"obj_globe",
			"primitives":[
				{
					"attributes":{
						"POSITION":0,
						"NORMAL":1,
						"TEXCOORD_0":2
					},
					"indices":3,
					"material":0
				},
				{
					"attributes":{
						"POSITION":4,
						"NORMAL":5,
						"TEXCOORD_0":6
					},
					"indices":7,
					"material":1
				},
				{
					"attributes":{
						"POSITION":8,
						"NORMAL":9,
						"TEXCOORD_0":10
					},
					"indices":11,
					"material":2
				},
				{
					"attributes":{
						"POSITION":12,
						"NORMAL":13,
						"TEXCOORD_0":14
					},
					"indices":15,
					"material":3
				},
				{
					"attributes":{
						"POSITION":16,
						"NORMAL":17,
						"TEXCOORD_0":18
					},
					"indices":19,
					"material":4
				},
				{
					"attributes":{
						"POSITION":20,
						"NORMAL":21,
						"TEXCOORD_0":22
					},
					"indices":23,
					"material":5
				},
				{
					"attributes":{
						"POSITION":24,
						"NORMAL":25,
						"TEXCOORD_0":26
					},
					"indices":27,
					"material":6
				},
				{
					"attributes":{
						"POSITION":28,
						"NORMAL":29,
						"TEXCOORD_0":30
					},
					"indices":31,
					"material":7
				}
			]
		},
		{
			"name":"obj_globe_collider",
			"primitives":[
				{
					"attributes":{
						"POSITION":32,
						"NORMAL":33,
						"TEXCOORD_0":34
					},
					"indices":35
				}
			]
		}
	],
	"textures":[
		{
			"sampler":0,
			"source":0
		},
		{
			"sampler":0,
			"source":0
		},
		{
			"sampler":0,
			"source":1
		},
		{
			"sampler":0,
			"source":1
		},
		{
			"sampler":0,
			"source":2
		},
		{
			"sampler":0,
			"source":2
		},
		{
			"sampler":0,
			"source":3
		},
		{
			"sampler":0,
			"source":3
		},
		{
			"sampler":0,
			"source":4
		},
		{
			"sampler":0,
			"source":4
		},
		{
			"sampler":0,
			"source":5
		},
		{
			"sampler":0,
			"source":5
		},
		{
			"sampler":0,
			"source":5
		},
		{
			"sampler":0,
			"source":5
		}
	],
	"images":[
		{
			"mimeType":"image/png",
			"name":"obj_globe02",
			"uri":"textures/obj_globe02.png"
		},
		{
			"mimeType":"image/png",
			"name":"obj_globe03",
			"uri":"textures/obj_globe03.png"
		},
		{
			"mimeType":"image/png",
			"name":"obj_globe01",
			"uri":"textures/obj_globe01.png"
		},
		{
			"mimeType":"image/png",
			"name":"obj_globe04",
			"uri":"textures/obj_globe04.png"
		},
		{
			"mimeType":"image/png",
			"name":"obj_workbench01",
			"uri":"textures/obj_workbench01.png"
		},
		{
			"mimeType":"image/png",
			"name":"obj_workbench02",
			"uri":"textures/obj_workbench02.png"
		}
	],
	"accessors":[
		{
			"bufferView":0,
			"componentType":5126,
			"count":991,
			"max":[
				-3.4381017684936523,
				21.789501190185547,
				-60.90345764160156
			],
			"min":[
				-17.628206253051758,
				18.627958297729492,
				-72.53270721435547
			],
			"type":"VEC3"
		},
		{
			"bufferView":1,
			"componentType":5126,
			"count":991,
			"type":"VEC3"
		},
		{
			"bufferView":2,
			"componentType":5126,
			"count":991,
			"type":"VEC2"
		},
		{
			"bufferView":3,
			"componentType":5123,
			"count":4752,
			"type":"SCALAR"
		},
		{
			"bufferView":4,
			"componentType":5126,
			"count":991,
			"max":[
				-3.432774066925049,
				21.81905174255371,
				-60.89809036254883
			],
			"min":[
				-17.633577346801758,
				18.622493743896484,
				-72.53816223144531
			],
			"type":"VEC3"
		},
		{
			"bufferView":5,
			"componentType":5126,
			"count":991,
			"type":"VEC3"
		},
		{
			"bufferView":6,
			"componentType":5126,
			"count":991,
			"type":"VEC2"
		},
		{
			"bufferView":7,
			"componentType":5123,
			"count":4752,
			"type":"SCALAR"
		},
		{
			"bufferView":8,
			"componentType":5126,
			"count":1053,
			"max":[
				-8.112218856811523,
				18.108844757080078,
				-62.103538513183594
			],
			"min":[
				-14.045495986938477,
				17.254804611206055,
				-68.03681182861328
			],
			"type":"VEC3"
		},
		{
			"bufferView":9,
			"componentType":5126,
			"count":1053,
			"type":"VEC3"
		},
		{
			"bufferView":10,
			"componentType":5126,
			"count":1053,
			"type":"VEC2"
		},
		{
			"bufferView":11,
			"componentType":5123,
			"count":4008,
			"type":"SCALAR"
		},
		{
			"bufferView":12,
			"componentType":5126,
			"count":1046,
			"max":[
				-3.598599433898926,
				18.577354431152344,
				-60.175167083740234
			],
			"min":[
				-17.763076782226562,
				17.25176429748535,
				-72.36463928222656
			],
			"type":"VEC3"
		},
		{
			"bufferView":13,
			"componentType":5126,
			"count":1046,
			"type":"VEC3"
		},
		{
			"bufferView":14,
			"componentType":5126,
			"count":1046,
			"type":"VEC2"
		},
		{
			"bufferView":15,
			"componentType":5123,
			"count":2640,
			"type":"SCALAR"
		},
		{
			"bufferView":16,
			"componentType":5126,
			"count":864,
			"max":[
				-8.91689682006836,
				22.00013542175293,
				-62.66259765625
			],
			"min":[
				-13.254289627075195,
				19.017864227294922,
				-67.44135284423828
			],
			"type":"VEC3"
		},
		{
			"bufferView":17,
			"componentType":5126,
			"count":864,
			"type":"VEC3"
		},
		{
			"bufferView":18,
			"componentType":5126,
			"count":864,
			"type":"VEC2"
		},
		{
			"bufferView":19,
			"componentType":5123,
			"count":2304,
			"type":"SCALAR"
		},
		{
			"bufferView":20,
			"componentType":5126,
			"count":5716,
			"max":[
				-3.4869441986083984,
				18.577356338500977,
				-60.1632080078125
			],
			"min":[
				-17.767776489257812,
				17.251005172729492,
				-72.47726440429688
			],
			"type":"VEC3"
		},
		{
			"bufferView":21,
			"componentType":5126,
			"count":5716,
			"type":"VEC3"
		},
		{
			"bufferView":22,
			"componentType":5126,
			"count":5716,
			"type":"VEC2"
		},
		{
			"bufferView":23,
			"componentType":5123,
			"count":15456,
			"type":"SCALAR"
		},
		{
			"bufferView":24,
			"componentType":5126,
			"count":64,
			"max":[
				-3.6152291297912598,
				18.97190284729004,
				-60.04756546020508
			],
			"min":[
				-17.928926467895508,
				18.203208923339844,
				-72.4301528930664
			],
			"type":"VEC3"
		},
		{
			"bufferView":25,
			"componentType":5126,
			"count":64,
			"type":"VEC3"
		},
		{
			"bufferView":26,
			"componentType":5126,
			"count":64,
			"type":"VEC2"
		},
		{
			"bufferView":27,
			"componentType":5123,
			"count":96,
			"type":"SCALAR"
		},
		{
			"bufferView":28,
			"componentType":5126,
			"count":136,
			"max":[
				-3.4422783851623535,
				18.749629974365234,
				-60.91368103027344
			],
			"min":[
				-17.61946678161621,
				18.346349716186523,
				-72.52104187011719
			],
			"type":"VEC3"
		},
		{
			"bufferView":29,
			"componentType":5126,
			"count":136,
			"type":"VEC3"
		},
		{
			"bufferView":30,
			"componentType":5126,
			"count":136,
			"type":"VEC2"
		},
		{
			"bufferView":31,
			"componentType":5123,
			"count":384,
			"type":"SCALAR"
		},
		{
			"bufferView":32,
			"componentType":5126,
			"count":726,
			"max":[
				-3.484457015991211,
				22.025009155273438,
				-60.17304229736328
			],
			"min":[
				-17.718698501586914,
				17.238807678222656,
				-72.47516632080078
			],
			"type":"VEC3"
		},
		{
			"bufferView":33,
			"componentType":5126,
			"count":726,
			"type":"VEC3"
		},
		{
			"bufferView":34,
			"componentType":5126,
			"count":726,
			"type":"VEC2"
		},
		{
			"bufferView":35,
			"componentType":5123,
			"count":3156,
			"type":"SCALAR"
		}
	],
	"bufferViews":[
		{
			"buffer":0,
			"byteLength":11892,
			"byteOffset":0,
			"target":34962
		},
		{
			"buffer":0,
			"byteLength":11892,
			"byteOffset":11892,
			"target":34962
		},
		{
			"buffer":0,
			"byteLength":7928,
			"byteOffset":23784,
			"target":34962
		},
		{
			"buffer":0,
			"byteLength":9504,
			"byteOffset":31712,
			"target":34963
		},
		{
			"buffer":0,
			"byteLength":11892,
			"byteOffset":41216,
			"target":34962
		},
		{
			"buffer":0,
			"byteLength":11892,
			"byteOffset":53108,
			"target":34962
		},
		{
			"buffer":0,
			"byteLength":7928,
			"byteOffset":65000,
			"target":34962
		},
		{
			"buffer":0,
			"byteLength":9504,
			"byteOffset":72928,
			"target":34963
		},
		{
			"buffer":0,
			"byteLength":12636,
			"byteOffset":82432,
			"target":34962
		},
		{
			"buffer":0,
			"byteLength":12636,
			"byteOffset":95068,
			"target":34962
		},
		{
			"buffer":0,
			"byteLength":8424,
			"byteOffset":107704,
			"target":34962
		},
		{
			"buffer":0,
			"byteLength":8016,
			"byteOffset":116128,
			"target":34963
		},
		{
			"buffer":0,
			"byteLength":12552,
			"byteOffset":124144,
			"target":34962
		},
		{
			"buffer":0,
			"byteLength":12552,
			"byteOffset":136696,
			"target":34962
		},
		{
			"buffer":0,
			"byteLength":8368,
			"byteOffset":149248,
			"target":34962
		},
		{
			"buffer":0,
			"byteLength":5280,
			"byteOffset":157616,
			"target":34963
		},
		{
			"buffer":0,
			"byteLength":10368,
			"byteOffset":162896,
			"target":34962
		},
		{
			"buffer":0,
			"byteLength":10368,
			"byteOffset":173264,
			"target":34962
		},
		{
			"buffer":0,
			"byteLength":6912,
			"byteOffset":183632,
			"target":34962
		},
		{
			"buffer":0,
			"byteLength":4608,
			"byteOffset":190544,
			"target":34963
		},
		{
			"buffer":0,
			"byteLength":68592,
			"byteOffset":195152,
			"target":34962
		},
		{
			"buffer":0,
			"byteLength":68592,
			"byteOffset":263744,
			"target":34962
		},
		{
			"buffer":0,
			"byteLength":45728,
			"byteOffset":332336,
			"target":34962
		},
		{
			"buffer":0,
			"byteLength":30912,
			"byteOffset":378064,
			"target":34963
		},
		{
			"buffer":0,
			"byteLength":768,
			"byteOffset":408976,
			"target":34962
		},
		{
			"buffer":0,
			"byteLength":768,
			"byteOffset":409744,
			"target":34962
		},
		{
			"buffer":0,
			"byteLength":512,
			"byteOffset":410512,
			"target":34962
		},
		{
			"buffer":0,
			"byteLength":192,
			"byteOffset":411024,
			"target":34963
		},
		{
			"buffer":0,
			"byteLength":1632,
			"byteOffset":411216,
			"target":34962
		},
		{
			"buffer":0,
			"byteLength":1632,
			"byteOffset":412848,
			"target":34962
		},
		{
			"buffer":0,
			"byteLength":1088,
			"byteOffset":414480,
			"target":34962
		},
		{
			"buffer":0,
			"byteLength":768,
			"byteOffset":415568,
			"target":34963
		},
		{
			"buffer":0,
			"byteLength":8712,
			"byteOffset":416336,
			"target":34962
		},
		{
			"buffer":0,
			"byteLength":8712,
			"byteOffset":425048,
			"target":34962
		},
		{
			"buffer":0,
			"byteLength":5808,
			"byteOffset":433760,
			"target":34962
		},
		{
			"buffer":0,
			"byteLength":6312,
			"byteOffset":439568,
			"target":34963
		}
	],
	"samplers":[
		{
			"magFilter":9729,
			"minFilter":9987
		}
	],
	"buffers":[
		{
			"byteLength":445880,
			"uri":"obj_globe.bin"
		}
	]
}
