{
	"asset":{
		"generator":"Khronos glTF Blender I/O v4.3.47",
		"version":"2.0"
	},
	"extensionsUsed":[
		"KHR_materials_clearcoat",
		"KHR_materials_specular"
	],
	"scene":0,
	"scenes":[
		{
			"name":"Scene",
			"nodes":[
				0,
				1
			]
		}
	],
	"nodes":[
		{
			"mesh":0,
			"name":"obj_plant"
		},
		{
			"mesh":1,
			"name":"obj_plant_collider"
		}
	],
	"materials":[
		{
			"doubleSided":true,
			"emissiveFactor":[
				1,
				1,
				1
			],
			"emissiveTexture":{
				"index":0
			},
			"extensions":{
				"KHR_materials_specular":{
					"specularFactor":0
				}
			},
			"name":"obj_plants01",
			"pbrMetallicRoughness":{
				"baseColorTexture":{
					"index":1
				},
				"metallicFactor":0
			}
		},
		{
			"doubleSided":true,
			"emissiveFactor":[
				0.10000000149011612,
				0.10000000149011612,
				0.10000000149011612
			],
			"emissiveTexture":{
				"index":2
			},
			"extensions":{
				"KHR_materials_clearcoat":{
					"clearcoatRoughnessFactor":0
				},
				"KHR_materials_specular":{
					"specularFactor":0
				}
			},
			"name":"obj_plants02",
			"pbrMetallicRoughness":{
				"baseColorTexture":{
					"index":3
				},
				"metallicFactor":0
			}
		},
		{
			"alphaMode":"BLEND",
			"extensions":{
				"KHR_materials_specular":{
					"specularFactor":0
				}
			},
			"name":"obj_global_glass01",
			"pbrMetallicRoughness":{
				"baseColorFactor":[
					1,
					1,
					1,
					0.75
				],
				"baseColorTexture":{
					"index":4
				},
				"metallicFactor":0
			}
		},
		{
			"doubleSided":true,
			"emissiveFactor":[
				0.26229405403137207,
				0.5646868348121643,
				0.921515166759491
			],
			"extensions":{
				"KHR_materials_specular":{
					"specularFactor":0
				}
			},
			"name":"obj_global_emission01",
			"pbrMetallicRoughness":{
				"baseColorFactor":[
					0.2617267668247223,
					0.566400408744812,
					0.9218639135360718,
					1
				],
				"metallicFactor":0
			}
		}
	],
	"meshes":[
		{
			"name":"obj_plant",
			"primitives":[
				{
					"attributes":{
						"POSITION":0,
						"NORMAL":1,
						"TEXCOORD_0":2
					},
					"indices":3,
					"material":0
				},
				{
					"attributes":{
						"POSITION":4,
						"NORMAL":5,
						"TEXCOORD_0":6
					},
					"indices":7,
					"material":1
				},
				{
					"attributes":{
						"POSITION":8,
						"NORMAL":9,
						"TEXCOORD_0":10
					},
					"indices":11,
					"material":2
				},
				{
					"attributes":{
						"POSITION":12,
						"NORMAL":13,
						"TEXCOORD_0":14
					},
					"indices":15,
					"material":3
				}
			]
		},
		{
			"name":"obj_plant_collider",
			"primitives":[
				{
					"attributes":{
						"POSITION":16,
						"NORMAL":17,
						"TEXCOORD_0":18,
						"TEXCOORD_1":19
					},
					"indices":20
				}
			]
		}
	],
	"textures":[
		{
			"sampler":0,
			"source":0
		},
		{
			"sampler":0,
			"source":1
		},
		{
			"sampler":0,
			"source":2
		},
		{
			"sampler":0,
			"source":3
		},
		{
			"sampler":0,
			"source":4
		}
	],
	"images":[
		{
			"mimeType":"image/jpeg",
			"name":"obj_plants01_emission",
			"uri":"textures/obj_plants01_emission.jpg"
		},
		{
			"mimeType":"image/jpeg",
			"name":"obj_plants01",
			"uri":"textures/obj_plants01.jpg"
		},
		{
			"mimeType":"image/png",
			"name":"obj_plant",
			"uri":"textures/obj_plant.png"
		},
		{
			"mimeType":"image/png",
			"name":"obj_plants02",
			"uri":"textures/obj_plants02.png"
		},
		{
			"mimeType":"image/png",
			"name":"obj_global_glass01",
			"uri":"textures/obj_global_glass01.png"
		}
	],
	"accessors":[
		{
			"bufferView":0,
			"componentType":5126,
			"count":145954,
			"max":[
				65.8598861694336,
				22.509464263916016,
				65.18135070800781
			],
			"min":[
				-65.79702758789062,
				0.17779341340065002,
				-72.0090560913086
			],
			"type":"VEC3"
		},
		{
			"bufferView":1,
			"componentType":5126,
			"count":145954,
			"type":"VEC3"
		},
		{
			"bufferView":2,
			"componentType":5126,
			"count":145954,
			"type":"VEC2"
		},
		{
			"bufferView":3,
			"componentType":5125,
			"count":569064,
			"type":"SCALAR"
		},
		{
			"bufferView":4,
			"componentType":5126,
			"count":6834,
			"max":[
				-5.5827813148498535,
				1.9122037887573242,
				-6.767185211181641
			],
			"min":[
				-47.81901550292969,
				0.3079696297645569,
				-52.79566955566406
			],
			"type":"VEC3"
		},
		{
			"bufferView":5,
			"componentType":5126,
			"count":6834,
			"type":"VEC3"
		},
		{
			"bufferView":6,
			"componentType":5126,
			"count":6834,
			"type":"VEC2"
		},
		{
			"bufferView":7,
			"componentType":5123,
			"count":22470,
			"type":"SCALAR"
		},
		{
			"bufferView":8,
			"componentType":5126,
			"count":595,
			"max":[
				-5.727529525756836,
				1.5296485424041748,
				-6.800371170043945
			],
			"min":[
				-47.67168426513672,
				0.5620546936988831,
				-52.75132369995117
			],
			"type":"VEC3"
		},
		{
			"bufferView":9,
			"componentType":5126,
			"count":595,
			"type":"VEC3"
		},
		{
			"bufferView":10,
			"componentType":5126,
			"count":595,
			"type":"VEC2"
		},
		{
			"bufferView":11,
			"componentType":5123,
			"count":2016,
			"type":"SCALAR"
		},
		{
			"bufferView":12,
			"componentType":5126,
			"count":504,
			"max":[
				-5.702855110168457,
				1.5349178314208984,
				-6.775750160217285
			],
			"min":[
				-47.696266174316406,
				0.5534764528274536,
				-52.77592849731445
			],
			"type":"VEC3"
		},
		{
			"bufferView":13,
			"componentType":5126,
			"count":504,
			"type":"VEC3"
		},
		{
			"bufferView":14,
			"componentType":5126,
			"count":504,
			"type":"VEC2"
		},
		{
			"bufferView":15,
			"componentType":5123,
			"count":1428,
			"type":"SCALAR"
		},
		{
			"bufferView":16,
			"componentType":5126,
			"count":3592,
			"max":[
				65.7644271850586,
				21.556276321411133,
				65.07171630859375
			],
			"min":[
				-65.76786804199219,
				0.16097991168498993,
				-71.8861083984375
			],
			"type":"VEC3"
		},
		{
			"bufferView":17,
			"componentType":5126,
			"count":3592,
			"type":"VEC3"
		},
		{
			"bufferView":18,
			"componentType":5126,
			"count":3592,
			"type":"VEC2"
		},
		{
			"bufferView":19,
			"componentType":5126,
			"count":3592,
			"type":"VEC2"
		},
		{
			"bufferView":20,
			"componentType":5123,
			"count":6720,
			"type":"SCALAR"
		}
	],
	"bufferViews":[
		{
			"buffer":0,
			"byteLength":1751448,
			"byteOffset":0,
			"target":34962
		},
		{
			"buffer":0,
			"byteLength":1751448,
			"byteOffset":1751448,
			"target":34962
		},
		{
			"buffer":0,
			"byteLength":1167632,
			"byteOffset":3502896,
			"target":34962
		},
		{
			"buffer":0,
			"byteLength":2276256,
			"byteOffset":4670528,
			"target":34963
		},
		{
			"buffer":0,
			"byteLength":82008,
			"byteOffset":6946784,
			"target":34962
		},
		{
			"buffer":0,
			"byteLength":82008,
			"byteOffset":7028792,
			"target":34962
		},
		{
			"buffer":0,
			"byteLength":54672,
			"byteOffset":7110800,
			"target":34962
		},
		{
			"buffer":0,
			"byteLength":44940,
			"byteOffset":7165472,
			"target":34963
		},
		{
			"buffer":0,
			"byteLength":7140,
			"byteOffset":7210412,
			"target":34962
		},
		{
			"buffer":0,
			"byteLength":7140,
			"byteOffset":7217552,
			"target":34962
		},
		{
			"buffer":0,
			"byteLength":4760,
			"byteOffset":7224692,
			"target":34962
		},
		{
			"buffer":0,
			"byteLength":4032,
			"byteOffset":7229452,
			"target":34963
		},
		{
			"buffer":0,
			"byteLength":6048,
			"byteOffset":7233484,
			"target":34962
		},
		{
			"buffer":0,
			"byteLength":6048,
			"byteOffset":7239532,
			"target":34962
		},
		{
			"buffer":0,
			"byteLength":4032,
			"byteOffset":7245580,
			"target":34962
		},
		{
			"buffer":0,
			"byteLength":2856,
			"byteOffset":7249612,
			"target":34963
		},
		{
			"buffer":0,
			"byteLength":43104,
			"byteOffset":7252468,
			"target":34962
		},
		{
			"buffer":0,
			"byteLength":43104,
			"byteOffset":7295572,
			"target":34962
		},
		{
			"buffer":0,
			"byteLength":28736,
			"byteOffset":7338676,
			"target":34962
		},
		{
			"buffer":0,
			"byteLength":28736,
			"byteOffset":7367412,
			"target":34962
		},
		{
			"buffer":0,
			"byteLength":13440,
			"byteOffset":7396148,
			"target":34963
		}
	],
	"samplers":[
		{
			"magFilter":9729,
			"minFilter":9987
		}
	],
	"buffers":[
		{
			"byteLength":7409588,
			"uri":"obj_plant.bin"
		}
	]
}
