{
	"asset":{
		"generator":"Khronos glTF Blender I/O v4.1.63",
		"version":"2.0"
	},
	"extensionsUsed":[
		"KHR_materials_specular",
		"KHR_materials_ior"
	],
	"scene":0,
	"scenes":[
		{
			"name":"Scene",
			"nodes":[
				0,
				1
			]
		}
	],
	"nodes":[
		{
			"mesh":0,
			"name":"obj_fence06"
		},
		{
			"mesh":1,
			"name":"obj_fence06_collider"
		}
	],
	"materials":[
		{
			"emissiveFactor":[
				1,
				1,
				1
			],
			"emissiveTexture":{
				"index":0
			},
			"extensions":{
				"KHR_materials_specular":{
					"specularFactor":0
				},
				"KHR_materials_ior":{
					"ior":1.4500000476837158
				}
			},
			"name":"obj_fence03_01",
			"pbrMetallicRoughness":{
				"baseColorTexture":{
					"index":1
				},
				"metallicFactor":0
			}
		},
		{
			"alphaMode":"BLEND",
			"doubleSided":true,
			"emissiveFactor":[
				1,
				1,
				1
			],
			"emissiveTexture":{
				"index":2
			},
			"extensions":{
				"KHR_materials_specular":{
					"specularFactor":0
				},
				"KHR_materials_ior":{
					"ior":1.4500000476837158
				}
			},
			"name":"obj_fence03_02",
			"pbrMetallicRoughness":{
				"baseColorTexture":{
					"index":3
				},
				"metallicFactor":0
			}
		}
	],
	"meshes":[
		{
			"name":"Mesh.001",
			"primitives":[
				{
					"attributes":{
						"POSITION":0,
						"NORMAL":1,
						"TEXCOORD_0":2
					},
					"indices":3,
					"material":0
				},
				{
					"attributes":{
						"POSITION":4,
						"NORMAL":5,
						"TEXCOORD_0":6
					},
					"indices":7,
					"material":1
				}
			]
		},
		{
			"name":"Cube",
			"primitives":[
				{
					"attributes":{
						"POSITION":8,
						"NORMAL":9,
						"TEXCOORD_0":10
					},
					"indices":11
				}
			]
		}
	],
	"textures":[
		{
			"sampler":0,
			"source":0
		},
		{
			"sampler":1,
			"source":1
		},
		{
			"sampler":0,
			"source":2
		},
		{
			"sampler":0,
			"source":3
		}
	],
	"images":[
		{
			"mimeType":"image/png",
			"name":"obj_fence03_01_emission",
			"uri":"textures/obj_fence03_01_emission.png"
		},
		{
			"mimeType":"image/png",
			"name":"obj_fence03_01",
			"uri":"textures/obj_fence03_01.png"
		},
		{
			"mimeType":"image/png",
			"name":"obj_fence03_02_emission",
			"uri":"textures/obj_fence03_02_emission.png"
		},
		{
			"mimeType":"image/png",
			"name":"obj_fence03_02",
			"uri":"textures/obj_fence03_02.png"
		}
	],
	"accessors":[
		{
			"bufferView":0,
			"componentType":5126,
			"count":17344,
			"max":[
				16.179832458496094,
				2.854835033416748,
				12.672381401062012
			],
			"min":[
				-16.181739807128906,
				0.7658743858337402,
				-16.187576293945312
			],
			"type":"VEC3"
		},
		{
			"bufferView":1,
			"componentType":5126,
			"count":17344,
			"type":"VEC3"
		},
		{
			"bufferView":2,
			"componentType":5126,
			"count":17344,
			"type":"VEC2"
		},
		{
			"bufferView":3,
			"componentType":5123,
			"count":37248,
			"type":"SCALAR"
		},
		{
			"bufferView":4,
			"componentType":5126,
			"count":1216,
			"max":[
				15.877426147460938,
				2.8235716819763184,
				12.400609970092773
			],
			"min":[
				-15.875717163085938,
				1.4153348207473755,
				-15.864618301391602
			],
			"type":"VEC3"
		},
		{
			"bufferView":5,
			"componentType":5126,
			"count":1216,
			"type":"VEC3"
		},
		{
			"bufferView":6,
			"componentType":5126,
			"count":1216,
			"type":"VEC2"
		},
		{
			"bufferView":7,
			"componentType":5123,
			"count":3456,
			"type":"SCALAR"
		},
		{
			"bufferView":8,
			"componentType":5126,
			"count":1164,
			"max":[
				16.177101135253906,
				2.8562867641448975,
				12.723017692565918
			],
			"min":[
				-16.179174423217773,
				0.7664452195167542,
				-16.166492462158203
			],
			"type":"VEC3"
		},
		{
			"bufferView":9,
			"componentType":5126,
			"count":1164,
			"type":"VEC3"
		},
		{
			"bufferView":10,
			"componentType":5126,
			"count":1164,
			"type":"VEC2"
		},
		{
			"bufferView":11,
			"componentType":5123,
			"count":1758,
			"type":"SCALAR"
		}
	],
	"bufferViews":[
		{
			"buffer":0,
			"byteLength":208128,
			"byteOffset":0,
			"target":34962
		},
		{
			"buffer":0,
			"byteLength":208128,
			"byteOffset":208128,
			"target":34962
		},
		{
			"buffer":0,
			"byteLength":138752,
			"byteOffset":416256,
			"target":34962
		},
		{
			"buffer":0,
			"byteLength":74496,
			"byteOffset":555008,
			"target":34963
		},
		{
			"buffer":0,
			"byteLength":14592,
			"byteOffset":629504,
			"target":34962
		},
		{
			"buffer":0,
			"byteLength":14592,
			"byteOffset":644096,
			"target":34962
		},
		{
			"buffer":0,
			"byteLength":9728,
			"byteOffset":658688,
			"target":34962
		},
		{
			"buffer":0,
			"byteLength":6912,
			"byteOffset":668416,
			"target":34963
		},
		{
			"buffer":0,
			"byteLength":13968,
			"byteOffset":675328,
			"target":34962
		},
		{
			"buffer":0,
			"byteLength":13968,
			"byteOffset":689296,
			"target":34962
		},
		{
			"buffer":0,
			"byteLength":9312,
			"byteOffset":703264,
			"target":34962
		},
		{
			"buffer":0,
			"byteLength":3516,
			"byteOffset":712576,
			"target":34963
		}
	],
	"samplers":[
		{
			"magFilter":9729,
			"minFilter":9987
		},
		{
			"magFilter":9729,
			"minFilter":9987,
			"wrapS":33071,
			"wrapT":33071
		}
	],
	"buffers":[
		{
			"byteLength":716092,
			"uri":"obj_fence06.bin"
		}
	]
}
