{
	"asset":{
		"generator":"Khronos glTF Blender I/O v4.1.63",
		"version":"2.0"
	},
	"extensionsUsed":[
		"KHR_materials_specular",
		"KHR_materials_ior"
	],
	"scene":0,
	"scenes":[
		{
			"name":"Scene",
			"nodes":[
				0,
				1
			]
		}
	],
	"nodes":[
		{
			"mesh":0,
			"name":"obj_mstairs"
		},
		{
			"mesh":1,
			"name":"obj_mstairs_collider"
		}
	],
	"materials":[
		{
			"emissiveFactor":[
				1,
				1,
				1
			],
			"emissiveTexture":{
				"index":0
			},
			"extensions":{
				"KHR_materials_specular":{
					"specularFactor":0
				},
				"KHR_materials_ior":{
					"ior":1.4500000476837158
				}
			},
			"name":"obj_stairs01",
			"pbrMetallicRoughness":{
				"baseColorTexture":{
					"index":1
				},
				"metallicFactor":0
			}
		},
		{
			"emissiveFactor":[
				1,
				1,
				1
			],
			"emissiveTexture":{
				"index":2
			},
			"extensions":{
				"KHR_materials_specular":{
					"specularFactor":0
				},
				"KHR_materials_ior":{
					"ior":1.4500000476837158
				}
			},
			"name":"obj_stairs03",
			"pbrMetallicRoughness":{
				"baseColorTexture":{
					"index":3
				},
				"metallicFactor":0
			}
		},
		{
			"emissiveFactor":[
				1,
				1,
				1
			],
			"emissiveTexture":{
				"index":4
			},
			"extensions":{
				"KHR_materials_specular":{
					"specularFactor":0
				},
				"KHR_materials_ior":{
					"ior":1.4500000476837158
				}
			},
			"name":"obj_stairs02",
			"pbrMetallicRoughness":{
				"baseColorTexture":{
					"index":5
				},
				"metallicFactor":0
			}
		},
		{
			"emissiveFactor":[
				1,
				1,
				1
			],
			"emissiveTexture":{
				"index":6
			},
			"extensions":{
				"KHR_materials_specular":{
					"specularFactor":0
				},
				"KHR_materials_ior":{
					"ior":1.4500000476837158
				}
			},
			"name":"obj_stairs04",
			"pbrMetallicRoughness":{
				"baseColorTexture":{
					"index":7
				},
				"metallicFactor":0
			}
		}
	],
	"meshes":[
		{
			"name":"Mesh.127",
			"primitives":[
				{
					"attributes":{
						"POSITION":0,
						"NORMAL":1,
						"TEXCOORD_0":2
					},
					"indices":3,
					"material":0
				},
				{
					"attributes":{
						"POSITION":4,
						"NORMAL":5,
						"TEXCOORD_0":6
					},
					"indices":7,
					"material":1
				},
				{
					"attributes":{
						"POSITION":8,
						"NORMAL":9,
						"TEXCOORD_0":10
					},
					"indices":11,
					"material":2
				},
				{
					"attributes":{
						"POSITION":12,
						"NORMAL":13,
						"TEXCOORD_0":14
					},
					"indices":15,
					"material":3
				}
			]
		},
		{
			"name":"Mesh.003",
			"primitives":[
				{
					"attributes":{
						"POSITION":16,
						"NORMAL":17,
						"TEXCOORD_0":18
					},
					"indices":19
				}
			]
		}
	],
	"textures":[
		{
			"sampler":0,
			"source":0
		},
		{
			"sampler":0,
			"source":1
		},
		{
			"sampler":0,
			"source":2
		},
		{
			"sampler":0,
			"source":3
		},
		{
			"sampler":0,
			"source":4
		},
		{
			"sampler":0,
			"source":5
		},
		{
			"sampler":0,
			"source":6
		},
		{
			"sampler":0,
			"source":7
		}
	],
	"images":[
		{
			"mimeType":"image/png",
			"name":"obj_stairs01_emission",
			"uri":"textures/obj_stairs01_emission.png"
		},
		{
			"mimeType":"image/png",
			"name":"obj_stairs01",
			"uri":"textures/obj_stairs01.png"
		},
		{
			"mimeType":"image/png",
			"name":"obj_stairs03_emission",
			"uri":"textures/obj_stairs03_emission.png"
		},
		{
			"mimeType":"image/png",
			"name":"obj_stairs03",
			"uri":"textures/obj_stairs03.png"
		},
		{
			"mimeType":"image/png",
			"name":"obj_stairs02_emission",
			"uri":"textures/obj_stairs02_emission.png"
		},
		{
			"mimeType":"image/png",
			"name":"obj_stairs02",
			"uri":"textures/obj_stairs02.png"
		},
		{
			"mimeType":"image/png",
			"name":"obj_stairs04_emisssion",
			"uri":"textures/obj_stairs04_emisssion.png"
		},
		{
			"mimeType":"image/png",
			"name":"obj_stairs04",
			"uri":"textures/obj_stairs04.png"
		}
	],
	"accessors":[
		{
			"bufferView":0,
			"componentType":5126,
			"count":239,
			"max":[
				11.80074405670166,
				0.666622519493103,
				4.478941917419434
			],
			"min":[
				-11.800743103027344,
				-0.20058824121952057,
				-11.816075325012207
			],
			"type":"VEC3"
		},
		{
			"bufferView":1,
			"componentType":5126,
			"count":239,
			"type":"VEC3"
		},
		{
			"bufferView":2,
			"componentType":5126,
			"count":239,
			"type":"VEC2"
		},
		{
			"bufferView":3,
			"componentType":5123,
			"count":606,
			"type":"SCALAR"
		},
		{
			"bufferView":4,
			"componentType":5126,
			"count":166,
			"max":[
				17.31291389465332,
				0.6509777307510376,
				1.3878722190856934
			],
			"min":[
				-17.312911987304688,
				0.0005670576938427985,
				-17.325199127197266
			],
			"type":"VEC3"
		},
		{
			"bufferView":5,
			"componentType":5126,
			"count":166,
			"type":"VEC3"
		},
		{
			"bufferView":6,
			"componentType":5126,
			"count":166,
			"type":"VEC2"
		},
		{
			"bufferView":7,
			"componentType":5123,
			"count":360,
			"type":"SCALAR"
		},
		{
			"bufferView":8,
			"componentType":5126,
			"count":85,
			"max":[
				14.364957809448242,
				0.6509774327278137,
				1.1338953971862793
			],
			"min":[
				-14.36495590209961,
				0.0005669436068274081,
				-14.37887191772461
			],
			"type":"VEC3"
		},
		{
			"bufferView":9,
			"componentType":5126,
			"count":85,
			"type":"VEC3"
		},
		{
			"bufferView":10,
			"componentType":5126,
			"count":85,
			"type":"VEC2"
		},
		{
			"bufferView":11,
			"componentType":5123,
			"count":186,
			"type":"SCALAR"
		},
		{
			"bufferView":12,
			"componentType":5126,
			"count":48,
			"max":[
				17.3083438873291,
				0.4341745376586914,
				6.645604133605957
			],
			"min":[
				-17.30834197998047,
				0.0005383800598792732,
				0.9266467094421387
			],
			"type":"VEC3"
		},
		{
			"bufferView":13,
			"componentType":5126,
			"count":48,
			"type":"VEC3"
		},
		{
			"bufferView":14,
			"componentType":5126,
			"count":48,
			"type":"VEC2"
		},
		{
			"bufferView":15,
			"componentType":5123,
			"count":72,
			"type":"SCALAR"
		},
		{
			"bufferView":16,
			"componentType":5126,
			"count":538,
			"max":[
				17.31291389465332,
				0.666622519493103,
				6.645604133605957
			],
			"min":[
				-17.312911987304688,
				-0.20058824121952057,
				-17.325199127197266
			],
			"type":"VEC3"
		},
		{
			"bufferView":17,
			"componentType":5126,
			"count":538,
			"type":"VEC3"
		},
		{
			"bufferView":18,
			"componentType":5126,
			"count":538,
			"type":"VEC2"
		},
		{
			"bufferView":19,
			"componentType":5123,
			"count":1224,
			"type":"SCALAR"
		}
	],
	"bufferViews":[
		{
			"buffer":0,
			"byteLength":2868,
			"byteOffset":0,
			"target":34962
		},
		{
			"buffer":0,
			"byteLength":2868,
			"byteOffset":2868,
			"target":34962
		},
		{
			"buffer":0,
			"byteLength":1912,
			"byteOffset":5736,
			"target":34962
		},
		{
			"buffer":0,
			"byteLength":1212,
			"byteOffset":7648,
			"target":34963
		},
		{
			"buffer":0,
			"byteLength":1992,
			"byteOffset":8860,
			"target":34962
		},
		{
			"buffer":0,
			"byteLength":1992,
			"byteOffset":10852,
			"target":34962
		},
		{
			"buffer":0,
			"byteLength":1328,
			"byteOffset":12844,
			"target":34962
		},
		{
			"buffer":0,
			"byteLength":720,
			"byteOffset":14172,
			"target":34963
		},
		{
			"buffer":0,
			"byteLength":1020,
			"byteOffset":14892,
			"target":34962
		},
		{
			"buffer":0,
			"byteLength":1020,
			"byteOffset":15912,
			"target":34962
		},
		{
			"buffer":0,
			"byteLength":680,
			"byteOffset":16932,
			"target":34962
		},
		{
			"buffer":0,
			"byteLength":372,
			"byteOffset":17612,
			"target":34963
		},
		{
			"buffer":0,
			"byteLength":576,
			"byteOffset":17984,
			"target":34962
		},
		{
			"buffer":0,
			"byteLength":576,
			"byteOffset":18560,
			"target":34962
		},
		{
			"buffer":0,
			"byteLength":384,
			"byteOffset":19136,
			"target":34962
		},
		{
			"buffer":0,
			"byteLength":144,
			"byteOffset":19520,
			"target":34963
		},
		{
			"buffer":0,
			"byteLength":6456,
			"byteOffset":19664,
			"target":34962
		},
		{
			"buffer":0,
			"byteLength":6456,
			"byteOffset":26120,
			"target":34962
		},
		{
			"buffer":0,
			"byteLength":4304,
			"byteOffset":32576,
			"target":34962
		},
		{
			"buffer":0,
			"byteLength":2448,
			"byteOffset":36880,
			"target":34963
		}
	],
	"samplers":[
		{
			"magFilter":9729,
			"minFilter":9987
		}
	],
	"buffers":[
		{
			"byteLength":39328,
			"uri":"obj_mstairs.bin"
		}
	]
}
