{
	"asset":{
		"generator":"Khronos glTF Blender I/O v4.3.47",
		"version":"2.0"
	},
	"extensionsUsed":[
		"KHR_materials_specular"
	],
	"scene":0,
	"scenes":[
		{
			"name":"Scene",
			"nodes":[
				0,
				1
			]
		}
	],
	"nodes":[
		{
			"mesh":0,
			"name":"obj_bridge"
		},
		{
			"mesh":1,
			"name":"obj_bridge_collider"
		}
	],
	"materials":[
		{
			"emissiveFactor":[
				1,
				1,
				1
			],
			"emissiveTexture":{
				"index":0
			},
			"extensions":{
				"KHR_materials_specular":{
					"specularFactor":0
				}
			},
			"name":"obj_bridge",
			"pbrMetallicRoughness":{
				"baseColorTexture":{
					"index":1
				},
				"metallicFactor":0
			}
		}
	],
	"meshes":[
		{
			"name":"obj_bridge",
			"primitives":[
				{
					"attributes":{
						"POSITION":0,
						"NORMAL":1,
						"TEXCOORD_0":2
					},
					"indices":3,
					"material":0
				}
			]
		},
		{
			"name":"obj_bridge_collider",
			"primitives":[
				{
					"attributes":{
						"POSITION":4,
						"NORMAL":5,
						"TEXCOORD_0":6
					},
					"indices":7
				}
			]
		}
	],
	"textures":[
		{
			"sampler":0,
			"source":0
		},
		{
			"sampler":0,
			"source":1
		}
	],
	"images":[
		{
			"mimeType":"image/png",
			"name":"obj_bridge_emission",
			"uri":"textures/obj_bridge_emission.png"
		},
		{
			"mimeType":"image/png",
			"name":"obj_bridge",
			"uri":"textures/obj_bridge.png"
		}
	],
	"accessors":[
		{
			"bufferView":0,
			"componentType":5126,
			"count":5578,
			"max":[
				33.07876205444336,
				2.264075994491577,
				34.65766906738281
			],
			"min":[
				17.847360610961914,
				0.30000001192092896,
				16.479270935058594
			],
			"type":"VEC3"
		},
		{
			"bufferView":1,
			"componentType":5126,
			"count":5578,
			"type":"VEC3"
		},
		{
			"bufferView":2,
			"componentType":5126,
			"count":5578,
			"type":"VEC2"
		},
		{
			"bufferView":3,
			"componentType":5123,
			"count":17388,
			"type":"SCALAR"
		},
		{
			"bufferView":4,
			"componentType":5126,
			"count":342,
			"max":[
				33.07876205444336,
				2.381274938583374,
				34.65766906738281
			],
			"min":[
				17.847360610961914,
				0.30036383867263794,
				16.479270935058594
			],
			"type":"VEC3"
		},
		{
			"bufferView":5,
			"componentType":5126,
			"count":342,
			"type":"VEC3"
		},
		{
			"bufferView":6,
			"componentType":5126,
			"count":342,
			"type":"VEC2"
		},
		{
			"bufferView":7,
			"componentType":5123,
			"count":1044,
			"type":"SCALAR"
		}
	],
	"bufferViews":[
		{
			"buffer":0,
			"byteLength":66936,
			"byteOffset":0,
			"target":34962
		},
		{
			"buffer":0,
			"byteLength":66936,
			"byteOffset":66936,
			"target":34962
		},
		{
			"buffer":0,
			"byteLength":44624,
			"byteOffset":133872,
			"target":34962
		},
		{
			"buffer":0,
			"byteLength":34776,
			"byteOffset":178496,
			"target":34963
		},
		{
			"buffer":0,
			"byteLength":4104,
			"byteOffset":213272,
			"target":34962
		},
		{
			"buffer":0,
			"byteLength":4104,
			"byteOffset":217376,
			"target":34962
		},
		{
			"buffer":0,
			"byteLength":2736,
			"byteOffset":221480,
			"target":34962
		},
		{
			"buffer":0,
			"byteLength":2088,
			"byteOffset":224216,
			"target":34963
		}
	],
	"samplers":[
		{
			"magFilter":9729,
			"minFilter":9987
		}
	],
	"buffers":[
		{
			"byteLength":226304,
			"uri":"obj_bridge.bin"
		}
	]
}
