{
	"asset":{
		"generator":"Khronos glTF Blender I/O v4.1.63",
		"version":"2.0"
	},
	"extensionsUsed":[
		"KHR_materials_specular",
		"KHR_materials_ior"
	],
	"scene":0,
	"scenes":[
		{
			"name":"Scene",
			"nodes":[
				0,
				1
			]
		}
	],
	"nodes":[
		{
			"mesh":0,
			"name":"obj_hand02"
		},
		{
			"mesh":1,
			"name":"obj_hand02_collider"
		}
	],
	"materials":[
		{
			"emissiveFactor":[
				0.10000000149011612,
				0.10000000149011612,
				0.10000000149011612
			],
			"emissiveTexture":{
				"index":0
			},
			"extensions":{
				"KHR_materials_specular":{
					"specularFactor":0
				},
				"KHR_materials_ior":{
					"ior":1.4500000476837158
				}
			},
			"name":"obj_hands",
			"pbrMetallicRoughness":{
				"baseColorTexture":{
					"index":1
				},
				"metallicFactor":0
			}
		},
		{
			"emissiveFactor":[
				0.26229405403137207,
				0.5646868348121643,
				0.921515166759491
			],
			"extensions":{
				"KHR_materials_specular":{
					"specularFactor":0
				},
				"KHR_materials_ior":{
					"ior":1.4500000476837158
				}
			},
			"name":"obj_global_emission01",
			"pbrMetallicRoughness":{
				"baseColorFactor":[
					0.2617267668247223,
					0.566400408744812,
					0.9218639135360718,
					1
				],
				"metallicFactor":0
			}
		},
		{
			"alphaMode":"BLEND",
			"doubleSided":true,
			"emissiveFactor":[
				0.5,
				0.5,
				0.5
			],
			"emissiveTexture":{
				"index":2
			},
			"extensions":{
				"KHR_materials_specular":{
					"specularFactor":0
				},
				"KHR_materials_ior":{
					"ior":1.4500000476837158
				}
			},
			"name":"obj_hands_screen",
			"pbrMetallicRoughness":{
				"baseColorFactor":[
					1,
					1,
					1,
					0.699999988079071
				],
				"baseColorTexture":{
					"index":3
				},
				"metallicFactor":0
			}
		}
	],
	"meshes":[
		{
			"name":"Plane.004",
			"primitives":[
				{
					"attributes":{
						"POSITION":0,
						"NORMAL":1,
						"TEXCOORD_0":2
					},
					"indices":3,
					"material":0
				},
				{
					"attributes":{
						"POSITION":4,
						"NORMAL":5,
						"TEXCOORD_0":6
					},
					"indices":7,
					"material":1
				},
				{
					"attributes":{
						"POSITION":8,
						"NORMAL":9,
						"TEXCOORD_0":10
					},
					"indices":11,
					"material":2
				}
			]
		},
		{
			"name":"Plane.005",
			"primitives":[
				{
					"attributes":{
						"POSITION":12,
						"NORMAL":13,
						"TEXCOORD_0":14
					},
					"indices":15
				}
			]
		}
	],
	"textures":[
		{
			"sampler":0,
			"source":0
		},
		{
			"sampler":0,
			"source":0
		},
		{
			"sampler":0,
			"source":0
		},
		{
			"sampler":0,
			"source":0
		}
	],
	"images":[
		{
			"mimeType":"image/png",
			"name":"obj_hands",
			"uri":"textures/obj_hands.png"
		}
	],
	"accessors":[
		{
			"bufferView":0,
			"componentType":5126,
			"count":669,
			"max":[
				0.18763187527656555,
				1.9841852188110352,
				1.8863197565078735
			],
			"min":[
				-0.18763187527656555,
				-0.0019941956270486116,
				-0.44030866026878357
			],
			"type":"VEC3"
		},
		{
			"bufferView":1,
			"componentType":5126,
			"count":669,
			"type":"VEC3"
		},
		{
			"bufferView":2,
			"componentType":5126,
			"count":669,
			"type":"VEC2"
		},
		{
			"bufferView":3,
			"componentType":5123,
			"count":1926,
			"type":"SCALAR"
		},
		{
			"bufferView":4,
			"componentType":5126,
			"count":266,
			"max":[
				0.18731628358364105,
				1.9838186502456665,
				1.9545063972473145
			],
			"min":[
				-0.18731628358364105,
				-0.0011820098152384162,
				-0.44030866026878357
			],
			"type":"VEC3"
		},
		{
			"bufferView":5,
			"componentType":5126,
			"count":266,
			"type":"VEC3"
		},
		{
			"bufferView":6,
			"componentType":5126,
			"count":266,
			"type":"VEC2"
		},
		{
			"bufferView":7,
			"componentType":5123,
			"count":768,
			"type":"SCALAR"
		},
		{
			"bufferView":8,
			"componentType":5126,
			"count":6,
			"max":[
				0.15991735458374023,
				0.5576604604721069,
				-0.30406805872917175
			],
			"min":[
				-0.15991735458374023,
				0.06234472617506981,
				-0.43051978945732117
			],
			"type":"VEC3"
		},
		{
			"bufferView":9,
			"componentType":5126,
			"count":6,
			"type":"VEC3"
		},
		{
			"bufferView":10,
			"componentType":5126,
			"count":6,
			"type":"VEC2"
		},
		{
			"bufferView":11,
			"componentType":5123,
			"count":12,
			"type":"SCALAR"
		},
		{
			"bufferView":12,
			"componentType":5126,
			"count":134,
			"max":[
				0.1925472915172577,
				1.9741098880767822,
				2.0402960777282715
			],
			"min":[
				-0.19305135309696198,
				5.35469357743068e-09,
				-0.44077539443969727
			],
			"type":"VEC3"
		},
		{
			"bufferView":13,
			"componentType":5126,
			"count":134,
			"type":"VEC3"
		},
		{
			"bufferView":14,
			"componentType":5126,
			"count":134,
			"type":"VEC2"
		},
		{
			"bufferView":15,
			"componentType":5123,
			"count":348,
			"type":"SCALAR"
		}
	],
	"bufferViews":[
		{
			"buffer":0,
			"byteLength":8028,
			"byteOffset":0,
			"target":34962
		},
		{
			"buffer":0,
			"byteLength":8028,
			"byteOffset":8028,
			"target":34962
		},
		{
			"buffer":0,
			"byteLength":5352,
			"byteOffset":16056,
			"target":34962
		},
		{
			"buffer":0,
			"byteLength":3852,
			"byteOffset":21408,
			"target":34963
		},
		{
			"buffer":0,
			"byteLength":3192,
			"byteOffset":25260,
			"target":34962
		},
		{
			"buffer":0,
			"byteLength":3192,
			"byteOffset":28452,
			"target":34962
		},
		{
			"buffer":0,
			"byteLength":2128,
			"byteOffset":31644,
			"target":34962
		},
		{
			"buffer":0,
			"byteLength":1536,
			"byteOffset":33772,
			"target":34963
		},
		{
			"buffer":0,
			"byteLength":72,
			"byteOffset":35308,
			"target":34962
		},
		{
			"buffer":0,
			"byteLength":72,
			"byteOffset":35380,
			"target":34962
		},
		{
			"buffer":0,
			"byteLength":48,
			"byteOffset":35452,
			"target":34962
		},
		{
			"buffer":0,
			"byteLength":24,
			"byteOffset":35500,
			"target":34963
		},
		{
			"buffer":0,
			"byteLength":1608,
			"byteOffset":35524,
			"target":34962
		},
		{
			"buffer":0,
			"byteLength":1608,
			"byteOffset":37132,
			"target":34962
		},
		{
			"buffer":0,
			"byteLength":1072,
			"byteOffset":38740,
			"target":34962
		},
		{
			"buffer":0,
			"byteLength":696,
			"byteOffset":39812,
			"target":34963
		}
	],
	"samplers":[
		{
			"magFilter":9729,
			"minFilter":9987
		}
	],
	"buffers":[
		{
			"byteLength":40508,
			"uri":"obj_hand02.bin"
		}
	]
}
