{
	"asset":{
		"generator":"Khronos glTF Blender I/O v4.1.63",
		"version":"2.0"
	},
	"extensionsUsed":[
		"KHR_materials_specular",
		"KHR_materials_ior"
	],
	"scene":0,
	"scenes":[
		{
			"name":"Scene",
			"nodes":[
				0,
				1
			]
		}
	],
	"nodes":[
		{
			"mesh":0,
			"name":"obj_lstairs"
		},
		{
			"mesh":1,
			"name":"obj_lstairs_collider"
		}
	],
	"materials":[
		{
			"emissiveFactor":[
				1,
				1,
				1
			],
			"emissiveTexture":{
				"index":0
			},
			"extensions":{
				"KHR_materials_specular":{
					"specularFactor":0
				},
				"KHR_materials_ior":{
					"ior":1.4500000476837158
				}
			},
			"name":"obj_stairs01",
			"pbrMetallicRoughness":{
				"baseColorTexture":{
					"index":1
				},
				"metallicFactor":0
			}
		},
		{
			"emissiveFactor":[
				1,
				1,
				1
			],
			"emissiveTexture":{
				"index":2
			},
			"extensions":{
				"KHR_materials_specular":{
					"specularFactor":0
				},
				"KHR_materials_ior":{
					"ior":1.4500000476837158
				}
			},
			"name":"obj_stairs03",
			"pbrMetallicRoughness":{
				"baseColorTexture":{
					"index":3
				},
				"metallicFactor":0
			}
		},
		{
			"emissiveFactor":[
				1,
				1,
				1
			],
			"emissiveTexture":{
				"index":4
			},
			"extensions":{
				"KHR_materials_specular":{
					"specularFactor":0
				},
				"KHR_materials_ior":{
					"ior":1.4500000476837158
				}
			},
			"name":"obj_stairs02",
			"pbrMetallicRoughness":{
				"baseColorTexture":{
					"index":5
				},
				"metallicFactor":0
			}
		},
		{
			"emissiveFactor":[
				1,
				1,
				1
			],
			"emissiveTexture":{
				"index":6
			},
			"extensions":{
				"KHR_materials_specular":{
					"specularFactor":0
				},
				"KHR_materials_ior":{
					"ior":1.4500000476837158
				}
			},
			"name":"obj_stairs04",
			"pbrMetallicRoughness":{
				"baseColorTexture":{
					"index":7
				},
				"metallicFactor":0
			}
		}
	],
	"meshes":[
		{
			"name":"Mesh.066",
			"primitives":[
				{
					"attributes":{
						"POSITION":0,
						"NORMAL":1,
						"TEXCOORD_0":2
					},
					"indices":3,
					"material":0
				},
				{
					"attributes":{
						"POSITION":4,
						"NORMAL":5,
						"TEXCOORD_0":6
					},
					"indices":7,
					"material":1
				},
				{
					"attributes":{
						"POSITION":8,
						"NORMAL":9,
						"TEXCOORD_0":10
					},
					"indices":11,
					"material":2
				},
				{
					"attributes":{
						"POSITION":12,
						"NORMAL":13,
						"TEXCOORD_0":14
					},
					"indices":15,
					"material":3
				}
			]
		},
		{
			"name":"Mesh.067",
			"primitives":[
				{
					"attributes":{
						"POSITION":16,
						"NORMAL":17,
						"TEXCOORD_0":18
					},
					"indices":19
				}
			]
		}
	],
	"textures":[
		{
			"sampler":0,
			"source":0
		},
		{
			"sampler":0,
			"source":1
		},
		{
			"sampler":0,
			"source":2
		},
		{
			"sampler":0,
			"source":3
		},
		{
			"sampler":0,
			"source":4
		},
		{
			"sampler":0,
			"source":5
		},
		{
			"sampler":0,
			"source":6
		},
		{
			"sampler":0,
			"source":7
		}
	],
	"images":[
		{
			"mimeType":"image/png",
			"name":"obj_stairs01_emission",
			"uri":"textures/obj_stairs01_emission.png"
		},
		{
			"mimeType":"image/png",
			"name":"obj_stairs01",
			"uri":"textures/obj_stairs01.png"
		},
		{
			"mimeType":"image/png",
			"name":"obj_stairs03_emission",
			"uri":"textures/obj_stairs03_emission.png"
		},
		{
			"mimeType":"image/png",
			"name":"obj_stairs03",
			"uri":"textures/obj_stairs03.png"
		},
		{
			"mimeType":"image/png",
			"name":"obj_stairs02_emission",
			"uri":"textures/obj_stairs02_emission.png"
		},
		{
			"mimeType":"image/png",
			"name":"obj_stairs02",
			"uri":"textures/obj_stairs02.png"
		},
		{
			"mimeType":"image/png",
			"name":"obj_stairs04_emisssion",
			"uri":"textures/obj_stairs04_emisssion.png"
		},
		{
			"mimeType":"image/png",
			"name":"obj_stairs04",
			"uri":"textures/obj_stairs04.png"
		}
	],
	"accessors":[
		{
			"bufferView":0,
			"componentType":5126,
			"count":290,
			"max":[
				6.425383567810059,
				0.5217884182929993,
				6.419694423675537
			],
			"min":[
				-6.425383567810059,
				0.0002911777119152248,
				-6.045318126678467
			],
			"type":"VEC3"
		},
		{
			"bufferView":1,
			"componentType":5126,
			"count":290,
			"type":"VEC3"
		},
		{
			"bufferView":2,
			"componentType":5126,
			"count":290,
			"type":"VEC2"
		},
		{
			"bufferView":3,
			"componentType":5123,
			"count":732,
			"type":"SCALAR"
		},
		{
			"bufferView":4,
			"componentType":5126,
			"count":214,
			"max":[
				11.624706268310547,
				0.4349346458911896,
				11.617733001708984
			],
			"min":[
				-11.624706268310547,
				0.0003784298896789551,
				-9.335176467895508
			],
			"type":"VEC3"
		},
		{
			"bufferView":5,
			"componentType":5126,
			"count":214,
			"type":"VEC3"
		},
		{
			"bufferView":6,
			"componentType":5126,
			"count":214,
			"type":"VEC2"
		},
		{
			"bufferView":7,
			"componentType":5123,
			"count":420,
			"type":"SCALAR"
		},
		{
			"bufferView":8,
			"componentType":5126,
			"count":294,
			"max":[
				9.650120735168457,
				0.43493446707725525,
				9.643121719360352
			],
			"min":[
				-9.650120735168457,
				0.00030548303038813174,
				-7.737909317016602
			],
			"type":"VEC3"
		},
		{
			"bufferView":9,
			"componentType":5126,
			"count":294,
			"type":"VEC3"
		},
		{
			"bufferView":10,
			"componentType":5126,
			"count":294,
			"type":"VEC2"
		},
		{
			"bufferView":11,
			"componentType":5123,
			"count":918,
			"type":"SCALAR"
		},
		{
			"bufferView":12,
			"componentType":5126,
			"count":72,
			"max":[
				6.8702545166015625,
				0.29008325934410095,
				9.374329566955566
			],
			"min":[
				-6.8702545166015625,
				0.0002915649674832821,
				-10.988519668579102
			],
			"type":"VEC3"
		},
		{
			"bufferView":13,
			"componentType":5126,
			"count":72,
			"type":"VEC3"
		},
		{
			"bufferView":14,
			"componentType":5126,
			"count":72,
			"type":"VEC2"
		},
		{
			"bufferView":15,
			"componentType":5123,
			"count":120,
			"type":"SCALAR"
		},
		{
			"bufferView":16,
			"componentType":5126,
			"count":921,
			"max":[
				11.624706268310547,
				0.5217884182929993,
				11.617733001708984
			],
			"min":[
				-11.624706268310547,
				0.0002911777119152248,
				-10.988519668579102
			],
			"type":"VEC3"
		},
		{
			"bufferView":17,
			"componentType":5126,
			"count":921,
			"type":"VEC3"
		},
		{
			"bufferView":18,
			"componentType":5126,
			"count":921,
			"type":"VEC2"
		},
		{
			"bufferView":19,
			"componentType":5123,
			"count":2442,
			"type":"SCALAR"
		}
	],
	"bufferViews":[
		{
			"buffer":0,
			"byteLength":3480,
			"byteOffset":0,
			"target":34962
		},
		{
			"buffer":0,
			"byteLength":3480,
			"byteOffset":3480,
			"target":34962
		},
		{
			"buffer":0,
			"byteLength":2320,
			"byteOffset":6960,
			"target":34962
		},
		{
			"buffer":0,
			"byteLength":1464,
			"byteOffset":9280,
			"target":34963
		},
		{
			"buffer":0,
			"byteLength":2568,
			"byteOffset":10744,
			"target":34962
		},
		{
			"buffer":0,
			"byteLength":2568,
			"byteOffset":13312,
			"target":34962
		},
		{
			"buffer":0,
			"byteLength":1712,
			"byteOffset":15880,
			"target":34962
		},
		{
			"buffer":0,
			"byteLength":840,
			"byteOffset":17592,
			"target":34963
		},
		{
			"buffer":0,
			"byteLength":3528,
			"byteOffset":18432,
			"target":34962
		},
		{
			"buffer":0,
			"byteLength":3528,
			"byteOffset":21960,
			"target":34962
		},
		{
			"buffer":0,
			"byteLength":2352,
			"byteOffset":25488,
			"target":34962
		},
		{
			"buffer":0,
			"byteLength":1836,
			"byteOffset":27840,
			"target":34963
		},
		{
			"buffer":0,
			"byteLength":864,
			"byteOffset":29676,
			"target":34962
		},
		{
			"buffer":0,
			"byteLength":864,
			"byteOffset":30540,
			"target":34962
		},
		{
			"buffer":0,
			"byteLength":576,
			"byteOffset":31404,
			"target":34962
		},
		{
			"buffer":0,
			"byteLength":240,
			"byteOffset":31980,
			"target":34963
		},
		{
			"buffer":0,
			"byteLength":11052,
			"byteOffset":32220,
			"target":34962
		},
		{
			"buffer":0,
			"byteLength":11052,
			"byteOffset":43272,
			"target":34962
		},
		{
			"buffer":0,
			"byteLength":7368,
			"byteOffset":54324,
			"target":34962
		},
		{
			"buffer":0,
			"byteLength":4884,
			"byteOffset":61692,
			"target":34963
		}
	],
	"samplers":[
		{
			"magFilter":9729,
			"minFilter":9987
		}
	],
	"buffers":[
		{
			"byteLength":66576,
			"uri":"obj_lstairs.bin"
		}
	]
}
