{
	"asset":{
		"generator":"Khronos glTF Blender I/O v4.1.63",
		"version":"2.0"
	},
	"extensionsUsed":[
		"KHR_materials_specular",
		"KHR_materials_ior"
	],
	"scene":0,
	"scenes":[
		{
			"name":"Scene",
			"nodes":[
				0,
				1
			]
		}
	],
	"nodes":[
		{
			"mesh":0,
			"name":"obj_fence02"
		},
		{
			"mesh":1,
			"name":"obj_fence02_collider"
		}
	],
	"materials":[
		{
			"emissiveFactor":[
				0.08500204809013079,
				0.09007176891076218,
				0.10000240951780093
			],
			"emissiveTexture":{
				"index":0
			},
			"extensions":{
				"KHR_materials_specular":{
					"specularFactor":0
				},
				"KHR_materials_ior":{
					"ior":1.4500000476837158
				}
			},
			"name":"obj_fence02_02",
			"pbrMetallicRoughness":{
				"baseColorFactor":[
					0.8500204682350159,
					0.9007176756858826,
					1,
					1
				],
				"baseColorTexture":{
					"index":1
				},
				"metallicFactor":0
			}
		},
		{
			"emissiveFactor":[
				0.08500204809013079,
				0.09007176891076218,
				0.10000240951780093
			],
			"emissiveTexture":{
				"index":2
			},
			"extensions":{
				"KHR_materials_specular":{
					"specularFactor":0
				},
				"KHR_materials_ior":{
					"ior":1.4500000476837158
				}
			},
			"name":"obj_borders",
			"pbrMetallicRoughness":{
				"baseColorFactor":[
					0.8500204682350159,
					0.9007176756858826,
					1,
					1
				],
				"baseColorTexture":{
					"index":3
				},
				"metallicFactor":0
			}
		},
		{
			"emissiveFactor":[
				0.08500204809013079,
				0.09007176891076218,
				0.10000240951780093
			],
			"emissiveTexture":{
				"index":4
			},
			"extensions":{
				"KHR_materials_specular":{
					"specularFactor":0
				},
				"KHR_materials_ior":{
					"ior":1.4500000476837158
				}
			},
			"name":"obj_fence02_01",
			"pbrMetallicRoughness":{
				"baseColorFactor":[
					0.8500204682350159,
					0.9007176756858826,
					1,
					1
				],
				"baseColorTexture":{
					"index":5
				},
				"metallicFactor":0
			}
		},
		{
			"emissiveFactor":[
				0.9215658903121948,
				0.7304738759994507,
				0.16513018310070038
			],
			"extensions":{
				"KHR_materials_specular":{
					"specularFactor":0
				},
				"KHR_materials_ior":{
					"ior":1.4500000476837158
				}
			},
			"name":"obj_global_emission02",
			"pbrMetallicRoughness":{
				"baseColorFactor":[
					0.9203937649726868,
					0.7313708662986755,
					0.1655372530221939,
					1
				],
				"metallicFactor":0
			}
		}
	],
	"meshes":[
		{
			"name":"Cube.015",
			"primitives":[
				{
					"attributes":{
						"POSITION":0,
						"NORMAL":1,
						"TEXCOORD_0":2
					},
					"indices":3,
					"material":0
				},
				{
					"attributes":{
						"POSITION":4,
						"NORMAL":5,
						"TEXCOORD_0":6
					},
					"indices":7,
					"material":1
				},
				{
					"attributes":{
						"POSITION":8,
						"NORMAL":9,
						"TEXCOORD_0":10
					},
					"indices":11,
					"material":2
				},
				{
					"attributes":{
						"POSITION":12,
						"NORMAL":13,
						"TEXCOORD_0":14
					},
					"indices":15,
					"material":3
				}
			]
		},
		{
			"name":"Cube.002",
			"primitives":[
				{
					"attributes":{
						"POSITION":16,
						"NORMAL":17,
						"TEXCOORD_0":18
					},
					"indices":19
				}
			]
		}
	],
	"textures":[
		{
			"sampler":0,
			"source":0
		},
		{
			"sampler":0,
			"source":0
		},
		{
			"sampler":0,
			"source":1
		},
		{
			"sampler":0,
			"source":1
		},
		{
			"sampler":0,
			"source":2
		},
		{
			"sampler":0,
			"source":2
		}
	],
	"images":[
		{
			"mimeType":"image/png",
			"name":"obj_fence02_02",
			"uri":"textures/obj_fence02_02.png"
		},
		{
			"mimeType":"image/png",
			"name":"obj_borders",
			"uri":"textures/obj_borders.png"
		},
		{
			"mimeType":"image/png",
			"name":"obj_fence02_01",
			"uri":"textures/obj_fence02_01.png"
		}
	],
	"accessors":[
		{
			"bufferView":0,
			"componentType":5126,
			"count":8714,
			"max":[
				-4.850396156311035,
				1.2201628684997559,
				-4.927202224731445
			],
			"min":[
				-50.21250915527344,
				0.2653166949748993,
				-60.41410446166992
			],
			"type":"VEC3"
		},
		{
			"bufferView":1,
			"componentType":5126,
			"count":8714,
			"type":"VEC3"
		},
		{
			"bufferView":2,
			"componentType":5126,
			"count":8714,
			"type":"VEC2"
		},
		{
			"bufferView":3,
			"componentType":5123,
			"count":14040,
			"type":"SCALAR"
		},
		{
			"bufferView":4,
			"componentType":5126,
			"count":2700,
			"max":[
				-4.459765434265137,
				0.40076786279678345,
				-4.422772407531738
			],
			"min":[
				-50.716495513916016,
				0.2776395082473755,
				-60.91333770751953
			],
			"type":"VEC3"
		},
		{
			"bufferView":5,
			"componentType":5126,
			"count":2700,
			"type":"VEC3"
		},
		{
			"bufferView":6,
			"componentType":5126,
			"count":2700,
			"type":"VEC2"
		},
		{
			"bufferView":7,
			"componentType":5123,
			"count":5712,
			"type":"SCALAR"
		},
		{
			"bufferView":8,
			"componentType":5126,
			"count":1586,
			"max":[
				-4.346222877502441,
				0.6211571097373962,
				-4.311489582061768
			],
			"min":[
				-50.82795715332031,
				0.2980719804763794,
				-61.01988220214844
			],
			"type":"VEC3"
		},
		{
			"bufferView":9,
			"componentType":5126,
			"count":1586,
			"type":"VEC3"
		},
		{
			"bufferView":10,
			"componentType":5126,
			"count":1586,
			"type":"VEC2"
		},
		{
			"bufferView":11,
			"componentType":5123,
			"count":2790,
			"type":"SCALAR"
		},
		{
			"bufferView":12,
			"componentType":5126,
			"count":559,
			"max":[
				-4.525663375854492,
				0.6211570501327515,
				-4.495220184326172
			],
			"min":[
				-50.6441764831543,
				0.5944556593894958,
				-60.836181640625
			],
			"type":"VEC3"
		},
		{
			"bufferView":13,
			"componentType":5126,
			"count":559,
			"type":"VEC3"
		},
		{
			"bufferView":14,
			"componentType":5126,
			"count":559,
			"type":"VEC2"
		},
		{
			"bufferView":15,
			"componentType":5123,
			"count":918,
			"type":"SCALAR"
		},
		{
			"bufferView":16,
			"componentType":5126,
			"count":2783,
			"max":[
				-4.346222877502441,
				1.2201628684997559,
				-4.333409786224365
			],
			"min":[
				-50.82795715332031,
				0.26636818051338196,
				-61.01988220214844
			],
			"type":"VEC3"
		},
		{
			"bufferView":17,
			"componentType":5126,
			"count":2783,
			"type":"VEC3"
		},
		{
			"bufferView":18,
			"componentType":5126,
			"count":2783,
			"type":"VEC2"
		},
		{
			"bufferView":19,
			"componentType":5123,
			"count":5478,
			"type":"SCALAR"
		}
	],
	"bufferViews":[
		{
			"buffer":0,
			"byteLength":104568,
			"byteOffset":0,
			"target":34962
		},
		{
			"buffer":0,
			"byteLength":104568,
			"byteOffset":104568,
			"target":34962
		},
		{
			"buffer":0,
			"byteLength":69712,
			"byteOffset":209136,
			"target":34962
		},
		{
			"buffer":0,
			"byteLength":28080,
			"byteOffset":278848,
			"target":34963
		},
		{
			"buffer":0,
			"byteLength":32400,
			"byteOffset":306928,
			"target":34962
		},
		{
			"buffer":0,
			"byteLength":32400,
			"byteOffset":339328,
			"target":34962
		},
		{
			"buffer":0,
			"byteLength":21600,
			"byteOffset":371728,
			"target":34962
		},
		{
			"buffer":0,
			"byteLength":11424,
			"byteOffset":393328,
			"target":34963
		},
		{
			"buffer":0,
			"byteLength":19032,
			"byteOffset":404752,
			"target":34962
		},
		{
			"buffer":0,
			"byteLength":19032,
			"byteOffset":423784,
			"target":34962
		},
		{
			"buffer":0,
			"byteLength":12688,
			"byteOffset":442816,
			"target":34962
		},
		{
			"buffer":0,
			"byteLength":5580,
			"byteOffset":455504,
			"target":34963
		},
		{
			"buffer":0,
			"byteLength":6708,
			"byteOffset":461084,
			"target":34962
		},
		{
			"buffer":0,
			"byteLength":6708,
			"byteOffset":467792,
			"target":34962
		},
		{
			"buffer":0,
			"byteLength":4472,
			"byteOffset":474500,
			"target":34962
		},
		{
			"buffer":0,
			"byteLength":1836,
			"byteOffset":478972,
			"target":34963
		},
		{
			"buffer":0,
			"byteLength":33396,
			"byteOffset":480808,
			"target":34962
		},
		{
			"buffer":0,
			"byteLength":33396,
			"byteOffset":514204,
			"target":34962
		},
		{
			"buffer":0,
			"byteLength":22264,
			"byteOffset":547600,
			"target":34962
		},
		{
			"buffer":0,
			"byteLength":10956,
			"byteOffset":569864,
			"target":34963
		}
	],
	"samplers":[
		{
			"magFilter":9729,
			"minFilter":9987
		}
	],
	"buffers":[
		{
			"byteLength":580820,
			"uri":"obj_fence02.bin"
		}
	]
}
