{
	"asset":{
		"generator":"Khronos glTF Blender I/O v4.1.63",
		"version":"2.0"
	},
	"scene":0,
	"scenes":[
		{
			"name":"Scene",
			"nodes":[
				0,
				1
			]
		}
	],
	"nodes":[
		{
			"mesh":0,
			"name":"obj_table"
		},
		{
			"mesh":1,
			"name":"obj_table_collider"
		}
	],
	"materials":[
		{
			"emissiveFactor":[
				1,
				1,
				1
			],
			"emissiveTexture":{
				"index":0
			},
			"name":"obj_table",
			"pbrMetallicRoughness":{
				"baseColorTexture":{
					"index":1
				},
				"metallicFactor":0
			}
		}
	],
	"meshes":[
		{
			"name":"Plane.002",
			"primitives":[
				{
					"attributes":{
						"POSITION":0,
						"NORMAL":1,
						"TEXCOORD_0":2
					},
					"indices":3,
					"material":0
				}
			]
		},
		{
			"name":"Cube.021",
			"primitives":[
				{
					"attributes":{
						"POSITION":4,
						"NORMAL":5,
						"TEXCOORD_0":6
					},
					"indices":7
				}
			]
		}
	],
	"textures":[
		{
			"sampler":0,
			"source":0
		},
		{
			"sampler":0,
			"source":1
		}
	],
	"images":[
		{
			"mimeType":"image/png",
			"name":"obj_table_emission",
			"uri":"textures/obj_table_emission.png"
		},
		{
			"mimeType":"image/png",
			"name":"obj_table",
			"uri":"textures/obj_table.png"
		}
	],
	"accessors":[
		{
			"bufferView":0,
			"componentType":5126,
			"count":830,
			"max":[
				1.033853530883789,
				1.0446317195892334,
				0.7536957859992981
			],
			"min":[
				-1.2579573392868042,
				0,
				-0.7248555421829224
			],
			"type":"VEC3"
		},
		{
			"bufferView":1,
			"componentType":5126,
			"count":830,
			"type":"VEC3"
		},
		{
			"bufferView":2,
			"componentType":5126,
			"count":830,
			"type":"VEC2"
		},
		{
			"bufferView":3,
			"componentType":5123,
			"count":1572,
			"type":"SCALAR"
		},
		{
			"bufferView":4,
			"componentType":5126,
			"count":24,
			"max":[
				0.9886459708213806,
				1.204840064048767,
				0.7530914545059204
			],
			"min":[
				-1.2457484006881714,
				0,
				-0.7552043199539185
			],
			"type":"VEC3"
		},
		{
			"bufferView":5,
			"componentType":5126,
			"count":24,
			"type":"VEC3"
		},
		{
			"bufferView":6,
			"componentType":5126,
			"count":24,
			"type":"VEC2"
		},
		{
			"bufferView":7,
			"componentType":5123,
			"count":36,
			"type":"SCALAR"
		}
	],
	"bufferViews":[
		{
			"buffer":0,
			"byteLength":9960,
			"byteOffset":0,
			"target":34962
		},
		{
			"buffer":0,
			"byteLength":9960,
			"byteOffset":9960,
			"target":34962
		},
		{
			"buffer":0,
			"byteLength":6640,
			"byteOffset":19920,
			"target":34962
		},
		{
			"buffer":0,
			"byteLength":3144,
			"byteOffset":26560,
			"target":34963
		},
		{
			"buffer":0,
			"byteLength":288,
			"byteOffset":29704,
			"target":34962
		},
		{
			"buffer":0,
			"byteLength":288,
			"byteOffset":29992,
			"target":34962
		},
		{
			"buffer":0,
			"byteLength":192,
			"byteOffset":30280,
			"target":34962
		},
		{
			"buffer":0,
			"byteLength":72,
			"byteOffset":30472,
			"target":34963
		}
	],
	"samplers":[
		{
			"magFilter":9729,
			"minFilter":9987
		}
	],
	"buffers":[
		{
			"byteLength":30544,
			"uri":"obj_table.bin"
		}
	]
}
