{
	"asset":{
		"generator":"Khronos glTF Blender I/O v4.1.63",
		"version":"2.0"
	},
	"extensionsUsed":[
		"KHR_materials_specular",
		"KHR_materials_ior"
	],
	"scene":0,
	"scenes":[
		{
			"name":"Scene",
			"nodes":[
				0,
				1
			]
		}
	],
	"nodes":[
		{
			"mesh":0,
			"name":"obj_stone06"
		},
		{
			"mesh":1,
			"name":"obj_stone06_collider"
		}
	],
	"materials":[
		{
			"emissiveFactor":[
				0.15000000596046448,
				0.15000000596046448,
				0.15000000596046448
			],
			"emissiveTexture":{
				"index":0
			},
			"extensions":{
				"KHR_materials_specular":{
					"specularFactor":0.0020000000949949026
				},
				"KHR_materials_ior":{
					"ior":1.4500000476837158
				}
			},
			"name":"obj_stone",
			"pbrMetallicRoughness":{
				"baseColorTexture":{
					"index":1
				},
				"metallicFactor":0
			}
		}
	],
	"meshes":[
		{
			"name":"Sphere.027",
			"primitives":[
				{
					"attributes":{
						"POSITION":0,
						"NORMAL":1,
						"TEXCOORD_0":2
					},
					"indices":3,
					"material":0
				}
			]
		},
		{
			"name":"Sphere.032",
			"primitives":[
				{
					"attributes":{
						"POSITION":4,
						"NORMAL":5,
						"TEXCOORD_0":6
					},
					"indices":3
				}
			]
		}
	],
	"textures":[
		{
			"sampler":0,
			"source":0
		},
		{
			"sampler":0,
			"source":0
		}
	],
	"images":[
		{
			"mimeType":"image/png",
			"name":"obj_stone",
			"uri":"textures/obj_stone.png"
		}
	],
	"accessors":[
		{
			"bufferView":0,
			"componentType":5126,
			"count":59,
			"max":[
				0.8782329559326172,
				0.6627094745635986,
				0.8824586868286133
			],
			"min":[
				-0.87969970703125,
				-5.960464477539063e-08,
				-0.9119961261749268
			],
			"type":"VEC3"
		},
		{
			"bufferView":1,
			"componentType":5126,
			"count":59,
			"type":"VEC3"
		},
		{
			"bufferView":2,
			"componentType":5126,
			"count":59,
			"type":"VEC2"
		},
		{
			"bufferView":3,
			"componentType":5123,
			"count":258,
			"type":"SCALAR"
		},
		{
			"bufferView":4,
			"componentType":5126,
			"count":59,
			"max":[
				0.8782329559326172,
				0.6627094745635986,
				0.8824586868286133
			],
			"min":[
				-0.87969970703125,
				-5.960464477539063e-08,
				-0.9119961261749268
			],
			"type":"VEC3"
		},
		{
			"bufferView":5,
			"componentType":5126,
			"count":59,
			"type":"VEC3"
		},
		{
			"bufferView":6,
			"componentType":5126,
			"count":59,
			"type":"VEC2"
		}
	],
	"bufferViews":[
		{
			"buffer":0,
			"byteLength":708,
			"byteOffset":0,
			"target":34962
		},
		{
			"buffer":0,
			"byteLength":708,
			"byteOffset":708,
			"target":34962
		},
		{
			"buffer":0,
			"byteLength":472,
			"byteOffset":1416,
			"target":34962
		},
		{
			"buffer":0,
			"byteLength":516,
			"byteOffset":1888,
			"target":34963
		},
		{
			"buffer":0,
			"byteLength":708,
			"byteOffset":2404,
			"target":34962
		},
		{
			"buffer":0,
			"byteLength":708,
			"byteOffset":3112,
			"target":34962
		},
		{
			"buffer":0,
			"byteLength":472,
			"byteOffset":3820,
			"target":34962
		}
	],
	"samplers":[
		{
			"magFilter":9729,
			"minFilter":9987
		}
	],
	"buffers":[
		{
			"byteLength":4292,
			"uri":"obj_stone06.bin"
		}
	]
}
