{
	"asset":{
		"generator":"Khronos glTF Blender I/O v4.1.63",
		"version":"2.0"
	},
	"extensionsUsed":[
		"KHR_materials_specular",
		"KHR_materials_ior"
	],
	"scene":0,
	"scenes":[
		{
			"name":"Scene",
			"nodes":[
				0,
				1
			]
		}
	],
	"nodes":[
		{
			"mesh":0,
			"name":"obj_stairs"
		},
		{
			"mesh":1,
			"name":"obj_stairs_collider"
		}
	],
	"materials":[
		{
			"emissiveFactor":[
				1,
				1,
				1
			],
			"emissiveTexture":{
				"index":0
			},
			"extensions":{
				"KHR_materials_specular":{
					"specularFactor":0
				},
				"KHR_materials_ior":{
					"ior":1.4500000476837158
				}
			},
			"name":"obj_stairs01",
			"pbrMetallicRoughness":{
				"baseColorTexture":{
					"index":1
				},
				"metallicFactor":0
			}
		},
		{
			"emissiveFactor":[
				1,
				1,
				1
			],
			"emissiveTexture":{
				"index":2
			},
			"extensions":{
				"KHR_materials_specular":{
					"specularFactor":0
				},
				"KHR_materials_ior":{
					"ior":1.4500000476837158
				}
			},
			"name":"obj_stairs03",
			"pbrMetallicRoughness":{
				"baseColorTexture":{
					"index":3
				},
				"metallicFactor":0
			}
		},
		{
			"emissiveFactor":[
				1,
				1,
				1
			],
			"emissiveTexture":{
				"index":4
			},
			"extensions":{
				"KHR_materials_specular":{
					"specularFactor":0
				},
				"KHR_materials_ior":{
					"ior":1.4500000476837158
				}
			},
			"name":"obj_stairs02",
			"pbrMetallicRoughness":{
				"baseColorTexture":{
					"index":5
				},
				"metallicFactor":0
			}
		},
		{
			"emissiveFactor":[
				1,
				1,
				1
			],
			"emissiveTexture":{
				"index":6
			},
			"extensions":{
				"KHR_materials_specular":{
					"specularFactor":0
				},
				"KHR_materials_ior":{
					"ior":1.4500000476837158
				}
			},
			"name":"obj_stairs04",
			"pbrMetallicRoughness":{
				"baseColorTexture":{
					"index":7
				},
				"metallicFactor":0
			}
		}
	],
	"meshes":[
		{
			"name":"Mesh.002",
			"primitives":[
				{
					"attributes":{
						"POSITION":0,
						"NORMAL":1,
						"TEXCOORD_0":2
					},
					"indices":3,
					"material":0
				},
				{
					"attributes":{
						"POSITION":4,
						"NORMAL":5,
						"TEXCOORD_0":6
					},
					"indices":7,
					"material":1
				},
				{
					"attributes":{
						"POSITION":8,
						"NORMAL":9,
						"TEXCOORD_0":10
					},
					"indices":11,
					"material":2
				},
				{
					"attributes":{
						"POSITION":12,
						"NORMAL":13,
						"TEXCOORD_0":14
					},
					"indices":15,
					"material":3
				}
			]
		},
		{
			"name":"Mesh.015",
			"primitives":[
				{
					"attributes":{
						"POSITION":16,
						"NORMAL":17,
						"TEXCOORD_0":18
					},
					"indices":19
				}
			]
		}
	],
	"textures":[
		{
			"sampler":0,
			"source":0
		},
		{
			"sampler":0,
			"source":1
		},
		{
			"sampler":0,
			"source":2
		},
		{
			"sampler":0,
			"source":3
		},
		{
			"sampler":0,
			"source":4
		},
		{
			"sampler":0,
			"source":5
		},
		{
			"sampler":0,
			"source":6
		},
		{
			"sampler":0,
			"source":7
		}
	],
	"images":[
		{
			"mimeType":"image/png",
			"name":"obj_stairs01_emission",
			"uri":"textures/obj_stairs01_emission.png"
		},
		{
			"mimeType":"image/png",
			"name":"obj_stairs01",
			"uri":"textures/obj_stairs01.png"
		},
		{
			"mimeType":"image/png",
			"name":"obj_stairs03_emission",
			"uri":"textures/obj_stairs03_emission.png"
		},
		{
			"mimeType":"image/png",
			"name":"obj_stairs03",
			"uri":"textures/obj_stairs03.png"
		},
		{
			"mimeType":"image/png",
			"name":"obj_stairs02_emission",
			"uri":"textures/obj_stairs02_emission.png"
		},
		{
			"mimeType":"image/png",
			"name":"obj_stairs02",
			"uri":"textures/obj_stairs02.png"
		},
		{
			"mimeType":"image/png",
			"name":"obj_stairs04_emisssion",
			"uri":"textures/obj_stairs04_emisssion.png"
		},
		{
			"mimeType":"image/png",
			"name":"obj_stairs04",
			"uri":"textures/obj_stairs04.png"
		}
	],
	"accessors":[
		{
			"bufferView":0,
			"componentType":5126,
			"count":122,
			"max":[
				10.774518966674805,
				0.787473201751709,
				10.137794494628906
			],
			"min":[
				2.6361236572265625,
				0.0004884968511760235,
				-10.13232421875
			],
			"type":"VEC3"
		},
		{
			"bufferView":1,
			"componentType":5126,
			"count":122,
			"type":"VEC3"
		},
		{
			"bufferView":2,
			"componentType":5126,
			"count":122,
			"type":"VEC2"
		},
		{
			"bufferView":3,
			"componentType":5123,
			"count":300,
			"type":"SCALAR"
		},
		{
			"bufferView":4,
			"componentType":5126,
			"count":80,
			"max":[
				15.789405822753906,
				0.5907555222511292,
				12.681262016296387
			],
			"min":[
				7.752930641174316,
				0.0005145989707671106,
				-12.675790786743164
			],
			"type":"VEC3"
		},
		{
			"bufferView":5,
			"componentType":5126,
			"count":80,
			"type":"VEC3"
		},
		{
			"bufferView":6,
			"componentType":5126,
			"count":80,
			"type":"VEC2"
		},
		{
			"bufferView":7,
			"componentType":5123,
			"count":156,
			"type":"SCALAR"
		},
		{
			"bufferView":8,
			"componentType":5126,
			"count":42,
			"max":[
				13.107400894165039,
				0.59075528383255,
				10.511475563049316
			],
			"min":[
				6.381697654724121,
				0.0005144954193383455,
				-10.506004333496094
			],
			"type":"VEC3"
		},
		{
			"bufferView":9,
			"componentType":5126,
			"count":42,
			"type":"VEC3"
		},
		{
			"bufferView":10,
			"componentType":5126,
			"count":42,
			"type":"VEC2"
		},
		{
			"bufferView":11,
			"componentType":5123,
			"count":84,
			"type":"SCALAR"
		},
		{
			"bufferView":12,
			"componentType":5126,
			"count":48,
			"max":[
				9.329374313354492,
				0.3940088748931885,
				14.926167488098145
			],
			"min":[
				3.410965919494629,
				0.0004885743255726993,
				-14.901764869689941
			],
			"type":"VEC3"
		},
		{
			"bufferView":13,
			"componentType":5126,
			"count":48,
			"type":"VEC3"
		},
		{
			"bufferView":14,
			"componentType":5126,
			"count":48,
			"type":"VEC2"
		},
		{
			"bufferView":15,
			"componentType":5123,
			"count":72,
			"type":"SCALAR"
		},
		{
			"bufferView":16,
			"componentType":5126,
			"count":292,
			"max":[
				15.789405822753906,
				0.787473201751709,
				14.926167488098145
			],
			"min":[
				2.6361236572265625,
				0.0004884968511760235,
				-14.901764869689941
			],
			"type":"VEC3"
		},
		{
			"bufferView":17,
			"componentType":5126,
			"count":292,
			"type":"VEC3"
		},
		{
			"bufferView":18,
			"componentType":5126,
			"count":292,
			"type":"VEC2"
		},
		{
			"bufferView":19,
			"componentType":5123,
			"count":612,
			"type":"SCALAR"
		}
	],
	"bufferViews":[
		{
			"buffer":0,
			"byteLength":1464,
			"byteOffset":0,
			"target":34962
		},
		{
			"buffer":0,
			"byteLength":1464,
			"byteOffset":1464,
			"target":34962
		},
		{
			"buffer":0,
			"byteLength":976,
			"byteOffset":2928,
			"target":34962
		},
		{
			"buffer":0,
			"byteLength":600,
			"byteOffset":3904,
			"target":34963
		},
		{
			"buffer":0,
			"byteLength":960,
			"byteOffset":4504,
			"target":34962
		},
		{
			"buffer":0,
			"byteLength":960,
			"byteOffset":5464,
			"target":34962
		},
		{
			"buffer":0,
			"byteLength":640,
			"byteOffset":6424,
			"target":34962
		},
		{
			"buffer":0,
			"byteLength":312,
			"byteOffset":7064,
			"target":34963
		},
		{
			"buffer":0,
			"byteLength":504,
			"byteOffset":7376,
			"target":34962
		},
		{
			"buffer":0,
			"byteLength":504,
			"byteOffset":7880,
			"target":34962
		},
		{
			"buffer":0,
			"byteLength":336,
			"byteOffset":8384,
			"target":34962
		},
		{
			"buffer":0,
			"byteLength":168,
			"byteOffset":8720,
			"target":34963
		},
		{
			"buffer":0,
			"byteLength":576,
			"byteOffset":8888,
			"target":34962
		},
		{
			"buffer":0,
			"byteLength":576,
			"byteOffset":9464,
			"target":34962
		},
		{
			"buffer":0,
			"byteLength":384,
			"byteOffset":10040,
			"target":34962
		},
		{
			"buffer":0,
			"byteLength":144,
			"byteOffset":10424,
			"target":34963
		},
		{
			"buffer":0,
			"byteLength":3504,
			"byteOffset":10568,
			"target":34962
		},
		{
			"buffer":0,
			"byteLength":3504,
			"byteOffset":14072,
			"target":34962
		},
		{
			"buffer":0,
			"byteLength":2336,
			"byteOffset":17576,
			"target":34962
		},
		{
			"buffer":0,
			"byteLength":1224,
			"byteOffset":19912,
			"target":34963
		}
	],
	"samplers":[
		{
			"magFilter":9729,
			"minFilter":9987
		}
	],
	"buffers":[
		{
			"byteLength":21136,
			"uri":"obj_stairs.bin"
		}
	]
}
