{
	"asset":{
		"generator":"Khronos glTF Blender I/O v4.3.47",
		"version":"2.0"
	},
	"extensionsUsed":[
		"KHR_materials_clearcoat",
		"KHR_materials_specular"
	],
	"scene":0,
	"scenes":[
		{
			"name":"Scene",
			"nodes":[
				0,
				1
			]
		}
	],
	"nodes":[
		{
			"mesh":0,
			"name":"obj_billboard"
		},
		{
			"mesh":1,
			"name":"obj_billboard_collider"
		}
	],
	"materials":[
		{
			"emissiveFactor":[
				0.10000000149011612,
				0.10000000149011612,
				0.10000000149011612
			],
			"emissiveTexture":{
				"index":0
			},
			"extensions":{
				"KHR_materials_clearcoat":{
					"clearcoatRoughnessFactor":0
				},
				"KHR_materials_specular":{
					"specularFactor":0
				}
			},
			"name":"obj_billboard01",
			"pbrMetallicRoughness":{
				"baseColorTexture":{
					"index":1
				},
				"metallicFactor":0
			}
		},
		{
			"doubleSided":true,
			"emissiveFactor":[
				0.26229405403137207,
				0.5646868348121643,
				0.921515166759491
			],
			"extensions":{
				"KHR_materials_specular":{
					"specularFactor":0
				}
			},
			"name":"obj_global_emission01",
			"pbrMetallicRoughness":{
				"baseColorFactor":[
					0.2617267668247223,
					0.566400408744812,
					0.9218639135360718,
					1
				],
				"metallicFactor":0
			}
		},
		{
			"doubleSided":true,
			"emissiveFactor":[
				0.9215658903121948,
				0.7304738759994507,
				0.16513018310070038
			],
			"extensions":{
				"KHR_materials_specular":{
					"specularFactor":0
				}
			},
			"name":"obj_global_emission02",
			"pbrMetallicRoughness":{
				"baseColorFactor":[
					0.9203937649726868,
					0.7313708662986755,
					0.1655372530221939,
					1
				],
				"metallicFactor":0
			}
		},
		{
			"doubleSided":true,
			"emissiveFactor":[
				0.7455297112464905,
				0.4507659673690796,
				0.8147876262664795
			],
			"extensions":{
				"KHR_materials_specular":{
					"specularFactor":0
				}
			},
			"name":"obj_global_emission03",
			"pbrMetallicRoughness":{
				"baseColorFactor":[
					0.7454167008399963,
					0.450778603553772,
					0.8148468136787415,
					1
				],
				"metallicFactor":0
			}
		}
	],
	"meshes":[
		{
			"name":"obj_billboard",
			"primitives":[
				{
					"attributes":{
						"POSITION":0,
						"NORMAL":1,
						"TEXCOORD_0":2
					},
					"indices":3,
					"material":0
				},
				{
					"attributes":{
						"POSITION":4,
						"NORMAL":5,
						"TEXCOORD_0":6
					},
					"indices":7,
					"material":1
				},
				{
					"attributes":{
						"POSITION":8,
						"NORMAL":9,
						"TEXCOORD_0":10
					},
					"indices":11,
					"material":2
				},
				{
					"attributes":{
						"POSITION":12,
						"NORMAL":13,
						"TEXCOORD_0":14
					},
					"indices":15,
					"material":3
				}
			]
		},
		{
			"name":"obj_billboard_collider",
			"primitives":[
				{
					"attributes":{
						"POSITION":16,
						"NORMAL":17,
						"TEXCOORD_0":18
					},
					"indices":19
				}
			]
		}
	],
	"textures":[
		{
			"sampler":0,
			"source":0
		},
		{
			"sampler":0,
			"source":0
		}
	],
	"images":[
		{
			"mimeType":"image/png",
			"name":"obj_billboard01",
			"uri":"textures/obj_billboard01.png"
		}
	],
	"accessors":[
		{
			"bufferView":0,
			"componentType":5126,
			"count":10679,
			"max":[
				39.3119010925293,
				5.629891872406006,
				43.50794982910156
			],
			"min":[
				-36.14421081542969,
				0.29999998211860657,
				-60.85797882080078
			],
			"type":"VEC3"
		},
		{
			"bufferView":1,
			"componentType":5126,
			"count":10679,
			"type":"VEC3"
		},
		{
			"bufferView":2,
			"componentType":5126,
			"count":10679,
			"type":"VEC2"
		},
		{
			"bufferView":3,
			"componentType":5123,
			"count":24648,
			"type":"SCALAR"
		},
		{
			"bufferView":4,
			"componentType":5126,
			"count":408,
			"max":[
				32.67280960083008,
				1.9880850315093994,
				15.173938751220703
			],
			"min":[
				-25.78660011291504,
				1.1413090229034424,
				-60.785911560058594
			],
			"type":"VEC3"
		},
		{
			"bufferView":5,
			"componentType":5126,
			"count":408,
			"type":"VEC3"
		},
		{
			"bufferView":6,
			"componentType":5126,
			"count":408,
			"type":"VEC2"
		},
		{
			"bufferView":7,
			"componentType":5123,
			"count":1152,
			"type":"SCALAR"
		},
		{
			"bufferView":8,
			"componentType":5126,
			"count":204,
			"max":[
				-16.600013732910156,
				1.5712101459503174,
				-5.3748602867126465
			],
			"min":[
				-35.1828727722168,
				1.2204678058624268,
				-51.92951965332031
			],
			"type":"VEC3"
		},
		{
			"bufferView":9,
			"componentType":5126,
			"count":204,
			"type":"VEC3"
		},
		{
			"bufferView":10,
			"componentType":5126,
			"count":204,
			"type":"VEC2"
		},
		{
			"bufferView":11,
			"componentType":5123,
			"count":576,
			"type":"SCALAR"
		},
		{
			"bufferView":12,
			"componentType":5126,
			"count":272,
			"max":[
				38.85591506958008,
				2.2199084758758545,
				41.8294677734375
			],
			"min":[
				5.313571929931641,
				1.6901819705963135,
				1.05242919921875
			],
			"type":"VEC3"
		},
		{
			"bufferView":13,
			"componentType":5126,
			"count":272,
			"type":"VEC3"
		},
		{
			"bufferView":14,
			"componentType":5126,
			"count":272,
			"type":"VEC2"
		},
		{
			"bufferView":15,
			"componentType":5123,
			"count":768,
			"type":"SCALAR"
		},
		{
			"bufferView":16,
			"componentType":5126,
			"count":901,
			"max":[
				39.44489669799805,
				5.654880523681641,
				43.59037399291992
			],
			"min":[
				-36.209449768066406,
				0.3009297251701355,
				-60.867454528808594
			],
			"type":"VEC3"
		},
		{
			"bufferView":17,
			"componentType":5126,
			"count":901,
			"type":"VEC3"
		},
		{
			"bufferView":18,
			"componentType":5126,
			"count":901,
			"type":"VEC2"
		},
		{
			"bufferView":19,
			"componentType":5123,
			"count":3276,
			"type":"SCALAR"
		}
	],
	"bufferViews":[
		{
			"buffer":0,
			"byteLength":128148,
			"byteOffset":0,
			"target":34962
		},
		{
			"buffer":0,
			"byteLength":128148,
			"byteOffset":128148,
			"target":34962
		},
		{
			"buffer":0,
			"byteLength":85432,
			"byteOffset":256296,
			"target":34962
		},
		{
			"buffer":0,
			"byteLength":49296,
			"byteOffset":341728,
			"target":34963
		},
		{
			"buffer":0,
			"byteLength":4896,
			"byteOffset":391024,
			"target":34962
		},
		{
			"buffer":0,
			"byteLength":4896,
			"byteOffset":395920,
			"target":34962
		},
		{
			"buffer":0,
			"byteLength":3264,
			"byteOffset":400816,
			"target":34962
		},
		{
			"buffer":0,
			"byteLength":2304,
			"byteOffset":404080,
			"target":34963
		},
		{
			"buffer":0,
			"byteLength":2448,
			"byteOffset":406384,
			"target":34962
		},
		{
			"buffer":0,
			"byteLength":2448,
			"byteOffset":408832,
			"target":34962
		},
		{
			"buffer":0,
			"byteLength":1632,
			"byteOffset":411280,
			"target":34962
		},
		{
			"buffer":0,
			"byteLength":1152,
			"byteOffset":412912,
			"target":34963
		},
		{
			"buffer":0,
			"byteLength":3264,
			"byteOffset":414064,
			"target":34962
		},
		{
			"buffer":0,
			"byteLength":3264,
			"byteOffset":417328,
			"target":34962
		},
		{
			"buffer":0,
			"byteLength":2176,
			"byteOffset":420592,
			"target":34962
		},
		{
			"buffer":0,
			"byteLength":1536,
			"byteOffset":422768,
			"target":34963
		},
		{
			"buffer":0,
			"byteLength":10812,
			"byteOffset":424304,
			"target":34962
		},
		{
			"buffer":0,
			"byteLength":10812,
			"byteOffset":435116,
			"target":34962
		},
		{
			"buffer":0,
			"byteLength":7208,
			"byteOffset":445928,
			"target":34962
		},
		{
			"buffer":0,
			"byteLength":6552,
			"byteOffset":453136,
			"target":34963
		}
	],
	"samplers":[
		{
			"magFilter":9729,
			"minFilter":9987
		}
	],
	"buffers":[
		{
			"byteLength":459688,
			"uri":"obj_billboard.bin"
		}
	]
}
