{
	"asset":{
		"generator":"Khronos glTF Blender I/O v4.3.47",
		"version":"2.0"
	},
	"extensionsUsed":[
		"KHR_materials_clearcoat",
		"KHR_materials_specular"
	],
	"scene":0,
	"scenes":[
		{
			"name":"Scene",
			"nodes":[
				0,
				1
			]
		}
	],
	"nodes":[
		{
			"mesh":0,
			"name":"obj_bench"
		},
		{
			"mesh":1,
			"name":"obj_bench_collider"
		}
	],
	"materials":[
		{
			"emissiveFactor":[
				0.10000000149011612,
				0.10000000149011612,
				0.10000000149011612
			],
			"emissiveTexture":{
				"index":0
			},
			"extensions":{
				"KHR_materials_clearcoat":{
					"clearcoatRoughnessFactor":0
				},
				"KHR_materials_specular":{
					"specularFactor":0
				}
			},
			"name":"obj_bench",
			"pbrMetallicRoughness":{
				"baseColorTexture":{
					"index":1
				},
				"metallicFactor":0
			}
		},
		{
			"doubleSided":true,
			"emissiveFactor":[
				0.26229405403137207,
				0.5646868348121643,
				0.921515166759491
			],
			"extensions":{
				"KHR_materials_specular":{
					"specularFactor":0
				}
			},
			"name":"obj_global_emission01",
			"pbrMetallicRoughness":{
				"baseColorFactor":[
					0.2617267668247223,
					0.566400408744812,
					0.9218639135360718,
					1
				],
				"metallicFactor":0
			}
		},
		{
			"doubleSided":true,
			"emissiveFactor":[
				0.9215658903121948,
				0.7304738759994507,
				0.16513018310070038
			],
			"extensions":{
				"KHR_materials_specular":{
					"specularFactor":0
				}
			},
			"name":"obj_global_emission02",
			"pbrMetallicRoughness":{
				"baseColorFactor":[
					0.9203937649726868,
					0.7313708662986755,
					0.1655372530221939,
					1
				],
				"metallicFactor":0
			}
		},
		{
			"doubleSided":true,
			"emissiveFactor":[
				0.7455297112464905,
				0.4507659673690796,
				0.8147876262664795
			],
			"extensions":{
				"KHR_materials_specular":{
					"specularFactor":0
				}
			},
			"name":"obj_global_emission03",
			"pbrMetallicRoughness":{
				"baseColorFactor":[
					0.7454167008399963,
					0.450778603553772,
					0.8148468136787415,
					1
				],
				"metallicFactor":0
			}
		}
	],
	"meshes":[
		{
			"name":"obj_bench",
			"primitives":[
				{
					"attributes":{
						"POSITION":0,
						"NORMAL":1,
						"TEXCOORD_0":2
					},
					"indices":3,
					"material":0
				},
				{
					"attributes":{
						"POSITION":4,
						"NORMAL":5,
						"TEXCOORD_0":6
					},
					"indices":7,
					"material":1
				},
				{
					"attributes":{
						"POSITION":8,
						"NORMAL":9,
						"TEXCOORD_0":10
					},
					"indices":11,
					"material":2
				},
				{
					"attributes":{
						"POSITION":12,
						"NORMAL":13,
						"TEXCOORD_0":14
					},
					"indices":15,
					"material":3
				}
			]
		},
		{
			"name":"obj_bench_collider",
			"primitives":[
				{
					"attributes":{
						"POSITION":16,
						"NORMAL":17,
						"TEXCOORD_0":18
					},
					"indices":19
				}
			]
		}
	],
	"textures":[
		{
			"sampler":0,
			"source":0
		},
		{
			"sampler":0,
			"source":0
		}
	],
	"images":[
		{
			"mimeType":"image/png",
			"name":"obj_bench",
			"uri":"textures/obj_bench.png"
		}
	],
	"accessors":[
		{
			"bufferView":0,
			"componentType":5126,
			"count":5150,
			"max":[
				50.16135025024414,
				1.3619792461395264,
				46.11532211303711
			],
			"min":[
				-38.59416961669922,
				0.2999998927116394,
				-56.698394775390625
			],
			"type":"VEC3"
		},
		{
			"bufferView":1,
			"componentType":5126,
			"count":5150,
			"type":"VEC3"
		},
		{
			"bufferView":2,
			"componentType":5126,
			"count":5150,
			"type":"VEC2"
		},
		{
			"bufferView":3,
			"componentType":5123,
			"count":13200,
			"type":"SCALAR"
		},
		{
			"bufferView":4,
			"componentType":5126,
			"count":102,
			"max":[
				49.37652587890625,
				0.6545383930206299,
				-5.640397548675537
			],
			"min":[
				-2.975696563720703,
				0.5957977175712585,
				-56.110538482666016
			],
			"type":"VEC3"
		},
		{
			"bufferView":5,
			"componentType":5126,
			"count":102,
			"type":"VEC3"
		},
		{
			"bufferView":6,
			"componentType":5126,
			"count":102,
			"type":"VEC2"
		},
		{
			"bufferView":7,
			"componentType":5123,
			"count":204,
			"type":"SCALAR"
		},
		{
			"bufferView":8,
			"componentType":5126,
			"count":18,
			"max":[
				-13.35175895690918,
				0.6545383930206299,
				-12.164716720581055
			],
			"min":[
				-37.795684814453125,
				0.5957977771759033,
				-45.035064697265625
			],
			"type":"VEC3"
		},
		{
			"bufferView":9,
			"componentType":5126,
			"count":18,
			"type":"VEC3"
		},
		{
			"bufferView":10,
			"componentType":5126,
			"count":18,
			"type":"VEC2"
		},
		{
			"bufferView":11,
			"componentType":5123,
			"count":36,
			"type":"SCALAR"
		},
		{
			"bufferView":12,
			"componentType":5126,
			"count":30,
			"max":[
				33.72407531738281,
				0.6545383930206299,
				45.677085876464844
			],
			"min":[
				6.631019592285156,
				0.5957977771759033,
				6.750405788421631
			],
			"type":"VEC3"
		},
		{
			"bufferView":13,
			"componentType":5126,
			"count":30,
			"type":"VEC3"
		},
		{
			"bufferView":14,
			"componentType":5126,
			"count":30,
			"type":"VEC2"
		},
		{
			"bufferView":15,
			"componentType":5123,
			"count":60,
			"type":"SCALAR"
		},
		{
			"bufferView":16,
			"componentType":5126,
			"count":2900,
			"max":[
				50.162437438964844,
				1.3619792461395264,
				46.1157341003418
			],
			"min":[
				-38.59523391723633,
				0.29999977350234985,
				-56.69904327392578
			],
			"type":"VEC3"
		},
		{
			"bufferView":17,
			"componentType":5126,
			"count":2900,
			"type":"VEC3"
		},
		{
			"bufferView":18,
			"componentType":5126,
			"count":2900,
			"type":"VEC2"
		},
		{
			"bufferView":19,
			"componentType":5123,
			"count":6450,
			"type":"SCALAR"
		}
	],
	"bufferViews":[
		{
			"buffer":0,
			"byteLength":61800,
			"byteOffset":0,
			"target":34962
		},
		{
			"buffer":0,
			"byteLength":61800,
			"byteOffset":61800,
			"target":34962
		},
		{
			"buffer":0,
			"byteLength":41200,
			"byteOffset":123600,
			"target":34962
		},
		{
			"buffer":0,
			"byteLength":26400,
			"byteOffset":164800,
			"target":34963
		},
		{
			"buffer":0,
			"byteLength":1224,
			"byteOffset":191200,
			"target":34962
		},
		{
			"buffer":0,
			"byteLength":1224,
			"byteOffset":192424,
			"target":34962
		},
		{
			"buffer":0,
			"byteLength":816,
			"byteOffset":193648,
			"target":34962
		},
		{
			"buffer":0,
			"byteLength":408,
			"byteOffset":194464,
			"target":34963
		},
		{
			"buffer":0,
			"byteLength":216,
			"byteOffset":194872,
			"target":34962
		},
		{
			"buffer":0,
			"byteLength":216,
			"byteOffset":195088,
			"target":34962
		},
		{
			"buffer":0,
			"byteLength":144,
			"byteOffset":195304,
			"target":34962
		},
		{
			"buffer":0,
			"byteLength":72,
			"byteOffset":195448,
			"target":34963
		},
		{
			"buffer":0,
			"byteLength":360,
			"byteOffset":195520,
			"target":34962
		},
		{
			"buffer":0,
			"byteLength":360,
			"byteOffset":195880,
			"target":34962
		},
		{
			"buffer":0,
			"byteLength":240,
			"byteOffset":196240,
			"target":34962
		},
		{
			"buffer":0,
			"byteLength":120,
			"byteOffset":196480,
			"target":34963
		},
		{
			"buffer":0,
			"byteLength":34800,
			"byteOffset":196600,
			"target":34962
		},
		{
			"buffer":0,
			"byteLength":34800,
			"byteOffset":231400,
			"target":34962
		},
		{
			"buffer":0,
			"byteLength":23200,
			"byteOffset":266200,
			"target":34962
		},
		{
			"buffer":0,
			"byteLength":12900,
			"byteOffset":289400,
			"target":34963
		}
	],
	"samplers":[
		{
			"magFilter":9729,
			"minFilter":9987
		}
	],
	"buffers":[
		{
			"byteLength":302300,
			"uri":"obj_bench.bin"
		}
	]
}
