{
	"asset":{
		"generator":"Khronos glTF Blender I/O v4.1.63",
		"version":"2.0"
	},
	"extensionsUsed":[
		"KHR_materials_specular",
		"KHR_materials_ior"
	],
	"scene":0,
	"scenes":[
		{
			"name":"Scene",
			"nodes":[
				0,
				1
			]
		}
	],
	"nodes":[
		{
			"mesh":0,
			"name":"obj_lab01_collider"
		},
		{
			"mesh":1,
			"name":"obj_lab01"
		}
	],
	"materials":[
		{
			"emissiveFactor":[
				1,
				1,
				1
			],
			"emissiveTexture":{
				"index":0
			},
			"extensions":{
				"KHR_materials_specular":{
					"specularFactor":0
				},
				"KHR_materials_ior":{
					"ior":1.4500000476837158
				}
			},
			"name":"obj_lab01_01",
			"pbrMetallicRoughness":{
				"baseColorTexture":{
					"index":1
				},
				"metallicFactor":0
			}
		},
		{
			"emissiveFactor":[
				1,
				1,
				1
			],
			"emissiveTexture":{
				"index":2
			},
			"extensions":{
				"KHR_materials_specular":{
					"specularFactor":0
				},
				"KHR_materials_ior":{
					"ior":1.4500000476837158
				}
			},
			"name":"obj_lab01_02",
			"pbrMetallicRoughness":{
				"baseColorTexture":{
					"index":3
				},
				"metallicFactor":0
			}
		},
		{
			"emissiveFactor":[
				0.800000011920929,
				0.800000011920929,
				0.800000011920929
			],
			"emissiveTexture":{
				"index":4
			},
			"extensions":{
				"KHR_materials_specular":{
					"specularFactor":0
				},
				"KHR_materials_ior":{
					"ior":1.4500000476837158
				}
			},
			"name":"obj_crystal01",
			"pbrMetallicRoughness":{
				"baseColorTexture":{
					"index":5
				},
				"metallicFactor":0
			}
		}
	],
	"meshes":[
		{
			"name":"Mesh.002",
			"primitives":[
				{
					"attributes":{
						"POSITION":0,
						"NORMAL":1,
						"TEXCOORD_0":2
					},
					"indices":3
				}
			]
		},
		{
			"name":"Mesh.004",
			"primitives":[
				{
					"attributes":{
						"POSITION":4,
						"NORMAL":5,
						"TEXCOORD_0":6
					},
					"indices":7,
					"material":0
				},
				{
					"attributes":{
						"POSITION":8,
						"NORMAL":9,
						"TEXCOORD_0":10
					},
					"indices":11,
					"material":1
				},
				{
					"attributes":{
						"POSITION":12,
						"NORMAL":13,
						"TEXCOORD_0":14
					},
					"indices":15,
					"material":2
				}
			]
		}
	],
	"textures":[
		{
			"sampler":0,
			"source":0
		},
		{
			"sampler":0,
			"source":1
		},
		{
			"sampler":0,
			"source":2
		},
		{
			"sampler":0,
			"source":3
		},
		{
			"sampler":0,
			"source":4
		},
		{
			"sampler":0,
			"source":5
		}
	],
	"images":[
		{
			"mimeType":"image/png",
			"name":"obj_lab01_01_emission",
			"uri":"textures/obj_lab01_01_emission.png"
		},
		{
			"mimeType":"image/png",
			"name":"obj_lab01_01",
			"uri":"textures/obj_lab01_01.png"
		},
		{
			"mimeType":"image/png",
			"name":"obj_lab01_02_emission",
			"uri":"textures/obj_lab01_02_emission.png"
		},
		{
			"mimeType":"image/png",
			"name":"obj_lab01_02",
			"uri":"textures/obj_lab01_02.png"
		},
		{
			"mimeType":"image/png",
			"name":"obj_crystal01_emission",
			"uri":"textures/obj_crystal01_emission.png"
		},
		{
			"mimeType":"image/png",
			"name":"obj_crystal01",
			"uri":"textures/obj_crystal01.png"
		}
	],
	"accessors":[
		{
			"bufferView":0,
			"componentType":5126,
			"count":83,
			"max":[
				3.9873924255371094,
				3.3784022331237793,
				1.3539773225784302
			],
			"min":[
				-3.7150042057037354,
				0.012306548655033112,
				-0.8694037795066833
			],
			"type":"VEC3"
		},
		{
			"bufferView":1,
			"componentType":5126,
			"count":83,
			"type":"VEC3"
		},
		{
			"bufferView":2,
			"componentType":5126,
			"count":83,
			"type":"VEC2"
		},
		{
			"bufferView":3,
			"componentType":5123,
			"count":138,
			"type":"SCALAR"
		},
		{
			"bufferView":4,
			"componentType":5126,
			"count":737,
			"max":[
				2.145545244216919,
				3.3940722942352295,
				1.3539773225784302
			],
			"min":[
				-3.7150042057037354,
				0.010758846998214722,
				-0.7071130275726318
			],
			"type":"VEC3"
		},
		{
			"bufferView":5,
			"componentType":5126,
			"count":737,
			"type":"VEC3"
		},
		{
			"bufferView":6,
			"componentType":5126,
			"count":737,
			"type":"VEC2"
		},
		{
			"bufferView":7,
			"componentType":5123,
			"count":1800,
			"type":"SCALAR"
		},
		{
			"bufferView":8,
			"componentType":5126,
			"count":210,
			"max":[
				3.9873924255371094,
				3.3891615867614746,
				0.505477249622345
			],
			"min":[
				-1.6110645532608032,
				-8.940696716308594e-08,
				-0.8694037795066833
			],
			"type":"VEC3"
		},
		{
			"bufferView":9,
			"componentType":5126,
			"count":210,
			"type":"VEC3"
		},
		{
			"bufferView":10,
			"componentType":5126,
			"count":210,
			"type":"VEC2"
		},
		{
			"bufferView":11,
			"componentType":5123,
			"count":510,
			"type":"SCALAR"
		},
		{
			"bufferView":12,
			"componentType":5126,
			"count":2016,
			"max":[
				3.5470685958862305,
				2.059659004211426,
				1.324843168258667
			],
			"min":[
				-3.5729527473449707,
				1.099938154220581,
				-0.42762991786003113
			],
			"type":"VEC3"
		},
		{
			"bufferView":13,
			"componentType":5126,
			"count":2016,
			"type":"VEC3"
		},
		{
			"bufferView":14,
			"componentType":5126,
			"count":2016,
			"type":"VEC2"
		},
		{
			"bufferView":15,
			"componentType":5123,
			"count":3456,
			"type":"SCALAR"
		}
	],
	"bufferViews":[
		{
			"buffer":0,
			"byteLength":996,
			"byteOffset":0,
			"target":34962
		},
		{
			"buffer":0,
			"byteLength":996,
			"byteOffset":996,
			"target":34962
		},
		{
			"buffer":0,
			"byteLength":664,
			"byteOffset":1992,
			"target":34962
		},
		{
			"buffer":0,
			"byteLength":276,
			"byteOffset":2656,
			"target":34963
		},
		{
			"buffer":0,
			"byteLength":8844,
			"byteOffset":2932,
			"target":34962
		},
		{
			"buffer":0,
			"byteLength":8844,
			"byteOffset":11776,
			"target":34962
		},
		{
			"buffer":0,
			"byteLength":5896,
			"byteOffset":20620,
			"target":34962
		},
		{
			"buffer":0,
			"byteLength":3600,
			"byteOffset":26516,
			"target":34963
		},
		{
			"buffer":0,
			"byteLength":2520,
			"byteOffset":30116,
			"target":34962
		},
		{
			"buffer":0,
			"byteLength":2520,
			"byteOffset":32636,
			"target":34962
		},
		{
			"buffer":0,
			"byteLength":1680,
			"byteOffset":35156,
			"target":34962
		},
		{
			"buffer":0,
			"byteLength":1020,
			"byteOffset":36836,
			"target":34963
		},
		{
			"buffer":0,
			"byteLength":24192,
			"byteOffset":37856,
			"target":34962
		},
		{
			"buffer":0,
			"byteLength":24192,
			"byteOffset":62048,
			"target":34962
		},
		{
			"buffer":0,
			"byteLength":16128,
			"byteOffset":86240,
			"target":34962
		},
		{
			"buffer":0,
			"byteLength":6912,
			"byteOffset":102368,
			"target":34963
		}
	],
	"samplers":[
		{
			"magFilter":9729,
			"minFilter":9987
		}
	],
	"buffers":[
		{
			"byteLength":109280,
			"uri":"obj_lab01.bin"
		}
	]
}
