{
	"asset":{
		"generator":"Khronos glTF Blender I/O v4.2.57",
		"version":"2.0"
	},
	"extensionsUsed":[
		"KHR_materials_specular",
		"KHR_materials_ior"
	],
	"scene":0,
	"scenes":[
		{
			"name":"Scene",
			"nodes":[
				0,
				1
			]
		}
	],
	"nodes":[
		{
			"mesh":0,
			"name":"obj_spray"
		},
		{
			"mesh":1,
			"name":"obj_spray_collider"
		}
	],
	"materials":[
		{
			"emissiveFactor":[
				0.26229405403137207,
				0.5646868348121643,
				0.921515166759491
			],
			"extensions":{
				"KHR_materials_specular":{
					"specularFactor":0
				},
				"KHR_materials_ior":{
					"ior":1.4500000476837158
				}
			},
			"name":"obj_global_emission01",
			"pbrMetallicRoughness":{
				"baseColorFactor":[
					0.2617267668247223,
					0.566400408744812,
					0.9218639135360718,
					1
				],
				"metallicFactor":0
			}
		},
		{
			"doubleSided":true,
			"emissiveFactor":[
				0.07999999821186066,
				0.07999999821186066,
				0.07999999821186066
			],
			"emissiveTexture":{
				"index":0
			},
			"extensions":{
				"KHR_materials_specular":{
					"specularFactor":0
				},
				"KHR_materials_ior":{
					"ior":1.4500000476837158
				}
			},
			"name":"obj_spray",
			"pbrMetallicRoughness":{
				"baseColorTexture":{
					"index":1
				},
				"metallicFactor":0
			}
		}
	],
	"meshes":[
		{
			"name":"Cylinder.016",
			"primitives":[
				{
					"attributes":{
						"POSITION":0,
						"NORMAL":1,
						"TEXCOORD_0":2
					},
					"indices":3,
					"material":0
				},
				{
					"attributes":{
						"POSITION":4,
						"NORMAL":5,
						"TEXCOORD_0":6
					},
					"indices":7,
					"material":1
				}
			]
		},
		{
			"name":"Cylinder.017",
			"primitives":[
				{
					"attributes":{
						"POSITION":8,
						"NORMAL":9,
						"TEXCOORD_0":10
					},
					"indices":11
				}
			]
		}
	],
	"textures":[
		{
			"sampler":0,
			"source":0
		},
		{
			"sampler":0,
			"source":0
		}
	],
	"images":[
		{
			"mimeType":"image/png",
			"name":"obj_spray",
			"uri":"textures/obj_spray.png"
		}
	],
	"accessors":[
		{
			"bufferView":0,
			"componentType":5126,
			"count":117,
			"max":[
				0.042749226093292236,
				0.2567456066608429,
				0.04192940145730972
			],
			"min":[
				-0.04274916276335716,
				0.000355397118255496,
				-0.043568968772888184
			],
			"type":"VEC3"
		},
		{
			"bufferView":1,
			"componentType":5126,
			"count":117,
			"type":"VEC3"
		},
		{
			"bufferView":2,
			"componentType":5126,
			"count":117,
			"type":"VEC2"
		},
		{
			"bufferView":3,
			"componentType":5123,
			"count":312,
			"type":"SCALAR"
		},
		{
			"bufferView":4,
			"componentType":5126,
			"count":99,
			"max":[
				0.042749226093292236,
				0.2695269286632538,
				0.04192940145730972
			],
			"min":[
				-0.04274916276335716,
				0.000355397118255496,
				-0.043568991124629974
			],
			"type":"VEC3"
		},
		{
			"bufferView":5,
			"componentType":5126,
			"count":99,
			"type":"VEC3"
		},
		{
			"bufferView":6,
			"componentType":5126,
			"count":99,
			"type":"VEC2"
		},
		{
			"bufferView":7,
			"componentType":5123,
			"count":288,
			"type":"SCALAR"
		},
		{
			"bufferView":8,
			"componentType":5126,
			"count":80,
			"max":[
				0.05108672007918358,
				0.2712756395339966,
				0.05108672007918358
			],
			"min":[
				-0.05108672007918358,
				-0.0026451528538018465,
				-0.05108672007918358
			],
			"type":"VEC3"
		},
		{
			"bufferView":9,
			"componentType":5126,
			"count":80,
			"type":"VEC3"
		},
		{
			"bufferView":10,
			"componentType":5126,
			"count":80,
			"type":"VEC2"
		},
		{
			"bufferView":11,
			"componentType":5123,
			"count":132,
			"type":"SCALAR"
		}
	],
	"bufferViews":[
		{
			"buffer":0,
			"byteLength":1404,
			"byteOffset":0,
			"target":34962
		},
		{
			"buffer":0,
			"byteLength":1404,
			"byteOffset":1404,
			"target":34962
		},
		{
			"buffer":0,
			"byteLength":936,
			"byteOffset":2808,
			"target":34962
		},
		{
			"buffer":0,
			"byteLength":624,
			"byteOffset":3744,
			"target":34963
		},
		{
			"buffer":0,
			"byteLength":1188,
			"byteOffset":4368,
			"target":34962
		},
		{
			"buffer":0,
			"byteLength":1188,
			"byteOffset":5556,
			"target":34962
		},
		{
			"buffer":0,
			"byteLength":792,
			"byteOffset":6744,
			"target":34962
		},
		{
			"buffer":0,
			"byteLength":576,
			"byteOffset":7536,
			"target":34963
		},
		{
			"buffer":0,
			"byteLength":960,
			"byteOffset":8112,
			"target":34962
		},
		{
			"buffer":0,
			"byteLength":960,
			"byteOffset":9072,
			"target":34962
		},
		{
			"buffer":0,
			"byteLength":640,
			"byteOffset":10032,
			"target":34962
		},
		{
			"buffer":0,
			"byteLength":264,
			"byteOffset":10672,
			"target":34963
		}
	],
	"samplers":[
		{
			"magFilter":9729,
			"minFilter":9987
		}
	],
	"buffers":[
		{
			"byteLength":10936,
			"uri":"obj_spray.bin"
		}
	]
}
