{
	"asset":{
		"generator":"Khronos glTF Blender I/O v4.1.63",
		"version":"2.0"
	},
	"extensionsUsed":[
		"KHR_materials_specular",
		"KHR_materials_ior"
	],
	"scene":0,
	"scenes":[
		{
			"name":"Scene",
			"nodes":[
				0,
				1
			]
		}
	],
	"nodes":[
		{
			"mesh":0,
			"name":"obj_sofa"
		},
		{
			"mesh":1,
			"name":"obj_sofa_collider"
		}
	],
	"materials":[
		{
			"emissiveFactor":[
				1,
				1,
				1
			],
			"emissiveTexture":{
				"index":0
			},
			"extensions":{
				"KHR_materials_specular":{
					"specularFactor":0
				},
				"KHR_materials_ior":{
					"ior":1.4500000476837158
				}
			},
			"name":"obj_sofa",
			"pbrMetallicRoughness":{
				"baseColorTexture":{
					"index":1
				},
				"metallicFactor":0
			}
		},
		{
			"emissiveFactor":[
				0.26229405403137207,
				0.5646868348121643,
				0.921515166759491
			],
			"extensions":{
				"KHR_materials_specular":{
					"specularFactor":0
				},
				"KHR_materials_ior":{
					"ior":1.4500000476837158
				}
			},
			"name":"obj_global_emission01",
			"pbrMetallicRoughness":{
				"baseColorFactor":[
					0.2617267668247223,
					0.566400408744812,
					0.9218639135360718,
					1
				],
				"metallicFactor":0
			}
		}
	],
	"meshes":[
		{
			"name":"Mesh.273",
			"primitives":[
				{
					"attributes":{
						"POSITION":0,
						"NORMAL":1,
						"TEXCOORD_0":2
					},
					"indices":3,
					"material":0
				},
				{
					"attributes":{
						"POSITION":4,
						"NORMAL":5,
						"TEXCOORD_0":6
					},
					"indices":7,
					"material":1
				}
			]
		},
		{
			"name":"Mesh.274",
			"primitives":[
				{
					"attributes":{
						"POSITION":8,
						"NORMAL":9,
						"TEXCOORD_0":10
					},
					"indices":11
				}
			]
		}
	],
	"textures":[
		{
			"sampler":0,
			"source":0
		},
		{
			"sampler":0,
			"source":1
		}
	],
	"images":[
		{
			"mimeType":"image/png",
			"name":"obj_sofa_emission",
			"uri":"textures/obj_sofa_emission.png"
		},
		{
			"mimeType":"image/png",
			"name":"obj_sofa",
			"uri":"textures/obj_sofa.png"
		}
	],
	"accessors":[
		{
			"bufferView":0,
			"componentType":5126,
			"count":835,
			"max":[
				0.17419639229774475,
				1.3843674659729004,
				1.1256381273269653
			],
			"min":[
				-1.1453009843826294,
				-8.498329862050014e-08,
				-1.1256381273269653
			],
			"type":"VEC3"
		},
		{
			"bufferView":1,
			"componentType":5126,
			"count":835,
			"type":"VEC3"
		},
		{
			"bufferView":2,
			"componentType":5126,
			"count":835,
			"type":"VEC2"
		},
		{
			"bufferView":3,
			"componentType":5123,
			"count":2250,
			"type":"SCALAR"
		},
		{
			"bufferView":4,
			"componentType":5126,
			"count":8,
			"max":[
				0.1234876736998558,
				0.1361071765422821,
				0.9625552892684937
			],
			"min":[
				0.1234876736998558,
				-1.7881393432617188e-07,
				-0.9625552892684937
			],
			"type":"VEC3"
		},
		{
			"bufferView":5,
			"componentType":5126,
			"count":8,
			"type":"VEC3"
		},
		{
			"bufferView":6,
			"componentType":5126,
			"count":8,
			"type":"VEC2"
		},
		{
			"bufferView":7,
			"componentType":5123,
			"count":12,
			"type":"SCALAR"
		},
		{
			"bufferView":8,
			"componentType":5126,
			"count":379,
			"max":[
				0.17419639229774475,
				1.3843674659729004,
				1.1256381273269653
			],
			"min":[
				-1.1257625818252563,
				-8.498329862050014e-08,
				-1.1256381273269653
			],
			"type":"VEC3"
		},
		{
			"bufferView":9,
			"componentType":5126,
			"count":379,
			"type":"VEC3"
		},
		{
			"bufferView":10,
			"componentType":5126,
			"count":379,
			"type":"VEC2"
		},
		{
			"bufferView":11,
			"componentType":5123,
			"count":840,
			"type":"SCALAR"
		}
	],
	"bufferViews":[
		{
			"buffer":0,
			"byteLength":10020,
			"byteOffset":0,
			"target":34962
		},
		{
			"buffer":0,
			"byteLength":10020,
			"byteOffset":10020,
			"target":34962
		},
		{
			"buffer":0,
			"byteLength":6680,
			"byteOffset":20040,
			"target":34962
		},
		{
			"buffer":0,
			"byteLength":4500,
			"byteOffset":26720,
			"target":34963
		},
		{
			"buffer":0,
			"byteLength":96,
			"byteOffset":31220,
			"target":34962
		},
		{
			"buffer":0,
			"byteLength":96,
			"byteOffset":31316,
			"target":34962
		},
		{
			"buffer":0,
			"byteLength":64,
			"byteOffset":31412,
			"target":34962
		},
		{
			"buffer":0,
			"byteLength":24,
			"byteOffset":31476,
			"target":34963
		},
		{
			"buffer":0,
			"byteLength":4548,
			"byteOffset":31500,
			"target":34962
		},
		{
			"buffer":0,
			"byteLength":4548,
			"byteOffset":36048,
			"target":34962
		},
		{
			"buffer":0,
			"byteLength":3032,
			"byteOffset":40596,
			"target":34962
		},
		{
			"buffer":0,
			"byteLength":1680,
			"byteOffset":43628,
			"target":34963
		}
	],
	"samplers":[
		{
			"magFilter":9729,
			"minFilter":9987
		}
	],
	"buffers":[
		{
			"byteLength":45308,
			"uri":"obj_sofa.bin"
		}
	]
}
