{
	"asset":{
		"generator":"Khronos glTF Blender I/O v4.2.57",
		"version":"2.0"
	},
	"extensionsUsed":[
		"KHR_materials_specular",
		"KHR_materials_ior"
	],
	"scene":0,
	"scenes":[
		{
			"name":"Scene",
			"nodes":[
				0,
				1
			]
		}
	],
	"nodes":[
		{
			"mesh":0,
			"name":"obj_fence01",
			"translation":[
				0.0010000000474974513,
				0.0010000000474974513,
				-0.0010000000474974513
			]
		},
		{
			"mesh":1,
			"name":"obj_fence01_collider",
			"translation":[
				0.0010000000474974513,
				0.0010000000474974513,
				-0.0010000000474974513
			]
		}
	],
	"materials":[
		{
			"emissiveFactor":[
				1,
				1,
				1
			],
			"emissiveTexture":{
				"index":0
			},
			"extensions":{
				"KHR_materials_specular":{
					"specularFactor":0
				},
				"KHR_materials_ior":{
					"ior":1.4500000476837158
				}
			},
			"name":"obj_fence01",
			"pbrMetallicRoughness":{
				"baseColorTexture":{
					"index":1
				},
				"metallicFactor":0
			}
		}
	],
	"meshes":[
		{
			"name":"Cube.073",
			"primitives":[
				{
					"attributes":{
						"POSITION":0,
						"NORMAL":1,
						"TEXCOORD_0":2
					},
					"indices":3,
					"material":0
				}
			]
		},
		{
			"name":"Cube.005",
			"primitives":[
				{
					"attributes":{
						"POSITION":4,
						"NORMAL":5,
						"TEXCOORD_0":6
					},
					"indices":7
				}
			]
		}
	],
	"textures":[
		{
			"sampler":0,
			"source":0
		},
		{
			"sampler":0,
			"source":1
		}
	],
	"images":[
		{
			"mimeType":"image/png",
			"name":"obj_fence01_emission",
			"uri":"textures/obj_fence01_emission.png"
		},
		{
			"mimeType":"image/png",
			"name":"obj_fence01",
			"uri":"textures/obj_fence01.png"
		}
	],
	"accessors":[
		{
			"bufferView":0,
			"componentType":5126,
			"count":168034,
			"max":[
				51.08795928955078,
				1.6604409217834473,
				-4.1381754875183105
			],
			"min":[
				-11.401130676269531,
				0.2637929320335388,
				-61.4649658203125
			],
			"type":"VEC3"
		},
		{
			"bufferView":1,
			"componentType":5126,
			"count":168034,
			"type":"VEC3"
		},
		{
			"bufferView":2,
			"componentType":5126,
			"count":168034,
			"type":"VEC2"
		},
		{
			"bufferView":3,
			"componentType":5125,
			"count":348708,
			"type":"SCALAR"
		},
		{
			"bufferView":4,
			"componentType":5126,
			"count":4222,
			"max":[
				51.08795928955078,
				1.6604409217834473,
				-4.1381754875183105
			],
			"min":[
				-11.401130676269531,
				0.2637929320335388,
				-61.4649658203125
			],
			"type":"VEC3"
		},
		{
			"bufferView":5,
			"componentType":5126,
			"count":4222,
			"type":"VEC3"
		},
		{
			"bufferView":6,
			"componentType":5126,
			"count":4222,
			"type":"VEC2"
		},
		{
			"bufferView":7,
			"componentType":5123,
			"count":7272,
			"type":"SCALAR"
		}
	],
	"bufferViews":[
		{
			"buffer":0,
			"byteLength":2016408,
			"byteOffset":0,
			"target":34962
		},
		{
			"buffer":0,
			"byteLength":2016408,
			"byteOffset":2016408,
			"target":34962
		},
		{
			"buffer":0,
			"byteLength":1344272,
			"byteOffset":4032816,
			"target":34962
		},
		{
			"buffer":0,
			"byteLength":1394832,
			"byteOffset":5377088,
			"target":34963
		},
		{
			"buffer":0,
			"byteLength":50664,
			"byteOffset":6771920,
			"target":34962
		},
		{
			"buffer":0,
			"byteLength":50664,
			"byteOffset":6822584,
			"target":34962
		},
		{
			"buffer":0,
			"byteLength":33776,
			"byteOffset":6873248,
			"target":34962
		},
		{
			"buffer":0,
			"byteLength":14544,
			"byteOffset":6907024,
			"target":34963
		}
	],
	"samplers":[
		{
			"magFilter":9729,
			"minFilter":9987
		}
	],
	"buffers":[
		{
			"byteLength":6921568,
			"uri":"obj_fence01.bin"
		}
	]
}
