{
	"asset":{
		"generator":"Khronos glTF Blender I/O v4.3.47",
		"version":"2.0"
	},
	"extensionsUsed":[
		"KHR_materials_specular"
	],
	"scene":0,
	"scenes":[
		{
			"name":"Scene",
			"nodes":[
				0,
				1
			]
		}
	],
	"nodes":[
		{
			"mesh":0,
			"name":"obj_stack"
		},
		{
			"mesh":1,
			"name":"obj_stack_collider"
		}
	],
	"materials":[
		{
			"emissiveFactor":[
				1,
				1,
				1
			],
			"emissiveTexture":{
				"index":0
			},
			"extensions":{
				"KHR_materials_specular":{
					"specularFactor":0
				}
			},
			"name":"obj_scrystal",
			"pbrMetallicRoughness":{
				"baseColorTexture":{
					"index":1
				},
				"metallicFactor":0
			}
		},
		{
			"emissiveFactor":[
				0.10000000149011612,
				0.10000000149011612,
				0.10000000149011612
			],
			"emissiveTexture":{
				"index":2
			},
			"extensions":{
				"KHR_materials_specular":{
					"specularFactor":0
				}
			},
			"name":"obj_stack",
			"pbrMetallicRoughness":{
				"baseColorTexture":{
					"index":3
				},
				"metallicFactor":0
			}
		}
	],
	"meshes":[
		{
			"name":"obj_stack",
			"primitives":[
				{
					"attributes":{
						"POSITION":0,
						"NORMAL":1,
						"TEXCOORD_0":2
					},
					"indices":3,
					"material":0
				},
				{
					"attributes":{
						"POSITION":4,
						"NORMAL":5,
						"TEXCOORD_0":6
					},
					"indices":7,
					"material":1
				}
			]
		},
		{
			"name":"obj_stack_collider",
			"primitives":[
				{
					"attributes":{
						"POSITION":8,
						"NORMAL":9,
						"TEXCOORD_0":10
					},
					"indices":11
				}
			]
		}
	],
	"textures":[
		{
			"sampler":0,
			"source":0
		},
		{
			"sampler":0,
			"source":1
		},
		{
			"sampler":0,
			"source":2
		},
		{
			"sampler":0,
			"source":2
		}
	],
	"images":[
		{
			"mimeType":"image/png",
			"name":"obj_scrystal_emission",
			"uri":"textures/obj_scrystal_emission.png"
		},
		{
			"mimeType":"image/png",
			"name":"obj_scrystal",
			"uri":"textures/obj_scrystal.png"
		},
		{
			"mimeType":"image/png",
			"name":"obj_stack",
			"uri":"textures/obj_stack.png"
		}
	],
	"accessors":[
		{
			"bufferView":0,
			"componentType":5126,
			"count":7560,
			"max":[
				-34.53619384765625,
				21.80384063720703,
				-44.843482971191406
			],
			"min":[
				-56.18162155151367,
				19.733116149902344,
				-69.72847747802734
			],
			"type":"VEC3"
		},
		{
			"bufferView":1,
			"componentType":5126,
			"count":7560,
			"type":"VEC3"
		},
		{
			"bufferView":2,
			"componentType":5126,
			"count":7560,
			"type":"VEC2"
		},
		{
			"bufferView":3,
			"componentType":5123,
			"count":12960,
			"type":"SCALAR"
		},
		{
			"bufferView":4,
			"componentType":5126,
			"count":9936,
			"max":[
				62.471885681152344,
				21.664682388305664,
				-18.352954864501953
			],
			"min":[
				-58.96112823486328,
				17.25,
				-71.95795440673828
			],
			"type":"VEC3"
		},
		{
			"bufferView":5,
			"componentType":5126,
			"count":9936,
			"type":"VEC3"
		},
		{
			"bufferView":6,
			"componentType":5126,
			"count":9936,
			"type":"VEC2"
		},
		{
			"bufferView":7,
			"componentType":5123,
			"count":22908,
			"type":"SCALAR"
		},
		{
			"bufferView":8,
			"componentType":5126,
			"count":670,
			"max":[
				62.503421783447266,
				21.762039184570312,
				-18.339675903320312
			],
			"min":[
				-59.00169372558594,
				17.25,
				-71.9580078125
			],
			"type":"VEC3"
		},
		{
			"bufferView":9,
			"componentType":5126,
			"count":670,
			"type":"VEC3"
		},
		{
			"bufferView":10,
			"componentType":5126,
			"count":670,
			"type":"VEC2"
		},
		{
			"bufferView":11,
			"componentType":5123,
			"count":1752,
			"type":"SCALAR"
		}
	],
	"bufferViews":[
		{
			"buffer":0,
			"byteLength":90720,
			"byteOffset":0,
			"target":34962
		},
		{
			"buffer":0,
			"byteLength":90720,
			"byteOffset":90720,
			"target":34962
		},
		{
			"buffer":0,
			"byteLength":60480,
			"byteOffset":181440,
			"target":34962
		},
		{
			"buffer":0,
			"byteLength":25920,
			"byteOffset":241920,
			"target":34963
		},
		{
			"buffer":0,
			"byteLength":119232,
			"byteOffset":267840,
			"target":34962
		},
		{
			"buffer":0,
			"byteLength":119232,
			"byteOffset":387072,
			"target":34962
		},
		{
			"buffer":0,
			"byteLength":79488,
			"byteOffset":506304,
			"target":34962
		},
		{
			"buffer":0,
			"byteLength":45816,
			"byteOffset":585792,
			"target":34963
		},
		{
			"buffer":0,
			"byteLength":8040,
			"byteOffset":631608,
			"target":34962
		},
		{
			"buffer":0,
			"byteLength":8040,
			"byteOffset":639648,
			"target":34962
		},
		{
			"buffer":0,
			"byteLength":5360,
			"byteOffset":647688,
			"target":34962
		},
		{
			"buffer":0,
			"byteLength":3504,
			"byteOffset":653048,
			"target":34963
		}
	],
	"samplers":[
		{
			"magFilter":9729,
			"minFilter":9987
		}
	],
	"buffers":[
		{
			"byteLength":656552,
			"uri":"obj_stack.bin"
		}
	]
}
