{
	"asset":{
		"generator":"Khronos glTF Blender I/O v4.1.63",
		"version":"2.0"
	},
	"extensionsUsed":[
		"KHR_materials_specular",
		"KHR_materials_ior"
	],
	"scene":0,
	"scenes":[
		{
			"name":"Scene",
			"nodes":[
				0,
				1
			]
		}
	],
	"nodes":[
		{
			"mesh":0,
			"name":"obj_pavilion_collider"
		},
		{
			"mesh":1,
			"name":"obj_pavilion"
		}
	],
	"materials":[
		{
			"emissiveFactor":[
				0.10000000149011612,
				0.10000000149011612,
				0.10000000149011612
			],
			"emissiveTexture":{
				"index":0
			},
			"extensions":{
				"KHR_materials_specular":{
					"specularFactor":0
				},
				"KHR_materials_ior":{
					"ior":1.4500000476837158
				}
			},
			"name":"obj_pavilion01_07",
			"pbrMetallicRoughness":{
				"baseColorTexture":{
					"index":1
				},
				"metallicFactor":0
			}
		},
		{
			"emissiveFactor":[
				1,
				1,
				1
			],
			"emissiveTexture":{
				"index":2
			},
			"extensions":{
				"KHR_materials_specular":{
					"specularFactor":0
				},
				"KHR_materials_ior":{
					"ior":1.4500000476837158
				}
			},
			"name":"obj_pavilion01_06",
			"pbrMetallicRoughness":{
				"baseColorTexture":{
					"index":3
				},
				"metallicFactor":0
			}
		},
		{
			"emissiveFactor":[
				1,
				1,
				1
			],
			"emissiveTexture":{
				"index":4
			},
			"extensions":{
				"KHR_materials_specular":{
					"specularFactor":0
				},
				"KHR_materials_ior":{
					"ior":1.4500000476837158
				}
			},
			"name":"obj_pavilion01_02",
			"pbrMetallicRoughness":{
				"baseColorTexture":{
					"index":5
				},
				"metallicFactor":0
			}
		},
		{
			"emissiveFactor":[
				1,
				1,
				1
			],
			"emissiveTexture":{
				"index":6
			},
			"extensions":{
				"KHR_materials_specular":{
					"specularFactor":0
				},
				"KHR_materials_ior":{
					"ior":1.4500000476837158
				}
			},
			"name":"obj_pavilion01_01",
			"pbrMetallicRoughness":{
				"baseColorTexture":{
					"index":7
				},
				"metallicFactor":0
			}
		},
		{
			"emissiveFactor":[
				0.10000000149011612,
				0.10000000149011612,
				0.10000000149011612
			],
			"emissiveTexture":{
				"index":8
			},
			"extensions":{
				"KHR_materials_specular":{
					"specularFactor":0
				},
				"KHR_materials_ior":{
					"ior":1.4500000476837158
				}
			},
			"name":"obj_pavilion01_03",
			"pbrMetallicRoughness":{
				"baseColorTexture":{
					"index":9
				},
				"metallicFactor":0
			}
		},
		{
			"emissiveFactor":[
				1,
				1,
				1
			],
			"emissiveTexture":{
				"index":10
			},
			"extensions":{
				"KHR_materials_specular":{
					"specularFactor":0
				},
				"KHR_materials_ior":{
					"ior":1.4500000476837158
				}
			},
			"name":"obj_pavilion01_04",
			"pbrMetallicRoughness":{
				"baseColorTexture":{
					"index":11
				},
				"metallicFactor":0
			}
		},
		{
			"emissiveFactor":[
				0.10000000149011612,
				0.10000000149011612,
				0.10000000149011612
			],
			"emissiveTexture":{
				"index":12
			},
			"name":"obj_pavilion01_05",
			"pbrMetallicRoughness":{
				"baseColorTexture":{
					"index":13
				},
				"metallicFactor":0,
				"roughnessFactor":0.5527864098548889
			}
		},
		{
			"emissiveFactor":[
				0.26229405403137207,
				0.5646868348121643,
				0.921515166759491
			],
			"extensions":{
				"KHR_materials_specular":{
					"specularFactor":0
				},
				"KHR_materials_ior":{
					"ior":1.4500000476837158
				}
			},
			"name":"obj_global_emission01",
			"pbrMetallicRoughness":{
				"baseColorFactor":[
					0.2617267668247223,
					0.566400408744812,
					0.9218639135360718,
					1
				],
				"metallicFactor":0
			}
		}
	],
	"meshes":[
		{
			"name":"Mesh.449",
			"primitives":[
				{
					"attributes":{
						"POSITION":0,
						"NORMAL":1,
						"TEXCOORD_0":2
					},
					"indices":3
				}
			]
		},
		{
			"name":"Mesh.447",
			"primitives":[
				{
					"attributes":{
						"POSITION":4,
						"NORMAL":5,
						"TEXCOORD_0":6
					},
					"indices":7,
					"material":0
				},
				{
					"attributes":{
						"POSITION":8,
						"NORMAL":9,
						"TEXCOORD_0":10
					},
					"indices":11,
					"material":1
				},
				{
					"attributes":{
						"POSITION":12,
						"NORMAL":13,
						"TEXCOORD_0":14
					},
					"indices":15,
					"material":2
				},
				{
					"attributes":{
						"POSITION":16,
						"NORMAL":17,
						"TEXCOORD_0":18
					},
					"indices":19,
					"material":3
				},
				{
					"attributes":{
						"POSITION":20,
						"NORMAL":21,
						"TEXCOORD_0":22
					},
					"indices":23,
					"material":4
				},
				{
					"attributes":{
						"POSITION":24,
						"NORMAL":25,
						"TEXCOORD_0":26
					},
					"indices":27,
					"material":5
				},
				{
					"attributes":{
						"POSITION":28,
						"NORMAL":29,
						"TEXCOORD_0":30
					},
					"indices":31,
					"material":6
				},
				{
					"attributes":{
						"POSITION":32,
						"NORMAL":33,
						"TEXCOORD_0":34
					},
					"indices":35,
					"material":7
				}
			]
		}
	],
	"textures":[
		{
			"sampler":0,
			"source":0
		},
		{
			"sampler":0,
			"source":0
		},
		{
			"sampler":0,
			"source":1
		},
		{
			"sampler":0,
			"source":2
		},
		{
			"sampler":0,
			"source":3
		},
		{
			"sampler":0,
			"source":4
		},
		{
			"sampler":0,
			"source":5
		},
		{
			"sampler":0,
			"source":6
		},
		{
			"sampler":0,
			"source":7
		},
		{
			"sampler":0,
			"source":7
		},
		{
			"sampler":0,
			"source":8
		},
		{
			"sampler":0,
			"source":9
		},
		{
			"sampler":0,
			"source":10
		},
		{
			"sampler":0,
			"source":10
		}
	],
	"images":[
		{
			"mimeType":"image/png",
			"name":"obj_pavilion01_07",
			"uri":"textures/obj_pavilion01_07.png"
		},
		{
			"mimeType":"image/png",
			"name":"obj_pavilion01_06_emission",
			"uri":"textures/obj_pavilion01_06_emission.png"
		},
		{
			"mimeType":"image/png",
			"name":"obj_pavilion01_06",
			"uri":"textures/obj_pavilion01_06.png"
		},
		{
			"mimeType":"image/png",
			"name":"obj_pavilion01_02_emission",
			"uri":"textures/obj_pavilion01_02_emission.png"
		},
		{
			"mimeType":"image/png",
			"name":"obj_pavilion01_02",
			"uri":"textures/obj_pavilion01_02.png"
		},
		{
			"mimeType":"image/png",
			"name":"obj_pavilion01_01_emission",
			"uri":"textures/obj_pavilion01_01_emission.png"
		},
		{
			"mimeType":"image/png",
			"name":"obj_pavilion01_01",
			"uri":"textures/obj_pavilion01_01.png"
		},
		{
			"mimeType":"image/png",
			"name":"obj_pavilion01_03",
			"uri":"textures/obj_pavilion01_03.png"
		},
		{
			"mimeType":"image/png",
			"name":"obj_pavilion01_04_emission",
			"uri":"textures/obj_pavilion01_04_emission.png"
		},
		{
			"mimeType":"image/png",
			"name":"obj_pavilion01_04",
			"uri":"textures/obj_pavilion01_04.png"
		},
		{
			"mimeType":"image/png",
			"name":"obj_pavilion01_05",
			"uri":"textures/obj_pavilion01_05.png"
		}
	],
	"accessors":[
		{
			"bufferView":0,
			"componentType":5126,
			"count":3063,
			"max":[
				8.549886703491211,
				15.349004745483398,
				8.549888610839844
			],
			"min":[
				-8.549886703491211,
				-0.02000175043940544,
				-8.549888610839844
			],
			"type":"VEC3"
		},
		{
			"bufferView":1,
			"componentType":5126,
			"count":3063,
			"type":"VEC3"
		},
		{
			"bufferView":2,
			"componentType":5126,
			"count":3063,
			"type":"VEC2"
		},
		{
			"bufferView":3,
			"componentType":5123,
			"count":5502,
			"type":"SCALAR"
		},
		{
			"bufferView":4,
			"componentType":5126,
			"count":386,
			"max":[
				5.859795093536377,
				0.3785054385662079,
				5.86005973815918
			],
			"min":[
				-5.859848499298096,
				0.206687331199646,
				-5.859583854675293
			],
			"type":"VEC3"
		},
		{
			"bufferView":5,
			"componentType":5126,
			"count":386,
			"type":"VEC3"
		},
		{
			"bufferView":6,
			"componentType":5126,
			"count":386,
			"type":"VEC2"
		},
		{
			"bufferView":7,
			"componentType":5123,
			"count":768,
			"type":"SCALAR"
		},
		{
			"bufferView":8,
			"componentType":5126,
			"count":321,
			"max":[
				3.1903719902038574,
				0.4672301113605499,
				3.190635919570923
			],
			"min":[
				-3.190425395965576,
				0.37850454449653625,
				-3.190159797668457
			],
			"type":"VEC3"
		},
		{
			"bufferView":9,
			"componentType":5126,
			"count":321,
			"type":"VEC3"
		},
		{
			"bufferView":10,
			"componentType":5126,
			"count":321,
			"type":"VEC2"
		},
		{
			"bufferView":11,
			"componentType":5123,
			"count":1056,
			"type":"SCALAR"
		},
		{
			"bufferView":12,
			"componentType":5126,
			"count":594,
			"max":[
				5.655358791351318,
				13.86724853515625,
				5.655353546142578
			],
			"min":[
				-5.655358791351318,
				9.416621208190918,
				-5.6553544998168945
			],
			"type":"VEC3"
		},
		{
			"bufferView":13,
			"componentType":5126,
			"count":594,
			"type":"VEC3"
		},
		{
			"bufferView":14,
			"componentType":5126,
			"count":594,
			"type":"VEC2"
		},
		{
			"bufferView":15,
			"componentType":5123,
			"count":2304,
			"type":"SCALAR"
		},
		{
			"bufferView":16,
			"componentType":5126,
			"count":594,
			"max":[
				6.926661014556885,
				15.099172592163086,
				6.9266557693481445
			],
			"min":[
				-6.926661014556885,
				9.416620254516602,
				-6.926656723022461
			],
			"type":"VEC3"
		},
		{
			"bufferView":17,
			"componentType":5126,
			"count":594,
			"type":"VEC3"
		},
		{
			"bufferView":18,
			"componentType":5126,
			"count":594,
			"type":"VEC2"
		},
		{
			"bufferView":19,
			"componentType":5123,
			"count":2304,
			"type":"SCALAR"
		},
		{
			"bufferView":20,
			"componentType":5126,
			"count":996,
			"max":[
				7.232386112213135,
				15.349004745483398,
				7.232388019561768
			],
			"min":[
				-7.232386112213135,
				0.15051305294036865,
				-7.232388019561768
			],
			"type":"VEC3"
		},
		{
			"bufferView":21,
			"componentType":5126,
			"count":996,
			"type":"VEC3"
		},
		{
			"bufferView":22,
			"componentType":5126,
			"count":996,
			"type":"VEC2"
		},
		{
			"bufferView":23,
			"componentType":5123,
			"count":2784,
			"type":"SCALAR"
		},
		{
			"bufferView":24,
			"componentType":5126,
			"count":1594,
			"max":[
				8.53381061553955,
				9.434158325195312,
				8.560470581054688
			],
			"min":[
				-8.53381061553955,
				-0.020000645890831947,
				-8.560470581054688
			],
			"type":"VEC3"
		},
		{
			"bufferView":25,
			"componentType":5126,
			"count":1594,
			"type":"VEC3"
		},
		{
			"bufferView":26,
			"componentType":5126,
			"count":1594,
			"type":"VEC2"
		},
		{
			"bufferView":27,
			"componentType":5123,
			"count":4200,
			"type":"SCALAR"
		},
		{
			"bufferView":28,
			"componentType":5126,
			"count":2016,
			"max":[
				6.875821590423584,
				8.54496955871582,
				6.860641956329346
			],
			"min":[
				-6.867441177368164,
				0.37999945878982544,
				-6.868285179138184
			],
			"type":"VEC3"
		},
		{
			"bufferView":29,
			"componentType":5126,
			"count":2016,
			"type":"VEC3"
		},
		{
			"bufferView":30,
			"componentType":5126,
			"count":2016,
			"type":"VEC2"
		},
		{
			"bufferView":31,
			"componentType":5123,
			"count":3888,
			"type":"SCALAR"
		},
		{
			"bufferView":32,
			"componentType":5126,
			"count":267,
			"max":[
				8.53381061553955,
				0.18000063300132751,
				8.560470581054688
			],
			"min":[
				-8.53381061553955,
				0.14499935507774353,
				-8.560470581054688
			],
			"type":"VEC3"
		},
		{
			"bufferView":33,
			"componentType":5126,
			"count":267,
			"type":"VEC3"
		},
		{
			"bufferView":34,
			"componentType":5126,
			"count":267,
			"type":"VEC2"
		},
		{
			"bufferView":35,
			"componentType":5123,
			"count":480,
			"type":"SCALAR"
		}
	],
	"bufferViews":[
		{
			"buffer":0,
			"byteLength":36756,
			"byteOffset":0,
			"target":34962
		},
		{
			"buffer":0,
			"byteLength":36756,
			"byteOffset":36756,
			"target":34962
		},
		{
			"buffer":0,
			"byteLength":24504,
			"byteOffset":73512,
			"target":34962
		},
		{
			"buffer":0,
			"byteLength":11004,
			"byteOffset":98016,
			"target":34963
		},
		{
			"buffer":0,
			"byteLength":4632,
			"byteOffset":109020,
			"target":34962
		},
		{
			"buffer":0,
			"byteLength":4632,
			"byteOffset":113652,
			"target":34962
		},
		{
			"buffer":0,
			"byteLength":3088,
			"byteOffset":118284,
			"target":34962
		},
		{
			"buffer":0,
			"byteLength":1536,
			"byteOffset":121372,
			"target":34963
		},
		{
			"buffer":0,
			"byteLength":3852,
			"byteOffset":122908,
			"target":34962
		},
		{
			"buffer":0,
			"byteLength":3852,
			"byteOffset":126760,
			"target":34962
		},
		{
			"buffer":0,
			"byteLength":2568,
			"byteOffset":130612,
			"target":34962
		},
		{
			"buffer":0,
			"byteLength":2112,
			"byteOffset":133180,
			"target":34963
		},
		{
			"buffer":0,
			"byteLength":7128,
			"byteOffset":135292,
			"target":34962
		},
		{
			"buffer":0,
			"byteLength":7128,
			"byteOffset":142420,
			"target":34962
		},
		{
			"buffer":0,
			"byteLength":4752,
			"byteOffset":149548,
			"target":34962
		},
		{
			"buffer":0,
			"byteLength":4608,
			"byteOffset":154300,
			"target":34963
		},
		{
			"buffer":0,
			"byteLength":7128,
			"byteOffset":158908,
			"target":34962
		},
		{
			"buffer":0,
			"byteLength":7128,
			"byteOffset":166036,
			"target":34962
		},
		{
			"buffer":0,
			"byteLength":4752,
			"byteOffset":173164,
			"target":34962
		},
		{
			"buffer":0,
			"byteLength":4608,
			"byteOffset":177916,
			"target":34963
		},
		{
			"buffer":0,
			"byteLength":11952,
			"byteOffset":182524,
			"target":34962
		},
		{
			"buffer":0,
			"byteLength":11952,
			"byteOffset":194476,
			"target":34962
		},
		{
			"buffer":0,
			"byteLength":7968,
			"byteOffset":206428,
			"target":34962
		},
		{
			"buffer":0,
			"byteLength":5568,
			"byteOffset":214396,
			"target":34963
		},
		{
			"buffer":0,
			"byteLength":19128,
			"byteOffset":219964,
			"target":34962
		},
		{
			"buffer":0,
			"byteLength":19128,
			"byteOffset":239092,
			"target":34962
		},
		{
			"buffer":0,
			"byteLength":12752,
			"byteOffset":258220,
			"target":34962
		},
		{
			"buffer":0,
			"byteLength":8400,
			"byteOffset":270972,
			"target":34963
		},
		{
			"buffer":0,
			"byteLength":24192,
			"byteOffset":279372,
			"target":34962
		},
		{
			"buffer":0,
			"byteLength":24192,
			"byteOffset":303564,
			"target":34962
		},
		{
			"buffer":0,
			"byteLength":16128,
			"byteOffset":327756,
			"target":34962
		},
		{
			"buffer":0,
			"byteLength":7776,
			"byteOffset":343884,
			"target":34963
		},
		{
			"buffer":0,
			"byteLength":3204,
			"byteOffset":351660,
			"target":34962
		},
		{
			"buffer":0,
			"byteLength":3204,
			"byteOffset":354864,
			"target":34962
		},
		{
			"buffer":0,
			"byteLength":2136,
			"byteOffset":358068,
			"target":34962
		},
		{
			"buffer":0,
			"byteLength":960,
			"byteOffset":360204,
			"target":34963
		}
	],
	"samplers":[
		{
			"magFilter":9729,
			"minFilter":9987
		}
	],
	"buffers":[
		{
			"byteLength":361164,
			"uri":"obj_pavilion.bin"
		}
	]
}
