{
	"asset":{
		"generator":"Khronos glTF Blender I/O v4.1.63",
		"version":"2.0"
	},
	"extensionsUsed":[
		"KHR_materials_specular",
		"KHR_materials_ior"
	],
	"scene":0,
	"scenes":[
		{
			"name":"Scene",
			"nodes":[
				0,
				1
			]
		}
	],
	"nodes":[
		{
			"mesh":0,
			"name":"obj_borders02"
		},
		{
			"mesh":1,
			"name":"obj_borders02_collider"
		}
	],
	"materials":[
		{
			"emissiveFactor":[
				0.08500204809013079,
				0.09007176891076218,
				0.10000240951780093
			],
			"emissiveTexture":{
				"index":0
			},
			"extensions":{
				"KHR_materials_specular":{
					"specularFactor":0
				},
				"KHR_materials_ior":{
					"ior":1.4500000476837158
				}
			},
			"name":"obj_borders",
			"pbrMetallicRoughness":{
				"baseColorFactor":[
					0.8500204682350159,
					0.9007176756858826,
					1,
					1
				],
				"baseColorTexture":{
					"index":1
				},
				"metallicFactor":0
			}
		},
		{
			"emissiveFactor":[
				0.9215658903121948,
				0.7304738759994507,
				0.16513018310070038
			],
			"extensions":{
				"KHR_materials_specular":{
					"specularFactor":0
				},
				"KHR_materials_ior":{
					"ior":1.4500000476837158
				}
			},
			"name":"obj_global_emission02",
			"pbrMetallicRoughness":{
				"baseColorFactor":[
					0.9203937649726868,
					0.7313708662986755,
					0.1655372530221939,
					1
				],
				"metallicFactor":0
			}
		}
	],
	"meshes":[
		{
			"name":"Plane.007",
			"primitives":[
				{
					"attributes":{
						"POSITION":0,
						"NORMAL":1,
						"TEXCOORD_0":2
					},
					"indices":3,
					"material":0
				},
				{
					"attributes":{
						"POSITION":4,
						"NORMAL":5,
						"TEXCOORD_0":6
					},
					"indices":7,
					"material":1
				}
			]
		},
		{
			"name":"Plane.018",
			"primitives":[
				{
					"attributes":{
						"POSITION":8,
						"NORMAL":9,
						"TEXCOORD_0":10
					},
					"indices":11
				}
			]
		}
	],
	"textures":[
		{
			"sampler":0,
			"source":0
		},
		{
			"sampler":0,
			"source":0
		}
	],
	"images":[
		{
			"mimeType":"image/png",
			"name":"obj_borders",
			"uri":"textures/obj_borders.png"
		}
	],
	"accessors":[
		{
			"bufferView":0,
			"componentType":5126,
			"count":9462,
			"max":[
				-2.853395938873291,
				0.17771604657173157,
				-2.8369555473327637
			],
			"min":[
				-52.287445068359375,
				0.04445543885231018,
				-62.65060806274414
			],
			"type":"VEC3"
		},
		{
			"bufferView":1,
			"componentType":5126,
			"count":9462,
			"type":"VEC3"
		},
		{
			"bufferView":2,
			"componentType":5126,
			"count":9462,
			"type":"VEC2"
		},
		{
			"bufferView":3,
			"componentType":5123,
			"count":18246,
			"type":"SCALAR"
		},
		{
			"bufferView":4,
			"componentType":5126,
			"count":2467,
			"max":[
				-2.931530475616455,
				0.1345381736755371,
				-2.915132761001587
			],
			"min":[
				-52.20928192138672,
				0.10453689098358154,
				-62.5723991394043
			],
			"type":"VEC3"
		},
		{
			"bufferView":5,
			"componentType":5126,
			"count":2467,
			"type":"VEC3"
		},
		{
			"bufferView":6,
			"componentType":5126,
			"count":2467,
			"type":"VEC2"
		},
		{
			"bufferView":7,
			"componentType":5123,
			"count":3882,
			"type":"SCALAR"
		},
		{
			"bufferView":8,
			"componentType":5126,
			"count":1298,
			"max":[
				-2.8550901412963867,
				0.17771604657173157,
				-2.8369555473327637
			],
			"min":[
				-52.28744125366211,
				0.04445561766624451,
				-62.65060806274414
			],
			"type":"VEC3"
		},
		{
			"bufferView":9,
			"componentType":5126,
			"count":1298,
			"type":"VEC3"
		},
		{
			"bufferView":10,
			"componentType":5126,
			"count":1298,
			"type":"VEC2"
		},
		{
			"bufferView":11,
			"componentType":5123,
			"count":2919,
			"type":"SCALAR"
		}
	],
	"bufferViews":[
		{
			"buffer":0,
			"byteLength":113544,
			"byteOffset":0,
			"target":34962
		},
		{
			"buffer":0,
			"byteLength":113544,
			"byteOffset":113544,
			"target":34962
		},
		{
			"buffer":0,
			"byteLength":75696,
			"byteOffset":227088,
			"target":34962
		},
		{
			"buffer":0,
			"byteLength":36492,
			"byteOffset":302784,
			"target":34963
		},
		{
			"buffer":0,
			"byteLength":29604,
			"byteOffset":339276,
			"target":34962
		},
		{
			"buffer":0,
			"byteLength":29604,
			"byteOffset":368880,
			"target":34962
		},
		{
			"buffer":0,
			"byteLength":19736,
			"byteOffset":398484,
			"target":34962
		},
		{
			"buffer":0,
			"byteLength":7764,
			"byteOffset":418220,
			"target":34963
		},
		{
			"buffer":0,
			"byteLength":15576,
			"byteOffset":425984,
			"target":34962
		},
		{
			"buffer":0,
			"byteLength":15576,
			"byteOffset":441560,
			"target":34962
		},
		{
			"buffer":0,
			"byteLength":10384,
			"byteOffset":457136,
			"target":34962
		},
		{
			"buffer":0,
			"byteLength":5838,
			"byteOffset":467520,
			"target":34963
		}
	],
	"samplers":[
		{
			"magFilter":9729,
			"minFilter":9987
		}
	],
	"buffers":[
		{
			"byteLength":473360,
			"uri":"obj_borders02.bin"
		}
	]
}
