{
	"asset":{
		"generator":"Khronos glTF Blender I/O v4.1.63",
		"version":"2.0"
	},
	"extensionsUsed":[
		"KHR_materials_specular",
		"KHR_materials_ior"
	],
	"scene":0,
	"scenes":[
		{
			"name":"Scene",
			"nodes":[
				0
			]
		}
	],
	"nodes":[
		{
			"mesh":0,
			"name":"obj_timeline"
		}
	],
	"materials":[
		{
			"doubleSided":true,
			"emissiveFactor":[
				0.26229405403137207,
				0.5646868348121643,
				0.921515166759491
			],
			"extensions":{
				"KHR_materials_specular":{
					"specularFactor":0
				},
				"KHR_materials_ior":{
					"ior":1.4500000476837158
				}
			},
			"name":"obj_global_emission01",
			"pbrMetallicRoughness":{
				"baseColorFactor":[
					0.2617267668247223,
					0.566400408744812,
					0.9218639135360718,
					1
				],
				"metallicFactor":0
			}
		}
	],
	"meshes":[
		{
			"name":"Circle.004",
			"primitives":[
				{
					"attributes":{
						"POSITION":0,
						"NORMAL":1,
						"TEXCOORD_0":2
					},
					"indices":3,
					"material":0
				}
			]
		}
	],
	"accessors":[
		{
			"bufferView":0,
			"componentType":5126,
			"count":2553,
			"max":[
				17.159029006958008,
				4.978879451751709,
				5.3368821144104
			],
			"min":[
				-17.15863609313965,
				1.1265852451324463,
				-17.148183822631836
			],
			"type":"VEC3"
		},
		{
			"bufferView":1,
			"componentType":5126,
			"count":2553,
			"type":"VEC3"
		},
		{
			"bufferView":2,
			"componentType":5126,
			"count":2553,
			"type":"VEC2"
		},
		{
			"bufferView":3,
			"componentType":5123,
			"count":4188,
			"type":"SCALAR"
		}
	],
	"bufferViews":[
		{
			"buffer":0,
			"byteLength":30636,
			"byteOffset":0,
			"target":34962
		},
		{
			"buffer":0,
			"byteLength":30636,
			"byteOffset":30636,
			"target":34962
		},
		{
			"buffer":0,
			"byteLength":20424,
			"byteOffset":61272,
			"target":34962
		},
		{
			"buffer":0,
			"byteLength":8376,
			"byteOffset":81696,
			"target":34963
		}
	],
	"buffers":[
		{
			"byteLength":90072,
			"uri":"obj_timeline.bin"
		}
	]
}
