{
	"asset":{
		"generator":"Khronos glTF Blender I/O v4.1.63",
		"version":"2.0"
	},
	"extensionsUsed":[
		"KHR_materials_specular",
		"KHR_materials_ior"
	],
	"scene":0,
	"scenes":[
		{
			"name":"Scene",
			"nodes":[
				0,
				1
			]
		}
	],
	"nodes":[
		{
			"mesh":0,
			"name":"obj_atom"
		},
		{
			"mesh":1,
			"name":"obj_atom_collider"
		}
	],
	"materials":[
		{
			"emissiveFactor":[
				1,
				1,
				1
			],
			"emissiveTexture":{
				"index":0
			},
			"extensions":{
				"KHR_materials_specular":{
					"specularFactor":0
				},
				"KHR_materials_ior":{
					"ior":1.4500000476837158
				}
			},
			"name":"obj_atom01",
			"pbrMetallicRoughness":{
				"baseColorTexture":{
					"index":1
				},
				"metallicFactor":0
			}
		},
		{
			"emissiveFactor":[
				1,
				1,
				1
			],
			"emissiveTexture":{
				"index":2
			},
			"extensions":{
				"KHR_materials_specular":{
					"specularFactor":0
				},
				"KHR_materials_ior":{
					"ior":1.4500000476837158
				}
			},
			"name":"obj_atom02",
			"pbrMetallicRoughness":{
				"baseColorTexture":{
					"index":3
				},
				"metallicFactor":0
			}
		}
	],
	"meshes":[
		{
			"name":"Mesh.034",
			"primitives":[
				{
					"attributes":{
						"POSITION":0,
						"NORMAL":1,
						"TEXCOORD_0":2
					},
					"indices":3,
					"material":0
				},
				{
					"attributes":{
						"POSITION":4,
						"NORMAL":5,
						"TEXCOORD_0":6
					},
					"indices":7,
					"material":1
				}
			]
		},
		{
			"name":"Mesh.035",
			"primitives":[
				{
					"attributes":{
						"POSITION":8,
						"NORMAL":9,
						"TEXCOORD_0":10
					},
					"indices":11
				}
			]
		}
	],
	"textures":[
		{
			"sampler":0,
			"source":0
		},
		{
			"sampler":0,
			"source":1
		},
		{
			"sampler":0,
			"source":2
		},
		{
			"sampler":0,
			"source":3
		}
	],
	"images":[
		{
			"mimeType":"image/png",
			"name":"obj_atom01_emission",
			"uri":"textures/obj_atom01_emission.png"
		},
		{
			"mimeType":"image/png",
			"name":"obj_atom01",
			"uri":"textures/obj_atom01.png"
		},
		{
			"mimeType":"image/png",
			"name":"obj_atom02_emission",
			"uri":"textures/obj_atom02_emission.png"
		},
		{
			"mimeType":"image/png",
			"name":"obj_atom02",
			"uri":"textures/obj_atom02.png"
		}
	],
	"accessors":[
		{
			"bufferView":0,
			"componentType":5126,
			"count":1810,
			"max":[
				1.5081440210342407,
				4.574702262878418,
				1.5944191217422485
			],
			"min":[
				-1.5435115098953247,
				3.569532632827759,
				-1.5944197177886963
			],
			"type":"VEC3"
		},
		{
			"bufferView":1,
			"componentType":5126,
			"count":1810,
			"type":"VEC3"
		},
		{
			"bufferView":2,
			"componentType":5126,
			"count":1810,
			"type":"VEC2"
		},
		{
			"bufferView":3,
			"componentType":5123,
			"count":4428,
			"type":"SCALAR"
		},
		{
			"bufferView":4,
			"componentType":5126,
			"count":806,
			"max":[
				3.7320523262023926,
				1.1803265810012817,
				3.7472617626190186
			],
			"min":[
				-3.740118980407715,
				-2.0533385395538062e-05,
				-3.7249038219451904
			],
			"type":"VEC3"
		},
		{
			"bufferView":5,
			"componentType":5126,
			"count":806,
			"type":"VEC3"
		},
		{
			"bufferView":6,
			"componentType":5126,
			"count":806,
			"type":"VEC2"
		},
		{
			"bufferView":7,
			"componentType":5123,
			"count":2556,
			"type":"SCALAR"
		},
		{
			"bufferView":8,
			"componentType":5126,
			"count":974,
			"max":[
				3.7320523262023926,
				4.574702262878418,
				3.7472617626190186
			],
			"min":[
				-3.740118980407715,
				-2.0533385395538062e-05,
				-3.7249038219451904
			],
			"type":"VEC3"
		},
		{
			"bufferView":9,
			"componentType":5126,
			"count":974,
			"type":"VEC3"
		},
		{
			"bufferView":10,
			"componentType":5126,
			"count":974,
			"type":"VEC2"
		},
		{
			"bufferView":11,
			"componentType":5123,
			"count":1812,
			"type":"SCALAR"
		}
	],
	"bufferViews":[
		{
			"buffer":0,
			"byteLength":21720,
			"byteOffset":0,
			"target":34962
		},
		{
			"buffer":0,
			"byteLength":21720,
			"byteOffset":21720,
			"target":34962
		},
		{
			"buffer":0,
			"byteLength":14480,
			"byteOffset":43440,
			"target":34962
		},
		{
			"buffer":0,
			"byteLength":8856,
			"byteOffset":57920,
			"target":34963
		},
		{
			"buffer":0,
			"byteLength":9672,
			"byteOffset":66776,
			"target":34962
		},
		{
			"buffer":0,
			"byteLength":9672,
			"byteOffset":76448,
			"target":34962
		},
		{
			"buffer":0,
			"byteLength":6448,
			"byteOffset":86120,
			"target":34962
		},
		{
			"buffer":0,
			"byteLength":5112,
			"byteOffset":92568,
			"target":34963
		},
		{
			"buffer":0,
			"byteLength":11688,
			"byteOffset":97680,
			"target":34962
		},
		{
			"buffer":0,
			"byteLength":11688,
			"byteOffset":109368,
			"target":34962
		},
		{
			"buffer":0,
			"byteLength":7792,
			"byteOffset":121056,
			"target":34962
		},
		{
			"buffer":0,
			"byteLength":3624,
			"byteOffset":128848,
			"target":34963
		}
	],
	"samplers":[
		{
			"magFilter":9729,
			"minFilter":9987
		}
	],
	"buffers":[
		{
			"byteLength":132472,
			"uri":"obj_atom.bin"
		}
	]
}
