{
	"asset":{
		"generator":"Khronos glTF Blender I/O v4.1.63",
		"version":"2.0"
	},
	"extensionsUsed":[
		"KHR_materials_specular",
		"KHR_materials_ior"
	],
	"scene":0,
	"scenes":[
		{
			"name":"Scene",
			"nodes":[
				0,
				1
			]
		}
	],
	"nodes":[
		{
			"mesh":0,
			"name":"obj_lab08"
		},
		{
			"mesh":1,
			"name":"obj_lab08_collider"
		}
	],
	"materials":[
		{
			"doubleSided":true,
			"emissiveFactor":[
				0.07999999821186066,
				0.07999999821186066,
				0.07999999821186066
			],
			"emissiveTexture":{
				"index":0
			},
			"extensions":{
				"KHR_materials_specular":{
					"specularFactor":0
				},
				"KHR_materials_ior":{
					"ior":1.4500000476837158
				}
			},
			"name":"obj_lab08_05",
			"pbrMetallicRoughness":{
				"baseColorTexture":{
					"index":1
				},
				"metallicFactor":0
			}
		},
		{
			"emissiveFactor":[
				1,
				1,
				1
			],
			"emissiveTexture":{
				"index":2
			},
			"extensions":{
				"KHR_materials_specular":{
					"specularFactor":0
				},
				"KHR_materials_ior":{
					"ior":1.4500000476837158
				}
			},
			"name":"obj_lab08_01",
			"pbrMetallicRoughness":{
				"baseColorTexture":{
					"index":3
				},
				"metallicFactor":0
			}
		},
		{
			"emissiveFactor":[
				1,
				1,
				1
			],
			"emissiveTexture":{
				"index":4
			},
			"extensions":{
				"KHR_materials_specular":{
					"specularFactor":0
				},
				"KHR_materials_ior":{
					"ior":1.4500000476837158
				}
			},
			"name":"obj_lab08_02",
			"pbrMetallicRoughness":{
				"baseColorTexture":{
					"index":5
				},
				"metallicFactor":0
			}
		},
		{
			"emissiveFactor":[
				1,
				1,
				1
			],
			"emissiveTexture":{
				"index":6
			},
			"extensions":{
				"KHR_materials_specular":{
					"specularFactor":0
				},
				"KHR_materials_ior":{
					"ior":1.4500000476837158
				}
			},
			"name":"obj_lab08_03",
			"pbrMetallicRoughness":{
				"baseColorTexture":{
					"index":7
				},
				"metallicFactor":0
			}
		},
		{
			"emissiveFactor":[
				1,
				1,
				1
			],
			"emissiveTexture":{
				"index":8
			},
			"extensions":{
				"KHR_materials_specular":{
					"specularFactor":0
				},
				"KHR_materials_ior":{
					"ior":1.4500000476837158
				}
			},
			"name":"obj_lab08_04",
			"pbrMetallicRoughness":{
				"baseColorTexture":{
					"index":9
				},
				"metallicFactor":0
			}
		},
		{
			"emissiveFactor":[
				1,
				1,
				1
			],
			"emissiveTexture":{
				"index":10
			},
			"extensions":{
				"KHR_materials_specular":{
					"specularFactor":0
				},
				"KHR_materials_ior":{
					"ior":1.4500000476837158
				}
			},
			"name":"obj_lab07_01",
			"pbrMetallicRoughness":{
				"baseColorTexture":{
					"index":11
				},
				"metallicFactor":0
			}
		}
	],
	"meshes":[
		{
			"name":"Plane.002",
			"primitives":[
				{
					"attributes":{
						"POSITION":0,
						"NORMAL":1,
						"TEXCOORD_0":2
					},
					"indices":3,
					"material":0
				},
				{
					"attributes":{
						"POSITION":4,
						"NORMAL":5,
						"TEXCOORD_0":6
					},
					"indices":7,
					"material":1
				},
				{
					"attributes":{
						"POSITION":8,
						"NORMAL":9,
						"TEXCOORD_0":10
					},
					"indices":11,
					"material":2
				},
				{
					"attributes":{
						"POSITION":12,
						"NORMAL":13,
						"TEXCOORD_0":14
					},
					"indices":15,
					"material":3
				},
				{
					"attributes":{
						"POSITION":16,
						"NORMAL":17,
						"TEXCOORD_0":18
					},
					"indices":19,
					"material":4
				},
				{
					"attributes":{
						"POSITION":20,
						"NORMAL":21,
						"TEXCOORD_0":22
					},
					"indices":23,
					"material":5
				}
			]
		},
		{
			"name":"Plane",
			"primitives":[
				{
					"attributes":{
						"POSITION":24,
						"NORMAL":25,
						"TEXCOORD_0":26
					},
					"indices":27
				}
			]
		}
	],
	"textures":[
		{
			"sampler":0,
			"source":0
		},
		{
			"sampler":0,
			"source":0
		},
		{
			"sampler":0,
			"source":1
		},
		{
			"sampler":0,
			"source":2
		},
		{
			"sampler":0,
			"source":3
		},
		{
			"sampler":0,
			"source":4
		},
		{
			"sampler":0,
			"source":5
		},
		{
			"sampler":0,
			"source":6
		},
		{
			"sampler":0,
			"source":7
		},
		{
			"sampler":0,
			"source":8
		},
		{
			"sampler":0,
			"source":9
		},
		{
			"sampler":0,
			"source":10
		}
	],
	"images":[
		{
			"mimeType":"image/png",
			"name":"obj_lab08_05",
			"uri":"textures/obj_lab08_05.png"
		},
		{
			"mimeType":"image/png",
			"name":"obj_lab08_01_emission",
			"uri":"textures/obj_lab08_01_emission.png"
		},
		{
			"mimeType":"image/png",
			"name":"obj_lab08_01",
			"uri":"textures/obj_lab08_01.png"
		},
		{
			"mimeType":"image/png",
			"name":"obj_lab08_02_emission",
			"uri":"textures/obj_lab08_02_emission.png"
		},
		{
			"mimeType":"image/png",
			"name":"obj_lab08_02",
			"uri":"textures/obj_lab08_02.png"
		},
		{
			"mimeType":"image/png",
			"name":"obj_lab08_03_emission",
			"uri":"textures/obj_lab08_03_emission.png"
		},
		{
			"mimeType":"image/png",
			"name":"obj_lab08_03",
			"uri":"textures/obj_lab08_03.png"
		},
		{
			"mimeType":"image/png",
			"name":"obj_lab08_04_emission",
			"uri":"textures/obj_lab08_04_emission.png"
		},
		{
			"mimeType":"image/png",
			"name":"obj_lab08_04",
			"uri":"textures/obj_lab08_04.png"
		},
		{
			"mimeType":"image/png",
			"name":"obj_lab07_01_emission",
			"uri":"textures/obj_lab07_01_emission.png"
		},
		{
			"mimeType":"image/png",
			"name":"obj_lab07_01",
			"uri":"textures/obj_lab07_01.png"
		}
	],
	"accessors":[
		{
			"bufferView":0,
			"componentType":5126,
			"count":89,
			"max":[
				-0.8468236327171326,
				1.8622385263442993,
				0.6000000238418579
			],
			"min":[
				-0.9215607643127441,
				0.6622384786605835,
				-0.6000000238418579
			],
			"type":"VEC3"
		},
		{
			"bufferView":1,
			"componentType":5126,
			"count":89,
			"type":"VEC3"
		},
		{
			"bufferView":2,
			"componentType":5126,
			"count":89,
			"type":"VEC2"
		},
		{
			"bufferView":3,
			"componentType":5123,
			"count":252,
			"type":"SCALAR"
		},
		{
			"bufferView":4,
			"componentType":5126,
			"count":3176,
			"max":[
				0.9192423820495605,
				5.14932107925415,
				1.053302526473999
			],
			"min":[
				-1.1874616146087646,
				0.9479743838310242,
				-1.053302526473999
			],
			"type":"VEC3"
		},
		{
			"bufferView":5,
			"componentType":5126,
			"count":3176,
			"type":"VEC3"
		},
		{
			"bufferView":6,
			"componentType":5126,
			"count":3176,
			"type":"VEC2"
		},
		{
			"bufferView":7,
			"componentType":5123,
			"count":7776,
			"type":"SCALAR"
		},
		{
			"bufferView":8,
			"componentType":5126,
			"count":876,
			"max":[
				0.5994635820388794,
				7.462155342102051,
				1.0646697282791138
			],
			"min":[
				-1.0000001192092896,
				-0.010218705981969833,
				-1.0646697282791138
			],
			"type":"VEC3"
		},
		{
			"bufferView":9,
			"componentType":5126,
			"count":876,
			"type":"VEC3"
		},
		{
			"bufferView":10,
			"componentType":5126,
			"count":876,
			"type":"VEC2"
		},
		{
			"bufferView":11,
			"componentType":5123,
			"count":3180,
			"type":"SCALAR"
		},
		{
			"bufferView":12,
			"componentType":5126,
			"count":405,
			"max":[
				0.695191502571106,
				2.2554306983947754,
				1.0155134201049805
			],
			"min":[
				-1.0843592882156372,
				-0.010218685492873192,
				-1.0155134201049805
			],
			"type":"VEC3"
		},
		{
			"bufferView":13,
			"componentType":5126,
			"count":405,
			"type":"VEC3"
		},
		{
			"bufferView":14,
			"componentType":5126,
			"count":405,
			"type":"VEC2"
		},
		{
			"bufferView":15,
			"componentType":5123,
			"count":912,
			"type":"SCALAR"
		},
		{
			"bufferView":16,
			"componentType":5126,
			"count":846,
			"max":[
				1.0367220640182495,
				2.347008466720581,
				1.0640406608581543
			],
			"min":[
				-0.49577710032463074,
				-0.010218710638582706,
				-1.0640406608581543
			],
			"type":"VEC3"
		},
		{
			"bufferView":17,
			"componentType":5126,
			"count":846,
			"type":"VEC3"
		},
		{
			"bufferView":18,
			"componentType":5126,
			"count":846,
			"type":"VEC2"
		},
		{
			"bufferView":19,
			"componentType":5123,
			"count":1902,
			"type":"SCALAR"
		},
		{
			"bufferView":20,
			"componentType":5126,
			"count":13,
			"max":[
				-0.8792491555213928,
				1.823407530784607,
				0.5611690282821655
			],
			"min":[
				-0.8792492151260376,
				0.7010694742202759,
				-0.5611690282821655
			],
			"type":"VEC3"
		},
		{
			"bufferView":21,
			"componentType":5126,
			"count":13,
			"type":"VEC3"
		},
		{
			"bufferView":22,
			"componentType":5126,
			"count":13,
			"type":"VEC2"
		},
		{
			"bufferView":23,
			"componentType":5123,
			"count":36,
			"type":"SCALAR"
		},
		{
			"bufferView":24,
			"componentType":5126,
			"count":132,
			"max":[
				1.0601584911346436,
				7.560318946838379,
				1.0931522846221924
			],
			"min":[
				-1.2272616624832153,
				0,
				-1.0931522846221924
			],
			"type":"VEC3"
		},
		{
			"bufferView":25,
			"componentType":5126,
			"count":132,
			"type":"VEC3"
		},
		{
			"bufferView":26,
			"componentType":5126,
			"count":132,
			"type":"VEC2"
		},
		{
			"bufferView":27,
			"componentType":5123,
			"count":564,
			"type":"SCALAR"
		}
	],
	"bufferViews":[
		{
			"buffer":0,
			"byteLength":1068,
			"byteOffset":0,
			"target":34962
		},
		{
			"buffer":0,
			"byteLength":1068,
			"byteOffset":1068,
			"target":34962
		},
		{
			"buffer":0,
			"byteLength":712,
			"byteOffset":2136,
			"target":34962
		},
		{
			"buffer":0,
			"byteLength":504,
			"byteOffset":2848,
			"target":34963
		},
		{
			"buffer":0,
			"byteLength":38112,
			"byteOffset":3352,
			"target":34962
		},
		{
			"buffer":0,
			"byteLength":38112,
			"byteOffset":41464,
			"target":34962
		},
		{
			"buffer":0,
			"byteLength":25408,
			"byteOffset":79576,
			"target":34962
		},
		{
			"buffer":0,
			"byteLength":15552,
			"byteOffset":104984,
			"target":34963
		},
		{
			"buffer":0,
			"byteLength":10512,
			"byteOffset":120536,
			"target":34962
		},
		{
			"buffer":0,
			"byteLength":10512,
			"byteOffset":131048,
			"target":34962
		},
		{
			"buffer":0,
			"byteLength":7008,
			"byteOffset":141560,
			"target":34962
		},
		{
			"buffer":0,
			"byteLength":6360,
			"byteOffset":148568,
			"target":34963
		},
		{
			"buffer":0,
			"byteLength":4860,
			"byteOffset":154928,
			"target":34962
		},
		{
			"buffer":0,
			"byteLength":4860,
			"byteOffset":159788,
			"target":34962
		},
		{
			"buffer":0,
			"byteLength":3240,
			"byteOffset":164648,
			"target":34962
		},
		{
			"buffer":0,
			"byteLength":1824,
			"byteOffset":167888,
			"target":34963
		},
		{
			"buffer":0,
			"byteLength":10152,
			"byteOffset":169712,
			"target":34962
		},
		{
			"buffer":0,
			"byteLength":10152,
			"byteOffset":179864,
			"target":34962
		},
		{
			"buffer":0,
			"byteLength":6768,
			"byteOffset":190016,
			"target":34962
		},
		{
			"buffer":0,
			"byteLength":3804,
			"byteOffset":196784,
			"target":34963
		},
		{
			"buffer":0,
			"byteLength":156,
			"byteOffset":200588,
			"target":34962
		},
		{
			"buffer":0,
			"byteLength":156,
			"byteOffset":200744,
			"target":34962
		},
		{
			"buffer":0,
			"byteLength":104,
			"byteOffset":200900,
			"target":34962
		},
		{
			"buffer":0,
			"byteLength":72,
			"byteOffset":201004,
			"target":34963
		},
		{
			"buffer":0,
			"byteLength":1584,
			"byteOffset":201076,
			"target":34962
		},
		{
			"buffer":0,
			"byteLength":1584,
			"byteOffset":202660,
			"target":34962
		},
		{
			"buffer":0,
			"byteLength":1056,
			"byteOffset":204244,
			"target":34962
		},
		{
			"buffer":0,
			"byteLength":1128,
			"byteOffset":205300,
			"target":34963
		}
	],
	"samplers":[
		{
			"magFilter":9729,
			"minFilter":9987
		}
	],
	"buffers":[
		{
			"byteLength":206428,
			"uri":"obj_lab08.bin"
		}
	]
}
