{
	"asset":{
		"generator":"Khronos glTF Blender I/O v4.1.63",
		"version":"2.0"
	},
	"extensionsUsed":[
		"KHR_materials_specular",
		"KHR_materials_ior"
	],
	"scene":0,
	"scenes":[
		{
			"name":"Scene",
			"nodes":[
				0
			]
		}
	],
	"nodes":[
		{
			"mesh":0,
			"name":"obj_tv02"
		}
	],
	"materials":[
		{
			"emissiveFactor":[
				0.10000000149011612,
				0.10000000149011612,
				0.10000000149011612
			],
			"emissiveTexture":{
				"index":0
			},
			"extensions":{
				"KHR_materials_specular":{
					"specularFactor":0.0020000000949949026
				},
				"KHR_materials_ior":{
					"ior":1.4500000476837158
				}
			},
			"name":"obj_tv",
			"pbrMetallicRoughness":{
				"baseColorTexture":{
					"index":1
				},
				"metallicFactor":0
			}
		},
		{
			"emissiveFactor":[
				0.26229405403137207,
				0.5646868348121643,
				0.921515166759491
			],
			"extensions":{
				"KHR_materials_specular":{
					"specularFactor":0
				},
				"KHR_materials_ior":{
					"ior":1.4500000476837158
				}
			},
			"name":"obj_global_emission01",
			"pbrMetallicRoughness":{
				"baseColorFactor":[
					0.2617267668247223,
					0.566400408744812,
					0.9218639135360718,
					1
				],
				"metallicFactor":0
			}
		}
	],
	"meshes":[
		{
			"name":"Cube.558",
			"primitives":[
				{
					"attributes":{
						"POSITION":0,
						"NORMAL":1,
						"TEXCOORD_0":2
					},
					"indices":3,
					"material":0
				},
				{
					"attributes":{
						"POSITION":4,
						"NORMAL":5,
						"TEXCOORD_0":6
					},
					"indices":7,
					"material":1
				}
			]
		}
	],
	"textures":[
		{
			"sampler":0,
			"source":0
		},
		{
			"sampler":0,
			"source":0
		}
	],
	"images":[
		{
			"mimeType":"image/png",
			"name":"obj_tv",
			"uri":"textures/obj_tv.png"
		}
	],
	"accessors":[
		{
			"bufferView":0,
			"componentType":5126,
			"count":443,
			"max":[
				0.9381617307662964,
				2.0011277198791504,
				0.26690199971199036
			],
			"min":[
				-0.9381616711616516,
				0.09434688091278076,
				-0.08027933537960052
			],
			"type":"VEC3"
		},
		{
			"bufferView":1,
			"componentType":5126,
			"count":443,
			"type":"VEC3"
		},
		{
			"bufferView":2,
			"componentType":5126,
			"count":443,
			"type":"VEC2"
		},
		{
			"bufferView":3,
			"componentType":5123,
			"count":1074,
			"type":"SCALAR"
		},
		{
			"bufferView":4,
			"componentType":5126,
			"count":8,
			"max":[
				0.37308233976364136,
				1.8154617547988892,
				0.026398228481411934
			],
			"min":[
				-0.7057000398635864,
				1.7366873025894165,
				0.02451956272125244
			],
			"type":"VEC3"
		},
		{
			"bufferView":5,
			"componentType":5126,
			"count":8,
			"type":"VEC3"
		},
		{
			"bufferView":6,
			"componentType":5126,
			"count":8,
			"type":"VEC2"
		},
		{
			"bufferView":7,
			"componentType":5123,
			"count":18,
			"type":"SCALAR"
		}
	],
	"bufferViews":[
		{
			"buffer":0,
			"byteLength":5316,
			"byteOffset":0,
			"target":34962
		},
		{
			"buffer":0,
			"byteLength":5316,
			"byteOffset":5316,
			"target":34962
		},
		{
			"buffer":0,
			"byteLength":3544,
			"byteOffset":10632,
			"target":34962
		},
		{
			"buffer":0,
			"byteLength":2148,
			"byteOffset":14176,
			"target":34963
		},
		{
			"buffer":0,
			"byteLength":96,
			"byteOffset":16324,
			"target":34962
		},
		{
			"buffer":0,
			"byteLength":96,
			"byteOffset":16420,
			"target":34962
		},
		{
			"buffer":0,
			"byteLength":64,
			"byteOffset":16516,
			"target":34962
		},
		{
			"buffer":0,
			"byteLength":36,
			"byteOffset":16580,
			"target":34963
		}
	],
	"samplers":[
		{
			"magFilter":9729,
			"minFilter":9987
		}
	],
	"buffers":[
		{
			"byteLength":16616,
			"uri":"obj_tv02.bin"
		}
	]
}
