{
	"asset":{
		"generator":"Khronos glTF Blender I/O v4.1.63",
		"version":"2.0"
	},
	"extensionsUsed":[
		"KHR_materials_specular",
		"KHR_materials_ior"
	],
	"scene":0,
	"scenes":[
		{
			"name":"Scene",
			"nodes":[
				0,
				1
			]
		}
	],
	"nodes":[
		{
			"mesh":0,
			"name":"obj_borders01",
			"translation":[
				0.0010000000474974513,
				0.0010000000474974513,
				-0.0010000000474974513
			]
		},
		{
			"mesh":1,
			"name":"obj_borders01_collider",
			"translation":[
				0.0010000000474974513,
				0.0010000000474974513,
				-0.0010000000474974513
			]
		}
	],
	"materials":[
		{
			"emissiveFactor":[
				0.08500204809013079,
				0.09007176891076218,
				0.10000240951780093
			],
			"emissiveTexture":{
				"index":0
			},
			"extensions":{
				"KHR_materials_specular":{
					"specularFactor":0
				},
				"KHR_materials_ior":{
					"ior":1.4500000476837158
				}
			},
			"name":"obj_borders",
			"pbrMetallicRoughness":{
				"baseColorFactor":[
					0.8500204682350159,
					0.9007176756858826,
					1,
					1
				],
				"baseColorTexture":{
					"index":1
				},
				"metallicFactor":0
			}
		},
		{
			"emissiveFactor":[
				0.26229405403137207,
				0.5646868348121643,
				0.921515166759491
			],
			"extensions":{
				"KHR_materials_specular":{
					"specularFactor":0
				},
				"KHR_materials_ior":{
					"ior":1.4500000476837158
				}
			},
			"name":"obj_global_emission01",
			"pbrMetallicRoughness":{
				"baseColorFactor":[
					0.2617267668247223,
					0.566400408744812,
					0.9218639135360718,
					1
				],
				"metallicFactor":0
			}
		}
	],
	"meshes":[
		{
			"name":"Plane.017",
			"primitives":[
				{
					"attributes":{
						"POSITION":0,
						"NORMAL":1,
						"TEXCOORD_0":2
					},
					"indices":3,
					"material":0
				},
				{
					"attributes":{
						"POSITION":4,
						"NORMAL":5,
						"TEXCOORD_0":6
					},
					"indices":7,
					"material":1
				}
			]
		},
		{
			"name":"Plane.028",
			"primitives":[
				{
					"attributes":{
						"POSITION":8,
						"NORMAL":9,
						"TEXCOORD_0":10
					},
					"indices":11
				}
			]
		}
	],
	"textures":[
		{
			"sampler":0,
			"source":0
		},
		{
			"sampler":0,
			"source":0
		}
	],
	"images":[
		{
			"mimeType":"image/png",
			"name":"obj_borders",
			"uri":"textures/obj_borders.png"
		}
	],
	"accessors":[
		{
			"bufferView":0,
			"componentType":5126,
			"count":12368,
			"max":[
				52.287437438964844,
				0.17771568894386292,
				-2.8524036407470703
			],
			"min":[
				-12.817246437072754,
				0.04445531964302063,
				-62.650611877441406
			],
			"type":"VEC3"
		},
		{
			"bufferView":1,
			"componentType":5126,
			"count":12368,
			"type":"VEC3"
		},
		{
			"bufferView":2,
			"componentType":5126,
			"count":12368,
			"type":"VEC2"
		},
		{
			"bufferView":3,
			"componentType":5123,
			"count":24000,
			"type":"SCALAR"
		},
		{
			"bufferView":4,
			"componentType":5126,
			"count":3533,
			"max":[
				52.20927429199219,
				0.13453775644302368,
				-2.930938482284546
			],
			"min":[
				-12.739741325378418,
				0.10453656315803528,
				-62.57245635986328
			],
			"type":"VEC3"
		},
		{
			"bufferView":5,
			"componentType":5126,
			"count":3533,
			"type":"VEC3"
		},
		{
			"bufferView":6,
			"componentType":5126,
			"count":3533,
			"type":"VEC2"
		},
		{
			"bufferView":7,
			"componentType":5123,
			"count":6000,
			"type":"SCALAR"
		},
		{
			"bufferView":8,
			"componentType":5126,
			"count":2674,
			"max":[
				52.287437438964844,
				0.17771568894386292,
				-2.8524036407470703
			],
			"min":[
				-12.817245483398438,
				0.04445531964302063,
				-62.65060806274414
			],
			"type":"VEC3"
		},
		{
			"bufferView":9,
			"componentType":5126,
			"count":2674,
			"type":"VEC3"
		},
		{
			"bufferView":10,
			"componentType":5126,
			"count":2674,
			"type":"VEC2"
		},
		{
			"bufferView":11,
			"componentType":5123,
			"count":4524,
			"type":"SCALAR"
		}
	],
	"bufferViews":[
		{
			"buffer":0,
			"byteLength":148416,
			"byteOffset":0,
			"target":34962
		},
		{
			"buffer":0,
			"byteLength":148416,
			"byteOffset":148416,
			"target":34962
		},
		{
			"buffer":0,
			"byteLength":98944,
			"byteOffset":296832,
			"target":34962
		},
		{
			"buffer":0,
			"byteLength":48000,
			"byteOffset":395776,
			"target":34963
		},
		{
			"buffer":0,
			"byteLength":42396,
			"byteOffset":443776,
			"target":34962
		},
		{
			"buffer":0,
			"byteLength":42396,
			"byteOffset":486172,
			"target":34962
		},
		{
			"buffer":0,
			"byteLength":28264,
			"byteOffset":528568,
			"target":34962
		},
		{
			"buffer":0,
			"byteLength":12000,
			"byteOffset":556832,
			"target":34963
		},
		{
			"buffer":0,
			"byteLength":32088,
			"byteOffset":568832,
			"target":34962
		},
		{
			"buffer":0,
			"byteLength":32088,
			"byteOffset":600920,
			"target":34962
		},
		{
			"buffer":0,
			"byteLength":21392,
			"byteOffset":633008,
			"target":34962
		},
		{
			"buffer":0,
			"byteLength":9048,
			"byteOffset":654400,
			"target":34963
		}
	],
	"samplers":[
		{
			"magFilter":9729,
			"minFilter":9987
		}
	],
	"buffers":[
		{
			"byteLength":663448,
			"uri":"obj_borders01.bin"
		}
	]
}
