{
	"asset":{
		"generator":"Khronos glTF Blender I/O v4.1.63",
		"version":"2.0"
	},
	"extensionsUsed":[
		"KHR_materials_specular",
		"KHR_materials_ior"
	],
	"scene":0,
	"scenes":[
		{
			"name":"Scene",
			"nodes":[
				0,
				1
			]
		}
	],
	"nodes":[
		{
			"mesh":0,
			"name":"obj_spider"
		},
		{
			"mesh":1,
			"name":"obj_spider_collider"
		}
	],
	"materials":[
		{
			"emissiveFactor":[
				0.10000000149011612,
				0.10000000149011612,
				0.10000000149011612
			],
			"emissiveTexture":{
				"index":0
			},
			"extensions":{
				"KHR_materials_specular":{
					"specularFactor":0.0020000000949949026
				},
				"KHR_materials_ior":{
					"ior":1.4500000476837158
				}
			},
			"name":"npc_spider",
			"pbrMetallicRoughness":{
				"baseColorTexture":{
					"index":1
				},
				"metallicFactor":0
			}
		},
		{
			"emissiveFactor":[
				0.26229405403137207,
				0.5646868348121643,
				0.921515166759491
			],
			"extensions":{
				"KHR_materials_specular":{
					"specularFactor":0
				},
				"KHR_materials_ior":{
					"ior":1.4500000476837158
				}
			},
			"name":"obj_global_emission01",
			"pbrMetallicRoughness":{
				"baseColorFactor":[
					0.2617267668247223,
					0.566400408744812,
					0.9218639135360718,
					1
				],
				"metallicFactor":0
			}
		}
	],
	"meshes":[
		{
			"name":"Sphere.008",
			"primitives":[
				{
					"attributes":{
						"POSITION":0,
						"NORMAL":1,
						"TEXCOORD_0":2
					},
					"indices":3,
					"material":0
				},
				{
					"attributes":{
						"POSITION":4,
						"NORMAL":5,
						"TEXCOORD_0":6
					},
					"indices":7,
					"material":1
				}
			]
		},
		{
			"name":"Cube",
			"primitives":[
				{
					"attributes":{
						"POSITION":8,
						"NORMAL":9,
						"TEXCOORD_0":10
					},
					"indices":11
				}
			]
		}
	],
	"textures":[
		{
			"sampler":0,
			"source":0
		},
		{
			"sampler":0,
			"source":0
		}
	],
	"images":[
		{
			"mimeType":"image/png",
			"name":"npc_spider",
			"uri":"textures/npc_spider.png"
		}
	],
	"accessors":[
		{
			"bufferView":0,
			"componentType":5126,
			"count":1698,
			"max":[
				0.6875640749931335,
				0.825271487236023,
				0.7221519947052002
			],
			"min":[
				-0.6419128775596619,
				0.0036957859992980957,
				-0.7218267917633057
			],
			"type":"VEC3"
		},
		{
			"bufferView":1,
			"componentType":5126,
			"count":1698,
			"type":"VEC3"
		},
		{
			"bufferView":2,
			"componentType":5126,
			"count":1698,
			"type":"VEC2"
		},
		{
			"bufferView":3,
			"componentType":5123,
			"count":5436,
			"type":"SCALAR"
		},
		{
			"bufferView":4,
			"componentType":5126,
			"count":43,
			"max":[
				0.4309236407279968,
				0.7292819023132324,
				0.40562087297439575
			],
			"min":[
				-0.38263243436813354,
				0.38511568307876587,
				-0.3966693580150604
			],
			"type":"VEC3"
		},
		{
			"bufferView":5,
			"componentType":5126,
			"count":43,
			"type":"VEC3"
		},
		{
			"bufferView":6,
			"componentType":5126,
			"count":43,
			"type":"VEC2"
		},
		{
			"bufferView":7,
			"componentType":5123,
			"count":120,
			"type":"SCALAR"
		},
		{
			"bufferView":8,
			"componentType":5126,
			"count":24,
			"max":[
				0.48362869024276733,
				0.9672573804855347,
				0.48362869024276733
			],
			"min":[
				-0.48362869024276733,
				-2.8826516285107573e-08,
				-0.48362869024276733
			],
			"type":"VEC3"
		},
		{
			"bufferView":9,
			"componentType":5126,
			"count":24,
			"type":"VEC3"
		},
		{
			"bufferView":10,
			"componentType":5126,
			"count":24,
			"type":"VEC2"
		},
		{
			"bufferView":11,
			"componentType":5123,
			"count":36,
			"type":"SCALAR"
		}
	],
	"bufferViews":[
		{
			"buffer":0,
			"byteLength":20376,
			"byteOffset":0,
			"target":34962
		},
		{
			"buffer":0,
			"byteLength":20376,
			"byteOffset":20376,
			"target":34962
		},
		{
			"buffer":0,
			"byteLength":13584,
			"byteOffset":40752,
			"target":34962
		},
		{
			"buffer":0,
			"byteLength":10872,
			"byteOffset":54336,
			"target":34963
		},
		{
			"buffer":0,
			"byteLength":516,
			"byteOffset":65208,
			"target":34962
		},
		{
			"buffer":0,
			"byteLength":516,
			"byteOffset":65724,
			"target":34962
		},
		{
			"buffer":0,
			"byteLength":344,
			"byteOffset":66240,
			"target":34962
		},
		{
			"buffer":0,
			"byteLength":240,
			"byteOffset":66584,
			"target":34963
		},
		{
			"buffer":0,
			"byteLength":288,
			"byteOffset":66824,
			"target":34962
		},
		{
			"buffer":0,
			"byteLength":288,
			"byteOffset":67112,
			"target":34962
		},
		{
			"buffer":0,
			"byteLength":192,
			"byteOffset":67400,
			"target":34962
		},
		{
			"buffer":0,
			"byteLength":72,
			"byteOffset":67592,
			"target":34963
		}
	],
	"samplers":[
		{
			"magFilter":9729,
			"minFilter":9987
		}
	],
	"buffers":[
		{
			"byteLength":67664,
			"uri":"obj_spider.bin"
		}
	]
}
