{
	"asset":{
		"generator":"Khronos glTF Blender I/O v4.3.47",
		"version":"2.0"
	},
	"extensionsUsed":[
		"KHR_materials_specular"
	],
	"scene":0,
	"scenes":[
		{
			"name":"Scene",
			"nodes":[
				0,
				1
			]
		}
	],
	"nodes":[
		{
			"mesh":0,
			"name":"obj_wrench"
		},
		{
			"mesh":1,
			"name":"obj_wrench_collider"
		}
	],
	"materials":[
		{
			"emissiveFactor":[
				1,
				1,
				1
			],
			"emissiveTexture":{
				"index":0
			},
			"extensions":{
				"KHR_materials_specular":{
					"specularFactor":0
				}
			},
			"name":"obj_wrench",
			"pbrMetallicRoughness":{
				"baseColorTexture":{
					"index":1
				},
				"metallicFactor":0
			}
		}
	],
	"meshes":[
		{
			"name":"obj_wrench",
			"primitives":[
				{
					"attributes":{
						"POSITION":0,
						"NORMAL":1,
						"TEXCOORD_0":2
					},
					"indices":3,
					"material":0
				}
			]
		},
		{
			"name":"obj_wrench_collider",
			"primitives":[
				{
					"attributes":{
						"POSITION":4,
						"NORMAL":5,
						"TEXCOORD_0":6
					},
					"indices":7
				}
			]
		}
	],
	"textures":[
		{
			"sampler":0,
			"source":0
		},
		{
			"sampler":0,
			"source":1
		}
	],
	"images":[
		{
			"mimeType":"image/png",
			"name":"obj_wrench_emission",
			"uri":"textures/obj_wrench_emission.png"
		},
		{
			"mimeType":"image/png",
			"name":"obj_wrench",
			"uri":"textures/obj_wrench.png"
		}
	],
	"accessors":[
		{
			"bufferView":0,
			"componentType":5126,
			"count":16332,
			"max":[
				60.86433410644531,
				20.777950286865234,
				-46.112205505371094
			],
			"min":[
				-57.067100524902344,
				17.921844482421875,
				-68.13080596923828
			],
			"type":"VEC3"
		},
		{
			"bufferView":1,
			"componentType":5126,
			"count":16332,
			"type":"VEC3"
		},
		{
			"bufferView":2,
			"componentType":5126,
			"count":16332,
			"type":"VEC2"
		},
		{
			"bufferView":3,
			"componentType":5123,
			"count":41400,
			"type":"SCALAR"
		},
		{
			"bufferView":4,
			"componentType":5126,
			"count":168,
			"max":[
				60.957698822021484,
				20.777950286865234,
				-46.051719665527344
			],
			"min":[
				-57.165382385253906,
				17.921844482421875,
				-68.16710662841797
			],
			"type":"VEC3"
		},
		{
			"bufferView":5,
			"componentType":5126,
			"count":168,
			"type":"VEC3"
		},
		{
			"bufferView":6,
			"componentType":5126,
			"count":168,
			"type":"VEC2"
		},
		{
			"bufferView":7,
			"componentType":5123,
			"count":432,
			"type":"SCALAR"
		}
	],
	"bufferViews":[
		{
			"buffer":0,
			"byteLength":195984,
			"byteOffset":0,
			"target":34962
		},
		{
			"buffer":0,
			"byteLength":195984,
			"byteOffset":195984,
			"target":34962
		},
		{
			"buffer":0,
			"byteLength":130656,
			"byteOffset":391968,
			"target":34962
		},
		{
			"buffer":0,
			"byteLength":82800,
			"byteOffset":522624,
			"target":34963
		},
		{
			"buffer":0,
			"byteLength":2016,
			"byteOffset":605424,
			"target":34962
		},
		{
			"buffer":0,
			"byteLength":2016,
			"byteOffset":607440,
			"target":34962
		},
		{
			"buffer":0,
			"byteLength":1344,
			"byteOffset":609456,
			"target":34962
		},
		{
			"buffer":0,
			"byteLength":864,
			"byteOffset":610800,
			"target":34963
		}
	],
	"samplers":[
		{
			"magFilter":9729,
			"minFilter":9987
		}
	],
	"buffers":[
		{
			"byteLength":611664,
			"uri":"obj_wrench.bin"
		}
	]
}
