{
	"asset":{
		"generator":"Khronos glTF Blender I/O v4.3.47",
		"version":"2.0"
	},
	"extensionsUsed":[
		"KHR_materials_specular"
	],
	"scene":0,
	"scenes":[
		{
			"name":"Scene",
			"nodes":[
				0,
				1
			]
		}
	],
	"nodes":[
		{
			"mesh":0,
			"name":"obj_ltable"
		},
		{
			"mesh":1,
			"name":"obj_ltable_collider"
		}
	],
	"materials":[
		{
			"emissiveFactor":[
				1,
				1,
				1
			],
			"emissiveTexture":{
				"index":0
			},
			"extensions":{
				"KHR_materials_specular":{
					"specularFactor":0
				}
			},
			"name":"obj_ltable",
			"pbrMetallicRoughness":{
				"baseColorTexture":{
					"index":1
				},
				"metallicFactor":0
			}
		}
	],
	"meshes":[
		{
			"name":"obj_ltable",
			"primitives":[
				{
					"attributes":{
						"POSITION":0,
						"NORMAL":1,
						"TEXCOORD_0":2
					},
					"indices":3,
					"material":0
				}
			]
		},
		{
			"name":"obj_ltable_collider",
			"primitives":[
				{
					"attributes":{
						"POSITION":4,
						"NORMAL":5,
						"TEXCOORD_0":6
					},
					"indices":7
				}
			]
		}
	],
	"textures":[
		{
			"sampler":0,
			"source":0
		},
		{
			"sampler":0,
			"source":1
		}
	],
	"images":[
		{
			"mimeType":"image/png",
			"name":"obj_ltable_emission",
			"uri":"textures/obj_ltable_emission.png"
		},
		{
			"mimeType":"image/png",
			"name":"obj_ltable",
			"uri":"textures/obj_ltable.png"
		}
	],
	"accessors":[
		{
			"bufferView":0,
			"componentType":5126,
			"count":3648,
			"max":[
				63.4483757019043,
				20.87270736694336,
				57.69884490966797
			],
			"min":[
				-62.819862365722656,
				17.47004508972168,
				-27.270023345947266
			],
			"type":"VEC3"
		},
		{
			"bufferView":1,
			"componentType":5126,
			"count":3648,
			"type":"VEC3"
		},
		{
			"bufferView":2,
			"componentType":5126,
			"count":3648,
			"type":"VEC2"
		},
		{
			"bufferView":3,
			"componentType":5123,
			"count":9888,
			"type":"SCALAR"
		},
		{
			"bufferView":4,
			"componentType":5126,
			"count":1504,
			"max":[
				63.448760986328125,
				20.872709274291992,
				57.69696044921875
			],
			"min":[
				-62.82132339477539,
				17.47088623046875,
				-27.27011489868164
			],
			"type":"VEC3"
		},
		{
			"bufferView":5,
			"componentType":5126,
			"count":1504,
			"type":"VEC3"
		},
		{
			"bufferView":6,
			"componentType":5126,
			"count":1504,
			"type":"VEC2"
		},
		{
			"bufferView":7,
			"componentType":5123,
			"count":3552,
			"type":"SCALAR"
		}
	],
	"bufferViews":[
		{
			"buffer":0,
			"byteLength":43776,
			"byteOffset":0,
			"target":34962
		},
		{
			"buffer":0,
			"byteLength":43776,
			"byteOffset":43776,
			"target":34962
		},
		{
			"buffer":0,
			"byteLength":29184,
			"byteOffset":87552,
			"target":34962
		},
		{
			"buffer":0,
			"byteLength":19776,
			"byteOffset":116736,
			"target":34963
		},
		{
			"buffer":0,
			"byteLength":18048,
			"byteOffset":136512,
			"target":34962
		},
		{
			"buffer":0,
			"byteLength":18048,
			"byteOffset":154560,
			"target":34962
		},
		{
			"buffer":0,
			"byteLength":12032,
			"byteOffset":172608,
			"target":34962
		},
		{
			"buffer":0,
			"byteLength":7104,
			"byteOffset":184640,
			"target":34963
		}
	],
	"samplers":[
		{
			"magFilter":9729,
			"minFilter":9987
		}
	],
	"buffers":[
		{
			"byteLength":191744,
			"uri":"obj_ltable.bin"
		}
	]
}
