{
	"asset":{
		"generator":"Khronos glTF Blender I/O v4.3.47",
		"version":"2.0"
	},
	"extensionsUsed":[
		"KHR_materials_specular"
	],
	"scene":0,
	"scenes":[
		{
			"name":"Scene",
			"nodes":[
				0,
				1
			]
		}
	],
	"nodes":[
		{
			"mesh":0,
			"name":"obj_board"
		},
		{
			"mesh":1,
			"name":"obj_board_collider"
		}
	],
	"materials":[
		{
			"emissiveFactor":[
				0.10000000149011612,
				0.10000000149011612,
				0.10000000149011612
			],
			"emissiveTexture":{
				"index":0
			},
			"extensions":{
				"KHR_materials_specular":{
					"specularFactor":0
				}
			},
			"name":"obj_board",
			"pbrMetallicRoughness":{
				"baseColorTexture":{
					"index":1
				},
				"metallicFactor":0
			}
		},
		{
			"emissiveFactor":[
				0.10000000149011612,
				0.10000000149011612,
				0.10000000149011612
			],
			"emissiveTexture":{
				"index":2
			},
			"extensions":{
				"KHR_materials_specular":{
					"specularFactor":0
				}
			},
			"name":"obj_stickers02",
			"pbrMetallicRoughness":{
				"baseColorTexture":{
					"index":3
				},
				"metallicFactor":0
			}
		},
		{
			"emissiveFactor":[
				0.10000000149011612,
				0.10000000149011612,
				0.10000000149011612
			],
			"emissiveTexture":{
				"index":4
			},
			"extensions":{
				"KHR_materials_specular":{
					"specularFactor":0
				}
			},
			"name":"obj_stickers01",
			"pbrMetallicRoughness":{
				"baseColorTexture":{
					"index":5
				},
				"metallicFactor":0
			}
		},
		{
			"doubleSided":true,
			"emissiveFactor":[
				0.26229405403137207,
				0.5646868348121643,
				0.921515166759491
			],
			"extensions":{
				"KHR_materials_specular":{
					"specularFactor":0
				}
			},
			"name":"obj_global_emission01",
			"pbrMetallicRoughness":{
				"baseColorFactor":[
					0.2617267668247223,
					0.566400408744812,
					0.9218639135360718,
					1
				],
				"metallicFactor":0
			}
		}
	],
	"meshes":[
		{
			"name":"obj_board",
			"primitives":[
				{
					"attributes":{
						"POSITION":0,
						"NORMAL":1,
						"TEXCOORD_0":2
					},
					"indices":3,
					"material":0
				},
				{
					"attributes":{
						"POSITION":4,
						"NORMAL":5,
						"TEXCOORD_0":6
					},
					"indices":7,
					"material":1
				},
				{
					"attributes":{
						"POSITION":8,
						"NORMAL":9,
						"TEXCOORD_0":10
					},
					"indices":11,
					"material":2
				},
				{
					"attributes":{
						"POSITION":12,
						"NORMAL":13,
						"TEXCOORD_0":14
					},
					"indices":15,
					"material":3
				}
			]
		},
		{
			"name":"obj_board_collider",
			"primitives":[
				{
					"attributes":{
						"POSITION":16,
						"NORMAL":17,
						"TEXCOORD_0":18
					},
					"indices":19
				}
			]
		}
	],
	"textures":[
		{
			"sampler":0,
			"source":0
		},
		{
			"sampler":0,
			"source":0
		},
		{
			"sampler":0,
			"source":1
		},
		{
			"sampler":0,
			"source":1
		},
		{
			"sampler":0,
			"source":2
		},
		{
			"sampler":0,
			"source":2
		}
	],
	"images":[
		{
			"mimeType":"image/png",
			"name":"obj_board",
			"uri":"textures/obj_board.png"
		},
		{
			"mimeType":"image/png",
			"name":"obj_stickers02",
			"uri":"textures/obj_stickers02.png"
		},
		{
			"mimeType":"image/png",
			"name":"obj_stickers01",
			"uri":"textures/obj_stickers01.png"
		}
	],
	"accessors":[
		{
			"bufferView":0,
			"componentType":5126,
			"count":10220,
			"max":[
				57.7629508972168,
				22.893505096435547,
				53.57637405395508
			],
			"min":[
				-57.394222259521484,
				15.499998092651367,
				-62.716854095458984
			],
			"type":"VEC3"
		},
		{
			"bufferView":1,
			"componentType":5126,
			"count":10220,
			"type":"VEC3"
		},
		{
			"bufferView":2,
			"componentType":5126,
			"count":10220,
			"type":"VEC2"
		},
		{
			"bufferView":3,
			"componentType":5123,
			"count":25740,
			"type":"SCALAR"
		},
		{
			"bufferView":4,
			"componentType":5126,
			"count":740,
			"max":[
				57.16899108886719,
				22.74814224243164,
				53.140419006347656
			],
			"min":[
				-56.957218170166016,
				16.92360496520996,
				-62.15434265136719
			],
			"type":"VEC3"
		},
		{
			"bufferView":5,
			"componentType":5126,
			"count":740,
			"type":"VEC3"
		},
		{
			"bufferView":6,
			"componentType":5126,
			"count":740,
			"type":"VEC2"
		},
		{
			"bufferView":7,
			"componentType":5123,
			"count":1440,
			"type":"SCALAR"
		},
		{
			"bufferView":8,
			"componentType":5126,
			"count":680,
			"max":[
				57.521995544433594,
				22.770708084106445,
				52.91352081298828
			],
			"min":[
				-56.69232177734375,
				16.909889221191406,
				-62.46318817138672
			],
			"type":"VEC3"
		},
		{
			"bufferView":9,
			"componentType":5126,
			"count":680,
			"type":"VEC3"
		},
		{
			"bufferView":10,
			"componentType":5126,
			"count":680,
			"type":"VEC2"
		},
		{
			"bufferView":11,
			"componentType":5123,
			"count":1320,
			"type":"SCALAR"
		},
		{
			"bufferView":12,
			"componentType":5126,
			"count":200,
			"max":[
				57.56456756591797,
				22.821475982666016,
				53.29222106933594
			],
			"min":[
				-57.111572265625,
				16.39334487915039,
				-62.496341705322266
			],
			"type":"VEC3"
		},
		{
			"bufferView":13,
			"componentType":5126,
			"count":200,
			"type":"VEC3"
		},
		{
			"bufferView":14,
			"componentType":5126,
			"count":200,
			"type":"VEC2"
		},
		{
			"bufferView":15,
			"componentType":5123,
			"count":360,
			"type":"SCALAR"
		},
		{
			"bufferView":16,
			"componentType":5126,
			"count":240,
			"max":[
				57.799461364746094,
				22.916017532348633,
				53.60169219970703
			],
			"min":[
				-57.418739318847656,
				15.499998092651367,
				-62.75773239135742
			],
			"type":"VEC3"
		},
		{
			"bufferView":17,
			"componentType":5126,
			"count":240,
			"type":"VEC3"
		},
		{
			"bufferView":18,
			"componentType":5126,
			"count":240,
			"type":"VEC2"
		},
		{
			"bufferView":19,
			"componentType":5123,
			"count":840,
			"type":"SCALAR"
		}
	],
	"bufferViews":[
		{
			"buffer":0,
			"byteLength":122640,
			"byteOffset":0,
			"target":34962
		},
		{
			"buffer":0,
			"byteLength":122640,
			"byteOffset":122640,
			"target":34962
		},
		{
			"buffer":0,
			"byteLength":81760,
			"byteOffset":245280,
			"target":34962
		},
		{
			"buffer":0,
			"byteLength":51480,
			"byteOffset":327040,
			"target":34963
		},
		{
			"buffer":0,
			"byteLength":8880,
			"byteOffset":378520,
			"target":34962
		},
		{
			"buffer":0,
			"byteLength":8880,
			"byteOffset":387400,
			"target":34962
		},
		{
			"buffer":0,
			"byteLength":5920,
			"byteOffset":396280,
			"target":34962
		},
		{
			"buffer":0,
			"byteLength":2880,
			"byteOffset":402200,
			"target":34963
		},
		{
			"buffer":0,
			"byteLength":8160,
			"byteOffset":405080,
			"target":34962
		},
		{
			"buffer":0,
			"byteLength":8160,
			"byteOffset":413240,
			"target":34962
		},
		{
			"buffer":0,
			"byteLength":5440,
			"byteOffset":421400,
			"target":34962
		},
		{
			"buffer":0,
			"byteLength":2640,
			"byteOffset":426840,
			"target":34963
		},
		{
			"buffer":0,
			"byteLength":2400,
			"byteOffset":429480,
			"target":34962
		},
		{
			"buffer":0,
			"byteLength":2400,
			"byteOffset":431880,
			"target":34962
		},
		{
			"buffer":0,
			"byteLength":1600,
			"byteOffset":434280,
			"target":34962
		},
		{
			"buffer":0,
			"byteLength":720,
			"byteOffset":435880,
			"target":34963
		},
		{
			"buffer":0,
			"byteLength":2880,
			"byteOffset":436600,
			"target":34962
		},
		{
			"buffer":0,
			"byteLength":2880,
			"byteOffset":439480,
			"target":34962
		},
		{
			"buffer":0,
			"byteLength":1920,
			"byteOffset":442360,
			"target":34962
		},
		{
			"buffer":0,
			"byteLength":1680,
			"byteOffset":444280,
			"target":34963
		}
	],
	"samplers":[
		{
			"magFilter":9729,
			"minFilter":9987
		}
	],
	"buffers":[
		{
			"byteLength":445960,
			"uri":"obj_board.bin"
		}
	]
}
