{
	"asset":{
		"generator":"Khronos glTF Blender I/O v4.1.63",
		"version":"2.0"
	},
	"extensionsUsed":[
		"KHR_materials_specular",
		"KHR_materials_ior"
	],
	"scene":0,
	"scenes":[
		{
			"name":"Scene",
			"nodes":[
				0,
				1
			]
		}
	],
	"nodes":[
		{
			"mesh":0,
			"name":"obj_billboard01"
		},
		{
			"mesh":1,
			"name":"obj_billboard01_collider"
		}
	],
	"materials":[
		{
			"emissiveFactor":[
				0.10000000149011612,
				0.10000000149011612,
				0.10000000149011612
			],
			"emissiveTexture":{
				"index":0
			},
			"extensions":{
				"KHR_materials_specular":{
					"specularFactor":0
				},
				"KHR_materials_ior":{
					"ior":1.4500000476837158
				}
			},
			"name":"obj_billboard01",
			"pbrMetallicRoughness":{
				"baseColorTexture":{
					"index":1
				},
				"metallicFactor":0
			}
		},
		{
			"emissiveFactor":[
				0.26229405403137207,
				0.5646868348121643,
				0.921515166759491
			],
			"extensions":{
				"KHR_materials_specular":{
					"specularFactor":0
				},
				"KHR_materials_ior":{
					"ior":1.4500000476837158
				}
			},
			"name":"obj_global_emission01",
			"pbrMetallicRoughness":{
				"baseColorFactor":[
					0.2617267668247223,
					0.566400408744812,
					0.9218639135360718,
					1
				],
				"metallicFactor":0
			}
		}
	],
	"meshes":[
		{
			"name":"Mesh.070",
			"primitives":[
				{
					"attributes":{
						"POSITION":0,
						"NORMAL":1,
						"TEXCOORD_0":2
					},
					"indices":3,
					"material":0
				},
				{
					"attributes":{
						"POSITION":4,
						"NORMAL":5,
						"TEXCOORD_0":6
					},
					"indices":7,
					"material":1
				}
			]
		},
		{
			"name":"Mesh.071",
			"primitives":[
				{
					"attributes":{
						"POSITION":8,
						"NORMAL":9,
						"TEXCOORD_0":10,
						"TEXCOORD_1":11
					},
					"indices":12
				}
			]
		}
	],
	"textures":[
		{
			"sampler":0,
			"source":0
		},
		{
			"sampler":0,
			"source":0
		}
	],
	"images":[
		{
			"mimeType":"image/png",
			"name":"obj_billboard01",
			"uri":"textures/obj_billboard01.png"
		}
	],
	"accessors":[
		{
			"bufferView":0,
			"componentType":5126,
			"count":816,
			"max":[
				1.4916672706604004,
				3.529029130935669,
				0.1349545270204544
			],
			"min":[
				-1.4916672706604004,
				-1.0123473614953582e-08,
				-0.23109307885169983
			],
			"type":"VEC3"
		},
		{
			"bufferView":1,
			"componentType":5126,
			"count":816,
			"type":"VEC3"
		},
		{
			"bufferView":2,
			"componentType":5126,
			"count":816,
			"type":"VEC2"
		},
		{
			"bufferView":3,
			"componentType":5123,
			"count":1896,
			"type":"SCALAR"
		},
		{
			"bufferView":4,
			"componentType":5126,
			"count":68,
			"max":[
				0.11089066416025162,
				1.2712101936340332,
				0.06282144039869308
			],
			"min":[
				-0.11089057475328445,
				0.920467734336853,
				-0.15895982086658478
			],
			"type":"VEC3"
		},
		{
			"bufferView":5,
			"componentType":5126,
			"count":68,
			"type":"VEC3"
		},
		{
			"bufferView":6,
			"componentType":5126,
			"count":68,
			"type":"VEC2"
		},
		{
			"bufferView":7,
			"componentType":5123,
			"count":192,
			"type":"SCALAR"
		},
		{
			"bufferView":8,
			"componentType":5126,
			"count":105,
			"max":[
				1.4916672706604004,
				3.54557466506958,
				0.14444473385810852
			],
			"min":[
				-1.4916672706604004,
				0.0010171813191846013,
				-0.24058328568935394
			],
			"type":"VEC3"
		},
		{
			"bufferView":9,
			"componentType":5126,
			"count":105,
			"type":"VEC3"
		},
		{
			"bufferView":10,
			"componentType":5126,
			"count":105,
			"type":"VEC2"
		},
		{
			"bufferView":11,
			"componentType":5126,
			"count":105,
			"type":"VEC2"
		},
		{
			"bufferView":12,
			"componentType":5123,
			"count":252,
			"type":"SCALAR"
		}
	],
	"bufferViews":[
		{
			"buffer":0,
			"byteLength":9792,
			"byteOffset":0,
			"target":34962
		},
		{
			"buffer":0,
			"byteLength":9792,
			"byteOffset":9792,
			"target":34962
		},
		{
			"buffer":0,
			"byteLength":6528,
			"byteOffset":19584,
			"target":34962
		},
		{
			"buffer":0,
			"byteLength":3792,
			"byteOffset":26112,
			"target":34963
		},
		{
			"buffer":0,
			"byteLength":816,
			"byteOffset":29904,
			"target":34962
		},
		{
			"buffer":0,
			"byteLength":816,
			"byteOffset":30720,
			"target":34962
		},
		{
			"buffer":0,
			"byteLength":544,
			"byteOffset":31536,
			"target":34962
		},
		{
			"buffer":0,
			"byteLength":384,
			"byteOffset":32080,
			"target":34963
		},
		{
			"buffer":0,
			"byteLength":1260,
			"byteOffset":32464,
			"target":34962
		},
		{
			"buffer":0,
			"byteLength":1260,
			"byteOffset":33724,
			"target":34962
		},
		{
			"buffer":0,
			"byteLength":840,
			"byteOffset":34984,
			"target":34962
		},
		{
			"buffer":0,
			"byteLength":840,
			"byteOffset":35824,
			"target":34962
		},
		{
			"buffer":0,
			"byteLength":504,
			"byteOffset":36664,
			"target":34963
		}
	],
	"samplers":[
		{
			"magFilter":9729,
			"minFilter":9987
		}
	],
	"buffers":[
		{
			"byteLength":37168,
			"uri":"obj_billboard01.bin"
		}
	]
}
