{
	"asset":{
		"generator":"Khronos glTF Blender I/O v4.1.63",
		"version":"2.0"
	},
	"extensionsUsed":[
		"KHR_materials_specular",
		"KHR_materials_ior"
	],
	"scene":0,
	"scenes":[
		{
			"name":"Scene",
			"nodes":[
				1
			]
		}
	],
	"nodes":[
		{
			"mesh":0,
			"name":"obj_crystals_collider"
		},
		{
			"children":[
				0
			],
			"mesh":1,
			"name":"obj_crystals"
		}
	],
	"animations":[
		{
			"channels":[
				{
					"sampler":0,
					"target":{
						"node":1,
						"path":"translation"
					}
				},
				{
					"sampler":1,
					"target":{
						"node":1,
						"path":"rotation"
					}
				},
				{
					"sampler":2,
					"target":{
						"node":1,
						"path":"scale"
					}
				}
			],
			"name":"obj_crystals_stand",
			"samplers":[
				{
					"input":8,
					"interpolation":"LINEAR",
					"output":9
				},
				{
					"input":8,
					"interpolation":"LINEAR",
					"output":10
				},
				{
					"input":11,
					"interpolation":"STEP",
					"output":12
				}
			]
		}
	],
	"materials":[
		{
			"emissiveFactor":[
				0.800000011920929,
				0.800000011920929,
				0.800000011920929
			],
			"emissiveTexture":{
				"index":0
			},
			"extensions":{
				"KHR_materials_specular":{
					"specularFactor":0
				},
				"KHR_materials_ior":{
					"ior":1.4500000476837158
				}
			},
			"name":"obj_crystal01",
			"pbrMetallicRoughness":{
				"baseColorTexture":{
					"index":1
				},
				"metallicFactor":0
			}
		}
	],
	"meshes":[
		{
			"name":"Mesh.018",
			"primitives":[
				{
					"attributes":{
						"POSITION":0,
						"NORMAL":1,
						"TEXCOORD_0":2
					},
					"indices":3
				}
			]
		},
		{
			"name":"Mesh.021",
			"primitives":[
				{
					"attributes":{
						"POSITION":4,
						"NORMAL":5,
						"TEXCOORD_0":6
					},
					"indices":7,
					"material":0
				}
			]
		}
	],
	"textures":[
		{
			"sampler":0,
			"source":0
		},
		{
			"sampler":0,
			"source":1
		}
	],
	"images":[
		{
			"mimeType":"image/png",
			"name":"obj_crystal01_emission",
			"uri":"textures/obj_crystal01_emission.png"
		},
		{
			"mimeType":"image/png",
			"name":"obj_crystal01",
			"uri":"textures/obj_crystal01.png"
		}
	],
	"accessors":[
		{
			"bufferView":0,
			"componentType":5126,
			"count":24,
			"max":[
				0.1969773769378662,
				0.5910687446594238,
				0.1507568061351776
			],
			"min":[
				-0.17123565077781677,
				2.9802322387695312e-08,
				-0.20574872195720673
			],
			"type":"VEC3"
		},
		{
			"bufferView":1,
			"componentType":5126,
			"count":24,
			"type":"VEC3"
		},
		{
			"bufferView":2,
			"componentType":5126,
			"count":24,
			"type":"VEC2"
		},
		{
			"bufferView":3,
			"componentType":5123,
			"count":36,
			"type":"SCALAR"
		},
		{
			"bufferView":4,
			"componentType":5126,
			"count":1656,
			"max":[
				0.205357626080513,
				0.591068685054779,
				0.1507568210363388
			],
			"min":[
				-0.17599326372146606,
				-3.810437299023306e-09,
				-0.21584510803222656
			],
			"type":"VEC3"
		},
		{
			"bufferView":5,
			"componentType":5126,
			"count":1656,
			"type":"VEC3"
		},
		{
			"bufferView":6,
			"componentType":5126,
			"count":1656,
			"type":"VEC2"
		},
		{
			"bufferView":7,
			"componentType":5123,
			"count":4110,
			"type":"SCALAR"
		},
		{
			"bufferView":8,
			"componentType":5126,
			"count":181,
			"max":[
				6
			],
			"min":[
				0
			],
			"type":"SCALAR"
		},
		{
			"bufferView":9,
			"componentType":5126,
			"count":181,
			"type":"VEC3"
		},
		{
			"bufferView":10,
			"componentType":5126,
			"count":181,
			"type":"VEC4"
		},
		{
			"bufferView":11,
			"componentType":5126,
			"count":2,
			"max":[
				6
			],
			"min":[
				0
			],
			"type":"SCALAR"
		},
		{
			"bufferView":12,
			"componentType":5126,
			"count":2,
			"type":"VEC3"
		}
	],
	"bufferViews":[
		{
			"buffer":0,
			"byteLength":288,
			"byteOffset":0,
			"target":34962
		},
		{
			"buffer":0,
			"byteLength":288,
			"byteOffset":288,
			"target":34962
		},
		{
			"buffer":0,
			"byteLength":192,
			"byteOffset":576,
			"target":34962
		},
		{
			"buffer":0,
			"byteLength":72,
			"byteOffset":768,
			"target":34963
		},
		{
			"buffer":0,
			"byteLength":19872,
			"byteOffset":840,
			"target":34962
		},
		{
			"buffer":0,
			"byteLength":19872,
			"byteOffset":20712,
			"target":34962
		},
		{
			"buffer":0,
			"byteLength":13248,
			"byteOffset":40584,
			"target":34962
		},
		{
			"buffer":0,
			"byteLength":8220,
			"byteOffset":53832,
			"target":34963
		},
		{
			"buffer":0,
			"byteLength":724,
			"byteOffset":62052
		},
		{
			"buffer":0,
			"byteLength":2172,
			"byteOffset":62776
		},
		{
			"buffer":0,
			"byteLength":2896,
			"byteOffset":64948
		},
		{
			"buffer":0,
			"byteLength":8,
			"byteOffset":67844
		},
		{
			"buffer":0,
			"byteLength":24,
			"byteOffset":67852
		}
	],
	"samplers":[
		{
			"magFilter":9729,
			"minFilter":9987
		}
	],
	"buffers":[
		{
			"byteLength":67876,
			"uri":"obj_crystals.bin"
		}
	]
}
