{
	"asset":{
		"generator":"Khronos glTF Blender I/O v4.2.57",
		"version":"2.0"
	},
	"extensionsUsed":[
		"KHR_materials_clearcoat",
		"KHR_materials_specular",
		"KHR_materials_ior"
	],
	"scene":0,
	"scenes":[
		{
			"name":"Scene",
			"nodes":[
				0,
				1
			]
		}
	],
	"nodes":[
		{
			"mesh":0,
			"name":"obj_podium_collider"
		},
		{
			"mesh":1,
			"name":"obj_podium"
		}
	],
	"materials":[
		{
			"emissiveFactor":[
				0.05000000074505806,
				0.05000000074505806,
				0.05000000074505806
			],
			"emissiveTexture":{
				"index":0
			},
			"extensions":{
				"KHR_materials_clearcoat":{
					"clearcoatRoughnessFactor":0
				},
				"KHR_materials_specular":{
					"specularFactor":0
				},
				"KHR_materials_ior":{
					"ior":1.4500000476837158
				}
			},
			"name":"obj_podium",
			"pbrMetallicRoughness":{
				"baseColorTexture":{
					"index":1
				},
				"metallicFactor":0
			}
		},
		{
			"alphaMode":"BLEND",
			"doubleSided":true,
			"emissiveFactor":[
				0.13114702701568604,
				0.28234341740608215,
				0.4607575833797455
			],
			"extensions":{
				"KHR_materials_clearcoat":{
					"clearcoatRoughnessFactor":0
				},
				"KHR_materials_specular":{
					"specularFactor":0
				},
				"KHR_materials_ior":{
					"ior":1.4500000476837158
				}
			},
			"name":"obj_podium_gradient",
			"pbrMetallicRoughness":{
				"baseColorFactor":[
					0.26229405403137207,
					0.5646868348121643,
					0.921515166759491,
					1
				],
				"baseColorTexture":{
					"index":2
				},
				"metallicFactor":0
			}
		},
		{
			"emissiveFactor":[
				0.26229405403137207,
				0.5646868348121643,
				0.921515166759491
			],
			"extensions":{
				"KHR_materials_specular":{
					"specularFactor":0
				},
				"KHR_materials_ior":{
					"ior":1.4500000476837158
				}
			},
			"name":"obj_global_emission01",
			"pbrMetallicRoughness":{
				"baseColorFactor":[
					0.2617267668247223,
					0.566400408744812,
					0.9218639135360718,
					1
				],
				"metallicFactor":0
			}
		}
	],
	"meshes":[
		{
			"name":"Cylinder.004",
			"primitives":[
				{
					"attributes":{
						"POSITION":0,
						"NORMAL":1,
						"TEXCOORD_0":2
					},
					"indices":3
				}
			]
		},
		{
			"name":"Mesh.002",
			"primitives":[
				{
					"attributes":{
						"POSITION":4,
						"NORMAL":5,
						"TEXCOORD_0":6,
						"TEXCOORD_1":7
					},
					"indices":8,
					"material":0
				},
				{
					"attributes":{
						"POSITION":9,
						"NORMAL":10,
						"TEXCOORD_0":11,
						"TEXCOORD_1":12
					},
					"indices":13,
					"material":1
				},
				{
					"attributes":{
						"POSITION":14,
						"NORMAL":15,
						"TEXCOORD_0":16,
						"TEXCOORD_1":17
					},
					"indices":18,
					"material":2
				}
			]
		}
	],
	"textures":[
		{
			"sampler":0,
			"source":0
		},
		{
			"sampler":0,
			"source":0
		},
		{
			"sampler":0,
			"source":1
		}
	],
	"images":[
		{
			"mimeType":"image/png",
			"name":"obj_podium",
			"uri":"textures/obj_podium.png"
		},
		{
			"mimeType":"image/png",
			"name":"obj_podium_gradient",
			"uri":"textures/obj_podium_gradient.png"
		}
	],
	"accessors":[
		{
			"bufferView":0,
			"componentType":5126,
			"count":34,
			"max":[
				0.7341599464416504,
				4.381896495819092,
				0.7341599464416504
			],
			"min":[
				-0.7341599464416504,
				0,
				-0.7341599464416504
			],
			"type":"VEC3"
		},
		{
			"bufferView":1,
			"componentType":5126,
			"count":34,
			"type":"VEC3"
		},
		{
			"bufferView":2,
			"componentType":5126,
			"count":34,
			"type":"VEC2"
		},
		{
			"bufferView":3,
			"componentType":5123,
			"count":84,
			"type":"SCALAR"
		},
		{
			"bufferView":4,
			"componentType":5126,
			"count":253,
			"max":[
				0.7390668988227844,
				0.3818965256214142,
				0.7390669584274292
			],
			"min":[
				-0.7390671968460083,
				-0.0008156762341968715,
				-0.7390669584274292
			],
			"type":"VEC3"
		},
		{
			"bufferView":5,
			"componentType":5126,
			"count":253,
			"type":"VEC3"
		},
		{
			"bufferView":6,
			"componentType":5126,
			"count":253,
			"type":"VEC2"
		},
		{
			"bufferView":7,
			"componentType":5126,
			"count":253,
			"type":"VEC2"
		},
		{
			"bufferView":8,
			"componentType":5123,
			"count":660,
			"type":"SCALAR"
		},
		{
			"bufferView":9,
			"componentType":5126,
			"count":42,
			"max":[
				0.5053004622459412,
				0.9974769353866577,
				0.5132128000259399
			],
			"min":[
				-0.5132131576538086,
				0.3567161560058594,
				-0.5132136344909668
			],
			"type":"VEC3"
		},
		{
			"bufferView":10,
			"componentType":5126,
			"count":42,
			"type":"VEC3"
		},
		{
			"bufferView":11,
			"componentType":5126,
			"count":42,
			"type":"VEC2"
		},
		{
			"bufferView":12,
			"componentType":5126,
			"count":42,
			"type":"VEC2"
		},
		{
			"bufferView":13,
			"componentType":5123,
			"count":120,
			"type":"SCALAR"
		},
		{
			"bufferView":14,
			"componentType":5126,
			"count":89,
			"max":[
				0.6843779683113098,
				0.3567468523979187,
				0.6841069459915161
			],
			"min":[
				-0.6843775510787964,
				0.057248637080192566,
				-0.6841077208518982
			],
			"type":"VEC3"
		},
		{
			"bufferView":15,
			"componentType":5126,
			"count":89,
			"type":"VEC3"
		},
		{
			"bufferView":16,
			"componentType":5126,
			"count":89,
			"type":"VEC2"
		},
		{
			"bufferView":17,
			"componentType":5126,
			"count":89,
			"type":"VEC2"
		},
		{
			"bufferView":18,
			"componentType":5123,
			"count":240,
			"type":"SCALAR"
		}
	],
	"bufferViews":[
		{
			"buffer":0,
			"byteLength":408,
			"byteOffset":0,
			"target":34962
		},
		{
			"buffer":0,
			"byteLength":408,
			"byteOffset":408,
			"target":34962
		},
		{
			"buffer":0,
			"byteLength":272,
			"byteOffset":816,
			"target":34962
		},
		{
			"buffer":0,
			"byteLength":168,
			"byteOffset":1088,
			"target":34963
		},
		{
			"buffer":0,
			"byteLength":3036,
			"byteOffset":1256,
			"target":34962
		},
		{
			"buffer":0,
			"byteLength":3036,
			"byteOffset":4292,
			"target":34962
		},
		{
			"buffer":0,
			"byteLength":2024,
			"byteOffset":7328,
			"target":34962
		},
		{
			"buffer":0,
			"byteLength":2024,
			"byteOffset":9352,
			"target":34962
		},
		{
			"buffer":0,
			"byteLength":1320,
			"byteOffset":11376,
			"target":34963
		},
		{
			"buffer":0,
			"byteLength":504,
			"byteOffset":12696,
			"target":34962
		},
		{
			"buffer":0,
			"byteLength":504,
			"byteOffset":13200,
			"target":34962
		},
		{
			"buffer":0,
			"byteLength":336,
			"byteOffset":13704,
			"target":34962
		},
		{
			"buffer":0,
			"byteLength":336,
			"byteOffset":14040,
			"target":34962
		},
		{
			"buffer":0,
			"byteLength":240,
			"byteOffset":14376,
			"target":34963
		},
		{
			"buffer":0,
			"byteLength":1068,
			"byteOffset":14616,
			"target":34962
		},
		{
			"buffer":0,
			"byteLength":1068,
			"byteOffset":15684,
			"target":34962
		},
		{
			"buffer":0,
			"byteLength":712,
			"byteOffset":16752,
			"target":34962
		},
		{
			"buffer":0,
			"byteLength":712,
			"byteOffset":17464,
			"target":34962
		},
		{
			"buffer":0,
			"byteLength":480,
			"byteOffset":18176,
			"target":34963
		}
	],
	"samplers":[
		{
			"magFilter":9729,
			"minFilter":9987
		}
	],
	"buffers":[
		{
			"byteLength":18656,
			"uri":"obj_podium.bin"
		}
	]
}
