{
	"asset":{
		"generator":"Khronos glTF Blender I/O v4.3.47",
		"version":"2.0"
	},
	"extensionsUsed":[
		"KHR_materials_specular"
	],
	"scene":0,
	"scenes":[
		{
			"name":"Scene",
			"nodes":[
				0,
				1
			]
		}
	],
	"nodes":[
		{
			"mesh":0,
			"name":"obj_tiles"
		},
		{
			"mesh":1,
			"name":"obj_tiles_collider"
		}
	],
	"materials":[
		{
			"emissiveFactor":[
				0.07999999821186066,
				0.07999999821186066,
				0.07999999821186066
			],
			"emissiveTexture":{
				"index":0
			},
			"extensions":{
				"KHR_materials_specular":{
					"specularFactor":0
				}
			},
			"name":"obj_tiles",
			"pbrMetallicRoughness":{
				"baseColorTexture":{
					"index":1
				},
				"metallicFactor":0
			}
		},
		{
			"doubleSided":true,
			"emissiveFactor":[
				0.26229405403137207,
				0.5646868348121643,
				0.921515166759491
			],
			"extensions":{
				"KHR_materials_specular":{
					"specularFactor":0
				}
			},
			"name":"obj_global_emission01",
			"pbrMetallicRoughness":{
				"baseColorFactor":[
					0.2617267668247223,
					0.566400408744812,
					0.9218639135360718,
					1
				],
				"metallicFactor":0
			}
		}
	],
	"meshes":[
		{
			"name":"obj_tiles",
			"primitives":[
				{
					"attributes":{
						"POSITION":0,
						"NORMAL":1,
						"TEXCOORD_0":2
					},
					"indices":3,
					"material":0
				},
				{
					"attributes":{
						"POSITION":4,
						"NORMAL":5,
						"TEXCOORD_0":6
					},
					"indices":7,
					"material":1
				}
			]
		},
		{
			"name":"obj_tiles_collider",
			"primitives":[
				{
					"attributes":{
						"POSITION":8,
						"NORMAL":9,
						"TEXCOORD_0":10
					},
					"indices":11
				}
			]
		}
	],
	"textures":[
		{
			"sampler":0,
			"source":0
		},
		{
			"sampler":0,
			"source":0
		}
	],
	"images":[
		{
			"mimeType":"image/png",
			"name":"obj_tiles",
			"uri":"textures/obj_tiles.png"
		}
	],
	"accessors":[
		{
			"bufferView":0,
			"componentType":5126,
			"count":4284,
			"max":[
				40.02668762207031,
				0.33359330892562866,
				36.841636657714844
			],
			"min":[
				10.874602317810059,
				0.25,
				10.1560640335083
			],
			"type":"VEC3"
		},
		{
			"bufferView":1,
			"componentType":5126,
			"count":4284,
			"type":"VEC3"
		},
		{
			"bufferView":2,
			"componentType":5126,
			"count":4284,
			"type":"VEC2"
		},
		{
			"bufferView":3,
			"componentType":5123,
			"count":10098,
			"type":"SCALAR"
		},
		{
			"bufferView":4,
			"componentType":5126,
			"count":2448,
			"max":[
				40.02668762207031,
				0.33359330892562866,
				36.841636657714844
			],
			"min":[
				10.874602317810059,
				0.3202343285083771,
				10.1560640335083
			],
			"type":"VEC3"
		},
		{
			"bufferView":5,
			"componentType":5126,
			"count":2448,
			"type":"VEC3"
		},
		{
			"bufferView":6,
			"componentType":5126,
			"count":2448,
			"type":"VEC2"
		},
		{
			"bufferView":7,
			"componentType":5123,
			"count":7344,
			"type":"SCALAR"
		},
		{
			"bufferView":8,
			"componentType":5126,
			"count":1080,
			"max":[
				40.058135986328125,
				0.3325524926185608,
				36.87374496459961
			],
			"min":[
				10.740455627441406,
				0.25,
				10.119732856750488
			],
			"type":"VEC3"
		},
		{
			"bufferView":9,
			"componentType":5126,
			"count":1080,
			"type":"VEC3"
		},
		{
			"bufferView":10,
			"componentType":5126,
			"count":1080,
			"type":"VEC2"
		},
		{
			"bufferView":11,
			"componentType":5123,
			"count":2052,
			"type":"SCALAR"
		}
	],
	"bufferViews":[
		{
			"buffer":0,
			"byteLength":51408,
			"byteOffset":0,
			"target":34962
		},
		{
			"buffer":0,
			"byteLength":51408,
			"byteOffset":51408,
			"target":34962
		},
		{
			"buffer":0,
			"byteLength":34272,
			"byteOffset":102816,
			"target":34962
		},
		{
			"buffer":0,
			"byteLength":20196,
			"byteOffset":137088,
			"target":34963
		},
		{
			"buffer":0,
			"byteLength":29376,
			"byteOffset":157284,
			"target":34962
		},
		{
			"buffer":0,
			"byteLength":29376,
			"byteOffset":186660,
			"target":34962
		},
		{
			"buffer":0,
			"byteLength":19584,
			"byteOffset":216036,
			"target":34962
		},
		{
			"buffer":0,
			"byteLength":14688,
			"byteOffset":235620,
			"target":34963
		},
		{
			"buffer":0,
			"byteLength":12960,
			"byteOffset":250308,
			"target":34962
		},
		{
			"buffer":0,
			"byteLength":12960,
			"byteOffset":263268,
			"target":34962
		},
		{
			"buffer":0,
			"byteLength":8640,
			"byteOffset":276228,
			"target":34962
		},
		{
			"buffer":0,
			"byteLength":4104,
			"byteOffset":284868,
			"target":34963
		}
	],
	"samplers":[
		{
			"magFilter":9729,
			"minFilter":9987
		}
	],
	"buffers":[
		{
			"byteLength":288972,
			"uri":"obj_tiles.bin"
		}
	]
}
