{
	"asset":{
		"generator":"Khronos glTF Blender I/O v4.1.63",
		"version":"2.0"
	},
	"extensionsUsed":[
		"KHR_materials_specular",
		"KHR_materials_ior"
	],
	"scene":0,
	"scenes":[
		{
			"name":"Scene",
			"nodes":[
				0,
				1
			]
		}
	],
	"nodes":[
		{
			"mesh":0,
			"name":"obj_light04"
		},
		{
			"mesh":1,
			"name":"obj_light04_collider"
		}
	],
	"materials":[
		{
			"emissiveFactor":[
				1,
				1,
				1
			],
			"emissiveTexture":{
				"index":0
			},
			"extensions":{
				"KHR_materials_specular":{
					"specularFactor":0
				},
				"KHR_materials_ior":{
					"ior":1.4500000476837158
				}
			},
			"name":"obj_light01",
			"pbrMetallicRoughness":{
				"baseColorTexture":{
					"index":1
				},
				"metallicFactor":0
			}
		},
		{
			"emissiveFactor":[
				0.26229405403137207,
				0.5646868348121643,
				0.921515166759491
			],
			"extensions":{
				"KHR_materials_specular":{
					"specularFactor":0
				},
				"KHR_materials_ior":{
					"ior":1.4500000476837158
				}
			},
			"name":"obj_global_emission01",
			"pbrMetallicRoughness":{
				"baseColorFactor":[
					0.2617267668247223,
					0.566400408744812,
					0.9218639135360718,
					1
				],
				"metallicFactor":0
			}
		}
	],
	"meshes":[
		{
			"name":"Mesh.120",
			"primitives":[
				{
					"attributes":{
						"POSITION":0,
						"NORMAL":1,
						"TEXCOORD_0":2
					},
					"indices":3,
					"material":0
				},
				{
					"attributes":{
						"POSITION":4,
						"NORMAL":5,
						"TEXCOORD_0":6
					},
					"indices":7,
					"material":1
				}
			]
		},
		{
			"name":"Mesh.121",
			"primitives":[
				{
					"attributes":{
						"POSITION":8,
						"NORMAL":9,
						"TEXCOORD_0":10
					},
					"indices":11
				}
			]
		}
	],
	"textures":[
		{
			"sampler":0,
			"source":0
		},
		{
			"sampler":0,
			"source":1
		}
	],
	"images":[
		{
			"mimeType":"image/png",
			"name":"obj_light01_emission",
			"uri":"textures/obj_light01_emission.png"
		},
		{
			"mimeType":"image/png",
			"name":"obj_light01",
			"uri":"textures/obj_light01.png"
		}
	],
	"accessors":[
		{
			"bufferView":0,
			"componentType":5126,
			"count":500,
			"max":[
				0.28621765971183777,
				2.2855358123779297,
				0.293077677488327
			],
			"min":[
				-0.2862175703048706,
				0.0008893308113329113,
				-0.2930780351161957
			],
			"type":"VEC3"
		},
		{
			"bufferView":1,
			"componentType":5126,
			"count":500,
			"type":"VEC3"
		},
		{
			"bufferView":2,
			"componentType":5126,
			"count":500,
			"type":"VEC2"
		},
		{
			"bufferView":3,
			"componentType":5123,
			"count":1197,
			"type":"SCALAR"
		},
		{
			"bufferView":4,
			"componentType":5126,
			"count":98,
			"max":[
				0.19057303667068481,
				2.499480724334717,
				0.19057311117649078
			],
			"min":[
				-0.1905733197927475,
				0.18069812655448914,
				-0.19057346880435944
			],
			"type":"VEC3"
		},
		{
			"bufferView":5,
			"componentType":5126,
			"count":98,
			"type":"VEC3"
		},
		{
			"bufferView":6,
			"componentType":5126,
			"count":98,
			"type":"VEC2"
		},
		{
			"bufferView":7,
			"componentType":5123,
			"count":312,
			"type":"SCALAR"
		},
		{
			"bufferView":8,
			"componentType":5126,
			"count":47,
			"max":[
				0.2922006845474243,
				2.5210063457489014,
				0.30391669273376465
			],
			"min":[
				-0.30039316415786743,
				0.0008893308113329113,
				-0.3039168119430542
			],
			"type":"VEC3"
		},
		{
			"bufferView":9,
			"componentType":5126,
			"count":47,
			"type":"VEC3"
		},
		{
			"bufferView":10,
			"componentType":5126,
			"count":47,
			"type":"VEC2"
		},
		{
			"bufferView":11,
			"componentType":5123,
			"count":189,
			"type":"SCALAR"
		}
	],
	"bufferViews":[
		{
			"buffer":0,
			"byteLength":6000,
			"byteOffset":0,
			"target":34962
		},
		{
			"buffer":0,
			"byteLength":6000,
			"byteOffset":6000,
			"target":34962
		},
		{
			"buffer":0,
			"byteLength":4000,
			"byteOffset":12000,
			"target":34962
		},
		{
			"buffer":0,
			"byteLength":2394,
			"byteOffset":16000,
			"target":34963
		},
		{
			"buffer":0,
			"byteLength":1176,
			"byteOffset":18396,
			"target":34962
		},
		{
			"buffer":0,
			"byteLength":1176,
			"byteOffset":19572,
			"target":34962
		},
		{
			"buffer":0,
			"byteLength":784,
			"byteOffset":20748,
			"target":34962
		},
		{
			"buffer":0,
			"byteLength":624,
			"byteOffset":21532,
			"target":34963
		},
		{
			"buffer":0,
			"byteLength":564,
			"byteOffset":22156,
			"target":34962
		},
		{
			"buffer":0,
			"byteLength":564,
			"byteOffset":22720,
			"target":34962
		},
		{
			"buffer":0,
			"byteLength":376,
			"byteOffset":23284,
			"target":34962
		},
		{
			"buffer":0,
			"byteLength":378,
			"byteOffset":23660,
			"target":34963
		}
	],
	"samplers":[
		{
			"magFilter":9729,
			"minFilter":9987
		}
	],
	"buffers":[
		{
			"byteLength":24040,
			"uri":"obj_light04.bin"
		}
	]
}
