{
	"asset":{
		"generator":"Khronos glTF Blender I/O v4.1.63",
		"version":"2.0"
	},
	"extensionsUsed":[
		"KHR_materials_specular",
		"KHR_materials_ior"
	],
	"scene":0,
	"scenes":[
		{
			"name":"Scene",
			"nodes":[
				0,
				1
			]
		}
	],
	"nodes":[
		{
			"mesh":0,
			"name":"obj_ground04"
		},
		{
			"mesh":1,
			"name":"obj_ground04_collider"
		}
	],
	"materials":[
		{
			"emissiveFactor":[
				0.30000001192092896,
				0.30000001192092896,
				0.30000001192092896
			],
			"emissiveTexture":{
				"index":0
			},
			"extensions":{
				"KHR_materials_specular":{
					"specularFactor":0
				},
				"KHR_materials_ior":{
					"ior":1.4500000476837158
				}
			},
			"name":"obj_ground04",
			"pbrMetallicRoughness":{
				"baseColorTexture":{
					"index":1
				},
				"metallicFactor":0
			}
		}
	],
	"meshes":[
		{
			"name":"Plane.045",
			"primitives":[
				{
					"attributes":{
						"POSITION":0,
						"NORMAL":1,
						"TEXCOORD_0":2
					},
					"indices":3,
					"material":0
				}
			]
		},
		{
			"name":"Plane.012",
			"primitives":[
				{
					"attributes":{
						"POSITION":4,
						"NORMAL":5,
						"TEXCOORD_0":6
					},
					"indices":7
				}
			]
		}
	],
	"textures":[
		{
			"sampler":0,
			"source":0
		},
		{
			"sampler":0,
			"source":0
		}
	],
	"images":[
		{
			"mimeType":"image/png",
			"name":"obj_ground04",
			"uri":"textures/obj_ground04.png"
		}
	],
	"accessors":[
		{
			"bufferView":0,
			"componentType":5126,
			"count":3020,
			"max":[
				51.244075775146484,
				0.30013495683670044,
				49.95076370239258
			],
			"min":[
				3.9294707775115967,
				0.07479389756917953,
				-2.036309003829956
			],
			"type":"VEC3"
		},
		{
			"bufferView":1,
			"componentType":5126,
			"count":3020,
			"type":"VEC3"
		},
		{
			"bufferView":2,
			"componentType":5126,
			"count":3020,
			"type":"VEC2"
		},
		{
			"bufferView":3,
			"componentType":5123,
			"count":9945,
			"type":"SCALAR"
		},
		{
			"bufferView":4,
			"componentType":5126,
			"count":2492,
			"max":[
				51.244075775146484,
				0.30013495683670044,
				49.95076370239258
			],
			"min":[
				3.9294707775115967,
				-0.00020603835582733154,
				-2.036309003829956
			],
			"type":"VEC3"
		},
		{
			"bufferView":5,
			"componentType":5126,
			"count":2492,
			"type":"VEC3"
		},
		{
			"bufferView":6,
			"componentType":5126,
			"count":2492,
			"type":"VEC2"
		},
		{
			"bufferView":7,
			"componentType":5123,
			"count":9945,
			"type":"SCALAR"
		}
	],
	"bufferViews":[
		{
			"buffer":0,
			"byteLength":36240,
			"byteOffset":0,
			"target":34962
		},
		{
			"buffer":0,
			"byteLength":36240,
			"byteOffset":36240,
			"target":34962
		},
		{
			"buffer":0,
			"byteLength":24160,
			"byteOffset":72480,
			"target":34962
		},
		{
			"buffer":0,
			"byteLength":19890,
			"byteOffset":96640,
			"target":34963
		},
		{
			"buffer":0,
			"byteLength":29904,
			"byteOffset":116532,
			"target":34962
		},
		{
			"buffer":0,
			"byteLength":29904,
			"byteOffset":146436,
			"target":34962
		},
		{
			"buffer":0,
			"byteLength":19936,
			"byteOffset":176340,
			"target":34962
		},
		{
			"buffer":0,
			"byteLength":19890,
			"byteOffset":196276,
			"target":34963
		}
	],
	"samplers":[
		{
			"magFilter":9729,
			"minFilter":9987
		}
	],
	"buffers":[
		{
			"byteLength":216168,
			"uri":"obj_ground04.bin"
		}
	]
}
