{
	"asset":{
		"generator":"Khronos glTF Blender I/O v4.1.63",
		"version":"2.0"
	},
	"extensionsUsed":[
		"KHR_materials_specular",
		"KHR_materials_ior"
	],
	"scene":0,
	"scenes":[
		{
			"name":"Scene",
			"nodes":[
				0,
				1
			]
		}
	],
	"nodes":[
		{
			"mesh":0,
			"name":"obj_curtains_collider"
		},
		{
			"mesh":1,
			"name":"obj_curtains"
		}
	],
	"materials":[
		{
			"doubleSided":true,
			"emissiveFactor":[
				0.10000000149011612,
				0.10000000149011612,
				0.10000000149011612
			],
			"emissiveTexture":{
				"index":0
			},
			"extensions":{
				"KHR_materials_specular":{
					"specularFactor":0
				},
				"KHR_materials_ior":{
					"ior":1.4500000476837158
				}
			},
			"name":"obj_curtains",
			"pbrMetallicRoughness":{
				"baseColorTexture":{
					"index":1
				},
				"metallicFactor":0
			}
		}
	],
	"meshes":[
		{
			"name":"Mesh.186",
			"primitives":[
				{
					"attributes":{
						"POSITION":0,
						"NORMAL":1
					},
					"indices":2
				}
			]
		},
		{
			"name":"Mesh.187",
			"primitives":[
				{
					"attributes":{
						"POSITION":3,
						"NORMAL":4,
						"TEXCOORD_0":5
					},
					"indices":6,
					"material":0
				}
			]
		}
	],
	"textures":[
		{
			"sampler":0,
			"source":0
		},
		{
			"sampler":0,
			"source":0
		}
	],
	"images":[
		{
			"mimeType":"image/png",
			"name":"obj_curtains",
			"uri":"textures/obj_curtains.png"
		}
	],
	"accessors":[
		{
			"bufferView":0,
			"componentType":5126,
			"count":1164,
			"max":[
				4.95943021774292,
				4.000560760498047,
				0.39922797679901123
			],
			"min":[
				-4.962925434112549,
				0.16094660758972168,
				-0.9535026550292969
			],
			"type":"VEC3"
		},
		{
			"bufferView":1,
			"componentType":5126,
			"count":1164,
			"type":"VEC3"
		},
		{
			"bufferView":2,
			"componentType":5123,
			"count":4302,
			"type":"SCALAR"
		},
		{
			"bufferView":3,
			"componentType":5126,
			"count":1193,
			"max":[
				4.95943021774292,
				4.000560760498047,
				0.39922797679901123
			],
			"min":[
				-4.962925434112549,
				0.16094660758972168,
				-0.9535026550292969
			],
			"type":"VEC3"
		},
		{
			"bufferView":4,
			"componentType":5126,
			"count":1193,
			"type":"VEC3"
		},
		{
			"bufferView":5,
			"componentType":5126,
			"count":1193,
			"type":"VEC2"
		},
		{
			"bufferView":6,
			"componentType":5123,
			"count":4302,
			"type":"SCALAR"
		}
	],
	"bufferViews":[
		{
			"buffer":0,
			"byteLength":13968,
			"byteOffset":0,
			"target":34962
		},
		{
			"buffer":0,
			"byteLength":13968,
			"byteOffset":13968,
			"target":34962
		},
		{
			"buffer":0,
			"byteLength":8604,
			"byteOffset":27936,
			"target":34963
		},
		{
			"buffer":0,
			"byteLength":14316,
			"byteOffset":36540,
			"target":34962
		},
		{
			"buffer":0,
			"byteLength":14316,
			"byteOffset":50856,
			"target":34962
		},
		{
			"buffer":0,
			"byteLength":9544,
			"byteOffset":65172,
			"target":34962
		},
		{
			"buffer":0,
			"byteLength":8604,
			"byteOffset":74716,
			"target":34963
		}
	],
	"samplers":[
		{
			"magFilter":9729,
			"minFilter":9987
		}
	],
	"buffers":[
		{
			"byteLength":83320,
			"uri":"obj_curtains.bin"
		}
	]
}
