{
	"asset":{
		"generator":"Khronos glTF Blender I/O v4.3.47",
		"version":"2.0"
	},
	"extensionsUsed":[
		"KHR_materials_clearcoat",
		"KHR_materials_specular"
	],
	"scene":0,
	"scenes":[
		{
			"name":"Scene",
			"nodes":[
				0,
				1
			]
		}
	],
	"nodes":[
		{
			"mesh":0,
			"name":"obj_sofa"
		},
		{
			"mesh":1,
			"name":"obj_sofa_collider"
		}
	],
	"materials":[
		{
			"emissiveFactor":[
				1,
				1,
				1
			],
			"emissiveTexture":{
				"index":0
			},
			"extensions":{
				"KHR_materials_clearcoat":{
					"clearcoatRoughnessFactor":0
				},
				"KHR_materials_specular":{
					"specularFactor":0
				}
			},
			"name":"obj_sofa",
			"pbrMetallicRoughness":{
				"baseColorTexture":{
					"index":1
				},
				"metallicFactor":0
			}
		}
	],
	"meshes":[
		{
			"name":"obj_sofa",
			"primitives":[
				{
					"attributes":{
						"POSITION":0,
						"NORMAL":1,
						"TEXCOORD_0":2
					},
					"indices":3,
					"material":0
				}
			]
		},
		{
			"name":"obj_sofa_collider",
			"primitives":[
				{
					"attributes":{
						"POSITION":4,
						"NORMAL":5,
						"TEXCOORD_0":6,
						"TEXCOORD_1":7
					},
					"indices":8
				}
			]
		}
	],
	"textures":[
		{
			"sampler":0,
			"source":0
		},
		{
			"sampler":0,
			"source":1
		}
	],
	"images":[
		{
			"mimeType":"image/png",
			"name":"obj_sofa_emission",
			"uri":"textures/obj_sofa_emission.png"
		},
		{
			"mimeType":"image/png",
			"name":"obj_sofa",
			"uri":"textures/obj_sofa.png"
		}
	],
	"accessors":[
		{
			"bufferView":0,
			"componentType":5126,
			"count":63990,
			"max":[
				65.95433044433594,
				21.384366989135742,
				65.2913589477539
			],
			"min":[
				-61.29495620727539,
				0.1789529025554657,
				-70.67882537841797
			],
			"type":"VEC3"
		},
		{
			"bufferView":1,
			"componentType":5126,
			"count":63990,
			"type":"VEC3"
		},
		{
			"bufferView":2,
			"componentType":5126,
			"count":63990,
			"type":"VEC2"
		},
		{
			"bufferView":3,
			"componentType":5123,
			"count":171540,
			"type":"SCALAR"
		},
		{
			"bufferView":4,
			"componentType":5126,
			"count":25727,
			"max":[
				65.95433044433594,
				21.384366989135742,
				65.27590942382812
			],
			"min":[
				-61.29495620727539,
				0.1789529025554657,
				-70.67882537841797
			],
			"type":"VEC3"
		},
		{
			"bufferView":5,
			"componentType":5126,
			"count":25727,
			"type":"VEC3"
		},
		{
			"bufferView":6,
			"componentType":5126,
			"count":25727,
			"type":"VEC2"
		},
		{
			"bufferView":7,
			"componentType":5126,
			"count":25727,
			"type":"VEC2"
		},
		{
			"bufferView":8,
			"componentType":5123,
			"count":63300,
			"type":"SCALAR"
		}
	],
	"bufferViews":[
		{
			"buffer":0,
			"byteLength":767880,
			"byteOffset":0,
			"target":34962
		},
		{
			"buffer":0,
			"byteLength":767880,
			"byteOffset":767880,
			"target":34962
		},
		{
			"buffer":0,
			"byteLength":511920,
			"byteOffset":1535760,
			"target":34962
		},
		{
			"buffer":0,
			"byteLength":343080,
			"byteOffset":2047680,
			"target":34963
		},
		{
			"buffer":0,
			"byteLength":308724,
			"byteOffset":2390760,
			"target":34962
		},
		{
			"buffer":0,
			"byteLength":308724,
			"byteOffset":2699484,
			"target":34962
		},
		{
			"buffer":0,
			"byteLength":205816,
			"byteOffset":3008208,
			"target":34962
		},
		{
			"buffer":0,
			"byteLength":205816,
			"byteOffset":3214024,
			"target":34962
		},
		{
			"buffer":0,
			"byteLength":126600,
			"byteOffset":3419840,
			"target":34963
		}
	],
	"samplers":[
		{
			"magFilter":9729,
			"minFilter":9987
		}
	],
	"buffers":[
		{
			"byteLength":3546440,
			"uri":"obj_sofa.bin"
		}
	]
}
