{
	"asset":{
		"generator":"Khronos glTF Blender I/O v4.1.63",
		"version":"2.0"
	},
	"extensionsUsed":[
		"KHR_materials_specular",
		"KHR_materials_ior"
	],
	"scene":0,
	"scenes":[
		{
			"name":"Scene",
			"nodes":[
				0,
				1
			]
		}
	],
	"nodes":[
		{
			"mesh":0,
			"name":"obj_teleport02"
		},
		{
			"mesh":1,
			"name":"obj_teleport02_collider"
		}
	],
	"materials":[
		{
			"emissiveFactor":[
				0.10000000149011612,
				0.10000000149011612,
				0.10000000149011612
			],
			"emissiveTexture":{
				"index":0
			},
			"extensions":{
				"KHR_materials_specular":{
					"specularFactor":0.0020000000949949026
				},
				"KHR_materials_ior":{
					"ior":1.4500000476837158
				}
			},
			"name":"obj_teleport",
			"pbrMetallicRoughness":{
				"baseColorTexture":{
					"index":1
				},
				"metallicFactor":0
			}
		}
	],
	"meshes":[
		{
			"name":"Cylinder.002",
			"primitives":[
				{
					"attributes":{
						"POSITION":0,
						"NORMAL":1,
						"TEXCOORD_0":2
					},
					"indices":3,
					"material":0
				}
			]
		},
		{
			"name":"Cylinder.001",
			"primitives":[
				{
					"attributes":{
						"POSITION":4,
						"NORMAL":5,
						"TEXCOORD_0":6
					},
					"indices":7
				}
			]
		}
	],
	"textures":[
		{
			"sampler":0,
			"source":0
		},
		{
			"sampler":0,
			"source":0
		}
	],
	"images":[
		{
			"mimeType":"image/png",
			"name":"obj_teleport",
			"uri":"textures/obj_teleport.png"
		}
	],
	"accessors":[
		{
			"bufferView":0,
			"componentType":5126,
			"count":1912,
			"max":[
				1.2732077836990356,
				0.39118626713752747,
				1.3669354915618896
			],
			"min":[
				-1.2732079029083252,
				-0.0011396853951737285,
				-1.2097573280334473
			],
			"type":"VEC3"
		},
		{
			"bufferView":1,
			"componentType":5126,
			"count":1912,
			"type":"VEC3"
		},
		{
			"bufferView":2,
			"componentType":5126,
			"count":1912,
			"type":"VEC2"
		},
		{
			"bufferView":3,
			"componentType":5123,
			"count":6081,
			"type":"SCALAR"
		},
		{
			"bufferView":4,
			"componentType":5126,
			"count":224,
			"max":[
				1.333537220954895,
				0.6754783391952515,
				1.333537220954895
			],
			"min":[
				-1.333537220954895,
				0,
				-1.333537220954895
			],
			"type":"VEC3"
		},
		{
			"bufferView":5,
			"componentType":5126,
			"count":224,
			"type":"VEC3"
		},
		{
			"bufferView":6,
			"componentType":5126,
			"count":224,
			"type":"VEC2"
		},
		{
			"bufferView":7,
			"componentType":5123,
			"count":360,
			"type":"SCALAR"
		}
	],
	"bufferViews":[
		{
			"buffer":0,
			"byteLength":22944,
			"byteOffset":0,
			"target":34962
		},
		{
			"buffer":0,
			"byteLength":22944,
			"byteOffset":22944,
			"target":34962
		},
		{
			"buffer":0,
			"byteLength":15296,
			"byteOffset":45888,
			"target":34962
		},
		{
			"buffer":0,
			"byteLength":12162,
			"byteOffset":61184,
			"target":34963
		},
		{
			"buffer":0,
			"byteLength":2688,
			"byteOffset":73348,
			"target":34962
		},
		{
			"buffer":0,
			"byteLength":2688,
			"byteOffset":76036,
			"target":34962
		},
		{
			"buffer":0,
			"byteLength":1792,
			"byteOffset":78724,
			"target":34962
		},
		{
			"buffer":0,
			"byteLength":720,
			"byteOffset":80516,
			"target":34963
		}
	],
	"samplers":[
		{
			"magFilter":9729,
			"minFilter":9987
		}
	],
	"buffers":[
		{
			"byteLength":81236,
			"uri":"obj_teleport02.bin"
		}
	]
}
