{
	"asset":{
		"generator":"Khronos glTF Blender I/O v4.3.47",
		"version":"2.0"
	},
	"extensionsUsed":[
		"KHR_materials_specular"
	],
	"scene":0,
	"scenes":[
		{
			"name":"Scene",
			"nodes":[
				0,
				1
			]
		}
	],
	"nodes":[
		{
			"mesh":0,
			"name":"obj_floppy"
		},
		{
			"mesh":1,
			"name":"obj_floppy_collider"
		}
	],
	"materials":[
		{
			"emissiveFactor":[
				1,
				1,
				1
			],
			"emissiveTexture":{
				"index":0
			},
			"extensions":{
				"KHR_materials_specular":{
					"specularFactor":0
				}
			},
			"name":"obj_floppy",
			"pbrMetallicRoughness":{
				"baseColorTexture":{
					"index":1
				},
				"metallicFactor":0
			}
		}
	],
	"meshes":[
		{
			"name":"obj_floppy",
			"primitives":[
				{
					"attributes":{
						"POSITION":0,
						"NORMAL":1,
						"TEXCOORD_0":2
					},
					"indices":3,
					"material":0
				}
			]
		},
		{
			"name":"obj_floppy_collider",
			"primitives":[
				{
					"attributes":{
						"POSITION":4,
						"NORMAL":5,
						"TEXCOORD_0":6
					},
					"indices":7
				}
			]
		}
	],
	"textures":[
		{
			"sampler":0,
			"source":0
		},
		{
			"sampler":0,
			"source":1
		}
	],
	"images":[
		{
			"mimeType":"image/png",
			"name":"obj_floppy_emission",
			"uri":"textures/obj_floppy_emission.png"
		},
		{
			"mimeType":"image/png",
			"name":"obj_floppy",
			"uri":"textures/obj_floppy.png"
		}
	],
	"accessors":[
		{
			"bufferView":0,
			"componentType":5126,
			"count":30450,
			"max":[
				62.80329132080078,
				21.549808502197266,
				-13.501938819885254
			],
			"min":[
				-58.3177604675293,
				17.921627044677734,
				-71.95686340332031
			],
			"type":"VEC3"
		},
		{
			"bufferView":1,
			"componentType":5126,
			"count":30450,
			"type":"VEC3"
		},
		{
			"bufferView":2,
			"componentType":5126,
			"count":30450,
			"type":"VEC2"
		},
		{
			"bufferView":3,
			"componentType":5123,
			"count":90720,
			"type":"SCALAR"
		},
		{
			"bufferView":4,
			"componentType":5126,
			"count":546,
			"max":[
				62.80329132080078,
				21.549808502197266,
				-13.501938819885254
			],
			"min":[
				-58.337303161621094,
				17.921627044677734,
				-71.95686340332031
			],
			"type":"VEC3"
		},
		{
			"bufferView":5,
			"componentType":5126,
			"count":546,
			"type":"VEC3"
		},
		{
			"bufferView":6,
			"componentType":5126,
			"count":546,
			"type":"VEC2"
		},
		{
			"bufferView":7,
			"componentType":5123,
			"count":1404,
			"type":"SCALAR"
		}
	],
	"bufferViews":[
		{
			"buffer":0,
			"byteLength":365400,
			"byteOffset":0,
			"target":34962
		},
		{
			"buffer":0,
			"byteLength":365400,
			"byteOffset":365400,
			"target":34962
		},
		{
			"buffer":0,
			"byteLength":243600,
			"byteOffset":730800,
			"target":34962
		},
		{
			"buffer":0,
			"byteLength":181440,
			"byteOffset":974400,
			"target":34963
		},
		{
			"buffer":0,
			"byteLength":6552,
			"byteOffset":1155840,
			"target":34962
		},
		{
			"buffer":0,
			"byteLength":6552,
			"byteOffset":1162392,
			"target":34962
		},
		{
			"buffer":0,
			"byteLength":4368,
			"byteOffset":1168944,
			"target":34962
		},
		{
			"buffer":0,
			"byteLength":2808,
			"byteOffset":1173312,
			"target":34963
		}
	],
	"samplers":[
		{
			"magFilter":9729,
			"minFilter":9987
		}
	],
	"buffers":[
		{
			"byteLength":1176120,
			"uri":"obj_floppy.bin"
		}
	]
}
