{
	"asset":{
		"generator":"Khronos glTF Blender I/O v4.1.63",
		"version":"2.0"
	},
	"extensionsUsed":[
		"KHR_materials_specular"
	],
	"scene":0,
	"scenes":[
		{
			"name":"Scene",
			"nodes":[
				0,
				1
			]
		}
	],
	"nodes":[
		{
			"mesh":0,
			"name":"obj_stone09"
		},
		{
			"mesh":1,
			"name":"obj_stone09_collider"
		}
	],
	"materials":[
		{
			"emissiveFactor":[
				0.10000000149011612,
				0.10000000149011612,
				0.10000000149011612
			],
			"emissiveTexture":{
				"index":0
			},
			"extensions":{
				"KHR_materials_specular":{
					"specularFactor":0
				}
			},
			"name":"obj_stone02",
			"pbrMetallicRoughness":{
				"baseColorTexture":{
					"index":1
				},
				"metallicFactor":0
			}
		}
	],
	"meshes":[
		{
			"name":"Mesh.138",
			"primitives":[
				{
					"attributes":{
						"POSITION":0,
						"NORMAL":1,
						"TEXCOORD_0":2
					},
					"indices":3,
					"material":0
				}
			]
		},
		{
			"name":"Mesh.001",
			"primitives":[
				{
					"attributes":{
						"POSITION":4,
						"NORMAL":5,
						"TEXCOORD_0":6
					},
					"indices":7
				}
			]
		}
	],
	"textures":[
		{
			"sampler":0,
			"source":0
		},
		{
			"sampler":0,
			"source":0
		}
	],
	"images":[
		{
			"mimeType":"image/png",
			"name":"obj_stone02",
			"uri":"textures/obj_stone02.png"
		}
	],
	"accessors":[
		{
			"bufferView":0,
			"componentType":5126,
			"count":107,
			"max":[
				0.5312666296958923,
				0.7029002904891968,
				0.8177450299263
			],
			"min":[
				-0.5016412138938904,
				-0.02212730422616005,
				-0.7940099239349365
			],
			"type":"VEC3"
		},
		{
			"bufferView":1,
			"componentType":5126,
			"count":107,
			"type":"VEC3"
		},
		{
			"bufferView":2,
			"componentType":5126,
			"count":107,
			"type":"VEC2"
		},
		{
			"bufferView":3,
			"componentType":5123,
			"count":306,
			"type":"SCALAR"
		},
		{
			"bufferView":4,
			"componentType":5126,
			"count":64,
			"max":[
				0.5312666296958923,
				0.6983334422111511,
				0.8180256485939026
			],
			"min":[
				-0.49492454528808594,
				-0.02212730422616005,
				-0.7940099239349365
			],
			"type":"VEC3"
		},
		{
			"bufferView":5,
			"componentType":5126,
			"count":64,
			"type":"VEC3"
		},
		{
			"bufferView":6,
			"componentType":5126,
			"count":64,
			"type":"VEC2"
		},
		{
			"bufferView":7,
			"componentType":5123,
			"count":150,
			"type":"SCALAR"
		}
	],
	"bufferViews":[
		{
			"buffer":0,
			"byteLength":1284,
			"byteOffset":0,
			"target":34962
		},
		{
			"buffer":0,
			"byteLength":1284,
			"byteOffset":1284,
			"target":34962
		},
		{
			"buffer":0,
			"byteLength":856,
			"byteOffset":2568,
			"target":34962
		},
		{
			"buffer":0,
			"byteLength":612,
			"byteOffset":3424,
			"target":34963
		},
		{
			"buffer":0,
			"byteLength":768,
			"byteOffset":4036,
			"target":34962
		},
		{
			"buffer":0,
			"byteLength":768,
			"byteOffset":4804,
			"target":34962
		},
		{
			"buffer":0,
			"byteLength":512,
			"byteOffset":5572,
			"target":34962
		},
		{
			"buffer":0,
			"byteLength":300,
			"byteOffset":6084,
			"target":34963
		}
	],
	"samplers":[
		{
			"magFilter":9729,
			"minFilter":9987
		}
	],
	"buffers":[
		{
			"byteLength":6384,
			"uri":"obj_stone09.bin"
		}
	]
}
