{
	"asset":{
		"generator":"Khronos glTF Blender I/O v4.2.57",
		"version":"2.0"
	},
	"extensionsUsed":[
		"KHR_materials_specular",
		"KHR_materials_ior"
	],
	"scene":0,
	"scenes":[
		{
			"name":"Scene",
			"nodes":[
				0,
				1
			]
		}
	],
	"nodes":[
		{
			"mesh":0,
			"name":"obj_arcade02"
		},
		{
			"mesh":1,
			"name":"obj_arcade02_collider"
		}
	],
	"materials":[
		{
			"alphaMode":"BLEND",
			"doubleSided":true,
			"emissiveFactor":[
				0.26224830746650696,
				0.5647120475769043,
				0.9215821027755737
			],
			"extensions":{
				"KHR_materials_specular":{
					"specularFactor":0
				},
				"KHR_materials_ior":{
					"ior":1.4500000476837158
				}
			},
			"name":"obj_arcade01_03",
			"pbrMetallicRoughness":{
				"baseColorFactor":[
					0.26224830746650696,
					0.5647120475769043,
					0.9215821027755737,
					1
				],
				"baseColorTexture":{
					"index":0
				},
				"metallicFactor":0
			}
		},
		{
			"alphaMode":"BLEND",
			"doubleSided":true,
			"emissiveFactor":[
				0.10000000149011612,
				0.10000000149011612,
				0.10000000149011612
			],
			"emissiveTexture":{
				"index":1
			},
			"extensions":{
				"KHR_materials_specular":{
					"specularFactor":0
				},
				"KHR_materials_ior":{
					"ior":1.4500000476837158
				}
			},
			"name":"obj_arcade01_02",
			"pbrMetallicRoughness":{
				"baseColorTexture":{
					"index":2
				},
				"metallicFactor":0
			}
		},
		{
			"doubleSided":true,
			"emissiveFactor":[
				1,
				1,
				1
			],
			"emissiveTexture":{
				"index":3
			},
			"extensions":{
				"KHR_materials_specular":{
					"specularFactor":0
				},
				"KHR_materials_ior":{
					"ior":1.4500000476837158
				}
			},
			"name":"obj_arcade02_01",
			"pbrMetallicRoughness":{
				"baseColorTexture":{
					"index":4
				},
				"metallicFactor":0
			}
		},
		{
			"emissiveFactor":[
				0.26224830746650696,
				0.5647120475769043,
				0.9215821027755737
			],
			"extensions":{
				"KHR_materials_specular":{
					"specularFactor":0
				},
				"KHR_materials_ior":{
					"ior":1.4500000476837158
				}
			},
			"name":"obj_global_emission01",
			"pbrMetallicRoughness":{
				"baseColorFactor":[
					0.26224830746650696,
					0.5647120475769043,
					0.9215821027755737,
					1
				],
				"metallicFactor":0
			}
		}
	],
	"meshes":[
		{
			"name":"Mesh.012",
			"primitives":[
				{
					"attributes":{
						"POSITION":0,
						"NORMAL":1,
						"TEXCOORD_0":2
					},
					"indices":3,
					"material":0
				},
				{
					"attributes":{
						"POSITION":4,
						"NORMAL":5,
						"TEXCOORD_0":6
					},
					"indices":7,
					"material":1
				},
				{
					"attributes":{
						"POSITION":8,
						"NORMAL":9,
						"TEXCOORD_0":10
					},
					"indices":11,
					"material":2
				},
				{
					"attributes":{
						"POSITION":12,
						"NORMAL":13,
						"TEXCOORD_0":14
					},
					"indices":15,
					"material":3
				}
			]
		},
		{
			"name":"Mesh.010",
			"primitives":[
				{
					"attributes":{
						"POSITION":16,
						"NORMAL":17,
						"TEXCOORD_0":18,
						"TEXCOORD_1":19
					},
					"indices":20
				}
			]
		}
	],
	"textures":[
		{
			"sampler":0,
			"source":0
		},
		{
			"sampler":0,
			"source":1
		},
		{
			"sampler":0,
			"source":1
		},
		{
			"sampler":0,
			"source":2
		},
		{
			"sampler":0,
			"source":3
		}
	],
	"images":[
		{
			"mimeType":"image/png",
			"name":"obj_arcade01_03",
			"uri":"textures/obj_arcade01_03.png"
		},
		{
			"mimeType":"image/png",
			"name":"obj_arcade01_02",
			"uri":"textures/obj_arcade01_02.png"
		},
		{
			"mimeType":"image/png",
			"name":"obj_arcade02_01_emission",
			"uri":"textures/obj_arcade02_01_emission.png"
		},
		{
			"mimeType":"image/png",
			"name":"obj_arcade02_01",
			"uri":"textures/obj_arcade02_01.png"
		}
	],
	"accessors":[
		{
			"bufferView":0,
			"componentType":5126,
			"count":24,
			"max":[
				0.3025394082069397,
				1.4462378025054932,
				-0.3149162530899048
			],
			"min":[
				-0.368960976600647,
				1.3256425857543945,
				-0.3494318425655365
			],
			"type":"VEC3"
		},
		{
			"bufferView":1,
			"componentType":5126,
			"count":24,
			"type":"VEC3"
		},
		{
			"bufferView":2,
			"componentType":5126,
			"count":24,
			"type":"VEC2"
		},
		{
			"bufferView":3,
			"componentType":5123,
			"count":48,
			"type":"SCALAR"
		},
		{
			"bufferView":4,
			"componentType":5126,
			"count":6,
			"max":[
				0.3679282069206238,
				2.308077096939087,
				0.008358416147530079
			],
			"min":[
				-0.3657553195953369,
				1.470208764076233,
				-0.2161477506160736
			],
			"type":"VEC3"
		},
		{
			"bufferView":5,
			"componentType":5126,
			"count":6,
			"type":"VEC3"
		},
		{
			"bufferView":6,
			"componentType":5126,
			"count":6,
			"type":"VEC2"
		},
		{
			"bufferView":7,
			"componentType":5123,
			"count":6,
			"type":"SCALAR"
		},
		{
			"bufferView":8,
			"componentType":5126,
			"count":952,
			"max":[
				0.6179273724555969,
				2.757786273956299,
				0.795390784740448
			],
			"min":[
				-0.6179274320602417,
				-4.0978193283081055e-07,
				-0.6247672438621521
			],
			"type":"VEC3"
		},
		{
			"bufferView":9,
			"componentType":5126,
			"count":952,
			"type":"VEC3"
		},
		{
			"bufferView":10,
			"componentType":5126,
			"count":952,
			"type":"VEC2"
		},
		{
			"bufferView":11,
			"componentType":5123,
			"count":2124,
			"type":"SCALAR"
		},
		{
			"bufferView":12,
			"componentType":5126,
			"count":194,
			"max":[
				0.3558686375617981,
				2.646225690841675,
				0.12385865300893784
			],
			"min":[
				-0.36375927925109863,
				2.5753512382507324,
				0.03133147954940796
			],
			"type":"VEC3"
		},
		{
			"bufferView":13,
			"componentType":5126,
			"count":194,
			"type":"VEC3"
		},
		{
			"bufferView":14,
			"componentType":5126,
			"count":194,
			"type":"VEC2"
		},
		{
			"bufferView":15,
			"componentType":5123,
			"count":405,
			"type":"SCALAR"
		},
		{
			"bufferView":16,
			"componentType":5126,
			"count":116,
			"max":[
				0.6179273724555969,
				2.757786273956299,
				0.795390784740448
			],
			"min":[
				-0.6179274320602417,
				-3.47561780245087e-07,
				-0.6247672438621521
			],
			"type":"VEC3"
		},
		{
			"bufferView":17,
			"componentType":5126,
			"count":116,
			"type":"VEC3"
		},
		{
			"bufferView":18,
			"componentType":5126,
			"count":116,
			"type":"VEC2"
		},
		{
			"bufferView":19,
			"componentType":5126,
			"count":116,
			"type":"VEC2"
		},
		{
			"bufferView":20,
			"componentType":5123,
			"count":186,
			"type":"SCALAR"
		}
	],
	"bufferViews":[
		{
			"buffer":0,
			"byteLength":288,
			"byteOffset":0,
			"target":34962
		},
		{
			"buffer":0,
			"byteLength":288,
			"byteOffset":288,
			"target":34962
		},
		{
			"buffer":0,
			"byteLength":192,
			"byteOffset":576,
			"target":34962
		},
		{
			"buffer":0,
			"byteLength":96,
			"byteOffset":768,
			"target":34963
		},
		{
			"buffer":0,
			"byteLength":72,
			"byteOffset":864,
			"target":34962
		},
		{
			"buffer":0,
			"byteLength":72,
			"byteOffset":936,
			"target":34962
		},
		{
			"buffer":0,
			"byteLength":48,
			"byteOffset":1008,
			"target":34962
		},
		{
			"buffer":0,
			"byteLength":12,
			"byteOffset":1056,
			"target":34963
		},
		{
			"buffer":0,
			"byteLength":11424,
			"byteOffset":1068,
			"target":34962
		},
		{
			"buffer":0,
			"byteLength":11424,
			"byteOffset":12492,
			"target":34962
		},
		{
			"buffer":0,
			"byteLength":7616,
			"byteOffset":23916,
			"target":34962
		},
		{
			"buffer":0,
			"byteLength":4248,
			"byteOffset":31532,
			"target":34963
		},
		{
			"buffer":0,
			"byteLength":2328,
			"byteOffset":35780,
			"target":34962
		},
		{
			"buffer":0,
			"byteLength":2328,
			"byteOffset":38108,
			"target":34962
		},
		{
			"buffer":0,
			"byteLength":1552,
			"byteOffset":40436,
			"target":34962
		},
		{
			"buffer":0,
			"byteLength":810,
			"byteOffset":41988,
			"target":34963
		},
		{
			"buffer":0,
			"byteLength":1392,
			"byteOffset":42800,
			"target":34962
		},
		{
			"buffer":0,
			"byteLength":1392,
			"byteOffset":44192,
			"target":34962
		},
		{
			"buffer":0,
			"byteLength":928,
			"byteOffset":45584,
			"target":34962
		},
		{
			"buffer":0,
			"byteLength":928,
			"byteOffset":46512,
			"target":34962
		},
		{
			"buffer":0,
			"byteLength":372,
			"byteOffset":47440,
			"target":34963
		}
	],
	"samplers":[
		{
			"magFilter":9729,
			"minFilter":9987
		}
	],
	"buffers":[
		{
			"byteLength":47812,
			"uri":"obj_arcade02.bin"
		}
	]
}
