{
	"asset":{
		"generator":"Khronos glTF Blender I/O v4.1.63",
		"version":"2.0"
	},
	"extensionsUsed":[
		"KHR_materials_specular",
		"KHR_materials_ior"
	],
	"scene":0,
	"scenes":[
		{
			"name":"Scene",
			"nodes":[
				0,
				1
			]
		}
	],
	"nodes":[
		{
			"mesh":0,
			"name":"obj_screen06"
		},
		{
			"mesh":1,
			"name":"obj_screen06_collider"
		}
	],
	"materials":[
		{
			"emissiveFactor":[
				1,
				1,
				1
			],
			"emissiveTexture":{
				"index":0
			},
			"extensions":{
				"KHR_materials_specular":{
					"specularFactor":0
				},
				"KHR_materials_ior":{
					"ior":1.4500000476837158
				}
			},
			"name":"obj_screen",
			"pbrMetallicRoughness":{
				"baseColorTexture":{
					"index":1
				},
				"metallicFactor":0
			}
		}
	],
	"meshes":[
		{
			"name":"Mesh.138",
			"primitives":[
				{
					"attributes":{
						"POSITION":0,
						"NORMAL":1,
						"TEXCOORD_0":2
					},
					"indices":3,
					"material":0
				}
			]
		},
		{
			"name":"Cube.049",
			"primitives":[
				{
					"attributes":{
						"POSITION":4,
						"NORMAL":5,
						"TEXCOORD_0":6
					},
					"indices":7
				}
			]
		}
	],
	"textures":[
		{
			"sampler":0,
			"source":0
		},
		{
			"sampler":0,
			"source":1
		}
	],
	"images":[
		{
			"mimeType":"image/png",
			"name":"obj_screen_emission",
			"uri":"textures/obj_screen_emission.png"
		},
		{
			"mimeType":"image/png",
			"name":"obj_screen",
			"uri":"textures/obj_screen.png"
		}
	],
	"accessors":[
		{
			"bufferView":0,
			"componentType":5126,
			"count":436,
			"max":[
				2.0680031776428223,
				2.6479153633117676,
				0.38341766595840454
			],
			"min":[
				-2.0680670738220215,
				-1.1920928955078125e-07,
				-0.07163625955581665
			],
			"type":"VEC3"
		},
		{
			"bufferView":1,
			"componentType":5126,
			"count":436,
			"type":"VEC3"
		},
		{
			"bufferView":2,
			"componentType":5126,
			"count":436,
			"type":"VEC2"
		},
		{
			"bufferView":3,
			"componentType":5123,
			"count":1158,
			"type":"SCALAR"
		},
		{
			"bufferView":4,
			"componentType":5126,
			"count":60,
			"max":[
				2.0720934867858887,
				2.6479153633117676,
				0.3746810555458069
			],
			"min":[
				-2.0673704147338867,
				1.1920928955078125e-07,
				-0.08125188201665878
			],
			"type":"VEC3"
		},
		{
			"bufferView":5,
			"componentType":5126,
			"count":60,
			"type":"VEC3"
		},
		{
			"bufferView":6,
			"componentType":5126,
			"count":60,
			"type":"VEC2"
		},
		{
			"bufferView":7,
			"componentType":5123,
			"count":108,
			"type":"SCALAR"
		}
	],
	"bufferViews":[
		{
			"buffer":0,
			"byteLength":5232,
			"byteOffset":0,
			"target":34962
		},
		{
			"buffer":0,
			"byteLength":5232,
			"byteOffset":5232,
			"target":34962
		},
		{
			"buffer":0,
			"byteLength":3488,
			"byteOffset":10464,
			"target":34962
		},
		{
			"buffer":0,
			"byteLength":2316,
			"byteOffset":13952,
			"target":34963
		},
		{
			"buffer":0,
			"byteLength":720,
			"byteOffset":16268,
			"target":34962
		},
		{
			"buffer":0,
			"byteLength":720,
			"byteOffset":16988,
			"target":34962
		},
		{
			"buffer":0,
			"byteLength":480,
			"byteOffset":17708,
			"target":34962
		},
		{
			"buffer":0,
			"byteLength":216,
			"byteOffset":18188,
			"target":34963
		}
	],
	"samplers":[
		{
			"magFilter":9729,
			"minFilter":9987
		}
	],
	"buffers":[
		{
			"byteLength":18404,
			"uri":"obj_screen06.bin"
		}
	]
}
