{
	"asset":{
		"generator":"Khronos glTF Blender I/O v4.1.63",
		"version":"2.0"
	},
	"extensionsUsed":[
		"KHR_materials_specular",
		"KHR_materials_ior"
	],
	"scene":0,
	"scenes":[
		{
			"name":"Scene",
			"nodes":[
				0,
				1
			]
		}
	],
	"nodes":[
		{
			"mesh":0,
			"name":"obj_decoration04"
		},
		{
			"mesh":1,
			"name":"obj_decoration04_collider"
		}
	],
	"materials":[
		{
			"emissiveFactor":[
				0.10000000149011612,
				0.10000000149011612,
				0.10000000149011612
			],
			"emissiveTexture":{
				"index":0
			},
			"extensions":{
				"KHR_materials_specular":{
					"specularFactor":0
				},
				"KHR_materials_ior":{
					"ior":1.4500000476837158
				}
			},
			"name":"obj_decoration04",
			"pbrMetallicRoughness":{
				"baseColorTexture":{
					"index":1
				},
				"metallicFactor":0
			}
		},
		{
			"emissiveFactor":[
				1,
				1,
				1
			],
			"emissiveTexture":{
				"index":2
			},
			"extensions":{
				"KHR_materials_specular":{
					"specularFactor":0
				},
				"KHR_materials_ior":{
					"ior":1.4500000476837158
				}
			},
			"name":"obj_lab08_02",
			"pbrMetallicRoughness":{
				"baseColorTexture":{
					"index":3
				},
				"metallicFactor":0
			}
		}
	],
	"meshes":[
		{
			"name":"Mesh.017",
			"primitives":[
				{
					"attributes":{
						"POSITION":0,
						"NORMAL":1,
						"TEXCOORD_0":2
					},
					"indices":3,
					"material":0
				},
				{
					"attributes":{
						"POSITION":4,
						"NORMAL":5,
						"TEXCOORD_0":6
					},
					"indices":7,
					"material":1
				}
			]
		},
		{
			"name":"Mesh.013",
			"primitives":[
				{
					"attributes":{
						"POSITION":8,
						"NORMAL":9,
						"TEXCOORD_0":10
					},
					"indices":11
				}
			]
		}
	],
	"textures":[
		{
			"sampler":0,
			"source":0
		},
		{
			"sampler":0,
			"source":0
		},
		{
			"sampler":0,
			"source":1
		},
		{
			"sampler":0,
			"source":2
		}
	],
	"images":[
		{
			"mimeType":"image/png",
			"name":"obj_decoration04",
			"uri":"textures/obj_decoration04.png"
		},
		{
			"mimeType":"image/png",
			"name":"obj_lab08_02_emission",
			"uri":"textures/obj_lab08_02_emission.png"
		},
		{
			"mimeType":"image/png",
			"name":"obj_lab08_02",
			"uri":"textures/obj_lab08_02.png"
		}
	],
	"accessors":[
		{
			"bufferView":0,
			"componentType":5126,
			"count":1654,
			"max":[
				1.3932355642318726,
				3.9061126708984375,
				1.1526110172271729
			],
			"min":[
				-1.8199187517166138,
				-0.0030148718506097794,
				-1.1526110172271729
			],
			"type":"VEC3"
		},
		{
			"bufferView":1,
			"componentType":5126,
			"count":1654,
			"type":"VEC3"
		},
		{
			"bufferView":2,
			"componentType":5126,
			"count":1654,
			"type":"VEC2"
		},
		{
			"bufferView":3,
			"componentType":5123,
			"count":5910,
			"type":"SCALAR"
		},
		{
			"bufferView":4,
			"componentType":5126,
			"count":194,
			"max":[
				-0.22552871704101562,
				4.735611438751221,
				0.5728616714477539
			],
			"min":[
				-1.3407821655273438,
				3.5593719482421875,
				-0.5423951148986816
			],
			"type":"VEC3"
		},
		{
			"bufferView":5,
			"componentType":5126,
			"count":194,
			"type":"VEC3"
		},
		{
			"bufferView":6,
			"componentType":5126,
			"count":194,
			"type":"VEC2"
		},
		{
			"bufferView":7,
			"componentType":5123,
			"count":1152,
			"type":"SCALAR"
		},
		{
			"bufferView":8,
			"componentType":5126,
			"count":669,
			"max":[
				1.4191555976867676,
				4.6388678550720215,
				1.1102242469787598
			],
			"min":[
				-1.827881097793579,
				-8.381960014958167e-08,
				-1.1102242469787598
			],
			"type":"VEC3"
		},
		{
			"bufferView":9,
			"componentType":5126,
			"count":669,
			"type":"VEC3"
		},
		{
			"bufferView":10,
			"componentType":5126,
			"count":669,
			"type":"VEC2"
		},
		{
			"bufferView":11,
			"componentType":5123,
			"count":1302,
			"type":"SCALAR"
		}
	],
	"bufferViews":[
		{
			"buffer":0,
			"byteLength":19848,
			"byteOffset":0,
			"target":34962
		},
		{
			"buffer":0,
			"byteLength":19848,
			"byteOffset":19848,
			"target":34962
		},
		{
			"buffer":0,
			"byteLength":13232,
			"byteOffset":39696,
			"target":34962
		},
		{
			"buffer":0,
			"byteLength":11820,
			"byteOffset":52928,
			"target":34963
		},
		{
			"buffer":0,
			"byteLength":2328,
			"byteOffset":64748,
			"target":34962
		},
		{
			"buffer":0,
			"byteLength":2328,
			"byteOffset":67076,
			"target":34962
		},
		{
			"buffer":0,
			"byteLength":1552,
			"byteOffset":69404,
			"target":34962
		},
		{
			"buffer":0,
			"byteLength":2304,
			"byteOffset":70956,
			"target":34963
		},
		{
			"buffer":0,
			"byteLength":8028,
			"byteOffset":73260,
			"target":34962
		},
		{
			"buffer":0,
			"byteLength":8028,
			"byteOffset":81288,
			"target":34962
		},
		{
			"buffer":0,
			"byteLength":5352,
			"byteOffset":89316,
			"target":34962
		},
		{
			"buffer":0,
			"byteLength":2604,
			"byteOffset":94668,
			"target":34963
		}
	],
	"samplers":[
		{
			"magFilter":9729,
			"minFilter":9987
		}
	],
	"buffers":[
		{
			"byteLength":97272,
			"uri":"obj_decoration04.bin"
		}
	]
}
