{
	"asset":{
		"generator":"Khronos glTF Blender I/O v4.2.57",
		"version":"2.0"
	},
	"extensionsUsed":[
		"KHR_materials_specular",
		"KHR_materials_ior"
	],
	"scene":0,
	"scenes":[
		{
			"name":"Scene",
			"nodes":[
				0
			]
		}
	],
	"nodes":[
		{
			"mesh":0,
			"name":"obj_road"
		}
	],
	"materials":[
		{
			"doubleSided":true,
			"emissiveFactor":[
				0.10625255852937698,
				0.11258970946073532,
				0.12500301003456116
			],
			"emissiveTexture":{
				"index":0
			},
			"extensions":{
				"KHR_materials_specular":{
					"specularFactor":0
				},
				"KHR_materials_ior":{
					"ior":1.4500000476837158
				}
			},
			"name":"obj_road.001",
			"pbrMetallicRoughness":{
				"baseColorTexture":{
					"index":1
				},
				"metallicFactor":0
			}
		}
	],
	"meshes":[
		{
			"name":"Plane.002",
			"primitives":[
				{
					"attributes":{
						"POSITION":0,
						"NORMAL":1,
						"TEXCOORD_0":2
					},
					"indices":3,
					"material":0
				}
			]
		}
	],
	"textures":[
		{
			"sampler":0,
			"source":0
		},
		{
			"sampler":0,
			"source":0
		}
	],
	"images":[
		{
			"mimeType":"image/png",
			"name":"obj_road",
			"uri":"textures/obj_road.png"
		}
	],
	"accessors":[
		{
			"bufferView":0,
			"componentType":5126,
			"count":1300,
			"max":[
				77.11253356933594,
				0.04445604979991913,
				71.28795623779297
			],
			"min":[
				-69.46586608886719,
				-0.3355439305305481,
				-75.64356994628906
			],
			"type":"VEC3"
		},
		{
			"bufferView":1,
			"componentType":5126,
			"count":1300,
			"type":"VEC3"
		},
		{
			"bufferView":2,
			"componentType":5126,
			"count":1300,
			"type":"VEC2"
		},
		{
			"bufferView":3,
			"componentType":5123,
			"count":3933,
			"type":"SCALAR"
		}
	],
	"bufferViews":[
		{
			"buffer":0,
			"byteLength":15600,
			"byteOffset":0,
			"target":34962
		},
		{
			"buffer":0,
			"byteLength":15600,
			"byteOffset":15600,
			"target":34962
		},
		{
			"buffer":0,
			"byteLength":10400,
			"byteOffset":31200,
			"target":34962
		},
		{
			"buffer":0,
			"byteLength":7866,
			"byteOffset":41600,
			"target":34963
		}
	],
	"samplers":[
		{
			"magFilter":9729,
			"minFilter":9987
		}
	],
	"buffers":[
		{
			"byteLength":49468,
			"uri":"obj_road.bin"
		}
	]
}
