{
	"asset":{
		"generator":"Khronos glTF Blender I/O v4.1.63",
		"version":"2.0"
	},
	"extensionsUsed":[
		"KHR_materials_specular",
		"KHR_materials_ior"
	],
	"scene":0,
	"scenes":[
		{
			"name":"Scene",
			"nodes":[
				6
			]
		}
	],
	"nodes":[
		{
			"name":"planet",
			"rotation":[
				-0.16116175055503845,
				-0.005381887312978506,
				-0.25370603799819946,
				0.9537459015846252
			],
			"scale":[
				0.9999999403953552,
				0.9999999403953552,
				1
			],
			"translation":[
				-2.640866994857788,
				2.1779074668884277,
				1.9109221696853638
			]
		},
		{
			"name":"globe"
		},
		{
			"children":[
				0,
				1
			],
			"name":"root"
		},
		{
			"name":"neutral_bone",
			"rotation":[
				-0.7071067690849304,
				0,
				0,
				0.7071067690849304
			]
		},
		{
			"mesh":0,
			"name":"obj_globe02",
			"skin":0
		},
		{
			"mesh":1,
			"name":"obj_globe02_collider"
		},
		{
			"children":[
				4,
				5,
				2,
				3
			],
			"name":"Armature"
		}
	],
	"animations":[
		{
			"channels":[
				{
					"sampler":0,
					"target":{
						"node":2,
						"path":"translation"
					}
				},
				{
					"sampler":1,
					"target":{
						"node":2,
						"path":"rotation"
					}
				},
				{
					"sampler":2,
					"target":{
						"node":2,
						"path":"scale"
					}
				},
				{
					"sampler":3,
					"target":{
						"node":0,
						"path":"translation"
					}
				},
				{
					"sampler":4,
					"target":{
						"node":0,
						"path":"rotation"
					}
				},
				{
					"sampler":5,
					"target":{
						"node":0,
						"path":"scale"
					}
				},
				{
					"sampler":6,
					"target":{
						"node":1,
						"path":"translation"
					}
				},
				{
					"sampler":7,
					"target":{
						"node":1,
						"path":"rotation"
					}
				},
				{
					"sampler":8,
					"target":{
						"node":1,
						"path":"scale"
					}
				}
			],
			"name":"obj_globe02_stand",
			"samplers":[
				{
					"input":24,
					"interpolation":"STEP",
					"output":25
				},
				{
					"input":24,
					"interpolation":"STEP",
					"output":26
				},
				{
					"input":24,
					"interpolation":"STEP",
					"output":27
				},
				{
					"input":24,
					"interpolation":"STEP",
					"output":28
				},
				{
					"input":29,
					"interpolation":"LINEAR",
					"output":30
				},
				{
					"input":24,
					"interpolation":"STEP",
					"output":31
				},
				{
					"input":24,
					"interpolation":"STEP",
					"output":32
				},
				{
					"input":24,
					"interpolation":"STEP",
					"output":33
				},
				{
					"input":24,
					"interpolation":"STEP",
					"output":34
				}
			]
		}
	],
	"materials":[
		{
			"emissiveFactor":[
				0.15000000596046448,
				0.15000000596046448,
				0.15000000596046448
			],
			"emissiveTexture":{
				"index":0
			},
			"extensions":{
				"KHR_materials_specular":{
					"specularFactor":0.0020000000949949026
				},
				"KHR_materials_ior":{
					"ior":1.4500000476837158
				}
			},
			"name":"obj_globe01",
			"pbrMetallicRoughness":{
				"baseColorTexture":{
					"index":1
				},
				"metallicFactor":0
			}
		},
		{
			"emissiveFactor":[
				0.26229405403137207,
				0.5646868348121643,
				0.921515166759491
			],
			"extensions":{
				"KHR_materials_specular":{
					"specularFactor":0
				},
				"KHR_materials_ior":{
					"ior":1.4500000476837158
				}
			},
			"name":"obj_global_emission01",
			"pbrMetallicRoughness":{
				"baseColorFactor":[
					0.2617267668247223,
					0.566400408744812,
					0.9218639135360718,
					1
				],
				"metallicFactor":0
			}
		},
		{
			"emissiveFactor":[
				0.15000000596046448,
				0.15000000596046448,
				0.15000000596046448
			],
			"emissiveTexture":{
				"index":2
			},
			"extensions":{
				"KHR_materials_specular":{
					"specularFactor":0.0020000000949949026
				},
				"KHR_materials_ior":{
					"ior":1.4500000476837158
				}
			},
			"name":"obj_globe02",
			"pbrMetallicRoughness":{
				"baseColorTexture":{
					"index":3
				},
				"metallicFactor":0
			}
		}
	],
	"meshes":[
		{
			"name":"Sphere.006",
			"primitives":[
				{
					"attributes":{
						"POSITION":0,
						"NORMAL":1,
						"TEXCOORD_0":2,
						"JOINTS_0":3,
						"WEIGHTS_0":4
					},
					"indices":5,
					"material":0
				},
				{
					"attributes":{
						"POSITION":6,
						"NORMAL":7,
						"TEXCOORD_0":8,
						"JOINTS_0":9,
						"WEIGHTS_0":10
					},
					"indices":11,
					"material":1
				},
				{
					"attributes":{
						"POSITION":12,
						"NORMAL":13,
						"TEXCOORD_0":14,
						"JOINTS_0":15,
						"WEIGHTS_0":16
					},
					"indices":17,
					"material":2
				}
			]
		},
		{
			"name":"Cylinder.001",
			"primitives":[
				{
					"attributes":{
						"POSITION":19,
						"NORMAL":20,
						"TEXCOORD_0":21,
						"COLOR_0":22
					},
					"indices":23
				}
			]
		}
	],
	"textures":[
		{
			"sampler":0,
			"source":0
		},
		{
			"sampler":0,
			"source":0
		},
		{
			"sampler":0,
			"source":1
		},
		{
			"sampler":0,
			"source":1
		}
	],
	"images":[
		{
			"mimeType":"image/png",
			"name":"obj_globe02_01",
			"uri":"textures/obj_globe02_01.png"
		},
		{
			"mimeType":"image/png",
			"name":"obj_globe02_02",
			"uri":"textures/obj_globe02_02.png"
		}
	],
	"skins":[
		{
			"inverseBindMatrices":18,
			"joints":[
				2,
				0,
				1,
				3
			],
			"name":"Armature"
		}
	],
	"accessors":[
		{
			"bufferView":0,
			"componentType":5126,
			"count":1043,
			"max":[
				3.807236433029175,
				11.419581413269043,
				4.021141529083252
			],
			"min":[
				-4.040429592132568,
				2.0856895446777344,
				-3.7583446502685547
			],
			"type":"VEC3"
		},
		{
			"bufferView":1,
			"componentType":5126,
			"count":1043,
			"type":"VEC3"
		},
		{
			"bufferView":2,
			"componentType":5126,
			"count":1043,
			"type":"VEC2"
		},
		{
			"bufferView":3,
			"componentType":5121,
			"count":1043,
			"type":"VEC4"
		},
		{
			"bufferView":4,
			"componentType":5126,
			"count":1043,
			"type":"VEC4"
		},
		{
			"bufferView":5,
			"componentType":5123,
			"count":3021,
			"type":"SCALAR"
		},
		{
			"bufferView":6,
			"componentType":5126,
			"count":906,
			"max":[
				4.221005439758301,
				11.41061019897461,
				4.3322296142578125
			],
			"min":[
				-4.113982677459717,
				1.5169217586517334,
				-3.9314820766448975
			],
			"type":"VEC3"
		},
		{
			"bufferView":7,
			"componentType":5126,
			"count":906,
			"type":"VEC3"
		},
		{
			"bufferView":8,
			"componentType":5126,
			"count":906,
			"type":"VEC2"
		},
		{
			"bufferView":9,
			"componentType":5121,
			"count":906,
			"type":"VEC4"
		},
		{
			"bufferView":10,
			"componentType":5126,
			"count":906,
			"type":"VEC4"
		},
		{
			"bufferView":11,
			"componentType":5123,
			"count":2256,
			"type":"SCALAR"
		},
		{
			"bufferView":12,
			"componentType":5126,
			"count":575,
			"max":[
				3.7639756202697754,
				10.788890838623047,
				4.101992607116699
			],
			"min":[
				-3.9363479614257812,
				-2.1606683731079102e-07,
				-3.622966766357422
			],
			"type":"VEC3"
		},
		{
			"bufferView":13,
			"componentType":5126,
			"count":575,
			"type":"VEC3"
		},
		{
			"bufferView":14,
			"componentType":5126,
			"count":575,
			"type":"VEC2"
		},
		{
			"bufferView":15,
			"componentType":5121,
			"count":575,
			"type":"VEC4"
		},
		{
			"bufferView":16,
			"componentType":5126,
			"count":575,
			"type":"VEC4"
		},
		{
			"bufferView":17,
			"componentType":5123,
			"count":1902,
			"type":"SCALAR"
		},
		{
			"bufferView":18,
			"componentType":5126,
			"count":4,
			"type":"MAT4"
		},
		{
			"bufferView":19,
			"componentType":5126,
			"count":111,
			"max":[
				5.540669918060303,
				12.578689575195312,
				5.540669918060303
			],
			"min":[
				-5.5406694412231445,
				-0.009391188621520996,
				-5.540669918060303
			],
			"type":"VEC3"
		},
		{
			"bufferView":20,
			"componentType":5126,
			"count":111,
			"type":"VEC3"
		},
		{
			"bufferView":21,
			"componentType":5126,
			"count":111,
			"type":"VEC2"
		},
		{
			"bufferView":22,
			"componentType":5126,
			"count":111,
			"type":"VEC3"
		},
		{
			"bufferView":23,
			"componentType":5123,
			"count":360,
			"type":"SCALAR"
		},
		{
			"bufferView":24,
			"componentType":5126,
			"count":2,
			"max":[
				6
			],
			"min":[
				0
			],
			"type":"SCALAR"
		},
		{
			"bufferView":25,
			"componentType":5126,
			"count":2,
			"type":"VEC3"
		},
		{
			"bufferView":26,
			"componentType":5126,
			"count":2,
			"type":"VEC4"
		},
		{
			"bufferView":27,
			"componentType":5126,
			"count":2,
			"type":"VEC3"
		},
		{
			"bufferView":28,
			"componentType":5126,
			"count":2,
			"type":"VEC3"
		},
		{
			"bufferView":29,
			"componentType":5126,
			"count":181,
			"max":[
				6
			],
			"min":[
				0
			],
			"type":"SCALAR"
		},
		{
			"bufferView":30,
			"componentType":5126,
			"count":181,
			"type":"VEC4"
		},
		{
			"bufferView":31,
			"componentType":5126,
			"count":2,
			"type":"VEC3"
		},
		{
			"bufferView":32,
			"componentType":5126,
			"count":2,
			"type":"VEC3"
		},
		{
			"bufferView":33,
			"componentType":5126,
			"count":2,
			"type":"VEC4"
		},
		{
			"bufferView":34,
			"componentType":5126,
			"count":2,
			"type":"VEC3"
		}
	],
	"bufferViews":[
		{
			"buffer":0,
			"byteLength":12516,
			"byteOffset":0,
			"target":34962
		},
		{
			"buffer":0,
			"byteLength":12516,
			"byteOffset":12516,
			"target":34962
		},
		{
			"buffer":0,
			"byteLength":8344,
			"byteOffset":25032,
			"target":34962
		},
		{
			"buffer":0,
			"byteLength":4172,
			"byteOffset":33376,
			"target":34962
		},
		{
			"buffer":0,
			"byteLength":16688,
			"byteOffset":37548,
			"target":34962
		},
		{
			"buffer":0,
			"byteLength":6042,
			"byteOffset":54236,
			"target":34963
		},
		{
			"buffer":0,
			"byteLength":10872,
			"byteOffset":60280,
			"target":34962
		},
		{
			"buffer":0,
			"byteLength":10872,
			"byteOffset":71152,
			"target":34962
		},
		{
			"buffer":0,
			"byteLength":7248,
			"byteOffset":82024,
			"target":34962
		},
		{
			"buffer":0,
			"byteLength":3624,
			"byteOffset":89272,
			"target":34962
		},
		{
			"buffer":0,
			"byteLength":14496,
			"byteOffset":92896,
			"target":34962
		},
		{
			"buffer":0,
			"byteLength":4512,
			"byteOffset":107392,
			"target":34963
		},
		{
			"buffer":0,
			"byteLength":6900,
			"byteOffset":111904,
			"target":34962
		},
		{
			"buffer":0,
			"byteLength":6900,
			"byteOffset":118804,
			"target":34962
		},
		{
			"buffer":0,
			"byteLength":4600,
			"byteOffset":125704,
			"target":34962
		},
		{
			"buffer":0,
			"byteLength":2300,
			"byteOffset":130304,
			"target":34962
		},
		{
			"buffer":0,
			"byteLength":9200,
			"byteOffset":132604,
			"target":34962
		},
		{
			"buffer":0,
			"byteLength":3804,
			"byteOffset":141804,
			"target":34963
		},
		{
			"buffer":0,
			"byteLength":256,
			"byteOffset":145608
		},
		{
			"buffer":0,
			"byteLength":1332,
			"byteOffset":145864,
			"target":34962
		},
		{
			"buffer":0,
			"byteLength":1332,
			"byteOffset":147196,
			"target":34962
		},
		{
			"buffer":0,
			"byteLength":888,
			"byteOffset":148528,
			"target":34962
		},
		{
			"buffer":0,
			"byteLength":1332,
			"byteOffset":149416,
			"target":34962
		},
		{
			"buffer":0,
			"byteLength":720,
			"byteOffset":150748,
			"target":34963
		},
		{
			"buffer":0,
			"byteLength":8,
			"byteOffset":151468
		},
		{
			"buffer":0,
			"byteLength":24,
			"byteOffset":151476
		},
		{
			"buffer":0,
			"byteLength":32,
			"byteOffset":151500
		},
		{
			"buffer":0,
			"byteLength":24,
			"byteOffset":151532
		},
		{
			"buffer":0,
			"byteLength":24,
			"byteOffset":151556
		},
		{
			"buffer":0,
			"byteLength":724,
			"byteOffset":151580
		},
		{
			"buffer":0,
			"byteLength":2896,
			"byteOffset":152304
		},
		{
			"buffer":0,
			"byteLength":24,
			"byteOffset":155200
		},
		{
			"buffer":0,
			"byteLength":24,
			"byteOffset":155224
		},
		{
			"buffer":0,
			"byteLength":32,
			"byteOffset":155248
		},
		{
			"buffer":0,
			"byteLength":24,
			"byteOffset":155280
		}
	],
	"samplers":[
		{
			"magFilter":9729,
			"minFilter":9987
		}
	],
	"buffers":[
		{
			"byteLength":155304,
			"uri":"obj_globe02.bin"
		}
	]
}
