{
	"asset":{
		"generator":"Khronos glTF Blender I/O v4.3.47",
		"version":"2.0"
	},
	"extensionsUsed":[
		"KHR_materials_specular"
	],
	"scene":0,
	"scenes":[
		{
			"name":"Scene",
			"nodes":[
				0,
				1
			]
		}
	],
	"nodes":[
		{
			"mesh":0,
			"name":"obj_book"
		},
		{
			"mesh":1,
			"name":"obj_book_collider"
		}
	],
	"materials":[
		{
			"emissiveFactor":[
				1,
				1,
				1
			],
			"emissiveTexture":{
				"index":0
			},
			"extensions":{
				"KHR_materials_specular":{
					"specularFactor":0
				}
			},
			"name":"obj_book",
			"pbrMetallicRoughness":{
				"baseColorTexture":{
					"index":1
				},
				"metallicFactor":0
			}
		}
	],
	"meshes":[
		{
			"name":"obj_book",
			"primitives":[
				{
					"attributes":{
						"POSITION":0,
						"NORMAL":1,
						"TEXCOORD_0":2
					},
					"indices":3,
					"material":0
				}
			]
		},
		{
			"name":"obj_book_collider",
			"primitives":[
				{
					"attributes":{
						"POSITION":4,
						"NORMAL":5,
						"TEXCOORD_0":6
					},
					"indices":7
				}
			]
		}
	],
	"textures":[
		{
			"sampler":0,
			"source":0
		},
		{
			"sampler":0,
			"source":1
		}
	],
	"images":[
		{
			"mimeType":"image/png",
			"name":"obj_book_emission",
			"uri":"textures/obj_book_emission.png"
		},
		{
			"mimeType":"image/png",
			"name":"obj_book",
			"uri":"textures/obj_book.png"
		}
	],
	"accessors":[
		{
			"bufferView":0,
			"componentType":5126,
			"count":7656,
			"max":[
				64.87445068359375,
				20.769794464111328,
				57.18208312988281
			],
			"min":[
				-65.51226806640625,
				16.38829803466797,
				-68.27850341796875
			],
			"type":"VEC3"
		},
		{
			"bufferView":1,
			"componentType":5126,
			"count":7656,
			"type":"VEC3"
		},
		{
			"bufferView":2,
			"componentType":5126,
			"count":7656,
			"type":"VEC2"
		},
		{
			"bufferView":3,
			"componentType":5123,
			"count":11484,
			"type":"SCALAR"
		},
		{
			"bufferView":4,
			"componentType":5126,
			"count":7656,
			"max":[
				64.87445068359375,
				20.769794464111328,
				57.18208312988281
			],
			"min":[
				-65.51226806640625,
				16.38829803466797,
				-68.27850341796875
			],
			"type":"VEC3"
		},
		{
			"bufferView":5,
			"componentType":5126,
			"count":7656,
			"type":"VEC3"
		},
		{
			"bufferView":6,
			"componentType":5126,
			"count":7656,
			"type":"VEC2"
		},
		{
			"bufferView":7,
			"componentType":5123,
			"count":11484,
			"type":"SCALAR"
		}
	],
	"bufferViews":[
		{
			"buffer":0,
			"byteLength":91872,
			"byteOffset":0,
			"target":34962
		},
		{
			"buffer":0,
			"byteLength":91872,
			"byteOffset":91872,
			"target":34962
		},
		{
			"buffer":0,
			"byteLength":61248,
			"byteOffset":183744,
			"target":34962
		},
		{
			"buffer":0,
			"byteLength":22968,
			"byteOffset":244992,
			"target":34963
		},
		{
			"buffer":0,
			"byteLength":91872,
			"byteOffset":267960,
			"target":34962
		},
		{
			"buffer":0,
			"byteLength":91872,
			"byteOffset":359832,
			"target":34962
		},
		{
			"buffer":0,
			"byteLength":61248,
			"byteOffset":451704,
			"target":34962
		},
		{
			"buffer":0,
			"byteLength":22968,
			"byteOffset":512952,
			"target":34963
		}
	],
	"samplers":[
		{
			"magFilter":9729,
			"minFilter":9987
		}
	],
	"buffers":[
		{
			"byteLength":535920,
			"uri":"obj_book.bin"
		}
	]
}
