{
	"asset":{
		"generator":"Khronos glTF Blender I/O v4.1.63",
		"version":"2.0"
	},
	"extensionsUsed":[
		"KHR_materials_specular",
		"KHR_materials_ior"
	],
	"scene":0,
	"scenes":[
		{
			"name":"Scene",
			"nodes":[
				0,
				1
			]
		}
	],
	"nodes":[
		{
			"mesh":0,
			"name":"obj_clock"
		},
		{
			"mesh":1,
			"name":"obj_clock_collider"
		}
	],
	"materials":[
		{
			"alphaMode":"BLEND",
			"doubleSided":true,
			"emissiveFactor":[
				0.6000000238418579,
				0.6000000238418579,
				0.6000000238418579
			],
			"emissiveTexture":{
				"index":0
			},
			"extensions":{
				"KHR_materials_specular":{
					"specularFactor":0
				},
				"KHR_materials_ior":{
					"ior":1.4500000476837158
				}
			},
			"name":"obj_clock02",
			"pbrMetallicRoughness":{
				"baseColorFactor":[
					1,
					1,
					1,
					0.699999988079071
				],
				"baseColorTexture":{
					"index":1
				},
				"metallicFactor":0
			}
		},
		{
			"emissiveFactor":[
				0.10000000149011612,
				0.10000000149011612,
				0.10000000149011612
			],
			"emissiveTexture":{
				"index":2
			},
			"extensions":{
				"KHR_materials_specular":{
					"specularFactor":0
				},
				"KHR_materials_ior":{
					"ior":1.4500000476837158
				}
			},
			"name":"obj_clock01",
			"pbrMetallicRoughness":{
				"baseColorTexture":{
					"index":3
				},
				"metallicFactor":0
			}
		},
		{
			"emissiveFactor":[
				0.26229405403137207,
				0.5646868348121643,
				0.921515166759491
			],
			"extensions":{
				"KHR_materials_specular":{
					"specularFactor":0
				},
				"KHR_materials_ior":{
					"ior":1.4500000476837158
				}
			},
			"name":"obj_global_emission01",
			"pbrMetallicRoughness":{
				"baseColorFactor":[
					0.2617267668247223,
					0.566400408744812,
					0.9218639135360718,
					1
				],
				"metallicFactor":0
			}
		}
	],
	"meshes":[
		{
			"name":"Circle.007",
			"primitives":[
				{
					"attributes":{
						"POSITION":0,
						"NORMAL":1,
						"TEXCOORD_0":2
					},
					"indices":3,
					"material":0
				},
				{
					"attributes":{
						"POSITION":4,
						"NORMAL":5,
						"TEXCOORD_0":6
					},
					"indices":7,
					"material":1
				},
				{
					"attributes":{
						"POSITION":8,
						"NORMAL":9,
						"TEXCOORD_0":10
					},
					"indices":11,
					"material":2
				}
			]
		},
		{
			"name":"Circle.008",
			"primitives":[
				{
					"attributes":{
						"POSITION":12,
						"NORMAL":13,
						"TEXCOORD_0":14
					},
					"indices":15
				}
			]
		}
	],
	"textures":[
		{
			"sampler":0,
			"source":0
		},
		{
			"sampler":0,
			"source":0
		},
		{
			"sampler":0,
			"source":1
		},
		{
			"sampler":0,
			"source":1
		}
	],
	"images":[
		{
			"mimeType":"image/png",
			"name":"obj_clock02",
			"uri":"textures/obj_clock02.png"
		},
		{
			"mimeType":"image/png",
			"name":"obj_clock01",
			"uri":"textures/obj_clock01.png"
		}
	],
	"accessors":[
		{
			"bufferView":0,
			"componentType":5126,
			"count":13,
			"max":[
				0.7863506078720093,
				0.7863506078720093,
				6.074417058243853e-08
			],
			"min":[
				-0.7863508462905884,
				-0.7863506078720093,
				-6.074417058243853e-08
			],
			"type":"VEC3"
		},
		{
			"bufferView":1,
			"componentType":5126,
			"count":13,
			"type":"VEC3"
		},
		{
			"bufferView":2,
			"componentType":5126,
			"count":13,
			"type":"VEC2"
		},
		{
			"bufferView":3,
			"componentType":5123,
			"count":36,
			"type":"SCALAR"
		},
		{
			"bufferView":4,
			"componentType":5126,
			"count":308,
			"max":[
				1.377709984779358,
				0.8935463428497314,
				0.18771937489509583
			],
			"min":[
				-1.3777103424072266,
				-0.8935463428497314,
				-0.18771931529045105
			],
			"type":"VEC3"
		},
		{
			"bufferView":5,
			"componentType":5126,
			"count":308,
			"type":"VEC3"
		},
		{
			"bufferView":6,
			"componentType":5126,
			"count":308,
			"type":"VEC2"
		},
		{
			"bufferView":7,
			"componentType":5123,
			"count":936,
			"type":"SCALAR"
		},
		{
			"bufferView":8,
			"componentType":5126,
			"count":48,
			"max":[
				0.7755886316299438,
				0.7755886316299438,
				0.06763499230146408
			],
			"min":[
				-0.7755887508392334,
				-0.7755886316299438,
				-0.03821229562163353
			],
			"type":"VEC3"
		},
		{
			"bufferView":9,
			"componentType":5126,
			"count":48,
			"type":"VEC3"
		},
		{
			"bufferView":10,
			"componentType":5126,
			"count":48,
			"type":"VEC2"
		},
		{
			"bufferView":11,
			"componentType":5123,
			"count":144,
			"type":"SCALAR"
		},
		{
			"bufferView":12,
			"componentType":5126,
			"count":136,
			"max":[
				1.3284521102905273,
				0.8686001896858215,
				0.13846126198768616
			],
			"min":[
				-1.328452229499817,
				-0.8686001896858215,
				-0.13846121728420258
			],
			"type":"VEC3"
		},
		{
			"bufferView":13,
			"componentType":5126,
			"count":136,
			"type":"VEC3"
		},
		{
			"bufferView":14,
			"componentType":5126,
			"count":136,
			"type":"VEC2"
		},
		{
			"bufferView":15,
			"componentType":5123,
			"count":264,
			"type":"SCALAR"
		}
	],
	"bufferViews":[
		{
			"buffer":0,
			"byteLength":156,
			"byteOffset":0,
			"target":34962
		},
		{
			"buffer":0,
			"byteLength":156,
			"byteOffset":156,
			"target":34962
		},
		{
			"buffer":0,
			"byteLength":104,
			"byteOffset":312,
			"target":34962
		},
		{
			"buffer":0,
			"byteLength":72,
			"byteOffset":416,
			"target":34963
		},
		{
			"buffer":0,
			"byteLength":3696,
			"byteOffset":488,
			"target":34962
		},
		{
			"buffer":0,
			"byteLength":3696,
			"byteOffset":4184,
			"target":34962
		},
		{
			"buffer":0,
			"byteLength":2464,
			"byteOffset":7880,
			"target":34962
		},
		{
			"buffer":0,
			"byteLength":1872,
			"byteOffset":10344,
			"target":34963
		},
		{
			"buffer":0,
			"byteLength":576,
			"byteOffset":12216,
			"target":34962
		},
		{
			"buffer":0,
			"byteLength":576,
			"byteOffset":12792,
			"target":34962
		},
		{
			"buffer":0,
			"byteLength":384,
			"byteOffset":13368,
			"target":34962
		},
		{
			"buffer":0,
			"byteLength":288,
			"byteOffset":13752,
			"target":34963
		},
		{
			"buffer":0,
			"byteLength":1632,
			"byteOffset":14040,
			"target":34962
		},
		{
			"buffer":0,
			"byteLength":1632,
			"byteOffset":15672,
			"target":34962
		},
		{
			"buffer":0,
			"byteLength":1088,
			"byteOffset":17304,
			"target":34962
		},
		{
			"buffer":0,
			"byteLength":528,
			"byteOffset":18392,
			"target":34963
		}
	],
	"samplers":[
		{
			"magFilter":9729,
			"minFilter":9987
		}
	],
	"buffers":[
		{
			"byteLength":18920,
			"uri":"obj_clock.bin"
		}
	]
}
