{
	"asset":{
		"generator":"Khronos glTF Blender I/O v4.1.63",
		"version":"2.0"
	},
	"extensionsUsed":[
		"KHR_materials_specular",
		"KHR_materials_ior"
	],
	"scene":0,
	"scenes":[
		{
			"name":"Scene",
			"nodes":[
				0,
				1
			]
		}
	],
	"nodes":[
		{
			"mesh":0,
			"name":"obj_decoration03"
		},
		{
			"mesh":1,
			"name":"obj_decoration03_collider"
		}
	],
	"materials":[
		{
			"emissiveFactor":[
				0.15000000596046448,
				0.15000000596046448,
				0.15000000596046448
			],
			"emissiveTexture":{
				"index":0
			},
			"extensions":{
				"KHR_materials_specular":{
					"specularFactor":0
				},
				"KHR_materials_ior":{
					"ior":1.4500000476837158
				}
			},
			"name":"obj_decoration03",
			"pbrMetallicRoughness":{
				"baseColorTexture":{
					"index":1
				},
				"metallicFactor":0
			}
		},
		{
			"emissiveFactor":[
				0.9215658903121948,
				0.7304738759994507,
				0.16513018310070038
			],
			"extensions":{
				"KHR_materials_specular":{
					"specularFactor":0
				},
				"KHR_materials_ior":{
					"ior":1.4500000476837158
				}
			},
			"name":"obj_global_emission02",
			"pbrMetallicRoughness":{
				"baseColorFactor":[
					0.9203937649726868,
					0.7313708662986755,
					0.1655372530221939,
					1
				],
				"metallicFactor":0
			}
		}
	],
	"meshes":[
		{
			"name":"Mesh.004",
			"primitives":[
				{
					"attributes":{
						"POSITION":0,
						"NORMAL":1,
						"TEXCOORD_0":2
					},
					"indices":3,
					"material":0
				},
				{
					"attributes":{
						"POSITION":4,
						"NORMAL":5,
						"TEXCOORD_0":6
					},
					"indices":7,
					"material":1
				}
			]
		},
		{
			"name":"Mesh.024",
			"primitives":[
				{
					"attributes":{
						"POSITION":8,
						"NORMAL":9,
						"TEXCOORD_0":10
					},
					"indices":11
				}
			]
		}
	],
	"textures":[
		{
			"sampler":0,
			"source":0
		},
		{
			"sampler":0,
			"source":0
		}
	],
	"images":[
		{
			"mimeType":"image/jpeg",
			"name":"obj_decoration03",
			"uri":"textures/obj_decoration03.jpg"
		}
	],
	"accessors":[
		{
			"bufferView":0,
			"componentType":5126,
			"count":712,
			"max":[
				2.684786558151245,
				2.627920627593994,
				1.5389949083328247
			],
			"min":[
				-2.6838440895080566,
				0.00023033023171592504,
				-1.5383739471435547
			],
			"type":"VEC3"
		},
		{
			"bufferView":1,
			"componentType":5126,
			"count":712,
			"type":"VEC3"
		},
		{
			"bufferView":2,
			"componentType":5126,
			"count":712,
			"type":"VEC2"
		},
		{
			"bufferView":3,
			"componentType":5123,
			"count":2280,
			"type":"SCALAR"
		},
		{
			"bufferView":4,
			"componentType":5126,
			"count":528,
			"max":[
				2.684786558151245,
				2.1350197792053223,
				1.5371851921081543
			],
			"min":[
				-2.6838440895080566,
				-1.7503834897070192e-06,
				-1.5365641117095947
			],
			"type":"VEC3"
		},
		{
			"bufferView":5,
			"componentType":5126,
			"count":528,
			"type":"VEC3"
		},
		{
			"bufferView":6,
			"componentType":5126,
			"count":528,
			"type":"VEC2"
		},
		{
			"bufferView":7,
			"componentType":5123,
			"count":1512,
			"type":"SCALAR"
		},
		{
			"bufferView":8,
			"componentType":5126,
			"count":361,
			"max":[
				2.684786558151245,
				2.6422460079193115,
				1.5389949083328247
			],
			"min":[
				-2.6838440895080566,
				-2.7421600634625065e-07,
				-1.5383739471435547
			],
			"type":"VEC3"
		},
		{
			"bufferView":9,
			"componentType":5126,
			"count":361,
			"type":"VEC3"
		},
		{
			"bufferView":10,
			"componentType":5126,
			"count":361,
			"type":"VEC2"
		},
		{
			"bufferView":11,
			"componentType":5123,
			"count":984,
			"type":"SCALAR"
		}
	],
	"bufferViews":[
		{
			"buffer":0,
			"byteLength":8544,
			"byteOffset":0,
			"target":34962
		},
		{
			"buffer":0,
			"byteLength":8544,
			"byteOffset":8544,
			"target":34962
		},
		{
			"buffer":0,
			"byteLength":5696,
			"byteOffset":17088,
			"target":34962
		},
		{
			"buffer":0,
			"byteLength":4560,
			"byteOffset":22784,
			"target":34963
		},
		{
			"buffer":0,
			"byteLength":6336,
			"byteOffset":27344,
			"target":34962
		},
		{
			"buffer":0,
			"byteLength":6336,
			"byteOffset":33680,
			"target":34962
		},
		{
			"buffer":0,
			"byteLength":4224,
			"byteOffset":40016,
			"target":34962
		},
		{
			"buffer":0,
			"byteLength":3024,
			"byteOffset":44240,
			"target":34963
		},
		{
			"buffer":0,
			"byteLength":4332,
			"byteOffset":47264,
			"target":34962
		},
		{
			"buffer":0,
			"byteLength":4332,
			"byteOffset":51596,
			"target":34962
		},
		{
			"buffer":0,
			"byteLength":2888,
			"byteOffset":55928,
			"target":34962
		},
		{
			"buffer":0,
			"byteLength":1968,
			"byteOffset":58816,
			"target":34963
		}
	],
	"samplers":[
		{
			"magFilter":9729,
			"minFilter":9987
		}
	],
	"buffers":[
		{
			"byteLength":60784,
			"uri":"obj_decoration03.bin"
		}
	]
}
