{
	"asset":{
		"generator":"Khronos glTF Blender I/O v4.3.47",
		"version":"2.0"
	},
	"extensionsUsed":[
		"KHR_materials_specular"
	],
	"scene":0,
	"scenes":[
		{
			"name":"Scene",
			"nodes":[
				0,
				1
			]
		}
	],
	"nodes":[
		{
			"mesh":0,
			"name":"obj_atom"
		},
		{
			"mesh":1,
			"name":"obj_atom_collider"
		}
	],
	"materials":[
		{
			"emissiveFactor":[
				1,
				1,
				1
			],
			"emissiveTexture":{
				"index":0
			},
			"extensions":{
				"KHR_materials_specular":{
					"specularFactor":0
				}
			},
			"name":"obj_atom01",
			"pbrMetallicRoughness":{
				"baseColorTexture":{
					"index":1
				},
				"metallicFactor":0
			}
		},
		{
			"emissiveFactor":[
				1,
				1,
				1
			],
			"emissiveTexture":{
				"index":2
			},
			"extensions":{
				"KHR_materials_specular":{
					"specularFactor":0
				}
			},
			"name":"obj_atom02",
			"pbrMetallicRoughness":{
				"baseColorTexture":{
					"index":3
				},
				"metallicFactor":0
			}
		}
	],
	"meshes":[
		{
			"name":"obj_atom",
			"primitives":[
				{
					"attributes":{
						"POSITION":0,
						"NORMAL":1,
						"TEXCOORD_0":2
					},
					"indices":3,
					"material":0
				},
				{
					"attributes":{
						"POSITION":4,
						"NORMAL":5,
						"TEXCOORD_0":6
					},
					"indices":7,
					"material":1
				}
			]
		},
		{
			"name":"obj_atom_collider",
			"primitives":[
				{
					"attributes":{
						"POSITION":8,
						"NORMAL":9,
						"TEXCOORD_0":10
					},
					"indices":11
				}
			]
		}
	],
	"textures":[
		{
			"sampler":0,
			"source":0
		},
		{
			"sampler":0,
			"source":1
		},
		{
			"sampler":0,
			"source":2
		},
		{
			"sampler":0,
			"source":3
		}
	],
	"images":[
		{
			"mimeType":"image/png",
			"name":"obj_atom01_emission",
			"uri":"textures/obj_atom01_emission.png"
		},
		{
			"mimeType":"image/png",
			"name":"obj_atom01",
			"uri":"textures/obj_atom01.png"
		},
		{
			"mimeType":"image/png",
			"name":"obj_atom02_emission",
			"uri":"textures/obj_atom02_emission.png"
		},
		{
			"mimeType":"image/png",
			"name":"obj_atom02",
			"uri":"textures/obj_atom02.png"
		}
	],
	"accessors":[
		{
			"bufferView":0,
			"componentType":5126,
			"count":13740,
			"max":[
				61.785606384277344,
				23.574703216552734,
				39.93825912475586
			],
			"min":[
				-55.49864196777344,
				6.628579139709473,
				-67.0879898071289
			],
			"type":"VEC3"
		},
		{
			"bufferView":1,
			"componentType":5126,
			"count":13740,
			"type":"VEC3"
		},
		{
			"bufferView":2,
			"componentType":5126,
			"count":13740,
			"type":"VEC2"
		},
		{
			"bufferView":3,
			"componentType":5123,
			"count":36042,
			"type":"SCALAR"
		},
		{
			"bufferView":4,
			"componentType":5126,
			"count":1612,
			"max":[
				-34.58477020263672,
				20.180326461791992,
				44.352943420410156
			],
			"min":[
				-51.73571014404297,
				-0.821295440196991,
				-59.72249984741211
			],
			"type":"VEC3"
		},
		{
			"bufferView":5,
			"componentType":5126,
			"count":1612,
			"type":"VEC3"
		},
		{
			"bufferView":6,
			"componentType":5126,
			"count":1612,
			"type":"VEC2"
		},
		{
			"bufferView":7,
			"componentType":5123,
			"count":5112,
			"type":"SCALAR"
		},
		{
			"bufferView":8,
			"componentType":5126,
			"count":2657,
			"max":[
				61.782535552978516,
				23.574703216552734,
				44.352943420410156
			],
			"min":[
				-55.495269775390625,
				-0.821295440196991,
				-67.0879898071289
			],
			"type":"VEC3"
		},
		{
			"bufferView":9,
			"componentType":5126,
			"count":2657,
			"type":"VEC3"
		},
		{
			"bufferView":10,
			"componentType":5126,
			"count":2657,
			"type":"VEC2"
		},
		{
			"bufferView":11,
			"componentType":5123,
			"count":5886,
			"type":"SCALAR"
		}
	],
	"bufferViews":[
		{
			"buffer":0,
			"byteLength":164880,
			"byteOffset":0,
			"target":34962
		},
		{
			"buffer":0,
			"byteLength":164880,
			"byteOffset":164880,
			"target":34962
		},
		{
			"buffer":0,
			"byteLength":109920,
			"byteOffset":329760,
			"target":34962
		},
		{
			"buffer":0,
			"byteLength":72084,
			"byteOffset":439680,
			"target":34963
		},
		{
			"buffer":0,
			"byteLength":19344,
			"byteOffset":511764,
			"target":34962
		},
		{
			"buffer":0,
			"byteLength":19344,
			"byteOffset":531108,
			"target":34962
		},
		{
			"buffer":0,
			"byteLength":12896,
			"byteOffset":550452,
			"target":34962
		},
		{
			"buffer":0,
			"byteLength":10224,
			"byteOffset":563348,
			"target":34963
		},
		{
			"buffer":0,
			"byteLength":31884,
			"byteOffset":573572,
			"target":34962
		},
		{
			"buffer":0,
			"byteLength":31884,
			"byteOffset":605456,
			"target":34962
		},
		{
			"buffer":0,
			"byteLength":21256,
			"byteOffset":637340,
			"target":34962
		},
		{
			"buffer":0,
			"byteLength":11772,
			"byteOffset":658596,
			"target":34963
		}
	],
	"samplers":[
		{
			"magFilter":9729,
			"minFilter":9987
		}
	],
	"buffers":[
		{
			"byteLength":670368,
			"uri":"obj_atom.bin"
		}
	]
}
