{
	"asset":{
		"generator":"Khronos glTF Blender I/O v4.1.63",
		"version":"2.0"
	},
	"extensionsUsed":[
		"KHR_materials_specular",
		"KHR_materials_ior"
	],
	"scene":0,
	"scenes":[
		{
			"name":"Scene",
			"nodes":[
				0
			]
		}
	],
	"nodes":[
		{
			"mesh":0,
			"name":"obj_lines05"
		}
	],
	"materials":[
		{
			"emissiveFactor":[
				0.26229405403137207,
				0.5646868348121643,
				0.921515166759491
			],
			"extensions":{
				"KHR_materials_specular":{
					"specularFactor":0
				},
				"KHR_materials_ior":{
					"ior":1.4500000476837158
				}
			},
			"name":"obj_global_emission01",
			"pbrMetallicRoughness":{
				"baseColorFactor":[
					0.2617267668247223,
					0.566400408744812,
					0.9218639135360718,
					1
				],
				"metallicFactor":0
			}
		}
	],
	"meshes":[
		{
			"name":"Plane.040",
			"primitives":[
				{
					"attributes":{
						"POSITION":0,
						"NORMAL":1,
						"TEXCOORD_0":2
					},
					"indices":3,
					"material":0
				}
			]
		}
	],
	"accessors":[
		{
			"bufferView":0,
			"componentType":5126,
			"count":3975,
			"max":[
				-17.82960319519043,
				0.30139678716659546,
				-8.306700706481934
			],
			"min":[
				-47.48198318481445,
				0.30139678716659546,
				-31.89312171936035
			],
			"type":"VEC3"
		},
		{
			"bufferView":1,
			"componentType":5126,
			"count":3975,
			"type":"VEC3"
		},
		{
			"bufferView":2,
			"componentType":5126,
			"count":3975,
			"type":"VEC2"
		},
		{
			"bufferView":3,
			"componentType":5123,
			"count":7512,
			"type":"SCALAR"
		}
	],
	"bufferViews":[
		{
			"buffer":0,
			"byteLength":47700,
			"byteOffset":0,
			"target":34962
		},
		{
			"buffer":0,
			"byteLength":47700,
			"byteOffset":47700,
			"target":34962
		},
		{
			"buffer":0,
			"byteLength":31800,
			"byteOffset":95400,
			"target":34962
		},
		{
			"buffer":0,
			"byteLength":15024,
			"byteOffset":127200,
			"target":34963
		}
	],
	"buffers":[
		{
			"byteLength":142224,
			"uri":"obj_lines05.bin"
		}
	]
}
