{
	"asset":{
		"generator":"Khronos glTF Blender I/O v4.1.63",
		"version":"2.0"
	},
	"extensionsUsed":[
		"KHR_materials_specular",
		"KHR_materials_ior"
	],
	"scene":0,
	"scenes":[
		{
			"name":"Scene",
			"nodes":[
				0,
				1
			]
		}
	],
	"nodes":[
		{
			"mesh":0,
			"name":"obj_fence05"
		},
		{
			"mesh":1,
			"name":"obj_fence05_collider"
		}
	],
	"materials":[
		{
			"emissiveFactor":[
				1,
				1,
				1
			],
			"emissiveTexture":{
				"index":0
			},
			"extensions":{
				"KHR_materials_specular":{
					"specularFactor":0
				},
				"KHR_materials_ior":{
					"ior":1.4500000476837158
				}
			},
			"name":"obj_fence01",
			"pbrMetallicRoughness":{
				"baseColorTexture":{
					"index":1
				},
				"metallicFactor":0
			}
		},
		{
			"alphaMode":"BLEND",
			"extensions":{
				"KHR_materials_specular":{
					"specularFactor":0
				},
				"KHR_materials_ior":{
					"ior":1.4500000476837158
				}
			},
			"name":"obj_global_glass01",
			"pbrMetallicRoughness":{
				"baseColorFactor":[
					1,
					1,
					1,
					0.75
				],
				"baseColorTexture":{
					"index":2
				},
				"metallicFactor":0
			}
		}
	],
	"meshes":[
		{
			"name":"Cube.005",
			"primitives":[
				{
					"attributes":{
						"POSITION":0,
						"NORMAL":1,
						"TEXCOORD_0":2,
						"TEXCOORD_1":3
					},
					"indices":4,
					"material":0
				},
				{
					"attributes":{
						"POSITION":5,
						"NORMAL":6,
						"TEXCOORD_0":7,
						"TEXCOORD_1":8
					},
					"indices":9,
					"material":1
				}
			]
		},
		{
			"name":"Cube.011",
			"primitives":[
				{
					"attributes":{
						"POSITION":10,
						"NORMAL":11,
						"TEXCOORD_0":12,
						"TEXCOORD_1":13
					},
					"indices":14
				}
			]
		}
	],
	"textures":[
		{
			"sampler":0,
			"source":0
		},
		{
			"sampler":0,
			"source":1
		},
		{
			"sampler":0,
			"source":2
		}
	],
	"images":[
		{
			"mimeType":"image/png",
			"name":"obj_fence01_emission",
			"uri":"textures/obj_fence01_emission.png"
		},
		{
			"mimeType":"image/png",
			"name":"obj_fence01",
			"uri":"textures/obj_fence01.png"
		},
		{
			"mimeType":"image/png",
			"name":"obj_global_glass01",
			"uri":"textures/obj_global_glass01.png"
		}
	],
	"accessors":[
		{
			"bufferView":0,
			"componentType":5126,
			"count":3894,
			"max":[
				5.90428352355957,
				1.8542702198028564,
				5.899571418762207
			],
			"min":[
				-5.901312351226807,
				0.48858314752578735,
				-5.546178340911865
			],
			"type":"VEC3"
		},
		{
			"bufferView":1,
			"componentType":5126,
			"count":3894,
			"type":"VEC3"
		},
		{
			"bufferView":2,
			"componentType":5126,
			"count":3894,
			"type":"VEC2"
		},
		{
			"bufferView":3,
			"componentType":5126,
			"count":3894,
			"type":"VEC2"
		},
		{
			"bufferView":4,
			"componentType":5123,
			"count":10716,
			"type":"SCALAR"
		},
		{
			"bufferView":5,
			"componentType":5126,
			"count":164,
			"max":[
				5.790229797363281,
				1.5560948848724365,
				5.783524513244629
			],
			"min":[
				-5.7902302742004395,
				0.4515377879142761,
				-5.326074123382568
			],
			"type":"VEC3"
		},
		{
			"bufferView":6,
			"componentType":5126,
			"count":164,
			"type":"VEC3"
		},
		{
			"bufferView":7,
			"componentType":5126,
			"count":164,
			"type":"VEC2"
		},
		{
			"bufferView":8,
			"componentType":5126,
			"count":164,
			"type":"VEC2"
		},
		{
			"bufferView":9,
			"componentType":5123,
			"count":480,
			"type":"SCALAR"
		},
		{
			"bufferView":10,
			"componentType":5126,
			"count":277,
			"max":[
				5.954730033874512,
				1.8542702198028564,
				5.948024272918701
			],
			"min":[
				-5.95473051071167,
				0.48858290910720825,
				-5.546178340911865
			],
			"type":"VEC3"
		},
		{
			"bufferView":11,
			"componentType":5126,
			"count":277,
			"type":"VEC3"
		},
		{
			"bufferView":12,
			"componentType":5126,
			"count":277,
			"type":"VEC2"
		},
		{
			"bufferView":13,
			"componentType":5126,
			"count":277,
			"type":"VEC2"
		},
		{
			"bufferView":14,
			"componentType":5123,
			"count":792,
			"type":"SCALAR"
		}
	],
	"bufferViews":[
		{
			"buffer":0,
			"byteLength":46728,
			"byteOffset":0,
			"target":34962
		},
		{
			"buffer":0,
			"byteLength":46728,
			"byteOffset":46728,
			"target":34962
		},
		{
			"buffer":0,
			"byteLength":31152,
			"byteOffset":93456,
			"target":34962
		},
		{
			"buffer":0,
			"byteLength":31152,
			"byteOffset":124608,
			"target":34962
		},
		{
			"buffer":0,
			"byteLength":21432,
			"byteOffset":155760,
			"target":34963
		},
		{
			"buffer":0,
			"byteLength":1968,
			"byteOffset":177192,
			"target":34962
		},
		{
			"buffer":0,
			"byteLength":1968,
			"byteOffset":179160,
			"target":34962
		},
		{
			"buffer":0,
			"byteLength":1312,
			"byteOffset":181128,
			"target":34962
		},
		{
			"buffer":0,
			"byteLength":1312,
			"byteOffset":182440,
			"target":34962
		},
		{
			"buffer":0,
			"byteLength":960,
			"byteOffset":183752,
			"target":34963
		},
		{
			"buffer":0,
			"byteLength":3324,
			"byteOffset":184712,
			"target":34962
		},
		{
			"buffer":0,
			"byteLength":3324,
			"byteOffset":188036,
			"target":34962
		},
		{
			"buffer":0,
			"byteLength":2216,
			"byteOffset":191360,
			"target":34962
		},
		{
			"buffer":0,
			"byteLength":2216,
			"byteOffset":193576,
			"target":34962
		},
		{
			"buffer":0,
			"byteLength":1584,
			"byteOffset":195792,
			"target":34963
		}
	],
	"samplers":[
		{
			"magFilter":9729,
			"minFilter":9987
		}
	],
	"buffers":[
		{
			"byteLength":197376,
			"uri":"obj_fence05.bin"
		}
	]
}
