{
	"asset":{
		"generator":"Khronos glTF Blender I/O v4.1.63",
		"version":"2.0"
	},
	"extensionsUsed":[
		"KHR_materials_specular",
		"KHR_materials_ior"
	],
	"scene":0,
	"scenes":[
		{
			"name":"Scene",
			"nodes":[
				0,
				1
			]
		}
	],
	"nodes":[
		{
			"mesh":0,
			"name":"obj_wrench"
		},
		{
			"mesh":1,
			"name":"obj_wrench_collider"
		}
	],
	"materials":[
		{
			"emissiveFactor":[
				1,
				1,
				1
			],
			"emissiveTexture":{
				"index":0
			},
			"extensions":{
				"KHR_materials_specular":{
					"specularFactor":0
				},
				"KHR_materials_ior":{
					"ior":1.4500000476837158
				}
			},
			"name":"obj_wrench",
			"pbrMetallicRoughness":{
				"baseColorTexture":{
					"index":1
				},
				"metallicFactor":0
			}
		}
	],
	"meshes":[
		{
			"name":"Mesh.302",
			"primitives":[
				{
					"attributes":{
						"POSITION":0,
						"NORMAL":1,
						"TEXCOORD_0":2
					},
					"indices":3,
					"material":0
				}
			]
		},
		{
			"name":"Cube.004",
			"primitives":[
				{
					"attributes":{
						"POSITION":4,
						"NORMAL":5,
						"TEXCOORD_0":6
					},
					"indices":7
				}
			]
		}
	],
	"textures":[
		{
			"sampler":0,
			"source":0
		},
		{
			"sampler":0,
			"source":1
		}
	],
	"images":[
		{
			"mimeType":"image/png",
			"name":"obj_wrench_emission",
			"uri":"textures/obj_wrench_emission.png"
		},
		{
			"mimeType":"image/png",
			"name":"obj_wrench",
			"uri":"textures/obj_wrench.png"
		}
	],
	"accessors":[
		{
			"bufferView":0,
			"componentType":5126,
			"count":1361,
			"max":[
				0.6870509386062622,
				0.12127685546875,
				0.12964604794979095
			],
			"min":[
				-0.503232479095459,
				0,
				-0.1623278707265854
			],
			"type":"VEC3"
		},
		{
			"bufferView":1,
			"componentType":5126,
			"count":1361,
			"type":"VEC3"
		},
		{
			"bufferView":2,
			"componentType":5126,
			"count":1361,
			"type":"VEC2"
		},
		{
			"bufferView":3,
			"componentType":5123,
			"count":3450,
			"type":"SCALAR"
		},
		{
			"bufferView":4,
			"componentType":5126,
			"count":24,
			"max":[
				0.6870509386062622,
				0.12127683311700821,
				0.12964606285095215
			],
			"min":[
				-0.5009957551956177,
				0,
				-0.1623278707265854
			],
			"type":"VEC3"
		},
		{
			"bufferView":5,
			"componentType":5126,
			"count":24,
			"type":"VEC3"
		},
		{
			"bufferView":6,
			"componentType":5126,
			"count":24,
			"type":"VEC2"
		},
		{
			"bufferView":7,
			"componentType":5123,
			"count":36,
			"type":"SCALAR"
		}
	],
	"bufferViews":[
		{
			"buffer":0,
			"byteLength":16332,
			"byteOffset":0,
			"target":34962
		},
		{
			"buffer":0,
			"byteLength":16332,
			"byteOffset":16332,
			"target":34962
		},
		{
			"buffer":0,
			"byteLength":10888,
			"byteOffset":32664,
			"target":34962
		},
		{
			"buffer":0,
			"byteLength":6900,
			"byteOffset":43552,
			"target":34963
		},
		{
			"buffer":0,
			"byteLength":288,
			"byteOffset":50452,
			"target":34962
		},
		{
			"buffer":0,
			"byteLength":288,
			"byteOffset":50740,
			"target":34962
		},
		{
			"buffer":0,
			"byteLength":192,
			"byteOffset":51028,
			"target":34962
		},
		{
			"buffer":0,
			"byteLength":72,
			"byteOffset":51220,
			"target":34963
		}
	],
	"samplers":[
		{
			"magFilter":9729,
			"minFilter":9987
		}
	],
	"buffers":[
		{
			"byteLength":51292,
			"uri":"obj_wrench.bin"
		}
	]
}
