{
	"asset":{
		"generator":"Khronos glTF Blender I/O v4.3.47",
		"version":"2.0"
	},
	"extensionsUsed":[
		"KHR_materials_clearcoat",
		"KHR_materials_specular"
	],
	"scene":0,
	"scenes":[
		{
			"name":"Scene",
			"nodes":[
				0,
				1
			]
		}
	],
	"nodes":[
		{
			"mesh":0,
			"name":"obj_fridge"
		},
		{
			"mesh":1,
			"name":"obj_fridge_collider"
		}
	],
	"materials":[
		{
			"emissiveFactor":[
				0.10000000149011612,
				0.10000000149011612,
				0.10000000149011612
			],
			"emissiveTexture":{
				"index":0
			},
			"extensions":{
				"KHR_materials_specular":{
					"specularFactor":0
				}
			},
			"name":"obj_fridge01",
			"pbrMetallicRoughness":{
				"baseColorTexture":{
					"index":1
				},
				"metallicFactor":0
			}
		},
		{
			"doubleSided":true,
			"emissiveFactor":[
				0.26229405403137207,
				0.5646868348121643,
				0.921515166759491
			],
			"extensions":{
				"KHR_materials_specular":{
					"specularFactor":0
				}
			},
			"name":"obj_global_emission01",
			"pbrMetallicRoughness":{
				"baseColorFactor":[
					0.2617267668247223,
					0.566400408744812,
					0.9218639135360718,
					1
				],
				"metallicFactor":0
			}
		},
		{
			"alphaMode":"BLEND",
			"emissiveFactor":[
				1,
				1,
				1
			],
			"emissiveTexture":{
				"index":2
			},
			"extensions":{
				"KHR_materials_clearcoat":{
					"clearcoatRoughnessFactor":0
				},
				"KHR_materials_specular":{
					"specularFactor":0
				}
			},
			"name":"obj_global_glass02",
			"pbrMetallicRoughness":{
				"baseColorTexture":{
					"index":3
				},
				"metallicFactor":0
			}
		}
	],
	"meshes":[
		{
			"name":"obj_fridge",
			"primitives":[
				{
					"attributes":{
						"POSITION":0,
						"NORMAL":1,
						"TEXCOORD_0":2
					},
					"indices":3,
					"material":0
				},
				{
					"attributes":{
						"POSITION":4,
						"NORMAL":5,
						"TEXCOORD_0":6
					},
					"indices":7,
					"material":1
				},
				{
					"attributes":{
						"POSITION":8,
						"NORMAL":9,
						"TEXCOORD_0":10
					},
					"indices":11,
					"material":2
				}
			]
		},
		{
			"name":"obj_fridge_collider",
			"primitives":[
				{
					"attributes":{
						"POSITION":12,
						"NORMAL":13,
						"TEXCOORD_0":14
					},
					"indices":15
				}
			]
		}
	],
	"textures":[
		{
			"sampler":0,
			"source":0
		},
		{
			"sampler":0,
			"source":0
		},
		{
			"sampler":0,
			"source":1
		},
		{
			"sampler":0,
			"source":1
		}
	],
	"images":[
		{
			"mimeType":"image/png",
			"name":"obj_fridge01",
			"uri":"textures/obj_fridge01.png"
		},
		{
			"mimeType":"image/png",
			"name":"obj_global_glass02",
			"uri":"textures/obj_global_glass02.png"
		}
	],
	"accessors":[
		{
			"bufferView":0,
			"componentType":5126,
			"count":612,
			"max":[
				47.59345626831055,
				21.634075164794922,
				34.31142044067383
			],
			"min":[
				-34.8885498046875,
				16.51712417602539,
				-58.624542236328125
			],
			"type":"VEC3"
		},
		{
			"bufferView":1,
			"componentType":5126,
			"count":612,
			"type":"VEC3"
		},
		{
			"bufferView":2,
			"componentType":5126,
			"count":612,
			"type":"VEC2"
		},
		{
			"bufferView":3,
			"componentType":5123,
			"count":2160,
			"type":"SCALAR"
		},
		{
			"bufferView":4,
			"componentType":5126,
			"count":160,
			"max":[
				47.546573638916016,
				21.634071350097656,
				33.763309478759766
			],
			"min":[
				-34.84708023071289,
				16.517126083374023,
				-58.43060302734375
			],
			"type":"VEC3"
		},
		{
			"bufferView":5,
			"componentType":5126,
			"count":160,
			"type":"VEC3"
		},
		{
			"bufferView":6,
			"componentType":5126,
			"count":160,
			"type":"VEC2"
		},
		{
			"bufferView":7,
			"componentType":5123,
			"count":504,
			"type":"SCALAR"
		},
		{
			"bufferView":8,
			"componentType":5126,
			"count":26,
			"max":[
				47.55465316772461,
				21.496746063232422,
				33.547176361083984
			],
			"min":[
				-34.8492546081543,
				16.65445327758789,
				-58.25172805786133
			],
			"type":"VEC3"
		},
		{
			"bufferView":9,
			"componentType":5126,
			"count":26,
			"type":"VEC3"
		},
		{
			"bufferView":10,
			"componentType":5126,
			"count":26,
			"type":"VEC2"
		},
		{
			"bufferView":11,
			"componentType":5123,
			"count":72,
			"type":"SCALAR"
		},
		{
			"bufferView":12,
			"componentType":5126,
			"count":116,
			"max":[
				47.59390640258789,
				21.637943267822266,
				34.31949234008789
			],
			"min":[
				-34.889095306396484,
				16.513256072998047,
				-58.63791275024414
			],
			"type":"VEC3"
		},
		{
			"bufferView":13,
			"componentType":5126,
			"count":116,
			"type":"VEC3"
		},
		{
			"bufferView":14,
			"componentType":5126,
			"count":116,
			"type":"VEC2"
		},
		{
			"bufferView":15,
			"componentType":5123,
			"count":468,
			"type":"SCALAR"
		}
	],
	"bufferViews":[
		{
			"buffer":0,
			"byteLength":7344,
			"byteOffset":0,
			"target":34962
		},
		{
			"buffer":0,
			"byteLength":7344,
			"byteOffset":7344,
			"target":34962
		},
		{
			"buffer":0,
			"byteLength":4896,
			"byteOffset":14688,
			"target":34962
		},
		{
			"buffer":0,
			"byteLength":4320,
			"byteOffset":19584,
			"target":34963
		},
		{
			"buffer":0,
			"byteLength":1920,
			"byteOffset":23904,
			"target":34962
		},
		{
			"buffer":0,
			"byteLength":1920,
			"byteOffset":25824,
			"target":34962
		},
		{
			"buffer":0,
			"byteLength":1280,
			"byteOffset":27744,
			"target":34962
		},
		{
			"buffer":0,
			"byteLength":1008,
			"byteOffset":29024,
			"target":34963
		},
		{
			"buffer":0,
			"byteLength":312,
			"byteOffset":30032,
			"target":34962
		},
		{
			"buffer":0,
			"byteLength":312,
			"byteOffset":30344,
			"target":34962
		},
		{
			"buffer":0,
			"byteLength":208,
			"byteOffset":30656,
			"target":34962
		},
		{
			"buffer":0,
			"byteLength":144,
			"byteOffset":30864,
			"target":34963
		},
		{
			"buffer":0,
			"byteLength":1392,
			"byteOffset":31008,
			"target":34962
		},
		{
			"buffer":0,
			"byteLength":1392,
			"byteOffset":32400,
			"target":34962
		},
		{
			"buffer":0,
			"byteLength":928,
			"byteOffset":33792,
			"target":34962
		},
		{
			"buffer":0,
			"byteLength":936,
			"byteOffset":34720,
			"target":34963
		}
	],
	"samplers":[
		{
			"magFilter":9729,
			"minFilter":9987
		}
	],
	"buffers":[
		{
			"byteLength":35656,
			"uri":"obj_fridge.bin"
		}
	]
}
