{
	"asset":{
		"generator":"Khronos glTF Blender I/O v4.1.63",
		"version":"2.0"
	},
	"extensionsUsed":[
		"KHR_materials_specular",
		"KHR_materials_ior"
	],
	"scene":0,
	"scenes":[
		{
			"name":"Scene",
			"nodes":[
				0,
				1
			]
		}
	],
	"nodes":[
		{
			"mesh":0,
			"name":"obj_decoration02"
		},
		{
			"mesh":1,
			"name":"obj_decoration02_collider"
		}
	],
	"materials":[
		{
			"emissiveFactor":[
				0.9215658903121948,
				0.7304738759994507,
				0.16513018310070038
			],
			"extensions":{
				"KHR_materials_specular":{
					"specularFactor":0
				},
				"KHR_materials_ior":{
					"ior":1.4500000476837158
				}
			},
			"name":"obj_global_emission02",
			"pbrMetallicRoughness":{
				"baseColorFactor":[
					0.9203937649726868,
					0.7313708662986755,
					0.1655372530221939,
					1
				],
				"metallicFactor":0
			}
		},
		{
			"emissiveFactor":[
				0.20000000298023224,
				0.20000000298023224,
				0.20000000298023224
			],
			"emissiveTexture":{
				"index":0
			},
			"extensions":{
				"KHR_materials_specular":{
					"specularFactor":0
				},
				"KHR_materials_ior":{
					"ior":1.4500000476837158
				}
			},
			"name":"obj_decoration02",
			"pbrMetallicRoughness":{
				"baseColorTexture":{
					"index":1
				},
				"metallicFactor":0
			}
		}
	],
	"meshes":[
		{
			"name":"Mesh.023",
			"primitives":[
				{
					"attributes":{
						"POSITION":0,
						"NORMAL":1,
						"TEXCOORD_0":2
					},
					"indices":3,
					"material":0
				},
				{
					"attributes":{
						"POSITION":4,
						"NORMAL":5,
						"TEXCOORD_0":6
					},
					"indices":7,
					"material":1
				}
			]
		},
		{
			"name":"Mesh.026",
			"primitives":[
				{
					"attributes":{
						"POSITION":8,
						"NORMAL":9,
						"TEXCOORD_0":10
					},
					"indices":11
				}
			]
		}
	],
	"textures":[
		{
			"sampler":0,
			"source":0
		},
		{
			"sampler":0,
			"source":0
		}
	],
	"images":[
		{
			"mimeType":"image/jpeg",
			"name":"obj_decoration02",
			"uri":"textures/obj_decoration02.jpg"
		}
	],
	"accessors":[
		{
			"bufferView":0,
			"componentType":5126,
			"count":69,
			"max":[
				1.964714765548706,
				2.3893680572509766,
				0.9584997892379761
			],
			"min":[
				-1.9680213928222656,
				0.1668964922428131,
				-0.9579148292541504
			],
			"type":"VEC3"
		},
		{
			"bufferView":1,
			"componentType":5126,
			"count":69,
			"type":"VEC3"
		},
		{
			"bufferView":2,
			"componentType":5126,
			"count":69,
			"type":"VEC2"
		},
		{
			"bufferView":3,
			"componentType":5123,
			"count":183,
			"type":"SCALAR"
		},
		{
			"bufferView":4,
			"componentType":5126,
			"count":523,
			"max":[
				2.2956767082214355,
				2.5394458770751953,
				1.5474205017089844
			],
			"min":[
				-2.2956767082214355,
				0.16614030301570892,
				-1.5474205017089844
			],
			"type":"VEC3"
		},
		{
			"bufferView":5,
			"componentType":5126,
			"count":523,
			"type":"VEC3"
		},
		{
			"bufferView":6,
			"componentType":5126,
			"count":523,
			"type":"VEC2"
		},
		{
			"bufferView":7,
			"componentType":5123,
			"count":1548,
			"type":"SCALAR"
		},
		{
			"bufferView":8,
			"componentType":5126,
			"count":321,
			"max":[
				2.2956767082214355,
				2.543928384780884,
				1.5474205017089844
			],
			"min":[
				-2.3026139736175537,
				0.16064295172691345,
				-1.5474205017089844
			],
			"type":"VEC3"
		},
		{
			"bufferView":9,
			"componentType":5126,
			"count":321,
			"type":"VEC3"
		},
		{
			"bufferView":10,
			"componentType":5126,
			"count":321,
			"type":"VEC2"
		},
		{
			"bufferView":11,
			"componentType":5123,
			"count":912,
			"type":"SCALAR"
		}
	],
	"bufferViews":[
		{
			"buffer":0,
			"byteLength":828,
			"byteOffset":0,
			"target":34962
		},
		{
			"buffer":0,
			"byteLength":828,
			"byteOffset":828,
			"target":34962
		},
		{
			"buffer":0,
			"byteLength":552,
			"byteOffset":1656,
			"target":34962
		},
		{
			"buffer":0,
			"byteLength":366,
			"byteOffset":2208,
			"target":34963
		},
		{
			"buffer":0,
			"byteLength":6276,
			"byteOffset":2576,
			"target":34962
		},
		{
			"buffer":0,
			"byteLength":6276,
			"byteOffset":8852,
			"target":34962
		},
		{
			"buffer":0,
			"byteLength":4184,
			"byteOffset":15128,
			"target":34962
		},
		{
			"buffer":0,
			"byteLength":3096,
			"byteOffset":19312,
			"target":34963
		},
		{
			"buffer":0,
			"byteLength":3852,
			"byteOffset":22408,
			"target":34962
		},
		{
			"buffer":0,
			"byteLength":3852,
			"byteOffset":26260,
			"target":34962
		},
		{
			"buffer":0,
			"byteLength":2568,
			"byteOffset":30112,
			"target":34962
		},
		{
			"buffer":0,
			"byteLength":1824,
			"byteOffset":32680,
			"target":34963
		}
	],
	"samplers":[
		{
			"magFilter":9729,
			"minFilter":9987
		}
	],
	"buffers":[
		{
			"byteLength":34504,
			"uri":"obj_decoration02.bin"
		}
	]
}
