{
	"asset":{
		"generator":"Khronos glTF Blender I/O v4.2.57",
		"version":"2.0"
	},
	"extensionsUsed":[
		"KHR_materials_clearcoat",
		"KHR_materials_specular",
		"KHR_materials_ior"
	],
	"scene":0,
	"scenes":[
		{
			"name":"Scene",
			"nodes":[
				0,
				1
			]
		}
	],
	"nodes":[
		{
			"mesh":0,
			"name":"obj_room_collider"
		},
		{
			"mesh":1,
			"name":"obj_room"
		}
	],
	"materials":[
		{
			"emissiveFactor":[
				1,
				1,
				1
			],
			"emissiveTexture":{
				"index":0
			},
			"extensions":{
				"KHR_materials_clearcoat":{
					"clearcoatRoughnessFactor":0
				},
				"KHR_materials_specular":{
					"specularFactor":0
				},
				"KHR_materials_ior":{
					"ior":1.4500000476837158
				}
			},
			"name":"obj_room01_01",
			"pbrMetallicRoughness":{
				"baseColorTexture":{
					"index":1
				},
				"metallicFactor":0
			}
		},
		{
			"alphaMode":"BLEND",
			"emissiveFactor":[
				1,
				1,
				1
			],
			"emissiveTexture":{
				"index":2
			},
			"extensions":{
				"KHR_materials_clearcoat":{
					"clearcoatRoughnessFactor":0
				},
				"KHR_materials_specular":{
					"specularFactor":0
				},
				"KHR_materials_ior":{
					"ior":1.4500000476837158
				}
			},
			"name":"obj_global_glass02",
			"pbrMetallicRoughness":{
				"baseColorTexture":{
					"index":3
				},
				"metallicFactor":0
			}
		},
		{
			"emissiveFactor":[
				1,
				1,
				1
			],
			"emissiveTexture":{
				"index":4
			},
			"extensions":{
				"KHR_materials_clearcoat":{
					"clearcoatRoughnessFactor":0
				},
				"KHR_materials_specular":{
					"specularFactor":0
				},
				"KHR_materials_ior":{
					"ior":1.4500000476837158
				}
			},
			"name":"obj_room01_03",
			"pbrMetallicRoughness":{
				"baseColorTexture":{
					"index":5
				},
				"metallicFactor":0
			}
		},
		{
			"emissiveFactor":[
				1,
				1,
				1
			],
			"emissiveTexture":{
				"index":6
			},
			"extensions":{
				"KHR_materials_clearcoat":{
					"clearcoatRoughnessFactor":0
				},
				"KHR_materials_specular":{
					"specularFactor":0
				},
				"KHR_materials_ior":{
					"ior":1.4500000476837158
				}
			},
			"name":"obj_room01_02",
			"pbrMetallicRoughness":{
				"baseColorTexture":{
					"index":7
				},
				"metallicFactor":0
			}
		},
		{
			"emissiveFactor":[
				0.10000000149011612,
				0.10000000149011612,
				0.10000000149011612
			],
			"emissiveTexture":{
				"index":8
			},
			"extensions":{
				"KHR_materials_clearcoat":{
					"clearcoatRoughnessFactor":0
				},
				"KHR_materials_specular":{
					"specularFactor":0
				},
				"KHR_materials_ior":{
					"ior":1.4500000476837158
				}
			},
			"name":"obj_room01_08",
			"pbrMetallicRoughness":{
				"baseColorTexture":{
					"index":9
				},
				"metallicFactor":0
			}
		},
		{
			"emissiveFactor":[
				0.10000000149011612,
				0.10000000149011612,
				0.10000000149011612
			],
			"emissiveTexture":{
				"index":10
			},
			"extensions":{
				"KHR_materials_clearcoat":{
					"clearcoatRoughnessFactor":0
				},
				"KHR_materials_specular":{
					"specularFactor":0
				},
				"KHR_materials_ior":{
					"ior":1.4500000476837158
				}
			},
			"name":"obj_room01_09",
			"pbrMetallicRoughness":{
				"baseColorTexture":{
					"index":11
				},
				"metallicFactor":0
			}
		},
		{
			"emissiveFactor":[
				0.10000000149011612,
				0.10000000149011612,
				0.10000000149011612
			],
			"emissiveTexture":{
				"index":12
			},
			"extensions":{
				"KHR_materials_clearcoat":{
					"clearcoatRoughnessFactor":0
				},
				"KHR_materials_specular":{
					"specularFactor":0
				},
				"KHR_materials_ior":{
					"ior":1.4500000476837158
				}
			},
			"name":"obj_room01_06",
			"pbrMetallicRoughness":{
				"baseColorTexture":{
					"index":13
				},
				"metallicFactor":0
			}
		},
		{
			"emissiveFactor":[
				0.10000000149011612,
				0.10000000149011612,
				0.10000000149011612
			],
			"emissiveTexture":{
				"index":14
			},
			"extensions":{
				"KHR_materials_clearcoat":{
					"clearcoatRoughnessFactor":0
				},
				"KHR_materials_specular":{
					"specularFactor":0
				},
				"KHR_materials_ior":{
					"ior":1.4500000476837158
				}
			},
			"name":"obj_room01_07",
			"pbrMetallicRoughness":{
				"baseColorTexture":{
					"index":15
				},
				"metallicFactor":0
			}
		},
		{
			"emissiveFactor":[
				1,
				1,
				1
			],
			"emissiveTexture":{
				"index":16
			},
			"extensions":{
				"KHR_materials_clearcoat":{
					"clearcoatRoughnessFactor":0
				},
				"KHR_materials_specular":{
					"specularFactor":0
				},
				"KHR_materials_ior":{
					"ior":1.4500000476837158
				}
			},
			"name":"obj_room01_04",
			"pbrMetallicRoughness":{
				"baseColorTexture":{
					"index":17
				},
				"metallicFactor":0
			}
		},
		{
			"emissiveFactor":[
				1,
				1,
				1
			],
			"emissiveTexture":{
				"index":18
			},
			"extensions":{
				"KHR_materials_clearcoat":{
					"clearcoatRoughnessFactor":0
				},
				"KHR_materials_specular":{
					"specularFactor":0
				},
				"KHR_materials_ior":{
					"ior":1.4500000476837158
				}
			},
			"name":"obj_room01_05",
			"pbrMetallicRoughness":{
				"baseColorTexture":{
					"index":19
				},
				"metallicFactor":0
			}
		}
	],
	"meshes":[
		{
			"name":"Mesh.001",
			"primitives":[
				{
					"attributes":{
						"POSITION":0,
						"NORMAL":1,
						"TEXCOORD_0":2
					},
					"indices":3
				}
			]
		},
		{
			"name":"Mesh.002",
			"primitives":[
				{
					"attributes":{
						"POSITION":4,
						"NORMAL":5,
						"TEXCOORD_0":6
					},
					"indices":7,
					"material":0
				},
				{
					"attributes":{
						"POSITION":8,
						"NORMAL":9,
						"TEXCOORD_0":10
					},
					"indices":11,
					"material":1
				},
				{
					"attributes":{
						"POSITION":12,
						"NORMAL":13,
						"TEXCOORD_0":14
					},
					"indices":15,
					"material":2
				},
				{
					"attributes":{
						"POSITION":16,
						"NORMAL":17,
						"TEXCOORD_0":18
					},
					"indices":19,
					"material":3
				},
				{
					"attributes":{
						"POSITION":20,
						"NORMAL":21,
						"TEXCOORD_0":22
					},
					"indices":23,
					"material":4
				},
				{
					"attributes":{
						"POSITION":24,
						"NORMAL":25,
						"TEXCOORD_0":26
					},
					"indices":27,
					"material":5
				},
				{
					"attributes":{
						"POSITION":28,
						"NORMAL":29,
						"TEXCOORD_0":30
					},
					"indices":31,
					"material":6
				},
				{
					"attributes":{
						"POSITION":32,
						"NORMAL":33,
						"TEXCOORD_0":34
					},
					"indices":35,
					"material":7
				},
				{
					"attributes":{
						"POSITION":36,
						"NORMAL":37,
						"TEXCOORD_0":38
					},
					"indices":39,
					"material":8
				},
				{
					"attributes":{
						"POSITION":40,
						"NORMAL":41,
						"TEXCOORD_0":42
					},
					"indices":43,
					"material":9
				}
			]
		}
	],
	"textures":[
		{
			"sampler":0,
			"source":0
		},
		{
			"sampler":0,
			"source":1
		},
		{
			"sampler":0,
			"source":2
		},
		{
			"sampler":0,
			"source":2
		},
		{
			"sampler":0,
			"source":3
		},
		{
			"sampler":0,
			"source":4
		},
		{
			"sampler":0,
			"source":5
		},
		{
			"sampler":0,
			"source":6
		},
		{
			"sampler":0,
			"source":7
		},
		{
			"sampler":0,
			"source":7
		},
		{
			"sampler":0,
			"source":8
		},
		{
			"sampler":0,
			"source":8
		},
		{
			"sampler":0,
			"source":9
		},
		{
			"sampler":0,
			"source":9
		},
		{
			"sampler":0,
			"source":10
		},
		{
			"sampler":0,
			"source":10
		},
		{
			"sampler":0,
			"source":11
		},
		{
			"sampler":0,
			"source":12
		},
		{
			"sampler":0,
			"source":13
		},
		{
			"sampler":0,
			"source":14
		}
	],
	"images":[
		{
			"mimeType":"image/png",
			"name":"obj_room01_01_emission",
			"uri":"textures/obj_room01_01_emission.png"
		},
		{
			"mimeType":"image/png",
			"name":"obj_room01_01",
			"uri":"textures/obj_room01_01.png"
		},
		{
			"mimeType":"image/png",
			"name":"obj_global_glass02",
			"uri":"textures/obj_global_glass02.png"
		},
		{
			"mimeType":"image/png",
			"name":"obj_room01_03_emission",
			"uri":"textures/obj_room01_03_emission.png"
		},
		{
			"mimeType":"image/png",
			"name":"obj_room01_03",
			"uri":"textures/obj_room01_03.png"
		},
		{
			"mimeType":"image/png",
			"name":"obj_room01_02_emission",
			"uri":"textures/obj_room01_02_emission.png"
		},
		{
			"mimeType":"image/png",
			"name":"obj_room01_02",
			"uri":"textures/obj_room01_02.png"
		},
		{
			"mimeType":"image/png",
			"name":"obj_room01_08",
			"uri":"textures/obj_room01_08.png"
		},
		{
			"mimeType":"image/png",
			"name":"obj_room01_09",
			"uri":"textures/obj_room01_09.png"
		},
		{
			"mimeType":"image/png",
			"name":"obj_room01_06",
			"uri":"textures/obj_room01_06.png"
		},
		{
			"mimeType":"image/png",
			"name":"obj_room01_07",
			"uri":"textures/obj_room01_07.png"
		},
		{
			"mimeType":"image/png",
			"name":"obj_room01_04_emission",
			"uri":"textures/obj_room01_04_emission.png"
		},
		{
			"mimeType":"image/png",
			"name":"obj_room01_04",
			"uri":"textures/obj_room01_04.png"
		},
		{
			"mimeType":"image/png",
			"name":"obj_room01_05_emission",
			"uri":"textures/obj_room01_05_emission.png"
		},
		{
			"mimeType":"image/png",
			"name":"obj_room01_05",
			"uri":"textures/obj_room01_05.png"
		}
	],
	"accessors":[
		{
			"bufferView":0,
			"componentType":5126,
			"count":1170,
			"max":[
				23.655725479125977,
				17.63223648071289,
				27.444406509399414
			],
			"min":[
				-23.655725479125977,
				-6.367758750915527,
				-23.65224266052246
			],
			"type":"VEC3"
		},
		{
			"bufferView":1,
			"componentType":5126,
			"count":1170,
			"type":"VEC3"
		},
		{
			"bufferView":2,
			"componentType":5126,
			"count":1170,
			"type":"VEC2"
		},
		{
			"bufferView":3,
			"componentType":5123,
			"count":2847,
			"type":"SCALAR"
		},
		{
			"bufferView":4,
			"componentType":5126,
			"count":66,
			"max":[
				8.278668403625488,
				0.8404951095581055,
				27.444406509399414
			],
			"min":[
				-8.278665542602539,
				-0.7123824954032898,
				22.1544132232666
			],
			"type":"VEC3"
		},
		{
			"bufferView":5,
			"componentType":5126,
			"count":66,
			"type":"VEC3"
		},
		{
			"bufferView":6,
			"componentType":5126,
			"count":66,
			"type":"VEC2"
		},
		{
			"bufferView":7,
			"componentType":5123,
			"count":144,
			"type":"SCALAR"
		},
		{
			"bufferView":8,
			"componentType":5126,
			"count":252,
			"max":[
				23.537446975708008,
				8.077544212341309,
				22.274761199951172
			],
			"min":[
				-23.53744888305664,
				0.7945746779441833,
				-23.51439666748047
			],
			"type":"VEC3"
		},
		{
			"bufferView":9,
			"componentType":5126,
			"count":252,
			"type":"VEC3"
		},
		{
			"bufferView":10,
			"componentType":5126,
			"count":252,
			"type":"VEC2"
		},
		{
			"bufferView":11,
			"componentType":5123,
			"count":864,
			"type":"SCALAR"
		},
		{
			"bufferView":12,
			"componentType":5126,
			"count":380,
			"max":[
				18.281757354736328,
				-2.2003935100656236e-06,
				18.281761169433594
			],
			"min":[
				-18.281757354736328,
				-6.367759704589844,
				-18.281761169433594
			],
			"type":"VEC3"
		},
		{
			"bufferView":13,
			"componentType":5126,
			"count":380,
			"type":"VEC3"
		},
		{
			"bufferView":14,
			"componentType":5126,
			"count":380,
			"type":"VEC2"
		},
		{
			"bufferView":15,
			"componentType":5123,
			"count":1440,
			"type":"SCALAR"
		},
		{
			"bufferView":16,
			"componentType":5126,
			"count":559,
			"max":[
				23.56630516052246,
				0.0011600045254454017,
				23.566303253173828
			],
			"min":[
				-23.56630516052246,
				-6.287747383117676,
				-23.5384521484375
			],
			"type":"VEC3"
		},
		{
			"bufferView":17,
			"componentType":5126,
			"count":559,
			"type":"VEC3"
		},
		{
			"bufferView":18,
			"componentType":5126,
			"count":559,
			"type":"VEC2"
		},
		{
			"bufferView":19,
			"componentType":5123,
			"count":2412,
			"type":"SCALAR"
		},
		{
			"bufferView":20,
			"componentType":5126,
			"count":530,
			"max":[
				23.655725479125977,
				8.81993579864502,
				16.72979736328125
			],
			"min":[
				-23.362688064575195,
				6.317275983747095e-05,
				-23.655540466308594
			],
			"type":"VEC3"
		},
		{
			"bufferView":21,
			"componentType":5126,
			"count":530,
			"type":"VEC3"
		},
		{
			"bufferView":22,
			"componentType":5126,
			"count":530,
			"type":"VEC2"
		},
		{
			"bufferView":23,
			"componentType":5123,
			"count":1260,
			"type":"SCALAR"
		},
		{
			"bufferView":24,
			"componentType":5126,
			"count":590,
			"max":[
				23.362688064575195,
				8.81993579864502,
				16.721885681152344
			],
			"min":[
				-23.655725479125977,
				6.31739676464349e-05,
				-23.655540466308594
			],
			"type":"VEC3"
		},
		{
			"bufferView":25,
			"componentType":5126,
			"count":590,
			"type":"VEC3"
		},
		{
			"bufferView":26,
			"componentType":5126,
			"count":590,
			"type":"VEC2"
		},
		{
			"bufferView":27,
			"componentType":5123,
			"count":1440,
			"type":"SCALAR"
		},
		{
			"bufferView":28,
			"componentType":5126,
			"count":142,
			"max":[
				16.725841522216797,
				8.730021476745605,
				22.90993881225586
			],
			"min":[
				-16.72583770751953,
				6.419031706172973e-05,
				16.009971618652344
			],
			"type":"VEC3"
		},
		{
			"bufferView":29,
			"componentType":5126,
			"count":142,
			"type":"VEC3"
		},
		{
			"bufferView":30,
			"componentType":5126,
			"count":142,
			"type":"VEC2"
		},
		{
			"bufferView":31,
			"componentType":5123,
			"count":330,
			"type":"SCALAR"
		},
		{
			"bufferView":32,
			"componentType":5126,
			"count":216,
			"max":[
				16.41939926147461,
				8.819936752319336,
				22.64861488342285
			],
			"min":[
				-16.41943359375,
				6.419031706172973e-05,
				15.604896545410156
			],
			"type":"VEC3"
		},
		{
			"bufferView":33,
			"componentType":5126,
			"count":216,
			"type":"VEC3"
		},
		{
			"bufferView":34,
			"componentType":5126,
			"count":216,
			"type":"VEC2"
		},
		{
			"bufferView":35,
			"componentType":5123,
			"count":510,
			"type":"SCALAR"
		},
		{
			"bufferView":36,
			"componentType":5126,
			"count":400,
			"max":[
				22.487533569335938,
				15.928400039672852,
				22.487537384033203
			],
			"min":[
				-22.487533569335938,
				8.818764686584473,
				-22.459684371948242
			],
			"type":"VEC3"
		},
		{
			"bufferView":37,
			"componentType":5126,
			"count":400,
			"type":"VEC3"
		},
		{
			"bufferView":38,
			"componentType":5126,
			"count":400,
			"type":"VEC2"
		},
		{
			"bufferView":39,
			"componentType":5123,
			"count":1440,
			"type":"SCALAR"
		},
		{
			"bufferView":40,
			"componentType":5126,
			"count":302,
			"max":[
				12.342508316040039,
				17.63223648071289,
				12.342507362365723
			],
			"min":[
				-12.342508316040039,
				15.572968482971191,
				-12.342508316040039
			],
			"type":"VEC3"
		},
		{
			"bufferView":41,
			"componentType":5126,
			"count":302,
			"type":"VEC3"
		},
		{
			"bufferView":42,
			"componentType":5126,
			"count":302,
			"type":"VEC2"
		},
		{
			"bufferView":43,
			"componentType":5123,
			"count":720,
			"type":"SCALAR"
		}
	],
	"bufferViews":[
		{
			"buffer":0,
			"byteLength":14040,
			"byteOffset":0,
			"target":34962
		},
		{
			"buffer":0,
			"byteLength":14040,
			"byteOffset":14040,
			"target":34962
		},
		{
			"buffer":0,
			"byteLength":9360,
			"byteOffset":28080,
			"target":34962
		},
		{
			"buffer":0,
			"byteLength":5694,
			"byteOffset":37440,
			"target":34963
		},
		{
			"buffer":0,
			"byteLength":792,
			"byteOffset":43136,
			"target":34962
		},
		{
			"buffer":0,
			"byteLength":792,
			"byteOffset":43928,
			"target":34962
		},
		{
			"buffer":0,
			"byteLength":528,
			"byteOffset":44720,
			"target":34962
		},
		{
			"buffer":0,
			"byteLength":288,
			"byteOffset":45248,
			"target":34963
		},
		{
			"buffer":0,
			"byteLength":3024,
			"byteOffset":45536,
			"target":34962
		},
		{
			"buffer":0,
			"byteLength":3024,
			"byteOffset":48560,
			"target":34962
		},
		{
			"buffer":0,
			"byteLength":2016,
			"byteOffset":51584,
			"target":34962
		},
		{
			"buffer":0,
			"byteLength":1728,
			"byteOffset":53600,
			"target":34963
		},
		{
			"buffer":0,
			"byteLength":4560,
			"byteOffset":55328,
			"target":34962
		},
		{
			"buffer":0,
			"byteLength":4560,
			"byteOffset":59888,
			"target":34962
		},
		{
			"buffer":0,
			"byteLength":3040,
			"byteOffset":64448,
			"target":34962
		},
		{
			"buffer":0,
			"byteLength":2880,
			"byteOffset":67488,
			"target":34963
		},
		{
			"buffer":0,
			"byteLength":6708,
			"byteOffset":70368,
			"target":34962
		},
		{
			"buffer":0,
			"byteLength":6708,
			"byteOffset":77076,
			"target":34962
		},
		{
			"buffer":0,
			"byteLength":4472,
			"byteOffset":83784,
			"target":34962
		},
		{
			"buffer":0,
			"byteLength":4824,
			"byteOffset":88256,
			"target":34963
		},
		{
			"buffer":0,
			"byteLength":6360,
			"byteOffset":93080,
			"target":34962
		},
		{
			"buffer":0,
			"byteLength":6360,
			"byteOffset":99440,
			"target":34962
		},
		{
			"buffer":0,
			"byteLength":4240,
			"byteOffset":105800,
			"target":34962
		},
		{
			"buffer":0,
			"byteLength":2520,
			"byteOffset":110040,
			"target":34963
		},
		{
			"buffer":0,
			"byteLength":7080,
			"byteOffset":112560,
			"target":34962
		},
		{
			"buffer":0,
			"byteLength":7080,
			"byteOffset":119640,
			"target":34962
		},
		{
			"buffer":0,
			"byteLength":4720,
			"byteOffset":126720,
			"target":34962
		},
		{
			"buffer":0,
			"byteLength":2880,
			"byteOffset":131440,
			"target":34963
		},
		{
			"buffer":0,
			"byteLength":1704,
			"byteOffset":134320,
			"target":34962
		},
		{
			"buffer":0,
			"byteLength":1704,
			"byteOffset":136024,
			"target":34962
		},
		{
			"buffer":0,
			"byteLength":1136,
			"byteOffset":137728,
			"target":34962
		},
		{
			"buffer":0,
			"byteLength":660,
			"byteOffset":138864,
			"target":34963
		},
		{
			"buffer":0,
			"byteLength":2592,
			"byteOffset":139524,
			"target":34962
		},
		{
			"buffer":0,
			"byteLength":2592,
			"byteOffset":142116,
			"target":34962
		},
		{
			"buffer":0,
			"byteLength":1728,
			"byteOffset":144708,
			"target":34962
		},
		{
			"buffer":0,
			"byteLength":1020,
			"byteOffset":146436,
			"target":34963
		},
		{
			"buffer":0,
			"byteLength":4800,
			"byteOffset":147456,
			"target":34962
		},
		{
			"buffer":0,
			"byteLength":4800,
			"byteOffset":152256,
			"target":34962
		},
		{
			"buffer":0,
			"byteLength":3200,
			"byteOffset":157056,
			"target":34962
		},
		{
			"buffer":0,
			"byteLength":2880,
			"byteOffset":160256,
			"target":34963
		},
		{
			"buffer":0,
			"byteLength":3624,
			"byteOffset":163136,
			"target":34962
		},
		{
			"buffer":0,
			"byteLength":3624,
			"byteOffset":166760,
			"target":34962
		},
		{
			"buffer":0,
			"byteLength":2416,
			"byteOffset":170384,
			"target":34962
		},
		{
			"buffer":0,
			"byteLength":1440,
			"byteOffset":172800,
			"target":34963
		}
	],
	"samplers":[
		{
			"magFilter":9729,
			"minFilter":9987
		}
	],
	"buffers":[
		{
			"byteLength":174240,
			"uri":"obj_room.bin"
		}
	]
}
