{
	"asset":{
		"generator":"Khronos glTF Blender I/O v4.1.63",
		"version":"2.0"
	},
	"extensionsUsed":[
		"KHR_materials_specular",
		"KHR_materials_ior"
	],
	"scene":0,
	"scenes":[
		{
			"name":"Scene",
			"nodes":[
				0,
				1
			]
		}
	],
	"nodes":[
		{
			"mesh":0,
			"name":"obj_bookshelf"
		},
		{
			"mesh":1,
			"name":"obj_bookshelf_collider",
			"scale":[
				-10.994416236877441,
				-10.994416236877441,
				-10.994416236877441
			]
		}
	],
	"materials":[
		{
			"emissiveFactor":[
				1,
				1,
				1
			],
			"emissiveTexture":{
				"index":0
			},
			"extensions":{
				"KHR_materials_specular":{
					"specularFactor":0
				},
				"KHR_materials_ior":{
					"ior":1.4500000476837158
				}
			},
			"name":"obj_screen",
			"pbrMetallicRoughness":{
				"baseColorTexture":{
					"index":1
				},
				"metallicFactor":0
			}
		},
		{
			"doubleSided":true,
			"emissiveFactor":[
				0.26224830746650696,
				0.5647120475769043,
				0.9215821027755737
			],
			"extensions":{
				"KHR_materials_specular":{
					"specularFactor":0
				},
				"KHR_materials_ior":{
					"ior":1.4500000476837158
				}
			},
			"name":"obj_global_emission01",
			"pbrMetallicRoughness":{
				"baseColorFactor":[
					0.2617267668247223,
					0.566400408744812,
					0.9218639135360718,
					1
				],
				"metallicFactor":0
			}
		}
	],
	"meshes":[
		{
			"name":"Cubo.003",
			"primitives":[
				{
					"attributes":{
						"POSITION":0,
						"NORMAL":1,
						"TEXCOORD_0":2
					},
					"indices":3,
					"material":0
				},
				{
					"attributes":{
						"POSITION":4,
						"NORMAL":5,
						"TEXCOORD_0":6
					},
					"indices":7,
					"material":1
				}
			]
		},
		{
			"name":"Circle",
			"primitives":[
				{
					"attributes":{
						"POSITION":8,
						"NORMAL":9,
						"TEXCOORD_0":10
					},
					"indices":11
				}
			]
		}
	],
	"textures":[
		{
			"sampler":0,
			"source":0
		},
		{
			"sampler":0,
			"source":1
		}
	],
	"images":[
		{
			"mimeType":"image/png",
			"name":"obj_screen_emission",
			"uri":"textures/obj_screen_emission.png"
		},
		{
			"mimeType":"image/png",
			"name":"obj_screen",
			"uri":"textures/obj_screen.png"
		}
	],
	"accessors":[
		{
			"bufferView":0,
			"componentType":5126,
			"count":12244,
			"max":[
				10.149304389953613,
				3.802794933319092,
				7.248886585235596
			],
			"min":[
				-10.739256858825684,
				-0.008602142333984375,
				-10.789580345153809
			],
			"type":"VEC3"
		},
		{
			"bufferView":1,
			"componentType":5126,
			"count":12244,
			"type":"VEC3"
		},
		{
			"bufferView":2,
			"componentType":5126,
			"count":12244,
			"type":"VEC2"
		},
		{
			"bufferView":3,
			"componentType":5123,
			"count":27468,
			"type":"SCALAR"
		},
		{
			"bufferView":4,
			"componentType":5126,
			"count":1070,
			"max":[
				9.584681510925293,
				3.6176347732543945,
				6.561105251312256
			],
			"min":[
				-10.429530143737793,
				0.20523786544799805,
				-10.638768196105957
			],
			"type":"VEC3"
		},
		{
			"bufferView":5,
			"componentType":5126,
			"count":1070,
			"type":"VEC3"
		},
		{
			"bufferView":6,
			"componentType":5126,
			"count":1070,
			"type":"VEC2"
		},
		{
			"bufferView":7,
			"componentType":5123,
			"count":1902,
			"type":"SCALAR"
		},
		{
			"bufferView":8,
			"componentType":5126,
			"count":132,
			"max":[
				0.9908947348594666,
				0,
				1
			],
			"min":[
				-0.9468985199928284,
				-0.3494475483894348,
				-0.7071067690849304
			],
			"type":"VEC3"
		},
		{
			"bufferView":9,
			"componentType":5126,
			"count":132,
			"type":"VEC3"
		},
		{
			"bufferView":10,
			"componentType":5126,
			"count":132,
			"type":"VEC2"
		},
		{
			"bufferView":11,
			"componentType":5123,
			"count":222,
			"type":"SCALAR"
		}
	],
	"bufferViews":[
		{
			"buffer":0,
			"byteLength":146928,
			"byteOffset":0,
			"target":34962
		},
		{
			"buffer":0,
			"byteLength":146928,
			"byteOffset":146928,
			"target":34962
		},
		{
			"buffer":0,
			"byteLength":97952,
			"byteOffset":293856,
			"target":34962
		},
		{
			"buffer":0,
			"byteLength":54936,
			"byteOffset":391808,
			"target":34963
		},
		{
			"buffer":0,
			"byteLength":12840,
			"byteOffset":446744,
			"target":34962
		},
		{
			"buffer":0,
			"byteLength":12840,
			"byteOffset":459584,
			"target":34962
		},
		{
			"buffer":0,
			"byteLength":8560,
			"byteOffset":472424,
			"target":34962
		},
		{
			"buffer":0,
			"byteLength":3804,
			"byteOffset":480984,
			"target":34963
		},
		{
			"buffer":0,
			"byteLength":1584,
			"byteOffset":484788,
			"target":34962
		},
		{
			"buffer":0,
			"byteLength":1584,
			"byteOffset":486372,
			"target":34962
		},
		{
			"buffer":0,
			"byteLength":1056,
			"byteOffset":487956,
			"target":34962
		},
		{
			"buffer":0,
			"byteLength":444,
			"byteOffset":489012,
			"target":34963
		}
	],
	"samplers":[
		{
			"magFilter":9729,
			"minFilter":9987
		}
	],
	"buffers":[
		{
			"byteLength":489456,
			"uri":"obj_bookshelf.bin"
		}
	]
}
