{
	"asset":{
		"generator":"Khronos glTF Blender I/O v4.1.63",
		"version":"2.0"
	},
	"extensionsUsed":[
		"KHR_materials_specular",
		"KHR_materials_ior"
	],
	"scene":0,
	"scenes":[
		{
			"name":"Scene",
			"nodes":[
				0,
				1
			]
		}
	],
	"nodes":[
		{
			"mesh":0,
			"name":"obj_screen07"
		},
		{
			"mesh":1,
			"name":"obj_screen07_collider"
		}
	],
	"materials":[
		{
			"emissiveFactor":[
				1,
				1,
				1
			],
			"emissiveTexture":{
				"index":0
			},
			"extensions":{
				"KHR_materials_specular":{
					"specularFactor":0
				},
				"KHR_materials_ior":{
					"ior":1.4500000476837158
				}
			},
			"name":"obj_screen",
			"pbrMetallicRoughness":{
				"baseColorTexture":{
					"index":1
				},
				"metallicFactor":0
			}
		},
		{
			"alphaMode":"BLEND",
			"doubleSided":true,
			"emissiveFactor":[
				0.13114702701568604,
				0.28234341740608215,
				0.4607575833797455
			],
			"extensions":{
				"KHR_materials_specular":{
					"specularFactor":0
				},
				"KHR_materials_ior":{
					"ior":1.4500000476837158
				}
			},
			"name":"obj_podium_gradient",
			"pbrMetallicRoughness":{
				"baseColorFactor":[
					0.26229405403137207,
					0.5646868348121643,
					0.921515166759491,
					1
				],
				"baseColorTexture":{
					"index":2
				},
				"metallicFactor":0
			}
		}
	],
	"meshes":[
		{
			"name":"Mesh.044",
			"primitives":[
				{
					"attributes":{
						"POSITION":0,
						"NORMAL":1,
						"TEXCOORD_0":2
					},
					"indices":3,
					"material":0
				},
				{
					"attributes":{
						"POSITION":4,
						"NORMAL":5,
						"TEXCOORD_0":6
					},
					"indices":7,
					"material":1
				}
			]
		},
		{
			"name":"Cube.051",
			"primitives":[
				{
					"attributes":{
						"POSITION":8,
						"NORMAL":9,
						"TEXCOORD_0":10
					},
					"indices":11
				}
			]
		}
	],
	"textures":[
		{
			"sampler":0,
			"source":0
		},
		{
			"sampler":0,
			"source":1
		},
		{
			"sampler":0,
			"source":2
		}
	],
	"images":[
		{
			"mimeType":"image/png",
			"name":"obj_screen_emission",
			"uri":"textures/obj_screen_emission.png"
		},
		{
			"mimeType":"image/png",
			"name":"obj_screen",
			"uri":"textures/obj_screen.png"
		},
		{
			"mimeType":"image/png",
			"name":"obj_podium_gradient",
			"uri":"textures/obj_podium_gradient.png"
		}
	],
	"accessors":[
		{
			"bufferView":0,
			"componentType":5126,
			"count":592,
			"max":[
				2.1223597526550293,
				3.6909284591674805,
				0.6381974816322327
			],
			"min":[
				-2.1223597526550293,
				-1.569346608221167e-07,
				-0.2955626845359802
			],
			"type":"VEC3"
		},
		{
			"bufferView":1,
			"componentType":5126,
			"count":592,
			"type":"VEC3"
		},
		{
			"bufferView":2,
			"componentType":5126,
			"count":592,
			"type":"VEC2"
		},
		{
			"bufferView":3,
			"componentType":5123,
			"count":1410,
			"type":"SCALAR"
		},
		{
			"bufferView":4,
			"componentType":5126,
			"count":10,
			"max":[
				2.0368831157684326,
				1.2270560264587402,
				0.3710736930370331
			],
			"min":[
				-2.040137767791748,
				0.0060020205564796925,
				1.763509771990357e-06
			],
			"type":"VEC3"
		},
		{
			"bufferView":5,
			"componentType":5126,
			"count":10,
			"type":"VEC3"
		},
		{
			"bufferView":6,
			"componentType":5126,
			"count":10,
			"type":"VEC2"
		},
		{
			"bufferView":7,
			"componentType":5123,
			"count":24,
			"type":"SCALAR"
		},
		{
			"bufferView":8,
			"componentType":5126,
			"count":60,
			"max":[
				2.1381585597991943,
				3.845992088317871,
				0.6463350057601929
			],
			"min":[
				-2.1381585597991943,
				1.7881393432617188e-07,
				-0.2955627739429474
			],
			"type":"VEC3"
		},
		{
			"bufferView":9,
			"componentType":5126,
			"count":60,
			"type":"VEC3"
		},
		{
			"bufferView":10,
			"componentType":5126,
			"count":60,
			"type":"VEC2"
		},
		{
			"bufferView":11,
			"componentType":5123,
			"count":108,
			"type":"SCALAR"
		}
	],
	"bufferViews":[
		{
			"buffer":0,
			"byteLength":7104,
			"byteOffset":0,
			"target":34962
		},
		{
			"buffer":0,
			"byteLength":7104,
			"byteOffset":7104,
			"target":34962
		},
		{
			"buffer":0,
			"byteLength":4736,
			"byteOffset":14208,
			"target":34962
		},
		{
			"buffer":0,
			"byteLength":2820,
			"byteOffset":18944,
			"target":34963
		},
		{
			"buffer":0,
			"byteLength":120,
			"byteOffset":21764,
			"target":34962
		},
		{
			"buffer":0,
			"byteLength":120,
			"byteOffset":21884,
			"target":34962
		},
		{
			"buffer":0,
			"byteLength":80,
			"byteOffset":22004,
			"target":34962
		},
		{
			"buffer":0,
			"byteLength":48,
			"byteOffset":22084,
			"target":34963
		},
		{
			"buffer":0,
			"byteLength":720,
			"byteOffset":22132,
			"target":34962
		},
		{
			"buffer":0,
			"byteLength":720,
			"byteOffset":22852,
			"target":34962
		},
		{
			"buffer":0,
			"byteLength":480,
			"byteOffset":23572,
			"target":34962
		},
		{
			"buffer":0,
			"byteLength":216,
			"byteOffset":24052,
			"target":34963
		}
	],
	"samplers":[
		{
			"magFilter":9729,
			"minFilter":9987
		}
	],
	"buffers":[
		{
			"byteLength":24268,
			"uri":"obj_screen07.bin"
		}
	]
}
