{
	"asset":{
		"generator":"Khronos glTF Blender I/O v4.1.63",
		"version":"2.0"
	},
	"extensionsUsed":[
		"KHR_materials_specular",
		"KHR_materials_ior"
	],
	"scene":0,
	"scenes":[
		{
			"name":"Scene",
			"nodes":[
				6
			]
		}
	],
	"nodes":[
		{
			"mesh":0,
			"name":"obj_shuttle02_collider",
			"rotation":[
				0.5,
				0.5,
				-0.5,
				0.4999999701976776
			],
			"scale":[
				0.009999985806643963,
				0.009037923999130726,
				0.009999998845160007
			],
			"translation":[
				2.3245811462402344e-06,
				0.051857948303222656,
				0
			]
		},
		{
			"mesh":1,
			"name":"obj_shuttle02_mesh",
			"rotation":[
				0.5,
				0.5,
				-0.5,
				0.5
			],
			"scale":[
				0.015000001527369022,
				0.013500001281499863,
				0.014999999664723873
			],
			"translation":[
				2.3245811462402344e-06,
				0.051857948303222656,
				0
			]
		},
		{
			"mesh":2,
			"name":"obj_shuttle02_shield01",
			"rotation":[
				0.5,
				0.5,
				-0.5,
				0.5
			],
			"scale":[
				0.015000002458691597,
				0.015922987833619118,
				0.025819644331932068
			],
			"translation":[
				4.231929779052734e-06,
				0.47032642364501953,
				0
			]
		},
		{
			"mesh":3,
			"name":"obj_shuttle02_shield01_collider",
			"rotation":[
				0.5,
				0.5,
				-0.5,
				0.5
			],
			"scale":[
				0.015000002458691597,
				0.015922987833619118,
				0.025819644331932068
			],
			"translation":[
				4.231929779052734e-06,
				0.47032642364501953,
				0
			]
		},
		{
			"mesh":4,
			"name":"obj_shuttle02_shield02",
			"rotation":[
				0.5,
				0.5,
				-0.5,
				0.5
			],
			"scale":[
				0.015000002458691597,
				0.015922987833619118,
				0.025819644331932068
			],
			"translation":[
				4.231929779052734e-06,
				0.47032642364501953,
				0
			]
		},
		{
			"mesh":5,
			"name":"obj_shuttle02_shield02_collider",
			"rotation":[
				0.5,
				0.5,
				-0.5,
				0.5
			],
			"scale":[
				0.015000002458691597,
				0.015922987833619118,
				0.025819644331932068
			],
			"translation":[
				4.231929779052734e-06,
				0.47032642364501953,
				0
			]
		},
		{
			"children":[
				0,
				1,
				2,
				3,
				4,
				5
			],
			"name":"obj_shuttle02",
			"rotation":[
				0,
				0.9999599456787109,
				0,
				0.008952779695391655
			],
			"translation":[
				15.872739791870117,
				15.964034080505371,
				-28.494070053100586
			]
		}
	],
	"animations":[
		{
			"channels":[
				{
					"sampler":0,
					"target":{
						"node":6,
						"path":"translation"
					}
				},
				{
					"sampler":1,
					"target":{
						"node":6,
						"path":"rotation"
					}
				},
				{
					"sampler":2,
					"target":{
						"node":6,
						"path":"scale"
					}
				},
				{
					"sampler":3,
					"target":{
						"node":2,
						"path":"scale"
					}
				},
				{
					"sampler":4,
					"target":{
						"node":3,
						"path":"scale"
					}
				},
				{
					"sampler":5,
					"target":{
						"node":4,
						"path":"scale"
					}
				},
				{
					"sampler":6,
					"target":{
						"node":5,
						"path":"scale"
					}
				}
			],
			"name":"Animation",
			"samplers":[
				{
					"input":32,
					"interpolation":"LINEAR",
					"output":33
				},
				{
					"input":32,
					"interpolation":"LINEAR",
					"output":34
				},
				{
					"input":32,
					"interpolation":"LINEAR",
					"output":35
				},
				{
					"input":36,
					"interpolation":"LINEAR",
					"output":37
				},
				{
					"input":36,
					"interpolation":"LINEAR",
					"output":38
				},
				{
					"input":36,
					"interpolation":"LINEAR",
					"output":39
				},
				{
					"input":36,
					"interpolation":"LINEAR",
					"output":40
				}
			]
		}
	],
	"materials":[
		{
			"alphaMode":"BLEND",
			"doubleSided":true,
			"emissiveFactor":[
				1,
				1,
				1
			],
			"emissiveTexture":{
				"index":0
			},
			"extensions":{
				"KHR_materials_specular":{
					"specularFactor":0
				},
				"KHR_materials_ior":{
					"ior":1.4500000476837158
				}
			},
			"name":"obj_global_glass02",
			"pbrMetallicRoughness":{
				"baseColorTexture":{
					"index":1
				},
				"metallicFactor":0
			}
		},
		{
			"alphaMode":"BLEND",
			"doubleSided":true,
			"emissiveFactor":[
				0.8500000238418579,
				0.8500000238418579,
				0.8500000238418579
			],
			"emissiveTexture":{
				"index":2
			},
			"extensions":{
				"KHR_materials_specular":{
					"specularFactor":0
				},
				"KHR_materials_ior":{
					"ior":1.4500000476837158
				}
			},
			"name":"obj_bus_emission",
			"pbrMetallicRoughness":{
				"baseColorTexture":{
					"index":3
				},
				"metallicFactor":0
			}
		},
		{
			"emissiveFactor":[
				0.10000000149011612,
				0.10000000149011612,
				0.10000000149011612
			],
			"emissiveTexture":{
				"index":4
			},
			"extensions":{
				"KHR_materials_specular":{
					"specularFactor":0
				},
				"KHR_materials_ior":{
					"ior":1.4500000476837158
				}
			},
			"name":"obj_bus",
			"pbrMetallicRoughness":{
				"baseColorTexture":{
					"index":5
				},
				"metallicFactor":0
			}
		}
	],
	"meshes":[
		{
			"name":"Mesh.016",
			"primitives":[
				{
					"attributes":{
						"POSITION":0,
						"NORMAL":1,
						"TEXCOORD_0":2
					},
					"indices":3
				}
			]
		},
		{
			"name":"Mesh.022",
			"primitives":[
				{
					"attributes":{
						"POSITION":4,
						"NORMAL":5,
						"TEXCOORD_0":6
					},
					"indices":7,
					"material":0
				},
				{
					"attributes":{
						"POSITION":8,
						"NORMAL":9,
						"TEXCOORD_0":10
					},
					"indices":11,
					"material":1
				},
				{
					"attributes":{
						"POSITION":12,
						"NORMAL":13,
						"TEXCOORD_0":14
					},
					"indices":15,
					"material":2
				}
			]
		},
		{
			"name":"Mesh.012",
			"primitives":[
				{
					"attributes":{
						"POSITION":16,
						"NORMAL":17,
						"TEXCOORD_0":18
					},
					"indices":19,
					"material":1
				}
			]
		},
		{
			"name":"Mesh.013",
			"primitives":[
				{
					"attributes":{
						"POSITION":20,
						"NORMAL":21,
						"TEXCOORD_0":22
					},
					"indices":23
				}
			]
		},
		{
			"name":"Mesh.085",
			"primitives":[
				{
					"attributes":{
						"POSITION":24,
						"NORMAL":25,
						"TEXCOORD_0":26
					},
					"indices":27,
					"material":1
				}
			]
		},
		{
			"name":"Mesh.014",
			"primitives":[
				{
					"attributes":{
						"POSITION":28,
						"NORMAL":29,
						"TEXCOORD_0":30
					},
					"indices":31
				}
			]
		}
	],
	"textures":[
		{
			"sampler":0,
			"source":0
		},
		{
			"sampler":0,
			"source":0
		},
		{
			"sampler":0,
			"source":1
		},
		{
			"sampler":0,
			"source":1
		},
		{
			"sampler":0,
			"source":2
		},
		{
			"sampler":0,
			"source":2
		}
	],
	"images":[
		{
			"mimeType":"image/png",
			"name":"obj_global_glass02",
			"uri":"textures/obj_global_glass02.png"
		},
		{
			"mimeType":"image/png",
			"name":"obj_bus_emission",
			"uri":"textures/obj_bus_emission.png"
		},
		{
			"mimeType":"image/png",
			"name":"obj_bus",
			"uri":"textures/obj_bus.png"
		}
	],
	"accessors":[
		{
			"bufferView":0,
			"componentType":5126,
			"count":1093,
			"max":[
				173.89859008789062,
				332.7342224121094,
				-25.834182739257812
			],
			"min":[
				-173.91836547851562,
				-332.7332763671875,
				-325.25433349609375
			],
			"type":"VEC3"
		},
		{
			"bufferView":1,
			"componentType":5126,
			"count":1093,
			"type":"VEC3"
		},
		{
			"bufferView":2,
			"componentType":5126,
			"count":1093,
			"type":"VEC2"
		},
		{
			"bufferView":3,
			"componentType":5123,
			"count":2682,
			"type":"SCALAR"
		},
		{
			"bufferView":4,
			"componentType":5126,
			"count":52,
			"max":[
				101.89697265625,
				219.62167358398438,
				-104.22073364257812
			],
			"min":[
				-101.89697265625,
				-219.62167358398438,
				-198.8715362548828
			],
			"type":"VEC3"
		},
		{
			"bufferView":5,
			"componentType":5126,
			"count":52,
			"type":"VEC3"
		},
		{
			"bufferView":6,
			"componentType":5126,
			"count":52,
			"type":"VEC2"
		},
		{
			"bufferView":7,
			"componentType":5123,
			"count":144,
			"type":"SCALAR"
		},
		{
			"bufferView":8,
			"componentType":5126,
			"count":506,
			"max":[
				135.4111785888672,
				207.82530212402344,
				-2.989773750305176
			],
			"min":[
				-135.41119384765625,
				-207.8269805908203,
				-87.74412536621094
			],
			"type":"VEC3"
		},
		{
			"bufferView":9,
			"componentType":5126,
			"count":506,
			"type":"VEC3"
		},
		{
			"bufferView":10,
			"componentType":5126,
			"count":506,
			"type":"VEC2"
		},
		{
			"bufferView":11,
			"componentType":5123,
			"count":1476,
			"type":"SCALAR"
		},
		{
			"bufferView":12,
			"componentType":5126,
			"count":2941,
			"max":[
				115.93898010253906,
				221.82217407226562,
				-17.222766876220703
			],
			"min":[
				-115.93898010253906,
				-221.82217407226562,
				-217.55224609375
			],
			"type":"VEC3"
		},
		{
			"bufferView":13,
			"componentType":5126,
			"count":2941,
			"type":"VEC3"
		},
		{
			"bufferView":14,
			"componentType":5126,
			"count":2941,
			"type":"VEC2"
		},
		{
			"bufferView":15,
			"componentType":5123,
			"count":10284,
			"type":"SCALAR"
		},
		{
			"bufferView":16,
			"componentType":5126,
			"count":6,
			"max":[
				-106.23588562011719,
				91.56405639648438,
				-4.478567348087381e-07
			],
			"min":[
				-106.23588562011719,
				-91.5620346069336,
				-44.31024932861328
			],
			"type":"VEC3"
		},
		{
			"bufferView":17,
			"componentType":5126,
			"count":6,
			"type":"VEC3"
		},
		{
			"bufferView":18,
			"componentType":5126,
			"count":6,
			"type":"VEC2"
		},
		{
			"bufferView":19,
			"componentType":5123,
			"count":12,
			"type":"SCALAR"
		},
		{
			"bufferView":20,
			"componentType":5126,
			"count":12,
			"max":[
				111.00991821289062,
				91.56405639648438,
				8.362234780179278e-07
			],
			"min":[
				101.00991821289062,
				-91.5620346069336,
				-44.31024932861328
			],
			"type":"VEC3"
		},
		{
			"bufferView":21,
			"componentType":5126,
			"count":12,
			"type":"VEC3"
		},
		{
			"bufferView":22,
			"componentType":5126,
			"count":12,
			"type":"VEC2"
		},
		{
			"bufferView":23,
			"componentType":5123,
			"count":60,
			"type":"SCALAR"
		},
		{
			"bufferView":24,
			"componentType":5126,
			"count":6,
			"max":[
				106.00991821289062,
				91.56405639648438,
				-4.478567348087381e-07
			],
			"min":[
				106.00991821289062,
				-91.5620346069336,
				-44.31024932861328
			],
			"type":"VEC3"
		},
		{
			"bufferView":25,
			"componentType":5126,
			"count":6,
			"type":"VEC3"
		},
		{
			"bufferView":26,
			"componentType":5126,
			"count":6,
			"type":"VEC2"
		},
		{
			"bufferView":27,
			"componentType":5123,
			"count":12,
			"type":"SCALAR"
		},
		{
			"bufferView":28,
			"componentType":5126,
			"count":12,
			"max":[
				-101.23588562011719,
				91.56405639648438,
				-4.478567348087381e-07
			],
			"min":[
				-111.23588562011719,
				-91.5620346069336,
				-44.31024932861328
			],
			"type":"VEC3"
		},
		{
			"bufferView":29,
			"componentType":5126,
			"count":12,
			"type":"VEC3"
		},
		{
			"bufferView":30,
			"componentType":5126,
			"count":12,
			"type":"VEC2"
		},
		{
			"bufferView":31,
			"componentType":5123,
			"count":60,
			"type":"SCALAR"
		},
		{
			"bufferView":32,
			"componentType":5126,
			"count":5381,
			"max":[
				179.33333333333334
			],
			"min":[
				0
			],
			"type":"SCALAR"
		},
		{
			"bufferView":33,
			"componentType":5126,
			"count":5381,
			"type":"VEC3"
		},
		{
			"bufferView":34,
			"componentType":5126,
			"count":5381,
			"type":"VEC4"
		},
		{
			"bufferView":35,
			"componentType":5126,
			"count":5381,
			"type":"VEC3"
		},
		{
			"bufferView":36,
			"componentType":5126,
			"count":4681,
			"max":[
				156
			],
			"min":[
				0
			],
			"type":"SCALAR"
		},
		{
			"bufferView":37,
			"componentType":5126,
			"count":4681,
			"type":"VEC3"
		},
		{
			"bufferView":38,
			"componentType":5126,
			"count":4681,
			"type":"VEC3"
		},
		{
			"bufferView":39,
			"componentType":5126,
			"count":4681,
			"type":"VEC3"
		},
		{
			"bufferView":40,
			"componentType":5126,
			"count":4681,
			"type":"VEC3"
		}
	],
	"bufferViews":[
		{
			"buffer":0,
			"byteLength":13116,
			"byteOffset":0,
			"target":34962
		},
		{
			"buffer":0,
			"byteLength":13116,
			"byteOffset":13116,
			"target":34962
		},
		{
			"buffer":0,
			"byteLength":8744,
			"byteOffset":26232,
			"target":34962
		},
		{
			"buffer":0,
			"byteLength":5364,
			"byteOffset":34976,
			"target":34963
		},
		{
			"buffer":0,
			"byteLength":624,
			"byteOffset":40340,
			"target":34962
		},
		{
			"buffer":0,
			"byteLength":624,
			"byteOffset":40964,
			"target":34962
		},
		{
			"buffer":0,
			"byteLength":416,
			"byteOffset":41588,
			"target":34962
		},
		{
			"buffer":0,
			"byteLength":288,
			"byteOffset":42004,
			"target":34963
		},
		{
			"buffer":0,
			"byteLength":6072,
			"byteOffset":42292,
			"target":34962
		},
		{
			"buffer":0,
			"byteLength":6072,
			"byteOffset":48364,
			"target":34962
		},
		{
			"buffer":0,
			"byteLength":4048,
			"byteOffset":54436,
			"target":34962
		},
		{
			"buffer":0,
			"byteLength":2952,
			"byteOffset":58484,
			"target":34963
		},
		{
			"buffer":0,
			"byteLength":35292,
			"byteOffset":61436,
			"target":34962
		},
		{
			"buffer":0,
			"byteLength":35292,
			"byteOffset":96728,
			"target":34962
		},
		{
			"buffer":0,
			"byteLength":23528,
			"byteOffset":132020,
			"target":34962
		},
		{
			"buffer":0,
			"byteLength":20568,
			"byteOffset":155548,
			"target":34963
		},
		{
			"buffer":0,
			"byteLength":72,
			"byteOffset":176116,
			"target":34962
		},
		{
			"buffer":0,
			"byteLength":72,
			"byteOffset":176188,
			"target":34962
		},
		{
			"buffer":0,
			"byteLength":48,
			"byteOffset":176260,
			"target":34962
		},
		{
			"buffer":0,
			"byteLength":24,
			"byteOffset":176308,
			"target":34963
		},
		{
			"buffer":0,
			"byteLength":144,
			"byteOffset":176332,
			"target":34962
		},
		{
			"buffer":0,
			"byteLength":144,
			"byteOffset":176476,
			"target":34962
		},
		{
			"buffer":0,
			"byteLength":96,
			"byteOffset":176620,
			"target":34962
		},
		{
			"buffer":0,
			"byteLength":120,
			"byteOffset":176716,
			"target":34963
		},
		{
			"buffer":0,
			"byteLength":72,
			"byteOffset":176836,
			"target":34962
		},
		{
			"buffer":0,
			"byteLength":72,
			"byteOffset":176908,
			"target":34962
		},
		{
			"buffer":0,
			"byteLength":48,
			"byteOffset":176980,
			"target":34962
		},
		{
			"buffer":0,
			"byteLength":24,
			"byteOffset":177028,
			"target":34963
		},
		{
			"buffer":0,
			"byteLength":144,
			"byteOffset":177052,
			"target":34962
		},
		{
			"buffer":0,
			"byteLength":144,
			"byteOffset":177196,
			"target":34962
		},
		{
			"buffer":0,
			"byteLength":96,
			"byteOffset":177340,
			"target":34962
		},
		{
			"buffer":0,
			"byteLength":120,
			"byteOffset":177436,
			"target":34963
		},
		{
			"buffer":0,
			"byteLength":21524,
			"byteOffset":177556
		},
		{
			"buffer":0,
			"byteLength":64572,
			"byteOffset":199080
		},
		{
			"buffer":0,
			"byteLength":86096,
			"byteOffset":263652
		},
		{
			"buffer":0,
			"byteLength":64572,
			"byteOffset":349748
		},
		{
			"buffer":0,
			"byteLength":18724,
			"byteOffset":414320
		},
		{
			"buffer":0,
			"byteLength":56172,
			"byteOffset":433044
		},
		{
			"buffer":0,
			"byteLength":56172,
			"byteOffset":489216
		},
		{
			"buffer":0,
			"byteLength":56172,
			"byteOffset":545388
		},
		{
			"buffer":0,
			"byteLength":56172,
			"byteOffset":601560
		}
	],
	"samplers":[
		{
			"magFilter":9729,
			"minFilter":9987
		}
	],
	"buffers":[
		{
			"byteLength":657732,
			"uri":"obj_shuttle02.bin"
		}
	]
}
