{
	"asset":{
		"generator":"Khronos glTF Blender I/O v4.1.63",
		"version":"2.0"
	},
	"extensionsUsed":[
		"KHR_materials_specular",
		"KHR_materials_ior"
	],
	"scene":0,
	"scenes":[
		{
			"name":"Scene",
			"nodes":[
				0,
				1
			]
		}
	],
	"nodes":[
		{
			"mesh":0,
			"name":"obj_events"
		},
		{
			"mesh":1,
			"name":"obj_events_collider"
		}
	],
	"materials":[
		{
			"emissiveFactor":[
				0.05000000074505806,
				0.05000000074505806,
				0.05000000074505806
			],
			"emissiveTexture":{
				"index":0
			},
			"extensions":{
				"KHR_materials_specular":{
					"specularFactor":0
				},
				"KHR_materials_ior":{
					"ior":1.4500000476837158
				}
			},
			"name":"obj_sign01",
			"pbrMetallicRoughness":{
				"baseColorTexture":{
					"index":1
				},
				"metallicFactor":0
			}
		},
		{
			"emissiveFactor":[
				0.26229405403137207,
				0.5646868348121643,
				0.921515166759491
			],
			"extensions":{
				"KHR_materials_specular":{
					"specularFactor":0
				},
				"KHR_materials_ior":{
					"ior":1.4500000476837158
				}
			},
			"name":"obj_global_emission01",
			"pbrMetallicRoughness":{
				"baseColorFactor":[
					0.2617267668247223,
					0.566400408744812,
					0.9218639135360718,
					1
				],
				"metallicFactor":0
			}
		}
	],
	"meshes":[
		{
			"name":"Mesh.004",
			"primitives":[
				{
					"attributes":{
						"POSITION":0,
						"NORMAL":1,
						"TEXCOORD_0":2
					},
					"indices":3,
					"material":0
				},
				{
					"attributes":{
						"POSITION":4,
						"NORMAL":5,
						"TEXCOORD_0":6
					},
					"indices":7,
					"material":1
				}
			]
		},
		{
			"name":"Mesh.007",
			"primitives":[
				{
					"attributes":{
						"POSITION":8,
						"NORMAL":9,
						"TEXCOORD_0":10
					},
					"indices":11
				}
			]
		}
	],
	"textures":[
		{
			"sampler":0,
			"source":0
		},
		{
			"sampler":0,
			"source":0
		}
	],
	"images":[
		{
			"mimeType":"image/png",
			"name":"obj_sign01",
			"uri":"textures/obj_sign01.png"
		}
	],
	"accessors":[
		{
			"bufferView":0,
			"componentType":5126,
			"count":1172,
			"max":[
				1.508811354637146,
				3.412611246109009,
				0.09374851733446121
			],
			"min":[
				-1.532708764076233,
				0,
				-0.09374851733446121
			],
			"type":"VEC3"
		},
		{
			"bufferView":1,
			"componentType":5126,
			"count":1172,
			"type":"VEC3"
		},
		{
			"bufferView":2,
			"componentType":5126,
			"count":1172,
			"type":"VEC2"
		},
		{
			"bufferView":3,
			"componentType":5123,
			"count":3696,
			"type":"SCALAR"
		},
		{
			"bufferView":4,
			"componentType":5126,
			"count":853,
			"max":[
				1.4951350688934326,
				3.4035022258758545,
				0.09374851733446121
			],
			"min":[
				-1.519032597541809,
				0.012592636048793793,
				-0.09374851733446121
			],
			"type":"VEC3"
		},
		{
			"bufferView":5,
			"componentType":5126,
			"count":853,
			"type":"VEC3"
		},
		{
			"bufferView":6,
			"componentType":5126,
			"count":853,
			"type":"VEC2"
		},
		{
			"bufferView":7,
			"componentType":5123,
			"count":2307,
			"type":"SCALAR"
		},
		{
			"bufferView":8,
			"componentType":5126,
			"count":642,
			"max":[
				1.508811354637146,
				2.8144240379333496,
				0.09374851733446121
			],
			"min":[
				-1.532708764076233,
				0,
				-0.09374851733446121
			],
			"type":"VEC3"
		},
		{
			"bufferView":9,
			"componentType":5126,
			"count":642,
			"type":"VEC3"
		},
		{
			"bufferView":10,
			"componentType":5126,
			"count":642,
			"type":"VEC2"
		},
		{
			"bufferView":11,
			"componentType":5123,
			"count":2736,
			"type":"SCALAR"
		}
	],
	"bufferViews":[
		{
			"buffer":0,
			"byteLength":14064,
			"byteOffset":0,
			"target":34962
		},
		{
			"buffer":0,
			"byteLength":14064,
			"byteOffset":14064,
			"target":34962
		},
		{
			"buffer":0,
			"byteLength":9376,
			"byteOffset":28128,
			"target":34962
		},
		{
			"buffer":0,
			"byteLength":7392,
			"byteOffset":37504,
			"target":34963
		},
		{
			"buffer":0,
			"byteLength":10236,
			"byteOffset":44896,
			"target":34962
		},
		{
			"buffer":0,
			"byteLength":10236,
			"byteOffset":55132,
			"target":34962
		},
		{
			"buffer":0,
			"byteLength":6824,
			"byteOffset":65368,
			"target":34962
		},
		{
			"buffer":0,
			"byteLength":4614,
			"byteOffset":72192,
			"target":34963
		},
		{
			"buffer":0,
			"byteLength":7704,
			"byteOffset":76808,
			"target":34962
		},
		{
			"buffer":0,
			"byteLength":7704,
			"byteOffset":84512,
			"target":34962
		},
		{
			"buffer":0,
			"byteLength":5136,
			"byteOffset":92216,
			"target":34962
		},
		{
			"buffer":0,
			"byteLength":5472,
			"byteOffset":97352,
			"target":34963
		}
	],
	"samplers":[
		{
			"magFilter":9729,
			"minFilter":9987
		}
	],
	"buffers":[
		{
			"byteLength":102824,
			"uri":"obj_events.bin"
		}
	]
}
