{
	"asset":{
		"generator":"Khronos glTF Blender I/O v4.3.47",
		"version":"2.0"
	},
	"extensionsUsed":[
		"KHR_materials_clearcoat",
		"KHR_materials_specular"
	],
	"scene":0,
	"scenes":[
		{
			"name":"Scene",
			"nodes":[
				0,
				1
			]
		}
	],
	"nodes":[
		{
			"mesh":0,
			"name":"obj_light"
		},
		{
			"mesh":1,
			"name":"obj_light_collider"
		}
	],
	"materials":[
		{
			"emissiveFactor":[
				1,
				1,
				1
			],
			"emissiveTexture":{
				"index":0
			},
			"extensions":{
				"KHR_materials_clearcoat":{
					"clearcoatRoughnessFactor":0
				},
				"KHR_materials_specular":{
					"specularFactor":0
				}
			},
			"name":"obj_light01",
			"pbrMetallicRoughness":{
				"baseColorTexture":{
					"index":1
				},
				"metallicFactor":0
			}
		},
		{
			"doubleSided":true,
			"emissiveFactor":[
				0.9215658903121948,
				0.7304738759994507,
				0.16513018310070038
			],
			"extensions":{
				"KHR_materials_specular":{
					"specularFactor":0
				}
			},
			"name":"obj_global_emission02",
			"pbrMetallicRoughness":{
				"baseColorFactor":[
					0.9203937649726868,
					0.7313708662986755,
					0.1655372530221939,
					1
				],
				"metallicFactor":0
			}
		},
		{
			"doubleSided":true,
			"emissiveFactor":[
				0.26229405403137207,
				0.5646868348121643,
				0.921515166759491
			],
			"extensions":{
				"KHR_materials_specular":{
					"specularFactor":0
				}
			},
			"name":"obj_global_emission01",
			"pbrMetallicRoughness":{
				"baseColorFactor":[
					0.2617267668247223,
					0.566400408744812,
					0.9218639135360718,
					1
				],
				"metallicFactor":0
			}
		},
		{
			"doubleSided":true,
			"emissiveFactor":[
				0.7455297112464905,
				0.4507659673690796,
				0.8147876262664795
			],
			"extensions":{
				"KHR_materials_specular":{
					"specularFactor":0
				}
			},
			"name":"obj_global_emission03",
			"pbrMetallicRoughness":{
				"baseColorFactor":[
					0.7454167008399963,
					0.450778603553772,
					0.8148468136787415,
					1
				],
				"metallicFactor":0
			}
		}
	],
	"meshes":[
		{
			"name":"obj_light",
			"primitives":[
				{
					"attributes":{
						"POSITION":0,
						"NORMAL":1,
						"TEXCOORD_0":2
					},
					"indices":3,
					"material":0
				},
				{
					"attributes":{
						"POSITION":4,
						"NORMAL":5,
						"TEXCOORD_0":6
					},
					"indices":7,
					"material":1
				},
				{
					"attributes":{
						"POSITION":8,
						"NORMAL":9,
						"TEXCOORD_0":10
					},
					"indices":11,
					"material":2
				},
				{
					"attributes":{
						"POSITION":12,
						"NORMAL":13,
						"TEXCOORD_0":14
					},
					"indices":15,
					"material":3
				}
			]
		},
		{
			"name":"obj_light_collider",
			"primitives":[
				{
					"attributes":{
						"POSITION":16,
						"NORMAL":17,
						"TEXCOORD_0":18
					},
					"indices":19
				}
			]
		}
	],
	"textures":[
		{
			"sampler":0,
			"source":0
		},
		{
			"sampler":0,
			"source":1
		}
	],
	"images":[
		{
			"mimeType":"image/png",
			"name":"obj_light01_emission",
			"uri":"textures/obj_light01_emission.png"
		},
		{
			"mimeType":"image/png",
			"name":"obj_light01",
			"uri":"textures/obj_light01.png"
		}
	],
	"accessors":[
		{
			"bufferView":0,
			"componentType":5126,
			"count":41000,
			"max":[
				51.83789825439453,
				2.466966390609741,
				59.80628204345703
			],
			"min":[
				-51.98491287231445,
				0.1781863123178482,
				-62.351051330566406
			],
			"type":"VEC3"
		},
		{
			"bufferView":1,
			"componentType":5126,
			"count":41000,
			"type":"VEC3"
		},
		{
			"bufferView":2,
			"componentType":5126,
			"count":41000,
			"type":"VEC2"
		},
		{
			"bufferView":3,
			"componentType":5123,
			"count":98154,
			"type":"SCALAR"
		},
		{
			"bufferView":4,
			"componentType":5126,
			"count":2940,
			"max":[
				51.37854766845703,
				2.6809113025665283,
				-3.25669002532959
			],
			"min":[
				-12.396827697753906,
				0.3603375256061554,
				-62.24854278564453
			],
			"type":"VEC3"
		},
		{
			"bufferView":5,
			"componentType":5126,
			"count":2940,
			"type":"VEC3"
		},
		{
			"bufferView":6,
			"componentType":5126,
			"count":2940,
			"type":"VEC2"
		},
		{
			"bufferView":7,
			"componentType":5123,
			"count":9360,
			"type":"SCALAR"
		},
		{
			"bufferView":8,
			"componentType":5126,
			"count":3332,
			"max":[
				51.7255859375,
				2.678093433380127,
				48.30908966064453
			],
			"min":[
				-51.88240051269531,
				0.3590521812438965,
				-62.248538970947266
			],
			"type":"VEC3"
		},
		{
			"bufferView":9,
			"componentType":5126,
			"count":3332,
			"type":"VEC3"
		},
		{
			"bufferView":10,
			"componentType":5126,
			"count":3332,
			"type":"VEC2"
		},
		{
			"bufferView":11,
			"componentType":5123,
			"count":10608,
			"type":"SCALAR"
		},
		{
			"bufferView":12,
			"componentType":5126,
			"count":1764,
			"max":[
				0.7913398742675781,
				2.677168130874634,
				59.705162048339844
			],
			"min":[
				-51.78025817871094,
				0.3580108880996704,
				3.0681304931640625
			],
			"type":"VEC3"
		},
		{
			"bufferView":13,
			"componentType":5126,
			"count":1764,
			"type":"VEC3"
		},
		{
			"bufferView":14,
			"componentType":5126,
			"count":1764,
			"type":"VEC2"
		},
		{
			"bufferView":15,
			"componentType":5123,
			"count":5616,
			"type":"SCALAR"
		},
		{
			"bufferView":16,
			"componentType":5126,
			"count":3854,
			"max":[
				51.870506286621094,
				2.702436923980713,
				59.831512451171875
			],
			"min":[
				-51.99570083618164,
				0.1781863123178482,
				-62.36188888549805
			],
			"type":"VEC3"
		},
		{
			"bufferView":17,
			"componentType":5126,
			"count":3854,
			"type":"VEC3"
		},
		{
			"bufferView":18,
			"componentType":5126,
			"count":3854,
			"type":"VEC2"
		},
		{
			"bufferView":19,
			"componentType":5123,
			"count":15498,
			"type":"SCALAR"
		}
	],
	"bufferViews":[
		{
			"buffer":0,
			"byteLength":492000,
			"byteOffset":0,
			"target":34962
		},
		{
			"buffer":0,
			"byteLength":492000,
			"byteOffset":492000,
			"target":34962
		},
		{
			"buffer":0,
			"byteLength":328000,
			"byteOffset":984000,
			"target":34962
		},
		{
			"buffer":0,
			"byteLength":196308,
			"byteOffset":1312000,
			"target":34963
		},
		{
			"buffer":0,
			"byteLength":35280,
			"byteOffset":1508308,
			"target":34962
		},
		{
			"buffer":0,
			"byteLength":35280,
			"byteOffset":1543588,
			"target":34962
		},
		{
			"buffer":0,
			"byteLength":23520,
			"byteOffset":1578868,
			"target":34962
		},
		{
			"buffer":0,
			"byteLength":18720,
			"byteOffset":1602388,
			"target":34963
		},
		{
			"buffer":0,
			"byteLength":39984,
			"byteOffset":1621108,
			"target":34962
		},
		{
			"buffer":0,
			"byteLength":39984,
			"byteOffset":1661092,
			"target":34962
		},
		{
			"buffer":0,
			"byteLength":26656,
			"byteOffset":1701076,
			"target":34962
		},
		{
			"buffer":0,
			"byteLength":21216,
			"byteOffset":1727732,
			"target":34963
		},
		{
			"buffer":0,
			"byteLength":21168,
			"byteOffset":1748948,
			"target":34962
		},
		{
			"buffer":0,
			"byteLength":21168,
			"byteOffset":1770116,
			"target":34962
		},
		{
			"buffer":0,
			"byteLength":14112,
			"byteOffset":1791284,
			"target":34962
		},
		{
			"buffer":0,
			"byteLength":11232,
			"byteOffset":1805396,
			"target":34963
		},
		{
			"buffer":0,
			"byteLength":46248,
			"byteOffset":1816628,
			"target":34962
		},
		{
			"buffer":0,
			"byteLength":46248,
			"byteOffset":1862876,
			"target":34962
		},
		{
			"buffer":0,
			"byteLength":30832,
			"byteOffset":1909124,
			"target":34962
		},
		{
			"buffer":0,
			"byteLength":30996,
			"byteOffset":1939956,
			"target":34963
		}
	],
	"samplers":[
		{
			"magFilter":9729,
			"minFilter":9987
		}
	],
	"buffers":[
		{
			"byteLength":1970952,
			"uri":"obj_light.bin"
		}
	]
}
