{
	"asset":{
		"generator":"Khronos glTF Blender I/O v4.1.63",
		"version":"2.0"
	},
	"extensionsUsed":[
		"KHR_materials_specular",
		"KHR_materials_ior"
	],
	"scene":0,
	"scenes":[
		{
			"name":"Scene",
			"nodes":[
				0,
				1
			]
		}
	],
	"nodes":[
		{
			"mesh":0,
			"name":"obj_speaker"
		},
		{
			"mesh":1,
			"name":"obj_speaker_collider"
		}
	],
	"materials":[
		{
			"emissiveFactor":[
				0.26229405403137207,
				0.5646868348121643,
				0.921515166759491
			],
			"extensions":{
				"KHR_materials_specular":{
					"specularFactor":0
				},
				"KHR_materials_ior":{
					"ior":1.4500000476837158
				}
			},
			"name":"obj_global_emission01",
			"pbrMetallicRoughness":{
				"baseColorFactor":[
					0.2617267668247223,
					0.566400408744812,
					0.9218639135360718,
					1
				],
				"metallicFactor":0
			}
		},
		{
			"emissiveFactor":[
				0.10000000149011612,
				0.10000000149011612,
				0.10000000149011612
			],
			"emissiveTexture":{
				"index":0
			},
			"extensions":{
				"KHR_materials_specular":{
					"specularFactor":0.0020000000949949026
				},
				"KHR_materials_ior":{
					"ior":1.4500000476837158
				}
			},
			"name":"obj_speaker",
			"pbrMetallicRoughness":{
				"baseColorTexture":{
					"index":1
				},
				"metallicFactor":0
			}
		}
	],
	"meshes":[
		{
			"name":"speaker3_low.002",
			"primitives":[
				{
					"attributes":{
						"POSITION":0,
						"NORMAL":1,
						"TEXCOORD_0":2
					},
					"indices":3,
					"material":0
				},
				{
					"attributes":{
						"POSITION":4,
						"NORMAL":5,
						"TEXCOORD_0":6
					},
					"indices":7,
					"material":1
				}
			]
		},
		{
			"name":"Cube.002",
			"primitives":[
				{
					"attributes":{
						"POSITION":8,
						"NORMAL":9,
						"TEXCOORD_0":10
					},
					"indices":11
				}
			]
		}
	],
	"textures":[
		{
			"sampler":0,
			"source":0
		},
		{
			"sampler":0,
			"source":0
		}
	],
	"images":[
		{
			"mimeType":"image/png",
			"name":"obj_speaker",
			"uri":"textures/obj_speaker.png"
		}
	],
	"accessors":[
		{
			"bufferView":0,
			"componentType":5126,
			"count":360,
			"max":[
				0.040985554456710815,
				0.6336365938186646,
				0.19945663213729858
			],
			"min":[
				-0.08242528885602951,
				0.025586247444152832,
				-0.18774795532226562
			],
			"type":"VEC3"
		},
		{
			"bufferView":1,
			"componentType":5126,
			"count":360,
			"type":"VEC3"
		},
		{
			"bufferView":2,
			"componentType":5126,
			"count":360,
			"type":"VEC2"
		},
		{
			"bufferView":3,
			"componentType":5123,
			"count":720,
			"type":"SCALAR"
		},
		{
			"bufferView":4,
			"componentType":5126,
			"count":503,
			"max":[
				0.08031516522169113,
				0.6429129838943481,
				0.20139116048812866
			],
			"min":[
				-0.08810394257307053,
				0.016344666481018066,
				-0.1897515505552292
			],
			"type":"VEC3"
		},
		{
			"bufferView":5,
			"componentType":5126,
			"count":503,
			"type":"VEC3"
		},
		{
			"bufferView":6,
			"componentType":5126,
			"count":503,
			"type":"VEC2"
		},
		{
			"bufferView":7,
			"componentType":5123,
			"count":2058,
			"type":"SCALAR"
		},
		{
			"bufferView":8,
			"componentType":5126,
			"count":50,
			"max":[
				0.08450855314731598,
				0.6494320631027222,
				0.21721135079860687
			],
			"min":[
				-0.08842702955007553,
				0.009959578514099121,
				-0.1934766322374344
			],
			"type":"VEC3"
		},
		{
			"bufferView":9,
			"componentType":5126,
			"count":50,
			"type":"VEC3"
		},
		{
			"bufferView":10,
			"componentType":5126,
			"count":50,
			"type":"VEC2"
		},
		{
			"bufferView":11,
			"componentType":5123,
			"count":96,
			"type":"SCALAR"
		}
	],
	"bufferViews":[
		{
			"buffer":0,
			"byteLength":4320,
			"byteOffset":0,
			"target":34962
		},
		{
			"buffer":0,
			"byteLength":4320,
			"byteOffset":4320,
			"target":34962
		},
		{
			"buffer":0,
			"byteLength":2880,
			"byteOffset":8640,
			"target":34962
		},
		{
			"buffer":0,
			"byteLength":1440,
			"byteOffset":11520,
			"target":34963
		},
		{
			"buffer":0,
			"byteLength":6036,
			"byteOffset":12960,
			"target":34962
		},
		{
			"buffer":0,
			"byteLength":6036,
			"byteOffset":18996,
			"target":34962
		},
		{
			"buffer":0,
			"byteLength":4024,
			"byteOffset":25032,
			"target":34962
		},
		{
			"buffer":0,
			"byteLength":4116,
			"byteOffset":29056,
			"target":34963
		},
		{
			"buffer":0,
			"byteLength":600,
			"byteOffset":33172,
			"target":34962
		},
		{
			"buffer":0,
			"byteLength":600,
			"byteOffset":33772,
			"target":34962
		},
		{
			"buffer":0,
			"byteLength":400,
			"byteOffset":34372,
			"target":34962
		},
		{
			"buffer":0,
			"byteLength":192,
			"byteOffset":34772,
			"target":34963
		}
	],
	"samplers":[
		{
			"magFilter":9729,
			"minFilter":9987
		}
	],
	"buffers":[
		{
			"byteLength":34964,
			"uri":"obj_speaker.bin"
		}
	]
}
