{
	"asset":{
		"generator":"Khronos glTF Blender I/O v4.1.63",
		"version":"2.0"
	},
	"extensionsUsed":[
		"KHR_materials_specular",
		"KHR_materials_ior"
	],
	"scene":0,
	"scenes":[
		{
			"name":"Scene",
			"nodes":[
				0,
				1
			]
		}
	],
	"nodes":[
		{
			"mesh":0,
			"name":"obj_borders00"
		},
		{
			"mesh":1,
			"name":"obj_borders00_collider"
		}
	],
	"materials":[
		{
			"emissiveFactor":[
				0.08500204809013079,
				0.09007176891076218,
				0.10000240951780093
			],
			"emissiveTexture":{
				"index":0
			},
			"extensions":{
				"KHR_materials_specular":{
					"specularFactor":0
				},
				"KHR_materials_ior":{
					"ior":1.4500000476837158
				}
			},
			"name":"obj_borders",
			"pbrMetallicRoughness":{
				"baseColorFactor":[
					0.8500204682350159,
					0.9007176756858826,
					1,
					1
				],
				"baseColorTexture":{
					"index":1
				},
				"metallicFactor":0
			}
		},
		{
			"emissiveFactor":[
				0.26229405403137207,
				0.5646868348121643,
				0.921515166759491
			],
			"extensions":{
				"KHR_materials_specular":{
					"specularFactor":0
				},
				"KHR_materials_ior":{
					"ior":1.4500000476837158
				}
			},
			"name":"obj_global_emission01",
			"pbrMetallicRoughness":{
				"baseColorFactor":[
					0.2617267668247223,
					0.566400408744812,
					0.9218639135360718,
					1
				],
				"metallicFactor":0
			}
		}
	],
	"meshes":[
		{
			"name":"Plane.004",
			"primitives":[
				{
					"attributes":{
						"POSITION":0,
						"NORMAL":1,
						"TEXCOORD_0":2
					},
					"indices":3,
					"material":0
				},
				{
					"attributes":{
						"POSITION":4,
						"NORMAL":5,
						"TEXCOORD_0":6
					},
					"indices":7,
					"material":1
				}
			]
		},
		{
			"name":"Plane.005",
			"primitives":[
				{
					"attributes":{
						"POSITION":8,
						"NORMAL":9,
						"TEXCOORD_0":10
					},
					"indices":11
				}
			]
		}
	],
	"textures":[
		{
			"sampler":0,
			"source":0
		},
		{
			"sampler":0,
			"source":0
		}
	],
	"images":[
		{
			"mimeType":"image/png",
			"name":"obj_borders",
			"uri":"textures/obj_borders.png"
		}
	],
	"accessors":[
		{
			"bufferView":0,
			"componentType":5126,
			"count":26662,
			"max":[
				77.63213348388672,
				0.15277528762817383,
				71.79876708984375
			],
			"min":[
				-69.98660278320312,
				0.019515857100486755,
				-76.16053771972656
			],
			"type":"VEC3"
		},
		{
			"bufferView":1,
			"componentType":5126,
			"count":26662,
			"type":"VEC3"
		},
		{
			"bufferView":2,
			"componentType":5126,
			"count":26662,
			"type":"VEC2"
		},
		{
			"bufferView":3,
			"componentType":5123,
			"count":51780,
			"type":"SCALAR"
		},
		{
			"bufferView":4,
			"componentType":5126,
			"count":6522,
			"max":[
				77.55843353271484,
				0.11459746956825256,
				71.72566223144531
			],
			"min":[
				-69.91352844238281,
				0.07959716767072678,
				-76.0869369506836
			],
			"type":"VEC3"
		},
		{
			"bufferView":5,
			"componentType":5126,
			"count":6522,
			"type":"VEC3"
		},
		{
			"bufferView":6,
			"componentType":5126,
			"count":6522,
			"type":"VEC2"
		},
		{
			"bufferView":7,
			"componentType":5123,
			"count":10356,
			"type":"SCALAR"
		},
		{
			"bufferView":8,
			"componentType":5126,
			"count":1644,
			"max":[
				77.51445770263672,
				0.15248024463653564,
				71.70328521728516
			],
			"min":[
				-69.88724517822266,
				0.019515886902809143,
				-76.06864166259766
			],
			"type":"VEC3"
		},
		{
			"bufferView":9,
			"componentType":5126,
			"count":1644,
			"type":"VEC3"
		},
		{
			"bufferView":10,
			"componentType":5126,
			"count":1644,
			"type":"VEC2"
		},
		{
			"bufferView":11,
			"componentType":5123,
			"count":4740,
			"type":"SCALAR"
		}
	],
	"bufferViews":[
		{
			"buffer":0,
			"byteLength":319944,
			"byteOffset":0,
			"target":34962
		},
		{
			"buffer":0,
			"byteLength":319944,
			"byteOffset":319944,
			"target":34962
		},
		{
			"buffer":0,
			"byteLength":213296,
			"byteOffset":639888,
			"target":34962
		},
		{
			"buffer":0,
			"byteLength":103560,
			"byteOffset":853184,
			"target":34963
		},
		{
			"buffer":0,
			"byteLength":78264,
			"byteOffset":956744,
			"target":34962
		},
		{
			"buffer":0,
			"byteLength":78264,
			"byteOffset":1035008,
			"target":34962
		},
		{
			"buffer":0,
			"byteLength":52176,
			"byteOffset":1113272,
			"target":34962
		},
		{
			"buffer":0,
			"byteLength":20712,
			"byteOffset":1165448,
			"target":34963
		},
		{
			"buffer":0,
			"byteLength":19728,
			"byteOffset":1186160,
			"target":34962
		},
		{
			"buffer":0,
			"byteLength":19728,
			"byteOffset":1205888,
			"target":34962
		},
		{
			"buffer":0,
			"byteLength":13152,
			"byteOffset":1225616,
			"target":34962
		},
		{
			"buffer":0,
			"byteLength":9480,
			"byteOffset":1238768,
			"target":34963
		}
	],
	"samplers":[
		{
			"magFilter":9729,
			"minFilter":9987
		}
	],
	"buffers":[
		{
			"byteLength":1248248,
			"uri":"obj_borders00.bin"
		}
	]
}
