{
	"asset":{
		"generator":"Khronos glTF Blender I/O v4.1.63",
		"version":"2.0"
	},
	"extensionsUsed":[
		"KHR_materials_specular",
		"KHR_materials_ior"
	],
	"scene":0,
	"scenes":[
		{
			"name":"Scene",
			"nodes":[
				0,
				1
			]
		}
	],
	"nodes":[
		{
			"mesh":0,
			"name":"obj_station"
		},
		{
			"mesh":1,
			"name":"obj_station_collider"
		}
	],
	"materials":[
		{
			"emissiveFactor":[
				0.07999999821186066,
				0.07999999821186066,
				0.07999999821186066
			],
			"emissiveTexture":{
				"index":0
			},
			"extensions":{
				"KHR_materials_specular":{
					"specularFactor":0
				},
				"KHR_materials_ior":{
					"ior":1.4500000476837158
				}
			},
			"name":"obj_station01_01",
			"pbrMetallicRoughness":{
				"baseColorTexture":{
					"index":1
				},
				"metallicFactor":0
			}
		},
		{
			"emissiveFactor":[
				0.07999999821186066,
				0.07999999821186066,
				0.07999999821186066
			],
			"emissiveTexture":{
				"index":2
			},
			"extensions":{
				"KHR_materials_specular":{
					"specularFactor":0
				},
				"KHR_materials_ior":{
					"ior":1.4500000476837158
				}
			},
			"name":"obj_station01_02",
			"pbrMetallicRoughness":{
				"baseColorTexture":{
					"index":3
				},
				"metallicFactor":0
			}
		},
		{
			"emissiveFactor":[
				0.07999999821186066,
				0.07999999821186066,
				0.07999999821186066
			],
			"emissiveTexture":{
				"index":4
			},
			"extensions":{
				"KHR_materials_specular":{
					"specularFactor":0
				},
				"KHR_materials_ior":{
					"ior":1.4500000476837158
				}
			},
			"name":"obj_station01_03",
			"pbrMetallicRoughness":{
				"baseColorTexture":{
					"index":5
				},
				"metallicFactor":0
			}
		},
		{
			"emissiveFactor":[
				0.07999999821186066,
				0.07999999821186066,
				0.07999999821186066
			],
			"emissiveTexture":{
				"index":6
			},
			"extensions":{
				"KHR_materials_specular":{
					"specularFactor":0
				},
				"KHR_materials_ior":{
					"ior":1.4500000476837158
				}
			},
			"name":"obj_station01_04",
			"pbrMetallicRoughness":{
				"baseColorTexture":{
					"index":7
				},
				"metallicFactor":0
			}
		},
		{
			"emissiveFactor":[
				0.07999999821186066,
				0.07999999821186066,
				0.07999999821186066
			],
			"emissiveTexture":{
				"index":8
			},
			"extensions":{
				"KHR_materials_specular":{
					"specularFactor":0
				},
				"KHR_materials_ior":{
					"ior":1.4500000476837158
				}
			},
			"name":"obj_station01_05",
			"pbrMetallicRoughness":{
				"baseColorTexture":{
					"index":9
				},
				"metallicFactor":0
			}
		},
		{
			"emissiveFactor":[
				0.26229405403137207,
				0.5646868348121643,
				0.921515166759491
			],
			"extensions":{
				"KHR_materials_specular":{
					"specularFactor":0
				},
				"KHR_materials_ior":{
					"ior":1.4500000476837158
				}
			},
			"name":"obj_global_emission01",
			"pbrMetallicRoughness":{
				"baseColorFactor":[
					0.2617267668247223,
					0.566400408744812,
					0.9218639135360718,
					1
				],
				"metallicFactor":0
			}
		}
	],
	"meshes":[
		{
			"name":"Plane.020",
			"primitives":[
				{
					"attributes":{
						"POSITION":0,
						"NORMAL":1,
						"TEXCOORD_0":2
					},
					"indices":3,
					"material":0
				},
				{
					"attributes":{
						"POSITION":4,
						"NORMAL":5,
						"TEXCOORD_0":6
					},
					"indices":7,
					"material":1
				},
				{
					"attributes":{
						"POSITION":8,
						"NORMAL":9,
						"TEXCOORD_0":10
					},
					"indices":11,
					"material":2
				},
				{
					"attributes":{
						"POSITION":12,
						"NORMAL":13,
						"TEXCOORD_0":14
					},
					"indices":15,
					"material":3
				},
				{
					"attributes":{
						"POSITION":16,
						"NORMAL":17,
						"TEXCOORD_0":18
					},
					"indices":19,
					"material":4
				},
				{
					"attributes":{
						"POSITION":20,
						"NORMAL":21,
						"TEXCOORD_0":22
					},
					"indices":23,
					"material":5
				}
			]
		},
		{
			"name":"Cylinder.006",
			"primitives":[
				{
					"attributes":{
						"POSITION":24,
						"NORMAL":25,
						"TEXCOORD_0":26
					},
					"indices":27
				}
			]
		}
	],
	"textures":[
		{
			"sampler":0,
			"source":0
		},
		{
			"sampler":0,
			"source":0
		},
		{
			"sampler":0,
			"source":1
		},
		{
			"sampler":0,
			"source":1
		},
		{
			"sampler":0,
			"source":2
		},
		{
			"sampler":0,
			"source":2
		},
		{
			"sampler":0,
			"source":3
		},
		{
			"sampler":0,
			"source":3
		},
		{
			"sampler":0,
			"source":4
		},
		{
			"sampler":0,
			"source":4
		}
	],
	"images":[
		{
			"mimeType":"image/png",
			"name":"obj_station01_01",
			"uri":"textures/obj_station01_01.png"
		},
		{
			"mimeType":"image/png",
			"name":"obj_station01_02",
			"uri":"textures/obj_station01_02.png"
		},
		{
			"mimeType":"image/png",
			"name":"obj_station01_03",
			"uri":"textures/obj_station01_03.png"
		},
		{
			"mimeType":"image/png",
			"name":"obj_station01_04",
			"uri":"textures/obj_station01_04.png"
		},
		{
			"mimeType":"image/png",
			"name":"obj_station01_05",
			"uri":"textures/obj_station01_05.png"
		}
	],
	"accessors":[
		{
			"bufferView":0,
			"componentType":5126,
			"count":930,
			"max":[
				3.095961809158325,
				10.561127662658691,
				3.110396385192871
			],
			"min":[
				-3.095961809158325,
				6.295699119567871,
				-3.110396385192871
			],
			"type":"VEC3"
		},
		{
			"bufferView":1,
			"componentType":5126,
			"count":930,
			"type":"VEC3"
		},
		{
			"bufferView":2,
			"componentType":5126,
			"count":930,
			"type":"VEC2"
		},
		{
			"bufferView":3,
			"componentType":5123,
			"count":2256,
			"type":"SCALAR"
		},
		{
			"bufferView":4,
			"componentType":5126,
			"count":624,
			"max":[
				3.244596242904663,
				8.385252952575684,
				3.2447078227996826
			],
			"min":[
				-3.244819402694702,
				-1.4901161193847656e-08,
				-3.2447078227996826
			],
			"type":"VEC3"
		},
		{
			"bufferView":5,
			"componentType":5126,
			"count":624,
			"type":"VEC3"
		},
		{
			"bufferView":6,
			"componentType":5126,
			"count":624,
			"type":"VEC2"
		},
		{
			"bufferView":7,
			"componentType":5123,
			"count":1392,
			"type":"SCALAR"
		},
		{
			"bufferView":8,
			"componentType":5126,
			"count":615,
			"max":[
				3.1446597576141357,
				6.47566556930542,
				3.142380952835083
			],
			"min":[
				-3.1446597576141357,
				4.099731922149658,
				-3.142380952835083
			],
			"type":"VEC3"
		},
		{
			"bufferView":9,
			"componentType":5126,
			"count":615,
			"type":"VEC3"
		},
		{
			"bufferView":10,
			"componentType":5126,
			"count":615,
			"type":"VEC2"
		},
		{
			"bufferView":11,
			"componentType":5123,
			"count":1344,
			"type":"SCALAR"
		},
		{
			"bufferView":12,
			"componentType":5126,
			"count":344,
			"max":[
				2.858044147491455,
				4.214696884155273,
				2.858044147491455
			],
			"min":[
				-2.858044147491455,
				-1.4901161193847656e-08,
				-2.858044147491455
			],
			"type":"VEC3"
		},
		{
			"bufferView":13,
			"componentType":5126,
			"count":344,
			"type":"VEC3"
		},
		{
			"bufferView":14,
			"componentType":5126,
			"count":344,
			"type":"VEC2"
		},
		{
			"bufferView":15,
			"componentType":5123,
			"count":840,
			"type":"SCALAR"
		},
		{
			"bufferView":16,
			"componentType":5126,
			"count":280,
			"max":[
				3.365079402923584,
				2.6942052841186523,
				3.365079402923584
			],
			"min":[
				-3.365079879760742,
				-0.0027167797088623047,
				-3.365079402923584
			],
			"type":"VEC3"
		},
		{
			"bufferView":17,
			"componentType":5126,
			"count":280,
			"type":"VEC3"
		},
		{
			"bufferView":18,
			"componentType":5126,
			"count":280,
			"type":"VEC2"
		},
		{
			"bufferView":19,
			"componentType":5123,
			"count":474,
			"type":"SCALAR"
		},
		{
			"bufferView":20,
			"componentType":5126,
			"count":432,
			"max":[
				3.134460687637329,
				8.133132934570312,
				3.134460687637329
			],
			"min":[
				-3.134460687637329,
				-1.4901161193847656e-08,
				-3.134460687637329
			],
			"type":"VEC3"
		},
		{
			"bufferView":21,
			"componentType":5126,
			"count":432,
			"type":"VEC3"
		},
		{
			"bufferView":22,
			"componentType":5126,
			"count":432,
			"type":"VEC2"
		},
		{
			"bufferView":23,
			"componentType":5123,
			"count":888,
			"type":"SCALAR"
		},
		{
			"bufferView":24,
			"componentType":5126,
			"count":304,
			"max":[
				3.839979648590088,
				10.57161808013916,
				3.839979648590088
			],
			"min":[
				-3.839979648590088,
				0,
				-3.839979648590088
			],
			"type":"VEC3"
		},
		{
			"bufferView":25,
			"componentType":5126,
			"count":304,
			"type":"VEC3"
		},
		{
			"bufferView":26,
			"componentType":5126,
			"count":304,
			"type":"VEC2"
		},
		{
			"bufferView":27,
			"componentType":5123,
			"count":522,
			"type":"SCALAR"
		}
	],
	"bufferViews":[
		{
			"buffer":0,
			"byteLength":11160,
			"byteOffset":0,
			"target":34962
		},
		{
			"buffer":0,
			"byteLength":11160,
			"byteOffset":11160,
			"target":34962
		},
		{
			"buffer":0,
			"byteLength":7440,
			"byteOffset":22320,
			"target":34962
		},
		{
			"buffer":0,
			"byteLength":4512,
			"byteOffset":29760,
			"target":34963
		},
		{
			"buffer":0,
			"byteLength":7488,
			"byteOffset":34272,
			"target":34962
		},
		{
			"buffer":0,
			"byteLength":7488,
			"byteOffset":41760,
			"target":34962
		},
		{
			"buffer":0,
			"byteLength":4992,
			"byteOffset":49248,
			"target":34962
		},
		{
			"buffer":0,
			"byteLength":2784,
			"byteOffset":54240,
			"target":34963
		},
		{
			"buffer":0,
			"byteLength":7380,
			"byteOffset":57024,
			"target":34962
		},
		{
			"buffer":0,
			"byteLength":7380,
			"byteOffset":64404,
			"target":34962
		},
		{
			"buffer":0,
			"byteLength":4920,
			"byteOffset":71784,
			"target":34962
		},
		{
			"buffer":0,
			"byteLength":2688,
			"byteOffset":76704,
			"target":34963
		},
		{
			"buffer":0,
			"byteLength":4128,
			"byteOffset":79392,
			"target":34962
		},
		{
			"buffer":0,
			"byteLength":4128,
			"byteOffset":83520,
			"target":34962
		},
		{
			"buffer":0,
			"byteLength":2752,
			"byteOffset":87648,
			"target":34962
		},
		{
			"buffer":0,
			"byteLength":1680,
			"byteOffset":90400,
			"target":34963
		},
		{
			"buffer":0,
			"byteLength":3360,
			"byteOffset":92080,
			"target":34962
		},
		{
			"buffer":0,
			"byteLength":3360,
			"byteOffset":95440,
			"target":34962
		},
		{
			"buffer":0,
			"byteLength":2240,
			"byteOffset":98800,
			"target":34962
		},
		{
			"buffer":0,
			"byteLength":948,
			"byteOffset":101040,
			"target":34963
		},
		{
			"buffer":0,
			"byteLength":5184,
			"byteOffset":101988,
			"target":34962
		},
		{
			"buffer":0,
			"byteLength":5184,
			"byteOffset":107172,
			"target":34962
		},
		{
			"buffer":0,
			"byteLength":3456,
			"byteOffset":112356,
			"target":34962
		},
		{
			"buffer":0,
			"byteLength":1776,
			"byteOffset":115812,
			"target":34963
		},
		{
			"buffer":0,
			"byteLength":3648,
			"byteOffset":117588,
			"target":34962
		},
		{
			"buffer":0,
			"byteLength":3648,
			"byteOffset":121236,
			"target":34962
		},
		{
			"buffer":0,
			"byteLength":2432,
			"byteOffset":124884,
			"target":34962
		},
		{
			"buffer":0,
			"byteLength":1044,
			"byteOffset":127316,
			"target":34963
		}
	],
	"samplers":[
		{
			"magFilter":9729,
			"minFilter":9987
		}
	],
	"buffers":[
		{
			"byteLength":128360,
			"uri":"obj_station.bin"
		}
	]
}
