{
	"asset":{
		"generator":"Khronos glTF Blender I/O v4.1.63",
		"version":"2.0"
	},
	"extensionsUsed":[
		"KHR_materials_specular",
		"KHR_materials_ior"
	],
	"scene":0,
	"scenes":[
		{
			"name":"Scene",
			"nodes":[
				0,
				1
			]
		}
	],
	"nodes":[
		{
			"mesh":0,
			"name":"obj_fridge01"
		},
		{
			"mesh":1,
			"name":"obj_fridge01_collider"
		}
	],
	"materials":[
		{
			"emissiveFactor":[
				0.10000000149011612,
				0.10000000149011612,
				0.10000000149011612
			],
			"emissiveTexture":{
				"index":0
			},
			"extensions":{
				"KHR_materials_specular":{
					"specularFactor":0
				},
				"KHR_materials_ior":{
					"ior":1.4500000476837158
				}
			},
			"name":"obj_fridge01",
			"pbrMetallicRoughness":{
				"baseColorTexture":{
					"index":1
				},
				"metallicFactor":0
			}
		},
		{
			"emissiveFactor":[
				0.26229405403137207,
				0.5646868348121643,
				0.921515166759491
			],
			"extensions":{
				"KHR_materials_specular":{
					"specularFactor":0
				},
				"KHR_materials_ior":{
					"ior":1.4500000476837158
				}
			},
			"name":"obj_global_emission01",
			"pbrMetallicRoughness":{
				"baseColorFactor":[
					0.2617267668247223,
					0.566400408744812,
					0.9218639135360718,
					1
				],
				"metallicFactor":0
			}
		},
		{
			"alphaMode":"BLEND",
			"emissiveFactor":[
				1,
				1,
				1
			],
			"emissiveTexture":{
				"index":2
			},
			"extensions":{
				"KHR_materials_specular":{
					"specularFactor":0
				},
				"KHR_materials_ior":{
					"ior":1.4500000476837158
				}
			},
			"name":"obj_global_glass02",
			"pbrMetallicRoughness":{
				"baseColorTexture":{
					"index":3
				},
				"metallicFactor":0
			}
		}
	],
	"meshes":[
		{
			"name":"Mesh.278",
			"primitives":[
				{
					"attributes":{
						"POSITION":0,
						"NORMAL":1,
						"TEXCOORD_0":2
					},
					"indices":3,
					"material":0
				},
				{
					"attributes":{
						"POSITION":4,
						"NORMAL":5,
						"TEXCOORD_0":6
					},
					"indices":7,
					"material":1
				},
				{
					"attributes":{
						"POSITION":8,
						"NORMAL":9,
						"TEXCOORD_0":10
					},
					"indices":11,
					"material":2
				}
			]
		},
		{
			"name":"Mesh.279",
			"primitives":[
				{
					"attributes":{
						"POSITION":12,
						"NORMAL":13,
						"TEXCOORD_0":14
					},
					"indices":15
				}
			]
		}
	],
	"textures":[
		{
			"sampler":0,
			"source":0
		},
		{
			"sampler":0,
			"source":0
		},
		{
			"sampler":0,
			"source":1
		},
		{
			"sampler":0,
			"source":1
		}
	],
	"images":[
		{
			"mimeType":"image/png",
			"name":"obj_fridge01",
			"uri":"textures/obj_fridge01.png"
		},
		{
			"mimeType":"image/png",
			"name":"obj_global_glass02",
			"uri":"textures/obj_global_glass02.png"
		}
	],
	"accessors":[
		{
			"bufferView":0,
			"componentType":5126,
			"count":306,
			"max":[
				0.7316443920135498,
				2.6340746879577637,
				0.5950095057487488
			],
			"min":[
				-0.7316449284553528,
				0.005925272591412067,
				-0.5985363721847534
			],
			"type":"VEC3"
		},
		{
			"bufferView":1,
			"componentType":5126,
			"count":306,
			"type":"VEC3"
		},
		{
			"bufferView":2,
			"componentType":5126,
			"count":306,
			"type":"VEC2"
		},
		{
			"bufferView":3,
			"componentType":5123,
			"count":1080,
			"type":"SCALAR"
		},
		{
			"bufferView":4,
			"componentType":5126,
			"count":80,
			"max":[
				0.7316418886184692,
				2.6340715885162354,
				0.5592943429946899
			],
			"min":[
				-0.7316418290138245,
				0.0059278919361531734,
				0.3922537863254547
			],
			"type":"VEC3"
		},
		{
			"bufferView":5,
			"componentType":5126,
			"count":80,
			"type":"VEC3"
		},
		{
			"bufferView":6,
			"componentType":5126,
			"count":80,
			"type":"VEC2"
		},
		{
			"bufferView":7,
			"componentType":5123,
			"count":252,
			"type":"SCALAR"
		},
		{
			"bufferView":8,
			"componentType":5126,
			"count":13,
			"max":[
				0.5862480401992798,
				2.4967453479766846,
				0.5579367280006409
			],
			"min":[
				-0.5862478613853455,
				0.14325471222400665,
				0.5579357743263245
			],
			"type":"VEC3"
		},
		{
			"bufferView":9,
			"componentType":5126,
			"count":13,
			"type":"VEC3"
		},
		{
			"bufferView":10,
			"componentType":5126,
			"count":13,
			"type":"VEC2"
		},
		{
			"bufferView":11,
			"componentType":5123,
			"count":36,
			"type":"SCALAR"
		},
		{
			"bufferView":12,
			"componentType":5126,
			"count":166,
			"max":[
				0.7337980270385742,
				2.6379427909851074,
				0.5955404043197632
			],
			"min":[
				-0.733798623085022,
				0.0020573274232447147,
				-0.598565936088562
			],
			"type":"VEC3"
		},
		{
			"bufferView":13,
			"componentType":5126,
			"count":166,
			"type":"VEC3"
		},
		{
			"bufferView":14,
			"componentType":5126,
			"count":166,
			"type":"VEC2"
		},
		{
			"bufferView":15,
			"componentType":5123,
			"count":234,
			"type":"SCALAR"
		}
	],
	"bufferViews":[
		{
			"buffer":0,
			"byteLength":3672,
			"byteOffset":0,
			"target":34962
		},
		{
			"buffer":0,
			"byteLength":3672,
			"byteOffset":3672,
			"target":34962
		},
		{
			"buffer":0,
			"byteLength":2448,
			"byteOffset":7344,
			"target":34962
		},
		{
			"buffer":0,
			"byteLength":2160,
			"byteOffset":9792,
			"target":34963
		},
		{
			"buffer":0,
			"byteLength":960,
			"byteOffset":11952,
			"target":34962
		},
		{
			"buffer":0,
			"byteLength":960,
			"byteOffset":12912,
			"target":34962
		},
		{
			"buffer":0,
			"byteLength":640,
			"byteOffset":13872,
			"target":34962
		},
		{
			"buffer":0,
			"byteLength":504,
			"byteOffset":14512,
			"target":34963
		},
		{
			"buffer":0,
			"byteLength":156,
			"byteOffset":15016,
			"target":34962
		},
		{
			"buffer":0,
			"byteLength":156,
			"byteOffset":15172,
			"target":34962
		},
		{
			"buffer":0,
			"byteLength":104,
			"byteOffset":15328,
			"target":34962
		},
		{
			"buffer":0,
			"byteLength":72,
			"byteOffset":15432,
			"target":34963
		},
		{
			"buffer":0,
			"byteLength":1992,
			"byteOffset":15504,
			"target":34962
		},
		{
			"buffer":0,
			"byteLength":1992,
			"byteOffset":17496,
			"target":34962
		},
		{
			"buffer":0,
			"byteLength":1328,
			"byteOffset":19488,
			"target":34962
		},
		{
			"buffer":0,
			"byteLength":468,
			"byteOffset":20816,
			"target":34963
		}
	],
	"samplers":[
		{
			"magFilter":9729,
			"minFilter":9987
		}
	],
	"buffers":[
		{
			"byteLength":21284,
			"uri":"obj_fridge01.bin"
		}
	]
}
