{
	"asset":{
		"generator":"Khronos glTF Blender I/O v4.1.63",
		"version":"2.0"
	},
	"extensionsUsed":[
		"KHR_materials_specular",
		"KHR_materials_ior"
	],
	"scene":0,
	"scenes":[
		{
			"name":"Scene",
			"nodes":[
				0,
				1
			]
		}
	],
	"nodes":[
		{
			"mesh":0,
			"name":"obj_ground02"
		},
		{
			"mesh":1,
			"name":"obj_ground02_collider"
		}
	],
	"materials":[
		{
			"emissiveFactor":[
				0.15000000596046448,
				0.15000000596046448,
				0.15000000596046448
			],
			"emissiveTexture":{
				"index":0
			},
			"extensions":{
				"KHR_materials_specular":{
					"specularFactor":0
				},
				"KHR_materials_ior":{
					"ior":1.4500000476837158
				}
			},
			"name":"obj_ground02",
			"pbrMetallicRoughness":{
				"baseColorTexture":{
					"index":1
				},
				"metallicFactor":0
			}
		}
	],
	"meshes":[
		{
			"name":"Plane.017",
			"primitives":[
				{
					"attributes":{
						"POSITION":0,
						"NORMAL":1,
						"TEXCOORD_0":2
					},
					"indices":3,
					"material":0
				}
			]
		},
		{
			"name":"Plane.020",
			"primitives":[
				{
					"attributes":{
						"POSITION":4,
						"NORMAL":5,
						"TEXCOORD_0":6
					},
					"indices":7
				}
			]
		}
	],
	"textures":[
		{
			"sampler":0,
			"source":0
		},
		{
			"sampler":0,
			"source":0
		}
	],
	"images":[
		{
			"mimeType":"image/png",
			"name":"obj_ground02",
			"uri":"textures/obj_ground02.png"
		}
	],
	"accessors":[
		{
			"bufferView":0,
			"componentType":5126,
			"count":2177,
			"max":[
				-3.9201269149780273,
				0.3001548647880554,
				-3.9096717834472656
			],
			"min":[
				-51.21372985839844,
				0.17730918526649475,
				-61.59794235229492
			],
			"type":"VEC3"
		},
		{
			"bufferView":1,
			"componentType":5126,
			"count":2177,
			"type":"VEC3"
		},
		{
			"bufferView":2,
			"componentType":5126,
			"count":2177,
			"type":"VEC2"
		},
		{
			"bufferView":3,
			"componentType":5123,
			"count":5793,
			"type":"SCALAR"
		},
		{
			"bufferView":4,
			"componentType":5126,
			"count":663,
			"max":[
				-3.930124044418335,
				0.3001546859741211,
				-3.9096717834472656
			],
			"min":[
				-51.21372985839844,
				0.17730924487113953,
				-61.59319305419922
			],
			"type":"VEC3"
		},
		{
			"bufferView":5,
			"componentType":5126,
			"count":663,
			"type":"VEC3"
		},
		{
			"bufferView":6,
			"componentType":5126,
			"count":663,
			"type":"VEC2"
		},
		{
			"bufferView":7,
			"componentType":5123,
			"count":1446,
			"type":"SCALAR"
		}
	],
	"bufferViews":[
		{
			"buffer":0,
			"byteLength":26124,
			"byteOffset":0,
			"target":34962
		},
		{
			"buffer":0,
			"byteLength":26124,
			"byteOffset":26124,
			"target":34962
		},
		{
			"buffer":0,
			"byteLength":17416,
			"byteOffset":52248,
			"target":34962
		},
		{
			"buffer":0,
			"byteLength":11586,
			"byteOffset":69664,
			"target":34963
		},
		{
			"buffer":0,
			"byteLength":7956,
			"byteOffset":81252,
			"target":34962
		},
		{
			"buffer":0,
			"byteLength":7956,
			"byteOffset":89208,
			"target":34962
		},
		{
			"buffer":0,
			"byteLength":5304,
			"byteOffset":97164,
			"target":34962
		},
		{
			"buffer":0,
			"byteLength":2892,
			"byteOffset":102468,
			"target":34963
		}
	],
	"samplers":[
		{
			"magFilter":9729,
			"minFilter":9987
		}
	],
	"buffers":[
		{
			"byteLength":105360,
			"uri":"obj_ground02.bin"
		}
	]
}
