{
	"asset":{
		"generator":"Khronos glTF Blender I/O v4.1.63",
		"version":"2.0"
	},
	"extensionsUsed":[
		"KHR_materials_specular",
		"KHR_materials_ior"
	],
	"scene":0,
	"scenes":[
		{
			"name":"Scene",
			"nodes":[
				0,
				1
			]
		}
	],
	"nodes":[
		{
			"mesh":0,
			"name":"obj_hand01"
		},
		{
			"mesh":1,
			"name":"obj_hand01_collider"
		}
	],
	"materials":[
		{
			"emissiveFactor":[
				0.10000000149011612,
				0.10000000149011612,
				0.10000000149011612
			],
			"emissiveTexture":{
				"index":0
			},
			"extensions":{
				"KHR_materials_specular":{
					"specularFactor":0
				},
				"KHR_materials_ior":{
					"ior":1.4500000476837158
				}
			},
			"name":"obj_hands",
			"pbrMetallicRoughness":{
				"baseColorTexture":{
					"index":1
				},
				"metallicFactor":0
			}
		},
		{
			"emissiveFactor":[
				0.26229405403137207,
				0.5646868348121643,
				0.921515166759491
			],
			"extensions":{
				"KHR_materials_specular":{
					"specularFactor":0
				},
				"KHR_materials_ior":{
					"ior":1.4500000476837158
				}
			},
			"name":"obj_global_emission01",
			"pbrMetallicRoughness":{
				"baseColorFactor":[
					0.2617267668247223,
					0.566400408744812,
					0.9218639135360718,
					1
				],
				"metallicFactor":0
			}
		},
		{
			"alphaMode":"BLEND",
			"doubleSided":true,
			"emissiveFactor":[
				0.5,
				0.5,
				0.5
			],
			"emissiveTexture":{
				"index":2
			},
			"extensions":{
				"KHR_materials_specular":{
					"specularFactor":0
				},
				"KHR_materials_ior":{
					"ior":1.4500000476837158
				}
			},
			"name":"obj_hands_screen",
			"pbrMetallicRoughness":{
				"baseColorFactor":[
					1,
					1,
					1,
					0.699999988079071
				],
				"baseColorTexture":{
					"index":3
				},
				"metallicFactor":0
			}
		}
	],
	"meshes":[
		{
			"name":"Plane.002",
			"primitives":[
				{
					"attributes":{
						"POSITION":0,
						"NORMAL":1,
						"TEXCOORD_0":2
					},
					"indices":3,
					"material":0
				},
				{
					"attributes":{
						"POSITION":4,
						"NORMAL":5,
						"TEXCOORD_0":6
					},
					"indices":7,
					"material":1
				},
				{
					"attributes":{
						"POSITION":8,
						"NORMAL":9,
						"TEXCOORD_0":10
					},
					"indices":11,
					"material":2
				}
			]
		},
		{
			"name":"Plane.003",
			"primitives":[
				{
					"attributes":{
						"POSITION":12,
						"NORMAL":13,
						"TEXCOORD_0":14
					},
					"indices":15
				}
			]
		}
	],
	"textures":[
		{
			"sampler":0,
			"source":0
		},
		{
			"sampler":0,
			"source":0
		},
		{
			"sampler":0,
			"source":0
		},
		{
			"sampler":0,
			"source":0
		}
	],
	"images":[
		{
			"mimeType":"image/png",
			"name":"obj_hands",
			"uri":"textures/obj_hands.png"
		}
	],
	"accessors":[
		{
			"bufferView":0,
			"componentType":5126,
			"count":485,
			"max":[
				0.18763206899166107,
				2.5713870525360107,
				1.4511890411376953
			],
			"min":[
				-0.1876317411661148,
				-0.0019941688515245914,
				-0.4403088092803955
			],
			"type":"VEC3"
		},
		{
			"bufferView":1,
			"componentType":5126,
			"count":485,
			"type":"VEC3"
		},
		{
			"bufferView":2,
			"componentType":5126,
			"count":485,
			"type":"VEC2"
		},
		{
			"bufferView":3,
			"componentType":5123,
			"count":1326,
			"type":"SCALAR"
		},
		{
			"bufferView":4,
			"componentType":5126,
			"count":198,
			"max":[
				0.18731647729873657,
				2.633840322494507,
				1.5064659118652344
			],
			"min":[
				-0.1873161494731903,
				-0.0011819831561297178,
				-0.4403088092803955
			],
			"type":"VEC3"
		},
		{
			"bufferView":5,
			"componentType":5126,
			"count":198,
			"type":"VEC3"
		},
		{
			"bufferView":6,
			"componentType":5126,
			"count":198,
			"type":"VEC2"
		},
		{
			"bufferView":7,
			"componentType":5123,
			"count":576,
			"type":"SCALAR"
		},
		{
			"bufferView":8,
			"componentType":5126,
			"count":6,
			"max":[
				0.15991754829883575,
				0.5576604604721069,
				-0.30406826734542847
			],
			"min":[
				-0.1599172204732895,
				0.06234467402100563,
				-0.4305199384689331
			],
			"type":"VEC3"
		},
		{
			"bufferView":9,
			"componentType":5126,
			"count":6,
			"type":"VEC3"
		},
		{
			"bufferView":10,
			"componentType":5126,
			"count":6,
			"type":"VEC2"
		},
		{
			"bufferView":11,
			"componentType":5123,
			"count":12,
			"type":"SCALAR"
		},
		{
			"bufferView":12,
			"componentType":5126,
			"count":102,
			"max":[
				0.1925472915172577,
				2.6906771659851074,
				1.5597684383392334
			],
			"min":[
				-0.19305135309696198,
				5.35469357743068e-09,
				-0.44077539443969727
			],
			"type":"VEC3"
		},
		{
			"bufferView":13,
			"componentType":5126,
			"count":102,
			"type":"VEC3"
		},
		{
			"bufferView":14,
			"componentType":5126,
			"count":102,
			"type":"VEC2"
		},
		{
			"bufferView":15,
			"componentType":5123,
			"count":252,
			"type":"SCALAR"
		}
	],
	"bufferViews":[
		{
			"buffer":0,
			"byteLength":5820,
			"byteOffset":0,
			"target":34962
		},
		{
			"buffer":0,
			"byteLength":5820,
			"byteOffset":5820,
			"target":34962
		},
		{
			"buffer":0,
			"byteLength":3880,
			"byteOffset":11640,
			"target":34962
		},
		{
			"buffer":0,
			"byteLength":2652,
			"byteOffset":15520,
			"target":34963
		},
		{
			"buffer":0,
			"byteLength":2376,
			"byteOffset":18172,
			"target":34962
		},
		{
			"buffer":0,
			"byteLength":2376,
			"byteOffset":20548,
			"target":34962
		},
		{
			"buffer":0,
			"byteLength":1584,
			"byteOffset":22924,
			"target":34962
		},
		{
			"buffer":0,
			"byteLength":1152,
			"byteOffset":24508,
			"target":34963
		},
		{
			"buffer":0,
			"byteLength":72,
			"byteOffset":25660,
			"target":34962
		},
		{
			"buffer":0,
			"byteLength":72,
			"byteOffset":25732,
			"target":34962
		},
		{
			"buffer":0,
			"byteLength":48,
			"byteOffset":25804,
			"target":34962
		},
		{
			"buffer":0,
			"byteLength":24,
			"byteOffset":25852,
			"target":34963
		},
		{
			"buffer":0,
			"byteLength":1224,
			"byteOffset":25876,
			"target":34962
		},
		{
			"buffer":0,
			"byteLength":1224,
			"byteOffset":27100,
			"target":34962
		},
		{
			"buffer":0,
			"byteLength":816,
			"byteOffset":28324,
			"target":34962
		},
		{
			"buffer":0,
			"byteLength":504,
			"byteOffset":29140,
			"target":34963
		}
	],
	"samplers":[
		{
			"magFilter":9729,
			"minFilter":9987
		}
	],
	"buffers":[
		{
			"byteLength":29644,
			"uri":"obj_hand01.bin"
		}
	]
}
