{
	"asset":{
		"generator":"Khronos glTF Blender I/O v4.1.63",
		"version":"2.0"
	},
	"extensionsUsed":[
		"KHR_materials_specular",
		"KHR_materials_ior"
	],
	"scene":0,
	"scenes":[
		{
			"name":"Scene",
			"nodes":[
				0,
				1
			]
		}
	],
	"nodes":[
		{
			"mesh":0,
			"name":"obj_bridge_collider"
		},
		{
			"mesh":1,
			"name":"obj_bridge"
		}
	],
	"materials":[
		{
			"emissiveFactor":[
				1,
				1,
				1
			],
			"emissiveTexture":{
				"index":0
			},
			"extensions":{
				"KHR_materials_specular":{
					"specularFactor":0
				},
				"KHR_materials_ior":{
					"ior":1.4500000476837158
				}
			},
			"name":"obj_bridge",
			"pbrMetallicRoughness":{
				"baseColorTexture":{
					"index":1
				},
				"metallicFactor":0
			}
		}
	],
	"meshes":[
		{
			"name":"Mesh.194",
			"primitives":[
				{
					"attributes":{
						"POSITION":0,
						"NORMAL":1,
						"TEXCOORD_0":2
					},
					"indices":3
				}
			]
		},
		{
			"name":"Mesh.195",
			"primitives":[
				{
					"attributes":{
						"POSITION":4,
						"NORMAL":5,
						"TEXCOORD_0":6
					},
					"indices":7,
					"material":0
				}
			]
		}
	],
	"textures":[
		{
			"sampler":0,
			"source":0
		},
		{
			"sampler":0,
			"source":1
		}
	],
	"images":[
		{
			"mimeType":"image/png",
			"name":"obj_bridge_emission",
			"uri":"textures/obj_bridge_emission.png"
		},
		{
			"mimeType":"image/png",
			"name":"obj_bridge",
			"uri":"textures/obj_bridge.png"
		}
	],
	"accessors":[
		{
			"bufferView":0,
			"componentType":5126,
			"count":243,
			"max":[
				2.6983180046081543,
				2.08127498626709,
				0.911730170249939
			],
			"min":[
				-2.6958682537078857,
				0.0003638267517089844,
				-0.9117300510406494
			],
			"type":"VEC3"
		},
		{
			"bufferView":1,
			"componentType":5126,
			"count":243,
			"type":"VEC3"
		},
		{
			"bufferView":2,
			"componentType":5126,
			"count":243,
			"type":"VEC2"
		},
		{
			"bufferView":3,
			"componentType":5123,
			"count":522,
			"type":"SCALAR"
		},
		{
			"bufferView":4,
			"componentType":5126,
			"count":2789,
			"max":[
				2.6983184814453125,
				1.964076042175293,
				0.911730170249939
			],
			"min":[
				-2.695868492126465,
				0,
				-0.9117299914360046
			],
			"type":"VEC3"
		},
		{
			"bufferView":5,
			"componentType":5126,
			"count":2789,
			"type":"VEC3"
		},
		{
			"bufferView":6,
			"componentType":5126,
			"count":2789,
			"type":"VEC2"
		},
		{
			"bufferView":7,
			"componentType":5123,
			"count":8694,
			"type":"SCALAR"
		}
	],
	"bufferViews":[
		{
			"buffer":0,
			"byteLength":2916,
			"byteOffset":0,
			"target":34962
		},
		{
			"buffer":0,
			"byteLength":2916,
			"byteOffset":2916,
			"target":34962
		},
		{
			"buffer":0,
			"byteLength":1944,
			"byteOffset":5832,
			"target":34962
		},
		{
			"buffer":0,
			"byteLength":1044,
			"byteOffset":7776,
			"target":34963
		},
		{
			"buffer":0,
			"byteLength":33468,
			"byteOffset":8820,
			"target":34962
		},
		{
			"buffer":0,
			"byteLength":33468,
			"byteOffset":42288,
			"target":34962
		},
		{
			"buffer":0,
			"byteLength":22312,
			"byteOffset":75756,
			"target":34962
		},
		{
			"buffer":0,
			"byteLength":17388,
			"byteOffset":98068,
			"target":34963
		}
	],
	"samplers":[
		{
			"magFilter":9729,
			"minFilter":9987
		}
	],
	"buffers":[
		{
			"byteLength":115456,
			"uri":"obj_bridge.bin"
		}
	]
}
