{
	"asset":{
		"generator":"Khronos glTF Blender I/O v4.3.47",
		"version":"2.0"
	},
	"extensionsUsed":[
		"KHR_materials_clearcoat",
		"KHR_materials_specular"
	],
	"scene":0,
	"scenes":[
		{
			"name":"Scene",
			"nodes":[
				0,
				1
			]
		}
	],
	"nodes":[
		{
			"mesh":0,
			"name":"obj_transmitter"
		},
		{
			"mesh":1,
			"name":"obj_transmitter_collider"
		}
	],
	"materials":[
		{
			"emissiveFactor":[
				0.10000000149011612,
				0.10000000149011612,
				0.10000000149011612
			],
			"emissiveTexture":{
				"index":0
			},
			"extensions":{
				"KHR_materials_specular":{
					"specularFactor":0
				}
			},
			"name":"obj_transmitter",
			"pbrMetallicRoughness":{
				"baseColorTexture":{
					"index":1
				},
				"metallicFactor":0
			}
		},
		{
			"doubleSided":true,
			"emissiveFactor":[
				0.26229405403137207,
				0.5646868348121643,
				0.921515166759491
			],
			"extensions":{
				"KHR_materials_specular":{
					"specularFactor":0
				}
			},
			"name":"obj_global_emission01",
			"pbrMetallicRoughness":{
				"baseColorFactor":[
					0.2617267668247223,
					0.566400408744812,
					0.9218639135360718,
					1
				],
				"metallicFactor":0
			}
		},
		{
			"doubleSided":true,
			"emissiveFactor":[
				0.9215658903121948,
				0.7304738759994507,
				0.16513018310070038
			],
			"extensions":{
				"KHR_materials_specular":{
					"specularFactor":0
				}
			},
			"name":"obj_global_emission02",
			"pbrMetallicRoughness":{
				"baseColorFactor":[
					0.9203937649726868,
					0.7313708662986755,
					0.1655372530221939,
					1
				],
				"metallicFactor":0
			}
		},
		{
			"emissiveFactor":[
				1,
				1,
				1
			],
			"emissiveTexture":{
				"index":2
			},
			"extensions":{
				"KHR_materials_clearcoat":{
					"clearcoatRoughnessFactor":0
				},
				"KHR_materials_specular":{
					"specularFactor":0
				}
			},
			"name":"obj_bush01",
			"pbrMetallicRoughness":{
				"baseColorTexture":{
					"index":3
				},
				"metallicFactor":0
			}
		}
	],
	"meshes":[
		{
			"name":"obj_transmitter",
			"primitives":[
				{
					"attributes":{
						"POSITION":0,
						"NORMAL":1,
						"TEXCOORD_0":2
					},
					"indices":3,
					"material":0
				},
				{
					"attributes":{
						"POSITION":4,
						"NORMAL":5,
						"TEXCOORD_0":6
					},
					"indices":7,
					"material":1
				},
				{
					"attributes":{
						"POSITION":8,
						"NORMAL":9,
						"TEXCOORD_0":10
					},
					"indices":11,
					"material":2
				},
				{
					"attributes":{
						"POSITION":12,
						"NORMAL":13,
						"TEXCOORD_0":14
					},
					"indices":15,
					"material":3
				}
			]
		},
		{
			"name":"obj_transmitter_collider",
			"primitives":[
				{
					"attributes":{
						"POSITION":16,
						"NORMAL":17,
						"TEXCOORD_0":18
					},
					"indices":19
				}
			]
		}
	],
	"textures":[
		{
			"sampler":0,
			"source":0
		},
		{
			"sampler":0,
			"source":0
		},
		{
			"sampler":0,
			"source":1
		},
		{
			"sampler":0,
			"source":2
		}
	],
	"images":[
		{
			"mimeType":"image/png",
			"name":"obj_transmitter",
			"uri":"textures/obj_transmitter.png"
		},
		{
			"mimeType":"image/png",
			"name":"obj_bush01_emission",
			"uri":"textures/obj_bush01_emission.png"
		},
		{
			"mimeType":"image/png",
			"name":"obj_bush01",
			"uri":"textures/obj_bush01.png"
		}
	],
	"accessors":[
		{
			"bufferView":0,
			"componentType":5126,
			"count":16786,
			"max":[
				50.378028869628906,
				2.2258381843566895,
				-4.639057159423828
			],
			"min":[
				-2.0787925720214844,
				0.3101103901863098,
				-56.92008972167969
			],
			"type":"VEC3"
		},
		{
			"bufferView":1,
			"componentType":5126,
			"count":16786,
			"type":"VEC3"
		},
		{
			"bufferView":2,
			"componentType":5126,
			"count":16786,
			"type":"VEC2"
		},
		{
			"bufferView":3,
			"componentType":5123,
			"count":52164,
			"type":"SCALAR"
		},
		{
			"bufferView":4,
			"componentType":5126,
			"count":1190,
			"max":[
				50.25445556640625,
				1.8851957321166992,
				-4.765164852142334
			],
			"min":[
				-2.0146636962890625,
				1.3074636459350586,
				-56.853172302246094
			],
			"type":"VEC3"
		},
		{
			"bufferView":5,
			"componentType":5126,
			"count":1190,
			"type":"VEC3"
		},
		{
			"bufferView":6,
			"componentType":5126,
			"count":1190,
			"type":"VEC2"
		},
		{
			"bufferView":7,
			"componentType":5123,
			"count":2856,
			"type":"SCALAR"
		},
		{
			"bufferView":8,
			"componentType":5126,
			"count":402,
			"max":[
				-12.172468185424805,
				0.849678099155426,
				-10.720908164978027
			],
			"min":[
				-37.94477844238281,
				0.3798219561576843,
				-45.966522216796875
			],
			"type":"VEC3"
		},
		{
			"bufferView":9,
			"componentType":5126,
			"count":402,
			"type":"VEC3"
		},
		{
			"bufferView":10,
			"componentType":5126,
			"count":402,
			"type":"VEC2"
		},
		{
			"bufferView":11,
			"componentType":5123,
			"count":1080,
			"type":"SCALAR"
		},
		{
			"bufferView":12,
			"componentType":5126,
			"count":306,
			"max":[
				-12.172468185424805,
				0.5311520099639893,
				-10.720908164978027
			],
			"min":[
				-37.94477844238281,
				0.30000001192092896,
				-45.966522216796875
			],
			"type":"VEC3"
		},
		{
			"bufferView":13,
			"componentType":5126,
			"count":306,
			"type":"VEC3"
		},
		{
			"bufferView":14,
			"componentType":5126,
			"count":306,
			"type":"VEC2"
		},
		{
			"bufferView":15,
			"componentType":5123,
			"count":864,
			"type":"SCALAR"
		},
		{
			"bufferView":16,
			"componentType":5126,
			"count":969,
			"max":[
				50.38331985473633,
				2.2592263221740723,
				-4.633488655090332
			],
			"min":[
				-37.956417083740234,
				0.30000007152557373,
				-56.980018615722656
			],
			"type":"VEC3"
		},
		{
			"bufferView":17,
			"componentType":5126,
			"count":969,
			"type":"VEC3"
		},
		{
			"bufferView":18,
			"componentType":5126,
			"count":969,
			"type":"VEC2"
		},
		{
			"bufferView":19,
			"componentType":5123,
			"count":4764,
			"type":"SCALAR"
		}
	],
	"bufferViews":[
		{
			"buffer":0,
			"byteLength":201432,
			"byteOffset":0,
			"target":34962
		},
		{
			"buffer":0,
			"byteLength":201432,
			"byteOffset":201432,
			"target":34962
		},
		{
			"buffer":0,
			"byteLength":134288,
			"byteOffset":402864,
			"target":34962
		},
		{
			"buffer":0,
			"byteLength":104328,
			"byteOffset":537152,
			"target":34963
		},
		{
			"buffer":0,
			"byteLength":14280,
			"byteOffset":641480,
			"target":34962
		},
		{
			"buffer":0,
			"byteLength":14280,
			"byteOffset":655760,
			"target":34962
		},
		{
			"buffer":0,
			"byteLength":9520,
			"byteOffset":670040,
			"target":34962
		},
		{
			"buffer":0,
			"byteLength":5712,
			"byteOffset":679560,
			"target":34963
		},
		{
			"buffer":0,
			"byteLength":4824,
			"byteOffset":685272,
			"target":34962
		},
		{
			"buffer":0,
			"byteLength":4824,
			"byteOffset":690096,
			"target":34962
		},
		{
			"buffer":0,
			"byteLength":3216,
			"byteOffset":694920,
			"target":34962
		},
		{
			"buffer":0,
			"byteLength":2160,
			"byteOffset":698136,
			"target":34963
		},
		{
			"buffer":0,
			"byteLength":3672,
			"byteOffset":700296,
			"target":34962
		},
		{
			"buffer":0,
			"byteLength":3672,
			"byteOffset":703968,
			"target":34962
		},
		{
			"buffer":0,
			"byteLength":2448,
			"byteOffset":707640,
			"target":34962
		},
		{
			"buffer":0,
			"byteLength":1728,
			"byteOffset":710088,
			"target":34963
		},
		{
			"buffer":0,
			"byteLength":11628,
			"byteOffset":711816,
			"target":34962
		},
		{
			"buffer":0,
			"byteLength":11628,
			"byteOffset":723444,
			"target":34962
		},
		{
			"buffer":0,
			"byteLength":7752,
			"byteOffset":735072,
			"target":34962
		},
		{
			"buffer":0,
			"byteLength":9528,
			"byteOffset":742824,
			"target":34963
		}
	],
	"samplers":[
		{
			"magFilter":9729,
			"minFilter":9987
		}
	],
	"buffers":[
		{
			"byteLength":752352,
			"uri":"obj_transmitter.bin"
		}
	]
}
