{
	"asset":{
		"generator":"Khronos glTF Blender I/O v4.3.47",
		"version":"2.0"
	},
	"extensionsUsed":[
		"KHR_materials_clearcoat",
		"KHR_materials_specular"
	],
	"scene":0,
	"scenes":[
		{
			"name":"Scene",
			"nodes":[
				0,
				1
			]
		}
	],
	"nodes":[
		{
			"mesh":0,
			"name":"obj_stone"
		},
		{
			"mesh":1,
			"name":"obj_stone_collider"
		}
	],
	"materials":[
		{
			"emissiveFactor":[
				0.15000000596046448,
				0.15000000596046448,
				0.15000000596046448
			],
			"emissiveTexture":{
				"index":0
			},
			"extensions":{
				"KHR_materials_clearcoat":{
					"clearcoatRoughnessFactor":0
				},
				"KHR_materials_specular":{
					"specularFactor":0
				}
			},
			"name":"obj_stone03",
			"pbrMetallicRoughness":{
				"baseColorTexture":{
					"index":1
				},
				"metallicFactor":0
			}
		},
		{
			"emissiveFactor":[
				0.10000000149011612,
				0.10000000149011612,
				0.10000000149011612
			],
			"emissiveTexture":{
				"index":2
			},
			"extensions":{
				"KHR_materials_specular":{
					"specularFactor":0
				}
			},
			"name":"obj_stone02",
			"pbrMetallicRoughness":{
				"baseColorTexture":{
					"index":3
				},
				"metallicFactor":0
			}
		},
		{
			"emissiveFactor":[
				0.10000000149011612,
				0.10000000149011612,
				0.10000000149011612
			],
			"emissiveTexture":{
				"index":4
			},
			"extensions":{
				"KHR_materials_specular":{
					"specularFactor":0
				}
			},
			"name":"obj_stone01",
			"pbrMetallicRoughness":{
				"baseColorTexture":{
					"index":5
				},
				"metallicFactor":0
			}
		}
	],
	"meshes":[
		{
			"name":"obj_stone",
			"primitives":[
				{
					"attributes":{
						"POSITION":0,
						"NORMAL":1,
						"TEXCOORD_0":2
					},
					"indices":3,
					"material":0
				},
				{
					"attributes":{
						"POSITION":4,
						"NORMAL":5,
						"TEXCOORD_0":6
					},
					"indices":7,
					"material":1
				},
				{
					"attributes":{
						"POSITION":8,
						"NORMAL":9,
						"TEXCOORD_0":10
					},
					"indices":11,
					"material":2
				}
			]
		},
		{
			"name":"obj_stone_collider",
			"primitives":[
				{
					"attributes":{
						"POSITION":12,
						"NORMAL":13,
						"TEXCOORD_0":14
					},
					"indices":15
				}
			]
		}
	],
	"textures":[
		{
			"sampler":0,
			"source":0
		},
		{
			"sampler":0,
			"source":0
		},
		{
			"sampler":0,
			"source":1
		},
		{
			"sampler":0,
			"source":1
		},
		{
			"sampler":0,
			"source":2
		},
		{
			"sampler":0,
			"source":2
		}
	],
	"images":[
		{
			"mimeType":"image/png",
			"name":"obj_stone03",
			"uri":"textures/obj_stone03.png"
		},
		{
			"mimeType":"image/png",
			"name":"obj_stone02",
			"uri":"textures/obj_stone02.png"
		},
		{
			"mimeType":"image/png",
			"name":"obj_stone01",
			"uri":"textures/obj_stone01.png"
		}
	],
	"accessors":[
		{
			"bufferView":0,
			"componentType":5126,
			"count":6534,
			"max":[
				-6.591704368591309,
				2.316603422164917,
				-5.227903366088867
			],
			"min":[
				-49.775390625,
				-0.073280930519104,
				-57.86309051513672
			],
			"type":"VEC3"
		},
		{
			"bufferView":1,
			"componentType":5126,
			"count":6534,
			"type":"VEC3"
		},
		{
			"bufferView":2,
			"componentType":5126,
			"count":6534,
			"type":"VEC2"
		},
		{
			"bufferView":3,
			"componentType":5123,
			"count":27378,
			"type":"SCALAR"
		},
		{
			"bufferView":4,
			"componentType":5126,
			"count":20865,
			"max":[
				42.16963577270508,
				0.8073034882545471,
				43.59736633300781
			],
			"min":[
				5.8260650634765625,
				-0.07973206788301468,
				-0.4706153869628906
			],
			"type":"VEC3"
		},
		{
			"bufferView":5,
			"componentType":5126,
			"count":20865,
			"type":"VEC3"
		},
		{
			"bufferView":6,
			"componentType":5126,
			"count":20865,
			"type":"VEC2"
		},
		{
			"bufferView":7,
			"componentType":5123,
			"count":59670,
			"type":"SCALAR"
		},
		{
			"bufferView":8,
			"componentType":5126,
			"count":23685,
			"max":[
				42.088871002197266,
				0.9652876257896423,
				43.90773010253906
			],
			"min":[
				5.90120792388916,
				-0.11146815121173859,
				-0.5091476440429688
			],
			"type":"VEC3"
		},
		{
			"bufferView":9,
			"componentType":5126,
			"count":23685,
			"type":"VEC3"
		},
		{
			"bufferView":10,
			"componentType":5126,
			"count":23685,
			"type":"VEC2"
		},
		{
			"bufferView":11,
			"componentType":5123,
			"count":61686,
			"type":"SCALAR"
		},
		{
			"bufferView":12,
			"componentType":5126,
			"count":33201,
			"max":[
				42.16963577270508,
				2.316603422164917,
				43.90346908569336
			],
			"min":[
				-49.775390625,
				-0.1355196088552475,
				-57.86309051513672
			],
			"type":"VEC3"
		},
		{
			"bufferView":13,
			"componentType":5126,
			"count":33201,
			"type":"VEC3"
		},
		{
			"bufferView":14,
			"componentType":5126,
			"count":33201,
			"type":"VEC2"
		},
		{
			"bufferView":15,
			"componentType":5123,
			"count":86940,
			"type":"SCALAR"
		}
	],
	"bufferViews":[
		{
			"buffer":0,
			"byteLength":78408,
			"byteOffset":0,
			"target":34962
		},
		{
			"buffer":0,
			"byteLength":78408,
			"byteOffset":78408,
			"target":34962
		},
		{
			"buffer":0,
			"byteLength":52272,
			"byteOffset":156816,
			"target":34962
		},
		{
			"buffer":0,
			"byteLength":54756,
			"byteOffset":209088,
			"target":34963
		},
		{
			"buffer":0,
			"byteLength":250380,
			"byteOffset":263844,
			"target":34962
		},
		{
			"buffer":0,
			"byteLength":250380,
			"byteOffset":514224,
			"target":34962
		},
		{
			"buffer":0,
			"byteLength":166920,
			"byteOffset":764604,
			"target":34962
		},
		{
			"buffer":0,
			"byteLength":119340,
			"byteOffset":931524,
			"target":34963
		},
		{
			"buffer":0,
			"byteLength":284220,
			"byteOffset":1050864,
			"target":34962
		},
		{
			"buffer":0,
			"byteLength":284220,
			"byteOffset":1335084,
			"target":34962
		},
		{
			"buffer":0,
			"byteLength":189480,
			"byteOffset":1619304,
			"target":34962
		},
		{
			"buffer":0,
			"byteLength":123372,
			"byteOffset":1808784,
			"target":34963
		},
		{
			"buffer":0,
			"byteLength":398412,
			"byteOffset":1932156,
			"target":34962
		},
		{
			"buffer":0,
			"byteLength":398412,
			"byteOffset":2330568,
			"target":34962
		},
		{
			"buffer":0,
			"byteLength":265608,
			"byteOffset":2728980,
			"target":34962
		},
		{
			"buffer":0,
			"byteLength":173880,
			"byteOffset":2994588,
			"target":34963
		}
	],
	"samplers":[
		{
			"magFilter":9729,
			"minFilter":9987
		}
	],
	"buffers":[
		{
			"byteLength":3168468,
			"uri":"obj_stone.bin"
		}
	]
}
