{
	"asset":{
		"generator":"Khronos glTF Blender I/O v4.1.63",
		"version":"2.0"
	},
	"extensionsUsed":[
		"KHR_materials_specular",
		"KHR_materials_ior"
	],
	"scene":0,
	"scenes":[
		{
			"name":"Scene",
			"nodes":[
				0,
				1
			]
		}
	],
	"nodes":[
		{
			"mesh":0,
			"name":"obj_floor02"
		},
		{
			"mesh":1,
			"name":"obj_floor02_collider"
		}
	],
	"materials":[
		{
			"emissiveFactor":[
				0.26229405403137207,
				0.5646868348121643,
				0.921515166759491
			],
			"extensions":{
				"KHR_materials_specular":{
					"specularFactor":0
				},
				"KHR_materials_ior":{
					"ior":1.4500000476837158
				}
			},
			"name":"obj_global_emission01",
			"pbrMetallicRoughness":{
				"baseColorFactor":[
					0.2617267668247223,
					0.566400408744812,
					0.9218639135360718,
					1
				],
				"metallicFactor":0
			}
		},
		{
			"emissiveFactor":[
				0.08500204809013079,
				0.09007176891076218,
				0.10000240951780093
			],
			"emissiveTexture":{
				"index":0
			},
			"extensions":{
				"KHR_materials_specular":{
					"specularFactor":0
				},
				"KHR_materials_ior":{
					"ior":1.4500000476837158
				}
			},
			"name":"obj_fountain01",
			"pbrMetallicRoughness":{
				"baseColorFactor":[
					0.8500204682350159,
					0.9007176756858826,
					1,
					1
				],
				"baseColorTexture":{
					"index":1
				},
				"metallicFactor":0
			}
		},
		{
			"emissiveFactor":[
				1,
				1,
				1
			],
			"emissiveTexture":{
				"index":2
			},
			"extensions":{
				"KHR_materials_specular":{
					"specularFactor":0
				},
				"KHR_materials_ior":{
					"ior":1.4500000476837158
				}
			},
			"name":"obj_pavilion01_06",
			"pbrMetallicRoughness":{
				"baseColorTexture":{
					"index":3
				},
				"metallicFactor":0
			}
		}
	],
	"meshes":[
		{
			"name":"Cylinder.002",
			"primitives":[
				{
					"attributes":{
						"POSITION":0,
						"NORMAL":1,
						"TEXCOORD_0":2
					},
					"indices":3,
					"material":0
				},
				{
					"attributes":{
						"POSITION":4,
						"NORMAL":5,
						"TEXCOORD_0":6
					},
					"indices":7,
					"material":1
				},
				{
					"attributes":{
						"POSITION":8,
						"NORMAL":9,
						"TEXCOORD_0":10
					},
					"indices":11,
					"material":2
				}
			]
		},
		{
			"name":"Cylinder.003",
			"primitives":[
				{
					"attributes":{
						"POSITION":12,
						"NORMAL":13,
						"TEXCOORD_0":14,
						"COLOR_0":15
					},
					"indices":16
				}
			]
		}
	],
	"textures":[
		{
			"sampler":0,
			"source":0
		},
		{
			"sampler":0,
			"source":0
		},
		{
			"sampler":0,
			"source":1
		},
		{
			"sampler":0,
			"source":2
		}
	],
	"images":[
		{
			"mimeType":"image/png",
			"name":"obj_fountain01",
			"uri":"textures/obj_fountain01.png"
		},
		{
			"mimeType":"image/png",
			"name":"obj_pavilion01_06_emission",
			"uri":"textures/obj_pavilion01_06_emission.png"
		},
		{
			"mimeType":"image/png",
			"name":"obj_pavilion01_06",
			"uri":"textures/obj_pavilion01_06.png"
		}
	],
	"accessors":[
		{
			"bufferView":0,
			"componentType":5126,
			"count":104,
			"max":[
				7.543612003326416,
				0.15000000596046448,
				7.543974876403809
			],
			"min":[
				-7.5436859130859375,
				0.11498229205608368,
				-7.543323516845703
			],
			"type":"VEC3"
		},
		{
			"bufferView":1,
			"componentType":5126,
			"count":104,
			"type":"VEC3"
		},
		{
			"bufferView":2,
			"componentType":5126,
			"count":104,
			"type":"VEC2"
		},
		{
			"bufferView":3,
			"componentType":5123,
			"count":192,
			"type":"SCALAR"
		},
		{
			"bufferView":4,
			"componentType":5126,
			"count":248,
			"max":[
				7.543612003326416,
				0.15000000596046448,
				7.543974876403809
			],
			"min":[
				-7.5436859130859375,
				-2.428889274597168e-06,
				-7.543323516845703
			],
			"type":"VEC3"
		},
		{
			"bufferView":5,
			"componentType":5126,
			"count":248,
			"type":"VEC3"
		},
		{
			"bufferView":6,
			"componentType":5126,
			"count":248,
			"type":"VEC2"
		},
		{
			"bufferView":7,
			"componentType":5123,
			"count":768,
			"type":"SCALAR"
		},
		{
			"bufferView":8,
			"componentType":5126,
			"count":321,
			"max":[
				4.28635835647583,
				0.30000051856040955,
				4.28671932220459
			],
			"min":[
				-4.286431312561035,
				0.15000000596046448,
				-4.286067962646484
			],
			"type":"VEC3"
		},
		{
			"bufferView":9,
			"componentType":5126,
			"count":321,
			"type":"VEC3"
		},
		{
			"bufferView":10,
			"componentType":5126,
			"count":321,
			"type":"VEC2"
		},
		{
			"bufferView":11,
			"componentType":5123,
			"count":1056,
			"type":"SCALAR"
		},
		{
			"bufferView":12,
			"componentType":5126,
			"count":169,
			"max":[
				7.543612003326416,
				0.3537379205226898,
				7.543974876403809
			],
			"min":[
				-7.5436859130859375,
				-2.3692846298217773e-06,
				-7.543323516845703
			],
			"type":"VEC3"
		},
		{
			"bufferView":13,
			"componentType":5126,
			"count":169,
			"type":"VEC3"
		},
		{
			"bufferView":14,
			"componentType":5126,
			"count":169,
			"type":"VEC2"
		},
		{
			"bufferView":15,
			"componentType":5126,
			"count":169,
			"type":"VEC3"
		},
		{
			"bufferView":16,
			"componentType":5123,
			"count":357,
			"type":"SCALAR"
		}
	],
	"bufferViews":[
		{
			"buffer":0,
			"byteLength":1248,
			"byteOffset":0,
			"target":34962
		},
		{
			"buffer":0,
			"byteLength":1248,
			"byteOffset":1248,
			"target":34962
		},
		{
			"buffer":0,
			"byteLength":832,
			"byteOffset":2496,
			"target":34962
		},
		{
			"buffer":0,
			"byteLength":384,
			"byteOffset":3328,
			"target":34963
		},
		{
			"buffer":0,
			"byteLength":2976,
			"byteOffset":3712,
			"target":34962
		},
		{
			"buffer":0,
			"byteLength":2976,
			"byteOffset":6688,
			"target":34962
		},
		{
			"buffer":0,
			"byteLength":1984,
			"byteOffset":9664,
			"target":34962
		},
		{
			"buffer":0,
			"byteLength":1536,
			"byteOffset":11648,
			"target":34963
		},
		{
			"buffer":0,
			"byteLength":3852,
			"byteOffset":13184,
			"target":34962
		},
		{
			"buffer":0,
			"byteLength":3852,
			"byteOffset":17036,
			"target":34962
		},
		{
			"buffer":0,
			"byteLength":2568,
			"byteOffset":20888,
			"target":34962
		},
		{
			"buffer":0,
			"byteLength":2112,
			"byteOffset":23456,
			"target":34963
		},
		{
			"buffer":0,
			"byteLength":2028,
			"byteOffset":25568,
			"target":34962
		},
		{
			"buffer":0,
			"byteLength":2028,
			"byteOffset":27596,
			"target":34962
		},
		{
			"buffer":0,
			"byteLength":1352,
			"byteOffset":29624,
			"target":34962
		},
		{
			"buffer":0,
			"byteLength":2028,
			"byteOffset":30976,
			"target":34962
		},
		{
			"buffer":0,
			"byteLength":714,
			"byteOffset":33004,
			"target":34963
		}
	],
	"samplers":[
		{
			"magFilter":9729,
			"minFilter":9987
		}
	],
	"buffers":[
		{
			"byteLength":33720,
			"uri":"obj_floor02.bin"
		}
	]
}
