{
	"asset":{
		"generator":"Khronos glTF Blender I/O v4.1.63",
		"version":"2.0"
	},
	"extensionsUsed":[
		"KHR_materials_specular",
		"KHR_materials_ior"
	],
	"scene":0,
	"scenes":[
		{
			"name":"Scene",
			"nodes":[
				0,
				1
			]
		}
	],
	"nodes":[
		{
			"mesh":0,
			"name":"obj_lab02"
		},
		{
			"mesh":1,
			"name":"obj_lab02_collider"
		}
	],
	"materials":[
		{
			"emissiveFactor":[
				1,
				1,
				1
			],
			"emissiveTexture":{
				"index":0
			},
			"extensions":{
				"KHR_materials_specular":{
					"specularFactor":0
				},
				"KHR_materials_ior":{
					"ior":1.4500000476837158
				}
			},
			"name":"obj_lab02_01",
			"pbrMetallicRoughness":{
				"baseColorTexture":{
					"index":1
				},
				"metallicFactor":0
			}
		},
		{
			"emissiveFactor":[
				1,
				1,
				1
			],
			"emissiveTexture":{
				"index":2
			},
			"extensions":{
				"KHR_materials_specular":{
					"specularFactor":0
				},
				"KHR_materials_ior":{
					"ior":1.4500000476837158
				}
			},
			"name":"obj_lab02_02",
			"pbrMetallicRoughness":{
				"baseColorTexture":{
					"index":3
				},
				"metallicFactor":0
			}
		}
	],
	"meshes":[
		{
			"name":"Mesh.011",
			"primitives":[
				{
					"attributes":{
						"POSITION":0,
						"NORMAL":1,
						"TEXCOORD_0":2
					},
					"indices":3,
					"material":0
				},
				{
					"attributes":{
						"POSITION":4,
						"NORMAL":5,
						"TEXCOORD_0":6
					},
					"indices":7,
					"material":1
				}
			]
		},
		{
			"name":"Mesh.010",
			"primitives":[
				{
					"attributes":{
						"POSITION":8,
						"NORMAL":9,
						"TEXCOORD_0":10
					},
					"indices":11
				}
			]
		}
	],
	"textures":[
		{
			"sampler":0,
			"source":0
		},
		{
			"sampler":0,
			"source":1
		},
		{
			"sampler":0,
			"source":2
		},
		{
			"sampler":0,
			"source":3
		}
	],
	"images":[
		{
			"mimeType":"image/png",
			"name":"obj_lab02_01_emission",
			"uri":"textures/obj_lab02_01_emission.png"
		},
		{
			"mimeType":"image/png",
			"name":"obj_lab02_01",
			"uri":"textures/obj_lab02_01.png"
		},
		{
			"mimeType":"image/png",
			"name":"obj_lab02_02_emission",
			"uri":"textures/obj_lab02_02_emission.png"
		},
		{
			"mimeType":"image/png",
			"name":"obj_lab02_02",
			"uri":"textures/obj_lab02_02.png"
		}
	],
	"accessors":[
		{
			"bufferView":0,
			"componentType":5126,
			"count":4547,
			"max":[
				3.254683017730713,
				4.785754680633545,
				3.254683017730713
			],
			"min":[
				-3.254683017730713,
				-2.457216226048331e-07,
				-3.254683494567871
			],
			"type":"VEC3"
		},
		{
			"bufferView":1,
			"componentType":5126,
			"count":4547,
			"type":"VEC3"
		},
		{
			"bufferView":2,
			"componentType":5126,
			"count":4547,
			"type":"VEC2"
		},
		{
			"bufferView":3,
			"componentType":5123,
			"count":12738,
			"type":"SCALAR"
		},
		{
			"bufferView":4,
			"componentType":5126,
			"count":440,
			"max":[
				-1.4877657890319824,
				1.512184739112854,
				0.7906748056411743
			],
			"min":[
				-1.8120992183685303,
				0.6116799116134644,
				-0.8357089161872864
			],
			"type":"VEC3"
		},
		{
			"bufferView":5,
			"componentType":5126,
			"count":440,
			"type":"VEC3"
		},
		{
			"bufferView":6,
			"componentType":5126,
			"count":440,
			"type":"VEC2"
		},
		{
			"bufferView":7,
			"componentType":5123,
			"count":864,
			"type":"SCALAR"
		},
		{
			"bufferView":8,
			"componentType":5126,
			"count":475,
			"max":[
				3.254683017730713,
				4.785749912261963,
				3.254683017730713
			],
			"min":[
				-3.254683017730713,
				9.919961030391278e-08,
				-3.254683017730713
			],
			"type":"VEC3"
		},
		{
			"bufferView":9,
			"componentType":5126,
			"count":475,
			"type":"VEC3"
		},
		{
			"bufferView":10,
			"componentType":5126,
			"count":475,
			"type":"VEC2"
		},
		{
			"bufferView":11,
			"componentType":5123,
			"count":1452,
			"type":"SCALAR"
		}
	],
	"bufferViews":[
		{
			"buffer":0,
			"byteLength":54564,
			"byteOffset":0,
			"target":34962
		},
		{
			"buffer":0,
			"byteLength":54564,
			"byteOffset":54564,
			"target":34962
		},
		{
			"buffer":0,
			"byteLength":36376,
			"byteOffset":109128,
			"target":34962
		},
		{
			"buffer":0,
			"byteLength":25476,
			"byteOffset":145504,
			"target":34963
		},
		{
			"buffer":0,
			"byteLength":5280,
			"byteOffset":170980,
			"target":34962
		},
		{
			"buffer":0,
			"byteLength":5280,
			"byteOffset":176260,
			"target":34962
		},
		{
			"buffer":0,
			"byteLength":3520,
			"byteOffset":181540,
			"target":34962
		},
		{
			"buffer":0,
			"byteLength":1728,
			"byteOffset":185060,
			"target":34963
		},
		{
			"buffer":0,
			"byteLength":5700,
			"byteOffset":186788,
			"target":34962
		},
		{
			"buffer":0,
			"byteLength":5700,
			"byteOffset":192488,
			"target":34962
		},
		{
			"buffer":0,
			"byteLength":3800,
			"byteOffset":198188,
			"target":34962
		},
		{
			"buffer":0,
			"byteLength":2904,
			"byteOffset":201988,
			"target":34963
		}
	],
	"samplers":[
		{
			"magFilter":9729,
			"minFilter":9987
		}
	],
	"buffers":[
		{
			"byteLength":204892,
			"uri":"obj_lab02.bin"
		}
	]
}
