{
	"asset":{
		"generator":"Khronos glTF Blender I/O v4.3.47",
		"version":"2.0"
	},
	"extensionsUsed":[
		"KHR_materials_specular"
	],
	"scene":0,
	"scenes":[
		{
			"name":"Scene",
			"nodes":[
				0,
				1
			]
		}
	],
	"nodes":[
		{
			"mesh":0,
			"name":"obj_clock"
		},
		{
			"mesh":1,
			"name":"obj_clock_collider"
		}
	],
	"materials":[
		{
			"alphaMode":"BLEND",
			"doubleSided":true,
			"emissiveFactor":[
				0.6000000238418579,
				0.6000000238418579,
				0.6000000238418579
			],
			"emissiveTexture":{
				"index":0
			},
			"extensions":{
				"KHR_materials_specular":{
					"specularFactor":0
				}
			},
			"name":"obj_clock02",
			"pbrMetallicRoughness":{
				"baseColorFactor":[
					1,
					1,
					1,
					0.699999988079071
				],
				"baseColorTexture":{
					"index":1
				},
				"metallicFactor":0
			}
		},
		{
			"doubleSided":true,
			"emissiveFactor":[
				0.10000000149011612,
				0.10000000149011612,
				0.10000000149011612
			],
			"emissiveTexture":{
				"index":2
			},
			"extensions":{
				"KHR_materials_specular":{
					"specularFactor":0
				}
			},
			"name":"obj_clock01",
			"pbrMetallicRoughness":{
				"baseColorTexture":{
					"index":3
				},
				"metallicFactor":0
			}
		},
		{
			"doubleSided":true,
			"emissiveFactor":[
				0.26229405403137207,
				0.5646868348121643,
				0.921515166759491
			],
			"extensions":{
				"KHR_materials_specular":{
					"specularFactor":0
				}
			},
			"name":"obj_global_emission01",
			"pbrMetallicRoughness":{
				"baseColorFactor":[
					0.2617267668247223,
					0.566400408744812,
					0.9218639135360718,
					1
				],
				"metallicFactor":0
			}
		}
	],
	"meshes":[
		{
			"name":"obj_clock",
			"primitives":[
				{
					"attributes":{
						"POSITION":0,
						"NORMAL":1,
						"TEXCOORD_0":2
					},
					"indices":3,
					"material":0
				},
				{
					"attributes":{
						"POSITION":4,
						"NORMAL":5,
						"TEXCOORD_0":6
					},
					"indices":7,
					"material":1
				},
				{
					"attributes":{
						"POSITION":8,
						"NORMAL":9,
						"TEXCOORD_0":10
					},
					"indices":11,
					"material":2
				}
			]
		},
		{
			"name":"obj_clock_collider",
			"primitives":[
				{
					"attributes":{
						"POSITION":12,
						"NORMAL":13,
						"TEXCOORD_0":14
					},
					"indices":15
				}
			]
		}
	],
	"textures":[
		{
			"sampler":0,
			"source":0
		},
		{
			"sampler":0,
			"source":0
		},
		{
			"sampler":0,
			"source":1
		},
		{
			"sampler":0,
			"source":1
		}
	],
	"images":[
		{
			"mimeType":"image/png",
			"name":"obj_clock02",
			"uri":"textures/obj_clock02.png"
		},
		{
			"mimeType":"image/png",
			"name":"obj_clock01",
			"uri":"textures/obj_clock01.png"
		}
	],
	"accessors":[
		{
			"bufferView":0,
			"componentType":5126,
			"count":26,
			"max":[
				-6.68422794342041,
				19.418718338012695,
				-58.5794563293457
			],
			"min":[
				-15.393965721130371,
				17.846017837524414,
				-59.44938659667969
			],
			"type":"VEC3"
		},
		{
			"bufferView":1,
			"componentType":5126,
			"count":26,
			"type":"VEC3"
		},
		{
			"bufferView":2,
			"componentType":5126,
			"count":26,
			"type":"VEC2"
		},
		{
			"bufferView":3,
			"componentType":5123,
			"count":72,
			"type":"SCALAR"
		},
		{
			"bufferView":4,
			"componentType":5126,
			"count":616,
			"max":[
				-6.158132553100586,
				19.525915145874023,
				-58.19026565551758
			],
			"min":[
				-15.922442436218262,
				17.738821029663086,
				-59.844200134277344
			],
			"type":"VEC3"
		},
		{
			"bufferView":5,
			"componentType":5126,
			"count":616,
			"type":"VEC3"
		},
		{
			"bufferView":6,
			"componentType":5126,
			"count":616,
			"type":"VEC2"
		},
		{
			"bufferView":7,
			"componentType":5123,
			"count":1872,
			"type":"SCALAR"
		},
		{
			"bufferView":8,
			"componentType":5126,
			"count":96,
			"max":[
				-6.657838821411133,
				19.407957077026367,
				-58.52693176269531
			],
			"min":[
				-15.419438362121582,
				17.856779098510742,
				-59.47624206542969
			],
			"type":"VEC3"
		},
		{
			"bufferView":9,
			"componentType":5126,
			"count":96,
			"type":"VEC3"
		},
		{
			"bufferView":10,
			"componentType":5126,
			"count":96,
			"type":"VEC2"
		},
		{
			"bufferView":11,
			"componentType":5123,
			"count":288,
			"type":"SCALAR"
		},
		{
			"bufferView":12,
			"componentType":5126,
			"count":144,
			"max":[
				-6.15025520324707,
				19.50096893310547,
				-58.18241500854492
			],
			"min":[
				-15.930292129516602,
				17.76376724243164,
				-59.85207748413086
			],
			"type":"VEC3"
		},
		{
			"bufferView":13,
			"componentType":5126,
			"count":144,
			"type":"VEC3"
		},
		{
			"bufferView":14,
			"componentType":5126,
			"count":144,
			"type":"VEC2"
		},
		{
			"bufferView":15,
			"componentType":5123,
			"count":528,
			"type":"SCALAR"
		}
	],
	"bufferViews":[
		{
			"buffer":0,
			"byteLength":312,
			"byteOffset":0,
			"target":34962
		},
		{
			"buffer":0,
			"byteLength":312,
			"byteOffset":312,
			"target":34962
		},
		{
			"buffer":0,
			"byteLength":208,
			"byteOffset":624,
			"target":34962
		},
		{
			"buffer":0,
			"byteLength":144,
			"byteOffset":832,
			"target":34963
		},
		{
			"buffer":0,
			"byteLength":7392,
			"byteOffset":976,
			"target":34962
		},
		{
			"buffer":0,
			"byteLength":7392,
			"byteOffset":8368,
			"target":34962
		},
		{
			"buffer":0,
			"byteLength":4928,
			"byteOffset":15760,
			"target":34962
		},
		{
			"buffer":0,
			"byteLength":3744,
			"byteOffset":20688,
			"target":34963
		},
		{
			"buffer":0,
			"byteLength":1152,
			"byteOffset":24432,
			"target":34962
		},
		{
			"buffer":0,
			"byteLength":1152,
			"byteOffset":25584,
			"target":34962
		},
		{
			"buffer":0,
			"byteLength":768,
			"byteOffset":26736,
			"target":34962
		},
		{
			"buffer":0,
			"byteLength":576,
			"byteOffset":27504,
			"target":34963
		},
		{
			"buffer":0,
			"byteLength":1728,
			"byteOffset":28080,
			"target":34962
		},
		{
			"buffer":0,
			"byteLength":1728,
			"byteOffset":29808,
			"target":34962
		},
		{
			"buffer":0,
			"byteLength":1152,
			"byteOffset":31536,
			"target":34962
		},
		{
			"buffer":0,
			"byteLength":1056,
			"byteOffset":32688,
			"target":34963
		}
	],
	"samplers":[
		{
			"magFilter":9729,
			"minFilter":9987
		}
	],
	"buffers":[
		{
			"byteLength":33744,
			"uri":"obj_clock.bin"
		}
	]
}
