{
	"asset":{
		"generator":"Khronos glTF Blender I/O v4.1.63",
		"version":"2.0"
	},
	"extensionsUsed":[
		"KHR_materials_specular",
		"KHR_materials_ior"
	],
	"scene":0,
	"scenes":[
		{
			"name":"Scene",
			"nodes":[
				0,
				1
			]
		}
	],
	"nodes":[
		{
			"mesh":0,
			"name":"obj_governance07"
		},
		{
			"mesh":1,
			"name":"obj_governance07_collider"
		}
	],
	"materials":[
		{
			"emissiveFactor":[
				0.26229405403137207,
				0.5646868348121643,
				0.921515166759491
			],
			"extensions":{
				"KHR_materials_specular":{
					"specularFactor":0
				},
				"KHR_materials_ior":{
					"ior":1.4500000476837158
				}
			},
			"name":"obj_global_emission01",
			"pbrMetallicRoughness":{
				"baseColorFactor":[
					0.2617267668247223,
					0.566400408744812,
					0.9218639135360718,
					1
				],
				"metallicFactor":0
			}
		},
		{
			"emissiveFactor":[
				0.05000000074505806,
				0.05000000074505806,
				0.05000000074505806
			],
			"emissiveTexture":{
				"index":0
			},
			"extensions":{
				"KHR_materials_specular":{
					"specularFactor":0
				},
				"KHR_materials_ior":{
					"ior":1.4500000476837158
				}
			},
			"name":"obj_sign01",
			"pbrMetallicRoughness":{
				"baseColorTexture":{
					"index":1
				},
				"metallicFactor":0
			}
		}
	],
	"meshes":[
		{
			"name":"Plane.001",
			"primitives":[
				{
					"attributes":{
						"POSITION":0,
						"NORMAL":1,
						"TEXCOORD_0":2
					},
					"indices":3,
					"material":0
				},
				{
					"attributes":{
						"POSITION":4,
						"NORMAL":5,
						"TEXCOORD_0":6
					},
					"indices":7,
					"material":1
				}
			]
		},
		{
			"name":"Plane.006",
			"primitives":[
				{
					"attributes":{
						"POSITION":8,
						"NORMAL":9,
						"TEXCOORD_0":10
					},
					"indices":11
				}
			]
		}
	],
	"textures":[
		{
			"sampler":0,
			"source":0
		},
		{
			"sampler":0,
			"source":0
		}
	],
	"images":[
		{
			"mimeType":"image/png",
			"name":"obj_sign01",
			"uri":"textures/obj_sign01.png"
		}
	],
	"accessors":[
		{
			"bufferView":0,
			"componentType":5126,
			"count":320,
			"max":[
				1.5722712278366089,
				2.099724769592285,
				0.08330453932285309
			],
			"min":[
				-1.5722712278366089,
				0.011042924597859383,
				-0.08330308645963669
			],
			"type":"VEC3"
		},
		{
			"bufferView":1,
			"componentType":5126,
			"count":320,
			"type":"VEC3"
		},
		{
			"bufferView":2,
			"componentType":5126,
			"count":320,
			"type":"VEC2"
		},
		{
			"bufferView":3,
			"componentType":5123,
			"count":864,
			"type":"SCALAR"
		},
		{
			"bufferView":4,
			"componentType":5126,
			"count":578,
			"max":[
				1.5842417478561401,
				2.1107678413391113,
				0.08330453932285309
			],
			"min":[
				-1.5842417478561401,
				0,
				-0.08330308645963669
			],
			"type":"VEC3"
		},
		{
			"bufferView":5,
			"componentType":5126,
			"count":578,
			"type":"VEC3"
		},
		{
			"bufferView":6,
			"componentType":5126,
			"count":578,
			"type":"VEC2"
		},
		{
			"bufferView":7,
			"componentType":5123,
			"count":1836,
			"type":"SCALAR"
		},
		{
			"bufferView":8,
			"componentType":5126,
			"count":238,
			"max":[
				1.5842417478561401,
				2.1107678413391113,
				0.08330453932285309
			],
			"min":[
				-1.5842417478561401,
				0,
				-0.08330308645963669
			],
			"type":"VEC3"
		},
		{
			"bufferView":9,
			"componentType":5126,
			"count":238,
			"type":"VEC3"
		},
		{
			"bufferView":10,
			"componentType":5126,
			"count":238,
			"type":"VEC2"
		},
		{
			"bufferView":11,
			"componentType":5123,
			"count":648,
			"type":"SCALAR"
		}
	],
	"bufferViews":[
		{
			"buffer":0,
			"byteLength":3840,
			"byteOffset":0,
			"target":34962
		},
		{
			"buffer":0,
			"byteLength":3840,
			"byteOffset":3840,
			"target":34962
		},
		{
			"buffer":0,
			"byteLength":2560,
			"byteOffset":7680,
			"target":34962
		},
		{
			"buffer":0,
			"byteLength":1728,
			"byteOffset":10240,
			"target":34963
		},
		{
			"buffer":0,
			"byteLength":6936,
			"byteOffset":11968,
			"target":34962
		},
		{
			"buffer":0,
			"byteLength":6936,
			"byteOffset":18904,
			"target":34962
		},
		{
			"buffer":0,
			"byteLength":4624,
			"byteOffset":25840,
			"target":34962
		},
		{
			"buffer":0,
			"byteLength":3672,
			"byteOffset":30464,
			"target":34963
		},
		{
			"buffer":0,
			"byteLength":2856,
			"byteOffset":34136,
			"target":34962
		},
		{
			"buffer":0,
			"byteLength":2856,
			"byteOffset":36992,
			"target":34962
		},
		{
			"buffer":0,
			"byteLength":1904,
			"byteOffset":39848,
			"target":34962
		},
		{
			"buffer":0,
			"byteLength":1296,
			"byteOffset":41752,
			"target":34963
		}
	],
	"samplers":[
		{
			"magFilter":9729,
			"minFilter":9987
		}
	],
	"buffers":[
		{
			"byteLength":43048,
			"uri":"obj_governance07.bin"
		}
	]
}
