{
	"asset":{
		"generator":"Khronos glTF Blender I/O v4.2.57",
		"version":"2.0"
	},
	"scene":0,
	"scenes":[
		{
			"name":"Scene",
			"nodes":[
				0,
				1
			]
		}
	],
	"nodes":[
		{
			"mesh":0,
			"name":"obj_pill"
		},
		{
			"mesh":1,
			"name":"obj_pill_collider"
		}
	],
	"materials":[
		{
			"doubleSided":true,
			"emissiveFactor":[
				1,
				1,
				1
			],
			"emissiveTexture":{
				"index":0
			},
			"name":"npc_librarian02",
			"pbrMetallicRoughness":{
				"baseColorTexture":{
					"index":1
				},
				"metallicFactor":0
			}
		},
		{
			"name":"npc_assistant01",
			"pbrMetallicRoughness":{
				"baseColorFactor":[
					0,
					0,
					0,
					1
				],
				"metallicFactor":0
			}
		}
	],
	"meshes":[
		{
			"name":"Plane.007",
			"primitives":[
				{
					"attributes":{
						"POSITION":0,
						"NORMAL":1,
						"TEXCOORD_0":2
					},
					"indices":3,
					"material":0
				},
				{
					"attributes":{
						"POSITION":4,
						"NORMAL":5,
						"TEXCOORD_0":6
					},
					"indices":7,
					"material":1
				}
			]
		},
		{
			"name":"Cube.029",
			"primitives":[
				{
					"attributes":{
						"POSITION":8,
						"NORMAL":9,
						"TEXCOORD_0":10
					},
					"indices":11
				}
			]
		}
	],
	"textures":[
		{
			"sampler":0,
			"source":0
		},
		{
			"sampler":0,
			"source":1
		}
	],
	"images":[
		{
			"mimeType":"image/png",
			"name":"npc_librarian02_emission",
			"uri":"textures/npc_librarian02_emission.png"
		},
		{
			"mimeType":"image/png",
			"name":"npc_librarian02",
			"uri":"textures/npc_librarian02.png"
		}
	],
	"accessors":[
		{
			"bufferView":0,
			"componentType":5126,
			"count":814,
			"max":[
				0.07544676214456558,
				0.20112238824367523,
				0.07179459184408188
			],
			"min":[
				-0.07491098344326019,
				-0.1999376267194748,
				-0.07284048944711685
			],
			"type":"VEC3"
		},
		{
			"bufferView":1,
			"componentType":5126,
			"count":814,
			"type":"VEC3"
		},
		{
			"bufferView":2,
			"componentType":5126,
			"count":814,
			"type":"VEC2"
		},
		{
			"bufferView":3,
			"componentType":5123,
			"count":1332,
			"type":"SCALAR"
		},
		{
			"bufferView":4,
			"componentType":5126,
			"count":97,
			"max":[
				0.07544676214456558,
				0.11878074705600739,
				0.07179459184408188
			],
			"min":[
				-0.07491098344326019,
				-0.11759598553180695,
				-0.07284048944711685
			],
			"type":"VEC3"
		},
		{
			"bufferView":5,
			"componentType":5126,
			"count":97,
			"type":"VEC3"
		},
		{
			"bufferView":6,
			"componentType":5126,
			"count":97,
			"type":"VEC2"
		},
		{
			"bufferView":7,
			"componentType":5123,
			"count":180,
			"type":"SCALAR"
		},
		{
			"bufferView":8,
			"componentType":5126,
			"count":24,
			"max":[
				0.0687791109085083,
				0.2005300372838974,
				0.0687791109085083
			],
			"min":[
				-0.0687791109085083,
				-0.200530007481575,
				-0.0687791109085083
			],
			"type":"VEC3"
		},
		{
			"bufferView":9,
			"componentType":5126,
			"count":24,
			"type":"VEC3"
		},
		{
			"bufferView":10,
			"componentType":5126,
			"count":24,
			"type":"VEC2"
		},
		{
			"bufferView":11,
			"componentType":5123,
			"count":36,
			"type":"SCALAR"
		}
	],
	"bufferViews":[
		{
			"buffer":0,
			"byteLength":9768,
			"byteOffset":0,
			"target":34962
		},
		{
			"buffer":0,
			"byteLength":9768,
			"byteOffset":9768,
			"target":34962
		},
		{
			"buffer":0,
			"byteLength":6512,
			"byteOffset":19536,
			"target":34962
		},
		{
			"buffer":0,
			"byteLength":2664,
			"byteOffset":26048,
			"target":34963
		},
		{
			"buffer":0,
			"byteLength":1164,
			"byteOffset":28712,
			"target":34962
		},
		{
			"buffer":0,
			"byteLength":1164,
			"byteOffset":29876,
			"target":34962
		},
		{
			"buffer":0,
			"byteLength":776,
			"byteOffset":31040,
			"target":34962
		},
		{
			"buffer":0,
			"byteLength":360,
			"byteOffset":31816,
			"target":34963
		},
		{
			"buffer":0,
			"byteLength":288,
			"byteOffset":32176,
			"target":34962
		},
		{
			"buffer":0,
			"byteLength":288,
			"byteOffset":32464,
			"target":34962
		},
		{
			"buffer":0,
			"byteLength":192,
			"byteOffset":32752,
			"target":34962
		},
		{
			"buffer":0,
			"byteLength":72,
			"byteOffset":32944,
			"target":34963
		}
	],
	"samplers":[
		{
			"magFilter":9729,
			"minFilter":9987
		}
	],
	"buffers":[
		{
			"byteLength":33016,
			"uri":"obj_pill.bin"
		}
	]
}
