{
	"asset":{
		"generator":"Khronos glTF Blender I/O v4.1.63",
		"version":"2.0"
	},
	"extensionsUsed":[
		"KHR_materials_emissive_strength",
		"KHR_materials_specular",
		"KHR_materials_ior"
	],
	"scene":0,
	"scenes":[
		{
			"name":"Scene",
			"nodes":[
				0,
				1
			]
		}
	],
	"nodes":[
		{
			"mesh":0,
			"name":"obj_globe01"
		},
		{
			"mesh":1,
			"name":"obj_globe01_collider"
		}
	],
	"materials":[
		{
			"alphaMode":"BLEND",
			"emissiveFactor":[
				1,
				1,
				1
			],
			"emissiveTexture":{
				"index":0
			},
			"extensions":{
				"KHR_materials_emissive_strength":{
					"emissiveStrength":2
				},
				"KHR_materials_specular":{
					"specularFactor":0
				},
				"KHR_materials_ior":{
					"ior":1.4500000476837158
				}
			},
			"name":"obj_globe02",
			"pbrMetallicRoughness":{
				"baseColorFactor":[
					1,
					1,
					1,
					0.699999988079071
				],
				"baseColorTexture":{
					"index":1
				},
				"metallicFactor":0
			}
		},
		{
			"alphaMode":"BLEND",
			"emissiveFactor":[
				1,
				1,
				1
			],
			"emissiveTexture":{
				"index":2
			},
			"extensions":{
				"KHR_materials_emissive_strength":{
					"emissiveStrength":2
				},
				"KHR_materials_specular":{
					"specularFactor":0
				},
				"KHR_materials_ior":{
					"ior":1.4500000476837158
				}
			},
			"name":"obj_globe03",
			"pbrMetallicRoughness":{
				"baseColorFactor":[
					1,
					1,
					1,
					0.20000000298023224
				],
				"baseColorTexture":{
					"index":3
				},
				"metallicFactor":0
			}
		},
		{
			"emissiveFactor":[
				0.07999999821186066,
				0.07999999821186066,
				0.07999999821186066
			],
			"emissiveTexture":{
				"index":4
			},
			"extensions":{
				"KHR_materials_specular":{
					"specularFactor":0
				},
				"KHR_materials_ior":{
					"ior":1.4500000476837158
				}
			},
			"name":"obj_globe01",
			"pbrMetallicRoughness":{
				"baseColorTexture":{
					"index":5
				},
				"metallicFactor":0
			}
		},
		{
			"emissiveFactor":[
				0.26229405403137207,
				0.5646868348121643,
				0.921515166759491
			],
			"extensions":{
				"KHR_materials_specular":{
					"specularFactor":0
				},
				"KHR_materials_ior":{
					"ior":1.4500000476837158
				}
			},
			"name":"obj_global_emission01",
			"pbrMetallicRoughness":{
				"baseColorFactor":[
					0.2617267668247223,
					0.566400408744812,
					0.9218639135360718,
					1
				],
				"metallicFactor":0
			}
		},
		{
			"emissiveFactor":[
				0.05000000074505806,
				0.05000000074505806,
				0.05000000074505806
			],
			"emissiveTexture":{
				"index":6
			},
			"extensions":{
				"KHR_materials_specular":{
					"specularFactor":0
				},
				"KHR_materials_ior":{
					"ior":1.4500000476837158
				}
			},
			"name":"obj_globe04",
			"pbrMetallicRoughness":{
				"baseColorTexture":{
					"index":7
				},
				"metallicFactor":0
			}
		}
	],
	"meshes":[
		{
			"name":"Sphere",
			"primitives":[
				{
					"attributes":{
						"POSITION":0,
						"NORMAL":1,
						"TEXCOORD_0":2
					},
					"indices":3,
					"material":0
				},
				{
					"attributes":{
						"POSITION":4,
						"NORMAL":5,
						"TEXCOORD_0":6
					},
					"indices":7,
					"material":1
				},
				{
					"attributes":{
						"POSITION":8,
						"NORMAL":9,
						"TEXCOORD_0":10
					},
					"indices":11,
					"material":2
				},
				{
					"attributes":{
						"POSITION":12,
						"NORMAL":13,
						"TEXCOORD_0":14
					},
					"indices":15,
					"material":3
				},
				{
					"attributes":{
						"POSITION":16,
						"NORMAL":17,
						"TEXCOORD_0":18
					},
					"indices":19,
					"material":4
				}
			]
		},
		{
			"name":"Cube.017",
			"primitives":[
				{
					"attributes":{
						"POSITION":20,
						"NORMAL":21,
						"TEXCOORD_0":22,
						"COLOR_0":23
					},
					"indices":24
				}
			]
		}
	],
	"textures":[
		{
			"sampler":0,
			"source":0
		},
		{
			"sampler":0,
			"source":0
		},
		{
			"sampler":0,
			"source":1
		},
		{
			"sampler":0,
			"source":1
		},
		{
			"sampler":0,
			"source":2
		},
		{
			"sampler":0,
			"source":2
		},
		{
			"sampler":0,
			"source":3
		},
		{
			"sampler":0,
			"source":3
		}
	],
	"images":[
		{
			"mimeType":"image/png",
			"name":"obj_globe02",
			"uri":"textures/obj_globe02.png"
		},
		{
			"mimeType":"image/png",
			"name":"obj_globe03",
			"uri":"textures/obj_globe03.png"
		},
		{
			"mimeType":"image/png",
			"name":"obj_globe01",
			"uri":"textures/obj_globe01.png"
		},
		{
			"mimeType":"image/png",
			"name":"obj_globe04",
			"uri":"textures/obj_globe04.png"
		}
	],
	"accessors":[
		{
			"bufferView":0,
			"componentType":5126,
			"count":323,
			"max":[
				1.3543351888656616,
				4.538500785827637,
				1.3543349504470825
			],
			"min":[
				-1.3543347120285034,
				1.8298304080963135,
				-1.3543353080749512
			],
			"type":"VEC3"
		},
		{
			"bufferView":1,
			"componentType":5126,
			"count":323,
			"type":"VEC3"
		},
		{
			"bufferView":2,
			"componentType":5126,
			"count":323,
			"type":"VEC2"
		},
		{
			"bufferView":3,
			"componentType":5123,
			"count":1584,
			"type":"SCALAR"
		},
		{
			"bufferView":4,
			"componentType":5126,
			"count":323,
			"max":[
				1.3838859796524048,
				4.568051815032959,
				1.3838858604431152
			],
			"min":[
				-1.3838856220245361,
				1.8002794981002808,
				-1.3838860988616943
			],
			"type":"VEC3"
		},
		{
			"bufferView":5,
			"componentType":5126,
			"count":323,
			"type":"VEC3"
		},
		{
			"bufferView":6,
			"componentType":5126,
			"count":323,
			"type":"VEC2"
		},
		{
			"bufferView":7,
			"componentType":5123,
			"count":1584,
			"type":"SCALAR"
		},
		{
			"bufferView":8,
			"componentType":5126,
			"count":1053,
			"max":[
				2.9664382934570312,
				0.8578448295593262,
				2.9664382934570312
			],
			"min":[
				-2.966438055038452,
				0.0038056373596191406,
				-2.9664382934570312
			],
			"type":"VEC3"
		},
		{
			"bufferView":9,
			"componentType":5126,
			"count":1053,
			"type":"VEC3"
		},
		{
			"bufferView":10,
			"componentType":5126,
			"count":1053,
			"type":"VEC2"
		},
		{
			"bufferView":11,
			"componentType":5123,
			"count":4008,
			"type":"SCALAR"
		},
		{
			"bufferView":12,
			"componentType":5126,
			"count":354,
			"max":[
				2.775439500808716,
				0.7449581623077393,
				2.775439500808716
			],
			"min":[
				-2.775439500808716,
				0.0007641315460205078,
				-2.775439500808716
			],
			"type":"VEC3"
		},
		{
			"bufferView":13,
			"componentType":5126,
			"count":354,
			"type":"VEC3"
		},
		{
			"bufferView":14,
			"componentType":5126,
			"count":354,
			"type":"VEC2"
		},
		{
			"bufferView":15,
			"componentType":5123,
			"count":1056,
			"type":"SCALAR"
		},
		{
			"bufferView":16,
			"componentType":5126,
			"count":864,
			"max":[
				2.1630635261535645,
				4.749135494232178,
				2.406433343887329
			],
			"min":[
				-2.1751644611358643,
				1.7668640613555908,
				-2.3698456287384033
			],
			"type":"VEC3"
		},
		{
			"bufferView":17,
			"componentType":5126,
			"count":864,
			"type":"VEC3"
		},
		{
			"bufferView":18,
			"componentType":5126,
			"count":864,
			"type":"VEC2"
		},
		{
			"bufferView":19,
			"componentType":5123,
			"count":2304,
			"type":"SCALAR"
		},
		{
			"bufferView":20,
			"componentType":5126,
			"count":1039,
			"max":[
				2.99626088142395,
				4.774009704589844,
				2.989978790283203
			],
			"min":[
				-2.9879612922668457,
				-0.0004420280456542969,
				-2.990997791290283
			],
			"type":"VEC3"
		},
		{
			"bufferView":21,
			"componentType":5126,
			"count":1039,
			"type":"VEC3"
		},
		{
			"bufferView":22,
			"componentType":5126,
			"count":1039,
			"type":"VEC2"
		},
		{
			"bufferView":23,
			"componentType":5126,
			"count":1039,
			"type":"VEC3"
		},
		{
			"bufferView":24,
			"componentType":5123,
			"count":2364,
			"type":"SCALAR"
		}
	],
	"bufferViews":[
		{
			"buffer":0,
			"byteLength":3876,
			"byteOffset":0,
			"target":34962
		},
		{
			"buffer":0,
			"byteLength":3876,
			"byteOffset":3876,
			"target":34962
		},
		{
			"buffer":0,
			"byteLength":2584,
			"byteOffset":7752,
			"target":34962
		},
		{
			"buffer":0,
			"byteLength":3168,
			"byteOffset":10336,
			"target":34963
		},
		{
			"buffer":0,
			"byteLength":3876,
			"byteOffset":13504,
			"target":34962
		},
		{
			"buffer":0,
			"byteLength":3876,
			"byteOffset":17380,
			"target":34962
		},
		{
			"buffer":0,
			"byteLength":2584,
			"byteOffset":21256,
			"target":34962
		},
		{
			"buffer":0,
			"byteLength":3168,
			"byteOffset":23840,
			"target":34963
		},
		{
			"buffer":0,
			"byteLength":12636,
			"byteOffset":27008,
			"target":34962
		},
		{
			"buffer":0,
			"byteLength":12636,
			"byteOffset":39644,
			"target":34962
		},
		{
			"buffer":0,
			"byteLength":8424,
			"byteOffset":52280,
			"target":34962
		},
		{
			"buffer":0,
			"byteLength":8016,
			"byteOffset":60704,
			"target":34963
		},
		{
			"buffer":0,
			"byteLength":4248,
			"byteOffset":68720,
			"target":34962
		},
		{
			"buffer":0,
			"byteLength":4248,
			"byteOffset":72968,
			"target":34962
		},
		{
			"buffer":0,
			"byteLength":2832,
			"byteOffset":77216,
			"target":34962
		},
		{
			"buffer":0,
			"byteLength":2112,
			"byteOffset":80048,
			"target":34963
		},
		{
			"buffer":0,
			"byteLength":10368,
			"byteOffset":82160,
			"target":34962
		},
		{
			"buffer":0,
			"byteLength":10368,
			"byteOffset":92528,
			"target":34962
		},
		{
			"buffer":0,
			"byteLength":6912,
			"byteOffset":102896,
			"target":34962
		},
		{
			"buffer":0,
			"byteLength":4608,
			"byteOffset":109808,
			"target":34963
		},
		{
			"buffer":0,
			"byteLength":12468,
			"byteOffset":114416,
			"target":34962
		},
		{
			"buffer":0,
			"byteLength":12468,
			"byteOffset":126884,
			"target":34962
		},
		{
			"buffer":0,
			"byteLength":8312,
			"byteOffset":139352,
			"target":34962
		},
		{
			"buffer":0,
			"byteLength":12468,
			"byteOffset":147664,
			"target":34962
		},
		{
			"buffer":0,
			"byteLength":4728,
			"byteOffset":160132,
			"target":34963
		}
	],
	"samplers":[
		{
			"magFilter":9729,
			"minFilter":9987
		}
	],
	"buffers":[
		{
			"byteLength":164860,
			"uri":"obj_globe01.bin"
		}
	]
}
