{
	"asset":{
		"generator":"Khronos glTF Blender I/O v4.3.47",
		"version":"2.0"
	},
	"extensionsUsed":[
		"KHR_materials_clearcoat",
		"KHR_materials_specular"
	],
	"scene":0,
	"scenes":[
		{
			"name":"Scene",
			"nodes":[
				0,
				1
			]
		}
	],
	"nodes":[
		{
			"mesh":0,
			"name":"obj_tv"
		},
		{
			"mesh":1,
			"name":"obj_tv_collider"
		}
	],
	"materials":[
		{
			"emissiveFactor":[
				0.10000000149011612,
				0.10000000149011612,
				0.10000000149011612
			],
			"emissiveTexture":{
				"index":0
			},
			"extensions":{
				"KHR_materials_clearcoat":{
					"clearcoatRoughnessFactor":0
				},
				"KHR_materials_specular":{
					"specularFactor":0
				}
			},
			"name":"obj_tv",
			"pbrMetallicRoughness":{
				"baseColorTexture":{
					"index":1
				},
				"metallicFactor":0
			}
		},
		{
			"doubleSided":true,
			"emissiveFactor":[
				0.26229405403137207,
				0.5646868348121643,
				0.921515166759491
			],
			"extensions":{
				"KHR_materials_specular":{
					"specularFactor":0
				}
			},
			"name":"obj_global_emission01",
			"pbrMetallicRoughness":{
				"baseColorFactor":[
					0.2617267668247223,
					0.566400408744812,
					0.9218639135360718,
					1
				],
				"metallicFactor":0
			}
		}
	],
	"meshes":[
		{
			"name":"obj_tv",
			"primitives":[
				{
					"attributes":{
						"POSITION":0,
						"NORMAL":1,
						"TEXCOORD_0":2
					},
					"indices":3,
					"material":0
				},
				{
					"attributes":{
						"POSITION":4,
						"NORMAL":5,
						"TEXCOORD_0":6
					},
					"indices":7,
					"material":1
				}
			]
		},
		{
			"name":"obj_tv_collider",
			"primitives":[
				{
					"attributes":{
						"POSITION":8,
						"NORMAL":9,
						"TEXCOORD_0":10
					},
					"indices":11
				}
			]
		}
	],
	"textures":[
		{
			"sampler":0,
			"source":0
		},
		{
			"sampler":0,
			"source":0
		}
	],
	"images":[
		{
			"mimeType":"image/png",
			"name":"obj_tv",
			"uri":"textures/obj_tv.png"
		}
	],
	"accessors":[
		{
			"bufferView":0,
			"componentType":5126,
			"count":2215,
			"max":[
				16.199996948242188,
				22.897022247314453,
				56.249671936035156
			],
			"min":[
				9.759955406188965,
				20.990238189697266,
				49.786277770996094
			],
			"type":"VEC3"
		},
		{
			"bufferView":1,
			"componentType":5126,
			"count":2215,
			"type":"VEC3"
		},
		{
			"bufferView":2,
			"componentType":5126,
			"count":2215,
			"type":"VEC2"
		},
		{
			"bufferView":3,
			"componentType":5123,
			"count":5370,
			"type":"SCALAR"
		},
		{
			"bufferView":4,
			"componentType":5126,
			"count":40,
			"max":[
				16.04170036315918,
				22.71135711669922,
				56.13787841796875
			],
			"min":[
				9.915475845336914,
				22.632577896118164,
				50.08919906616211
			],
			"type":"VEC3"
		},
		{
			"bufferView":5,
			"componentType":5126,
			"count":40,
			"type":"VEC3"
		},
		{
			"bufferView":6,
			"componentType":5126,
			"count":40,
			"type":"VEC2"
		},
		{
			"bufferView":7,
			"componentType":5123,
			"count":90,
			"type":"SCALAR"
		},
		{
			"bufferView":8,
			"componentType":5126,
			"count":70,
			"max":[
				16.291908264160156,
				22.961956024169922,
				56.335693359375
			],
			"min":[
				9.674775123596191,
				20.923416137695312,
				49.69449234008789
			],
			"type":"VEC3"
		},
		{
			"bufferView":9,
			"componentType":5126,
			"count":70,
			"type":"VEC3"
		},
		{
			"bufferView":10,
			"componentType":5126,
			"count":70,
			"type":"VEC2"
		},
		{
			"bufferView":11,
			"componentType":5123,
			"count":180,
			"type":"SCALAR"
		}
	],
	"bufferViews":[
		{
			"buffer":0,
			"byteLength":26580,
			"byteOffset":0,
			"target":34962
		},
		{
			"buffer":0,
			"byteLength":26580,
			"byteOffset":26580,
			"target":34962
		},
		{
			"buffer":0,
			"byteLength":17720,
			"byteOffset":53160,
			"target":34962
		},
		{
			"buffer":0,
			"byteLength":10740,
			"byteOffset":70880,
			"target":34963
		},
		{
			"buffer":0,
			"byteLength":480,
			"byteOffset":81620,
			"target":34962
		},
		{
			"buffer":0,
			"byteLength":480,
			"byteOffset":82100,
			"target":34962
		},
		{
			"buffer":0,
			"byteLength":320,
			"byteOffset":82580,
			"target":34962
		},
		{
			"buffer":0,
			"byteLength":180,
			"byteOffset":82900,
			"target":34963
		},
		{
			"buffer":0,
			"byteLength":840,
			"byteOffset":83080,
			"target":34962
		},
		{
			"buffer":0,
			"byteLength":840,
			"byteOffset":83920,
			"target":34962
		},
		{
			"buffer":0,
			"byteLength":560,
			"byteOffset":84760,
			"target":34962
		},
		{
			"buffer":0,
			"byteLength":360,
			"byteOffset":85320,
			"target":34963
		}
	],
	"samplers":[
		{
			"magFilter":9729,
			"minFilter":9987
		}
	],
	"buffers":[
		{
			"byteLength":85680,
			"uri":"obj_tv.bin"
		}
	]
}
