{
	"asset":{
		"generator":"Khronos glTF Blender I/O v4.2.57",
		"version":"2.0"
	},
	"extensionsUsed":[
		"KHR_materials_specular",
		"KHR_materials_ior"
	],
	"scene":0,
	"scenes":[
		{
			"name":"Scene",
			"nodes":[
				0,
				1
			]
		}
	],
	"nodes":[
		{
			"mesh":0,
			"name":"obj_lab04"
		},
		{
			"mesh":1,
			"name":"obj_lab04_collider"
		}
	],
	"materials":[
		{
			"emissiveFactor":[
				1,
				1,
				1
			],
			"emissiveTexture":{
				"index":0
			},
			"extensions":{
				"KHR_materials_specular":{
					"specularFactor":0
				},
				"KHR_materials_ior":{
					"ior":1.4500000476837158
				}
			},
			"name":"obj_lab04_01",
			"pbrMetallicRoughness":{
				"baseColorTexture":{
					"index":1
				},
				"metallicFactor":0
			}
		},
		{
			"emissiveFactor":[
				1,
				1,
				1
			],
			"emissiveTexture":{
				"index":2
			},
			"extensions":{
				"KHR_materials_specular":{
					"specularFactor":0
				},
				"KHR_materials_ior":{
					"ior":1.4500000476837158
				}
			},
			"name":"obj_lab04_03",
			"pbrMetallicRoughness":{
				"baseColorTexture":{
					"index":3
				},
				"metallicFactor":0
			}
		},
		{
			"emissiveFactor":[
				1,
				1,
				1
			],
			"emissiveTexture":{
				"index":4
			},
			"extensions":{
				"KHR_materials_specular":{
					"specularFactor":0
				},
				"KHR_materials_ior":{
					"ior":1.4500000476837158
				}
			},
			"name":"obj_lab04_04",
			"pbrMetallicRoughness":{
				"baseColorTexture":{
					"index":5
				},
				"metallicFactor":0
			}
		},
		{
			"emissiveFactor":[
				1,
				1,
				1
			],
			"emissiveTexture":{
				"index":6
			},
			"extensions":{
				"KHR_materials_specular":{
					"specularFactor":0
				},
				"KHR_materials_ior":{
					"ior":1.4500000476837158
				}
			},
			"name":"obj_lab04_05",
			"pbrMetallicRoughness":{
				"baseColorTexture":{
					"index":7
				},
				"metallicFactor":0
			}
		},
		{
			"emissiveFactor":[
				0.10999999940395355,
				0.10999999940395355,
				0.10999999940395355
			],
			"emissiveTexture":{
				"index":8
			},
			"name":"obj_container",
			"pbrMetallicRoughness":{
				"baseColorTexture":{
					"index":9
				},
				"metallicFactor":0
			}
		},
		{
			"emissiveFactor":[
				1,
				1,
				1
			],
			"emissiveTexture":{
				"index":10
			},
			"extensions":{
				"KHR_materials_specular":{
					"specularFactor":0
				},
				"KHR_materials_ior":{
					"ior":1.4500000476837158
				}
			},
			"name":"obj_lab04_02",
			"pbrMetallicRoughness":{
				"baseColorTexture":{
					"index":11
				},
				"metallicFactor":0
			}
		}
	],
	"meshes":[
		{
			"name":"Mesh.003",
			"primitives":[
				{
					"attributes":{
						"POSITION":0,
						"NORMAL":1,
						"TEXCOORD_0":2
					},
					"indices":3,
					"material":0
				},
				{
					"attributes":{
						"POSITION":4,
						"NORMAL":5,
						"TEXCOORD_0":6
					},
					"indices":7,
					"material":1
				},
				{
					"attributes":{
						"POSITION":8,
						"NORMAL":9,
						"TEXCOORD_0":10
					},
					"indices":11,
					"material":2
				},
				{
					"attributes":{
						"POSITION":12,
						"NORMAL":13,
						"TEXCOORD_0":14
					},
					"indices":15,
					"material":3
				},
				{
					"attributes":{
						"POSITION":16,
						"NORMAL":17,
						"TEXCOORD_0":18
					},
					"indices":19,
					"material":4
				},
				{
					"attributes":{
						"POSITION":20,
						"NORMAL":21,
						"TEXCOORD_0":22
					},
					"indices":23,
					"material":5
				}
			]
		},
		{
			"name":"Mesh.020",
			"primitives":[
				{
					"attributes":{
						"POSITION":24,
						"NORMAL":25,
						"TEXCOORD_0":26
					},
					"indices":27
				}
			]
		}
	],
	"textures":[
		{
			"sampler":0,
			"source":0
		},
		{
			"sampler":0,
			"source":1
		},
		{
			"sampler":0,
			"source":2
		},
		{
			"sampler":0,
			"source":3
		},
		{
			"sampler":0,
			"source":4
		},
		{
			"sampler":0,
			"source":5
		},
		{
			"sampler":0,
			"source":6
		},
		{
			"sampler":0,
			"source":7
		},
		{
			"sampler":0,
			"source":8
		},
		{
			"sampler":0,
			"source":8
		},
		{
			"sampler":0,
			"source":9
		},
		{
			"sampler":0,
			"source":10
		}
	],
	"images":[
		{
			"mimeType":"image/png",
			"name":"obj_lab04_01_emission",
			"uri":"textures/obj_lab04_01_emission.png"
		},
		{
			"mimeType":"image/png",
			"name":"obj_lab04_01",
			"uri":"textures/obj_lab04_01.png"
		},
		{
			"mimeType":"image/png",
			"name":"obj_lab04_03_emission",
			"uri":"textures/obj_lab04_03_emission.png"
		},
		{
			"mimeType":"image/png",
			"name":"obj_lab04_03",
			"uri":"textures/obj_lab04_03.png"
		},
		{
			"mimeType":"image/png",
			"name":"obj_lab04_04_emission",
			"uri":"textures/obj_lab04_04_emission.png"
		},
		{
			"mimeType":"image/png",
			"name":"obj_lab04_04",
			"uri":"textures/obj_lab04_04.png"
		},
		{
			"mimeType":"image/png",
			"name":"obj_lab04_05_emission",
			"uri":"textures/obj_lab04_05_emission.png"
		},
		{
			"mimeType":"image/png",
			"name":"obj_lab04_05",
			"uri":"textures/obj_lab04_05.png"
		},
		{
			"mimeType":"image/png",
			"name":"obj_container",
			"uri":"textures/obj_container.png"
		},
		{
			"mimeType":"image/png",
			"name":"obj_lab04_02_emission",
			"uri":"textures/obj_lab04_02_emission.png"
		},
		{
			"mimeType":"image/png",
			"name":"obj_lab04_02",
			"uri":"textures/obj_lab04_02.png"
		}
	],
	"accessors":[
		{
			"bufferView":0,
			"componentType":5126,
			"count":1166,
			"max":[
				3.36967396736145,
				5.754826545715332,
				1.8554918766021729
			],
			"min":[
				0.9010293483734131,
				1.997556209564209,
				-0.6131525635719299
			],
			"type":"VEC3"
		},
		{
			"bufferView":1,
			"componentType":5126,
			"count":1166,
			"type":"VEC3"
		},
		{
			"bufferView":2,
			"componentType":5126,
			"count":1166,
			"type":"VEC2"
		},
		{
			"bufferView":3,
			"componentType":5123,
			"count":3672,
			"type":"SCALAR"
		},
		{
			"bufferView":4,
			"componentType":5126,
			"count":2406,
			"max":[
				4.523101806640625,
				4.77140998840332,
				1.9072433710098267
			],
			"min":[
				0.6366995573043823,
				0.07020051777362823,
				-1.4637213945388794
			],
			"type":"VEC3"
		},
		{
			"bufferView":5,
			"componentType":5126,
			"count":2406,
			"type":"VEC3"
		},
		{
			"bufferView":6,
			"componentType":5126,
			"count":2406,
			"type":"VEC2"
		},
		{
			"bufferView":7,
			"componentType":5123,
			"count":6942,
			"type":"SCALAR"
		},
		{
			"bufferView":8,
			"componentType":5126,
			"count":316,
			"max":[
				2.64665150642395,
				1.997556209564209,
				0.6697216033935547
			],
			"min":[
				-3.261780023574829,
				0.07020051777362823,
				-1.4587434530258179
			],
			"type":"VEC3"
		},
		{
			"bufferView":9,
			"componentType":5126,
			"count":316,
			"type":"VEC3"
		},
		{
			"bufferView":10,
			"componentType":5126,
			"count":316,
			"type":"VEC2"
		},
		{
			"bufferView":11,
			"componentType":5123,
			"count":630,
			"type":"SCALAR"
		},
		{
			"bufferView":12,
			"componentType":5126,
			"count":433,
			"max":[
				-0.4511015713214874,
				1.6413918733596802,
				0.6251479983329773
			],
			"min":[
				-4.411812782287598,
				0.07020049542188644,
				-1.7525243759155273
			],
			"type":"VEC3"
		},
		{
			"bufferView":13,
			"componentType":5126,
			"count":433,
			"type":"VEC3"
		},
		{
			"bufferView":14,
			"componentType":5126,
			"count":433,
			"type":"VEC2"
		},
		{
			"bufferView":15,
			"componentType":5123,
			"count":945,
			"type":"SCALAR"
		},
		{
			"bufferView":16,
			"componentType":5126,
			"count":1170,
			"max":[
				3.3216750621795654,
				1.3654239177703857,
				0.49332889914512634
			],
			"min":[
				-3.7314627170562744,
				0.5615590810775757,
				-0.7537216544151306
			],
			"type":"VEC3"
		},
		{
			"bufferView":17,
			"componentType":5126,
			"count":1170,
			"type":"VEC3"
		},
		{
			"bufferView":18,
			"componentType":5126,
			"count":1170,
			"type":"VEC2"
		},
		{
			"bufferView":19,
			"componentType":5123,
			"count":3456,
			"type":"SCALAR"
		},
		{
			"bufferView":20,
			"componentType":5126,
			"count":46,
			"max":[
				5.474717140197754,
				0.31272584199905396,
				2.433133602142334
			],
			"min":[
				-5.100276947021484,
				-1.130986948538748e-08,
				-2.3587565422058105
			],
			"type":"VEC3"
		},
		{
			"bufferView":21,
			"componentType":5126,
			"count":46,
			"type":"VEC3"
		},
		{
			"bufferView":22,
			"componentType":5126,
			"count":46,
			"type":"VEC2"
		},
		{
			"bufferView":23,
			"componentType":5123,
			"count":84,
			"type":"SCALAR"
		},
		{
			"bufferView":24,
			"componentType":5126,
			"count":403,
			"max":[
				5.481897354125977,
				5.927561283111572,
				2.4376046657562256
			],
			"min":[
				-5.106966018676758,
				-3.2544153327762615e-07,
				-2.360569953918457
			],
			"type":"VEC3"
		},
		{
			"bufferView":25,
			"componentType":5126,
			"count":403,
			"type":"VEC3"
		},
		{
			"bufferView":26,
			"componentType":5126,
			"count":403,
			"type":"VEC2"
		},
		{
			"bufferView":27,
			"componentType":5123,
			"count":786,
			"type":"SCALAR"
		}
	],
	"bufferViews":[
		{
			"buffer":0,
			"byteLength":13992,
			"byteOffset":0,
			"target":34962
		},
		{
			"buffer":0,
			"byteLength":13992,
			"byteOffset":13992,
			"target":34962
		},
		{
			"buffer":0,
			"byteLength":9328,
			"byteOffset":27984,
			"target":34962
		},
		{
			"buffer":0,
			"byteLength":7344,
			"byteOffset":37312,
			"target":34963
		},
		{
			"buffer":0,
			"byteLength":28872,
			"byteOffset":44656,
			"target":34962
		},
		{
			"buffer":0,
			"byteLength":28872,
			"byteOffset":73528,
			"target":34962
		},
		{
			"buffer":0,
			"byteLength":19248,
			"byteOffset":102400,
			"target":34962
		},
		{
			"buffer":0,
			"byteLength":13884,
			"byteOffset":121648,
			"target":34963
		},
		{
			"buffer":0,
			"byteLength":3792,
			"byteOffset":135532,
			"target":34962
		},
		{
			"buffer":0,
			"byteLength":3792,
			"byteOffset":139324,
			"target":34962
		},
		{
			"buffer":0,
			"byteLength":2528,
			"byteOffset":143116,
			"target":34962
		},
		{
			"buffer":0,
			"byteLength":1260,
			"byteOffset":145644,
			"target":34963
		},
		{
			"buffer":0,
			"byteLength":5196,
			"byteOffset":146904,
			"target":34962
		},
		{
			"buffer":0,
			"byteLength":5196,
			"byteOffset":152100,
			"target":34962
		},
		{
			"buffer":0,
			"byteLength":3464,
			"byteOffset":157296,
			"target":34962
		},
		{
			"buffer":0,
			"byteLength":1890,
			"byteOffset":160760,
			"target":34963
		},
		{
			"buffer":0,
			"byteLength":14040,
			"byteOffset":162652,
			"target":34962
		},
		{
			"buffer":0,
			"byteLength":14040,
			"byteOffset":176692,
			"target":34962
		},
		{
			"buffer":0,
			"byteLength":9360,
			"byteOffset":190732,
			"target":34962
		},
		{
			"buffer":0,
			"byteLength":6912,
			"byteOffset":200092,
			"target":34963
		},
		{
			"buffer":0,
			"byteLength":552,
			"byteOffset":207004,
			"target":34962
		},
		{
			"buffer":0,
			"byteLength":552,
			"byteOffset":207556,
			"target":34962
		},
		{
			"buffer":0,
			"byteLength":368,
			"byteOffset":208108,
			"target":34962
		},
		{
			"buffer":0,
			"byteLength":168,
			"byteOffset":208476,
			"target":34963
		},
		{
			"buffer":0,
			"byteLength":4836,
			"byteOffset":208644,
			"target":34962
		},
		{
			"buffer":0,
			"byteLength":4836,
			"byteOffset":213480,
			"target":34962
		},
		{
			"buffer":0,
			"byteLength":3224,
			"byteOffset":218316,
			"target":34962
		},
		{
			"buffer":0,
			"byteLength":1572,
			"byteOffset":221540,
			"target":34963
		}
	],
	"samplers":[
		{
			"magFilter":9729,
			"minFilter":9987
		}
	],
	"buffers":[
		{
			"byteLength":223112,
			"uri":"obj_lab04.bin"
		}
	]
}
