{
	"asset":{
		"generator":"Khronos glTF Blender I/O v4.1.63",
		"version":"2.0"
	},
	"extensionsUsed":[
		"KHR_materials_specular",
		"KHR_materials_ior"
	],
	"scene":0,
	"scenes":[
		{
			"name":"Scene",
			"nodes":[
				0,
				1
			]
		}
	],
	"nodes":[
		{
			"mesh":0,
			"name":"obj_feed_collider"
		},
		{
			"mesh":1,
			"name":"obj_feed"
		}
	],
	"materials":[
		{
			"alphaMode":"BLEND",
			"extensions":{
				"KHR_materials_specular":{
					"specularFactor":0
				},
				"KHR_materials_ior":{
					"ior":1.4500000476837158
				}
			},
			"name":"obj_global_glass01",
			"pbrMetallicRoughness":{
				"baseColorFactor":[
					1,
					1,
					1,
					0.5
				],
				"baseColorTexture":{
					"index":0
				},
				"metallicFactor":0
			}
		},
		{
			"emissiveFactor":[
				0.7455297112464905,
				0.4507659673690796,
				0.8147876262664795
			],
			"extensions":{
				"KHR_materials_specular":{
					"specularFactor":0
				},
				"KHR_materials_ior":{
					"ior":1.4500000476837158
				}
			},
			"name":"obj_global_emission03",
			"pbrMetallicRoughness":{
				"baseColorFactor":[
					0.7454167008399963,
					0.450778603553772,
					0.8148468136787415,
					1
				],
				"metallicFactor":0
			}
		},
		{
			"emissiveFactor":[
				1,
				1,
				1
			],
			"emissiveTexture":{
				"index":1
			},
			"extensions":{
				"KHR_materials_specular":{
					"specularFactor":0
				}
			},
			"name":"obj_feed",
			"pbrMetallicRoughness":{
				"baseColorTexture":{
					"index":2
				},
				"metallicFactor":0
			}
		}
	],
	"meshes":[
		{
			"name":"Mesh.011",
			"primitives":[
				{
					"attributes":{
						"POSITION":0,
						"NORMAL":1,
						"TEXCOORD_0":2
					},
					"indices":3
				}
			]
		},
		{
			"name":"Mesh.012",
			"primitives":[
				{
					"attributes":{
						"POSITION":4,
						"NORMAL":5,
						"TEXCOORD_0":6
					},
					"indices":7,
					"material":0
				},
				{
					"attributes":{
						"POSITION":8,
						"NORMAL":9,
						"TEXCOORD_0":10
					},
					"indices":11,
					"material":1
				},
				{
					"attributes":{
						"POSITION":12,
						"NORMAL":13,
						"TEXCOORD_0":14
					},
					"indices":15,
					"material":2
				}
			]
		}
	],
	"textures":[
		{
			"sampler":0,
			"source":0
		},
		{
			"sampler":0,
			"source":1
		},
		{
			"sampler":0,
			"source":2
		}
	],
	"images":[
		{
			"mimeType":"image/png",
			"name":"obj_global_glass01",
			"uri":"textures/obj_global_glass01.png"
		},
		{
			"mimeType":"image/png",
			"name":"obj_feed_emission",
			"uri":"textures/obj_feed_emission.png"
		},
		{
			"mimeType":"image/png",
			"name":"obj_feed",
			"uri":"textures/obj_feed.png"
		}
	],
	"accessors":[
		{
			"bufferView":0,
			"componentType":5126,
			"count":65,
			"max":[
				0.29805296659469604,
				0.7511190176010132,
				0.29805296659469604
			],
			"min":[
				-0.29805296659469604,
				-1.4901161193847656e-08,
				-0.29805296659469604
			],
			"type":"VEC3"
		},
		{
			"bufferView":1,
			"componentType":5126,
			"count":65,
			"type":"VEC3"
		},
		{
			"bufferView":2,
			"componentType":5126,
			"count":65,
			"type":"VEC2"
		},
		{
			"bufferView":3,
			"componentType":5123,
			"count":288,
			"type":"SCALAR"
		},
		{
			"bufferView":4,
			"componentType":5126,
			"count":135,
			"max":[
				0.28118664026260376,
				0.5504344701766968,
				0.2811865210533142
			],
			"min":[
				-0.28118669986724854,
				0.10834779590368271,
				-0.2811867594718933
			],
			"type":"VEC3"
		},
		{
			"bufferView":5,
			"componentType":5126,
			"count":135,
			"type":"VEC3"
		},
		{
			"bufferView":6,
			"componentType":5126,
			"count":135,
			"type":"VEC2"
		},
		{
			"bufferView":7,
			"componentType":5123,
			"count":600,
			"type":"SCALAR"
		},
		{
			"bufferView":8,
			"componentType":5126,
			"count":80,
			"max":[
				0.29805296659469604,
				0.5770958662033081,
				0.29805296659469604
			],
			"min":[
				-0.29805296659469604,
				0.016333021223545074,
				-0.29805296659469604
			],
			"type":"VEC3"
		},
		{
			"bufferView":9,
			"componentType":5126,
			"count":80,
			"type":"VEC3"
		},
		{
			"bufferView":10,
			"componentType":5126,
			"count":80,
			"type":"VEC2"
		},
		{
			"bufferView":11,
			"componentType":5123,
			"count":216,
			"type":"SCALAR"
		},
		{
			"bufferView":12,
			"componentType":5126,
			"count":664,
			"max":[
				0.29805296659469604,
				0.7330049276351929,
				0.29805296659469604
			],
			"min":[
				-0.29805296659469604,
				0,
				-0.29805296659469604
			],
			"type":"VEC3"
		},
		{
			"bufferView":13,
			"componentType":5126,
			"count":664,
			"type":"VEC3"
		},
		{
			"bufferView":14,
			"componentType":5126,
			"count":664,
			"type":"VEC2"
		},
		{
			"bufferView":15,
			"componentType":5123,
			"count":2700,
			"type":"SCALAR"
		}
	],
	"bufferViews":[
		{
			"buffer":0,
			"byteLength":780,
			"byteOffset":0,
			"target":34962
		},
		{
			"buffer":0,
			"byteLength":780,
			"byteOffset":780,
			"target":34962
		},
		{
			"buffer":0,
			"byteLength":520,
			"byteOffset":1560,
			"target":34962
		},
		{
			"buffer":0,
			"byteLength":576,
			"byteOffset":2080,
			"target":34963
		},
		{
			"buffer":0,
			"byteLength":1620,
			"byteOffset":2656,
			"target":34962
		},
		{
			"buffer":0,
			"byteLength":1620,
			"byteOffset":4276,
			"target":34962
		},
		{
			"buffer":0,
			"byteLength":1080,
			"byteOffset":5896,
			"target":34962
		},
		{
			"buffer":0,
			"byteLength":1200,
			"byteOffset":6976,
			"target":34963
		},
		{
			"buffer":0,
			"byteLength":960,
			"byteOffset":8176,
			"target":34962
		},
		{
			"buffer":0,
			"byteLength":960,
			"byteOffset":9136,
			"target":34962
		},
		{
			"buffer":0,
			"byteLength":640,
			"byteOffset":10096,
			"target":34962
		},
		{
			"buffer":0,
			"byteLength":432,
			"byteOffset":10736,
			"target":34963
		},
		{
			"buffer":0,
			"byteLength":7968,
			"byteOffset":11168,
			"target":34962
		},
		{
			"buffer":0,
			"byteLength":7968,
			"byteOffset":19136,
			"target":34962
		},
		{
			"buffer":0,
			"byteLength":5312,
			"byteOffset":27104,
			"target":34962
		},
		{
			"buffer":0,
			"byteLength":5400,
			"byteOffset":32416,
			"target":34963
		}
	],
	"samplers":[
		{
			"magFilter":9729,
			"minFilter":9987
		}
	],
	"buffers":[
		{
			"byteLength":37816,
			"uri":"obj_feed.bin"
		}
	]
}
