{
	"asset":{
		"generator":"Khronos glTF Blender I/O v4.3.47",
		"version":"2.0"
	},
	"extensionsUsed":[
		"KHR_materials_specular"
	],
	"scene":0,
	"scenes":[
		{
			"name":"Scene",
			"nodes":[
				0,
				1
			]
		}
	],
	"nodes":[
		{
			"mesh":0,
			"name":"obj_puffer"
		},
		{
			"mesh":1,
			"name":"obj_puffer_collider"
		}
	],
	"materials":[
		{
			"emissiveFactor":[
				0.10000000149011612,
				0.10000000149011612,
				0.10000000149011612
			],
			"emissiveTexture":{
				"index":0
			},
			"extensions":{
				"KHR_materials_specular":{
					"specularFactor":0
				}
			},
			"name":"obj_puffer",
			"pbrMetallicRoughness":{
				"baseColorTexture":{
					"index":1
				},
				"metallicFactor":0
			}
		},
		{
			"doubleSided":true,
			"emissiveFactor":[
				0.26229405403137207,
				0.5646868348121643,
				0.921515166759491
			],
			"extensions":{
				"KHR_materials_specular":{
					"specularFactor":0
				}
			},
			"name":"obj_global_emission01",
			"pbrMetallicRoughness":{
				"baseColorFactor":[
					0.2617267668247223,
					0.566400408744812,
					0.9218639135360718,
					1
				],
				"metallicFactor":0
			}
		}
	],
	"meshes":[
		{
			"name":"obj_puffer",
			"primitives":[
				{
					"attributes":{
						"POSITION":0,
						"NORMAL":1,
						"TEXCOORD_0":2
					},
					"indices":3,
					"material":0
				},
				{
					"attributes":{
						"POSITION":4,
						"NORMAL":5,
						"TEXCOORD_0":6
					},
					"indices":7,
					"material":1
				}
			]
		},
		{
			"name":"obj_puffer_collider",
			"primitives":[
				{
					"attributes":{
						"POSITION":8,
						"NORMAL":9,
						"TEXCOORD_0":10
					},
					"indices":11
				}
			]
		}
	],
	"textures":[
		{
			"sampler":0,
			"source":0
		},
		{
			"sampler":0,
			"source":0
		}
	],
	"images":[
		{
			"mimeType":"image/png",
			"name":"obj_puffer",
			"uri":"textures/obj_puffer.png"
		}
	],
	"accessors":[
		{
			"bufferView":0,
			"componentType":5126,
			"count":6728,
			"max":[
				66.0008544921875,
				20.906774520874023,
				59.47807312011719
			],
			"min":[
				-48.417022705078125,
				0.30000001192092896,
				-58.699737548828125
			],
			"type":"VEC3"
		},
		{
			"bufferView":1,
			"componentType":5126,
			"count":6728,
			"type":"VEC3"
		},
		{
			"bufferView":2,
			"componentType":5126,
			"count":6728,
			"type":"VEC2"
		},
		{
			"bufferView":3,
			"componentType":5123,
			"count":31920,
			"type":"SCALAR"
		},
		{
			"bufferView":4,
			"componentType":5126,
			"count":293,
			"max":[
				44.46794128417969,
				1.1810182332992554,
				-57.107521057128906
			],
			"min":[
				42.888919830322266,
				0.5260512232780457,
				-58.64820861816406
			],
			"type":"VEC3"
		},
		{
			"bufferView":5,
			"componentType":5126,
			"count":293,
			"type":"VEC3"
		},
		{
			"bufferView":6,
			"componentType":5126,
			"count":293,
			"type":"VEC2"
		},
		{
			"bufferView":7,
			"componentType":5123,
			"count":1266,
			"type":"SCALAR"
		},
		{
			"bufferView":8,
			"componentType":5126,
			"count":5400,
			"max":[
				66.02910614013672,
				20.905424118041992,
				59.55673599243164
			],
			"min":[
				-48.44051742553711,
				0.29760515689849854,
				-58.77873992919922
			],
			"type":"VEC3"
		},
		{
			"bufferView":9,
			"componentType":5126,
			"count":5400,
			"type":"VEC3"
		},
		{
			"bufferView":10,
			"componentType":5126,
			"count":5400,
			"type":"VEC2"
		},
		{
			"bufferView":11,
			"componentType":5123,
			"count":12312,
			"type":"SCALAR"
		}
	],
	"bufferViews":[
		{
			"buffer":0,
			"byteLength":80736,
			"byteOffset":0,
			"target":34962
		},
		{
			"buffer":0,
			"byteLength":80736,
			"byteOffset":80736,
			"target":34962
		},
		{
			"buffer":0,
			"byteLength":53824,
			"byteOffset":161472,
			"target":34962
		},
		{
			"buffer":0,
			"byteLength":63840,
			"byteOffset":215296,
			"target":34963
		},
		{
			"buffer":0,
			"byteLength":3516,
			"byteOffset":279136,
			"target":34962
		},
		{
			"buffer":0,
			"byteLength":3516,
			"byteOffset":282652,
			"target":34962
		},
		{
			"buffer":0,
			"byteLength":2344,
			"byteOffset":286168,
			"target":34962
		},
		{
			"buffer":0,
			"byteLength":2532,
			"byteOffset":288512,
			"target":34963
		},
		{
			"buffer":0,
			"byteLength":64800,
			"byteOffset":291044,
			"target":34962
		},
		{
			"buffer":0,
			"byteLength":64800,
			"byteOffset":355844,
			"target":34962
		},
		{
			"buffer":0,
			"byteLength":43200,
			"byteOffset":420644,
			"target":34962
		},
		{
			"buffer":0,
			"byteLength":24624,
			"byteOffset":463844,
			"target":34963
		}
	],
	"samplers":[
		{
			"magFilter":9729,
			"minFilter":9987
		}
	],
	"buffers":[
		{
			"byteLength":488468,
			"uri":"obj_puffer.bin"
		}
	]
}
