{
	"asset":{
		"generator":"Khronos glTF Blender I/O v4.1.63",
		"version":"2.0"
	},
	"extensionsUsed":[
		"KHR_materials_specular",
		"KHR_materials_ior"
	],
	"scene":0,
	"scenes":[
		{
			"name":"Scene",
			"nodes":[
				0,
				1
			]
		}
	],
	"nodes":[
		{
			"mesh":0,
			"name":"obj_estates"
		},
		{
			"mesh":1,
			"name":"obj_estates_collider"
		}
	],
	"materials":[
		{
			"emissiveFactor":[
				0.05000000074505806,
				0.05000000074505806,
				0.05000000074505806
			],
			"emissiveTexture":{
				"index":0
			},
			"extensions":{
				"KHR_materials_specular":{
					"specularFactor":0
				},
				"KHR_materials_ior":{
					"ior":1.4500000476837158
				}
			},
			"name":"obj_sign01",
			"pbrMetallicRoughness":{
				"baseColorTexture":{
					"index":1
				},
				"metallicFactor":0
			}
		},
		{
			"emissiveFactor":[
				0.26224830746650696,
				0.5647120475769043,
				0.9215821027755737
			],
			"extensions":{
				"KHR_materials_specular":{
					"specularFactor":0
				},
				"KHR_materials_ior":{
					"ior":1.4500000476837158
				}
			},
			"name":"obj_global_emission01",
			"pbrMetallicRoughness":{
				"baseColorFactor":[
					0.2617267668247223,
					0.566400408744812,
					0.9218639135360718,
					1
				],
				"metallicFactor":0
			}
		}
	],
	"meshes":[
		{
			"name":"Mesh.010",
			"primitives":[
				{
					"attributes":{
						"POSITION":0,
						"NORMAL":1,
						"TEXCOORD_0":2
					},
					"indices":3,
					"material":0
				},
				{
					"attributes":{
						"POSITION":4,
						"NORMAL":5,
						"TEXCOORD_0":6
					},
					"indices":7,
					"material":1
				}
			]
		},
		{
			"name":"Mesh.012",
			"primitives":[
				{
					"attributes":{
						"POSITION":8,
						"NORMAL":9,
						"TEXCOORD_0":10
					},
					"indices":11
				}
			]
		}
	],
	"textures":[
		{
			"sampler":0,
			"source":0
		},
		{
			"sampler":0,
			"source":0
		}
	],
	"images":[
		{
			"mimeType":"image/png",
			"name":"obj_sign01",
			"uri":"textures/obj_sign01.png"
		}
	],
	"accessors":[
		{
			"bufferView":0,
			"componentType":5126,
			"count":602,
			"max":[
				1.032708764076233,
				2.8144240379333496,
				0.09374847263097763
			],
			"min":[
				-1.032708764076233,
				0,
				-0.09374851733446121
			],
			"type":"VEC3"
		},
		{
			"bufferView":1,
			"componentType":5126,
			"count":602,
			"type":"VEC3"
		},
		{
			"bufferView":2,
			"componentType":5126,
			"count":602,
			"type":"VEC2"
		},
		{
			"bufferView":3,
			"componentType":5123,
			"count":1884,
			"type":"SCALAR"
		},
		{
			"bufferView":4,
			"componentType":5126,
			"count":352,
			"max":[
				1.019032597541809,
				2.8018314838409424,
				0.09495741873979568
			],
			"min":[
				-1.019032597541809,
				0.012592636048793793,
				-0.09374851733446121
			],
			"type":"VEC3"
		},
		{
			"bufferView":5,
			"componentType":5126,
			"count":352,
			"type":"VEC3"
		},
		{
			"bufferView":6,
			"componentType":5126,
			"count":352,
			"type":"VEC2"
		},
		{
			"bufferView":7,
			"componentType":5123,
			"count":924,
			"type":"SCALAR"
		},
		{
			"bufferView":8,
			"componentType":5126,
			"count":642,
			"max":[
				1.008811354637146,
				2.8144240379333496,
				0.09374851733446121
			],
			"min":[
				-1.032708764076233,
				0,
				-0.09374851733446121
			],
			"type":"VEC3"
		},
		{
			"bufferView":9,
			"componentType":5126,
			"count":642,
			"type":"VEC3"
		},
		{
			"bufferView":10,
			"componentType":5126,
			"count":642,
			"type":"VEC2"
		},
		{
			"bufferView":11,
			"componentType":5123,
			"count":2736,
			"type":"SCALAR"
		}
	],
	"bufferViews":[
		{
			"buffer":0,
			"byteLength":7224,
			"byteOffset":0,
			"target":34962
		},
		{
			"buffer":0,
			"byteLength":7224,
			"byteOffset":7224,
			"target":34962
		},
		{
			"buffer":0,
			"byteLength":4816,
			"byteOffset":14448,
			"target":34962
		},
		{
			"buffer":0,
			"byteLength":3768,
			"byteOffset":19264,
			"target":34963
		},
		{
			"buffer":0,
			"byteLength":4224,
			"byteOffset":23032,
			"target":34962
		},
		{
			"buffer":0,
			"byteLength":4224,
			"byteOffset":27256,
			"target":34962
		},
		{
			"buffer":0,
			"byteLength":2816,
			"byteOffset":31480,
			"target":34962
		},
		{
			"buffer":0,
			"byteLength":1848,
			"byteOffset":34296,
			"target":34963
		},
		{
			"buffer":0,
			"byteLength":7704,
			"byteOffset":36144,
			"target":34962
		},
		{
			"buffer":0,
			"byteLength":7704,
			"byteOffset":43848,
			"target":34962
		},
		{
			"buffer":0,
			"byteLength":5136,
			"byteOffset":51552,
			"target":34962
		},
		{
			"buffer":0,
			"byteLength":5472,
			"byteOffset":56688,
			"target":34963
		}
	],
	"samplers":[
		{
			"magFilter":9729,
			"minFilter":9987
		}
	],
	"buffers":[
		{
			"byteLength":62160,
			"uri":"obj_estates.bin"
		}
	]
}
