{
	"asset":{
		"generator":"Khronos glTF Blender I/O v4.1.63",
		"version":"2.0"
	},
	"extensionsUsed":[
		"KHR_materials_specular",
		"KHR_materials_ior"
	],
	"scene":0,
	"scenes":[
		{
			"name":"Scene",
			"nodes":[
				0,
				1
			]
		}
	],
	"nodes":[
		{
			"mesh":0,
			"name":"obj_seat03"
		},
		{
			"mesh":1,
			"name":"obj_seat03_collider"
		}
	],
	"materials":[
		{
			"emissiveFactor":[
				0.10000000149011612,
				0.10000000149011612,
				0.10000000149011612
			],
			"emissiveTexture":{
				"index":0
			},
			"extensions":{
				"KHR_materials_specular":{
					"specularFactor":0
				},
				"KHR_materials_ior":{
					"ior":1.4500000476837158
				}
			},
			"name":"obj_seat03",
			"pbrMetallicRoughness":{
				"baseColorTexture":{
					"index":1
				},
				"metallicFactor":0
			}
		}
	],
	"meshes":[
		{
			"name":"Mesh.280",
			"primitives":[
				{
					"attributes":{
						"POSITION":0,
						"NORMAL":1,
						"TEXCOORD_0":2
					},
					"indices":3,
					"material":0
				}
			]
		},
		{
			"name":"Mesh.023",
			"primitives":[
				{
					"attributes":{
						"POSITION":4,
						"NORMAL":5,
						"TEXCOORD_0":6
					},
					"indices":7
				}
			]
		}
	],
	"textures":[
		{
			"sampler":0,
			"source":0
		},
		{
			"sampler":0,
			"source":0
		}
	],
	"images":[
		{
			"mimeType":"image/png",
			"name":"obj_seat03",
			"uri":"textures/obj_seat03.png"
		}
	],
	"accessors":[
		{
			"bufferView":0,
			"componentType":5126,
			"count":634,
			"max":[
				0.31817275285720825,
				1.1918363571166992,
				0.3374999165534973
			],
			"min":[
				-0.35778382420539856,
				-2.44356392897771e-08,
				-0.33515703678131104
			],
			"type":"VEC3"
		},
		{
			"bufferView":1,
			"componentType":5126,
			"count":634,
			"type":"VEC3"
		},
		{
			"bufferView":2,
			"componentType":5126,
			"count":634,
			"type":"VEC2"
		},
		{
			"bufferView":3,
			"componentType":5123,
			"count":1560,
			"type":"SCALAR"
		},
		{
			"bufferView":4,
			"componentType":5126,
			"count":210,
			"max":[
				0.3176092207431793,
				1.190504789352417,
				0.33821380138397217
			],
			"min":[
				-0.3578616678714752,
				-1.2650320790896785e-08,
				-0.3338582515716553
			],
			"type":"VEC3"
		},
		{
			"bufferView":5,
			"componentType":5126,
			"count":210,
			"type":"VEC3"
		},
		{
			"bufferView":6,
			"componentType":5126,
			"count":210,
			"type":"VEC2"
		},
		{
			"bufferView":7,
			"componentType":5123,
			"count":444,
			"type":"SCALAR"
		}
	],
	"bufferViews":[
		{
			"buffer":0,
			"byteLength":7608,
			"byteOffset":0,
			"target":34962
		},
		{
			"buffer":0,
			"byteLength":7608,
			"byteOffset":7608,
			"target":34962
		},
		{
			"buffer":0,
			"byteLength":5072,
			"byteOffset":15216,
			"target":34962
		},
		{
			"buffer":0,
			"byteLength":3120,
			"byteOffset":20288,
			"target":34963
		},
		{
			"buffer":0,
			"byteLength":2520,
			"byteOffset":23408,
			"target":34962
		},
		{
			"buffer":0,
			"byteLength":2520,
			"byteOffset":25928,
			"target":34962
		},
		{
			"buffer":0,
			"byteLength":1680,
			"byteOffset":28448,
			"target":34962
		},
		{
			"buffer":0,
			"byteLength":888,
			"byteOffset":30128,
			"target":34963
		}
	],
	"samplers":[
		{
			"magFilter":9729,
			"minFilter":9987
		}
	],
	"buffers":[
		{
			"byteLength":31016,
			"uri":"obj_seat03.bin"
		}
	]
}
