{
	"asset":{
		"generator":"Khronos glTF Blender I/O v4.3.47",
		"version":"2.0"
	},
	"extensionsUsed":[
		"KHR_materials_specular"
	],
	"scene":0,
	"scenes":[
		{
			"name":"Scene",
			"nodes":[
				0,
				1
			]
		}
	],
	"nodes":[
		{
			"mesh":0,
			"name":"obj_wall"
		},
		{
			"mesh":1,
			"name":"obj_wall_collider"
		}
	],
	"materials":[
		{
			"emissiveFactor":[
				0.10000000149011612,
				0.10000000149011612,
				0.10000000149011612
			],
			"emissiveTexture":{
				"index":0
			},
			"extensions":{
				"KHR_materials_specular":{
					"specularFactor":0
				}
			},
			"name":"obj_wall",
			"pbrMetallicRoughness":{
				"baseColorTexture":{
					"index":1
				},
				"metallicFactor":0
			}
		},
		{
			"doubleSided":true,
			"emissiveFactor":[
				0.26229405403137207,
				0.5646868348121643,
				0.921515166759491
			],
			"extensions":{
				"KHR_materials_specular":{
					"specularFactor":0
				}
			},
			"name":"obj_global_emission01",
			"pbrMetallicRoughness":{
				"baseColorFactor":[
					0.2617267668247223,
					0.566400408744812,
					0.9218639135360718,
					1
				],
				"metallicFactor":0
			}
		}
	],
	"meshes":[
		{
			"name":"obj_wall",
			"primitives":[
				{
					"attributes":{
						"POSITION":0,
						"NORMAL":1,
						"TEXCOORD_0":2
					},
					"indices":3,
					"material":0
				},
				{
					"attributes":{
						"POSITION":4,
						"NORMAL":5,
						"TEXCOORD_0":6
					},
					"indices":7,
					"material":1
				}
			]
		},
		{
			"name":"obj_wall_collider",
			"primitives":[
				{
					"attributes":{
						"POSITION":8,
						"NORMAL":9,
						"TEXCOORD_0":10,
						"TEXCOORD_1":11
					},
					"indices":12
				}
			]
		}
	],
	"textures":[
		{
			"sampler":0,
			"source":0
		},
		{
			"sampler":0,
			"source":0
		}
	],
	"images":[
		{
			"mimeType":"image/png",
			"name":"obj_wall",
			"uri":"textures/obj_wall.png"
		}
	],
	"accessors":[
		{
			"bufferView":0,
			"componentType":5126,
			"count":8738,
			"max":[
				71.39350128173828,
				28.682144165039062,
				59.262939453125
			],
			"min":[
				-64.7332534790039,
				16.367122650146484,
				-36.409507751464844
			],
			"type":"VEC3"
		},
		{
			"bufferView":1,
			"componentType":5126,
			"count":8738,
			"type":"VEC3"
		},
		{
			"bufferView":2,
			"componentType":5126,
			"count":8738,
			"type":"VEC2"
		},
		{
			"bufferView":3,
			"componentType":5123,
			"count":25500,
			"type":"SCALAR"
		},
		{
			"bufferView":4,
			"componentType":5126,
			"count":544,
			"max":[
				70.6072006225586,
				28.682144165039062,
				58.19609069824219
			],
			"min":[
				-63.66804504394531,
				16.367122650146484,
				-35.61316680908203
			],
			"type":"VEC3"
		},
		{
			"bufferView":5,
			"componentType":5126,
			"count":544,
			"type":"VEC3"
		},
		{
			"bufferView":6,
			"componentType":5126,
			"count":544,
			"type":"VEC2"
		},
		{
			"bufferView":7,
			"componentType":5123,
			"count":1326,
			"type":"SCALAR"
		},
		{
			"bufferView":8,
			"componentType":5126,
			"count":1935,
			"max":[
				71.39350128173828,
				28.682144165039062,
				59.262939453125
			],
			"min":[
				-64.7332534790039,
				16.367122650146484,
				-36.409507751464844
			],
			"type":"VEC3"
		},
		{
			"bufferView":9,
			"componentType":5126,
			"count":1935,
			"type":"VEC3"
		},
		{
			"bufferView":10,
			"componentType":5126,
			"count":1935,
			"type":"VEC2"
		},
		{
			"bufferView":11,
			"componentType":5126,
			"count":1935,
			"type":"VEC2"
		},
		{
			"bufferView":12,
			"componentType":5123,
			"count":6018,
			"type":"SCALAR"
		}
	],
	"bufferViews":[
		{
			"buffer":0,
			"byteLength":104856,
			"byteOffset":0,
			"target":34962
		},
		{
			"buffer":0,
			"byteLength":104856,
			"byteOffset":104856,
			"target":34962
		},
		{
			"buffer":0,
			"byteLength":69904,
			"byteOffset":209712,
			"target":34962
		},
		{
			"buffer":0,
			"byteLength":51000,
			"byteOffset":279616,
			"target":34963
		},
		{
			"buffer":0,
			"byteLength":6528,
			"byteOffset":330616,
			"target":34962
		},
		{
			"buffer":0,
			"byteLength":6528,
			"byteOffset":337144,
			"target":34962
		},
		{
			"buffer":0,
			"byteLength":4352,
			"byteOffset":343672,
			"target":34962
		},
		{
			"buffer":0,
			"byteLength":2652,
			"byteOffset":348024,
			"target":34963
		},
		{
			"buffer":0,
			"byteLength":23220,
			"byteOffset":350676,
			"target":34962
		},
		{
			"buffer":0,
			"byteLength":23220,
			"byteOffset":373896,
			"target":34962
		},
		{
			"buffer":0,
			"byteLength":15480,
			"byteOffset":397116,
			"target":34962
		},
		{
			"buffer":0,
			"byteLength":15480,
			"byteOffset":412596,
			"target":34962
		},
		{
			"buffer":0,
			"byteLength":12036,
			"byteOffset":428076,
			"target":34963
		}
	],
	"samplers":[
		{
			"magFilter":9729,
			"minFilter":9987
		}
	],
	"buffers":[
		{
			"byteLength":440112,
			"uri":"obj_wall.bin"
		}
	]
}
