{
	"asset":{
		"generator":"Khronos glTF Blender I/O v4.1.63",
		"version":"2.0"
	},
	"extensionsUsed":[
		"KHR_materials_specular",
		"KHR_materials_ior"
	],
	"scene":0,
	"scenes":[
		{
			"name":"Scene",
			"nodes":[
				0,
				1
			]
		}
	],
	"nodes":[
		{
			"mesh":0,
			"name":"obj_fence03_collider"
		},
		{
			"mesh":1,
			"name":"obj_fence03"
		}
	],
	"materials":[
		{
			"emissiveFactor":[
				1,
				1,
				1
			],
			"emissiveTexture":{
				"index":0
			},
			"extensions":{
				"KHR_materials_specular":{
					"specularFactor":0
				},
				"KHR_materials_ior":{
					"ior":1.4500000476837158
				}
			},
			"name":"obj_fence03_01",
			"pbrMetallicRoughness":{
				"baseColorTexture":{
					"index":1
				},
				"metallicFactor":0
			}
		},
		{
			"alphaMode":"BLEND",
			"doubleSided":true,
			"emissiveFactor":[
				1,
				1,
				1
			],
			"emissiveTexture":{
				"index":2
			},
			"extensions":{
				"KHR_materials_specular":{
					"specularFactor":0
				},
				"KHR_materials_ior":{
					"ior":1.4500000476837158
				}
			},
			"name":"obj_fence03_02",
			"pbrMetallicRoughness":{
				"baseColorTexture":{
					"index":3
				},
				"metallicFactor":0
			}
		}
	],
	"meshes":[
		{
			"name":"Mesh.016",
			"primitives":[
				{
					"attributes":{
						"POSITION":0,
						"NORMAL":1,
						"TEXCOORD_0":2
					},
					"indices":3
				}
			]
		},
		{
			"name":"Mesh.037",
			"primitives":[
				{
					"attributes":{
						"POSITION":4,
						"NORMAL":5,
						"TEXCOORD_0":6
					},
					"indices":7,
					"material":0
				},
				{
					"attributes":{
						"POSITION":8,
						"NORMAL":9,
						"TEXCOORD_0":10
					},
					"indices":11,
					"material":1
				}
			]
		}
	],
	"textures":[
		{
			"sampler":0,
			"source":0
		},
		{
			"sampler":1,
			"source":1
		},
		{
			"sampler":0,
			"source":2
		},
		{
			"sampler":0,
			"source":3
		}
	],
	"images":[
		{
			"mimeType":"image/png",
			"name":"obj_fence03_01_emission",
			"uri":"textures/obj_fence03_01_emission.png"
		},
		{
			"mimeType":"image/png",
			"name":"obj_fence03_01",
			"uri":"textures/obj_fence03_01.png"
		},
		{
			"mimeType":"image/png",
			"name":"obj_fence03_02_emission",
			"uri":"textures/obj_fence03_02_emission.png"
		},
		{
			"mimeType":"image/png",
			"name":"obj_fence03_02",
			"uri":"textures/obj_fence03_02.png"
		}
	],
	"accessors":[
		{
			"bufferView":0,
			"componentType":5126,
			"count":340,
			"max":[
				0.4953182339668274,
				2.045750379562378,
				59.33191680908203
			],
			"min":[
				-50.97901916503906,
				0.2919449508190155,
				2.378601551055908
			],
			"type":"VEC3"
		},
		{
			"bufferView":1,
			"componentType":5126,
			"count":340,
			"type":"VEC3"
		},
		{
			"bufferView":2,
			"componentType":5126,
			"count":340,
			"type":"VEC2"
		},
		{
			"bufferView":3,
			"componentType":5123,
			"count":1518,
			"type":"SCALAR"
		},
		{
			"bufferView":4,
			"componentType":5126,
			"count":42397,
			"max":[
				0.4125281274318695,
				1.997748613357544,
				59.220733642578125
			],
			"min":[
				-50.984920501708984,
				0.29194462299346924,
				2.264620304107666
			],
			"type":"VEC3"
		},
		{
			"bufferView":5,
			"componentType":5126,
			"count":42397,
			"type":"VEC3"
		},
		{
			"bufferView":6,
			"componentType":5126,
			"count":42397,
			"type":"VEC2"
		},
		{
			"bufferView":7,
			"componentType":5123,
			"count":90936,
			"type":"SCALAR"
		},
		{
			"bufferView":8,
			"componentType":5126,
			"count":3154,
			"max":[
				0.1386352777481079,
				1.9722198247909546,
				58.938838958740234
			],
			"min":[
				-50.68043899536133,
				0.821814775466919,
				2.571685314178467
			],
			"type":"VEC3"
		},
		{
			"bufferView":9,
			"componentType":5126,
			"count":3154,
			"type":"VEC3"
		},
		{
			"bufferView":10,
			"componentType":5126,
			"count":3154,
			"type":"VEC2"
		},
		{
			"bufferView":11,
			"componentType":5123,
			"count":8964,
			"type":"SCALAR"
		}
	],
	"bufferViews":[
		{
			"buffer":0,
			"byteLength":4080,
			"byteOffset":0,
			"target":34962
		},
		{
			"buffer":0,
			"byteLength":4080,
			"byteOffset":4080,
			"target":34962
		},
		{
			"buffer":0,
			"byteLength":2720,
			"byteOffset":8160,
			"target":34962
		},
		{
			"buffer":0,
			"byteLength":3036,
			"byteOffset":10880,
			"target":34963
		},
		{
			"buffer":0,
			"byteLength":508764,
			"byteOffset":13916,
			"target":34962
		},
		{
			"buffer":0,
			"byteLength":508764,
			"byteOffset":522680,
			"target":34962
		},
		{
			"buffer":0,
			"byteLength":339176,
			"byteOffset":1031444,
			"target":34962
		},
		{
			"buffer":0,
			"byteLength":181872,
			"byteOffset":1370620,
			"target":34963
		},
		{
			"buffer":0,
			"byteLength":37848,
			"byteOffset":1552492,
			"target":34962
		},
		{
			"buffer":0,
			"byteLength":37848,
			"byteOffset":1590340,
			"target":34962
		},
		{
			"buffer":0,
			"byteLength":25232,
			"byteOffset":1628188,
			"target":34962
		},
		{
			"buffer":0,
			"byteLength":17928,
			"byteOffset":1653420,
			"target":34963
		}
	],
	"samplers":[
		{
			"magFilter":9729,
			"minFilter":9987
		},
		{
			"magFilter":9729,
			"minFilter":9987,
			"wrapS":33071,
			"wrapT":33071
		}
	],
	"buffers":[
		{
			"byteLength":1671348,
			"uri":"obj_fence03.bin"
		}
	]
}
