{
	"asset":{
		"generator":"Khronos glTF Blender I/O v4.1.63",
		"version":"2.0"
	},
	"extensionsUsed":[
		"KHR_materials_specular",
		"KHR_materials_ior"
	],
	"scene":0,
	"scenes":[
		{
			"name":"Scene",
			"nodes":[
				0,
				1
			]
		}
	],
	"nodes":[
		{
			"mesh":0,
			"name":"obj_war"
		},
		{
			"mesh":1,
			"name":"obj_war_collider"
		}
	],
	"materials":[
		{
			"emissiveFactor":[
				1,
				1,
				1
			],
			"emissiveTexture":{
				"index":0
			},
			"extensions":{
				"KHR_materials_specular":{
					"specularFactor":0
				},
				"KHR_materials_ior":{
					"ior":1.4500000476837158
				}
			},
			"name":"obj_war03",
			"pbrMetallicRoughness":{
				"baseColorTexture":{
					"index":1
				},
				"metallicFactor":0
			}
		},
		{
			"alphaMode":"BLEND",
			"doubleSided":true,
			"emissiveFactor":[
				0.1384306102991104,
				0.6795418858528137,
				0.8307697176933289
			],
			"name":"obj_gradient01",
			"pbrMetallicRoughness":{
				"baseColorFactor":[
					0.1384306102991104,
					0.6795418858528137,
					0.8307697176933289,
					1
				],
				"baseColorTexture":{
					"index":2
				},
				"metallicFactor":0
			}
		},
		{
			"emissiveFactor":[
				1,
				1,
				1
			],
			"emissiveTexture":{
				"index":3
			},
			"extensions":{
				"KHR_materials_specular":{
					"specularFactor":0
				},
				"KHR_materials_ior":{
					"ior":1.4500000476837158
				}
			},
			"name":"obj_war01",
			"pbrMetallicRoughness":{
				"baseColorTexture":{
					"index":4
				},
				"metallicFactor":0
			}
		},
		{
			"emissiveFactor":[
				1,
				1,
				1
			],
			"emissiveTexture":{
				"index":5
			},
			"extensions":{
				"KHR_materials_specular":{
					"specularFactor":0
				},
				"KHR_materials_ior":{
					"ior":1.4500000476837158
				}
			},
			"name":"obj_war02",
			"pbrMetallicRoughness":{
				"baseColorTexture":{
					"index":6
				},
				"metallicFactor":0
			}
		},
		{
			"emissiveFactor":[
				0.10000000149011612,
				0.10000000149011612,
				0.10000000149011612
			],
			"emissiveTexture":{
				"index":7
			},
			"extensions":{
				"KHR_materials_specular":{
					"specularFactor":0
				},
				"KHR_materials_ior":{
					"ior":1.4500000476837158
				}
			},
			"name":"obj_war04",
			"pbrMetallicRoughness":{
				"baseColorTexture":{
					"index":8
				},
				"metallicFactor":0
			}
		},
		{
			"emissiveFactor":[
				0.10000000149011612,
				0.10000000149011612,
				0.10000000149011612
			],
			"emissiveTexture":{
				"index":9
			},
			"extensions":{
				"KHR_materials_specular":{
					"specularFactor":0
				},
				"KHR_materials_ior":{
					"ior":1.4500000476837158
				}
			},
			"name":"obj_stickers01",
			"pbrMetallicRoughness":{
				"baseColorTexture":{
					"index":10
				},
				"metallicFactor":0
			}
		},
		{
			"emissiveFactor":[
				0.10000000149011612,
				0.10000000149011612,
				0.10000000149011612
			],
			"emissiveTexture":{
				"index":11
			},
			"extensions":{
				"KHR_materials_specular":{
					"specularFactor":0
				},
				"KHR_materials_ior":{
					"ior":1.4500000476837158
				}
			},
			"name":"obj_stickers02",
			"pbrMetallicRoughness":{
				"baseColorTexture":{
					"index":12
				},
				"metallicFactor":0
			}
		}
	],
	"meshes":[
		{
			"name":"Mesh.077",
			"primitives":[
				{
					"attributes":{
						"POSITION":0,
						"NORMAL":1,
						"TEXCOORD_0":2
					},
					"indices":3,
					"material":0
				},
				{
					"attributes":{
						"POSITION":4,
						"NORMAL":5,
						"TEXCOORD_0":6
					},
					"indices":7,
					"material":1
				},
				{
					"attributes":{
						"POSITION":8,
						"NORMAL":9,
						"TEXCOORD_0":10
					},
					"indices":11,
					"material":2
				},
				{
					"attributes":{
						"POSITION":12,
						"NORMAL":13,
						"TEXCOORD_0":14
					},
					"indices":15,
					"material":3
				},
				{
					"attributes":{
						"POSITION":16,
						"NORMAL":17,
						"TEXCOORD_0":18
					},
					"indices":19,
					"material":4
				},
				{
					"attributes":{
						"POSITION":20,
						"NORMAL":21,
						"TEXCOORD_0":22
					},
					"indices":23,
					"material":5
				},
				{
					"attributes":{
						"POSITION":24,
						"NORMAL":25,
						"TEXCOORD_0":26
					},
					"indices":27,
					"material":6
				}
			]
		},
		{
			"name":"Mesh",
			"primitives":[
				{
					"attributes":{
						"POSITION":28,
						"NORMAL":29,
						"TEXCOORD_0":30
					},
					"indices":31
				}
			]
		}
	],
	"textures":[
		{
			"sampler":0,
			"source":0
		},
		{
			"sampler":0,
			"source":1
		},
		{
			"sampler":0,
			"source":2
		},
		{
			"sampler":0,
			"source":3
		},
		{
			"sampler":0,
			"source":4
		},
		{
			"sampler":0,
			"source":5
		},
		{
			"sampler":0,
			"source":6
		},
		{
			"sampler":0,
			"source":7
		},
		{
			"sampler":0,
			"source":7
		},
		{
			"sampler":0,
			"source":8
		},
		{
			"sampler":0,
			"source":8
		},
		{
			"sampler":0,
			"source":9
		},
		{
			"sampler":0,
			"source":9
		}
	],
	"images":[
		{
			"mimeType":"image/png",
			"name":"obj_war03_emission",
			"uri":"textures/obj_war03_emission.png"
		},
		{
			"mimeType":"image/png",
			"name":"obj_war03",
			"uri":"textures/obj_war03.png"
		},
		{
			"mimeType":"image/png",
			"name":"obj_gradient01",
			"uri":"textures/obj_gradient01.png"
		},
		{
			"mimeType":"image/png",
			"name":"obj_war01_emission",
			"uri":"textures/obj_war01_emission.png"
		},
		{
			"mimeType":"image/png",
			"name":"obj_war01",
			"uri":"textures/obj_war01.png"
		},
		{
			"mimeType":"image/png",
			"name":"obj_war02_emission",
			"uri":"textures/obj_war02_emission.png"
		},
		{
			"mimeType":"image/png",
			"name":"obj_war02",
			"uri":"textures/obj_war02.png"
		},
		{
			"mimeType":"image/png",
			"name":"obj_war04",
			"uri":"textures/obj_war04.png"
		},
		{
			"mimeType":"image/png",
			"name":"obj_stickers01",
			"uri":"textures/obj_stickers01.png"
		},
		{
			"mimeType":"image/png",
			"name":"obj_stickers02",
			"uri":"textures/obj_stickers02.png"
		}
	],
	"accessors":[
		{
			"bufferView":0,
			"componentType":5126,
			"count":972,
			"max":[
				4.223564147949219,
				9.359320640563965,
				4.278004169464111
			],
			"min":[
				-4.223565101623535,
				5.413408279418945,
				-4.33734130859375
			],
			"type":"VEC3"
		},
		{
			"bufferView":1,
			"componentType":5126,
			"count":972,
			"type":"VEC3"
		},
		{
			"bufferView":2,
			"componentType":5126,
			"count":972,
			"type":"VEC2"
		},
		{
			"bufferView":3,
			"componentType":5123,
			"count":1500,
			"type":"SCALAR"
		},
		{
			"bufferView":4,
			"componentType":5126,
			"count":60,
			"max":[
				3.418666362762451,
				5.383408069610596,
				3.251084327697754
			],
			"min":[
				-3.4180424213409424,
				3.7411317825317383,
				-3.251084566116333
			],
			"type":"VEC3"
		},
		{
			"bufferView":5,
			"componentType":5126,
			"count":60,
			"type":"VEC3"
		},
		{
			"bufferView":6,
			"componentType":5126,
			"count":60,
			"type":"VEC2"
		},
		{
			"bufferView":7,
			"componentType":5123,
			"count":120,
			"type":"SCALAR"
		},
		{
			"bufferView":8,
			"componentType":5126,
			"count":1078,
			"max":[
				4.858984470367432,
				10.85750961303711,
				4.694918155670166
			],
			"min":[
				-4.858985900878906,
				2.871771584977978e-07,
				-4.694921970367432
			],
			"type":"VEC3"
		},
		{
			"bufferView":9,
			"componentType":5126,
			"count":1078,
			"type":"VEC3"
		},
		{
			"bufferView":10,
			"componentType":5126,
			"count":1078,
			"type":"VEC2"
		},
		{
			"bufferView":11,
			"componentType":5123,
			"count":2352,
			"type":"SCALAR"
		},
		{
			"bufferView":12,
			"componentType":5126,
			"count":664,
			"max":[
				5.335450172424316,
				1.1866194009780884,
				5.106753349304199
			],
			"min":[
				-5.335466384887695,
				0.7483356595039368,
				-5.106767654418945
			],
			"type":"VEC3"
		},
		{
			"bufferView":13,
			"componentType":5126,
			"count":664,
			"type":"VEC3"
		},
		{
			"bufferView":14,
			"componentType":5126,
			"count":664,
			"type":"VEC2"
		},
		{
			"bufferView":15,
			"componentType":5123,
			"count":1140,
			"type":"SCALAR"
		},
		{
			"bufferView":16,
			"componentType":5126,
			"count":64,
			"max":[
				5.01719856262207,
				11.294501304626465,
				4.7716383934021
			],
			"min":[
				-5.01719856262207,
				7.410167694091797,
				-4.771640300750732
			],
			"type":"VEC3"
		},
		{
			"bufferView":17,
			"componentType":5126,
			"count":64,
			"type":"VEC3"
		},
		{
			"bufferView":18,
			"componentType":5126,
			"count":64,
			"type":"VEC2"
		},
		{
			"bufferView":19,
			"componentType":5123,
			"count":90,
			"type":"SCALAR"
		},
		{
			"bufferView":20,
			"componentType":5126,
			"count":354,
			"max":[
				4.516948223114014,
				5.363621711730957,
				3.711874008178711
			],
			"min":[
				-4.415250778198242,
				1.0840591192245483,
				-4.338937759399414
			],
			"type":"VEC3"
		},
		{
			"bufferView":21,
			"componentType":5126,
			"count":354,
			"type":"VEC3"
		},
		{
			"bufferView":22,
			"componentType":5126,
			"count":354,
			"type":"VEC2"
		},
		{
			"bufferView":23,
			"componentType":5123,
			"count":684,
			"type":"SCALAR"
		},
		{
			"bufferView":24,
			"componentType":5126,
			"count":334,
			"max":[
				3.7902438640594482,
				4.961330413818359,
				4.539424419403076
			],
			"min":[
				-4.426915645599365,
				1.0855662822723389,
				-4.447719573974609
			],
			"type":"VEC3"
		},
		{
			"bufferView":25,
			"componentType":5126,
			"count":334,
			"type":"VEC3"
		},
		{
			"bufferView":26,
			"componentType":5126,
			"count":334,
			"type":"VEC2"
		},
		{
			"bufferView":27,
			"componentType":5123,
			"count":642,
			"type":"SCALAR"
		},
		{
			"bufferView":28,
			"componentType":5126,
			"count":742,
			"max":[
				5.3440704345703125,
				11.299779891967773,
				5.113515377044678
			],
			"min":[
				-5.3440704345703125,
				-0.005277344025671482,
				-5.113515377044678
			],
			"type":"VEC3"
		},
		{
			"bufferView":29,
			"componentType":5126,
			"count":742,
			"type":"VEC3"
		},
		{
			"bufferView":30,
			"componentType":5126,
			"count":742,
			"type":"VEC2"
		},
		{
			"bufferView":31,
			"componentType":5123,
			"count":1086,
			"type":"SCALAR"
		}
	],
	"bufferViews":[
		{
			"buffer":0,
			"byteLength":11664,
			"byteOffset":0,
			"target":34962
		},
		{
			"buffer":0,
			"byteLength":11664,
			"byteOffset":11664,
			"target":34962
		},
		{
			"buffer":0,
			"byteLength":7776,
			"byteOffset":23328,
			"target":34962
		},
		{
			"buffer":0,
			"byteLength":3000,
			"byteOffset":31104,
			"target":34963
		},
		{
			"buffer":0,
			"byteLength":720,
			"byteOffset":34104,
			"target":34962
		},
		{
			"buffer":0,
			"byteLength":720,
			"byteOffset":34824,
			"target":34962
		},
		{
			"buffer":0,
			"byteLength":480,
			"byteOffset":35544,
			"target":34962
		},
		{
			"buffer":0,
			"byteLength":240,
			"byteOffset":36024,
			"target":34963
		},
		{
			"buffer":0,
			"byteLength":12936,
			"byteOffset":36264,
			"target":34962
		},
		{
			"buffer":0,
			"byteLength":12936,
			"byteOffset":49200,
			"target":34962
		},
		{
			"buffer":0,
			"byteLength":8624,
			"byteOffset":62136,
			"target":34962
		},
		{
			"buffer":0,
			"byteLength":4704,
			"byteOffset":70760,
			"target":34963
		},
		{
			"buffer":0,
			"byteLength":7968,
			"byteOffset":75464,
			"target":34962
		},
		{
			"buffer":0,
			"byteLength":7968,
			"byteOffset":83432,
			"target":34962
		},
		{
			"buffer":0,
			"byteLength":5312,
			"byteOffset":91400,
			"target":34962
		},
		{
			"buffer":0,
			"byteLength":2280,
			"byteOffset":96712,
			"target":34963
		},
		{
			"buffer":0,
			"byteLength":768,
			"byteOffset":98992,
			"target":34962
		},
		{
			"buffer":0,
			"byteLength":768,
			"byteOffset":99760,
			"target":34962
		},
		{
			"buffer":0,
			"byteLength":512,
			"byteOffset":100528,
			"target":34962
		},
		{
			"buffer":0,
			"byteLength":180,
			"byteOffset":101040,
			"target":34963
		},
		{
			"buffer":0,
			"byteLength":4248,
			"byteOffset":101220,
			"target":34962
		},
		{
			"buffer":0,
			"byteLength":4248,
			"byteOffset":105468,
			"target":34962
		},
		{
			"buffer":0,
			"byteLength":2832,
			"byteOffset":109716,
			"target":34962
		},
		{
			"buffer":0,
			"byteLength":1368,
			"byteOffset":112548,
			"target":34963
		},
		{
			"buffer":0,
			"byteLength":4008,
			"byteOffset":113916,
			"target":34962
		},
		{
			"buffer":0,
			"byteLength":4008,
			"byteOffset":117924,
			"target":34962
		},
		{
			"buffer":0,
			"byteLength":2672,
			"byteOffset":121932,
			"target":34962
		},
		{
			"buffer":0,
			"byteLength":1284,
			"byteOffset":124604,
			"target":34963
		},
		{
			"buffer":0,
			"byteLength":8904,
			"byteOffset":125888,
			"target":34962
		},
		{
			"buffer":0,
			"byteLength":8904,
			"byteOffset":134792,
			"target":34962
		},
		{
			"buffer":0,
			"byteLength":5936,
			"byteOffset":143696,
			"target":34962
		},
		{
			"buffer":0,
			"byteLength":2172,
			"byteOffset":149632,
			"target":34963
		}
	],
	"samplers":[
		{
			"magFilter":9729,
			"minFilter":9987
		}
	],
	"buffers":[
		{
			"byteLength":151804,
			"uri":"obj_war.bin"
		}
	]
}
