{
	"asset":{
		"generator":"Khronos glTF Blender I/O v4.1.63",
		"version":"2.0"
	},
	"extensionsUsed":[
		"KHR_materials_specular",
		"KHR_materials_ior"
	],
	"scene":0,
	"scenes":[
		{
			"name":"Scene",
			"nodes":[
				0,
				1
			]
		}
	],
	"nodes":[
		{
			"mesh":0,
			"name":"obj_ground01",
			"translation":[
				0.0010000000474974513,
				0.0010000000474974513,
				-0.0010000000474974513
			]
		},
		{
			"mesh":1,
			"name":"obj_ground01_collider",
			"translation":[
				0.0010000000474974513,
				0.0010000000474974513,
				-0.0010000000474974513
			]
		}
	],
	"materials":[
		{
			"emissiveFactor":[
				0.25,
				0.25,
				0.25
			],
			"emissiveTexture":{
				"index":0
			},
			"extensions":{
				"KHR_materials_specular":{
					"specularFactor":0,
					"specularColorFactor":[
						0.194618359208107,
						0.3864290118217468,
						0.12214063107967377
					]
				},
				"KHR_materials_ior":{
					"ior":1.4500000476837158
				}
			},
			"name":"obj_ground01",
			"pbrMetallicRoughness":{
				"baseColorTexture":{
					"index":1
				},
				"metallicFactor":0
			}
		}
	],
	"meshes":[
		{
			"name":"Plane.018",
			"primitives":[
				{
					"attributes":{
						"POSITION":0,
						"NORMAL":1,
						"TEXCOORD_0":2
					},
					"indices":3,
					"material":0
				}
			]
		},
		{
			"name":"Plane.029",
			"primitives":[
				{
					"attributes":{
						"POSITION":4,
						"NORMAL":5,
						"TEXCOORD_0":6
					},
					"indices":7
				}
			]
		}
	],
	"textures":[
		{
			"sampler":0,
			"source":0
		},
		{
			"sampler":0,
			"source":0
		}
	],
	"images":[
		{
			"mimeType":"image/png",
			"name":"obj_ground01",
			"uri":"textures/obj_ground01.png"
		}
	],
	"accessors":[
		{
			"bufferView":0,
			"componentType":5126,
			"count":2000,
			"max":[
				51.23417663574219,
				0.3001538813114166,
				-3.9193308353424072
			],
			"min":[
				-11.738226890563965,
				0.17730900645256042,
				-61.57481002807617
			],
			"type":"VEC3"
		},
		{
			"bufferView":1,
			"componentType":5126,
			"count":2000,
			"type":"VEC3"
		},
		{
			"bufferView":2,
			"componentType":5126,
			"count":2000,
			"type":"VEC2"
		},
		{
			"bufferView":3,
			"componentType":5123,
			"count":8988,
			"type":"SCALAR"
		},
		{
			"bufferView":4,
			"componentType":5126,
			"count":1000,
			"max":[
				51.21855163574219,
				0.3001538813114166,
				-3.9193308353424072
			],
			"min":[
				-11.675704002380371,
				0.1773090660572052,
				-61.57481002807617
			],
			"type":"VEC3"
		},
		{
			"bufferView":5,
			"componentType":5126,
			"count":1000,
			"type":"VEC3"
		},
		{
			"bufferView":6,
			"componentType":5126,
			"count":1000,
			"type":"VEC2"
		},
		{
			"bufferView":7,
			"componentType":5123,
			"count":4488,
			"type":"SCALAR"
		}
	],
	"bufferViews":[
		{
			"buffer":0,
			"byteLength":24000,
			"byteOffset":0,
			"target":34962
		},
		{
			"buffer":0,
			"byteLength":24000,
			"byteOffset":24000,
			"target":34962
		},
		{
			"buffer":0,
			"byteLength":16000,
			"byteOffset":48000,
			"target":34962
		},
		{
			"buffer":0,
			"byteLength":17976,
			"byteOffset":64000,
			"target":34963
		},
		{
			"buffer":0,
			"byteLength":12000,
			"byteOffset":81976,
			"target":34962
		},
		{
			"buffer":0,
			"byteLength":12000,
			"byteOffset":93976,
			"target":34962
		},
		{
			"buffer":0,
			"byteLength":8000,
			"byteOffset":105976,
			"target":34962
		},
		{
			"buffer":0,
			"byteLength":8976,
			"byteOffset":113976,
			"target":34963
		}
	],
	"samplers":[
		{
			"magFilter":9729,
			"minFilter":9987
		}
	],
	"buffers":[
		{
			"byteLength":122952,
			"uri":"obj_ground01.bin"
		}
	]
}
