{
	"asset":{
		"generator":"Khronos glTF Blender I/O v4.1.63",
		"version":"2.0"
	},
	"extensionsUsed":[
		"KHR_materials_specular",
		"KHR_materials_ior"
	],
	"scene":0,
	"scenes":[
		{
			"name":"Scene",
			"nodes":[
				0,
				1
			]
		}
	],
	"nodes":[
		{
			"mesh":0,
			"name":"obj_filters_collider"
		},
		{
			"mesh":1,
			"name":"obj_filters"
		}
	],
	"materials":[
		{
			"emissiveFactor":[
				0.10000000149011612,
				0.10000000149011612,
				0.10000000149011612
			],
			"emissiveTexture":{
				"index":0
			},
			"extensions":{
				"KHR_materials_specular":{
					"specularFactor":0.0020000000949949026
				},
				"KHR_materials_ior":{
					"ior":1.4500000476837158
				}
			},
			"name":"obj_filters",
			"pbrMetallicRoughness":{
				"baseColorTexture":{
					"index":1
				},
				"metallicFactor":0
			}
		},
		{
			"emissiveFactor":[
				0.26229405403137207,
				0.5646868348121643,
				0.921515166759491
			],
			"extensions":{
				"KHR_materials_specular":{
					"specularFactor":0
				},
				"KHR_materials_ior":{
					"ior":1.4500000476837158
				}
			},
			"name":"obj_global_emission01",
			"pbrMetallicRoughness":{
				"baseColorFactor":[
					0.2617267668247223,
					0.566400408744812,
					0.9218639135360718,
					1
				],
				"metallicFactor":0
			}
		}
	],
	"meshes":[
		{
			"name":"Cube",
			"primitives":[
				{
					"attributes":{
						"POSITION":0,
						"NORMAL":1,
						"TEXCOORD_0":2
					},
					"indices":3
				}
			]
		},
		{
			"name":"Cube.013",
			"primitives":[
				{
					"attributes":{
						"POSITION":4,
						"NORMAL":5,
						"TEXCOORD_0":6
					},
					"indices":7,
					"material":0
				},
				{
					"attributes":{
						"POSITION":8,
						"NORMAL":9,
						"TEXCOORD_0":10
					},
					"indices":11,
					"material":1
				}
			]
		}
	],
	"textures":[
		{
			"sampler":0,
			"source":0
		},
		{
			"sampler":0,
			"source":0
		}
	],
	"images":[
		{
			"mimeType":"image/png",
			"name":"obj_frame01",
			"uri":"textures/obj_frame01.png"
		}
	],
	"accessors":[
		{
			"bufferView":0,
			"componentType":5126,
			"count":24,
			"max":[
				1.5874526500701904,
				2,
				0.15308213233947754
			],
			"min":[
				-1.5874526500701904,
				0,
				-0.15308213233947754
			],
			"type":"VEC3"
		},
		{
			"bufferView":1,
			"componentType":5126,
			"count":24,
			"type":"VEC3"
		},
		{
			"bufferView":2,
			"componentType":5126,
			"count":24,
			"type":"VEC2"
		},
		{
			"bufferView":3,
			"componentType":5123,
			"count":36,
			"type":"SCALAR"
		},
		{
			"bufferView":4,
			"componentType":5126,
			"count":304,
			"max":[
				1.5538736581802368,
				1.8847143650054932,
				0.13429702818393707
			],
			"min":[
				-1.5538448095321655,
				0.12756407260894775,
				-0.15228423476219177
			],
			"type":"VEC3"
		},
		{
			"bufferView":5,
			"componentType":5126,
			"count":304,
			"type":"VEC3"
		},
		{
			"bufferView":6,
			"componentType":5126,
			"count":304,
			"type":"VEC2"
		},
		{
			"bufferView":7,
			"componentType":5123,
			"count":786,
			"type":"SCALAR"
		},
		{
			"bufferView":8,
			"componentType":5126,
			"count":439,
			"max":[
				1.264819622039795,
				1.6812217235565186,
				-0.09358511120080948
			],
			"min":[
				-1.1519197225570679,
				0.38907891511917114,
				-0.12583042681217194
			],
			"type":"VEC3"
		},
		{
			"bufferView":9,
			"componentType":5126,
			"count":439,
			"type":"VEC3"
		},
		{
			"bufferView":10,
			"componentType":5126,
			"count":439,
			"type":"VEC2"
		},
		{
			"bufferView":11,
			"componentType":5123,
			"count":1035,
			"type":"SCALAR"
		}
	],
	"bufferViews":[
		{
			"buffer":0,
			"byteLength":288,
			"byteOffset":0,
			"target":34962
		},
		{
			"buffer":0,
			"byteLength":288,
			"byteOffset":288,
			"target":34962
		},
		{
			"buffer":0,
			"byteLength":192,
			"byteOffset":576,
			"target":34962
		},
		{
			"buffer":0,
			"byteLength":72,
			"byteOffset":768,
			"target":34963
		},
		{
			"buffer":0,
			"byteLength":3648,
			"byteOffset":840,
			"target":34962
		},
		{
			"buffer":0,
			"byteLength":3648,
			"byteOffset":4488,
			"target":34962
		},
		{
			"buffer":0,
			"byteLength":2432,
			"byteOffset":8136,
			"target":34962
		},
		{
			"buffer":0,
			"byteLength":1572,
			"byteOffset":10568,
			"target":34963
		},
		{
			"buffer":0,
			"byteLength":5268,
			"byteOffset":12140,
			"target":34962
		},
		{
			"buffer":0,
			"byteLength":5268,
			"byteOffset":17408,
			"target":34962
		},
		{
			"buffer":0,
			"byteLength":3512,
			"byteOffset":22676,
			"target":34962
		},
		{
			"buffer":0,
			"byteLength":2070,
			"byteOffset":26188,
			"target":34963
		}
	],
	"samplers":[
		{
			"magFilter":9729,
			"minFilter":9987
		}
	],
	"buffers":[
		{
			"byteLength":28260,
			"uri":"obj_filters.bin"
		}
	]
}
