{
	"asset":{
		"generator":"Khronos glTF Blender I/O v4.1.63",
		"version":"2.0"
	},
	"extensionsUsed":[
		"KHR_materials_specular",
		"KHR_materials_ior"
	],
	"scene":0,
	"scenes":[
		{
			"name":"Scene",
			"nodes":[
				11
			]
		}
	],
	"nodes":[
		{
			"name":"claw.003",
			"rotation":[
				-0.2217361032962799,
				-0.0036505134776234627,
				-0.0005863002152182162,
				0.9750997424125671
			],
			"scale":[
				1,
				0.9999999403953552,
				1.0000001192092896
			],
			"translation":[
				0.0006217040354385972,
				1.3120743036270142,
				-0.08013452589511871
			]
		},
		{
			"name":"claw.004",
			"rotation":[
				0.1702975481748581,
				0.10530829429626465,
				-0.19343936443328857,
				0.9604634642601013
			],
			"scale":[
				1,
				1,
				1.0000001192092896
			],
			"translation":[
				0.065372996032238,
				1.306552767753601,
				0.03487986698746681
			]
		},
		{
			"name":"claw.005",
			"rotation":[
				0.13173320889472961,
				0.04768266901373863,
				0.2216438353061676,
				0.9650112986564636
			],
			"scale":[
				0.9999999403953552,
				0.9999999403953552,
				1
			],
			"translation":[
				-0.06625775247812271,
				1.306533932685852,
				0.03311852738261223
			]
		},
		{
			"mesh":1,
			"name":"obj_claw02_03_collider",
			"rotation":[
				-0.8462918400764465,
				-0.0023265969939529896,
				-0.0026686443015933037,
				0.5327078104019165
			],
			"scale":[
				0.9999998807907104,
				0.9999998807907104,
				0.9999999403953552
			],
			"translation":[
				1.4406722357307444e-06,
				0.0006378893158398569,
				-0.0003058016300201416
			]
		},
		{
			"children":[
				0,
				1,
				2,
				3
			],
			"name":"claw.002",
			"rotation":[
				0.679722011089325,
				0.002937458921223879,
				0.0019762751180678606,
				0.7334612607955933
			],
			"scale":[
				1,
				1.0000001192092896,
				1.0000001192092896
			],
			"translation":[
				7.351499746140796e-15,
				1.6627824306488037,
				-1.4901161193847656e-08
			]
		},
		{
			"mesh":2,
			"name":"obj_claw02_02_collider",
			"rotation":[
				-0.2586323618888855,
				-2.3030669638046675e-07,
				-6.16627744420839e-08,
				0.965975821018219
			],
			"scale":[
				1,
				0.9999998211860657,
				0.9999999403953552
			],
			"translation":[
				3.818793154961031e-14,
				-3.3620744943618774e-07,
				-8.940696716308594e-08
			]
		},
		{
			"children":[
				4,
				5
			],
			"name":"claw.001",
			"rotation":[
				0.22891606390476227,
				2.320877285910683e-07,
				5.457786755869165e-08,
				0.9734461903572083
			],
			"scale":[
				1,
				1.0000001192092896,
				1
			],
			"translation":[
				2.4607246794913285e-16,
				0.33473625779151917,
				-1.4901161193847656e-08
			]
		},
		{
			"children":[
				6
			],
			"name":"claw",
			"rotation":[
				0.030637226998806,
				0,
				0,
				0.999530553817749
			],
			"scale":[
				1,
				1,
				0.9999999403953552
			]
		},
		{
			"children":[
				7
			],
			"name":"root"
		},
		{
			"mesh":0,
			"name":"obj_claw02",
			"skin":0
		},
		{
			"mesh":3,
			"name":"obj_claw02_01_collider"
		},
		{
			"children":[
				9,
				10,
				8
			],
			"name":"Armature"
		}
	],
	"animations":[
		{
			"channels":[
				{
					"sampler":0,
					"target":{
						"node":8,
						"path":"translation"
					}
				},
				{
					"sampler":1,
					"target":{
						"node":8,
						"path":"rotation"
					}
				},
				{
					"sampler":2,
					"target":{
						"node":8,
						"path":"scale"
					}
				},
				{
					"sampler":3,
					"target":{
						"node":7,
						"path":"translation"
					}
				},
				{
					"sampler":4,
					"target":{
						"node":7,
						"path":"rotation"
					}
				},
				{
					"sampler":5,
					"target":{
						"node":7,
						"path":"scale"
					}
				},
				{
					"sampler":6,
					"target":{
						"node":6,
						"path":"translation"
					}
				},
				{
					"sampler":7,
					"target":{
						"node":6,
						"path":"rotation"
					}
				},
				{
					"sampler":8,
					"target":{
						"node":6,
						"path":"scale"
					}
				},
				{
					"sampler":9,
					"target":{
						"node":4,
						"path":"translation"
					}
				},
				{
					"sampler":10,
					"target":{
						"node":4,
						"path":"rotation"
					}
				},
				{
					"sampler":11,
					"target":{
						"node":4,
						"path":"scale"
					}
				},
				{
					"sampler":12,
					"target":{
						"node":0,
						"path":"translation"
					}
				},
				{
					"sampler":13,
					"target":{
						"node":0,
						"path":"rotation"
					}
				},
				{
					"sampler":14,
					"target":{
						"node":0,
						"path":"scale"
					}
				},
				{
					"sampler":15,
					"target":{
						"node":1,
						"path":"translation"
					}
				},
				{
					"sampler":16,
					"target":{
						"node":1,
						"path":"rotation"
					}
				},
				{
					"sampler":17,
					"target":{
						"node":1,
						"path":"scale"
					}
				},
				{
					"sampler":18,
					"target":{
						"node":2,
						"path":"translation"
					}
				},
				{
					"sampler":19,
					"target":{
						"node":2,
						"path":"rotation"
					}
				},
				{
					"sampler":20,
					"target":{
						"node":2,
						"path":"scale"
					}
				}
			],
			"name":"obj_claw02_stand",
			"samplers":[
				{
					"input":19,
					"interpolation":"STEP",
					"output":20
				},
				{
					"input":19,
					"interpolation":"STEP",
					"output":21
				},
				{
					"input":19,
					"interpolation":"STEP",
					"output":22
				},
				{
					"input":19,
					"interpolation":"STEP",
					"output":23
				},
				{
					"input":19,
					"interpolation":"STEP",
					"output":24
				},
				{
					"input":19,
					"interpolation":"STEP",
					"output":25
				},
				{
					"input":19,
					"interpolation":"STEP",
					"output":26
				},
				{
					"input":27,
					"interpolation":"LINEAR",
					"output":28
				},
				{
					"input":19,
					"interpolation":"STEP",
					"output":29
				},
				{
					"input":19,
					"interpolation":"STEP",
					"output":30
				},
				{
					"input":27,
					"interpolation":"LINEAR",
					"output":31
				},
				{
					"input":19,
					"interpolation":"STEP",
					"output":32
				},
				{
					"input":19,
					"interpolation":"STEP",
					"output":33
				},
				{
					"input":27,
					"interpolation":"LINEAR",
					"output":34
				},
				{
					"input":19,
					"interpolation":"STEP",
					"output":35
				},
				{
					"input":19,
					"interpolation":"STEP",
					"output":36
				},
				{
					"input":27,
					"interpolation":"LINEAR",
					"output":37
				},
				{
					"input":19,
					"interpolation":"STEP",
					"output":38
				},
				{
					"input":19,
					"interpolation":"STEP",
					"output":39
				},
				{
					"input":27,
					"interpolation":"LINEAR",
					"output":40
				},
				{
					"input":19,
					"interpolation":"STEP",
					"output":41
				},
				{
					"input":42,
					"interpolation":"STEP",
					"output":43
				},
				{
					"input":42,
					"interpolation":"STEP",
					"output":44
				},
				{
					"input":42,
					"interpolation":"STEP",
					"output":45
				},
				{
					"input":42,
					"interpolation":"STEP",
					"output":46
				},
				{
					"input":42,
					"interpolation":"STEP",
					"output":47
				},
				{
					"input":42,
					"interpolation":"STEP",
					"output":48
				},
				{
					"input":42,
					"interpolation":"STEP",
					"output":49
				},
				{
					"input":50,
					"interpolation":"LINEAR",
					"output":51
				},
				{
					"input":42,
					"interpolation":"STEP",
					"output":52
				},
				{
					"input":42,
					"interpolation":"STEP",
					"output":53
				},
				{
					"input":42,
					"interpolation":"STEP",
					"output":54
				},
				{
					"input":42,
					"interpolation":"STEP",
					"output":55
				},
				{
					"input":42,
					"interpolation":"STEP",
					"output":56
				},
				{
					"input":50,
					"interpolation":"LINEAR",
					"output":57
				},
				{
					"input":42,
					"interpolation":"STEP",
					"output":58
				},
				{
					"input":42,
					"interpolation":"STEP",
					"output":59
				},
				{
					"input":50,
					"interpolation":"LINEAR",
					"output":60
				},
				{
					"input":42,
					"interpolation":"STEP",
					"output":61
				},
				{
					"input":42,
					"interpolation":"STEP",
					"output":62
				},
				{
					"input":50,
					"interpolation":"LINEAR",
					"output":63
				},
				{
					"input":42,
					"interpolation":"STEP",
					"output":64
				}
			]
		}
	],
	"materials":[
		{
			"emissiveFactor":[
				1,
				1,
				1
			],
			"emissiveTexture":{
				"index":0
			},
			"extensions":{
				"KHR_materials_specular":{
					"specularFactor":0
				},
				"KHR_materials_ior":{
					"ior":1.4500000476837158
				}
			},
			"name":"obj_atom01",
			"pbrMetallicRoughness":{
				"baseColorTexture":{
					"index":1
				},
				"metallicFactor":0
			}
		}
	],
	"meshes":[
		{
			"name":"Mesh.284",
			"primitives":[
				{
					"attributes":{
						"POSITION":0,
						"NORMAL":1,
						"TEXCOORD_0":2,
						"JOINTS_0":3,
						"WEIGHTS_0":4
					},
					"indices":5,
					"material":0
				}
			]
		},
		{
			"name":"Mesh.005",
			"primitives":[
				{
					"attributes":{
						"POSITION":7,
						"NORMAL":8,
						"TEXCOORD_0":9
					},
					"indices":10
				}
			]
		},
		{
			"name":"Mesh.004",
			"primitives":[
				{
					"attributes":{
						"POSITION":11,
						"NORMAL":12,
						"TEXCOORD_0":13
					},
					"indices":14
				}
			]
		},
		{
			"name":"Mesh.003",
			"primitives":[
				{
					"attributes":{
						"POSITION":15,
						"NORMAL":16,
						"TEXCOORD_0":17
					},
					"indices":18
				}
			]
		}
	],
	"textures":[
		{
			"sampler":0,
			"source":0
		},
		{
			"sampler":0,
			"source":1
		}
	],
	"images":[
		{
			"mimeType":"image/png",
			"name":"obj_atom01_emission",
			"uri":"textures/obj_atom01_emission.png"
		},
		{
			"mimeType":"image/png",
			"name":"obj_atom01",
			"uri":"textures/obj_atom01.png"
		}
	],
	"skins":[
		{
			"inverseBindMatrices":6,
			"joints":[
				8,
				7,
				6,
				4,
				0,
				1,
				2
			],
			"name":"Armature"
		}
	],
	"accessors":[
		{
			"bufferView":0,
			"componentType":5126,
			"count":1082,
			"max":[
				0.5379171371459961,
				2.0775656700134277,
				2.4643003940582275
			],
			"min":[
				-0.5378892421722412,
				0,
				-0.5659937858581543
			],
			"type":"VEC3"
		},
		{
			"bufferView":1,
			"componentType":5126,
			"count":1082,
			"type":"VEC3"
		},
		{
			"bufferView":2,
			"componentType":5126,
			"count":1082,
			"type":"VEC2"
		},
		{
			"bufferView":3,
			"componentType":5121,
			"count":1082,
			"type":"VEC4"
		},
		{
			"bufferView":4,
			"componentType":5126,
			"count":1082,
			"type":"VEC4"
		},
		{
			"bufferView":5,
			"componentType":5123,
			"count":3054,
			"type":"SCALAR"
		},
		{
			"bufferView":6,
			"componentType":5126,
			"count":7,
			"type":"MAT4"
		},
		{
			"bufferView":7,
			"componentType":5126,
			"count":96,
			"max":[
				0.4895966053009033,
				0.30312442779541016,
				1.6165168285369873
			],
			"min":[
				-0.48836442828178406,
				-0.9733136892318726,
				-0.26322096586227417
			],
			"type":"VEC3"
		},
		{
			"bufferView":8,
			"componentType":5126,
			"count":96,
			"type":"VEC3"
		},
		{
			"bufferView":9,
			"componentType":5126,
			"count":96,
			"type":"VEC2"
		},
		{
			"bufferView":10,
			"componentType":5123,
			"count":162,
			"type":"SCALAR"
		},
		{
			"bufferView":11,
			"componentType":5126,
			"count":64,
			"max":[
				0.5379924774169922,
				1.4675520658493042,
				0.988461971282959
			],
			"min":[
				-0.5379642248153687,
				-0.3334985375404358,
				-0.2895963788032532
			],
			"type":"VEC3"
		},
		{
			"bufferView":12,
			"componentType":5126,
			"count":64,
			"type":"VEC3"
		},
		{
			"bufferView":13,
			"componentType":5126,
			"count":64,
			"type":"VEC2"
		},
		{
			"bufferView":14,
			"componentType":5123,
			"count":108,
			"type":"SCALAR"
		},
		{
			"bufferView":15,
			"componentType":5126,
			"count":20,
			"max":[
				0.2844677269458771,
				0.4193441867828369,
				0.5659937262535095
			],
			"min":[
				-0.2844679653644562,
				-4.662484798245714e-08,
				-0.5659939050674438
			],
			"type":"VEC3"
		},
		{
			"bufferView":16,
			"componentType":5126,
			"count":20,
			"type":"VEC3"
		},
		{
			"bufferView":17,
			"componentType":5126,
			"count":20,
			"type":"VEC2"
		},
		{
			"bufferView":18,
			"componentType":5123,
			"count":36,
			"type":"SCALAR"
		},
		{
			"bufferView":19,
			"componentType":5126,
			"count":2,
			"max":[
				3
			],
			"min":[
				0
			],
			"type":"SCALAR"
		},
		{
			"bufferView":20,
			"componentType":5126,
			"count":2,
			"type":"VEC3"
		},
		{
			"bufferView":21,
			"componentType":5126,
			"count":2,
			"type":"VEC4"
		},
		{
			"bufferView":22,
			"componentType":5126,
			"count":2,
			"type":"VEC3"
		},
		{
			"bufferView":23,
			"componentType":5126,
			"count":2,
			"type":"VEC3"
		},
		{
			"bufferView":24,
			"componentType":5126,
			"count":2,
			"type":"VEC4"
		},
		{
			"bufferView":25,
			"componentType":5126,
			"count":2,
			"type":"VEC3"
		},
		{
			"bufferView":26,
			"componentType":5126,
			"count":2,
			"type":"VEC3"
		},
		{
			"bufferView":27,
			"componentType":5126,
			"count":91,
			"max":[
				3
			],
			"min":[
				0
			],
			"type":"SCALAR"
		},
		{
			"bufferView":28,
			"componentType":5126,
			"count":91,
			"type":"VEC4"
		},
		{
			"bufferView":29,
			"componentType":5126,
			"count":2,
			"type":"VEC3"
		},
		{
			"bufferView":30,
			"componentType":5126,
			"count":2,
			"type":"VEC3"
		},
		{
			"bufferView":31,
			"componentType":5126,
			"count":91,
			"type":"VEC4"
		},
		{
			"bufferView":32,
			"componentType":5126,
			"count":2,
			"type":"VEC3"
		},
		{
			"bufferView":33,
			"componentType":5126,
			"count":2,
			"type":"VEC3"
		},
		{
			"bufferView":34,
			"componentType":5126,
			"count":91,
			"type":"VEC4"
		},
		{
			"bufferView":35,
			"componentType":5126,
			"count":2,
			"type":"VEC3"
		},
		{
			"bufferView":36,
			"componentType":5126,
			"count":2,
			"type":"VEC3"
		},
		{
			"bufferView":37,
			"componentType":5126,
			"count":91,
			"type":"VEC4"
		},
		{
			"bufferView":38,
			"componentType":5126,
			"count":2,
			"type":"VEC3"
		},
		{
			"bufferView":39,
			"componentType":5126,
			"count":2,
			"type":"VEC3"
		},
		{
			"bufferView":40,
			"componentType":5126,
			"count":91,
			"type":"VEC4"
		},
		{
			"bufferView":41,
			"componentType":5126,
			"count":2,
			"type":"VEC3"
		},
		{
			"bufferView":42,
			"componentType":5126,
			"count":2,
			"max":[
				3.066666666666667
			],
			"min":[
				0
			],
			"type":"SCALAR"
		},
		{
			"bufferView":43,
			"componentType":5126,
			"count":2,
			"type":"VEC3"
		},
		{
			"bufferView":44,
			"componentType":5126,
			"count":2,
			"type":"VEC4"
		},
		{
			"bufferView":45,
			"componentType":5126,
			"count":2,
			"type":"VEC3"
		},
		{
			"bufferView":46,
			"componentType":5126,
			"count":2,
			"type":"VEC3"
		},
		{
			"bufferView":47,
			"componentType":5126,
			"count":2,
			"type":"VEC4"
		},
		{
			"bufferView":48,
			"componentType":5126,
			"count":2,
			"type":"VEC3"
		},
		{
			"bufferView":49,
			"componentType":5126,
			"count":2,
			"type":"VEC3"
		},
		{
			"bufferView":50,
			"componentType":5126,
			"count":93,
			"max":[
				3.066666666666667
			],
			"min":[
				0
			],
			"type":"SCALAR"
		},
		{
			"bufferView":51,
			"componentType":5126,
			"count":93,
			"type":"VEC4"
		},
		{
			"bufferView":52,
			"componentType":5126,
			"count":2,
			"type":"VEC3"
		},
		{
			"bufferView":53,
			"componentType":5126,
			"count":2,
			"type":"VEC3"
		},
		{
			"bufferView":54,
			"componentType":5126,
			"count":2,
			"type":"VEC4"
		},
		{
			"bufferView":55,
			"componentType":5126,
			"count":2,
			"type":"VEC3"
		},
		{
			"bufferView":56,
			"componentType":5126,
			"count":2,
			"type":"VEC3"
		},
		{
			"bufferView":57,
			"componentType":5126,
			"count":93,
			"type":"VEC4"
		},
		{
			"bufferView":58,
			"componentType":5126,
			"count":2,
			"type":"VEC3"
		},
		{
			"bufferView":59,
			"componentType":5126,
			"count":2,
			"type":"VEC3"
		},
		{
			"bufferView":60,
			"componentType":5126,
			"count":93,
			"type":"VEC4"
		},
		{
			"bufferView":61,
			"componentType":5126,
			"count":2,
			"type":"VEC3"
		},
		{
			"bufferView":62,
			"componentType":5126,
			"count":2,
			"type":"VEC3"
		},
		{
			"bufferView":63,
			"componentType":5126,
			"count":93,
			"type":"VEC4"
		},
		{
			"bufferView":64,
			"componentType":5126,
			"count":2,
			"type":"VEC3"
		}
	],
	"bufferViews":[
		{
			"buffer":0,
			"byteLength":12984,
			"byteOffset":0,
			"target":34962
		},
		{
			"buffer":0,
			"byteLength":12984,
			"byteOffset":12984,
			"target":34962
		},
		{
			"buffer":0,
			"byteLength":8656,
			"byteOffset":25968,
			"target":34962
		},
		{
			"buffer":0,
			"byteLength":4328,
			"byteOffset":34624,
			"target":34962
		},
		{
			"buffer":0,
			"byteLength":17312,
			"byteOffset":38952,
			"target":34962
		},
		{
			"buffer":0,
			"byteLength":6108,
			"byteOffset":56264,
			"target":34963
		},
		{
			"buffer":0,
			"byteLength":448,
			"byteOffset":62372
		},
		{
			"buffer":0,
			"byteLength":1152,
			"byteOffset":62820,
			"target":34962
		},
		{
			"buffer":0,
			"byteLength":1152,
			"byteOffset":63972,
			"target":34962
		},
		{
			"buffer":0,
			"byteLength":768,
			"byteOffset":65124,
			"target":34962
		},
		{
			"buffer":0,
			"byteLength":324,
			"byteOffset":65892,
			"target":34963
		},
		{
			"buffer":0,
			"byteLength":768,
			"byteOffset":66216,
			"target":34962
		},
		{
			"buffer":0,
			"byteLength":768,
			"byteOffset":66984,
			"target":34962
		},
		{
			"buffer":0,
			"byteLength":512,
			"byteOffset":67752,
			"target":34962
		},
		{
			"buffer":0,
			"byteLength":216,
			"byteOffset":68264,
			"target":34963
		},
		{
			"buffer":0,
			"byteLength":240,
			"byteOffset":68480,
			"target":34962
		},
		{
			"buffer":0,
			"byteLength":240,
			"byteOffset":68720,
			"target":34962
		},
		{
			"buffer":0,
			"byteLength":160,
			"byteOffset":68960,
			"target":34962
		},
		{
			"buffer":0,
			"byteLength":72,
			"byteOffset":69120,
			"target":34963
		},
		{
			"buffer":0,
			"byteLength":8,
			"byteOffset":69192
		},
		{
			"buffer":0,
			"byteLength":24,
			"byteOffset":69200
		},
		{
			"buffer":0,
			"byteLength":32,
			"byteOffset":69224
		},
		{
			"buffer":0,
			"byteLength":24,
			"byteOffset":69256
		},
		{
			"buffer":0,
			"byteLength":24,
			"byteOffset":69280
		},
		{
			"buffer":0,
			"byteLength":32,
			"byteOffset":69304
		},
		{
			"buffer":0,
			"byteLength":24,
			"byteOffset":69336
		},
		{
			"buffer":0,
			"byteLength":24,
			"byteOffset":69360
		},
		{
			"buffer":0,
			"byteLength":364,
			"byteOffset":69384
		},
		{
			"buffer":0,
			"byteLength":1456,
			"byteOffset":69748
		},
		{
			"buffer":0,
			"byteLength":24,
			"byteOffset":71204
		},
		{
			"buffer":0,
			"byteLength":24,
			"byteOffset":71228
		},
		{
			"buffer":0,
			"byteLength":1456,
			"byteOffset":71252
		},
		{
			"buffer":0,
			"byteLength":24,
			"byteOffset":72708
		},
		{
			"buffer":0,
			"byteLength":24,
			"byteOffset":72732
		},
		{
			"buffer":0,
			"byteLength":1456,
			"byteOffset":72756
		},
		{
			"buffer":0,
			"byteLength":24,
			"byteOffset":74212
		},
		{
			"buffer":0,
			"byteLength":24,
			"byteOffset":74236
		},
		{
			"buffer":0,
			"byteLength":1456,
			"byteOffset":74260
		},
		{
			"buffer":0,
			"byteLength":24,
			"byteOffset":75716
		},
		{
			"buffer":0,
			"byteLength":24,
			"byteOffset":75740
		},
		{
			"buffer":0,
			"byteLength":1456,
			"byteOffset":75764
		},
		{
			"buffer":0,
			"byteLength":24,
			"byteOffset":77220
		},
		{
			"buffer":0,
			"byteLength":8,
			"byteOffset":77244
		},
		{
			"buffer":0,
			"byteLength":24,
			"byteOffset":77252
		},
		{
			"buffer":0,
			"byteLength":32,
			"byteOffset":77276
		},
		{
			"buffer":0,
			"byteLength":24,
			"byteOffset":77308
		},
		{
			"buffer":0,
			"byteLength":24,
			"byteOffset":77332
		},
		{
			"buffer":0,
			"byteLength":32,
			"byteOffset":77356
		},
		{
			"buffer":0,
			"byteLength":24,
			"byteOffset":77388
		},
		{
			"buffer":0,
			"byteLength":24,
			"byteOffset":77412
		},
		{
			"buffer":0,
			"byteLength":372,
			"byteOffset":77436
		},
		{
			"buffer":0,
			"byteLength":1488,
			"byteOffset":77808
		},
		{
			"buffer":0,
			"byteLength":24,
			"byteOffset":79296
		},
		{
			"buffer":0,
			"byteLength":24,
			"byteOffset":79320
		},
		{
			"buffer":0,
			"byteLength":32,
			"byteOffset":79344
		},
		{
			"buffer":0,
			"byteLength":24,
			"byteOffset":79376
		},
		{
			"buffer":0,
			"byteLength":24,
			"byteOffset":79400
		},
		{
			"buffer":0,
			"byteLength":1488,
			"byteOffset":79424
		},
		{
			"buffer":0,
			"byteLength":24,
			"byteOffset":80912
		},
		{
			"buffer":0,
			"byteLength":24,
			"byteOffset":80936
		},
		{
			"buffer":0,
			"byteLength":1488,
			"byteOffset":80960
		},
		{
			"buffer":0,
			"byteLength":24,
			"byteOffset":82448
		},
		{
			"buffer":0,
			"byteLength":24,
			"byteOffset":82472
		},
		{
			"buffer":0,
			"byteLength":1488,
			"byteOffset":82496
		},
		{
			"buffer":0,
			"byteLength":24,
			"byteOffset":83984
		}
	],
	"samplers":[
		{
			"magFilter":9729,
			"minFilter":9987
		}
	],
	"buffers":[
		{
			"byteLength":84008,
			"uri":"obj_claw02.bin"
		}
	]
}
