{
	"asset":{
		"generator":"Khronos glTF Blender I/O v4.1.63",
		"version":"2.0"
	},
	"extensionsUsed":[
		"KHR_materials_specular",
		"KHR_materials_ior"
	],
	"scene":0,
	"scenes":[
		{
			"name":"Scene",
			"nodes":[
				0,
				1,
				2
			]
		}
	],
	"nodes":[
		{
			"mesh":0,
			"name":"obj_assistant01"
		},
		{
			"mesh":1,
			"name":"obj_assistant02"
		},
		{
			"mesh":2,
			"name":"obj_assistant03"
		}
	],
	"materials":[
		{
			"alphaMode":"BLEND",
			"name":"npc_assistant01",
			"pbrMetallicRoughness":{
				"baseColorFactor":[
					0,
					0,
					0,
					0.925000011920929
				],
				"metallicFactor":0
			}
		},
		{
			"emissiveFactor":[
				1,
				1,
				1
			],
			"emissiveTexture":{
				"index":0
			},
			"extensions":{
				"KHR_materials_specular":{
					"specularFactor":0
				},
				"KHR_materials_ior":{
					"ior":1.4500000476837158
				}
			},
			"name":"obj_pavilion01_06",
			"pbrMetallicRoughness":{
				"baseColorTexture":{
					"index":1
				},
				"metallicFactor":0
			}
		},
		{
			"alphaCutoff":0.20000000298023224,
			"alphaMode":"MASK",
			"doubleSided":true,
			"emissiveFactor":[
				0.26224830746650696,
				0.5647120475769043,
				0.9215821027755737
			],
			"name":"npc_assistant02",
			"pbrMetallicRoughness":{
				"baseColorTexture":{
					"index":2
				},
				"metallicFactor":0
			}
		}
	],
	"meshes":[
		{
			"name":"Cilindro.001",
			"primitives":[
				{
					"attributes":{
						"POSITION":0,
						"NORMAL":1,
						"TEXCOORD_0":2
					},
					"indices":3,
					"material":0
				}
			]
		},
		{
			"name":"Cilindro.002",
			"primitives":[
				{
					"attributes":{
						"POSITION":4,
						"NORMAL":5,
						"TEXCOORD_0":6
					},
					"indices":7,
					"material":1
				}
			]
		},
		{
			"name":"Cilindro.003",
			"primitives":[
				{
					"attributes":{
						"POSITION":8,
						"NORMAL":9,
						"TEXCOORD_0":10
					},
					"indices":11,
					"material":2
				}
			]
		}
	],
	"textures":[
		{
			"sampler":0,
			"source":0
		},
		{
			"sampler":0,
			"source":1
		},
		{
			"sampler":0,
			"source":2
		}
	],
	"images":[
		{
			"mimeType":"image/png",
			"name":"obj_pavilion01_06_emission",
			"uri":"textures/obj_pavilion01_06_emission.png"
		},
		{
			"mimeType":"image/png",
			"name":"obj_pavilion01_06",
			"uri":"textures/obj_pavilion01_06.png"
		},
		{
			"mimeType":"image/png",
			"name":"npc_assistant02",
			"uri":"textures/npc_assistant02.png"
		}
	],
	"accessors":[
		{
			"bufferView":0,
			"componentType":5126,
			"count":196,
			"max":[
				1.3066387176513672,
				4.1180009841918945,
				1.3066387176513672
			],
			"min":[
				-1.3066387176513672,
				0.3741573095321655,
				-1.3066388368606567
			],
			"type":"VEC3"
		},
		{
			"bufferView":1,
			"componentType":5126,
			"count":196,
			"type":"VEC3"
		},
		{
			"bufferView":2,
			"componentType":5126,
			"count":196,
			"type":"VEC2"
		},
		{
			"bufferView":3,
			"componentType":5123,
			"count":384,
			"type":"SCALAR"
		},
		{
			"bufferView":4,
			"componentType":5126,
			"count":1160,
			"max":[
				1.6161179542541504,
				4.868335723876953,
				1.6161179542541504
			],
			"min":[
				-1.6161179542541504,
				-0.020965576171875,
				-1.6161179542541504
			],
			"type":"VEC3"
		},
		{
			"bufferView":5,
			"componentType":5126,
			"count":1160,
			"type":"VEC3"
		},
		{
			"bufferView":6,
			"componentType":5126,
			"count":1160,
			"type":"VEC2"
		},
		{
			"bufferView":7,
			"componentType":5123,
			"count":4008,
			"type":"SCALAR"
		},
		{
			"bufferView":8,
			"componentType":5126,
			"count":163,
			"max":[
				1.417640209197998,
				4.572221755981445,
				1.417640209197998
			],
			"min":[
				-1.417640209197998,
				0.3476952314376831,
				-1.4176403284072876
			],
			"type":"VEC3"
		},
		{
			"bufferView":9,
			"componentType":5126,
			"count":163,
			"type":"VEC3"
		},
		{
			"bufferView":10,
			"componentType":5126,
			"count":163,
			"type":"VEC2"
		},
		{
			"bufferView":11,
			"componentType":5123,
			"count":384,
			"type":"SCALAR"
		}
	],
	"bufferViews":[
		{
			"buffer":0,
			"byteLength":2352,
			"byteOffset":0,
			"target":34962
		},
		{
			"buffer":0,
			"byteLength":2352,
			"byteOffset":2352,
			"target":34962
		},
		{
			"buffer":0,
			"byteLength":1568,
			"byteOffset":4704,
			"target":34962
		},
		{
			"buffer":0,
			"byteLength":768,
			"byteOffset":6272,
			"target":34963
		},
		{
			"buffer":0,
			"byteLength":13920,
			"byteOffset":7040,
			"target":34962
		},
		{
			"buffer":0,
			"byteLength":13920,
			"byteOffset":20960,
			"target":34962
		},
		{
			"buffer":0,
			"byteLength":9280,
			"byteOffset":34880,
			"target":34962
		},
		{
			"buffer":0,
			"byteLength":8016,
			"byteOffset":44160,
			"target":34963
		},
		{
			"buffer":0,
			"byteLength":1956,
			"byteOffset":52176,
			"target":34962
		},
		{
			"buffer":0,
			"byteLength":1956,
			"byteOffset":54132,
			"target":34962
		},
		{
			"buffer":0,
			"byteLength":1304,
			"byteOffset":56088,
			"target":34962
		},
		{
			"buffer":0,
			"byteLength":768,
			"byteOffset":57392,
			"target":34963
		}
	],
	"samplers":[
		{
			"magFilter":9729,
			"minFilter":9987
		}
	],
	"buffers":[
		{
			"byteLength":58160,
			"uri":"obj_assistant.bin"
		}
	]
}
