{
	"asset":{
		"generator":"Khronos glTF Blender I/O v4.1.63",
		"version":"2.0"
	},
	"extensionsUsed":[
		"KHR_materials_specular",
		"KHR_materials_ior"
	],
	"scene":0,
	"scenes":[
		{
			"name":"Scene",
			"nodes":[
				0,
				1
			]
		}
	],
	"nodes":[
		{
			"mesh":0,
			"name":"obj_fence04"
		},
		{
			"mesh":1,
			"name":"obj_fence04_collider"
		}
	],
	"materials":[
		{
			"emissiveFactor":[
				0.20000000298023224,
				0.20000000298023224,
				0.20000000298023224
			],
			"emissiveTexture":{
				"index":0
			},
			"extensions":{
				"KHR_materials_specular":{
					"specularFactor":0
				},
				"KHR_materials_ior":{
					"ior":1.4500000476837158
				}
			},
			"name":"obj_fence04",
			"pbrMetallicRoughness":{
				"baseColorTexture":{
					"index":1
				},
				"metallicFactor":0
			}
		},
		{
			"emissiveFactor":[
				0.7455297112464905,
				0.4507659673690796,
				0.8147876262664795
			],
			"extensions":{
				"KHR_materials_specular":{
					"specularFactor":0
				},
				"KHR_materials_ior":{
					"ior":1.4500000476837158
				}
			},
			"name":"obj_global_emission03",
			"pbrMetallicRoughness":{
				"baseColorFactor":[
					0.7454167008399963,
					0.450778603553772,
					0.8148468136787415,
					1
				],
				"metallicFactor":0
			}
		}
	],
	"meshes":[
		{
			"name":"Plane.033",
			"primitives":[
				{
					"attributes":{
						"POSITION":0,
						"NORMAL":1,
						"TEXCOORD_0":2
					},
					"indices":3,
					"material":0
				},
				{
					"attributes":{
						"POSITION":4,
						"NORMAL":5,
						"TEXCOORD_0":6
					},
					"indices":7,
					"material":1
				}
			]
		},
		{
			"name":"Plane.042",
			"primitives":[
				{
					"attributes":{
						"POSITION":8,
						"NORMAL":9,
						"TEXCOORD_0":10
					},
					"indices":11
				}
			]
		}
	],
	"textures":[
		{
			"sampler":0,
			"source":0
		},
		{
			"sampler":0,
			"source":0
		}
	],
	"images":[
		{
			"mimeType":"image/png",
			"name":"obj_fence04",
			"uri":"textures/obj_fence04.png"
		}
	],
	"accessors":[
		{
			"bufferView":0,
			"componentType":5126,
			"count":11818,
			"max":[
				50.88978958129883,
				1.9119319915771484,
				49.32143783569336
			],
			"min":[
				4.2160749435424805,
				0.2980811893939972,
				-1.563990592956543
			],
			"type":"VEC3"
		},
		{
			"bufferView":1,
			"componentType":5126,
			"count":11818,
			"type":"VEC3"
		},
		{
			"bufferView":2,
			"componentType":5126,
			"count":11818,
			"type":"VEC2"
		},
		{
			"bufferView":3,
			"componentType":5123,
			"count":24126,
			"type":"SCALAR"
		},
		{
			"bufferView":4,
			"componentType":5126,
			"count":7190,
			"max":[
				50.88978958129883,
				1.059661865234375,
				49.32143783569336
			],
			"min":[
				4.2160749435424805,
				0.7240321636199951,
				-1.563990592956543
			],
			"type":"VEC3"
		},
		{
			"bufferView":5,
			"componentType":5126,
			"count":7190,
			"type":"VEC3"
		},
		{
			"bufferView":6,
			"componentType":5126,
			"count":7190,
			"type":"VEC2"
		},
		{
			"bufferView":7,
			"componentType":5123,
			"count":17004,
			"type":"SCALAR"
		},
		{
			"bufferView":8,
			"componentType":5126,
			"count":1952,
			"max":[
				50.88978958129883,
				1.9119319915771484,
				49.32143783569336
			],
			"min":[
				4.2160749435424805,
				0.29931071400642395,
				-1.563990592956543
			],
			"type":"VEC3"
		},
		{
			"bufferView":9,
			"componentType":5126,
			"count":1952,
			"type":"VEC3"
		},
		{
			"bufferView":10,
			"componentType":5126,
			"count":1952,
			"type":"VEC2"
		},
		{
			"bufferView":11,
			"componentType":5123,
			"count":5574,
			"type":"SCALAR"
		}
	],
	"bufferViews":[
		{
			"buffer":0,
			"byteLength":141816,
			"byteOffset":0,
			"target":34962
		},
		{
			"buffer":0,
			"byteLength":141816,
			"byteOffset":141816,
			"target":34962
		},
		{
			"buffer":0,
			"byteLength":94544,
			"byteOffset":283632,
			"target":34962
		},
		{
			"buffer":0,
			"byteLength":48252,
			"byteOffset":378176,
			"target":34963
		},
		{
			"buffer":0,
			"byteLength":86280,
			"byteOffset":426428,
			"target":34962
		},
		{
			"buffer":0,
			"byteLength":86280,
			"byteOffset":512708,
			"target":34962
		},
		{
			"buffer":0,
			"byteLength":57520,
			"byteOffset":598988,
			"target":34962
		},
		{
			"buffer":0,
			"byteLength":34008,
			"byteOffset":656508,
			"target":34963
		},
		{
			"buffer":0,
			"byteLength":23424,
			"byteOffset":690516,
			"target":34962
		},
		{
			"buffer":0,
			"byteLength":23424,
			"byteOffset":713940,
			"target":34962
		},
		{
			"buffer":0,
			"byteLength":15616,
			"byteOffset":737364,
			"target":34962
		},
		{
			"buffer":0,
			"byteLength":11148,
			"byteOffset":752980,
			"target":34963
		}
	],
	"samplers":[
		{
			"magFilter":9729,
			"minFilter":9987
		}
	],
	"buffers":[
		{
			"byteLength":764128,
			"uri":"obj_fence04.bin"
		}
	]
}
