{
	"asset":{
		"generator":"Khronos glTF Blender I/O v4.3.47",
		"version":"2.0"
	},
	"extensionsUsed":[
		"KHR_materials_specular"
	],
	"scene":0,
	"scenes":[
		{
			"name":"Scene",
			"nodes":[
				0,
				1
			]
		}
	],
	"nodes":[
		{
			"mesh":0,
			"name":"obj_can"
		},
		{
			"mesh":1,
			"name":"obj_can_collider"
		}
	],
	"materials":[
		{
			"emissiveFactor":[
				0.10000000149011612,
				0.10000000149011612,
				0.10000000149011612
			],
			"emissiveTexture":{
				"index":0
			},
			"extensions":{
				"KHR_materials_specular":{
					"specularFactor":0
				}
			},
			"name":"obj_stool01",
			"pbrMetallicRoughness":{
				"baseColorTexture":{
					"index":1
				},
				"metallicFactor":0
			}
		},
		{
			"doubleSided":true,
			"emissiveFactor":[
				0.26229405403137207,
				0.5646868348121643,
				0.921515166759491
			],
			"extensions":{
				"KHR_materials_specular":{
					"specularFactor":0
				}
			},
			"name":"obj_global_emission01",
			"pbrMetallicRoughness":{
				"baseColorFactor":[
					0.2617267668247223,
					0.566400408744812,
					0.9218639135360718,
					1
				],
				"metallicFactor":0
			}
		},
		{
			"emissiveFactor":[
				0.07999999821186066,
				0.07999999821186066,
				0.07999999821186066
			],
			"emissiveTexture":{
				"index":2
			},
			"extensions":{
				"KHR_materials_specular":{
					"specularFactor":0
				}
			},
			"name":"obj_can02",
			"pbrMetallicRoughness":{
				"baseColorTexture":{
					"index":3
				},
				"metallicFactor":0
			}
		}
	],
	"meshes":[
		{
			"name":"obj_can",
			"primitives":[
				{
					"attributes":{
						"POSITION":0,
						"NORMAL":1,
						"TEXCOORD_0":2
					},
					"indices":3,
					"material":0
				},
				{
					"attributes":{
						"POSITION":4,
						"NORMAL":5,
						"TEXCOORD_0":6
					},
					"indices":7,
					"material":1
				},
				{
					"attributes":{
						"POSITION":8,
						"NORMAL":9,
						"TEXCOORD_0":10
					},
					"indices":11,
					"material":2
				}
			]
		},
		{
			"name":"obj_can_collider",
			"primitives":[
				{
					"attributes":{
						"POSITION":12,
						"NORMAL":13,
						"TEXCOORD_0":14
					},
					"indices":15
				}
			]
		}
	],
	"textures":[
		{
			"sampler":0,
			"source":0
		},
		{
			"sampler":0,
			"source":0
		},
		{
			"sampler":0,
			"source":1
		},
		{
			"sampler":0,
			"source":1
		}
	],
	"images":[
		{
			"mimeType":"image/png",
			"name":"obj_stool01",
			"uri":"textures/obj_stool01.png"
		},
		{
			"mimeType":"image/png",
			"name":"obj_can02",
			"uri":"textures/obj_can02.png"
		}
	],
	"accessors":[
		{
			"bufferView":0,
			"componentType":5126,
			"count":1486,
			"max":[
				65.57861328125,
				20.132232666015625,
				36.211177825927734
			],
			"min":[
				-34.49159240722656,
				16.367122650146484,
				-65.43350982666016
			],
			"type":"VEC3"
		},
		{
			"bufferView":1,
			"componentType":5126,
			"count":1486,
			"type":"VEC3"
		},
		{
			"bufferView":2,
			"componentType":5126,
			"count":1486,
			"type":"VEC2"
		},
		{
			"bufferView":3,
			"componentType":5123,
			"count":5076,
			"type":"SCALAR"
		},
		{
			"bufferView":4,
			"componentType":5126,
			"count":776,
			"max":[
				65.57861328125,
				20.94719123840332,
				36.211177825927734
			],
			"min":[
				-34.490760803222656,
				16.690998077392578,
				-65.43330383300781
			],
			"type":"VEC3"
		},
		{
			"bufferView":5,
			"componentType":5126,
			"count":776,
			"type":"VEC3"
		},
		{
			"bufferView":6,
			"componentType":5126,
			"count":776,
			"type":"VEC2"
		},
		{
			"bufferView":7,
			"componentType":5123,
			"count":2160,
			"type":"SCALAR"
		},
		{
			"bufferView":8,
			"componentType":5126,
			"count":690,
			"max":[
				55.05343246459961,
				20.94719123840332,
				35.08478927612305
			],
			"min":[
				-34.40924072265625,
				17.23919677734375,
				-65.13306427001953
			],
			"type":"VEC3"
		},
		{
			"bufferView":9,
			"componentType":5126,
			"count":690,
			"type":"VEC3"
		},
		{
			"bufferView":10,
			"componentType":5126,
			"count":690,
			"type":"VEC2"
		},
		{
			"bufferView":11,
			"componentType":5123,
			"count":2340,
			"type":"SCALAR"
		},
		{
			"bufferView":12,
			"componentType":5126,
			"count":348,
			"max":[
				65.58358764648438,
				20.947179794311523,
				36.21401596069336
			],
			"min":[
				-34.53216552734375,
				16.360525131225586,
				-65.47468566894531
			],
			"type":"VEC3"
		},
		{
			"bufferView":13,
			"componentType":5126,
			"count":348,
			"type":"VEC3"
		},
		{
			"bufferView":14,
			"componentType":5126,
			"count":348,
			"type":"VEC2"
		},
		{
			"bufferView":15,
			"componentType":5123,
			"count":1080,
			"type":"SCALAR"
		}
	],
	"bufferViews":[
		{
			"buffer":0,
			"byteLength":17832,
			"byteOffset":0,
			"target":34962
		},
		{
			"buffer":0,
			"byteLength":17832,
			"byteOffset":17832,
			"target":34962
		},
		{
			"buffer":0,
			"byteLength":11888,
			"byteOffset":35664,
			"target":34962
		},
		{
			"buffer":0,
			"byteLength":10152,
			"byteOffset":47552,
			"target":34963
		},
		{
			"buffer":0,
			"byteLength":9312,
			"byteOffset":57704,
			"target":34962
		},
		{
			"buffer":0,
			"byteLength":9312,
			"byteOffset":67016,
			"target":34962
		},
		{
			"buffer":0,
			"byteLength":6208,
			"byteOffset":76328,
			"target":34962
		},
		{
			"buffer":0,
			"byteLength":4320,
			"byteOffset":82536,
			"target":34963
		},
		{
			"buffer":0,
			"byteLength":8280,
			"byteOffset":86856,
			"target":34962
		},
		{
			"buffer":0,
			"byteLength":8280,
			"byteOffset":95136,
			"target":34962
		},
		{
			"buffer":0,
			"byteLength":5520,
			"byteOffset":103416,
			"target":34962
		},
		{
			"buffer":0,
			"byteLength":4680,
			"byteOffset":108936,
			"target":34963
		},
		{
			"buffer":0,
			"byteLength":4176,
			"byteOffset":113616,
			"target":34962
		},
		{
			"buffer":0,
			"byteLength":4176,
			"byteOffset":117792,
			"target":34962
		},
		{
			"buffer":0,
			"byteLength":2784,
			"byteOffset":121968,
			"target":34962
		},
		{
			"buffer":0,
			"byteLength":2160,
			"byteOffset":124752,
			"target":34963
		}
	],
	"samplers":[
		{
			"magFilter":9729,
			"minFilter":9987
		}
	],
	"buffers":[
		{
			"byteLength":126912,
			"uri":"obj_can.bin"
		}
	]
}
