{
	"asset":{
		"generator":"Khronos glTF Blender I/O v4.3.47",
		"version":"2.0"
	},
	"extensionsUsed":[
		"KHR_materials_specular"
	],
	"scene":0,
	"scenes":[
		{
			"name":"Scene",
			"nodes":[
				0,
				1
			]
		}
	],
	"nodes":[
		{
			"mesh":0,
			"name":"obj_microscope"
		},
		{
			"mesh":1,
			"name":"obj_microscope_collider"
		}
	],
	"materials":[
		{
			"emissiveFactor":[
				1,
				1,
				1
			],
			"emissiveTexture":{
				"index":0
			},
			"extensions":{
				"KHR_materials_specular":{
					"specularFactor":0
				}
			},
			"name":"obj_microscope",
			"pbrMetallicRoughness":{
				"baseColorTexture":{
					"index":1
				},
				"metallicFactor":0
			}
		}
	],
	"meshes":[
		{
			"name":"obj_microscope",
			"primitives":[
				{
					"attributes":{
						"POSITION":0,
						"NORMAL":1,
						"TEXCOORD_0":2
					},
					"indices":3,
					"material":0
				}
			]
		},
		{
			"name":"obj_microscope_collider",
			"primitives":[
				{
					"attributes":{
						"POSITION":4,
						"NORMAL":5,
						"TEXCOORD_0":6
					},
					"indices":7
				}
			]
		}
	],
	"textures":[
		{
			"sampler":0,
			"source":0
		},
		{
			"sampler":0,
			"source":1
		}
	],
	"images":[
		{
			"mimeType":"image/png",
			"name":"obj_miscroscope_emission",
			"uri":"textures/obj_miscroscope_emission.png"
		},
		{
			"mimeType":"image/png",
			"name":"obj_miscroscope",
			"uri":"textures/obj_miscroscope.png"
		}
	],
	"accessors":[
		{
			"bufferView":0,
			"componentType":5126,
			"count":10782,
			"max":[
				-45.623287200927734,
				19.570371627807617,
				-0.003858327865600586
			],
			"min":[
				-64.52263641357422,
				17.42262077331543,
				-20.638704299926758
			],
			"type":"VEC3"
		},
		{
			"bufferView":1,
			"componentType":5126,
			"count":10782,
			"type":"VEC3"
		},
		{
			"bufferView":2,
			"componentType":5126,
			"count":10782,
			"type":"VEC2"
		},
		{
			"bufferView":3,
			"componentType":5123,
			"count":23760,
			"type":"SCALAR"
		},
		{
			"bufferView":4,
			"componentType":5126,
			"count":84,
			"max":[
				-45.66569519042969,
				19.484128952026367,
				-0.01563847064971924
			],
			"min":[
				-64.5643081665039,
				17.42287254333496,
				-20.620115280151367
			],
			"type":"VEC3"
		},
		{
			"bufferView":5,
			"componentType":5126,
			"count":84,
			"type":"VEC3"
		},
		{
			"bufferView":6,
			"componentType":5126,
			"count":84,
			"type":"VEC2"
		},
		{
			"bufferView":7,
			"componentType":5123,
			"count":216,
			"type":"SCALAR"
		}
	],
	"bufferViews":[
		{
			"buffer":0,
			"byteLength":129384,
			"byteOffset":0,
			"target":34962
		},
		{
			"buffer":0,
			"byteLength":129384,
			"byteOffset":129384,
			"target":34962
		},
		{
			"buffer":0,
			"byteLength":86256,
			"byteOffset":258768,
			"target":34962
		},
		{
			"buffer":0,
			"byteLength":47520,
			"byteOffset":345024,
			"target":34963
		},
		{
			"buffer":0,
			"byteLength":1008,
			"byteOffset":392544,
			"target":34962
		},
		{
			"buffer":0,
			"byteLength":1008,
			"byteOffset":393552,
			"target":34962
		},
		{
			"buffer":0,
			"byteLength":672,
			"byteOffset":394560,
			"target":34962
		},
		{
			"buffer":0,
			"byteLength":432,
			"byteOffset":395232,
			"target":34963
		}
	],
	"samplers":[
		{
			"magFilter":9729,
			"minFilter":9987
		}
	],
	"buffers":[
		{
			"byteLength":395664,
			"uri":"obj_microscope.bin"
		}
	]
}
