{
	"asset":{
		"generator":"Khronos glTF Blender I/O v4.1.63",
		"version":"2.0"
	},
	"extensionsUsed":[
		"KHR_materials_specular",
		"KHR_materials_ior"
	],
	"scene":0,
	"scenes":[
		{
			"name":"Scene",
			"nodes":[
				0,
				1
			]
		}
	],
	"nodes":[
		{
			"mesh":0,
			"name":"obj_kitchen"
		},
		{
			"mesh":1,
			"name":"obj_kitchen_collider"
		}
	],
	"materials":[
		{
			"emissiveFactor":[
				1,
				1,
				1
			],
			"emissiveTexture":{
				"index":0
			},
			"extensions":{
				"KHR_materials_specular":{
					"specularFactor":0
				},
				"KHR_materials_ior":{
					"ior":1.4500000476837158
				}
			},
			"name":"obj_kitchen",
			"pbrMetallicRoughness":{
				"baseColorTexture":{
					"index":1
				},
				"metallicFactor":0
			}
		},
		{
			"alphaMode":"BLEND",
			"emissiveFactor":[
				1,
				1,
				1
			],
			"emissiveTexture":{
				"index":2
			},
			"extensions":{
				"KHR_materials_specular":{
					"specularFactor":0
				},
				"KHR_materials_ior":{
					"ior":1.4500000476837158
				}
			},
			"name":"obj_global_glass02",
			"pbrMetallicRoughness":{
				"baseColorTexture":{
					"index":3
				},
				"metallicFactor":0
			}
		}
	],
	"meshes":[
		{
			"name":"Mesh.182",
			"primitives":[
				{
					"attributes":{
						"POSITION":0,
						"NORMAL":1,
						"TEXCOORD_0":2
					},
					"indices":3,
					"material":0
				},
				{
					"attributes":{
						"POSITION":4,
						"NORMAL":5,
						"TEXCOORD_0":6
					},
					"indices":7,
					"material":1
				}
			]
		},
		{
			"name":"Mesh.181",
			"primitives":[
				{
					"attributes":{
						"POSITION":8,
						"NORMAL":9,
						"TEXCOORD_0":10
					},
					"indices":11
				}
			]
		}
	],
	"textures":[
		{
			"sampler":0,
			"source":0
		},
		{
			"sampler":0,
			"source":1
		},
		{
			"sampler":0,
			"source":2
		},
		{
			"sampler":0,
			"source":2
		}
	],
	"images":[
		{
			"mimeType":"image/png",
			"name":"obj_kitchen_emission",
			"uri":"textures/obj_kitchen_emission.png"
		},
		{
			"mimeType":"image/png",
			"name":"obj_kitchen",
			"uri":"textures/obj_kitchen.png"
		},
		{
			"mimeType":"image/png",
			"name":"obj_global_glass02",
			"uri":"textures/obj_global_glass02.png"
		}
	],
	"accessors":[
		{
			"bufferView":0,
			"componentType":5126,
			"count":1279,
			"max":[
				2.701658248901367,
				2.640001058578491,
				0.8682155609130859
			],
			"min":[
				-2.7016589641571045,
				-1.1233504437768715e-06,
				-0.885195255279541
			],
			"type":"VEC3"
		},
		{
			"bufferView":1,
			"componentType":5126,
			"count":1279,
			"type":"VEC3"
		},
		{
			"bufferView":2,
			"componentType":5126,
			"count":1279,
			"type":"VEC2"
		},
		{
			"bufferView":3,
			"componentType":5123,
			"count":3150,
			"type":"SCALAR"
		},
		{
			"bufferView":4,
			"componentType":5126,
			"count":48,
			"max":[
				2.584683656692505,
				2.5205602645874023,
				0.44584596157073975
			],
			"min":[
				-2.7016565799713135,
				0.9362325668334961,
				-0.6489038467407227
			],
			"type":"VEC3"
		},
		{
			"bufferView":5,
			"componentType":5126,
			"count":48,
			"type":"VEC3"
		},
		{
			"bufferView":6,
			"componentType":5126,
			"count":48,
			"type":"VEC2"
		},
		{
			"bufferView":7,
			"componentType":5123,
			"count":90,
			"type":"SCALAR"
		},
		{
			"bufferView":8,
			"componentType":5126,
			"count":198,
			"max":[
				2.7016584873199463,
				2.6400012969970703,
				0.8682155609130859
			],
			"min":[
				-2.7016589641571045,
				-1.5569211200272548e-06,
				-0.885195255279541
			],
			"type":"VEC3"
		},
		{
			"bufferView":9,
			"componentType":5126,
			"count":198,
			"type":"VEC3"
		},
		{
			"bufferView":10,
			"componentType":5126,
			"count":198,
			"type":"VEC2"
		},
		{
			"bufferView":11,
			"componentType":5123,
			"count":504,
			"type":"SCALAR"
		}
	],
	"bufferViews":[
		{
			"buffer":0,
			"byteLength":15348,
			"byteOffset":0,
			"target":34962
		},
		{
			"buffer":0,
			"byteLength":15348,
			"byteOffset":15348,
			"target":34962
		},
		{
			"buffer":0,
			"byteLength":10232,
			"byteOffset":30696,
			"target":34962
		},
		{
			"buffer":0,
			"byteLength":6300,
			"byteOffset":40928,
			"target":34963
		},
		{
			"buffer":0,
			"byteLength":576,
			"byteOffset":47228,
			"target":34962
		},
		{
			"buffer":0,
			"byteLength":576,
			"byteOffset":47804,
			"target":34962
		},
		{
			"buffer":0,
			"byteLength":384,
			"byteOffset":48380,
			"target":34962
		},
		{
			"buffer":0,
			"byteLength":180,
			"byteOffset":48764,
			"target":34963
		},
		{
			"buffer":0,
			"byteLength":2376,
			"byteOffset":48944,
			"target":34962
		},
		{
			"buffer":0,
			"byteLength":2376,
			"byteOffset":51320,
			"target":34962
		},
		{
			"buffer":0,
			"byteLength":1584,
			"byteOffset":53696,
			"target":34962
		},
		{
			"buffer":0,
			"byteLength":1008,
			"byteOffset":55280,
			"target":34963
		}
	],
	"samplers":[
		{
			"magFilter":9729,
			"minFilter":9987
		}
	],
	"buffers":[
		{
			"byteLength":56288,
			"uri":"obj_kitchen.bin"
		}
	]
}
